<?xml version="1.0" encoding="UTF-8"?>
<svg id="Layer_1" data-name="Layer 1" xmlns="http://www.w3.org/2000/svg" viewBox="0 0 402.55 66.98">
  <defs>
    <style>
      .cls-1 {
        fill: #fff;
      }

      .cls-2 {
        fill: #c75c5c;
      }
    </style>
  </defs>
  <path class="cls-1" d="m10.54,55.01c-.09,1.86.06,3.62.42,5.37.08.4.07.79.06,1.19,0,.38-.11.69-.47.91-.29.18-.27.26-.03.5.96.98.62,2.84-.61,3.45-.3.15-.61.19-.92.05-.31-.13-.64-.21-.97-.29-.68-.16-1.14-.62-1.55-1.15-.1-.13-.17-.27-.26-.4-.18-.25-.4-.44-.75-.4-.33.04-.48-.14-.53-.44-.03-.16-.04-.32-.09-.47-.14-.44-.41-.61-.86-.56-.57.06-.71.36-.41.85.11.17.23.32.34.49.17.25.37.37.7.34.54-.04.86.27.93.8.04.28-.05.48-.32.56-.45.13-.91.24-1.33-.05-.3-.21-.59-.19-.9-.07-.24.09-.49.16-.74.24-.25.08-.51.1-.77.06-.7-.1-.99-.59-.65-1.19.19-.34.17-.59-.06-.86-.5-.59-.61-1.25-.48-2.01.12-.75.1-1.51-.01-2.26-.08-.53.01-.98.32-1.41.15-.21.29-.43.4-.67.12-.27.11-.56-.17-.75-.49-.33-.6-.82-.6-1.36,0-.86.01-1.71-.01-2.57-.07-2.17.18-4.34.13-6.51-.01-.66,0-1.31-.09-1.97-.06-.47-.04-.95.02-1.43.09-.73.1-1.47,0-2.21-.07-.5-.09-1-.02-1.49.11-.78.11-1.55.08-2.33-.06-1.73.14-3.46.11-5.2-.03-1.83-.12-3.66-.28-5.49-.1-1.15-.06-2.31-.01-3.46.08-1.97.31-3.93-.02-5.9-.18-1.11.36-1.89,1.45-2.22.35-.1.7-.17,1.06-.16.86.02,1.72-.02,2.57.09.2.03.4.03.6,0,1.08-.16,2.15-.04,3.23.07.32.03.64.06.95.09.78.09,1.54.58,1.66,1.54.06.52.25,1,.43,1.49.35.89.64,1.8.93,2.72.18.56.2,1.14.28,1.71.07.5.21.98.51,1.39.74,1.02,1.13,2.19,1.59,3.34.95,2.35,1.59,4.8,2.36,7.21.37,1.14.66,2.3.98,3.45.07.25.13.51.25.73.5.93.69,1.95.92,2.96.05.24.13.46.26.66.33.51.82.49,1.14-.03.13-.22.19-.48.25-.73.35-1.43.75-2.85,1.2-4.26.05-.15.1-.3.15-.45.31-.92.45-.98,1.32-.57.4.19.73.12,1.05-.16.22-.2.42-.43.68-.58.44-.26.79-.24,1.09.06.31.31.36.74.11,1.15-.42.66-1.05,1.08-1.77,1.37-.33.13-.68.23-.97.45-.13.1-.27.2-.24.39.04.21.22.27.4.3.24.04.48.01.69-.13.18-.13.36-.26.52-.4.3-.28.62-.5,1.02-.6.06-.02.12-.03.17-.06.52-.24,1.17-.38,1.25-1.07.08-.74-.13-1.45-.71-1.95-.43-.39-.88-.75-1.21-1.24-.03-.05-.08-.1-.13-.12-.72-.28-.89-.98-1.24-1.55-.16-.26-.16-.52,0-.79.23-.39.33-.81.33-1.26,0-.36.12-.7.22-1.05.45-1.61,1.02-3.19,1.42-4.82.1-.41.26-.8.46-1.17,1.06-1.98,1.71-4.11,2.4-6.23.04-.11.06-.23.09-.35.28-1.06.75-1.61,2.2-1.55.94.04,1.87.17,2.8.27.34.04.68.07,1.02.02.94-.13,1.88-.08,2.81-.08.48,0,.96.08,1.41.26.62.25.96.71,1,1.37.13,2.13.27,4.26-.26,6.36-.05.19-.07.4-.05.59.05.85.12,1.71.18,2.56.02.3.03.6.05.89.06.91-.37,1.52-1.19,1.89-.27.12-.53.27-.79.42-.15.09-.22.24-.15.41.07.18.24.19.4.19.16,0,.31-.07.45-.14.2-.1.39-.21.59-.3.5-.22.8-.06.79.49-.02.83-.1,1.67-.16,2.5-.07.85-.09,1.71-.17,2.56-.07.77-.01,1.55.15,2.32.13.58.06,1.1-.33,1.57-.32.39-.39.82-.1,1.27.02.03.04.07.05.11.08.24.29.5.11.73-.21.27-.47,0-.71-.05-.15-.03-.32-.13-.44.03-.11.14-.05.31.03.45.11.19.23.38.35.56.17.25.33.5.41.8.08.32.24.58.52.77.17.11.29.28.36.47.19.49-.02.92-.54,1.04-.08.02-.16.02-.24.04-.23.08-.29.28-.11.46.11.11.24.21.38.29.35.2.47.5.46.9-.01.48-.08.95-.15,1.43-.05.34-.25.57-.47.81-.25.27-.25.37.05.57.38.24.46.57.45.97-.02.64-.03,1.27-.04,1.91,0,.54.02,1.07.14,1.6.26,1.15.08,2.3-.05,3.45-.08.76-.07,1.51-.01,2.27.07.87.1,1.75-.02,2.62-.08.58-.04,1.16.12,1.72.22.8-.09,1.36-.74,1.78-.27.17-.55.33-.77.56-.11.12-.27.17-.43.18-.52.03-1.03.15-1.55.03-.1-.02-.2-.03-.3-.03-1.12,0-2.24-.06-3.35-.15-.46-.04-.91.03-1.35.18-.94.33-1.6-.01-1.91-.96-.27-.82-.41-1.66-.2-2.53.18-.78.25-1.56.26-2.37,0-.65.15-1.31.08-1.96-.12-1.11-.29-2.21-.38-3.32-.16-1.98-.29-3.96-.13-5.96.1-1.21.18-2.42.18-3.64,0-.18,0-.36-.02-.54-.02-.23.02-.54-.29-.58-.27-.04-.41.22-.52.43-.34.64-.53,1.33-.73,2.02-.13.48-.23.97-.35,1.45-.27,1.15-.67,2.25-1.12,3.34-.56,1.36-1.02,2.76-1.39,4.19-.21.81-.49,1.6-.73,2.4-.23.77-.77,1.19-1.53,1.35-.35.07-.71.14-1.07.14-1.24,0-2.47.15-3.71.21-.62.03-1.24-.07-1.82-.29-.8-.31-1.23-.94-1.43-1.73-.26-1.04-.52-2.09-.66-3.16-.08-.63-.27-1.19-.73-1.66-.39-.4-.54-.93-.7-1.44-.27-.85-.52-1.72-.77-2.58-.21-.75-.44-1.49-.82-2.17-.27-.48-.35-1.01-.46-1.54-.05-.25-.07-.59-.38-.6-.34-.01-.33.35-.37.59-.08.39-.16.79-.16,1.18,0,1.04-.16,2.07-.14,3.1.03,1.73-.2,3.46-.13,5.12Zm17-13.07c.01.2,0,.4.04.59.07.43.31.59.66.36.44-.28.77-.23,1.09.15.18.21.39.16.56-.04.12-.14.2-.3.26-.47.17-.51.27-1.04.35-1.57.06-.45-.09-.6-.54-.53-.35.05-.61-.02-.88-.24-.48-.41-.84-.34-1.16.2-.28.47-.41.99-.39,1.54ZM4.14,60.3c-.01-.25-.1-.49-.3-.62-.53-.35-1.08-.66-1.62-.99-.1-.06-.23-.08-.33.02-.1.1-.08.22-.02.33.27.5.53,1.02.9,1.47.15.19.36.31.59.38.46.14.8-.12.79-.59Zm25.18-30.2c.38.02.47-.1.34-.4-.13-.29-.21-.6-.29-.91-.15-.57-.31-.64-.83-.32-.12.07-.23.16-.33.26-.16.16-.2.35-.08.54.3.45.72.73,1.19.83Zm8.56,9.59c.01.35.22.5.54.4.33-.1.61-.46.62-.79,0-.22-.08-.38-.27-.48-.2-.1-.38-.06-.54.09-.23.21-.36.47-.35.78Zm-2.9,5.63c-.3,0-.44.14-.45.43,0,.4.36.75.76.74.3,0,.49-.19.49-.47,0-.37-.38-.7-.81-.69Zm-21.23-11.22c0-.39-.09-.72-.28-1-.14-.2-.31-.2-.43-.03-.22.32-.06,1.2.25,1.44.2.15.38.09.44-.16.02-.09.02-.2.02-.24Zm-5.78-.18c.84-.09,1.02-1.09.94-1.44-.05-.2-.2-1.38-.79-1.26-.6.25-.26.76-.37,1.52-.04.25-.33,1.12.22,1.18Zm30.57-1.85c0-.3-.48-.81-.78-.8-.19,0-.29.12-.27.31.02.3.46.71.78.73.17,0,.26-.07.27-.24Zm-16.17,11.82c0-.3-.15-.49-.39-.48-.27.01-.37.19-.38.44-.02.3.17.57.4.56.21,0,.38-.23.38-.52Zm8.54-17.17c-.25,0-.46.2-.46.45,0,.23.11.38.35.39.24.02.49-.18.5-.41.02-.22-.17-.43-.4-.43ZM1.71,62.36c-.2-.01-.37.15-.38.37-.01.23.19.43.46.45.21,0,.42-.02.46-.27.04-.21-.29-.53-.54-.55Zm6.2-9.72c-.02.24.17.46.42.47.23.01.44-.16.43-.38,0-.25-.16-.39-.4-.43-.24-.04-.44.12-.45.35Zm-2.71-33.26c.32.45,1.4.95,1.89.93.08,0,.5.02.58-.24s0-.45-.05-.51c-.23-.31-1.16-.7-2.41-.17Zm5.19-2.47c-.02-.28.25-1.1-.87-1.1-.6.03-.47.87-.45,1.03.03.3.38.8.66.77.53-.07.63-.43.66-.7Zm22.62,4.51c-.02-.2-.1-.35-.32-.36-.19,0-.29.11-.29.29,0,.18.06.37.27.4.22.03.3-.14.33-.33Zm-23.79,1.44c.19-.04.51-.15.51-.48,0-.26-.34-.35-.5-.34-.22,0-.35.26-.34.46,0,.16.16.37.34.37Zm17.44,16.46c-.02-.16-.12-.22-.25-.2-.19.03-.35.12-.35.34,0,.15.13.19.26.18.2-.02.33-.12.34-.32Zm10.69,15.38c-.04-.13-.12-.26-.31-.24-.17.02-.22.15-.21.3.02.16.11.26.27.25.16,0,.24-.11.25-.31Z"/>
  <path class="cls-1" d="m319.13,66.64c-1.54.04-3.07-.15-4.61-.21-1.97-.07-3.95-.13-5.93.04-.77.07-1.55.18-2.33.17-.44,0-.88-.02-1.31-.09-.61-.1-1.23-.06-1.85.03-.99.15-1.61-.28-1.85-1.25-.11-.45-.09-.91-.04-1.37.09-.73.09-1.47.09-2.21,0-1.37-.03-2.75-.01-4.12.02-1.12-.08-2.23-.19-3.34-.07-.78.08-1.55.13-2.32.09-1.49.13-2.98-.01-4.47-.13-1.37-.21-2.74-.08-4.11.12-1.29,0-2.59-.13-3.87-.21-1.91-.23-3.81-.1-5.72.01-.18.02-.36.02-.54.05-1.49.05-2.99.16-4.48.07-.95.05-1.91.17-2.86.07-.56-.08-1.11-.11-1.67-.02-.54-.1-1.07-.17-1.6-.05-.4-.05-.79.01-1.19.1-.67.1-1.35,0-2.02-.02-.16-.06-.32-.04-.47.16-1.07.02-2.15.22-3.21.14-.74.45-1.07,1.19-1.22.3-.06.6-.05.9-.02,2.09.2,4.18.27,6.27.01,1.45-.18,2.9-.15,4.37-.08,1.73.08,3.47.23,5.21.16,1.6-.06,3.19.01,4.78.22.71.09,1.36.3,1.96.69.49.32,1.01.57,1.58.69,1.41.3,2.49,1.1,3.42,2.17.71.81,1.45,1.59,2,2.53.22.38.42.77.56,1.19.32.99.63,1.97.94,2.96.15.46.21.93.11,1.41-.08.39-.06.79-.05,1.19,0,1.55-.03,3.11.03,4.66.1,2.73.05,5.46.13,8.18.04,1.35.03,2.71.1,4.06.05,1.05.15,2.11.09,3.16-.1,1.79-.12,3.58-.31,5.36-.1.91-.08,1.83-.26,2.73-.2.97-.5,1.92-.67,2.91-.09.55-.43.98-.95,1.23-.16.08-.32.17-.48.24-.45.2-.66.53-.68,1.03-.03.83-.47,1.38-1.24,1.64-.38.13-.61.04-.77-.34-.16-.35-.16-.74-.24-1.11-.14-.61-.19-.66-.8-.56-.27.05-.47-.03-.64-.22-.14-.17-.27-.34-.42-.51-.43-.47-.94-.52-1.43-.11-.31.26-.58.55-.73.93-.14.37-.03.62.32.78.35.17.58.05.63-.34,0-.02,0-.04,0-.06.08-.74.38-.9.99-.45.82.6,1.34,1.42,1.55,2.41.11.52-.1.93-.52,1.25-.47.35-1.02.55-1.57.72-.95.3-1.92.56-2.87.86-1.21.38-2.45.57-3.72.51-.28-.01-.56,0-.84,0Zm7.37-25.49c-.04-.16-.11-.24-.18-.27-.49-.22-.99-.3-1.53-.21-.64.11-.98-.07-1.13-.69-.05-.23-.06-.47-.06-.71,0-1.59.21-3.18.29-4.76.09-1.7.06-3.38-.09-5.07-.06-.67-.17-1.34-.34-2-.34-1.32-1.18-2.01-2.77-1.88-.99.08-1.95-.02-2.92-.12-1.21-.13-2.42-.31-3.64-.28-1.31.03-2.09.77-2.14,2.08-.02.64-.05,1.28.03,1.91.17,1.3-.05,2.58-.09,3.87-.03,1.01-.15,2.02-.18,3.04-.05,1.64.25,3.25.32,4.88.03.67,0,1.32-.28,1.93-.15.32-.18.64-.12.99.08.51,0,.63-.49.79-.23.08-.47.11-.71.12-.14,0-.28.04-.41.08-.1.03-.18.1-.18.21,0,.11.06.19.16.23.24.11.5.13.76.17.89.14,1.26.53,1.3,1.43.06,1.43-.03,2.86-.18,4.29-.09.85-.25,1.69-.18,2.56.06.89.54,1.5,1.41,1.72.5.13,1.02.17,1.55.13,2.09-.15,4.18-.3,6.28-.16,1.21.08,2.08-.52,2.5-1.64.24-.64.38-1.3.35-1.99-.02-.48.03-.95.18-1.41.14-.45.12-.9-.03-1.35-.18-.55-.25-1.12-.25-1.71,0-.66.09-1.31.17-1.96.1-.81.26-1.61-.06-2.42-.16-.41-.03-.78.23-1.11.14-.17.29-.33.45-.48.34-.35.72-.39,1.19-.22.23.08.69.29.77.02Zm-7.06,21.43c.05,0,0,0-.07,0-.23,0-.55.13-.6-.19-.05-.29.29-.33.51-.4.29-.08.59-.12.87-.2.42-.13.48-.24.26-.63-.13-.24-.16-.44.04-.65.05-.06.11-.12.15-.19.12-.18.07-.34-.07-.48-.15-.14-.31-.17-.5-.08-.19.1-.22.25-.17.45.16.7.15.7-.55.9-.06.02-.12.02-.17.05-.51.21-1.06.36-1.46.79-.37.39-.35.63.09.91.39.25.8.45,1.17.72.13.1.3.16.45.1.46-.17.93-.2,1.41-.25.15-.02.33-.07.36-.26.02-.18-.12-.29-.26-.36-.42-.22-.87-.29-1.44-.25Zm10.43-7.78c.02.42-.05.72-.39.88-.33.15-.58-.04-.81-.24-.26-.22-.45-.5-.66-.77-.13-.17-.27-.34-.43-.49-.11-.1-.25-.13-.39-.05-.12.07-.13.19-.13.31,0,.94.78,1.98,1.69,2.27.19.06.37.07.48-.11.18-.31.48-.45.79-.6.55-.27.84-1.31.54-1.84-.1-.18-.24-.34-.47-.28-.25.07-.32.27-.28.52.03.16.05.31.07.39Zm-7.21,4.68c.02-.46-.03-.79-.26-1.06-.14-.16-.27-.38-.53-.3-.23.07-.31.29-.36.51-.04.18-.01.36.07.52.07.14.13.29.21.43.28.52.39,1.03.05,1.58-.12.2-.2.43-.2.68,0,.26.13.47.39.53.25.06.41-.11.53-.3.12-.2.13-.42.1-.64-.08-.69-.22-1.38,0-1.96Zm2.38-.68c0-.16-.04-.32-.12-.46-.3-.55-.67-1.03-1.23-1.35-.19-.11-.39-.2-.61-.24-.28-.04-.42.12-.34.39.03.09.08.19.14.26.48.62,1.17,1.02,1.64,1.64.08.11.24.15.38.06.12-.07.14-.19.14-.31Zm-12.52-1.21c-.09-.42-.23-.86-.5-1.23-.08-.11-.18-.21-.3-.28-.34-.2-.66-.03-.65.37.01.57.25,1.08.61,1.51.15.18.38.21.6.1.18-.09.24-.25.24-.47Zm18.71-8.57c-.02-.18-.17-.2-.31-.18-.46.07-.88.23-1.28.46-.19.11-.24.26-.07.43.24.24.47.47.62.79.1.21.29.17.45.03.15-.13.19-.31.15-.49-.07-.31.04-.54.27-.74.09-.08.17-.17.18-.31Zm1.66,1.8c.42,0,.64-.15.63-.46-.01-.43-.49-.92-.93-.95-.42-.04-.68.24-.63.66.06.46.4.74.92.75Zm-20.7,10.24c-.07-.46-.26-.92-.68-1.24-.23-.18-.42-.09-.47.19-.09.46.22,1.16.63,1.39.28.16.51.03.52-.35Zm8.42-3.64c0-.24.02-.48-.11-.7-.07-.13-.17-.22-.33-.22-.16,0-.27.11-.3.25-.12.45-.11.9.08,1.34.05.11.13.21.26.21.16,0,.25-.11.31-.24.1-.2.08-.42.09-.64Zm6.74.1c-.06,0-.12,0-.18,0-.14,0-.29.02-.35.18-.06.15,0,.27.09.39.26.33.61.42,1.02.37.15-.02.27-.08.32-.23.06-.17,0-.31-.12-.43-.21-.21-.49-.25-.77-.26Zm5.12-2.27c-.05-.31-.18-.61-.41-.87-.1-.11-.22-.17-.37-.11-.14.06-.21.18-.22.33,0,.37.07.71.34.98.12.11.25.21.43.14.2-.07.23-.25.23-.47Zm-6.09-7.92c.25-.01.46-.31.43-.62-.02-.26-.19-.42-.42-.41-.29,0-.5.26-.47.57.02.26.23.46.46.45Zm-.7-3.91c0,.32.19.54.43.54.22,0,.37-.18.37-.45,0-.3-.22-.61-.45-.62-.2,0-.36.23-.36.53Zm-20.31-2.59c0-.26-.19-.45-.44-.46-.25,0-.47.2-.45.44.02.23.24.42.49.42.25,0,.4-.14.4-.4Zm23.32,2.89c-.23,0-.35.14-.36.37-.02.28.13.47.39.49.25.02.46-.14.47-.35.01-.23-.24-.5-.5-.51Zm-3.28,9.26c-.27,0-.44.15-.43.39,0,.23.19.45.39.46.21.01.46-.23.47-.46.01-.23-.16-.39-.43-.39Zm-.19,3.5c.21-.03.36-.14.37-.38.01-.22-.31-.46-.55-.43-.21.03-.31.16-.3.37,0,.25.22.45.48.44Zm4.22-21c.01-.2-.19-.39-.43-.39-.21,0-.33.12-.33.33,0,.23.13.36.35.39.2.03.39-.13.4-.33Zm-3.91,16.33c.21-.01.38-.26.35-.49-.02-.18-.11-.31-.3-.28-.23.03-.34.2-.34.41,0,.19.1.34.29.36Zm2.77-4.22c.02.19.03.4.27.38.23-.02.3-.23.3-.45,0-.17-.06-.34-.25-.34-.27,0-.29.21-.32.41Zm-.26-7.87c0-.23-.21-.47-.38-.43-.14.03-.18.14-.18.26,0,.24.2.47.38.43.14-.03.18-.13.18-.26Zm-20.54,6.18c-.01-.13-.07-.24-.24-.26-.17-.02-.26.08-.28.24-.02.14,0,.3.18.32.19.02.28-.11.35-.3Z"/>
  <path class="cls-1" d="m190.48,48.83c-.12,0-.15-.02-.16,0-.43.57-.97.6-1.64.51-1.48-.19-2.37.58-2.62,2.06-.16.96-.05,1.91.04,2.86.11,1.16.09,2.31.1,3.46,0,1.16-.03,2.31,0,3.47.03.83.13,1.67.1,2.51-.02.62-.11,1.23-.33,1.81-.33.86-.9,1.25-1.82,1.27-.74.02-1.47-.11-2.21-.18-1.3-.12-2.59-.12-3.89,0-.34.03-.68.04-1.02.03-.76-.03-1.22-.41-1.42-1.15-.19-.7-.19-1.43-.09-2.14.14-1.1-.01-2.19-.1-3.28-.18-2.25-.25-4.49-.09-6.74.07-.97.11-1.95.15-2.92.03-.74.03-1.47.09-2.21.08-.88-.09-1.75-.14-2.62-.05-.91-.13-1.83-.17-2.74-.03-.71.16-1.34.78-1.78.28-.2.28-.29-.02-.48-.43-.27-.52-.66-.54-1.12-.03-.78.12-1.55.12-2.33,0-.48.01-.96-.07-1.43-.02-.1-.04-.2-.02-.3.21-1.05-.03-2.06-.21-3.08-.09-.5-.08-1,.1-1.47.2-.53.2-1.05.06-1.58-.06-.25-.1-.51-.15-.76-.13-.58.09-1.01.57-1.32.3-.19.63-.35.88-.61.19-.19.27-.38.14-.64-.42-.85-.21-1.76-.21-2.65,0-.38.25-.54.65-.53.16,0,.32.05.47.06.35.02.47-.15.35-.49-.03-.09-.1-.17-.14-.26-.15-.36-.02-.59.37-.6.24,0,.47.06.71.08.14.01.29,0,.37-.14.09-.17.02-.34-.11-.43-.76-.48-1.31-1.33-2.33-1.36-.12,0-.24-.04-.35-.07-.51-.12-.79-.32-.65-.92.12-.51,0-.98-.29-1.43-.22-.33-.4-.69-.41-1.11,0-.62.3-1.03.9-1.16.4-.09.79-.08,1.19,0,1.02.22,2.04.41,3.09.24.21-.03.43.05.65.09.6.13,1.19.13,1.76-.15.11-.05.22-.1.33-.13.38-.12.52-.08.78.23.15.18.29.39.45.55.27.26.42.22.58-.12.07-.14.09-.3.15-.45.15-.39.3-.51.68-.38.94.33,1.88.25,2.84.1.66-.1,1.31.05,1.97.11,1.27.12,2.54.25,3.82.1.63-.07,1.28-.06,1.92-.03.78.04,1.48.34,2.09.82.27.22.55.38.92.38.54,0,1.01.19,1.4.59.23.24.51.38.85.36.59-.03,1.02.13,1.11.81.04.29.28.4.54.5.55.2.61.38.33.88-.03.05-.07.1-.1.15-.1.16-.18.33-.06.5.15.2.35.15.54.08.13-.05.26-.11.39-.16.5-.18.79.15,1.07.46.31.34.66.67.51,1.2-.06.23-.25.35-.45.46-.21.11-.44.2-.63.34-.27.19-.25.44.06.53.59.16,1.13.49,1.79.41.37-.05.62.24.65.62.03.36-.15.59-.53.67-.06.01-.12.01-.18.02-.51.11-.67.24-.69.74-.03.73-.4,1.18-1.07,1.43-.02,0-.04.01-.06.02-.17.08-.41.11-.39.38.02.19.28.3.61.22.77-.19,1.22-.72,1.47-1.44.08-.24.13-.51.25-.73.18-.35.52-.36.77-.05.16.2.21.43.2.67-.07,1.03.1,2.02.33,3.02.13.57.12,1.15-.06,1.72-.14.45-.16.89.02,1.34.14.36.14.74.06,1.12-.2.88-.26,1.77-.2,2.67.06.93-.1,1.83-.32,2.72-.21.87-.41,1.75-.53,2.64-.07.51-.32.91-.77,1.14-.54.28-.75.72-.92,1.3-.3,1.1-1.05,1.95-1.91,2.69-.23.19-.48.35-.71.54-.8.67-.95,1.26-.53,2.22.22.49.42.99.61,1.49.17.48.26.97.14,1.47-.09.37,0,.66.26.92.33.33.56.72.77,1.13.57,1.1,1.11,2.21,1.5,3.39.06.17.11.34.14.52.07.4-.03.56-.42.64-.29.06-.59.09-.88.16-.16.04-.3.13-.28.33.02.18.14.28.31.32.28.05.56.04.84,0,.41-.07.71.06.93.39.37.57.76,1.14.94,1.79.25.89.59,1.73.93,2.59.13.34.23.68.26,1.04.03.38-.11.66-.48.81-.32.12-.62.28-.95.37-.48.14-.75-.08-.7-.57.03-.32.1-.63.06-.95-.04-.35-.26-.46-.54-.24-.23.18-.42.42-.63.63-.46.46-.57.46-1.01,0-.32-.34-.43-.36-.83-.15-.46.24-.88.55-1.3.85-.14.11-.29.21-.45.29-.27.14-.52.12-.77-.09-.48-.42-.49-.4-.93.02-.95.91-2.59.49-2.86-.77-.17-.78-.51-1.47-.92-2.13-.73-1.14-1.2-2.4-1.5-3.7-.67-2.89-1.84-5.6-2.96-8.32-.18-.42-.38-.85-.71-1.17-.37-.35-.62-.71-.39-1.27Zm-.97-23.11c-.2,0-.4,0-.6,0-.42,0-.84,0-1.26.04-.86.09-1.23.47-1.36,1.33-.07.47-.08.95-.1,1.43-.07,1.75.19,3.5.09,5.25-.06.99,0,2-.39,2.94-.1.25-.09.52.07.75.64.97,1.52,1.54,2.7,1.48.5-.03.95.02,1.38.26.33.19.65.15.96-.06.11-.08.24-.15.36-.22.43-.24.84-.23,1.23.08.16.12.32.24.48.36.57.38.75.4,1.3.01.68-.49,1.35-1,2-1.52.68-.54,1.01-1.27,1.07-2.13.04-.6.05-1.2-.04-1.79-.1-.63-.05-1.24.15-1.83.13-.39.11-.74-.04-1.1-.18-.45-.22-.92-.2-1.41.02-.46.02-.92.03-1.37,0-.32-.1-.59-.38-.77-.5-.31-.89-.74-1.29-1.16-.26-.28-.57-.49-.9-.69-.42-.26-.81-.29-1.21.04-.3.25-.65.36-1.06.29-.99-.16-1.98-.24-2.98-.21Zm11.48-1.92c.51-.02,1.04-.1,1.53-.33.14-.07.32-.13.32-.32,0-.19-.18-.25-.34-.28-.75-.11-1.45-.43-2.17-.62-.5-.13-.95-.02-1.38.2-.52.27-.66.86-.35,1.32.23.34.5.42.86.2.36-.22.73-.3,1.14-.21.12.02.24.02.39.03Zm-17.74,10.04c.47-.05.95-.05,1.4-.25.12-.06.26-.15.21-.32-.04-.13-.18-.16-.3-.15-.3.01-.59.04-.89.06-.63.05-.96-.16-1.21-.74-.14-.34-.15-.7-.14-1.05.01-.41.19-.72.57-.91.19-.1.38-.22.56-.34.08-.06.13-.15.1-.26-.03-.1-.12-.15-.22-.17-.32-.05-.61.02-.82.25-.84.96-1.15,1.46-.66,2.67.05.13.11.26.16.39.22.57.61.87,1.24.82Zm-2.95-15.27c.01-.26-.11-.48-.37-.6-.18-.08-.37-.16-.56-.21-.39-.11-.68-.32-.84-.7-.03-.07-.07-.14-.11-.21-.26-.4-.57-.41-.82.01-.23.38-.39.81-.16,1.25.2.39.6.41.99.43.02,0,.04,0,.06,0,.48-.02.84.15,1.05.62.14.32.36.33.58.06.14-.18.19-.39.19-.64Zm-.96,9.96c.37-.04.71-.2,1.01-.43.17-.13.41-.26.3-.52-.09-.22-.34-.17-.53-.15-.46.04-.8-.16-1.09-.49-.14-.16-.29-.33-.46-.46-.25-.19-.51-.11-.6.19-.03.11-.05.24-.03.35.1.52.35.96.77,1.3.17.14.39.2.62.22Zm.42,9.66c0-.13-.1-.21-.21-.26-.51-.26-.82-.69-1.05-1.18-.09-.18-.22-.33-.38-.46-.1-.08-.21-.15-.32-.07-.11.08-.1.21-.07.33.02.1.05.19.09.28.27.61.73,1.09,1.22,1.53.16.15.36.17.56.07.09-.05.16-.12.17-.24Zm19.68-8.74c.03.05.06.11.09.16.6-.23,1.21-.46,1.8-.71.14-.06.27-.21.19-.39-.08-.18-.27-.17-.42-.12-.64.22-1.18.61-1.66,1.06Zm-4.27-5.47c0-.3-.13-.48-.39-.5-.28-.02-.51.17-.52.45-.02.3.2.57.47.58.26,0,.43-.2.44-.53Zm-10.77,18.47c0,.33.16.5.46.48.25-.02.4-.15.43-.4.02-.29-.27-.62-.52-.6-.22.01-.36.22-.36.52Zm19.72-11.39c-.19.01-.37.08-.39.32-.02.25.3.54.59.55.2,0,.34-.08.38-.29.04-.26-.25-.56-.58-.58Zm.31,6c0-.14-.1-.22-.23-.24-.22-.04-.64.18-.76.4-.05.09-.08.19,0,.27.19.18.4.14.61.05.21-.09.37-.24.37-.48Zm.56-11.48c.01-.24-.14-.41-.39-.41-.23,0-.37.1-.4.33-.03.25.11.42.35.44.25.02.43-.12.44-.36Zm-4.09,37.12c.02-.28-.25-.57-.55-.58-.16,0-.27.05-.27.23,0,.25.34.61.56.61.17,0,.24-.1.26-.26Zm-.18-27.81c.24.02.52-.24.53-.49.01-.18-.06-.32-.25-.35-.2-.03-.5.25-.51.49-.01.18.05.31.23.34Zm-23.03,28.09c.17-.03.34-.09.37-.3.03-.21-.19-.43-.4-.42-.22,0-.32.14-.33.34-.01.22.14.39.36.39Zm4.86-36.22c-.17,0-.28.08-.29.24-.01.21.09.34.3.37.19.02.31-.07.31-.26,0-.2-.13-.32-.32-.35Zm11.76,20.2c-.02-.18-.07-.36-.31-.34-.16.01-.23.14-.23.29,0,.2.09.36.29.37.21.02.23-.16.25-.33Zm-14.06-23.05c-.02-.15-.08-.28-.25-.27-.23.02-.27.19-.27.38,0,.14.03.28.2.31.16.02.32-.21.31-.43Zm19.72,25.97c-.02-.14,0-.3-.19-.33-.14-.03-.34.22-.34.43,0,.18.08.32.28.31.24-.02.23-.23.24-.4Z"/>
  <path class="cls-1" d="m138.54,35.79c.26.1.4.01.54-.06.49-.27.97-.19,1.43.06.58.31,1.15.64,1.72.97.14.08.28.15.41.24.36.25.71.21,1.05-.05.13-.1.26-.18.4-.27.31-.21.65-.32,1.02-.31,2,.08,3.99-.2,5.98-.25,1.15-.03,1.88-.71,1.96-1.85.07-.95.04-1.91-.04-2.87-.15-1.96-.39-3.93-.39-5.9,0-1.09.13-2.19.17-3.28.04-.94.05-1.87.06-2.81,0-1.12,0-2.23,0-3.35,0-.3.01-.6.13-.88.15-.38.39-.43.69-.17.17.15.22.47.53.41.23-.04.37-.24.51-.39.35-.38.75-.5,1.24-.27.72.34,1.47.11,2.19,0,1.41-.2,2.83-.21,4.25-.19.92.01,1.45.53,1.51,1.44.03.4.03.8,0,1.19-.06.78-.35,1.08-1.11,1.24-.14.03-.3.03-.35.19-.06.2.11.28.25.36.17.1.36.17.54.25.51.24.61.43.59.98-.05,1.53-.1,3.07-.03,4.6.07,1.71.24,3.42.31,5.13.06,1.53.05,3.07.06,4.6,0,.41-.19.68-.58.81-.4.13-.67.42-.9.76-.07.1-.1.23-.02.33.07.09.18.08.28.06.19-.05.39-.11.58-.14.38-.07.53.04.58.4.02.14.02.28,0,.42-.1,1.19-.2,2.38-.3,3.57-.01.16-.02.32.01.48.12.54.1,1.07-.07,1.59-.09.28-.05.55.06.82.25.66.28,1.32-.02,1.98-.16.35-.13.69.06,1.03.25.43.31.88.21,1.38-.21.98-.26,1.97-.35,2.96-.04.38,0,.76.05,1.13.11.78,0,1.49-.53,2.13-.42.5-.39.69.09,1.18.42.44.56.89.29,1.46-.16.34-.25.72-.36,1.08-.1.32-.09.63.15.9.22.26.3.55.28.89,0,.18-.02.37.03.53.2.57.16,1.14.07,1.71-.08.51-.11,1.03-.13,1.55-.02.5-.13.99-.44,1.41-.21.28-.17.47.07.72.37.38.29.64-.23.72-1.01.16-2.02.21-3.04,0-.14-.03-.27-.08-.39-.14-.39-.21-.46-.46-.21-.83.2-.29.45-.56.66-.85.12-.16.24-.34.12-.55-.12-.21-.34-.18-.54-.19-.38-.01-.76.06-1.13.15-.6.13-1.19.14-1.77-.07-.19-.07-.39-.09-.59-.07-.24.02-.39.15-.33.39.14.53-.09.87-.51,1.16-.3.21-.48.53-.71.8-.56.64-1.11.56-1.48-.21-.17-.34-.25-.72-.26-1.1-.06-1.87-.33-3.73-.24-5.61.04-.83.11-1.67.17-2.5.02-.26.05-.52.05-.77,0-1.81,0-3.63,0-5.44,0-.28-.04-.56-.06-.83-.08-.99-.69-1.53-1.59-1.79-.8-.23-1.62-.31-2.43-.21-.86.1-1.72.07-2.57.08-.56,0-1.12.02-1.68,0-.81-.03-1.6.1-2.36.37-.39.14-.74.14-1.07-.14-.03-.03-.07-.05-.1-.07-.19-.11-.42-.27-.59-.06-.18.21.06.36.2.49.23.21.34.43.23.74-.08.24-.02.47.04.71.21.8.28,1.6.29,2.43,0,.64.07,1.27.15,1.9.05.41.05.79-.13,1.17-.15.31-.14.6,0,.92.18.43.22.88.15,1.35-.03.22-.04.44-.04.66,0,2.03-.15,4.06-.27,6.09,0,.12-.02.24-.04.36-.22,1.26-1.02,1.84-2.31,1.68-.38-.05-.75-.08-1.11-.21-.54-.2-.99-.51-1.27-1.03-.04-.07-.08-.14-.13-.2-.1-.12-.18-.32-.36-.26-.21.07-.08.27-.07.42.04.55-.05.73-.57.89-1.19.37-2.4.41-3.61.17-.64-.13-1.01-.55-1.09-1.19-.06-.45-.12-.91-.12-1.37,0-.64-.02-1.27-.12-1.91-.21-1.25-.12-2.5-.14-3.76-.01-.84.02-1.67-.09-2.51-.07-.56,0-1.11.26-1.63.27-.54.33-1.08.08-1.66-.2-.46-.22-.97-.23-1.47-.01-1.61.1-3.22.18-4.83.06-1.23.11-2.47-.04-3.7-.06-.46-.06-.92,0-1.37.06-.4.08-.8.05-1.19-.16-2.17-.11-4.34-.1-6.51,0-1.39,0-2.79,0-4.18,0-.46-.03-.91-.09-1.37-.1-.78-.05-1.55.1-2.32.16-.77.15-1.54,0-2.32-.11-.61-.18-1.22-.16-1.84.04-1.35-.08-2.71.11-4.06.16-1.19.78-1.85,1.98-1.93,1.12-.07,2.24-.11,3.32.29.66.24,1.3.22,1.98-.06,1-.41,2-.21,2.96.22.52.23.76.67.68,1.22-.17,1.22,0,2.42.12,3.63.08.89.05,1.79-.01,2.69-.06.91-.14,1.83-.18,2.74-.02.45-.08.87-.33,1.25-.25.38-.3.72.03,1.08.18.2.25.45.28.72.14,1.38.37,2.76.15,4.17-.06.39-.05.8-.02,1.19.05.63-.25.9-.95.92-.14,0-.28-.05-.42-.04-.51,0-.91.19-1.2.68Zm16.95-17.91c0,.25-.04.47.18.59.21.11.4,0,.54-.13.43-.4.92-.68,1.47-.89.16-.06.37-.15.34-.36-.03-.2-.24-.25-.41-.29-.31-.08-.62-.16-.9-.3-.25-.12-.49-.26-.76-.35-.37-.12-.62.09-.51.45.14.45.19.89.05,1.29Zm1.29,2.33c.01-.63-.12-.77-.74-.79-.24,0-.47-.03-.71-.08-.18-.04-.38-.07-.47.13-.12.25.09.36.25.46.45.29.91.54,1.15,1.07.1.23.33.17.42-.09.08-.23.09-.46.1-.7Zm-20.38,22.73c-.38.03-.66,0-.93.09-.13.05-.26.11-.27.28-.02.38.75,1,1.12.88.39-.13.7-.39.9-.75.12-.22.04-.4-.2-.45-.23-.05-.47-.04-.61-.05Zm23.18-20.49c0,.22,0,.46.22.57.25.13.46-.02.64-.18.23-.2.39-.45.48-.73.12-.38.01-.63-.32-.78-.36-.16-.64-.06-.83.31-.13.25-.19.52-.19.8Zm-24.63,12.61c.05,0,.21,0,.37-.04.16-.04.29-.13.33-.31.04-.21-.09-.34-.26-.42-.4-.2-.81-.18-1.21-.01-.25.11-.29.33-.1.52.21.22.48.26.87.26Zm2.2-17.68c-.36,0-.58.2-.58.52,0,.34.29.61.66.62.37.01.62-.23.61-.56-.01-.34-.29-.57-.69-.58Zm-3.89,46.67s0-.04,0-.06c-.08-.44-1.13-1.06-1.54-.91-.08.03-.12.1-.09.19.1.34,1.05,1.05,1.39,1.04.17,0,.25-.09.25-.26Zm23.52-14.62c0-.22-.1-.35-.31-.34-.29,0-.59.32-.61.64,0,.2.05.36.28.38.3.02.62-.32.64-.67Zm-.62,12.04c.26-.02.52-.11.76-.24.13-.07.23-.18.17-.33-.06-.15-.2-.19-.34-.17-.3.04-.56.17-.79.37-.07.07-.15.14-.12.25.05.15.18.12.32.13Zm-20.06-3.19c.01-.22-.18-.42-.4-.43-.25-.01-.47.19-.46.44,0,.23.13.36.36.39.26.03.49-.16.5-.39Zm-2.76-16.92c-.2,0-.26.14-.26.31,0,.28.19.51.45.53.18.01.31-.05.32-.26,0-.25-.27-.57-.51-.59Zm17.89,2.59c-.03-.24-.38-.49-.63-.44-.17.03-.31.1-.28.31.03.21.41.43.67.39.16-.02.25-.11.25-.27Zm8.88-27.22c.08,0,.15-.02.2-.1.04-.08,0-.15-.03-.22-.14-.23-.47-.38-.65-.29-.07.04-.12.1-.11.19.03.18.36.41.59.42Zm-.96,44.72c-.2.04-.37.12-.39.36-.01.17.1.26.26.23.21-.03.36-.15.36-.38,0-.14-.1-.2-.23-.21Zm-21.7-40.96c-.16,0-.28.07-.29.24,0,.16.08.28.24.28.18,0,.3-.11.32-.29.01-.19-.13-.22-.27-.23Zm24.37,36.86c0-.14-.04-.28-.19-.26-.23.02-.27.21-.26.4,0,.13.06.25.22.22.2-.03.22-.2.23-.36Zm-25.87-27.81c-.04-.12-.06-.28-.27-.28-.14,0-.2.11-.21.23-.01.16.02.33.22.34.16.01.24-.11.26-.3Z"/>
  <path class="cls-1" d="m67.62,14.23c.57-.05,1.04.14,1.47.46.52.39.9.9,1.27,1.42.34.48.41,1.02.3,1.6-.13.68-.11.73.56.93.37.11.57.36.69.69.25.67.51,1.34.72,2.03.7,2.27,1.33,4.55,1.89,6.86.29,1.18.68,2.33,1.18,3.45.11.24.21.47.29.72.43,1.31.97,2.57,1.57,3.81.08.16.16.33.2.5.3,1.14.78,2.22,1.2,3.31.26.67.46,1.36.53,2.08.11,1.11.54,2.12.97,3.13.64,1.46,1.08,3,1.75,4.45.92,2,1.47,4.13,2.14,6.21.63,1.95,1.31,3.89,1.9,5.86.37,1.24.7,2.49,1.04,3.74.22.81-.06,1.26-.89,1.44-.27.06-.55.11-.83.06-.56-.09-1.12-.08-1.67-.08-.8,0-1.59-.07-2.39-.19-.39-.06-.8-.05-1.2-.05-2.06,0-4.12-.02-6.17.02-1.8.04-3.6.03-5.39-.04-4.53-.19-9.07-.03-13.6-.09-.76-.01-1.05-.27-1.16-1.05-.03-.24-.03-.48-.08-.71-.05-.25-.19-.45-.46-.49-.26-.04-.47.08-.63.28-.22.28-.2.58-.14.91.16.82.07.9-.77.76-.33-.06-.67-.11-1-.18-1.03-.21-1.28-.58-1.07-1.6.2-.98.43-1.95.6-2.93.3-1.67.82-3.28,1.32-4.9.38-1.24.75-2.48,1.12-3.72.03-.11.06-.23.1-.34.08-.2.21-.22.38-.11.17.11.29.27.4.44.29.46.53.93.68,1.46.05.18.1.47.35.41.25-.06.13-.33.12-.52,0-.02,0-.04-.01-.06-.19-.99-.12-1.08.91-1.18.29-.03.55-.09.73-.34.1-.13.17-.28.08-.44-.08-.14-.22-.16-.36-.16-.29-.01-.55.08-.82.17-.7.22-.97.08-1.24-.61-.02-.06-.03-.12-.06-.17-.46-.67-.3-1.29.11-1.93.19-.29.35-.49.73-.51.42-.01.75-.25,1-.59.25-.35.2-.55-.18-.78-.08-.05-.18-.09-.26-.15-.12-.08-.2-.19-.18-.35.02-.17.15-.22.29-.26.26-.07.6-.02.77-.26.19-.26-.05-.54-.06-.81-.03-.86,0-1.71.22-2.57.29-1.16.38-2.36.78-3.5.03-.08.04-.16.07-.23,1.05-2.42,1.47-5.04,2.4-7.51.53-1.42,1.11-2.82,1.54-4.27.44-1.49.91-2.97,1.35-4.46.17-.57.27-1.16.42-1.74.08-.33.18-.66.32-.96.59-1.27,1.07-2.58,1.63-3.85.25-.59.56-1.15.95-1.66.41-.53.89-.92,1.6-.83Zm-3.91,37.9c-.16-.82-.29-1.65-1.05-2.19-.27-.19-.46-.43-.57-.75-.08-.25-.2-.48-.41-.65-.18-.14-.38-.26-.6-.16-.25.11-.22.36-.2.57.11.86.42,1.63,1.17,2.13.48.32.86.7,1.06,1.24.06.16.13.38.36.34.25-.05.22-.29.24-.48,0-.02,0-.04,0-.06Zm3.96,7.01c0-.29-.11-.5-.37-.63-.25-.14-.47-.04-.66.13-.47.43-.95.85-1.41,1.29-.4.39-.47.76-.25,1.12.21.35.8.59,1.21.51.3-.06.48-.25.37-.5-.24-.53.06-.76.43-1,.15-.1.29-.21.42-.34.17-.16.25-.36.26-.59Zm12.4.49c.15-.03.38-.06.58-.13.51-.18.61-.49.35-.97-.42-.79-1.12-1.21-1.95-1.45-.2-.06-.44-.22-.59.03-.16.25.03.46.19.63.15.16.33.28.51.4.13.09.28.15.41.24.35.23.37.34.16.72-.2.35-.11.52.34.53Zm-6.64-18.93c0-.42-.05-.83-.3-1.19-.13-.19-.33-.29-.56-.25-.25.04-.37.23-.4.46-.05.53.06,1.02.34,1.47.13.22.35.33.61.26.25-.07.29-.3.31-.52,0-.08,0-.16,0-.24Zm-17.25,22.19c0-.29-.35-.5-.67-.39-.33.11-.57.35-.78.62-.41.53-.11,1.3.55,1.42.14.03.29.03.38-.1.09-.12,0-.22-.05-.33-.19-.43-.17-.48.19-.8.07-.06.16-.12.23-.18.08-.06.14-.14.13-.25Zm14.8-29.91c0,.12-.03.24-.02.35.01.25.05.5.34.56.3.06.4-.19.48-.42.04-.13.08-.27.08-.4-.02-.63-.28-1.19-.54-1.74-.09-.19-.26-.17-.36.02-.12.24-.13.49-.08.75.06.29.13.58.1.88Zm-7.76,13.32c0-.21-.08-.43-.27-.56-.47-.31-.9-.65-1.24-1.1-.05-.06-.13-.1-.21-.08-.11.03-.15.12-.16.23-.03.3.08.56.3.74.37.3.74.6,1.01,1,.09.13.23.23.41.14.14-.07.15-.22.16-.38Zm6.61-27.39c-.16.01-.36,0-.34.27.02.24.52.81.75.87.32.09.55-.09.49-.38-.07-.36-.53-.76-.91-.77Zm-8.91,21.46c-.39-.02-.79.48-.69.86.08.32.38.41.63.19.18-.16.31-.36.38-.59.07-.25-.07-.44-.32-.45Zm-2.4,15.34c.38-.01.64-.27.64-.6,0-.24-.13-.37-.37-.37-.36-.01-.77.35-.73.65.04.27.25.33.46.33Zm-1.77-.77c.01-.29-.13-.4-.37-.3-.28.11-.54.47-.53.72,0,.26.22.4.44.27.27-.16.41-.41.45-.69Zm26.06,1.13c0-.07-.05-.12-.12-.16-.31-.17-.85.1-.9.44-.03.18.05.31.22.37.28.1.82-.33.8-.65Zm-14.96,6.07c-.02-.24-.23-.4-.52-.39-.27.01-.46.17-.44.39.01.22.25.4.52.39.27,0,.45-.17.44-.39Zm-2.74-33.35c-.22-.02-.47.26-.49.52-.02.21.03.4.28.45.23.04.46-.21.46-.5,0-.2-.03-.4-.25-.47Zm12.99,31.14c-.02-.21-.13-.32-.35-.31-.16,0-.26.12-.26.27,0,.21.12.34.32.35.19.01.27-.12.29-.3Zm-14.16-5.85c-.01-.17-.03-.35-.19-.46-.04-.03-.13-.02-.15,0-.13.15-.08.33-.03.5.03.12.05.3.24.26.13-.03.12-.18.14-.3Z"/>
  <path class="cls-1" d="m291.62,66.98c-1.5-.2-2.97-.01-4.42-.31-.33-.07-.68-.04-1.02-.04-2.1,0-4.2-.02-6.29.02-1.8.04-3.6.03-5.39-.04-4.51-.19-9.03-.03-13.54-.09-.76-.01-1.06-.27-1.17-1.04-.04-.26,0-.52-.09-.77-.18-.5-.67-.6-1.02-.2-.17.2-.28.43-.23.71.02.12.03.24.07.35.21.65-.06.76-.62.67-.51-.08-1.03-.16-1.53-.3-.65-.18-.84-.48-.77-1.15.04-.39.17-.78.23-1.17.53-3.21,1.48-6.32,2.47-9.41.16-.49.29-1,.44-1.49.13-.42.32-.47.62-.13.33.38.57.81.75,1.29.06.17.1.34.17.51.06.16.11.41.33.36.23-.05.15-.29.13-.46-.02-.18-.08-.35-.1-.53-.05-.46.05-.61.51-.72.17-.04.36-.05.53-.07.14-.02.28-.03.4-.1.26-.14.45-.43.37-.62-.12-.3-.39-.24-.62-.21-.23.04-.46.12-.69.19-.53.15-.83.03-1.07-.47-.15-.32-.28-.66-.41-.99-.06-.15-.09-.31,0-.46.18-.36.36-.71.55-1.06.11-.2.3-.23.51-.24.45-.03.8-.25,1.06-.6.25-.35.2-.55-.17-.78-.07-.04-.14-.07-.21-.11-.14-.09-.26-.2-.24-.38.02-.2.18-.24.34-.28.08-.02.16-.03.24-.04.56-.13.6-.17.48-.72-.05-.24-.08-.47-.03-.71,0-.02.01-.04,0-.06-.26-.83.13-1.59.26-2.38.18-1.1.38-2.2.72-3.27.02-.06.03-.12.05-.17,1.05-2.42,1.47-5.04,2.4-7.51.53-1.42,1.11-2.82,1.54-4.27.44-1.49.91-2.97,1.35-4.46.17-.57.27-1.16.42-1.74.08-.33.18-.66.32-.96.59-1.27,1.07-2.58,1.62-3.85.25-.59.56-1.15.95-1.66.73-.95,1.86-1.15,2.87-.5.74.48,1.26,1.15,1.67,1.92.22.41.17.85.09,1.29-.11.6-.06.71.52.85.46.11.65.43.8.81.39.96.68,1.96.98,2.95.64,2.08,1.16,4.19,1.7,6.29.2.79.46,1.57.78,2.32.77,1.77,1.42,3.59,2.18,5.37.61,1.44,1.11,2.94,1.65,4.42.09.24.15.5.17.76.1,1.33.56,2.56,1.09,3.77.35.8.66,1.63.95,2.45.35.97.74,1.93,1.17,2.88.54,1.18.89,2.43,1.24,3.68.46,1.65,1.05,3.26,1.59,4.89.69,2.06,1.2,4.17,1.82,6.25.24.81-.05,1.26-.88,1.44-.21.05-.43.07-.6.09Zm-22.09-14.93c-.17-.75-.32-1.58-1.07-2.12-.27-.19-.46-.43-.56-.75-.09-.27-.22-.51-.46-.68-.17-.12-.36-.21-.56-.12-.22.1-.22.32-.19.52.1.81.35,1.58,1.04,2.08.54.4,1.03.81,1.25,1.47.01.04.04.07.06.1.06.08.14.15.25.13.11-.02.17-.1.19-.2.03-.11.03-.24.06-.43Zm3.95,7.07c0-.29-.13-.49-.39-.62-.26-.13-.47-.02-.65.15-.46.41-.91.83-1.37,1.25-.13.12-.25.26-.32.43-.12.28-.1.56.09.79.29.34.67.5,1.12.45.35-.05.53-.25.39-.58-.18-.42,0-.63.32-.82.17-.1.33-.23.48-.36.21-.18.33-.4.33-.68Zm12.41.51c.14-.03.34-.05.53-.11.54-.18.65-.49.38-1-.44-.84-1.2-1.23-2.07-1.48-.15-.04-.31-.11-.44.04-.15.17-.06.34.03.49.11.19.28.34.46.46.18.12.38.22.56.34.39.25.41.35.19.76-.19.34-.09.51.35.52Zm-6.64-18.91c-.01-.46-.07-.85-.3-1.19-.13-.19-.32-.29-.56-.27-.23.03-.36.18-.39.39-.09.59.03,1.14.38,1.62.12.17.32.24.53.19.23-.06.29-.24.32-.45.01-.12.01-.24.02-.3Zm-18.05,23.84c.27,0,.35-.12.25-.37q-.21-.55.25-.93s.09-.07.14-.11c.21-.16.17-.34.02-.51-.18-.22-.41-.21-.65-.1-.33.16-.58.41-.77.72-.31.5.16,1.29.75,1.29Zm15.59-31.58c-.03.2-.06.39,0,.59.05.18.14.34.35.35.18.01.29-.11.37-.26.16-.31.2-.64.11-.98-.09-.3-.18-.61-.3-.9-.09-.22-.1-.62-.42-.53-.28.08-.25.45-.23.73,0,.1.04.19.05.29.03.23.1.46.08.7Zm-7.77,13.36c0-.23-.07-.45-.26-.58-.46-.31-.89-.65-1.24-1.09-.15-.18-.34-.1-.37.13-.04.32.09.59.34.78.36.28.7.58.97.96.09.13.23.24.41.15.15-.07.16-.21.16-.36Zm6.66-27.42c-.2,0-.4,0-.4.26,0,.26.54.85.79.9.14.02.28.02.39-.09.11-.12.1-.26.03-.39-.17-.36-.42-.62-.82-.68Zm-9.01,21.46c-.37.01-.74.49-.65.85.07.32.38.43.63.21.18-.16.32-.36.39-.59.08-.27-.08-.48-.36-.47Zm-2.34,15.34c.35,0,.62-.25.63-.58,0-.26-.14-.41-.4-.4-.35.02-.7.34-.69.62,0,.21.2.35.47.35Zm-2.4-.03c.25,0,.58-.39.62-.72.02-.14.02-.28-.15-.34-.18-.06-.5.15-.65.43-.07.12-.11.25-.09.39.03.15.12.24.27.25Zm26.68.46c0-.08-.01-.16-.09-.21-.21-.11-.43-.09-.63.03-.18.1-.32.24-.31.47,0,.18.12.29.3.31.26.03.7-.34.73-.6Zm-15.4,6.39c.27,0,.45-.17.44-.39-.01-.24-.23-.4-.51-.39-.27.01-.46.17-.44.38.01.22.25.4.52.39Zm-2.46-32.76c.24-.02.43-.29.41-.58-.02-.26-.16-.43-.34-.4-.23.04-.44.37-.41.65.03.2.13.33.33.33Zm12.83,29.85c-.19.02-.3.12-.28.31.02.21.15.32.36.31.16,0,.24-.13.25-.28,0-.21-.11-.33-.32-.34Zm-13.83-5.54c-.03-.18-.05-.36-.21-.47-.05-.03-.12-.02-.16.03-.1.14-.06.3-.03.45.01.07.04.15.09.21.03.04.09.09.13.09.04,0,.1-.05.12-.1.03-.07.04-.15.05-.22Z"/>
  <path class="cls-1" d="m229.36,51.05c0,.92,0,1.83,0,2.75,0,.2,0,.4.03.6.12.8.42,1.43,1.55,1.34.26-.02.52-.02.78,0,.53.04.7.2.79.71.01.08.01.16.04.24.09.32.25.39.52.18.2-.16.38-.35.56-.54.42-.44.92-.61,1.52-.51.47.08.95.15,1.41.28.28.08.51.22.73.4.23.19.48.21.7,0,.81-.74,1.79-.81,2.81-.69.64.07,1.28.09,1.91.03.45-.04.88,0,1.28.21.44.21.86.21,1.33.03.94-.37,1.85-.03,2.36.83.23.39.21.81.09,1.22-.09.3-.12.58,0,.87.09.21.1.44.05.65-.12.5-.07.98-.01,1.48.05.47.05.96,0,1.43-.05.54-.11,1.07-.09,1.61.02.55-.26.92-.75,1.1-.51.19-.97.43-1.33.86-.28.33-.52.31-.83.05-.34-.29-.44-.71-.21-1,.12-.16.29-.27.44-.4.28-.26.3-.48.05-.77-.16-.19-.37-.3-.62-.33-.27-.03-.47.06-.55.34-.03.12-.04.24-.08.35-.12.32-.31.4-.61.22-.24-.14-.46-.32-.67-.5-.43-.35-.9-.6-1.44-.7-.57-.1-.95.14-1.02.72-.05.4-.08.79-.33,1.13-.08.11-.11.28.06.36.17.07.26-.06.32-.19.07-.16.12-.34.18-.5.14-.39.4-.63.82-.71.5-.09.78.2.67.68-.23.96-1.17,1.74-2.16,1.77-.4.01-.8.01-1.2-.03-1.02-.1-2.03-.13-3.05.02-.43.06-.88.05-1.32.04-2.52-.06-5.04-.05-7.55,0-.6.01-1.14-.1-1.63-.46-.51-.37-.58-.36-1.11.03-.39.29-.8.43-1.28.4-.74-.05-1.48-.06-2.21-.11-1.02-.08-1.5-.57-1.64-1.56-.1-.74-.1-1.47.01-2.2.19-1.22.15-2.46.23-3.69.04-.6.07-1.19.27-1.76.16-.47.15-.94-.02-1.41-.29-.76-.39-1.53-.35-2.34.04-.87.02-1.75,0-2.63-.01-1,.08-1.99.18-2.98.04-.39-.07-.75-.15-1.12-.14-.6-.33-1.19-.19-1.82.17-.78.29-.92,1.08-.98.2-.02.43-.02.45-.29.01-.24-.18-.34-.39-.38-.16-.03-.32-.03-.47-.07-.69-.14-.96-.78-.58-1.37.16-.25.37-.47.55-.71.2-.26.22-.49-.03-.74-.51-.51-.69-1.1-.62-1.84.12-1.33.33-2.65.27-3.99-.03-.62-.11-1.23-.09-1.85.06-1.71.18-3.42.08-5.14-.16-2.79-.03-5.58-.12-8.36-.02-.72-.07-1.43-.1-2.15-.02-.36.03-.72.14-1.06.19-.6.65-.98,1.28-.99.82-.02,1.64,0,2.46,0,.37,0,.44.1.41.49-.01.2-.05.39.04.59.08.17.21.25.38.2.2-.06.22-.22.16-.39-.05-.13-.12-.25-.17-.38-.14-.37-.07-.57.31-.71.64-.24,1.29-.28,1.9.11.12.08.23.16.35.23.5.34.86.39,1.26-.09.19-.23.42-.31.69-.14.35.23.67.14,1.01-.05.74-.42.83-.4,1.46.18.49.46.62.49,1.12.09.45-.36.95-.48,1.5-.5.46-.02.92.06,1.37.12.91.12,1.83.12,2.75.19,1.12.1,2.23-.06,3.35-.14.7-.05,1.4-.11,2.09.06.35.08.62.21.67.64.04.32.29.41.57.22.15-.1.28-.23.39-.37.29-.35.66-.45,1.07-.35.66.17,1.31.36,1.96.56.53.17.79.56.8,1.13.01.88-.02,1.75-.18,2.62-.06.34-.08.67-.03,1.01.13.93.09,1.87.09,2.81,0,.4-.09.79-.24,1.17-.3.77-.89,1.15-1.69,1.23-1.87.18-3.75.16-5.63.1-1.41-.05-2.83-.19-4.24-.23-.62-.02-.72-.15-.76-.73-.02-.36-.15-.54-.51-.65-.19-.06-.39-.09-.59-.1-.54-.04-1.06-.15-1.56-.39-.16-.07-.34-.17-.51-.03-.18.16-.11.36-.05.56.03.09.08.18.11.28.13.44,0,.73-.44.9-.32.12-.65.2-.98.28-.77.19-1.18.7-1.37,1.43-.16.63-.16,1.26-.11,1.9.06.77.13,1.55.17,2.32.02.26,0,.52-.04.77-.1.66,0,1.31.11,1.96.11.6.47,1,1.07,1.17.6.17,1.21.27,1.83.18.54-.08,1.07-.06,1.61,0,.46.05.92.05,1.38.05.69,0,1.35.13,1.95.49.4.24.77.31,1.15-.03.22-.19.5-.26.78-.28.65-.05,1.3-.16,1.97-.09.94.11,1.87-.1,2.8-.25.36-.06.71-.09,1.07-.07.92.07,1.53.8,1.3,1.69-.17.69-.16,1.34.08,1.99.37,1.01.3,2.04.18,3.07-.05.38-.05.75,0,1.13.04.33.05.68.03,1.01-.03.73-.41,1.23-1.07,1.53-.28.12-.57.2-.86.24-.99.14-1.98.21-2.98.27-1.72.11-3.43.09-5.15.08-1.52,0-3.03-.09-4.55-.17-.52-.03-1.04.03-1.54.16-.59.15-.96.53-1.12,1.13-.09.35-.11.71-.11,1.07,0,.9,0,1.79,0,2.69,0,0,0,0,0,0Zm8.39-30.23c.46.04.87-.04,1.2-.41.26-.29.29-.54.05-.86-.12-.16-.26-.3-.41-.43-.31-.29-.55-.63-.72-1.02-.07-.16-.15-.33-.24-.48-.08-.13-.15-.31-.35-.26-.21.06-.32.23-.34.45-.01.18.06.35.12.52.1.26.2.52.25.8.05.29.04.61-.18.78-.51.4-.98.91-1.66,1.02-.45.07-.84.21-1.2.48-.39.3-.81.31-1.21,0-.09-.07-.2-.13-.29-.21-.28-.26-.57-.24-.88-.07-.5.29-.95.65-1.34,1.08-.05.06-.1.13-.13.2-.09.17-.14.35.05.48.16.11.32.03.42-.1.13-.15.24-.32.35-.48.37-.56.58-.63,1.19-.35.32.15.64.27.98.13.43-.18.86-.16,1.29-.03.52.16.94.03,1.29-.37.13-.15.29-.28.44-.4.38-.32.79-.54,1.31-.45Zm-12.36,6.75c0,.13,0,.17,0,.21.01.2-.01.43.22.51.27.09.39-.14.5-.32.33-.57.46-1.18.27-1.83-.08-.28-.17-.57-.28-.84-.08-.2-.07-.57-.38-.5-.26.06-.2.41-.16.63.11.54.02,1.06-.09,1.59-.05.21-.06.43-.08.56Zm15.82-7.82c.2.01.38-.16.5-.41.18-.38.33-.76.57-1.11.09-.13.18-.3.01-.42-.16-.12-.34-.08-.49.06-.07.07-.12.16-.17.24-.17.35-.42.62-.76.82-.19.11-.41.22-.3.5.09.23.3.3.64.32Zm-20.01.71c.46,0,.92-.36.93-.75.02-.37-.29-.74-.62-.75-.37-.01-.73.47-.75,1.01-.02.34.12.48.45.49Zm2.62-.95c-.11.01-.31.01-.5.07-.3.09-.36.35-.12.53.38.28.81.41,1.29.34.19-.03.35-.11.38-.32.03-.2-.07-.34-.22-.46-.22-.16-.49-.15-.84-.16Zm9.11-2.88c0-.4-.22-.68-.57-.69-.34-.02-.57.19-.58.52-.01.36.24.62.62.64.35.02.52-.13.53-.48Zm1.66,2.9c0-.24-.17-.4-.42-.4-.37,0-.79.41-.79.76,0,.27.24.5.5.49.31-.02.72-.51.71-.85Zm5.61,23.09c-.01-.23-.17-.26-.34-.24-.37.04-.92.6-.96.97-.02.18.12.27.32.18.37-.17.65-.45.91-.76.04-.04.05-.11.07-.16Zm-16.55,20.93c.01-.27-.2-.49-.48-.49-.26,0-.47.18-.49.42-.02.24.21.47.49.49.26.02.46-.16.47-.42Zm8.33-44.14c0-.29-.16-.46-.43-.45-.26,0-.47.19-.47.43,0,.25.19.44.45.45.27,0,.45-.16.45-.43Zm11.71,42.02s-.15-.04-.19.09c-.03.08.02.15.09.2.31.23.64.38,1.04.35.1,0,.21-.04.23-.15.03-.14-.06-.23-.18-.26-.31-.08-.62-.14-.98-.23Zm2.06-1.81c.2,0,.36-.2.37-.45,0-.25-.14-.43-.37-.45-.23-.02-.41.16-.41.4,0,.25.2.49.41.5Zm-22.09-11.03c0-.19-.08-.31-.27-.33-.21-.03-.37.13-.37.36,0,.19.05.38.28.37.24,0,.32-.2.36-.4Zm11.26,8.87c.17,0,.26-.08.28-.24.03-.21-.16-.44-.38-.46-.17-.02-.26.08-.28.24-.02.23.15.44.38.46Zm-7.56-7.03c-.16.02-.33.09-.3.28.05.25.3.3.52.33.13.01.24-.05.25-.2,0-.18-.25-.4-.46-.41Zm1.13,7.24c-.02-.18-.09-.31-.29-.29-.19.02-.26.16-.24.34.01.15.09.27.26.27.19,0,.27-.13.28-.31Zm-.72-37.09c-.03-.17-.11-.3-.3-.28-.16.02-.24.13-.22.28.02.17.12.29.3.29.17,0,.21-.15.21-.29Z"/>
  <path class="cls-1" d="m353.93,43.79c-.3.26-.33.61-.45.91-.17.45-.48.73-.94.83-.38.09-.66-.04-.85-.39-.14-.27-.22-.56-.25-.86-.06-.54-.27-1-.62-1.4-.75-.84-1.2-1.82-1.45-2.91-.37-1.58-1.07-3.04-1.64-4.55-.38-.99-.76-1.97-.89-3.03-.05-.4-.25-.76-.52-1.06-.67-.76-1.06-1.62-1.15-2.64-.05-.51-.2-1.01-.41-1.49-.16-.36-.32-.73-.44-1.11-.26-.82-.6-1.59-1.16-2.27-.52-.64-.47-1.06.04-1.65.33-.38.29-.38.05-.82-.59-1.09-1.47-1.98-1.99-3.11-.32-.68-.49-1.39-.51-2.13-.03-.86.48-1.47,1.34-1.52,1.55-.09,3.08.02,4.51.7.25.12.51.21.78.29.42.12.83.08,1.1-.27.97-1.29,3.36-.35,3.65,1.13.08.41.21.81.3,1.22.13.57.31,1.12.58,1.63.48.91.75,1.89.96,2.88.07.31.14.63.3.91.72,1.31,1.08,2.74,1.4,4.18.29,1.32.67,2.63,1.18,3.88.29.7.73,1.33,1.04,2.02.07.15.17.29.36.27.19-.02.26-.18.29-.34.19-.96.73-1.76,1.22-2.58.44-.73.65-1.54.77-2.37.15-1.12.48-2.18,1.01-3.17.43-.8.7-1.65.94-2.51.2-.75.56-1.32,1.29-1.69.71-.35.82-.67.38-1.35-.99-1.53.25-4.35,2.34-4.72.66-.12,1.31-.12,1.97-.07,1.54.13,3.07.13,4.61-.02.55-.05,1.12-.06,1.68-.02,1.13.07,1.67.79,1.35,1.88-.29.99-.66,1.96-1.19,2.87-.43.74-.81,1.52-.97,2.37-.24,1.27-.71,2.44-1.24,3.61-.73,1.59-1.39,3.22-2.02,4.86-.65,1.69-1.43,3.33-2.05,5.04-.33.92-.65,1.84-.98,2.76-.06.17-.11.34-.2.5-.17.29-.42.42-.76.34-.14-.03-.27-.08-.41-.11-.23-.05-.4.04-.45.27-.05.22.09.33.29.37.18.04.35.06.53.1.47.09.55.2.44.65-.19.77-.44,1.53-.81,2.24-.62,1.2-1.22,2.42-1.83,3.63-.48.96-.76,1.98-.76,3.05,0,1.67-.09,3.34-.14,5.02-.03,1.16.04,2.31.2,3.46.02.14.04.28.04.42,0,2.21.18,4.42.14,6.63-.02,1.22-.63,1.91-1.85,2.11-.94.16-1.87-.01-2.8-.08-1.33-.09-2.66-.3-4-.08-.29.05-.6.04-.9,0-.69-.08-1.17-.53-1.26-1.16-.07-.46.07-.76.48-1,.17-.1.36-.17.54-.26.25-.13.51-.24.74-.39.58-.39.58-.77,0-1.13-.51-.32-.99-.67-1.41-1.11-.38-.4-.6-.86-.6-1.39.02-1.77-.21-3.54-.09-5.31.06-.98.06-1.95.09-2.93.01-.53.12-1.03.41-1.48.09-.13.15-.28.2-.43.21-.56.14-.83-.31-1.22-.13-.12-.3-.21-.43-.33-.29-.27-.21-.61.17-.72.2-.06.4-.04.59.02.13.04.26.1.39.14.19.06.41.12.54-.1.11-.2,0-.39-.12-.55-.13-.19-.34-.27-.55-.35-.22-.09-.46-.15-.66-.27-.26-.15-.26-.39-.04-.59.2-.18.43-.2.67-.12.19.06.37.15.56.21.33.09.61-.04.75-.32.14-.29.02-.52-.21-.67-.44-.3-.8-.65-.92-1.22Zm3.47,7.15c.04-.33-.06-.53-.36-.56-.44-.04-.65-.34-.83-.69-.08-.16-.16-.33-.27-.46-.2-.24-.53-.22-.72.02-.12.15-.14.32-.16.5-.09.79.36,1.31.9,1.78.23.2.53.33.83.17.33-.17.55-.45.62-.78Zm-2.21,8.51c-.18,0-.3,0-.42,0-.28,0-.56.02-.79.2-.06.05-.12.11-.11.2.01.12.1.17.2.17.22,0,.44.03.65-.01.46-.1.9-.07,1.34.11.13.05.27.08.4.1.12.02.24,0,.3-.13.07-.15,0-.28-.13-.35-.12-.07-.25-.12-.38-.16-.36-.11-.74-.12-1.05-.13Zm-6.74-33.38c0-.35-.02-.65-.16-.92-.13-.25-.31-.26-.45-.05-.27.39-.29,1.26-.02,1.66.07.1.14.2.28.19.14-.01.2-.12.25-.23.11-.22.1-.46.11-.66Zm12.78,31.81c.09-.01.23.03.28-.11.02-.04,0-.13-.03-.16-.39-.35-.67-.79-.97-1.21-.08-.12-.23-.17-.37-.11-.18.08-.19.24-.16.41.07.48.75,1.14,1.25,1.18Zm-3.45-18.09c0-.18,0-.36-.06-.52-.07-.18-.19-.31-.39-.3-.21.01-.31.17-.32.36-.01.18-.03.36.02.53.08.27.07.62.41.73.19.06.33-.29.35-.79Zm-10.72-21.15c.21-.02.46-.09.65-.28.17-.18.14-.41-.08-.47-.33-.09-.67-.09-.99.06-.25.12-.26.4-.02.57.12.08.25.12.44.12Zm9.15,24.05c.01-.29-.28-.69-.57-.76-.19-.05-.35,0-.43.21-.09.25.08.61.39.79.07.04.14.08.22.09.22.04.38-.09.39-.33Zm3.24,12.19c-.19,0-.38.18-.38.38,0,.23.24.44.54.45.19.01.37,0,.36-.27,0-.26-.29-.56-.53-.57Zm-13.12-32.81c0,.22.11.35.32.37.22.02.32-.13.34-.33.01-.21-.09-.35-.3-.36-.21,0-.32.13-.35.33Zm14.2,23.89c0-.25-.19-.45-.39-.44-.16,0-.24.11-.25.27,0,.24.23.49.43.46.17-.02.21-.15.21-.28Zm4.37-7.99c-.02-.21-.16-.31-.35-.34-.14-.02-.23.06-.23.2,0,.19.12.28.3.3.13.01.24,0,.28-.16Z"/>
  <path class="cls-1" d="m115.31,25.63c-.84,0-1.68,0-2.52,0-.44,0-.88.06-1.3.19-.48.14-.78.44-.88.95-.11.54-.11,1.07-.03,1.61.05.37-.02.71-.17,1.04-.25.53-.53.68-1.1.57-.31-.06-.62-.15-.93-.23-.65-.18-1.13.14-1.54.58-.26.28-.23.65.07.9.49.4.85.89,1.23,1.38.33.44.49.46,1.03.24.06-.02.11-.06.16-.08.43-.16.58-.05.48.4-.08.37-.04.65.25.91.25.22.35.53.35.86,0,1.53.03,3.07-.1,4.6-.07.83-.1,1.67.03,2.51.06.4.06.79.04,1.19-.13,2.27-.1,4.54-.02,6.81.05,1.39.25,2.78.28,4.17.02,1.06-.1,2.11-.18,3.16-.13,1.65-.11,3.3.12,4.95.06.43.12.87.16,1.3.04.4,0,.79-.1,1.18-.22.82-.77,1.22-1.58,1.33-.06,0-.12.01-.18.01-1.06-.06-2.11-.12-3.17-.2-.54-.04-1-.28-1.29-.76-.02-.03-.05-.07-.07-.09-.15-.15-.27-.39-.54-.29-.28.1-.19.35-.18.56.03.46-.1.63-.55.67-.2.02-.4.01-.6-.02-.61-.1-1.23-.17-1.84-.21-.54-.04-.7-.18-.82-.7-.2-.86-.28-1.73-.22-2.61.05-.75.11-1.51.2-2.26.07-.58.1-1.14-.22-1.68-.18-.31-.23-.67-.23-1.04.01-2.01.01-4.03.03-6.04,0-.38.06-.75.08-1.13.06-1.02-.1-2.03-.18-3.04-.05-.66-.06-1.31.08-1.96.04-.19.09-.39.17-.57.24-.56.71-.7,1.21-.35.24.17.43.41.65.61.4.37,1.28.11,1.4-.41.05-.23-.1-.32-.3-.35-.34-.04-.68-.07-1.01-.12-.5-.08-.95-.29-1.36-.59-.45-.32-.65-.77-.59-1.29.07-.55.04-1.11.16-1.66.06-.31.05-.64-.02-.95-.26-1.3-.33-2.61-.3-3.92.02-.64,0-1.28,0-1.91-.01-1.34.1-2.66.18-4,.06-.89.05-1.79.03-2.69-.01-.66-.4-1.1-1.06-1.27-.56-.15-1.15-.13-1.72-.22-.06,0-.12,0-.18-.02-1.12-.3-2.23-.24-3.38-.04-.83.15-1.71.06-2.57.03-.74-.02-1.22-.45-1.47-1.13-.29-.8-.33-1.63-.24-2.48.06-.53.12-1.07.17-1.6.07-.74-.05-1.47-.14-2.2-.04-.36-.1-.71-.13-1.07-.12-1.04.39-1.89,1.37-2.27.41-.16.85-.25,1.29-.27,1.02-.04,2.04-.05,3.05.06.36.04.72.02,1.08,0,1.09-.06,2.19-.21,3.27.12.31.09.64.1.95-.02,1.08-.42,2.2-.32,3.32-.24.68.05,1.35.05,2.03,0,1.24-.1,2.47-.1,3.71.01.2.02.4.04.6.05,2.1.04,4.19.08,6.29.13,1.04.02,2.08.07,3.11.12,1.1.06,1.73.64,1.88,1.73.24,1.75.2,3.5.06,5.25-.05.67-.03,1.35-.14,2.03-.13.83-.57,1.34-1.37,1.56-.5.14-1.02.2-1.54.21-.84,0-1.68,0-2.52,0,0,0,0,.01,0,.02Zm-12.5,34.58c-.21,0-.37,0-.42.21-.04.18.03.35.18.4.71.21,1.35.54,1.97.94.32.21.69-.17.58-.54-.08-.29-.22-.55-.42-.78-.17-.19-.39-.3-.64-.24-.43.1-.86.16-1.25.02Zm.6,2.58c.15-.01.36.02.41-.21.04-.19-.11-.29-.25-.37-.19-.12-.39-.2-.61-.21-.17-.01-.34,0-.41.18-.08.2.05.34.2.45.19.13.4.17.66.17Zm-.32-4.93c.18-.01.29-.13.29-.3,0-.3-.35-.62-.63-.58-.19.03-.27.15-.26.33.02.28.32.57.6.55Zm3.5,6.23c.16,0,.35-.02.38-.25.03-.21-.25-.41-.55-.41-.19,0-.37.03-.4.25-.03.21.24.4.58.41Zm2.43-27.29c-.25.02-.36.19-.45.37-.08.17-.12.34.01.5.02.03.07.05.1.05.26-.01.37-.21.48-.4.09-.15.11-.3-.02-.44-.04-.04-.1-.06-.14-.09Zm-16.19-14.13c0-.13-.1-.24-.29-.24-.24,0-.35.16-.35.38,0,.17.06.32.25.35.18.03.39-.21.39-.49Zm8.25,16.13c-.22,0-.35.11-.35.26,0,.18.19.31.43.29.17-.01.32-.08.29-.29-.03-.22-.2-.27-.37-.27Z"/>
  <path class="cls-2" d="m389.52,22.69c-.01-.19-.15-.22-.23-.3-.2-.21-.4-.23-.62-.02-.11.11-.25.2-.38.28-.37.22-.5.15-.52-.27,0-.12.01-.24,0-.36-.03-.25-.18-.38-.43-.39-.13.2.07.26.12.36.13.23.09.43-.1.59-.22.17-.37.03-.5-.15-.12-.18-.27-.28-.5-.28-.28,0-.38-.18-.4-.43-.17-2.32.3-4.41,2.03-6.14,1.22-1.22,2.58-2.19,4.13-2.92,1.31-.61,2.53-1.36,3.68-2.24.91-.7,1.3-1.57,1.12-2.71-.06-.37-.03-.75-.05-1.13-.02-.65-.2-.88-.82-1.08-.21-.07-.43-.09-.65-.09-.84,0-1.68,0-2.52,0-.81,0-1.17.27-1.39,1.05-.11.38-.14.78-.22,1.17-.18.83-.53,1.12-1.37,1.13-.8.01-1.6.01-2.4,0-.92-.02-1.42-.45-1.54-1.34-.25-1.87.07-3.61,1.31-5.11.46-.56,1.04-.99,1.67-1.34C390.13.34,391.39,0,392.73,0c1.16,0,2.32.01,3.48.03.3,0,.6.06.89.1.16.02.31.07.43.19.11.11.16.23.1.38-.05.13-.16.16-.29.18-.76.12-1.51.22-2.27.03-.19-.05-.36.03-.42.24-.05.19-.04.39.15.47.5.22.65.66.82,1.12.19.51.45.66.95.64.29-.01.53-.07.48-.44,0-.04,0-.09.02-.11.36-.36.35-.64-.13-.88-.14-.07-.16-.28-.06-.43.11-.17.27-.13.42-.05.07.04.14.08.2.13.24.19.43.18.57-.12.04-.09.1-.17.16-.25.29-.35.55-.45.95-.25,1.3.67,2.34,1.55,2.79,3.03.32,1.06.63,2.1.54,3.22-.08,1.01-.09,2.03-.11,3.04-.01.47-.13.91-.51,1.23-.07.06-.15.15-.17.24-.07.56-.55.86-.79,1.32-.1.18-.3.26-.49.32-.25.08-.4.24-.46.5-.07.28-.27.48-.49.66-.61.53-1.31.92-1.96,1.37-.19.13-.4.19-.62.17-.27-.02-.46.09-.6.31-.17.26-.43.41-.69.55-1.09.62-2.22,1.19-3.19,2-.26.22-.53.43-.72.72-.41.63-.18,1.09.56,1.16.12.01.24.01.36.01,1.98,0,3.96,0,5.93-.02.6,0,1.2-.07,1.79-.1.2,0,.4,0,.59.04.4.09.63.35.68.74.05.37-.09.66-.41.86-.15.09-.32.17-.47.26-.07.04-.09.13-.04.21.04.06.1.06.16.05.02,0,.04,0,.06-.01.61-.13.59-.13.65.52.07.81-.18,1.56-.36,2.33-.08.36-.33.48-.65.5-.34.02-.68.02-1.02.02-1.08.01-2.16-.05-3.23.1-.32.04-.64.02-.96-.02-1.02-.14-2.03-.11-3.05-.02-.32.03-.64.06-.96.03-1.52-.12-3.03-.12-4.55-.05-.62.03-.96-.28-1.04-.91-.03-.26.03-.52.05-.77.03-.42.02-.84.05-1.25.03-.45.22-.6.67-.51.31.06.62.15.92.26.41.15.79.15,1.14-.11.28-.21.62-.21.94-.28Zm.89-.55c.04.23.09.46.12.69.06.41.11.45.48.29.09-.04.17-.1.26-.14.8-.4,1.2-.15,1.22.75,0,.1-.02.2-.04.29-.08.45-.09.46.38.61.19.06.32.12.32.35.02.44.19.62.6.7.1.02.21.03.27-.06.07-.09.04-.2-.03-.27-.26-.27-.2-.53,0-.81.07-.11.1-.26.12-.4.03-.38.11-.75.27-1.1.09-.19.09-.36-.17-.4-.23-.03-.42.03-.39.31.04.4-.28.73-.21,1.15.04.22-.33.36-.62.27-.26-.09-.29-.26-.13-.46.16-.2.13-.36-.03-.53-.08-.09-.13-.22-.09-.33.09-.34-.08-.52-.34-.68-.16-.1-.25-.22-.27-.43-.04-.4-.33-.5-.64-.25-.09.08-.15.18-.21.28-.26.4-.26.4-.72.14-.03-.02-.07,0-.14,0Z"/>
  <path class="cls-1" d="m177.02,19.86c.3,0,.54.02.65.29.12.28,0,.51-.2.7-.11.11-.25.21-.39.28-.39.19-.73.39-.84.85-.03.14-.16.23-.32.21-.16-.02-.26-.13-.27-.28-.04-.43-.09-.87-.08-1.3,0-.26.23-.41.46-.51.33-.15.68-.21,1-.23Z"/>
  <path class="cls-1" d="m24.24,34.89c-.42.01-.68-.26-.6-.67.1-.49.31-.94.51-1.39.03-.07.09-.13.15-.18.1-.08.21-.11.33-.04.09.06.12.16.11.26-.01.1-.03.2-.08.29-.16.34-.11.63.07.95.24.44.01.77-.49.79Z"/>
  <path class="cls-1" d="m243.17,65.88c-.37-.1-.72-.27-.93-.64-.07-.13-.09-.27,0-.4.1-.13.24-.13.38-.08.37.13.69.32.84.71.1.24-.02.41-.28.41Z"/>
  <path class="cls-1" d="m353.01,63.16c.01-.36.26-.65.56-.65.27,0,.46.22.45.51-.01.36-.32.71-.6.7-.25-.01-.43-.25-.41-.55Z"/>
  <path class="cls-1" d="m108.65,31.36c-.26-.02-.46-.17-.63-.37-.09-.11-.15-.24-.09-.38.08-.16.22-.22.39-.21.3,0,.62.27.69.56.06.26-.07.42-.37.41Z"/>
  <path class="cls-1" d="m157.61,66.1c-.06.24-.24.29-.45.27-.26-.02-.48-.21-.43-.38.07-.25.29-.22.48-.22.21,0,.39.06.4.33Z"/>
</svg>