<?xml version="1.0" encoding="UTF-8"?>
<svg id="Layer_1" data-name="Layer 1" xmlns="http://www.w3.org/2000/svg" viewBox="0 0 70 70">
  <defs>
    <style>
      .cls-1 {
        fill: #fff;
      }

      .cls-2 {
        fill: #c75c5c;
      }
    </style>
  </defs>
  <path class="cls-1" d="m9.86,59.08c-.08,1.75.05,3.41.4,5.06.08.37.06.75.06,1.12,0,.35-.1.65-.44.85-.27.17-.26.24-.03.47.9.93.59,2.68-.58,3.25-.29.14-.57.18-.87.05-.3-.13-.6-.2-.92-.27-.64-.15-1.08-.59-1.46-1.09-.09-.12-.16-.26-.24-.38-.17-.24-.38-.42-.71-.38-.31.04-.45-.13-.5-.41-.03-.15-.04-.3-.08-.44-.13-.41-.39-.57-.81-.52-.54.06-.67.34-.38.8.1.16.22.31.32.46.16.24.35.35.66.32.51-.03.81.26.88.75.04.26-.05.45-.31.53-.42.12-.86.23-1.25-.05-.28-.2-.55-.18-.85-.07-.23.09-.46.15-.7.23-.24.07-.48.09-.73.06-.66-.09-.93-.55-.61-1.12.18-.32.16-.55-.06-.81-.47-.56-.57-1.18-.45-1.9.12-.7.1-1.43-.01-2.13-.08-.5.01-.93.3-1.33.14-.2.28-.41.37-.63.11-.26.11-.53-.16-.7-.46-.31-.56-.77-.57-1.28,0-.81.01-1.62-.01-2.42-.06-2.05.17-4.09.12-6.13-.01-.62,0-1.24-.09-1.85-.06-.45-.04-.9.02-1.35.08-.69.09-1.39,0-2.08-.06-.47-.08-.94-.02-1.4.1-.73.1-1.46.08-2.19-.06-1.63.13-3.26.1-4.89-.03-1.72-.11-3.45-.27-5.17-.1-1.08-.05-2.18,0-3.26.08-1.85.29-3.7-.02-5.56-.17-1.05.34-1.78,1.36-2.09.33-.1.66-.16,1-.15.81.02,1.62-.02,2.43.09.18.02.38.03.56,0,1.02-.15,2.03-.04,3.04.07.3.03.6.05.9.09.73.08,1.45.55,1.56,1.45.06.49.23.95.41,1.4.33.84.6,1.7.87,2.56.17.53.19,1.07.27,1.61.07.47.2.93.48,1.31.7.96,1.06,2.07,1.5,3.14.9,2.21,1.5,4.53,2.23,6.8.34,1.07.62,2.17.93,3.25.07.23.12.48.24.69.47.87.65,1.84.87,2.79.05.22.12.44.25.63.31.48.77.47,1.07-.03.13-.21.18-.45.24-.69.33-1.35.7-2.69,1.13-4.01.05-.14.09-.29.14-.43.3-.86.43-.93,1.24-.54.38.18.69.11.99-.15.21-.19.39-.4.64-.55.41-.24.74-.22,1.03.06.29.29.34.7.1,1.08-.4.62-.99,1.02-1.66,1.29-.31.13-.64.22-.92.43-.12.09-.25.19-.22.36.04.2.2.26.38.28.23.04.45.01.65-.13.17-.12.34-.24.49-.38.28-.26.59-.47.96-.57.05-.01.11-.03.16-.06.49-.23,1.11-.36,1.18-1.01.07-.69-.13-1.36-.66-1.84-.41-.36-.83-.7-1.14-1.16-.03-.05-.07-.1-.12-.12-.67-.26-.84-.92-1.16-1.46-.15-.25-.15-.49,0-.74.22-.36.31-.76.31-1.18,0-.34.12-.66.2-.99.42-1.52.96-3,1.34-4.54.09-.38.24-.75.43-1.1,1-1.86,1.61-3.88,2.26-5.87.03-.11.05-.22.08-.33.26-.99.71-1.52,2.07-1.46.88.04,1.76.16,2.64.25.32.03.64.06.96.02.88-.12,1.77-.07,2.65-.07.45,0,.9.07,1.33.24.59.23.9.67.94,1.29.12,2,.26,4.01-.25,5.99-.05.18-.06.37-.05.56.05.8.11,1.61.17,2.41.02.28.03.56.05.84.05.86-.35,1.43-1.12,1.78-.26.12-.5.26-.74.4-.14.08-.2.23-.14.39.07.17.22.18.38.17.15,0,.29-.06.43-.13.18-.09.36-.2.55-.28.47-.21.75-.06.74.46-.02.79-.09,1.57-.15,2.36-.06.8-.09,1.61-.16,2.41-.06.73-.01,1.46.14,2.18.12.54.05,1.04-.31,1.48-.3.37-.37.77-.1,1.19.02.03.03.07.05.1.08.23.27.47.11.69-.2.26-.44,0-.67-.05-.14-.03-.3-.12-.42.03-.1.13-.05.29.03.43.1.18.21.35.33.53.16.24.31.47.38.75.08.3.23.55.49.73.16.11.27.26.34.44.18.46-.02.86-.51.98-.07.02-.15.02-.22.04-.22.08-.27.26-.1.44.1.11.23.2.36.27.33.19.44.47.44.85-.01.45-.08.9-.14,1.34-.04.32-.23.54-.44.76-.24.25-.24.35.05.53.36.23.44.53.43.91-.02.6-.03,1.2-.04,1.8,0,.51.02,1.01.13,1.51.25,1.09.07,2.17-.05,3.25-.08.71-.07,1.42-.01,2.14.07.82.1,1.65-.02,2.47-.08.55-.03,1.09.11,1.62.2.75-.08,1.28-.7,1.68-.25.16-.52.31-.73.53-.11.11-.25.16-.41.17-.49.02-.97.14-1.46.03-.09-.02-.19-.02-.28-.02-1.05,0-2.11-.06-3.16-.14-.44-.03-.85.03-1.27.17-.88.31-1.51,0-1.8-.9-.26-.77-.38-1.57-.19-2.38.17-.73.24-1.47.24-2.23,0-.61.14-1.23.07-1.85-.12-1.04-.27-2.08-.36-3.13-.15-1.87-.27-3.74-.12-5.62.09-1.14.17-2.28.17-3.43,0-.17,0-.34-.02-.51-.02-.22.02-.51-.27-.55-.26-.04-.38.21-.49.4-.32.6-.5,1.25-.68,1.9-.13.45-.22.91-.33,1.37-.26,1.08-.63,2.12-1.06,3.15-.53,1.29-.96,2.6-1.31,3.95-.2.76-.46,1.51-.69,2.26-.22.73-.72,1.12-1.44,1.27-.33.07-.67.13-1.01.13-1.17,0-2.33.14-3.49.2-.58.03-1.16-.06-1.72-.28-.75-.29-1.16-.88-1.34-1.63-.25-.98-.49-1.97-.62-2.98-.07-.59-.25-1.13-.68-1.57-.37-.37-.51-.88-.66-1.36-.26-.8-.49-1.62-.72-2.43-.2-.71-.42-1.4-.78-2.05-.25-.45-.33-.95-.43-1.45-.05-.23-.06-.56-.36-.57-.32-.01-.31.33-.35.55-.08.37-.15.74-.15,1.11,0,.98-.15,1.95-.13,2.92.03,1.63-.19,3.26-.12,4.82Zm16.02-12.31c.01.19,0,.38.04.56.07.41.29.55.62.34.42-.27.72-.22,1.03.14.17.2.36.15.53-.03.12-.13.19-.28.25-.44.16-.48.26-.98.33-1.48.06-.42-.08-.56-.51-.5-.33.05-.57-.01-.83-.23-.45-.39-.8-.32-1.09.19-.26.45-.38.93-.37,1.45ZM3.83,64.06c0-.24-.09-.46-.29-.58-.5-.33-1.02-.63-1.53-.93-.1-.06-.21-.08-.31.02-.1.1-.07.21-.02.31.26.48.5.96.84,1.38.15.18.34.3.56.36.43.13.75-.11.74-.56Zm23.73-28.46c.35.01.44-.09.32-.37-.12-.28-.2-.56-.27-.85-.14-.54-.3-.6-.78-.3-.11.07-.22.15-.31.24-.15.15-.19.33-.07.51.29.42.68.69,1.12.78Zm8.06,9.03c.01.33.2.47.51.38.31-.09.58-.43.59-.74,0-.2-.07-.36-.26-.46-.19-.1-.36-.06-.51.08-.22.2-.34.44-.33.74Zm-2.73,5.3c-.29,0-.42.13-.42.4,0,.37.34.7.72.69.28,0,.46-.18.47-.45,0-.35-.36-.66-.76-.65Zm-20-10.57c0-.37-.08-.68-.26-.95-.13-.19-.29-.19-.4-.02-.2.3-.06,1.13.23,1.35.19.14.36.08.41-.15.02-.09.02-.18.02-.23Zm-5.45-.17c.79-.08.96-1.03.89-1.35-.04-.19-.19-1.3-.74-1.18-.57.23-.24.71-.35,1.43-.04.24-.31,1.06.21,1.11Zm28.8-1.74c0-.28-.46-.76-.73-.75-.18,0-.27.11-.26.29.02.29.44.67.73.69.16,0,.24-.07.26-.22Zm-15.24,11.14c0-.28-.14-.46-.37-.45-.25.01-.35.18-.36.41-.02.29.16.54.37.53.2,0,.35-.22.36-.49Zm8.04-16.17c-.23,0-.43.18-.43.42,0,.22.1.36.33.37.23.01.46-.17.48-.39.02-.21-.16-.4-.38-.41ZM1.54,66c-.19-.01-.35.15-.36.35-.01.22.18.41.44.42.19,0,.39-.02.43-.26.04-.2-.27-.5-.51-.51Zm5.84-9.15c-.02.23.16.43.4.44.22.01.41-.15.4-.36,0-.24-.15-.37-.38-.41-.23-.04-.41.11-.42.33Zm-2.55-31.33c.3.42,1.32.89,1.78.87.07,0,.47.02.54-.23s0-.42-.05-.48c-.22-.29-1.09-.66-2.27-.16Zm4.89-2.32c-.01-.27.24-1.04-.82-1.04-.56.03-.44.82-.42.97.03.28.36.75.62.73.5-.07.59-.41.62-.66Zm21.32,4.25c-.02-.18-.09-.33-.3-.34-.18,0-.28.1-.27.28,0,.17.06.35.26.38.21.03.28-.14.31-.31Zm-22.41,1.36c.18-.03.48-.14.48-.45,0-.24-.32-.33-.47-.32-.2,0-.33.24-.32.43,0,.15.15.35.32.35Zm16.43,15.51c-.02-.15-.11-.21-.24-.19-.18.03-.33.12-.33.32,0,.14.12.18.24.17.19-.01.31-.11.32-.3Zm10.07,14.49c-.03-.13-.11-.25-.3-.23-.16.02-.21.14-.2.29.02.15.1.24.26.24.15,0,.23-.11.23-.3Z"/>
  <path class="cls-2" d="m49.44,35.8c-.02-.3-.24-.34-.36-.47-.32-.32-.63-.36-.98-.03-.18.17-.39.32-.61.45-.58.35-.79.24-.82-.43,0-.19.02-.38,0-.56-.05-.39-.28-.6-.68-.62-.2.31.1.41.2.57.2.36.14.68-.16.93-.34.27-.59.04-.78-.23-.19-.28-.43-.44-.78-.44-.44,0-.6-.28-.62-.67-.26-3.67.48-6.96,3.2-9.69,1.92-1.92,4.07-3.46,6.52-4.61,2.06-.97,3.99-2.15,5.8-3.53,1.44-1.1,2.05-2.48,1.77-4.28-.09-.58-.05-1.19-.07-1.79-.03-1.02-.32-1.39-1.3-1.71-.34-.11-.68-.15-1.02-.15-1.32,0-2.65-.02-3.97,0-1.28.01-1.85.43-2.19,1.65-.17.6-.22,1.24-.35,1.85-.29,1.3-.84,1.77-2.16,1.79-1.26.02-2.52.02-3.78,0-1.45-.03-2.25-.7-2.44-2.11-.4-2.96.12-5.7,2.06-8.06.73-.89,1.64-1.57,2.64-2.11C50.4.54,52.39,0,54.51,0c1.83,0,3.66.02,5.48.05.47,0,.94.1,1.41.16.25.03.49.11.68.29.17.17.25.37.15.6-.08.2-.26.25-.45.28-1.19.19-2.38.35-3.58.05-.31-.08-.56.05-.66.38-.08.3-.06.61.24.74.79.34,1.03,1.04,1.29,1.76.3.81.7,1.05,1.5,1.01.45-.02.83-.11.76-.7,0-.06,0-.14.04-.18.57-.56.54-1-.21-1.39-.23-.12-.25-.44-.09-.68.18-.27.43-.21.67-.07.11.06.22.13.32.2.38.3.68.28.9-.19.07-.14.16-.27.26-.39.45-.55.87-.71,1.49-.39,2.05,1.05,3.69,2.45,4.41,4.78.51,1.67,1,3.32.86,5.08-.13,1.6-.14,3.2-.18,4.8-.02.74-.21,1.43-.81,1.94-.11.1-.24.24-.26.38-.11.88-.87,1.36-1.25,2.08-.15.29-.48.4-.78.51-.39.13-.63.37-.73.78-.11.45-.42.75-.77,1.05-.96.83-2.06,1.44-3.09,2.16-.29.21-.63.3-.98.27-.42-.03-.73.14-.95.49-.26.42-.68.64-1.09.88-1.73.97-3.49,1.88-5.04,3.15-.42.34-.84.68-1.13,1.13-.64.99-.29,1.72.88,1.83.19.02.38.02.57.02,3.12,0,6.24,0,9.36-.03.94,0,1.89-.12,2.83-.16.31-.01.64,0,.94.07.63.14,1,.56,1.07,1.17.07.59-.14,1.05-.65,1.36-.24.14-.5.26-.74.41-.11.07-.15.2-.07.33.06.09.16.1.25.08.03,0,.06-.02.09-.02.97-.21.93-.21,1.02.82.12,1.28-.29,2.46-.58,3.68-.13.56-.51.76-1.03.79-.53.03-1.07.02-1.61.03-1.7.02-3.4-.08-5.1.16-.5.07-1.01.04-1.51-.03-1.6-.22-3.21-.17-4.81-.04-.5.04-1.01.09-1.51.05-2.39-.19-4.78-.19-7.18-.08-.99.05-1.52-.44-1.65-1.43-.05-.41.04-.81.07-1.22.05-.66.04-1.32.08-1.98.05-.72.35-.95,1.06-.8.49.1.98.24,1.45.41.64.24,1.24.24,1.8-.17.44-.33.98-.33,1.48-.44Zm1.41-.87c.07.37.14.73.2,1.09.1.65.18.71.75.45.14-.06.27-.15.41-.23,1.25-.62,1.89-.24,1.92,1.18,0,.15-.04.31-.07.46-.13.71-.14.72.6.96.3.09.5.19.51.56.03.69.3.98.95,1.11.16.03.33.05.43-.1.11-.14.06-.31-.05-.43-.41-.43-.31-.83-.02-1.27.12-.17.16-.41.18-.62.05-.6.17-1.18.42-1.73.14-.3.14-.57-.27-.63-.36-.05-.66.05-.61.49.07.64-.45,1.15-.33,1.82.06.35-.52.58-.98.43-.42-.13-.46-.41-.21-.72.25-.31.2-.56-.05-.83-.13-.15-.2-.34-.14-.53.15-.53-.13-.82-.54-1.07-.25-.15-.4-.35-.43-.68-.06-.63-.52-.8-1-.39-.14.12-.24.29-.34.45-.41.63-.41.63-1.13.22-.04-.02-.11,0-.22,0Z"/>
</svg>