<?xml version="1.0" encoding="UTF-8"?>
<svg id="Layer_1" data-name="Layer 1" xmlns="http://www.w3.org/2000/svg" viewBox="0 0 66 17.5">
  <defs>
    <style>
      .cls-1 {
        fill: #fff;
      }
    </style>
  </defs>
  <path class="cls-1" d="m65.55,0v1.61h-21.63c-.15.48-.3.95-.44,1.42-.29.95-.59,1.9-.88,2.85-.2.64-.39,1.28-.59,1.92-.29.95-.58,1.89-.88,2.83-.24.79-.49,1.58-.73,2.37-.13.42-.25.84-.38,1.27-.2.66-.41,1.32-.61,1.98-.03.09-.06.12-.15.12-.48,0-.97,0-1.45,0-.07,0-.12,0-.15-.1-.19-.55-.39-1.1-.59-1.64-.38-1.05-.76-2.1-1.13-3.15-.3-.84-.6-1.69-.9-2.53-.03-.07-.07-.09-.14-.09-.52,0-1.04,0-1.56,0h-.16v-1.65h.21c.91,0,1.81,0,2.72,0,.11,0,.17.03.2.14.13.38.26.75.39,1.12.29.84.58,1.69.86,2.53.27.8.55,1.6.83,2.4.01.03.03.05.06.1.23-.76.45-1.48.67-2.21.25-.82.5-1.64.75-2.46.24-.8.49-1.61.73-2.41.28-.91.55-1.82.83-2.73.23-.77.47-1.55.7-2.32.12-.41.25-.81.36-1.22C42.55.02,42.6,0,42.71,0c3.54,0,7.07,0,10.61,0h12.23Z"/>
  <g>
    <path class="cls-1" d="m12.77,7.25h-2.22c-.08-.47-.24-.89-.48-1.25-.23-.36-.52-.67-.85-.92-.34-.25-.71-.44-1.13-.57-.41-.13-.85-.19-1.32-.19-.84,0-1.59.21-2.25.63-.66.42-1.18,1.04-1.56,1.85s-.57,1.81-.57,2.98.19,2.18.57,3,.9,1.43,1.57,1.85c.66.42,1.41.62,2.24.62.46,0,.9-.06,1.31-.19.41-.12.79-.31,1.13-.56.34-.25.62-.55.86-.91s.4-.77.49-1.23h2.22c-.12.72-.35,1.38-.69,1.98-.34.6-.77,1.12-1.3,1.55s-1.13.77-1.81,1-1.42.36-2.22.36c-1.26,0-2.38-.3-3.37-.9-.98-.6-1.76-1.46-2.33-2.58-.57-1.12-.85-2.45-.85-4s.28-2.89.85-4c.57-1.12,1.34-1.97,2.33-2.57s2.1-.9,3.36-.9c.77,0,1.49.11,2.16.33s1.27.54,1.81.97.98.94,1.33,1.55.59,1.3.71,2.08Z"/>
    <path class="cls-1" d="m21.21,8.54v-1.86h9.1v1.86h-9.1Zm0,4.38v-1.86h9.1v1.86h-9.1Z"/>
    <path class="cls-1" d="m50.86,8.87v1.85h-6.45v-1.85h6.45Z"/>
    <path class="cls-1" d="m59.19,2.52v14.55h-2.2V4.72h-.08l-3.48,2.27v-2.1l3.63-2.37h2.14Z"/>
  </g>
</svg>