<?xml version="1.0" encoding="UTF-8"?>
<svg id="Layer_1" data-name="Layer 1" xmlns="http://www.w3.org/2000/svg" viewBox="0 0 220 220">
  <defs>
    <style>
      .cls-1 {
        fill: #fff;
      }

      .cls-2 {
        fill: #333;
      }

      .cls-3 {
        stroke-width: 2px;
      }

      .cls-3, .cls-4, .cls-5 {
        fill: none;
        stroke: #333;
        stroke-miterlimit: 10;
      }

      .cls-6 {
        fill: #191919;
      }

      .cls-5 {
        stroke-width: 3px;
      }
    </style>
  </defs>
  <rect class="cls-6" width="220" height="220" rx="10" ry="10"/>
  <g>
    <path class="cls-2" d="m12.29,35.45l2.08,14.4-2.99.43-2.08-14.4,3-.43Z"/>
    <path class="cls-2" d="m21.67,49c-1.09.16-2.07.06-2.93-.29-.86-.35-1.57-.91-2.12-1.69-.55-.77-.91-1.71-1.07-2.82-.16-1.11-.09-2.12.22-3.02.31-.9.83-1.64,1.56-2.22.73-.58,1.64-.95,2.73-1.11,1.09-.16,2.07-.06,2.93.29s1.57.91,2.12,1.69c.55.77.91,1.72,1.07,2.83.16,1.11.08,2.11-.23,3.01-.31.9-.83,1.64-1.55,2.22-.73.58-1.64.95-2.73,1.11Zm-.32-2.32c.5-.07.89-.27,1.18-.6.29-.33.49-.76.59-1.27.1-.52.1-1.09.01-1.72s-.26-1.18-.5-1.64c-.24-.47-.55-.82-.92-1.06-.37-.24-.81-.32-1.31-.25-.5.07-.9.28-1.2.61-.3.33-.5.76-.6,1.28-.1.52-.1,1.09-.01,1.72s.26,1.18.5,1.64c.24.47.55.82.93,1.05.38.23.82.32,1.32.24Z"/>
    <path class="cls-2" d="m34.39,51.31c-.97.14-1.82.13-2.55-.04s-1.33-.45-1.8-.84c-.47-.4-.81-.87-1.02-1.42l2.72-.77c.12.2.28.39.49.55.21.16.47.28.79.35.32.07.7.08,1.13.01.65-.09,1.17-.33,1.54-.71.38-.38.51-.94.41-1.68l-.29-1.98-.13.02c-.09.32-.24.63-.47.94-.22.3-.53.57-.92.8s-.87.38-1.44.47c-.81.12-1.57.04-2.29-.25-.72-.28-1.33-.78-1.83-1.51-.5-.72-.84-1.68-1.01-2.88-.18-1.22-.12-2.27.15-3.15s.72-1.57,1.33-2.07c.6-.5,1.3-.81,2.09-.93.6-.09,1.12-.06,1.56.09.44.14.8.35,1.1.62.29.27.53.53.71.81l.11-.02-.26-1.81,2.97-.43,1.58,10.9c.13.92.02,1.72-.34,2.4s-.92,1.24-1.67,1.67-1.64.71-2.67.86Zm-.9-6.69c.48-.07.87-.25,1.17-.54.3-.29.51-.67.62-1.15.11-.48.13-1.03.04-1.67-.09-.63-.26-1.17-.5-1.61-.25-.44-.56-.76-.93-.97-.38-.21-.8-.28-1.29-.21-.49.07-.89.26-1.19.58-.3.31-.5.72-.61,1.21-.11.49-.11,1.05-.03,1.66.09.62.26,1.15.5,1.58s.55.74.92.94c.37.2.8.26,1.29.19Z"/>
    <path class="cls-2" d="m50.94,44.78c-1.11.16-2.09.06-2.95-.29-.86-.36-1.57-.92-2.11-1.7-.54-.78-.9-1.71-1.05-2.8-.16-1.11-.09-2.11.22-3.01.31-.9.82-1.64,1.55-2.22.72-.59,1.63-.96,2.72-1.12.94-.14,1.79-.08,2.55.16.76.24,1.39.64,1.89,1.2.5.56.83,1.25,1,2.08l-2.83.41c-.16-.53-.43-.93-.82-1.21s-.85-.38-1.4-.3c-.46.07-.85.25-1.16.55s-.52.7-.65,1.21c-.12.51-.13,1.1-.04,1.78.1.69.28,1.26.54,1.72s.58.78.96.99c.38.2.81.27,1.27.2.34-.05.64-.16.89-.34.25-.18.45-.42.59-.71.14-.3.21-.64.21-1.03l2.83-.41c.07.83-.05,1.59-.36,2.27-.31.68-.79,1.25-1.44,1.7-.65.45-1.46.75-2.42.89Z"/>
    <path class="cls-2" d="m61.93,35.98l-.36-2.5,9.71-1.4.36,2.5-9.71,1.4Zm.67,4.67l-.36-2.5,9.71-1.4.36,2.5-9.71,1.4Z"/>
  </g>
  <g>
    <path class="cls-2" d="m82.76,12.25l2.08,14.4-3,.43-2.08-14.4,3-.43Z"/>
    <path class="cls-2" d="m92.14,25.81c-1.09.16-2.07.06-2.93-.29-.86-.35-1.57-.91-2.12-1.69-.55-.77-.91-1.71-1.07-2.82-.16-1.12-.09-2.12.23-3.02.31-.9.83-1.64,1.55-2.22.73-.58,1.64-.95,2.73-1.11s2.07-.06,2.93.29c.86.35,1.57.91,2.12,1.69s.91,1.72,1.07,2.83c.16,1.11.08,2.11-.23,3.01-.31.9-.83,1.64-1.56,2.22-.73.58-1.64.95-2.73,1.11Zm-.32-2.32c.5-.07.89-.27,1.18-.6.29-.33.49-.76.59-1.27.1-.52.11-1.09.01-1.72-.09-.63-.26-1.18-.5-1.64-.24-.47-.55-.82-.92-1.06-.37-.24-.81-.32-1.31-.25-.5.07-.9.28-1.2.61-.3.33-.5.76-.6,1.28-.1.52-.1,1.09-.01,1.72.09.63.26,1.18.5,1.64s.55.82.93,1.05c.38.23.82.32,1.32.24Z"/>
    <path class="cls-2" d="m104.86,28.12c-.97.14-1.82.13-2.55-.04-.73-.17-1.33-.44-1.8-.84-.47-.4-.81-.87-1.01-1.42l2.71-.77c.12.2.28.39.49.55.21.16.47.28.79.35.32.07.7.08,1.13.01.65-.09,1.17-.33,1.54-.71.38-.38.51-.94.41-1.68l-.29-1.98-.13.02c-.09.32-.24.63-.47.94-.22.31-.53.57-.92.8-.39.23-.87.38-1.44.47-.81.12-1.58.04-2.29-.25-.72-.28-1.33-.78-1.83-1.51-.5-.72-.84-1.68-1.02-2.88-.18-1.22-.12-2.27.16-3.15.28-.88.72-1.57,1.33-2.07.6-.5,1.3-.81,2.09-.93.61-.09,1.13-.06,1.56.09.44.14.8.35,1.1.62.29.27.53.53.71.81l.11-.02-.26-1.81,2.97-.43,1.58,10.9c.13.92.02,1.72-.34,2.4-.36.68-.92,1.24-1.67,1.67-.75.43-1.64.71-2.67.86Zm-.9-6.69c.48-.07.87-.25,1.17-.54s.51-.67.62-1.15c.11-.48.13-1.03.04-1.67-.09-.63-.26-1.17-.51-1.61-.25-.44-.56-.76-.93-.97-.37-.21-.8-.28-1.29-.21-.49.07-.89.26-1.19.58-.3.31-.5.72-.61,1.21-.11.49-.12,1.05-.03,1.66.09.62.26,1.15.5,1.58.24.43.55.74.92.94.37.2.8.26,1.29.19Z"/>
    <path class="cls-2" d="m121.41,21.58c-1.11.16-2.09.06-2.95-.29s-1.57-.92-2.11-1.7c-.54-.78-.9-1.71-1.06-2.8-.16-1.11-.08-2.11.22-3.01.31-.9.82-1.64,1.55-2.23.72-.59,1.63-.96,2.72-1.11.94-.14,1.79-.08,2.55.16.76.24,1.39.64,1.89,1.2.5.56.83,1.25,1,2.08l-2.83.41c-.16-.53-.43-.93-.82-1.21-.39-.28-.86-.38-1.4-.3-.46.07-.85.25-1.16.55-.31.3-.52.7-.65,1.21-.12.51-.14,1.1-.04,1.78.1.69.28,1.26.54,1.72.26.46.58.78.96.99.38.2.81.27,1.27.2.34-.05.64-.16.89-.35.25-.18.45-.42.59-.71.14-.3.21-.64.21-1.02l2.83-.41c.07.83-.05,1.59-.36,2.27-.31.68-.79,1.25-1.44,1.7s-1.46.75-2.42.89Z"/>
  </g>
  <g>
    <path class="cls-2" d="m86.6,38.35l2.08,14.4-3,.43-2.08-14.4,3-.43Z"/>
    <path class="cls-2" d="m95.98,51.91c-1.09.16-2.07.06-2.93-.29-.86-.35-1.57-.92-2.12-1.69-.55-.77-.91-1.71-1.07-2.82-.16-1.12-.09-2.12.22-3.02.31-.9.83-1.64,1.55-2.22.73-.58,1.64-.95,2.73-1.11,1.09-.16,2.07-.06,2.93.29s1.57.91,2.12,1.69c.55.77.91,1.72,1.07,2.83.16,1.11.08,2.11-.23,3.01s-.83,1.64-1.56,2.22c-.73.58-1.64.95-2.73,1.11Zm-.32-2.32c.5-.07.89-.27,1.18-.6.29-.33.49-.76.59-1.27.1-.52.11-1.09.01-1.72-.09-.63-.26-1.18-.5-1.64-.24-.47-.55-.82-.92-1.06-.37-.24-.81-.32-1.31-.25-.5.07-.9.28-1.2.61s-.5.76-.6,1.28-.1,1.09-.01,1.72c.09.63.26,1.17.5,1.64.24.47.55.82.93,1.05.38.24.82.32,1.32.24Z"/>
    <path class="cls-2" d="m108.7,54.22c-.97.14-1.82.13-2.55-.04-.73-.17-1.33-.45-1.8-.84-.47-.4-.81-.87-1.01-1.42l2.72-.77c.12.2.28.39.49.55s.47.28.79.35c.32.07.7.08,1.13.01.65-.09,1.17-.33,1.54-.71s.51-.94.41-1.68l-.29-1.98-.13.02c-.09.32-.24.63-.47.94-.22.3-.53.57-.92.8-.39.23-.87.38-1.44.47-.81.12-1.58.04-2.29-.25s-1.33-.78-1.83-1.51c-.5-.72-.84-1.68-1.01-2.88-.18-1.22-.12-2.27.15-3.15.28-.88.72-1.57,1.33-2.07.6-.5,1.3-.81,2.09-.93.61-.09,1.13-.06,1.56.09.44.14.8.35,1.1.62.29.27.53.53.71.81l.11-.02-.26-1.81,2.97-.43,1.58,10.9c.13.92.02,1.72-.34,2.4s-.92,1.24-1.66,1.66c-.75.43-1.64.71-2.67.86Zm-.9-6.69c.48-.07.87-.25,1.17-.54.3-.29.51-.67.62-1.15.12-.48.13-1.03.04-1.67-.09-.63-.26-1.17-.51-1.61-.25-.44-.56-.76-.93-.97-.38-.21-.8-.28-1.29-.21-.49.07-.89.26-1.19.58-.3.31-.5.72-.61,1.21-.11.49-.12,1.05-.03,1.66.09.62.26,1.15.5,1.58s.55.74.92.94c.37.2.8.26,1.29.19Z"/>
    <path class="cls-2" d="m123.45,47.93c-.69.1-1.32.07-1.89-.1-.57-.16-1.05-.46-1.43-.89s-.62-1-.72-1.71c-.09-.6-.05-1.12.11-1.56s.41-.81.76-1.11c.34-.3.75-.55,1.22-.75.47-.2.96-.36,1.49-.49.62-.16,1.12-.29,1.49-.41.38-.12.64-.24.8-.38.16-.14.22-.33.19-.56v-.04c-.07-.45-.26-.77-.57-.97-.31-.2-.73-.27-1.24-.19-.54.08-.95.26-1.24.54-.28.28-.45.61-.5.98l-2.8.18c.05-.68.24-1.28.58-1.82.34-.54.82-.99,1.44-1.34.62-.36,1.36-.59,2.22-.72.6-.09,1.19-.1,1.76-.04.57.06,1.09.21,1.56.44.47.23.86.56,1.18.99.32.43.52.96.61,1.6l1.05,7.28-2.84.41-.22-1.5h-.08c-.12.37-.31.7-.57,1-.25.3-.57.55-.96.75-.39.2-.85.34-1.38.42Zm.56-2.19c.44-.06.82-.21,1.13-.43.31-.23.54-.5.69-.83.15-.33.2-.68.14-1.06l-.17-1.15c-.08.07-.2.15-.36.22-.15.07-.33.14-.53.21-.2.07-.39.13-.59.19s-.38.11-.54.16c-.34.1-.64.23-.89.38-.25.15-.43.33-.55.54-.12.21-.16.46-.12.74.06.41.25.7.58.87.33.17.72.22,1.18.16Z"/>
  </g>
  <path class="cls-2" d="m42.33,50.67c-.34.05-.66.03-.95-.05-.29-.08-.53-.23-.72-.44-.19-.22-.31-.5-.36-.86-.04-.3-.03-.56.06-.78.08-.22.21-.41.38-.56.17-.15.37-.28.61-.38.23-.1.48-.18.74-.24.31-.08.56-.15.75-.2.19-.06.32-.12.4-.19.08-.07.11-.16.09-.28v-.02c-.04-.22-.13-.38-.29-.49-.16-.1-.36-.13-.62-.1-.27.04-.47.13-.62.27-.14.14-.23.3-.25.49l-1.4.09c.02-.34.12-.64.29-.91.17-.27.41-.49.72-.67.31-.18.68-.3,1.11-.36.3-.04.59-.05.88-.02.29.03.55.1.78.22.24.12.43.28.59.49.16.21.26.48.31.8l.53,3.64-1.42.21-.11-.75h-.04c-.06.19-.16.35-.28.5s-.29.27-.48.37c-.19.1-.42.17-.69.21Zm.28-1.09c.22-.03.41-.1.56-.22.16-.11.27-.25.35-.41.08-.16.1-.34.07-.53l-.08-.57s-.1.07-.18.11c-.08.04-.17.07-.26.11s-.2.07-.29.1c-.1.03-.19.06-.27.08-.17.05-.32.11-.44.19-.12.08-.21.17-.27.27-.06.11-.08.23-.06.37.03.2.13.35.29.43.16.08.36.11.59.08Z"/>
  <path class="cls-2" d="m111.55,27.5l-1.04-7.2,1.5-.22.39,2.71h.05c.04-.16.12-.32.22-.49s.25-.32.44-.45c.19-.13.43-.22.74-.26.39-.06.77,0,1.13.15.36.16.67.43.93.81.26.38.43.88.52,1.5.09.6.06,1.12-.07,1.57-.13.44-.35.79-.65,1.05s-.66.42-1.07.48c-.29.04-.54.03-.76-.04-.22-.07-.4-.16-.55-.29-.15-.13-.27-.26-.36-.4h-.07s.12.87.12.87l-1.48.21Zm1.08-2.91c.05.32.13.59.25.82.12.23.28.39.47.5.19.11.4.14.64.11.24-.04.44-.13.59-.29s.25-.36.3-.62c.05-.25.06-.54.01-.85-.04-.31-.13-.58-.25-.8-.12-.22-.28-.39-.46-.5-.19-.11-.41-.15-.65-.11-.24.04-.44.13-.59.28-.15.15-.25.35-.31.6-.05.25-.06.54-.01.86Z"/>
  <path class="cls-2" d="m115.06,52.97l-1.04-7.2,1.5-.22.39,2.71h.05c.04-.16.12-.32.22-.49.1-.17.25-.32.44-.45.19-.13.43-.22.74-.26.39-.06.77,0,1.13.15s.67.43.93.81c.26.38.43.88.52,1.5.09.6.06,1.12-.07,1.57-.13.44-.35.79-.65,1.05s-.66.42-1.07.48c-.29.04-.54.03-.76-.04s-.4-.16-.55-.29c-.15-.13-.27-.26-.36-.4h-.07s.12.87.12.87l-1.48.21Zm1.08-2.91c.05.32.13.59.25.82.12.23.28.39.47.5.19.11.4.14.64.11.24-.04.44-.13.59-.29.15-.16.25-.37.3-.62.05-.25.06-.54.01-.85-.04-.31-.13-.58-.25-.8-.12-.22-.27-.39-.46-.5-.19-.11-.41-.15-.65-.11-.24.04-.44.13-.59.28-.15.15-.25.35-.31.6s-.06.53-.01.86Z"/>
  <rect class="cls-2" x="82.68" y="31.24" width="31" height="2" transform="translate(-3.6 14.37) rotate(-8.22)"/>
  <g>
    <path class="cls-2" d="m108.4,192.54c-.38-.06-.73-.15-1.05-.27-.32-.11-.58-.23-.78-.36l1.05-2.11c.33.17.64.28.92.34.28.06.54.03.77-.07.23-.11.44-.31.63-.63l.25-.43-2-11.72,3.14.53.9,8.28.11.02,3.58-7.52,3.16.53-6.19,11.22c-.3.54-.66,1-1.07,1.38-.42.37-.91.63-1.47.78-.56.15-1.21.16-1.95.03Z"/>
    <path class="cls-2" d="m124.64,187.42l.42-2.49,9.67,1.63-.42,2.49-9.67-1.63Zm.78-4.65l.42-2.49,9.67,1.63-.42,2.49-9.67-1.63Z"/>
    <path class="cls-2" d="m141.31,193.93l.37-2.18,5.9-3.87c.5-.35.93-.66,1.29-.95.35-.29.63-.58.84-.88.21-.3.34-.64.41-1.02.07-.42.04-.8-.1-1.14-.14-.34-.36-.62-.67-.84-.3-.22-.67-.37-1.09-.44-.44-.07-.84-.05-1.19.07-.36.12-.65.33-.88.63-.23.3-.39.68-.47,1.14l-2.88-.48c.16-.94.51-1.72,1.05-2.34.54-.62,1.23-1.05,2.06-1.3.83-.25,1.74-.29,2.74-.12,1.03.17,1.89.5,2.59,1,.7.49,1.21,1.09,1.53,1.8.32.71.41,1.48.27,2.31-.09.54-.29,1.06-.59,1.55-.3.49-.78,1.01-1.43,1.56-.65.55-1.54,1.19-2.68,1.92l-2.44,1.7-.02.1,6.02,1.01-.42,2.48-10.23-1.72Z"/>
    <path class="cls-2" d="m168.59,190.62l-2.76-.29c0-.24-.07-.47-.19-.68-.12-.21-.3-.4-.53-.56-.23-.16-.52-.26-.86-.32-.46-.08-.87-.05-1.22.09-.35.14-.55.37-.61.69-.04.26.02.49.2.7.18.21.5.41.99.6l1.88.72c1.01.39,1.73.87,2.17,1.43.43.56.58,1.23.45,2.01-.12.71-.43,1.29-.93,1.75-.5.46-1.14.78-1.9.96-.77.18-1.62.19-2.55.03-1.42-.24-2.51-.73-3.25-1.47-.74-.74-1.1-1.63-1.07-2.68l2.96.34c.01.45.17.82.48,1.1s.72.47,1.25.56c.52.09.96.06,1.32-.09.35-.15.56-.39.62-.71.04-.27-.04-.51-.23-.73-.2-.21-.52-.41-.97-.58l-1.8-.68c-1.02-.39-1.73-.88-2.16-1.49-.42-.6-.57-1.31-.43-2.11.12-.69.41-1.25.87-1.69.46-.44,1.05-.73,1.78-.89.73-.16,1.55-.16,2.47,0,1.36.23,2.38.7,3.07,1.4.68.71,1.01,1.57.97,2.58Z"/>
    <path class="cls-2" d="m169.42,198.67l1.81-10.76,2.98.5-1.81,10.76-2.98-.5Zm3.54-11.89c-.44-.08-.8-.29-1.06-.63-.27-.35-.36-.73-.29-1.14.07-.42.29-.75.66-.99.37-.24.77-.33,1.21-.25.44.08.8.29,1.06.63.27.35.36.73.29,1.14-.07.42-.29.75-.65.99-.36.24-.77.33-1.21.25Z"/>
    <path class="cls-2" d="m178.82,193.85l-1.05,6.22-2.98-.5,1.81-10.76,2.84.48-.32,1.9.13.02c.34-.59.83-1.01,1.45-1.29.62-.27,1.33-.34,2.13-.21.75.13,1.37.4,1.87.82s.85.96,1.06,1.62c.21.66.24,1.4.1,2.24l-1.15,6.85-2.98-.5,1.06-6.32c.12-.66.03-1.2-.24-1.63s-.72-.69-1.31-.79c-.4-.07-.77-.04-1.1.08-.33.12-.62.33-.84.63-.23.3-.38.68-.46,1.14Z"/>
    <path class="cls-2" d="m187.23,199.07l.4-2.39,7.58-8.43,2.06.35-.56,3.31-1.22-.21-4.78,5.34-.02.11,8.51,1.43-.41,2.43-11.56-1.95Zm6.46,3.68l.55-3.25.23-1.05,1.69-10.04,2.84.48-2.42,14.34-2.9-.49Z"/>
    <path class="cls-2" d="m204.72,193.55l1.34,4.09,2.66-3.42,3.06.52-4.02,4.85,2.29,5.92-3.05-.51-1.5-4.08-2.71,3.37-3.08-.52,4.1-4.84-2.17-5.9,3.08.52Z"/>
  </g>
  <g>
    <path class="cls-1" d="m52.04,100.89v14.55h-3.08v-11.63h-.08l-3.33,2.09v-2.73l3.6-2.28h2.89Z"/>
    <path class="cls-1" d="m61.2,115.76c-1.22,0-2.27-.31-3.15-.9s-1.55-1.46-2.02-2.59c-.47-1.13-.7-2.49-.7-4.08,0-1.59.24-2.94.71-4.06.47-1.12,1.15-1.97,2.02-2.55.88-.58,1.93-.88,3.14-.88s2.26.29,3.14.88c.88.59,1.55,1.44,2.03,2.55s.71,2.47.7,4.05c0,1.6-.24,2.96-.71,4.09-.47,1.13-1.14,2-2.02,2.59s-1.92.89-3.15.89Zm0-2.55c.83,0,1.5-.42,2-1.26s.74-2.1.74-3.77c0-1.1-.11-2.02-.34-2.76-.22-.73-.54-1.29-.95-1.65-.41-.37-.89-.55-1.45-.55-.83,0-1.49.42-1.99,1.24-.5.83-.75,2.07-.75,3.72,0,1.12.11,2.05.34,2.79.22.75.54,1.3.96,1.68.41.37.89.56,1.45.56Z"/>
    <path class="cls-1" d="m76.09,106.97v2.4h-6.63v-2.4h6.63Z"/>
    <path class="cls-1" d="m84.96,100.89v14.55h-3.08v-11.63h-.08l-3.33,2.09v-2.73l3.6-2.28h2.89Z"/>
    <path class="cls-1" d="m94.75,100.89v14.55h-3.08v-11.63h-.08l-3.33,2.09v-2.73l3.6-2.28h2.89Z"/>
    <path class="cls-1" d="m111.73,115.44l-4.67-6.2h-1.05v6.2h-3.08v-14.55h3.08v5.81h.62l4.83-5.81h3.83l-5.67,6.75,5.94,7.8h-3.81Z"/>
    <path class="cls-1" d="m116.3,115.44v-2.47l.41-.04c.53-.04.96-.24,1.29-.61.33-.36.57-.94.74-1.74s.27-1.87.32-3.22l.24-6.47h9.87v14.55h-2.99v-12.08h-4.03l-.23,5.06c-.08,1.63-.27,2.96-.58,3.99-.31,1.03-.8,1.79-1.48,2.29-.67.49-1.6.74-2.77.74h-.8Z"/>
    <path class="cls-1" d="m134.2,115.44h-3.3l5.02-14.55h3.96l5.01,14.55h-3.3l-3.64-11.22h-.11l-3.65,11.22Zm-.21-5.72h7.78v2.4h-7.78v-2.4Z"/>
    <path class="cls-1" d="m159.48,105.99h-3.11c-.06-.4-.17-.76-.35-1.08-.18-.31-.4-.58-.67-.81-.28-.22-.59-.39-.95-.51s-.75-.18-1.16-.18c-.75,0-1.41.19-1.97.56s-.99.91-1.3,1.62-.46,1.57-.46,2.57.16,1.91.47,2.61c.31.71.74,1.24,1.3,1.6.56.36,1.21.54,1.94.54.41,0,.79-.05,1.15-.16.35-.11.67-.27.94-.48s.5-.47.69-.77c.18-.3.31-.65.38-1.04h3.11c-.08.68-.28,1.32-.6,1.94s-.75,1.17-1.29,1.65c-.54.49-1.18.87-1.92,1.15-.74.28-1.58.42-2.51.42-1.3,0-2.46-.29-3.48-.88-1.02-.59-1.83-1.44-2.42-2.55-.59-1.11-.88-2.46-.88-4.04s.3-2.94.89-4.05,1.41-1.96,2.43-2.55c1.02-.58,2.17-.88,3.45-.88.84,0,1.62.12,2.35.35.72.24,1.36.58,1.92,1.03s1.01,1,1.37,1.66c.35.65.58,1.4.68,2.24Z"/>
    <path class="cls-1" d="m174.52,105.99h-3.11c-.06-.4-.17-.76-.35-1.08-.18-.31-.4-.58-.67-.81-.28-.22-.59-.39-.95-.51s-.75-.18-1.16-.18c-.75,0-1.41.19-1.97.56s-.99.91-1.3,1.62-.46,1.57-.46,2.57.16,1.91.47,2.61c.31.71.74,1.24,1.3,1.6.56.36,1.21.54,1.94.54.41,0,.79-.05,1.15-.16.35-.11.67-.27.94-.48s.5-.47.69-.77c.18-.3.31-.65.38-1.04h3.11c-.08.68-.28,1.32-.6,1.94s-.75,1.17-1.29,1.65c-.54.49-1.18.87-1.92,1.15-.74.28-1.58.42-2.51.42-1.3,0-2.46-.29-3.48-.88-1.02-.59-1.83-1.44-2.42-2.55-.59-1.11-.88-2.46-.88-4.04s.3-2.94.89-4.05,1.41-1.96,2.43-2.55c1.02-.58,2.17-.88,3.45-.88.84,0,1.62.12,2.35.35.72.24,1.36.58,1.92,1.03s1.01,1,1.37,1.66c.35.65.58,1.4.68,2.24Z"/>
  </g>
  <polygon class="cls-5" points="10 153.16 10 188.67 65.35 188.67 83 171.16 83 133.35 27.56 133.35 10 153.16"/>
  <polyline class="cls-5" points="65.35 188.67 65.35 152.98 10 152.98"/>
  <line class="cls-3" x1="65.35" y1="152.98" x2="83" y2="133.35"/>
  <polyline class="cls-4" points="10 188.67 27.56 171.16 83 170.82"/>
  <line class="cls-4" x1="27.56" y1="133.35" x2="27.56" y2="172.08"/>
  <polygon class="cls-5" points="170.5 34.5 154.5 81.5 201.5 67.5 170.5 34.5"/>
  <polyline class="cls-3" points="154.5 81.5 174.52 64.51 201.5 67.5"/>
  <line class="cls-4" x1="170.5" y1="34.5" x2="174.52" y2="64.51"/>
</svg>