<?xml version="1.0" encoding="utf-8"?>
<!-- Generator: Adobe Illustrator 27.6.1, SVG Export Plug-In . SVG Version: 6.00 Build 0)  -->
<svg version="1.1" id="Layer_1" xmlns="http://www.w3.org/2000/svg" xmlns:xlink="http://www.w3.org/1999/xlink" x="0px" y="0px"
	 viewBox="0 0 220 220" style="enable-background:new 0 0 220 220;" xml:space="preserve">
<style type="text/css">
	.st0{fill:#191919;}
	.st1{fill:#FFFFFF;}
	.st2{fill:#333333;}
</style>
<g>
	<path class="st0" d="M210,220H10c-5.52,0-10-4.48-10-10V10C0,4.48,4.48,0,10,0H210c5.52,0,10,4.48,10,10V210
		C220,215.52,215.52,220,210,220z"/>
</g>
<g>
	<g>
		<path class="st1" d="M70.83,115.64c-1,0-1.9-0.18-2.68-0.55c-0.78-0.37-1.41-0.88-1.86-1.53c-0.46-0.65-0.7-1.39-0.72-2.23h2.98
			c0.03,0.56,0.27,1.02,0.71,1.37c0.44,0.35,0.96,0.53,1.57,0.53c0.48,0,0.91-0.11,1.28-0.32c0.37-0.22,0.66-0.52,0.87-0.9
			s0.32-0.83,0.32-1.33c0-0.51-0.11-0.96-0.32-1.35c-0.22-0.39-0.51-0.69-0.89-0.91s-0.81-0.33-1.3-0.33
			c-0.43,0-0.84,0.09-1.24,0.26s-0.71,0.41-0.93,0.72l-2.73-0.49l0.69-7.67h8.89v2.51H69.1l-0.38,3.64h0.09
			c0.26-0.36,0.64-0.66,1.16-0.9c0.52-0.24,1.09-0.35,1.73-0.35c0.88,0,1.66,0.21,2.34,0.62c0.69,0.41,1.23,0.98,1.63,1.69
			c0.4,0.72,0.59,1.54,0.59,2.47c0,0.98-0.22,1.85-0.68,2.61c-0.46,0.76-1.09,1.36-1.91,1.79S71.91,115.64,70.83,115.64z"/>
		<path class="st1" d="M91.93,115.44l-4.67-6.2H86.2v6.2h-3.08v-14.55h3.08v5.81h0.62l4.83-5.81h3.83l-5.67,6.75l5.94,7.8H91.93z"/>
		<path class="st1" d="M96.5,115.44v-2.47l0.41-0.04c0.53-0.04,0.96-0.24,1.29-0.61s0.57-0.94,0.73-1.74
			c0.16-0.8,0.27-1.87,0.32-3.22l0.24-6.47h9.87v14.55h-2.99v-12.08h-4.03l-0.23,5.06c-0.08,1.63-0.27,2.96-0.58,3.99
			c-0.31,1.03-0.8,1.79-1.48,2.29c-0.67,0.49-1.6,0.74-2.77,0.74H96.5z"/>
		<path class="st1" d="M114.39,115.44h-3.29l5.02-14.55h3.96l5.01,14.55h-3.29l-3.64-11.22h-0.11L114.39,115.44z M114.19,109.72
			h7.78v2.4h-7.78V109.72z"/>
		<path class="st1" d="M139.68,105.99h-3.11c-0.06-0.4-0.17-0.76-0.35-1.08c-0.18-0.31-0.4-0.58-0.68-0.81
			c-0.28-0.22-0.59-0.39-0.95-0.51s-0.75-0.18-1.16-0.18c-0.75,0-1.41,0.19-1.97,0.56s-0.99,0.91-1.3,1.62
			c-0.31,0.71-0.46,1.57-0.46,2.57c0,1.04,0.15,1.91,0.46,2.61c0.31,0.71,0.74,1.24,1.3,1.6c0.56,0.36,1.21,0.54,1.94,0.54
			c0.41,0,0.79-0.05,1.15-0.16c0.35-0.11,0.67-0.27,0.94-0.48c0.28-0.21,0.5-0.47,0.69-0.77c0.18-0.3,0.31-0.65,0.38-1.04l3.11,0.01
			c-0.08,0.67-0.28,1.31-0.6,1.93c-0.32,0.62-0.75,1.17-1.29,1.65c-0.54,0.49-1.18,0.87-1.92,1.15c-0.74,0.28-1.58,0.42-2.51,0.42
			c-1.3,0-2.46-0.29-3.48-0.88c-1.02-0.59-1.83-1.44-2.42-2.55c-0.59-1.11-0.88-2.46-0.88-4.04c0-1.59,0.3-2.94,0.9-4.05
			c0.6-1.11,1.41-1.96,2.43-2.55c1.02-0.58,2.17-0.88,3.45-0.88c0.84,0,1.62,0.12,2.35,0.35c0.72,0.24,1.36,0.58,1.92,1.03
			s1.02,1,1.37,1.66C139.35,104.4,139.58,105.14,139.68,105.99z"/>
		<path class="st1" d="M154.72,105.99h-3.11c-0.06-0.4-0.17-0.76-0.35-1.08c-0.18-0.31-0.4-0.58-0.68-0.81
			c-0.28-0.22-0.59-0.39-0.95-0.51s-0.75-0.18-1.16-0.18c-0.75,0-1.41,0.19-1.97,0.56s-0.99,0.91-1.3,1.62
			c-0.31,0.71-0.46,1.57-0.46,2.57c0,1.04,0.15,1.91,0.46,2.61c0.31,0.71,0.74,1.24,1.3,1.6c0.56,0.36,1.21,0.54,1.94,0.54
			c0.41,0,0.79-0.05,1.15-0.16c0.35-0.11,0.67-0.27,0.94-0.48c0.28-0.21,0.5-0.47,0.69-0.77c0.18-0.3,0.31-0.65,0.38-1.04l3.11,0.01
			c-0.08,0.67-0.28,1.31-0.6,1.93c-0.32,0.62-0.75,1.17-1.29,1.65c-0.54,0.49-1.18,0.87-1.92,1.15c-0.74,0.28-1.58,0.42-2.51,0.42
			c-1.3,0-2.46-0.29-3.48-0.88c-1.02-0.59-1.83-1.44-2.42-2.55c-0.59-1.11-0.88-2.46-0.88-4.04c0-1.59,0.3-2.94,0.89-4.05
			c0.6-1.11,1.41-1.96,2.43-2.55c1.02-0.58,2.17-0.88,3.45-0.88c0.84,0,1.62,0.12,2.35,0.35c0.72,0.24,1.36,0.58,1.92,1.03
			s1.02,1,1.37,1.66C154.39,104.4,154.62,105.14,154.72,105.99z"/>
	</g>
</g>
<g>
	<g>
		<path class="st2" d="M153.11,36.66l-6.95,17.55l-3.71-1.47L148,38.71l-0.1-0.04l-5.02,0.93l1.3-3.29l5.43-1.03L153.11,36.66z"/>
	</g>
</g>
<g>
	<g>
		<path class="st2" d="M161.64,44.26c-1.28-0.51-2.33-1.18-3.15-2.02c-0.82-0.84-1.37-1.76-1.63-2.77c-0.27-1.01-0.2-2.02,0.18-3.05
			l3.74,1.48c-0.15,0.44-0.15,0.87-0.02,1.29c0.13,0.43,0.38,0.81,0.74,1.16s0.82,0.63,1.36,0.85c0.57,0.22,1.1,0.32,1.62,0.29
			c0.51-0.03,0.96-0.17,1.35-0.43s0.67-0.62,0.85-1.08c0.19-0.47,0.22-0.94,0.1-1.4c-0.12-0.46-0.38-0.9-0.78-1.29
			c-0.4-0.4-0.93-0.73-1.6-0.99l-1.64-0.65l1.08-2.72l1.64,0.65c0.56,0.22,1.09,0.32,1.6,0.3c0.51-0.02,0.95-0.16,1.33-0.41
			c0.38-0.25,0.66-0.61,0.84-1.07c0.17-0.44,0.22-0.87,0.15-1.29c-0.07-0.42-0.26-0.79-0.56-1.13c-0.3-0.34-0.7-0.6-1.19-0.8
			c-0.5-0.2-1-0.29-1.49-0.28c-0.49,0.01-0.92,0.14-1.31,0.37c-0.38,0.23-0.67,0.57-0.86,1.01l-3.55-1.41
			c0.42-1,1.06-1.78,1.92-2.33c0.86-0.55,1.86-0.85,2.98-0.92c1.12-0.06,2.29,0.15,3.49,0.62c1.21,0.48,2.18,1.12,2.92,1.92
			c0.73,0.8,1.21,1.67,1.42,2.62c0.21,0.95,0.13,1.88-0.24,2.8c-0.38,0.98-1.01,1.68-1.89,2.1c-0.88,0.41-1.84,0.52-2.89,0.3
			l-0.05,0.14c1.22,0.68,2.03,1.51,2.42,2.51c0.39,1,0.36,2.04-0.07,3.13c-0.39,1-1.03,1.78-1.92,2.32
			c-0.89,0.55-1.93,0.84-3.12,0.89C164.21,45.02,162.96,44.78,161.64,44.26z"/>
	</g>
</g>
<g>
	<g>
		<path class="st2" d="M145.63,64.98l1.16-2.92l11.89-8.64l2.52,1l-1.6,4.04l-1.49-0.59l-7.51,5.48l-0.05,0.14l10.41,4.12
			l-1.18,2.97L145.63,64.98z M152.83,71.4l1.57-3.98l0.58-1.27l4.86-12.28l3.48,1.38l-6.95,17.55L152.83,71.4z"/>
	</g>
</g>
<g>
	<g>
		<path class="st2" d="M181.38,56.07l-1.15,2.9l-8-3.17l1.15-2.9L181.38,56.07z"/>
	</g>
</g>
<g>
	<g>
		<path class="st2" d="M191.78,56.1l12.97-11.52l0.05-0.12l-8.47-3.35l1.2-3.03l12.31,4.87l-1.22,3.08l-13.01,11.59L191.78,56.1z"/>
	</g>
</g>
<g>
	<g>
		<path class="st2" d="M184.56,84.48c-1.21-0.48-2.2-1.13-2.97-1.95c-0.77-0.82-1.27-1.73-1.52-2.73c-0.24-1-0.18-2.01,0.2-3.03
			l3.6,1.42c-0.23,0.7-0.16,1.36,0.2,1.99c0.36,0.63,0.91,1.09,1.64,1.38c0.58,0.23,1.15,0.31,1.7,0.22
			c0.55-0.08,1.05-0.31,1.48-0.67c0.44-0.37,0.78-0.85,1.02-1.46c0.24-0.62,0.33-1.21,0.25-1.78c-0.08-0.57-0.29-1.08-0.64-1.52
			c-0.35-0.44-0.82-0.78-1.41-1.02c-0.51-0.2-1.05-0.29-1.62-0.28c-0.57,0.02-1.06,0.16-1.47,0.42l-3.06-1.9l4.49-8.92l10.73,4.25
			l-1.2,3.03l-7.67-3.04l-2.19,4.21l0.1,0.04c0.48-0.31,1.09-0.49,1.82-0.53s1.49,0.09,2.26,0.4c1.06,0.42,1.9,1.04,2.53,1.86
			c0.63,0.82,1.02,1.76,1.15,2.82c0.14,1.05-0.02,2.14-0.47,3.27c-0.46,1.18-1.15,2.13-2.06,2.82c-0.91,0.7-1.97,1.11-3.16,1.25
			C187.11,85.19,185.87,85,184.56,84.48z"/>
	</g>
</g>
<g>
	<g>
		<path class="st2" d="M167.32,50.53l-1.15,2.9l-12.06-4.78l1.15-2.9L167.32,50.53z"/>
	</g>
</g>
<g>
	<g>
		<path class="st2" d="M199.89,63.43l-1.15,2.9l-12.06-4.78l1.15-2.9L199.89,63.43z"/>
	</g>
</g>
<g>
	<g>
		<path class="st2" d="M-17.6,125.41c-0.45,2.15-1.15,4.06-2.1,5.74c-0.95,1.68-2.18,3.17-3.68,4.46l-3.51-0.74
			c0.57-0.48,1.13-1.09,1.69-1.83c0.56-0.74,1.08-1.57,1.58-2.49c0.49-0.92,0.93-1.88,1.31-2.89c0.38-1.01,0.68-2.03,0.89-3.06
			c0.29-1.37,0.44-2.77,0.45-4.22c0.01-1.45-0.1-2.82-0.33-4.11s-0.57-2.38-1.01-3.26l3.51,0.74c0.86,1.78,1.38,3.64,1.58,5.56
			C-17.03,121.24-17.15,123.27-17.6,125.41z"/>
		<path class="st2" d="M-8.31,131.97l0.64-3.07l11.93,2.5l-0.64,3.07L-8.31,131.97z M-7.11,126.24l0.64-3.07l11.93,2.5l-0.64,3.07
			L-7.11,126.24z"/>
		<path class="st2" d="M16.19,140.17c-0.85-0.18-1.57-0.48-2.17-0.92c-0.6-0.44-1.03-0.99-1.29-1.65c-0.26-0.66-0.3-1.43-0.11-2.31
			c0.15-0.74,0.42-1.33,0.79-1.77c0.38-0.44,0.83-0.77,1.36-0.98c0.53-0.21,1.11-0.33,1.74-0.36s1.28-0.01,1.95,0.07
			c0.79,0.08,1.43,0.14,1.91,0.16c0.49,0.03,0.85-0.01,1.1-0.11c0.24-0.1,0.39-0.29,0.45-0.57l0.01-0.05
			c0.11-0.55,0.03-1.01-0.25-1.38c-0.28-0.37-0.73-0.62-1.36-0.75c-0.66-0.14-1.22-0.1-1.67,0.1c-0.45,0.21-0.79,0.52-1.01,0.93
			l-3.35-0.99c0.34-0.77,0.83-1.4,1.46-1.88c0.63-0.48,1.38-0.8,2.25-0.95c0.87-0.15,1.84-0.12,2.9,0.11
			c0.74,0.15,1.43,0.39,2.07,0.7s1.19,0.71,1.64,1.18c0.45,0.47,0.77,1.03,0.96,1.66c0.19,0.63,0.2,1.34,0.03,2.13l-1.88,8.95
			l-3.49-0.73l0.39-1.84l-0.1-0.02c-0.3,0.37-0.66,0.67-1.08,0.91c-0.42,0.24-0.9,0.39-1.44,0.46
			C17.45,140.34,16.85,140.31,16.19,140.17z M17.78,137.85c0.54,0.11,1.04,0.11,1.5-0.02c0.46-0.13,0.85-0.35,1.16-0.67
			c0.31-0.32,0.52-0.71,0.62-1.18l0.29-1.41c-0.13,0.05-0.3,0.08-0.51,0.1c-0.21,0.02-0.45,0.03-0.7,0.02
			c-0.26,0-0.51-0.01-0.77-0.03c-0.26-0.01-0.49-0.03-0.69-0.04c-0.45-0.03-0.84-0.01-1.19,0.06c-0.35,0.07-0.64,0.2-0.87,0.4
			c-0.23,0.2-0.38,0.47-0.45,0.81c-0.1,0.5,0,0.92,0.31,1.26C16.78,137.5,17.22,137.73,17.78,137.85z"/>
		<path class="st2" d="M26.64,142.1l3.71-17.69l3.68,0.77l-1.4,6.65l0.11,0.02c0.24-0.32,0.55-0.64,0.93-0.94
			c0.39-0.31,0.85-0.53,1.4-0.68c0.55-0.15,1.2-0.14,1.94,0.01c0.97,0.2,1.81,0.64,2.52,1.32c0.71,0.68,1.21,1.57,1.48,2.68
			s0.26,2.43-0.06,3.95c-0.31,1.48-0.81,2.68-1.5,3.59c-0.69,0.92-1.49,1.55-2.42,1.9c-0.92,0.35-1.89,0.42-2.9,0.21
			c-0.71-0.15-1.3-0.4-1.74-0.74c-0.45-0.34-0.79-0.72-1.04-1.15c-0.24-0.43-0.41-0.84-0.5-1.24l-0.16-0.03l-0.45,2.12L26.64,142.1z
			 M31.64,136.22c-0.17,0.79-0.2,1.5-0.1,2.13c0.1,0.63,0.32,1.16,0.66,1.57c0.35,0.41,0.82,0.68,1.41,0.8
			c0.6,0.13,1.14,0.07,1.62-0.18c0.48-0.24,0.9-0.64,1.24-1.18c0.34-0.54,0.59-1.2,0.75-1.97c0.16-0.77,0.2-1.46,0.1-2.09
			c-0.09-0.63-0.31-1.15-0.66-1.56s-0.82-0.69-1.43-0.81c-0.6-0.12-1.14-0.07-1.62,0.16c-0.48,0.23-0.89,0.61-1.23,1.15
			C32.06,134.77,31.8,135.43,31.64,136.22z"/>
		<path class="st2" d="M49.51,141.12l0.65-3.09l12.23,2.57l-0.65,3.09L49.51,141.12z M53.12,146.65l2.57-12.23l3.09,0.65
			l-2.57,12.23L53.12,146.65z"/>
		<path class="st2" d="M73.56,152.2c-0.85-0.18-1.57-0.48-2.17-0.92c-0.6-0.44-1.03-0.99-1.29-1.65c-0.26-0.66-0.3-1.43-0.11-2.31
			c0.15-0.74,0.42-1.33,0.79-1.77c0.38-0.44,0.83-0.77,1.36-0.98c0.53-0.21,1.11-0.33,1.74-0.36c0.63-0.03,1.28-0.01,1.95,0.07
			c0.79,0.08,1.43,0.14,1.91,0.16c0.49,0.03,0.85-0.01,1.1-0.11c0.24-0.1,0.39-0.29,0.45-0.57l0.01-0.05
			c0.11-0.55,0.03-1.01-0.25-1.38c-0.28-0.37-0.73-0.62-1.36-0.75c-0.66-0.14-1.22-0.1-1.67,0.1c-0.45,0.21-0.79,0.52-1.01,0.93
			l-3.35-0.99c0.34-0.77,0.83-1.4,1.46-1.88c0.63-0.48,1.38-0.8,2.25-0.95c0.87-0.15,1.84-0.12,2.9,0.11
			c0.74,0.15,1.43,0.39,2.07,0.7s1.19,0.71,1.64,1.18c0.45,0.47,0.77,1.03,0.96,1.66c0.19,0.63,0.2,1.34,0.03,2.13l-1.88,8.95
			l-3.49-0.73l0.39-1.84l-0.1-0.02c-0.3,0.37-0.66,0.67-1.08,0.91c-0.42,0.24-0.9,0.39-1.44,0.46
			C74.82,152.38,74.22,152.34,73.56,152.2z M75.15,149.89c0.54,0.11,1.04,0.11,1.5-0.02c0.46-0.13,0.85-0.35,1.16-0.67
			c0.31-0.32,0.52-0.71,0.62-1.18l0.29-1.41c-0.13,0.05-0.3,0.08-0.51,0.1c-0.21,0.02-0.45,0.03-0.7,0.02
			c-0.26,0-0.51-0.01-0.77-0.03c-0.26-0.01-0.49-0.03-0.69-0.04c-0.45-0.03-0.84-0.01-1.19,0.06c-0.35,0.07-0.64,0.2-0.87,0.4
			c-0.23,0.2-0.38,0.47-0.45,0.81c-0.1,0.5,0,0.92,0.31,1.26C74.15,149.54,74.59,149.77,75.15,149.89z"/>
		<path class="st2" d="M89.89,155.64c-1.36-0.29-2.47-0.82-3.32-1.6c-0.85-0.78-1.43-1.74-1.74-2.88c-0.31-1.14-0.32-2.38-0.03-3.72
			c0.29-1.36,0.8-2.5,1.54-3.41c0.74-0.92,1.66-1.56,2.76-1.94c1.09-0.37,2.31-0.42,3.65-0.14c1.16,0.24,2.13,0.67,2.91,1.27
			c0.78,0.6,1.34,1.34,1.69,2.2c0.35,0.87,0.44,1.82,0.28,2.85l-3.47-0.73c0.04-0.68-0.1-1.27-0.44-1.76
			c-0.33-0.49-0.84-0.81-1.51-0.95c-0.57-0.12-1.1-0.07-1.59,0.15s-0.91,0.6-1.27,1.14c-0.36,0.54-0.63,1.22-0.8,2.06
			c-0.18,0.85-0.21,1.59-0.1,2.23c0.11,0.64,0.34,1.16,0.7,1.56c0.36,0.4,0.83,0.66,1.4,0.78c0.42,0.09,0.82,0.08,1.19-0.02
			c0.37-0.1,0.7-0.29,1-0.58c0.29-0.28,0.52-0.65,0.69-1.1l3.47,0.73c-0.27,1-0.73,1.83-1.39,2.5c-0.65,0.67-1.46,1.12-2.41,1.37
			C92.13,155.88,91.07,155.88,89.89,155.64z"/>
	</g>
</g>
<polygon class="st2" points="116.45,26.47 121,24.39 113.36,7.69 108.81,9.77 111.57,15.81 13.59,61.2 10.64,54.75 6.09,56.83 
	13.73,73.53 18.28,71.45 15.68,65.76 113.65,20.37 "/>
<path class="st2" d="M189.62,173.18l-31.19-48.93l0,0l-1.77-2.78l-2.39,2.57l0,0l-70.22,75.53l-6.28,6.76l8.08-2.15l0,0l102.74-27.4
	l2.84-0.76L189.62,173.18z M93.31,196.97l63.27-68.05l0,0l0,0l27.89,43.75L93.31,196.97z"/>
</svg>
