<?xml version="1.0" encoding="UTF-8"?>
<svg id="Layer_1" data-name="Layer 1" xmlns="http://www.w3.org/2000/svg" viewBox="0 0 220 220">
  <defs>
    <style>
      .cls-1 {
        fill: #4d4d4d;
      }

      .cls-2 {
        fill: #c7c7c7;
      }

      .cls-3 {
        fill: #202020;
      }
    </style>
  </defs>
  <rect class="cls-3" width="220" height="220" rx="10" ry="10"/>
  <g>
    <path class="cls-2" d="m70.83,115.64c-1,0-1.9-.18-2.68-.55-.78-.37-1.41-.88-1.86-1.53-.46-.65-.7-1.39-.72-2.23h2.98c.03.56.27,1.02.71,1.37.44.35.96.53,1.57.53.48,0,.91-.11,1.28-.32.37-.22.66-.52.87-.9s.32-.83.32-1.33-.11-.96-.32-1.35c-.22-.39-.51-.69-.89-.91s-.81-.33-1.3-.33c-.43,0-.84.09-1.24.26s-.71.41-.93.72l-2.73-.49.69-7.67h8.89v2.51h-6.36l-.38,3.64h.09c.26-.36.64-.66,1.16-.9.52-.24,1.09-.35,1.73-.35.88,0,1.66.21,2.34.62.69.41,1.23.98,1.63,1.69.4.72.59,1.54.59,2.47,0,.98-.22,1.85-.68,2.61-.46.76-1.09,1.36-1.91,1.79s-1.77.65-2.84.65Z"/>
    <path class="cls-2" d="m91.93,115.44l-4.67-6.2h-1.05v6.2h-3.08v-14.55h3.08v5.81h.62l4.83-5.81h3.83l-5.67,6.75,5.94,7.8h-3.81Z"/>
    <path class="cls-2" d="m96.5,115.44v-2.47l.41-.04c.53-.04.96-.24,1.29-.61s.57-.94.73-1.74c.16-.8.27-1.87.32-3.22l.24-6.47h9.87v14.55h-2.99v-12.08h-4.03l-.23,5.06c-.08,1.63-.27,2.96-.58,3.99-.31,1.03-.8,1.79-1.48,2.29-.67.49-1.6.74-2.77.74h-.8Z"/>
    <path class="cls-2" d="m114.39,115.44h-3.29l5.02-14.55h3.96l5.01,14.55h-3.29l-3.64-11.22h-.11l-3.65,11.22Zm-.21-5.72h7.78v2.4h-7.78v-2.4Z"/>
    <path class="cls-2" d="m139.68,105.99h-3.11c-.06-.4-.17-.76-.35-1.08-.18-.31-.4-.58-.68-.81-.28-.22-.59-.39-.95-.51s-.75-.18-1.16-.18c-.75,0-1.41.19-1.97.56s-.99.91-1.3,1.62c-.31.71-.46,1.57-.46,2.57s.15,1.91.46,2.61c.31.71.74,1.24,1.3,1.6.56.36,1.21.54,1.94.54.41,0,.79-.05,1.15-.16.35-.11.67-.27.94-.48.28-.21.5-.47.69-.77.18-.3.31-.65.38-1.04h3.11c-.08.68-.28,1.32-.6,1.94-.32.62-.75,1.17-1.29,1.65-.54.49-1.18.87-1.92,1.15-.74.28-1.58.42-2.51.42-1.3,0-2.46-.29-3.48-.88-1.02-.59-1.83-1.44-2.42-2.55-.59-1.11-.88-2.46-.88-4.04s.3-2.94.9-4.05c.6-1.11,1.41-1.96,2.43-2.55,1.02-.58,2.17-.88,3.45-.88.84,0,1.62.12,2.35.35.72.24,1.36.58,1.92,1.03s1.02,1,1.37,1.66c.35.65.58,1.4.68,2.24Z"/>
    <path class="cls-2" d="m154.72,105.99h-3.11c-.06-.4-.17-.76-.35-1.08-.18-.31-.4-.58-.68-.81-.28-.22-.59-.39-.95-.51s-.75-.18-1.16-.18c-.75,0-1.41.19-1.97.56s-.99.91-1.3,1.62c-.31.71-.46,1.57-.46,2.57s.15,1.91.46,2.61c.31.71.74,1.24,1.3,1.6.56.36,1.21.54,1.94.54.41,0,.79-.05,1.15-.16.35-.11.67-.27.94-.48.28-.21.5-.47.69-.77.18-.3.31-.65.38-1.04h3.11c-.08.68-.28,1.32-.6,1.94-.32.62-.75,1.17-1.29,1.65-.54.49-1.18.87-1.92,1.15-.74.28-1.58.42-2.51.42-1.3,0-2.46-.29-3.48-.88-1.02-.59-1.83-1.44-2.42-2.55-.59-1.11-.88-2.46-.88-4.04s.3-2.94.89-4.05c.6-1.11,1.41-1.96,2.43-2.55,1.02-.58,2.17-.88,3.45-.88.84,0,1.62.12,2.35.35.72.24,1.36.58,1.92,1.03s1.02,1,1.37,1.66c.35.65.58,1.4.68,2.24Z"/>
  </g>
  <path class="cls-1" d="m153.11,36.66l-6.95,17.55-3.71-1.47,5.55-14.03-.1-.04-5.02.93,1.3-3.29,5.43-1.03,3.49,1.38Z"/>
  <path class="cls-1" d="m161.64,44.26c-1.28-.51-2.33-1.18-3.15-2.02-.82-.84-1.37-1.76-1.63-2.77-.27-1.01-.2-2.02.18-3.05l3.74,1.48c-.15.44-.15.87-.02,1.29.13.43.38.81.74,1.16s.82.63,1.36.85c.57.22,1.1.32,1.62.29.51-.03.96-.17,1.35-.43s.67-.62.85-1.08c.19-.47.22-.94.1-1.4-.12-.46-.38-.9-.78-1.29-.4-.4-.93-.73-1.6-.99l-1.64-.65,1.08-2.72,1.64.65c.56.22,1.09.32,1.6.3.51-.02.95-.16,1.33-.41.38-.25.66-.61.84-1.07.17-.44.22-.87.15-1.29-.07-.42-.26-.79-.56-1.13-.3-.34-.7-.6-1.19-.8-.5-.2-1-.29-1.49-.28-.49.01-.92.14-1.31.37-.38.23-.67.57-.86,1.01l-3.55-1.41c.42-1,1.06-1.78,1.92-2.33.86-.55,1.86-.85,2.98-.92,1.12-.06,2.29.15,3.49.62,1.21.48,2.18,1.12,2.92,1.92.73.8,1.21,1.67,1.42,2.62.21.95.13,1.88-.24,2.8-.38.98-1.01,1.68-1.89,2.1-.88.41-1.84.52-2.89.3l-.05.14c1.22.68,2.03,1.51,2.42,2.51.39,1,.36,2.04-.07,3.13-.39,1-1.03,1.78-1.92,2.32-.89.55-1.93.84-3.12.89-1.19.04-2.45-.2-3.76-.71Z"/>
  <path class="cls-1" d="m145.63,64.98l1.16-2.92,11.89-8.64,2.52,1-1.6,4.04-1.49-.59-7.51,5.48-.05.14,10.41,4.12-1.18,2.97-14.15-5.6Zm7.2,6.42l1.57-3.98.58-1.27,4.86-12.28,3.48,1.38-6.95,17.55-3.55-1.4Z"/>
  <path class="cls-1" d="m181.38,56.07l-1.15,2.9-8-3.17,1.15-2.9,8,3.17Z"/>
  <path class="cls-1" d="m191.78,56.1l12.97-11.52.05-.12-8.47-3.35,1.2-3.03,12.31,4.87-1.22,3.08-13.01,11.59-3.83-1.52Z"/>
  <path class="cls-1" d="m184.56,84.48c-1.21-.48-2.2-1.13-2.97-1.95-.77-.82-1.27-1.73-1.52-2.73-.24-1-.18-2.01.2-3.03l3.6,1.42c-.23.7-.16,1.36.2,1.99.36.63.91,1.09,1.64,1.38.58.23,1.15.31,1.7.22.55-.08,1.05-.31,1.48-.67.44-.37.78-.85,1.02-1.46.24-.62.33-1.21.25-1.78-.08-.57-.29-1.08-.64-1.52-.35-.44-.82-.78-1.41-1.02-.51-.2-1.05-.29-1.62-.28-.57.02-1.06.16-1.47.42l-3.06-1.9,4.49-8.92,10.73,4.25-1.2,3.03-7.67-3.04-2.19,4.21.1.04c.48-.31,1.09-.49,1.82-.53s1.49.09,2.26.4c1.06.42,1.9,1.04,2.53,1.86.63.82,1.02,1.76,1.15,2.82.14,1.05-.02,2.14-.47,3.27-.46,1.18-1.15,2.13-2.06,2.82-.91.7-1.97,1.11-3.16,1.25-1.19.13-2.44-.06-3.74-.57Z"/>
  <path class="cls-1" d="m167.32,50.53l-1.15,2.9-12.06-4.78,1.15-2.9,12.06,4.77Z"/>
  <path class="cls-1" d="m199.89,63.43l-1.15,2.9-12.06-4.78,1.15-2.9,12.06,4.77Z"/>
  <g>
    <path class="cls-1" d="m-8.31,131.97l.64-3.07,11.93,2.5-.64,3.07-11.93-2.5Zm1.2-5.73l.64-3.07,11.93,2.5-.64,3.07-11.93-2.5Z"/>
    <path class="cls-1" d="m16.19,140.17c-.85-.18-1.57-.48-2.17-.92-.6-.44-1.03-.99-1.29-1.65-.26-.66-.3-1.43-.11-2.31.15-.74.42-1.33.79-1.77.38-.44.83-.77,1.36-.98.53-.21,1.11-.33,1.74-.36s1.28,0,1.95.07c.79.08,1.43.14,1.91.16.49.03.85,0,1.1-.11.24-.1.39-.29.45-.57v-.05c.13-.55.04-1.01-.24-1.38-.28-.37-.73-.62-1.36-.75-.66-.14-1.22-.1-1.67.1-.45.21-.79.52-1.01.93l-3.35-.99c.34-.77.83-1.4,1.46-1.88.63-.48,1.38-.8,2.25-.95.87-.15,1.84-.12,2.9.11.74.15,1.43.39,2.07.7s1.19.71,1.64,1.18c.45.47.77,1.03.96,1.66.19.63.2,1.34.03,2.13l-1.88,8.95-3.49-.73.39-1.84-.1-.02c-.3.37-.66.67-1.08.91-.42.24-.9.39-1.44.46-.54.07-1.13.04-1.79-.1Zm1.59-2.32c.54.11,1.04.11,1.5-.02.46-.13.85-.35,1.16-.67.31-.32.52-.71.62-1.18l.29-1.41c-.13.05-.3.08-.51.1-.21.02-.45.03-.7.02-.26,0-.51-.01-.77-.03-.26-.01-.49-.03-.69-.04-.45-.03-.84,0-1.19.06-.35.07-.64.2-.87.4-.23.2-.38.47-.45.81-.1.5,0,.92.31,1.26.31.34.75.57,1.31.69Z"/>
    <path class="cls-1" d="m26.64,142.1l3.71-17.69,3.68.77-1.4,6.65.11.02c.24-.32.55-.64.93-.94.39-.31.85-.53,1.4-.68.55-.15,1.2-.14,1.94.01.97.2,1.81.64,2.52,1.32.71.68,1.21,1.57,1.48,2.68s.26,2.43-.06,3.95c-.31,1.48-.81,2.68-1.5,3.59-.69.92-1.49,1.55-2.42,1.9-.92.35-1.89.42-2.9.21-.71-.15-1.3-.4-1.74-.74-.45-.34-.79-.72-1.04-1.15-.24-.43-.41-.84-.5-1.24l-.16-.03-.45,2.12-3.63-.76Zm4.99-5.88c-.17.79-.2,1.5-.1,2.13.1.63.32,1.16.66,1.57.35.41.82.68,1.41.8.6.13,1.14.07,1.62-.18.48-.24.9-.64,1.24-1.18.34-.54.59-1.2.75-1.97.16-.77.2-1.46.1-2.09-.09-.63-.31-1.15-.66-1.56s-.82-.69-1.43-.81c-.6-.12-1.14-.07-1.62.16-.48.23-.89.61-1.23,1.15-.34.54-.6,1.2-.76,1.99Z"/>
    <path class="cls-1" d="m49.51,141.12l.65-3.09,12.23,2.57-.65,3.09-12.23-2.57Zm3.61,5.53l2.57-12.23,3.09.65-2.57,12.23-3.09-.65Z"/>
    <path class="cls-1" d="m73.56,152.2c-.85-.18-1.57-.48-2.17-.92-.6-.44-1.03-.99-1.29-1.65-.26-.66-.3-1.43-.11-2.31.15-.74.42-1.33.79-1.77.38-.44.83-.77,1.36-.98.53-.21,1.11-.33,1.74-.36.63-.03,1.28,0,1.95.07.79.08,1.43.14,1.91.16.49.03.85,0,1.1-.11.24-.1.39-.29.45-.57v-.05c.13-.55.04-1.01-.24-1.38-.28-.37-.73-.62-1.36-.75-.66-.14-1.22-.1-1.67.1-.45.21-.79.52-1.01.93l-3.35-.99c.34-.77.83-1.4,1.46-1.88.63-.48,1.38-.8,2.25-.95.87-.15,1.84-.12,2.9.11.74.15,1.43.39,2.07.7s1.19.71,1.64,1.18c.45.47.77,1.03.96,1.66.19.63.2,1.34.03,2.13l-1.88,8.95-3.49-.73.39-1.84-.1-.02c-.3.37-.66.67-1.08.91-.42.24-.9.39-1.44.46-.54.07-1.13.04-1.79-.1Zm1.59-2.32c.54.11,1.04.11,1.5-.02.46-.13.85-.35,1.16-.67.31-.32.52-.71.62-1.18l.29-1.41c-.13.05-.3.08-.51.1-.21.02-.45.03-.7.02-.26,0-.51-.01-.77-.03-.26-.01-.49-.03-.69-.04-.45-.03-.84,0-1.19.06-.35.07-.64.2-.87.4-.23.2-.38.47-.45.81-.1.5,0,.92.31,1.26.31.34.75.57,1.31.69Z"/>
    <path class="cls-1" d="m89.89,155.64c-1.36-.29-2.47-.82-3.32-1.6-.85-.78-1.43-1.74-1.74-2.88-.31-1.14-.32-2.38-.03-3.72.29-1.36.8-2.5,1.54-3.41.74-.92,1.66-1.56,2.76-1.94,1.09-.37,2.31-.42,3.65-.14,1.16.24,2.13.67,2.91,1.27.78.6,1.34,1.34,1.69,2.2.35.87.44,1.82.28,2.85l-3.47-.73c.04-.68-.1-1.27-.44-1.76-.33-.49-.84-.81-1.51-.95-.57-.12-1.1-.07-1.59.15s-.91.6-1.27,1.14c-.36.54-.63,1.22-.8,2.06-.18.85-.21,1.59-.1,2.23.11.64.34,1.16.7,1.56.36.4.83.66,1.4.78.42.09.82.08,1.19-.02.37-.1.7-.29,1-.58.29-.28.52-.65.69-1.1l3.47.73c-.27,1-.73,1.83-1.39,2.5-.65.67-1.46,1.12-2.41,1.37-.96.25-2.02.25-3.2,0Z"/>
  </g>
  <polygon class="cls-1" points="116.45 26.47 121 24.39 113.36 7.69 108.81 9.77 111.57 15.81 13.59 61.2 10.64 54.75 6.09 56.83 13.73 73.53 18.28 71.45 15.68 65.76 113.65 20.37 116.45 26.47"/>
  <path class="cls-1" d="m189.62,173.18l-31.19-48.93h0l-1.77-2.78-2.39,2.57h0l-70.22,75.53-6.28,6.76,8.08-2.15h0s102.74-27.4,102.74-27.4l2.84-.76-1.81-2.83Zm-96.31,23.8l63.27-68.05h0s27.89,43.75,27.89,43.75l-91.16,24.31Z"/>
</svg>