<?xml version="1.0" encoding="UTF-8"?>
<svg id="Layer_1" data-name="Layer 1" xmlns="http://www.w3.org/2000/svg" viewBox="0 0 220 220">
  <defs>
    <style>
      .cls-1 {
        fill: #333;
      }

      .cls-2 {
        fill: none;
        stroke: #333;
        stroke-miterlimit: 10;
        stroke-width: 4px;
      }

      .cls-3 {
        fill: #191919;
      }

      .cls-4 {
        fill: #f2f2f2;
      }
    </style>
  </defs>
  <rect class="cls-3" width="220" height="220" rx="10" ry="10"/>
  <circle class="cls-2" cx="36.5" cy="197.5" r="59.5"/>
  <polygon class="cls-1" points="216.35 102.44 210.1 97.87 209.84 100.24 203.17 99.51 203.63 95.25 202.15 95.09 201.69 99.35 188.35 97.91 188.81 93.65 187.33 93.49 186.87 97.75 173.53 96.3 173.99 92.04 172.51 91.88 172.05 96.14 158.71 94.7 159.17 90.44 157.69 90.28 157.23 94.54 143.89 93.09 144.35 88.83 142.87 88.67 142.41 92.93 134.92 92.12 136.18 80.45 140.46 80.91 140.62 79.43 136.34 78.97 137.78 65.63 142.07 66.09 142.23 64.61 137.95 64.15 139.39 50.81 143.67 51.27 143.83 49.79 139.55 49.33 140.99 35.99 145.28 36.45 145.44 34.97 141.16 34.51 142.6 21.17 146.88 21.63 147.04 20.15 142.76 19.69 143.88 9.31 146.09 9.55 142.96 2.46 138.39 8.72 140.92 8.99 139.8 19.37 135.19 18.87 135.03 20.35 139.64 20.85 138.19 34.19 133.58 33.69 133.42 35.17 138.03 35.67 136.59 49.01 131.98 48.51 131.81 49.99 136.43 50.49 134.98 63.83 130.37 63.33 130.21 64.81 134.82 65.31 133.38 78.65 128.77 78.15 128.6 79.63 133.22 80.13 131.95 91.8 123.14 90.85 123.6 86.59 122.12 86.42 121.66 90.69 108.32 89.24 108.78 84.98 107.3 84.82 106.84 89.08 97.95 88.12 97.63 91.08 106.52 92.04 106.02 96.68 107.5 96.84 108 92.21 121.34 93.65 120.84 98.28 122.32 98.44 122.82 93.81 131.63 94.76 130.33 106.81 125.88 106.32 125.72 107.81 130.17 108.29 128.72 121.63 124.27 121.14 124.11 122.63 128.56 123.11 127.6 132 130.56 132.32 131.52 123.43 135.97 123.91 136.13 122.43 131.69 121.95 133.13 108.61 137.58 109.09 137.74 107.61 133.29 107.13 134.59 95.09 142.09 95.9 141.59 100.53 143.07 100.69 143.57 96.06 156.91 97.5 156.41 102.13 157.89 102.29 158.39 97.66 171.73 99.11 171.23 103.74 172.71 103.9 173.21 99.27 186.55 100.71 186.05 105.34 187.53 105.5 188.03 100.87 201.37 102.32 200.87 106.95 202.35 107.11 202.85 102.48 209.52 103.2 209.26 105.57 216.35 102.44"/>
  <g>
    <path class="cls-4" d="m70.94,115.64c-.75,0-1.47-.13-2.16-.38-.69-.25-1.31-.65-1.86-1.2-.55-.55-.98-1.29-1.3-2.2-.32-.91-.48-2.04-.48-3.37,0-1.22.15-2.31.42-3.28.28-.96.67-1.78,1.19-2.45s1.14-1.18,1.86-1.54c.72-.35,1.54-.53,2.44-.53.97,0,1.83.19,2.57.56.74.38,1.34.89,1.79,1.53s.73,1.37.82,2.17h-3.03c-.12-.51-.37-.9-.75-1.19-.38-.29-.85-.43-1.41-.43-.95,0-1.67.41-2.16,1.24-.49.82-.74,1.94-.75,3.36h.1c.22-.43.51-.8.88-1.1.37-.3.79-.54,1.27-.7.48-.16.98-.25,1.51-.25.86,0,1.63.2,2.3.61.67.41,1.2.96,1.59,1.67.39.71.58,1.51.58,2.42,0,.98-.23,1.86-.69,2.63-.46.77-1.09,1.37-1.91,1.8-.82.43-1.77.65-2.84.64Zm-.01-2.41c.47,0,.9-.11,1.27-.34.37-.23.67-.54.88-.92.21-.39.32-.82.32-1.31s-.11-.92-.32-1.3c-.21-.38-.5-.69-.87-.92s-.79-.34-1.26-.34c-.35,0-.68.07-.98.2-.3.13-.56.32-.79.55-.23.24-.4.51-.53.82-.13.31-.19.64-.19.99,0,.47.11.9.32,1.29.22.39.51.7.88.93.37.23.79.35,1.27.35Z"/>
    <path class="cls-4" d="m92.08,115.44l-4.67-6.2h-1.05v6.2h-3.08v-14.55h3.08v5.81h.62l4.83-5.81h3.83l-5.67,6.75,5.94,7.8h-3.81Z"/>
    <path class="cls-4" d="m96.65,115.44v-2.47l.41-.04c.53-.04.96-.24,1.29-.61.33-.36.57-.94.74-1.74s.27-1.87.32-3.22l.24-6.47h9.87v14.55h-2.99v-12.08h-4.03l-.23,5.06c-.08,1.63-.27,2.96-.58,3.99s-.8,1.79-1.48,2.29c-.67.49-1.6.74-2.77.74h-.8Z"/>
    <path class="cls-4" d="m114.55,115.44h-3.29l5.02-14.55h3.96l5.01,14.55h-3.29l-3.64-11.22h-.11l-3.65,11.22Zm-.21-5.72h7.78v2.4h-7.78v-2.4Z"/>
    <path class="cls-4" d="m139.83,105.99h-3.11c-.06-.4-.17-.76-.35-1.08-.18-.31-.4-.58-.67-.81-.27-.22-.59-.39-.95-.51s-.75-.18-1.16-.18c-.75,0-1.41.19-1.97.56s-.99.91-1.3,1.62c-.31.71-.46,1.57-.46,2.57s.15,1.91.46,2.61c.31.71.74,1.24,1.3,1.6.56.36,1.2.54,1.94.54.41,0,.79-.05,1.15-.16.35-.11.67-.27.94-.48s.5-.47.69-.77c.18-.3.31-.65.38-1.04h3.11c-.08.68-.28,1.32-.6,1.94s-.75,1.17-1.29,1.65c-.54.49-1.18.87-1.92,1.15-.74.28-1.58.42-2.51.42-1.3,0-2.46-.29-3.48-.88-1.02-.59-1.83-1.44-2.42-2.55-.59-1.11-.88-2.46-.88-4.04s.3-2.94.89-4.05,1.41-1.96,2.43-2.55c1.02-.58,2.17-.88,3.45-.88.84,0,1.62.12,2.35.35.72.24,1.36.58,1.92,1.03s1.01,1,1.37,1.66c.35.65.58,1.4.68,2.24Z"/>
    <path class="cls-4" d="m154.88,105.99h-3.11c-.06-.4-.17-.76-.35-1.08-.17-.31-.4-.58-.67-.81-.27-.22-.59-.39-.95-.51-.36-.12-.74-.18-1.16-.18-.75,0-1.41.19-1.97.56s-.99.91-1.3,1.62-.46,1.57-.46,2.57.16,1.91.47,2.61c.31.71.74,1.24,1.3,1.6.56.36,1.21.54,1.94.54.41,0,.79-.05,1.15-.16.35-.11.67-.27.94-.48s.5-.47.69-.77c.18-.3.31-.65.38-1.04h3.11c-.08.68-.28,1.32-.6,1.94-.32.62-.75,1.17-1.29,1.65-.54.49-1.18.87-1.92,1.15-.74.28-1.58.42-2.51.42-1.3,0-2.46-.29-3.48-.88-1.02-.59-1.83-1.44-2.42-2.55-.59-1.11-.88-2.46-.88-4.04s.3-2.94.9-4.05,1.41-1.96,2.43-2.55,2.17-.88,3.45-.88c.84,0,1.62.12,2.35.35.72.24,1.36.58,1.92,1.03.56.45,1.01,1,1.37,1.66.35.65.58,1.4.68,2.24Z"/>
  </g>
  <path class="cls-1" d="m20.86,29.64l4.42,14.42-3.05.94-3.54-11.53-.08.03-2.67,3.08-.83-2.7,2.88-3.36,2.87-.88Z"/>
  <path class="cls-1" d="m24.56,69.04l-.67-2.2,3.68-6.33c.31-.56.56-1.05.75-1.48s.32-.83.37-1.2c.06-.37.02-.75-.09-1.13-.13-.42-.34-.76-.62-1.01-.29-.25-.62-.41-1.01-.47-.38-.06-.79-.03-1.21.1-.44.13-.8.34-1.07.62-.27.28-.45.61-.52,1-.08.39-.04.81.1,1.27l-2.89.89c-.29-.94-.33-1.83-.11-2.65.21-.83.65-1.55,1.3-2.16.65-.62,1.48-1.08,2.49-1.39,1.03-.32,1.99-.41,2.87-.28.88.13,1.63.45,2.26.96.62.51,1.06,1.18,1.32,2.01.17.54.23,1.11.17,1.71-.05.6-.25,1.3-.6,2.11-.35.81-.88,1.82-1.59,3.03l-1.47,2.71.03.1,6.06-1.86.76,2.49-10.28,3.15Z"/>
  <path class="cls-1" d="m15.99,50.12l.73,2.38-6.58,2.02-.73-2.38,6.58-2.02Z"/>
  <path class="cls-1" d="m28.5,46.11l.73,2.38-9.91,3.04-.73-2.38,9.91-3.04Z"/>
  <g>
    <path class="cls-1" d="m35.55,40.07l3.15,3.17.88-4.41,3.08-.94-1.47,6.37,4.88,4.42-3.06.94-3.28-3.08-.95,4.38-3.1.95,1.55-6.39-4.76-4.46,3.1-.95Z"/>
    <path class="cls-1" d="m50.47,38.25l-.77-2.51,9.72-2.98.77,2.51-9.72,2.98Zm1.43,4.67l-.77-2.51,9.72-2.98.77,2.51-9.72,2.98Z"/>
    <path class="cls-1" d="m75.72,39.8c-1,.31-1.94.39-2.83.27-.89-.13-1.66-.44-2.31-.95s-1.12-1.17-1.39-1.99l2.96-.91c.2.55.58.93,1.12,1.14.54.21,1.12.23,1.72.04.48-.15.87-.38,1.17-.71.3-.33.5-.71.59-1.16.09-.45.06-.92-.09-1.42-.16-.51-.4-.92-.73-1.24-.33-.32-.72-.53-1.16-.63-.44-.1-.91-.08-1.39.06-.42.13-.81.34-1.15.64-.34.29-.58.63-.71.99l-2.86.35-1.65-7.82,8.82-2.7.76,2.49-6.3,1.93.74,3.73.08-.03c.14-.44.44-.85.88-1.24.44-.39.98-.68,1.61-.88.87-.27,1.71-.3,2.51-.1.81.2,1.51.6,2.13,1.19.61.59,1.06,1.35,1.34,2.27.3.97.34,1.9.12,2.79-.22.89-.67,1.68-1.35,2.36s-1.55,1.18-2.62,1.51Z"/>
    <path class="cls-1" d="m91.96,25.41l.73,2.38-6.58,2.02-.73-2.38,6.58-2.02Z"/>
    <path class="cls-1" d="m107.26,30.12c-.74.22-1.5.32-2.26.28-.76-.03-1.5-.24-2.21-.62-.71-.38-1.37-.98-1.96-1.79-.59-.81-1.09-1.87-1.5-3.19-.37-1.21-.56-2.34-.58-3.38s.13-1.97.44-2.8c.31-.82.77-1.52,1.38-2.09.61-.57,1.36-.99,2.25-1.27.96-.3,1.87-.37,2.72-.22.85.15,1.6.47,2.24.97.64.5,1.13,1.13,1.47,1.9l-3.01.92c-.27-.47-.64-.79-1.1-.96-.46-.17-.97-.17-1.53,0-.94.29-1.53.92-1.76,1.88-.24.97-.14,2.15.28,3.56l.1-.03c.08-.49.27-.95.54-1.36.28-.42.62-.78,1.05-1.08.42-.31.9-.54,1.42-.7.85-.26,1.68-.3,2.47-.1.79.2,1.48.59,2.08,1.17.6.58,1.04,1.32,1.31,2.22.3.98.34,1.92.12,2.81-.22.9-.67,1.69-1.35,2.37-.68.68-1.55,1.18-2.62,1.5Zm-.75-2.39c.47-.14.85-.39,1.16-.72.3-.34.5-.73.59-1.18.09-.45.07-.91-.08-1.39-.15-.48-.38-.88-.71-1.19-.33-.32-.71-.53-1.14-.64-.44-.11-.89-.1-1.36.05-.35.11-.66.27-.92.5-.26.22-.46.49-.61.79-.15.3-.24.63-.28.97-.03.35,0,.69.11,1.04.14.46.38.86.71,1.18.33.32.72.54,1.16.66.44.12.89.1,1.36-.04Z"/>
  </g>
  <g>
    <path class="cls-1" d="m128.49,163.06l-2.26,9.76-2.63-.61,2.26-9.76,2.63.61Zm6.68,1.55l-.46,1.99-10.87-2.52.46-2,10.87,2.52Zm-4.19-.97l2.61.6-1.55,6.7c-.06.26-.06.47-.02.63.04.16.13.29.28.38.14.09.32.16.55.21.15.03.29.06.42.08.13.02.25.03.35.05l-.46,1.99c-.24.02-.5.02-.78,0-.28-.01-.58-.06-.9-.13-.85-.2-1.48-.57-1.88-1.13s-.48-1.34-.25-2.36l1.63-7.02Z"/>
    <path class="cls-1" d="m140.4,173.13c.18-.8.45-1.44.79-1.9.35-.46.75-.77,1.23-.92.47-.15.98-.16,1.53-.04.43.1.79.27,1.1.5.3.23.63.57.97,1.01.22.29.42.5.59.65.17.14.36.24.56.28.32.08.6.01.84-.19.24-.2.4-.53.51-.99l2.07.48c-.17.78-.44,1.41-.79,1.88-.35.47-.77.79-1.25.95-.48.17-1,.19-1.56.06-.4-.09-.75-.26-1.07-.49-.32-.23-.67-.59-1.04-1.07-.23-.28-.41-.49-.54-.6-.13-.12-.3-.2-.5-.24-.32-.07-.6-.03-.83.15-.23.17-.4.49-.51.96l-2.08-.48Zm.96-4.14c.18-.81.45-1.44.79-1.9.35-.46.75-.76,1.23-.92.47-.15.98-.16,1.53-.04.43.1.79.27,1.1.5s.63.57.97,1.01c.22.29.42.5.59.65.17.14.36.24.56.28.32.08.6.01.84-.19.24-.2.4-.53.51-.99l2.07.48c-.17.78-.44,1.41-.79,1.88-.35.47-.77.79-1.25.95-.48.17-1,.19-1.56.06-.4-.09-.76-.26-1.07-.49-.32-.23-.67-.59-1.04-1.07-.23-.29-.41-.49-.54-.6-.13-.12-.3-.2-.5-.24-.32-.08-.6-.03-.83.15-.23.17-.4.49-.51.96l-2.08-.48Z"/>
    <path class="cls-1" d="m160.51,180.95c-.95-.22-1.75-.58-2.42-1.08-.66-.5-1.14-1.09-1.43-1.76-.29-.68-.36-1.4-.19-2.16l2.77.64c-.06.32-.02.62.12.91s.35.53.64.73c.29.21.64.36,1.04.45.42.1.81.11,1.16.04.36-.07.66-.22.9-.44.24-.22.41-.5.48-.85.08-.35.05-.68-.08-.99-.13-.31-.36-.59-.68-.82-.32-.24-.73-.41-1.22-.52l-1.21-.28.47-2.02,1.21.28c.42.1.8.11,1.15.04.35-.07.65-.21.88-.43.24-.21.4-.49.48-.84.08-.33.06-.63-.03-.92-.1-.28-.27-.53-.51-.73s-.55-.35-.92-.43c-.37-.09-.73-.1-1.07-.04-.34.06-.63.19-.88.4-.24.2-.41.47-.5.79l-2.64-.61c.19-.75.55-1.36,1.1-1.83.55-.48,1.21-.79,1.99-.95.78-.16,1.61-.14,2.5.07.9.21,1.64.55,2.24,1.04.6.48,1.02,1.04,1.27,1.68.25.64.29,1.3.12,1.99-.16.73-.53,1.29-1.1,1.67-.57.38-1.23.55-1.99.52l-.02.1c.93.34,1.58.84,1.96,1.5.38.66.47,1.39.28,2.2-.17.74-.53,1.35-1.1,1.83-.56.48-1.26.79-2.09.95-.83.16-1.73.12-2.71-.11Z"/>
    <path class="cls-1" d="m170.91,181.3l-.23.68c-.19.55-.42,1.08-.7,1.6-.28.52-.56.99-.83,1.4s-.49.74-.65.97l-1.75-.41c.12-.23.29-.56.5-.98.21-.42.43-.9.66-1.43.23-.53.42-1.08.58-1.65l.2-.7,2.24.52Z"/>
    <path class="cls-1" d="m181.63,171.95l-3.02,13.01-2.75-.64,2.41-10.4-.08-.02-3.41,1.18.57-2.44,3.69-1.29,2.59.6Z"/>
    <path class="cls-1" d="m182.04,183.34l.5-2.17,7.41-7.3,1.87.43-.7,3-1.11-.26-4.68,4.62-.02.1,7.72,1.79-.51,2.21-10.49-2.43Zm5.71,3.73l.68-2.95.27-.95,2.11-9.1,2.58.6-3.02,13.01-2.63-.61Z"/>
  </g>
  <rect class="cls-1" x="36" y="137" width="2" height="120"/>
  <rect class="cls-1" x="35.5" y="137.5" width="2" height="119" transform="translate(233.5 160.5) rotate(90)"/>
</svg>