<?xml version="1.0" encoding="UTF-8"?>
<svg id="Layer_1" data-name="Layer 1" xmlns="http://www.w3.org/2000/svg" viewBox="0 0 220 220">
  <defs>
    <style>
      .cls-1 {
        fill: #4d4d4d;
      }

      .cls-2 {
        fill: #c7c7c7;
      }

      .cls-3 {
        stroke-width: 2px;
      }

      .cls-3, .cls-4 {
        fill: none;
        stroke: #4d4d4d;
        stroke-miterlimit: 10;
      }

      .cls-5 {
        fill: #202020;
      }

      .cls-4 {
        stroke-width: 4px;
      }
    </style>
  </defs>
  <rect class="cls-5" width="220" height="220" rx="10" ry="10"/>
  <g>
    <path class="cls-1" d="m32.28,31.8c-.96.17-1.83.15-2.64-.07-.8-.22-1.47-.59-2.01-1.12-.53-.53-.88-1.19-1.03-1.97l3.07-.54c.11.48.37.83.79,1.06.42.23.88.3,1.39.21.4-.07.73-.22,1.01-.45.28-.23.47-.52.59-.87.12-.35.14-.73.06-1.14-.07-.42-.22-.78-.45-1.06-.23-.28-.52-.49-.86-.61-.34-.12-.71-.15-1.11-.08-.38.06-.73.21-1.03.44-.31.23-.53.51-.65.83l-2.89-.03-.67-7.16,8.4-1.48.45,2.55-5.8,1.02.24,3.14h.08c.15-.42.45-.78.89-1.1s.97-.54,1.59-.65c.79-.14,1.52-.08,2.2.18.68.26,1.25.68,1.72,1.26.47.58.78,1.29.92,2.12.16.9.09,1.73-.22,2.5s-.8,1.42-1.49,1.95c-.69.53-1.55.88-2.57,1.06Z"/>
    <path class="cls-1" d="m40.02,20.12l2.19,2.95,1.11-3.53,3.15-.55-1.88,5.4,3.71,4.41-3.13.55-2.38-2.95-1.19,3.57-3.17.56,1.99-5.41-3.58-4.44,3.17-.56Z"/>
  </g>
  <path class="cls-1" d="m36.34,52.41l-.4-2.28,4.04-5.02c.3-.39.55-.74.76-1.05.2-.31.35-.62.43-.92.08-.3.1-.61.04-.93-.06-.36-.2-.66-.4-.89-.2-.23-.46-.39-.76-.48-.3-.09-.63-.11-.99-.04-.36.06-.67.19-.91.39-.25.2-.42.44-.52.75-.1.31-.12.66-.05,1.05l-3,.53c-.16-.89-.09-1.7.2-2.41.29-.72.76-1.32,1.43-1.8.67-.48,1.48-.81,2.44-.97.99-.17,1.89-.16,2.68.04.79.2,1.44.57,1.95,1.09.51.52.83,1.18.97,1.96.09.5.08,1.01-.04,1.54-.11.52-.38,1.13-.79,1.81-.41.68-1.02,1.52-1.83,2.52l-1.31,1.72v.08s5.32-.93,5.32-.93l.45,2.55-9.7,1.7Z"/>
  <path class="cls-1" d="m46.92,31.73l.42,2.41-18.01,3.17-.42-2.41,18.01-3.17Z"/>
  <path class="cls-1" d="m54.07,33.07l-.45-2.58,9.26-1.63.45,2.58-9.26,1.63Zm3.93,2.75l-1.63-9.26,2.58-.45,1.63,9.26-2.58.45Z"/>
  <path class="cls-1" d="m75.49,23.99c-.38.07-.73.1-1.08.1-.34,0-.64-.02-.9-.08l.29-2.39c.32.05.61.06.87.03.25-.03.46-.1.63-.23.16-.13.27-.32.33-.58l.07-.32-5.28-9.57,3.27-.58,3.04,6.69.1-.02.6-7.33,3.29-.58-1.81,11.42c-.08.57-.25,1.09-.51,1.56-.25.47-.62.87-1.09,1.19-.47.32-1.08.55-1.83.68Z"/>
  <path class="cls-1" d="m87.41,24.62l.42,2.41-18.01,3.17-.42-2.41,18.01-3.17Z"/>
  <path class="cls-1" d="m81.65,44.26c-.96.17-1.83.15-2.64-.07-.8-.22-1.47-.59-2.01-1.12-.53-.53-.88-1.19-1.04-1.97l3.07-.54c.11.48.37.83.79,1.06.42.23.88.3,1.39.21.4-.07.73-.22,1.01-.45.28-.23.47-.52.59-.87.12-.35.14-.73.06-1.14-.07-.42-.22-.78-.45-1.06-.23-.28-.52-.49-.86-.61-.34-.12-.71-.15-1.11-.08-.38.06-.72.21-1.03.44-.31.23-.53.51-.65.83l-2.89-.03-.67-7.16,8.4-1.48.45,2.55-5.8,1.02.24,3.14h.08c.15-.41.45-.78.89-1.1.44-.32.97-.54,1.59-.64.79-.14,1.52-.08,2.2.18.68.26,1.26.68,1.72,1.26.47.58.78,1.29.92,2.12.16.9.09,1.73-.22,2.5-.3.77-.8,1.42-1.49,1.95-.69.53-1.55.88-2.57,1.06Z"/>
  <g>
    <path class="cls-1" d="m97.06,25.51l-.45-2.58,9.26-1.63.45,2.58-9.26,1.63Zm3.93,2.75l-1.63-9.26,2.58-.45,1.63,9.26-2.58.45Z"/>
    <path class="cls-1" d="m114.37,24.34l-.43-2.47,3.88-9.4,2.19-.39.59,3.35-1.27.22-2.27,5.53.02.1,7.77-1.37.44,2.5-10.92,1.92Zm6.71,1.06l-.51-2.93-.13-1.09-1.6-9.09,2.96-.52,2.3,13.1-3.03.53Z"/>
    <path class="cls-1" d="m130.54,16.05l-.45-2.57,9.15-1.61.45,2.57-9.15,1.61Zm.77,4.4l-.45-2.57,9.15-1.61.45,2.57-9.15,1.61Z"/>
    <path class="cls-1" d="m152.92,20.14c-1.14.2-2.18.1-3.1-.3s-1.7-1.07-2.33-2.01c-.63-.94-1.06-2.13-1.31-3.57-.25-1.44-.24-2.7.03-3.78.27-1.08.77-1.96,1.5-2.63.73-.67,1.67-1.11,2.81-1.31,1.14-.2,2.17-.11,3.1.27.92.38,1.7,1.03,2.32,1.96.62.93,1.06,2.11,1.31,3.54.25,1.44.25,2.71-.02,3.82-.27,1.1-.77,2-1.5,2.68-.73.68-1.67,1.13-2.82,1.33Zm-.46-2.59c.68-.12,1.17-.56,1.47-1.34.3-.77.32-1.88.06-3.33-.17-.95-.4-1.71-.7-2.29-.3-.58-.65-.99-1.04-1.24-.39-.24-.82-.32-1.28-.24-.68.12-1.17.56-1.46,1.31-.3.76-.32,1.85-.08,3.26.16.96.4,1.74.7,2.34.3.6.65,1.02,1.05,1.27.4.25.83.33,1.28.25Z"/>
  </g>
  <g>
    <path class="cls-1" d="m54.95,76.96l.42,2.41-18.01,3.17-.42-2.41,18.01-3.17Z"/>
    <path class="cls-1" d="m60.82,78.52l-.45-2.58,9.26-1.63.45,2.58-9.26,1.63Zm3.93,2.75l-1.63-9.26,2.58-.45,1.63,9.26-2.58.45Z"/>
    <path class="cls-1" d="m93.08,70.26l.42,2.41-18.01,3.17-.42-2.41,18.01-3.17Z"/>
    <path class="cls-1" d="m98.62,69.61l-.45-2.57,9.15-1.61.45,2.57-9.15,1.61Zm.77,4.4l-.45-2.56,9.15-1.61.45,2.56-9.15,1.61Z"/>
    <path class="cls-1" d="m131.21,63.56l.42,2.41-18.01,3.17-.42-2.41,18.01-3.17Z"/>
  </g>
  <path class="cls-1" d="m41.73,65.64l2.19,2.95,1.11-3.53,3.15-.55-1.88,5.4,3.71,4.41-3.13.55-2.38-2.95-1.19,3.57-3.17.56,1.99-5.41-3.58-4.44,3.17-.56Z"/>
  <path class="cls-1" d="m81.6,69.72c-.38.07-.73.1-1.08.1-.34,0-.64-.02-.9-.08l.29-2.39c.32.05.61.06.87.03.25-.03.46-.1.63-.23.16-.13.27-.32.33-.58l.07-.31-5.28-9.57,3.27-.58,3.04,6.69.1-.02.6-7.33,3.29-.58-1.81,11.42c-.08.57-.25,1.09-.51,1.56-.25.47-.62.87-1.09,1.19-.47.32-1.08.55-1.83.68Z"/>
  <path class="cls-1" d="m122.11,49.26l2.3,13.1-3.16.56-1.78-10.14h-.08s-2.61,2.32-2.61,2.32l-.48-2.74,2.88-2.58,2.94-.52Z"/>
  <path class="cls-1" d="m48.76,96.5c-1,.18-1.91.16-2.74-.05-.83-.21-1.52-.58-2.07-1.1-.55-.53-.9-1.19-1.05-1.97l3.19-.56c.06.28.2.52.41.71.21.19.47.32.79.39.32.07.66.08,1.04,0,.38-.07.69-.19.96-.38.26-.18.46-.41.58-.67.12-.26.15-.55.09-.86-.05-.31-.19-.57-.41-.77-.22-.21-.51-.35-.86-.42-.35-.07-.75-.07-1.19,0l-1.27.22-.4-2.25,1.27-.22c.39-.07.72-.19.99-.37.27-.18.47-.4.6-.66.13-.26.16-.54.1-.85-.05-.3-.16-.54-.34-.74-.18-.2-.41-.34-.69-.42-.28-.08-.58-.09-.91-.03-.35.06-.66.18-.92.35-.26.17-.46.39-.58.64-.13.26-.17.53-.12.83l-3.03.53c-.13-.78-.03-1.51.29-2.18.32-.67.82-1.24,1.5-1.7.68-.47,1.49-.78,2.43-.95.94-.16,1.79-.15,2.56.06.77.2,1.4.55,1.9,1.05.5.49.81,1.1.93,1.81.13.74,0,1.39-.4,1.95-.4.56-.97.97-1.71,1.21l.02.1c1.04-.06,1.86.13,2.47.58.61.45.99,1.07,1.12,1.88.13.76.03,1.47-.31,2.13-.34.66-.88,1.23-1.61,1.71-.73.47-1.61.8-2.63.98Z"/>
  <path class="cls-1" d="m125.66,83.42c-.72.13-1.42.13-2.12.01-.7-.12-1.35-.39-1.95-.8-.6-.42-1.12-1.02-1.56-1.8-.44-.78-.76-1.76-.97-2.96-.19-1.08-.22-2.07-.12-2.98.11-.91.35-1.7.73-2.39.38-.69.88-1.25,1.5-1.68.62-.44,1.35-.73,2.18-.88.92-.16,1.76-.12,2.52.11.76.23,1.41.61,1.94,1.14.53.53.89,1.15,1.1,1.87l-3.11.55c-.17-.4-.43-.68-.78-.83-.35-.16-.75-.2-1.18-.12-.8.14-1.34.59-1.61,1.36-.27.76-.31,1.73-.11,2.9h.08c.11-.44.31-.82.6-1.16.29-.34.64-.62,1.05-.85.41-.23.86-.39,1.35-.47.79-.14,1.51-.08,2.17.18.67.26,1.22.67,1.67,1.24s.75,1.26.88,2.07c.16.91.09,1.75-.22,2.53-.31.77-.81,1.42-1.5,1.94-.69.52-1.54.87-2.54,1.05Zm-.45-2.43c.39-.07.72-.22.99-.46.28-.24.47-.53.59-.88.12-.35.14-.72.07-1.11-.07-.4-.21-.74-.44-1.02-.23-.28-.51-.49-.85-.62-.34-.13-.7-.16-1.09-.09-.29.05-.54.15-.77.3-.23.15-.42.34-.56.56s-.25.47-.31.74-.06.55-.02.85c.07.39.22.72.45,1.01.23.29.51.49.85.63s.7.16,1.08.1Z"/>
  <path class="cls-1" d="m87.91,90.27c-.72.13-1.42.13-2.12.01-.7-.12-1.35-.39-1.95-.8-.6-.42-1.12-1.02-1.56-1.8-.44-.78-.76-1.76-.97-2.96-.19-1.08-.22-2.07-.11-2.98.11-.91.35-1.7.73-2.39.38-.69.88-1.25,1.5-1.69.62-.44,1.35-.73,2.18-.88.92-.16,1.76-.12,2.52.11.76.23,1.41.61,1.94,1.14s.89,1.15,1.1,1.87l-3.11.55c-.17-.4-.43-.68-.78-.83-.35-.16-.75-.2-1.19-.12-.8.14-1.34.59-1.61,1.36-.27.76-.31,1.73-.11,2.89h.08c.11-.44.31-.82.6-1.16.29-.34.64-.62,1.05-.85.41-.23.86-.39,1.35-.47.78-.14,1.51-.08,2.17.18.66.26,1.22.67,1.67,1.24.45.57.75,1.26.88,2.07.16.91.09,1.75-.21,2.53-.31.77-.81,1.42-1.5,1.94-.69.52-1.54.87-2.54,1.05Zm-.45-2.43c.39-.07.72-.22.99-.46.27-.24.47-.53.59-.88.12-.35.14-.72.07-1.11-.07-.4-.21-.74-.44-1.02-.23-.28-.51-.49-.85-.62-.34-.13-.7-.16-1.09-.09-.29.05-.54.15-.77.3-.23.15-.42.34-.56.56-.15.22-.25.47-.31.74-.06.27-.06.55-.02.85.07.39.22.72.45,1.01.23.29.51.49.85.63.33.13.7.16,1.08.1Z"/>
  <path class="cls-1" d="m5.51,64.26l-.48-2.72c3.69-.67,6.09-1.82,7.22-3.46,1.13-1.63,1.37-4.27.73-7.92l-2.6-14.77c-.45-2.57-.59-4.84-.41-6.8.18-1.97.7-3.67,1.56-5.1.86-1.43,2.09-2.6,3.69-3.5,1.6-.9,3.6-1.57,5.99-1.99l.61,3.5c-2.33.39-4.15,1.11-5.44,2.17-1.29,1.06-2.12,2.5-2.48,4.33s-.3,4.07.17,6.75l2.75,15.64c.35,1.99.44,3.74.27,5.26-.17,1.52-.66,2.84-1.49,3.95-.83,1.11-2.06,2.05-3.71,2.82-1.65.77-3.77,1.38-6.39,1.84Zm.22,1.23l-.69-3.95,7.22-1.27.69,3.95-7.22,1.27Zm30.06,35.41c-2.4.42-4.5.48-6.31.17-1.81-.3-3.37-.98-4.66-2.03-1.3-1.05-2.37-2.47-3.2-4.26-.84-1.79-1.48-3.97-1.93-6.54l-2.6-14.77c-.64-3.65-1.77-6.05-3.38-7.2-1.62-1.15-4.27-1.41-7.97-.79l-.48-2.72c2.62-.44,4.83-.58,6.64-.42,1.81.16,3.29.62,4.45,1.37,1.16.75,2.07,1.82,2.75,3.19.68,1.37,1.19,3.05,1.54,5.04l2.75,15.64c.47,2.68,1.19,4.81,2.14,6.4.96,1.59,2.22,2.66,3.8,3.21,1.58.55,3.53.61,5.86.2l.61,3.5Z"/>
  <circle class="cls-4" cx="154.25" cy="164.5" r="66.75"/>
  <polygon class="cls-4" points="205.48 129.51 121.7 218.12 99.14 134.34 205.48 129.51"/>
  <rect class="cls-1" x="124.51" y="122.59" width="4.26" height="72.12" transform="translate(-75.68 142.08) rotate(-46.72)"/>
  <rect class="cls-3" x="149.59" y="173.81" width="7.76" height="7.76" transform="translate(-81.24 171.44) rotate(-47.66)"/>
  <g>
    <path class="cls-2" d="m66.59,115.44l6.03-11.93v-.1h-7.02v-2.51h10.21v2.55l-6.04,12h-3.17Z"/>
    <path class="cls-2" d="m91.43,115.44l-4.67-6.2h-1.05v6.2h-3.08v-14.55h3.08v5.81h.62l4.83-5.81h3.83l-5.67,6.75,5.94,7.8h-3.81Z"/>
    <path class="cls-2" d="m96,115.44v-2.47l.41-.04c.53-.04.96-.25,1.29-.61.33-.36.57-.94.74-1.74s.27-1.87.32-3.22l.24-6.47h9.87v14.55h-2.99v-12.08h-4.03l-.23,5.06c-.08,1.63-.27,2.96-.58,3.99s-.8,1.79-1.48,2.29c-.67.49-1.6.74-2.77.74h-.8Z"/>
    <path class="cls-2" d="m113.9,115.44h-3.29l5.02-14.55h3.96l5.01,14.55h-3.3l-3.64-11.22h-.11l-3.65,11.22Zm-.21-5.72h7.78v2.4h-7.78v-2.4Z"/>
    <path class="cls-2" d="m139.18,105.99h-3.11c-.06-.4-.17-.76-.35-1.08-.18-.31-.4-.58-.67-.81-.28-.22-.59-.39-.95-.51-.36-.12-.75-.18-1.16-.18-.75,0-1.41.19-1.97.56-.56.37-.99.91-1.3,1.62-.31.71-.46,1.57-.46,2.57s.16,1.91.47,2.61c.31.71.74,1.24,1.3,1.6.56.36,1.21.54,1.94.54.41,0,.79-.05,1.15-.16.35-.11.67-.27.94-.48.27-.21.5-.47.69-.77.18-.3.31-.65.38-1.04h3.11c-.08.68-.28,1.32-.6,1.94s-.75,1.17-1.29,1.66c-.54.49-1.18.87-1.92,1.15s-1.58.42-2.51.42c-1.3,0-2.46-.29-3.48-.88s-1.83-1.44-2.42-2.55c-.59-1.11-.88-2.46-.88-4.04s.3-2.94.89-4.05c.6-1.11,1.41-1.96,2.43-2.55,1.02-.58,2.17-.88,3.45-.88.84,0,1.62.12,2.35.35.72.24,1.36.58,1.92,1.03s1.01,1,1.37,1.66c.35.65.58,1.4.68,2.24Z"/>
    <path class="cls-2" d="m154.22,105.99h-3.11c-.06-.4-.17-.76-.35-1.08-.18-.31-.4-.58-.67-.81-.28-.22-.59-.39-.95-.51-.36-.12-.75-.18-1.16-.18-.75,0-1.41.19-1.97.56-.56.37-.99.91-1.3,1.62-.31.71-.46,1.57-.46,2.57s.16,1.91.47,2.61c.31.71.74,1.24,1.3,1.6.56.36,1.21.54,1.94.54.41,0,.79-.05,1.15-.16.35-.11.67-.27.94-.48.27-.21.5-.47.69-.77.18-.3.31-.65.38-1.04h3.11c-.08.68-.28,1.32-.6,1.94s-.75,1.17-1.29,1.66c-.54.49-1.18.87-1.92,1.15s-1.58.42-2.51.42c-1.3,0-2.46-.29-3.48-.88s-1.83-1.44-2.42-2.55c-.59-1.11-.88-2.46-.88-4.04s.3-2.94.89-4.05c.6-1.11,1.41-1.96,2.43-2.55,1.02-.58,2.17-.88,3.45-.88.84,0,1.62.12,2.35.35.72.24,1.36.58,1.92,1.03s1.01,1,1.37,1.66c.35.65.58,1.4.68,2.24Z"/>
  </g>
</svg>