<?xml version="1.0" encoding="UTF-8"?>
<svg id="Layer_1" data-name="Layer 1" xmlns="http://www.w3.org/2000/svg" viewBox="0 0 220 220">
  <defs>
    <style>
      .cls-1 {
        fill: #4d4d4d;
      }

      .cls-2 {
        fill: #c7c7c7;
      }

      .cls-3 {
        stroke-width: 2px;
      }

      .cls-3, .cls-4 {
        fill: none;
        stroke: #4d4d4d;
        stroke-miterlimit: 10;
      }

      .cls-5 {
        fill: #202020;
      }

      .cls-4 {
        stroke-width: 3px;
      }
    </style>
  </defs>
  <rect class="cls-5" width="220" height="220" rx="10" ry="10"/>
  <path class="cls-1" d="m58.31,155.48s-.12-.03,0,0l-.52,2.56c-12.55-2.56-5.12-1.04-18.57-3.32-.43.78-.85,1.55-1.27,2.32-.85,1.55-1.7,3.1-2.54,4.65-.57,1.05-1.13,2.1-1.7,3.14-.84,1.54-1.69,3.08-2.53,4.62-.7,1.29-1.41,2.58-2.11,3.87-.37.69-.74,1.38-1.11,2.07-.59,1.08-1.18,2.15-1.76,3.23-.08.14-.14.19-.31.15-.84-.18-1.68-.35-2.52-.52-.13-.03-.2-.05-.23-.23-.13-1.03-.29-2.05-.44-3.07-.29-1.96-.57-3.92-.85-5.88-.23-1.57-.45-3.15-.66-4.73-.02-.14-.09-.18-.22-.21-.9-.18-1.81-.37-2.71-.55l-.27-.06.58-2.87.37.08c1.58.32,3.15.65,4.73.96.2.04.28.11.31.31.09.7.19,1.39.28,2.09.21,1.57.41,3.14.61,4.71.19,1.49.39,2.98.59,4.47,0,.05.04.11.08.2.66-1.23,1.3-2.43,1.95-3.62.72-1.34,1.45-2.68,2.18-4.01.71-1.31,1.42-2.63,2.13-3.94.8-1.48,1.61-2.97,2.41-4.45.68-1.26,1.36-2.53,2.04-3.79.36-.67.73-1.33,1.07-2,.1-.19.19-.22.39-.18"/>
  <g>
    <path class="cls-1" d="m41.71,178.64c-.89-.18-1.65-.5-2.29-.95-.63-.45-1.09-1.03-1.37-1.73-.28-.7-.32-1.5-.14-2.43.16-.78.43-1.4.82-1.87.39-.47.87-.81,1.42-1.04.56-.22,1.16-.35,1.82-.39.66-.04,1.34-.02,2.05.06.83.08,1.5.13,2.01.16.51.03.9-.01,1.15-.12.25-.11.41-.31.47-.6v-.05c.13-.58.04-1.06-.26-1.45-.3-.39-.77-.65-1.43-.78-.7-.14-1.28-.1-1.76.12-.47.22-.83.55-1.05.98l-3.52-1.02c.35-.81.86-1.47,1.52-1.99.66-.51,1.45-.85,2.36-1.01.91-.16,1.93-.13,3.04.09.78.16,1.5.4,2.17.73.67.33,1.25.74,1.73,1.23s.81,1.07,1.01,1.73c.2.66.21,1.41.05,2.24l-1.92,9.41-3.67-.75.39-1.93-.11-.02c-.31.39-.69.71-1.13.97-.44.25-.95.42-1.51.5-.56.08-1.19.05-1.88-.09Zm1.65-2.45c.57.12,1.1.1,1.58-.03.48-.14.89-.38,1.21-.71.33-.34.54-.75.64-1.24l.3-1.48c-.14.05-.32.09-.54.11-.22.02-.47.03-.74.03-.27,0-.54,0-.81-.02-.27-.01-.51-.03-.73-.04-.47-.03-.89,0-1.25.08-.37.08-.67.22-.91.42-.24.21-.39.49-.47.86-.11.53,0,.97.33,1.32.33.35.79.59,1.38.71Z"/>
    <path class="cls-1" d="m92.15,188.91c-.89-.18-1.65-.5-2.28-.95-.63-.45-1.09-1.03-1.37-1.72-.28-.7-.32-1.51-.13-2.43.16-.77.43-1.4.82-1.87.39-.47.87-.82,1.42-1.04.56-.22,1.16-.35,1.82-.38.66-.04,1.34-.02,2.05.06.83.08,1.5.13,2.01.16.51.03.89-.02,1.15-.12.25-.11.41-.31.47-.6v-.05c.13-.58.04-1.06-.26-1.45-.3-.39-.77-.65-1.44-.78-.7-.14-1.28-.1-1.76.12-.47.22-.82.55-1.05.98l-3.52-1.02c.35-.81.86-1.47,1.52-1.99.66-.51,1.45-.85,2.36-1.01.91-.16,1.93-.13,3.04.09.77.16,1.5.4,2.18.73.67.33,1.25.74,1.73,1.23.48.49.81,1.07,1.01,1.73.2.66.21,1.41.04,2.24l-1.92,9.41-3.67-.75.39-1.93-.11-.02c-.31.39-.69.71-1.13.97-.44.25-.95.42-1.51.5-.56.08-1.19.05-1.88-.09Zm1.65-2.45c.57.12,1.09.1,1.58-.03.48-.14.89-.38,1.22-.71.33-.34.54-.75.64-1.24l.3-1.48c-.14.05-.32.09-.54.11-.22.02-.47.03-.74.03-.27,0-.54,0-.81-.02-.27-.01-.51-.03-.73-.04-.47-.03-.88,0-1.25.08-.37.08-.67.22-.91.43-.24.21-.39.49-.47.86-.11.53,0,.97.33,1.32.33.35.79.59,1.38.71Z"/>
  </g>
  <path class="cls-1" d="m59.12,179.24l.66-3.23,12.55,2.55-.66,3.23-12.55-2.55Zm1.23-6.03l.66-3.22,12.55,2.55-.66,3.22-12.55-2.55Z"/>
  <rect class="cls-1" x="81.5" y="164.76" width="2.61" height="28.72" transform="translate(37.4 -12.92) rotate(11.51)"/>
  <rect class="cls-1" x="107.08" y="169.97" width="2.61" height="28.72" transform="translate(38.96 -17.92) rotate(11.51)"/>
  <g>
    <path class="cls-1" d="m33.94,90.87c-.68.15-1.31.17-1.9.05-.58-.12-1.08-.38-1.5-.78-.41-.4-.7-.95-.85-1.65-.13-.59-.13-1.11,0-1.56.13-.45.35-.84.67-1.17.32-.33.7-.61,1.16-.84.45-.23.93-.43,1.45-.6.61-.2,1.09-.38,1.46-.52.37-.14.62-.29.77-.44.14-.15.19-.34.14-.57v-.04c-.11-.44-.32-.75-.65-.93-.33-.18-.75-.21-1.25-.1-.53.12-.93.33-1.19.63-.26.3-.41.64-.43,1.02l-2.78.39c0-.68.14-1.3.44-1.86.3-.56.75-1.05,1.33-1.45s1.31-.7,2.16-.89c.59-.13,1.17-.19,1.75-.17.57.02,1.1.12,1.59.32s.91.5,1.25.9c.35.4.59.92.73,1.55l1.6,7.18-2.8.62-.33-1.48-.08.02c-.1.37-.26.71-.49,1.03-.23.32-.53.59-.9.82-.37.23-.82.41-1.35.52Zm.39-2.23c.43-.1.8-.27,1.09-.52.29-.25.5-.54.63-.88.12-.34.14-.69.06-1.07l-.25-1.13c-.08.08-.19.16-.34.25-.15.08-.32.17-.51.25-.19.08-.38.16-.57.24-.19.07-.37.14-.52.2-.33.13-.62.28-.85.44-.23.17-.4.36-.5.58-.1.22-.12.47-.06.74.09.4.3.68.65.82.34.15.74.17,1.19.06Z"/>
    <path class="cls-1" d="m46.27,83.25l-.55-2.48,9.82-2.19.55,2.48-9.81,2.19Zm4.49,2.85l-2.19-9.82,2.48-.55,2.19,9.82-2.48.55Z"/>
    <path class="cls-1" d="m64.56,83.83l-3.17-14.2,2.95-.66,1.19,5.34.09-.02c.06-.31.19-.65.37-1,.18-.35.45-.68.8-.97.36-.29.83-.5,1.43-.63.78-.17,1.54-.13,2.29.13.75.26,1.41.75,1.98,1.47.57.72,1,1.7,1.27,2.92.27,1.19.3,2.23.1,3.13-.2.9-.58,1.63-1.14,2.2-.56.56-1.25.94-2.05,1.12-.57.13-1.08.14-1.52.04-.44-.1-.82-.27-1.14-.5-.32-.23-.58-.48-.78-.75l-.13.03.38,1.71-2.91.65Zm1.7-5.97c.14.63.35,1.17.63,1.6.28.43.62.74,1.01.93.39.19.82.23,1.3.12.48-.11.86-.33,1.13-.67.27-.34.44-.77.51-1.28.07-.51.03-1.08-.11-1.7-.14-.61-.34-1.14-.62-1.56-.28-.43-.61-.74-1-.93-.39-.19-.83-.23-1.31-.12-.48.11-.86.33-1.13.65s-.45.74-.52,1.25c-.07.51-.04,1.08.1,1.71Z"/>
    <path class="cls-1" d="m80.59,73.16l-.55-2.46,9.57-2.14.55,2.46-9.57,2.14Zm1.03,4.6l-.55-2.46,9.57-2.14.55,2.46-9.57,2.14Z"/>
    <path class="cls-1" d="m104.08,75.22c-1.09.24-2.08.22-2.97-.07-.89-.29-1.63-.8-2.23-1.54s-1.02-1.64-1.26-2.72c-.24-1.09-.25-2.1,0-3.01.24-.92.7-1.7,1.37-2.34.68-.64,1.55-1.08,2.63-1.32.93-.21,1.78-.22,2.55-.04.77.18,1.43.53,1.97,1.05.54.52.93,1.19,1.15,2l-2.79.62c-.2-.51-.5-.9-.91-1.15-.41-.25-.88-.32-1.42-.2-.46.1-.83.31-1.11.64-.29.32-.47.74-.55,1.25s-.05,1.11.1,1.78c.15.68.37,1.24.67,1.67.29.43.64.74,1.04.91s.83.21,1.28.11c.34-.08.63-.21.87-.41.24-.2.42-.45.54-.76.12-.31.16-.65.14-1.04l2.79-.62c.14.82.07,1.59-.18,2.29-.26.7-.69,1.31-1.31,1.81-.62.5-1.4.86-2.34,1.07Z"/>
  </g>
  <path class="cls-1" d="m38.71,77.43l-.19-.86,1.46-1.99c.11-.15.2-.29.27-.42.07-.12.12-.24.15-.36.03-.12.03-.23,0-.36-.03-.14-.09-.25-.17-.33-.08-.08-.18-.14-.3-.17-.12-.03-.24-.03-.38,0-.14.03-.25.09-.34.16s-.15.18-.19.3c-.03.12-.03.25,0,.4l-1.14.25c-.08-.34-.06-.65.03-.93.1-.28.27-.52.51-.71s.55-.33.92-.42c.38-.08.72-.09,1.02-.03.31.06.56.19.76.38.2.19.34.44.4.73.04.19.05.39.01.59-.03.2-.12.44-.27.71-.15.27-.36.6-.66.99l-.47.68v.03s2.02-.45,2.02-.45l.22.97-3.68.82Z"/>
  <path class="cls-1" d="m71.89,70.02l-.19-.86,1.46-1.99c.11-.15.2-.29.27-.42.07-.12.12-.24.15-.36.03-.12.03-.24,0-.36-.03-.14-.09-.25-.17-.33-.08-.08-.18-.14-.3-.17-.12-.03-.24-.03-.38,0-.14.03-.25.09-.34.17-.09.08-.15.18-.19.3-.03.12-.03.25,0,.4l-1.14.25c-.08-.34-.06-.65.03-.93.1-.28.27-.52.51-.71s.55-.33.92-.42c.38-.08.72-.09,1.02-.03.31.06.56.19.76.38.2.19.34.44.4.73.04.19.05.38.01.59s-.12.44-.27.71c-.15.27-.36.6-.66,1l-.47.68v.03s2.02-.45,2.02-.45l.22.97-3.68.82Z"/>
  <path class="cls-1" d="m108,61.96l-.19-.86,1.46-1.99c.11-.15.2-.29.27-.42.07-.12.12-.24.15-.36.03-.12.03-.23,0-.36-.03-.14-.09-.25-.17-.33-.08-.08-.18-.14-.3-.17-.12-.03-.24-.03-.38,0-.14.03-.25.09-.34.16s-.15.18-.19.3c-.03.12-.03.25,0,.4l-1.14.25c-.08-.34-.06-.65.03-.93.1-.28.27-.52.51-.71s.55-.33.92-.42c.38-.08.72-.09,1.02-.03.31.06.56.19.76.38.2.19.34.44.4.73.04.19.05.39.01.59-.03.2-.12.44-.27.71-.15.27-.36.6-.66.99l-.47.68v.03s2.02-.45,2.02-.45l.22.97-3.68.82Z"/>
  <polygon class="cls-4" points="15.52 24.33 26.56 71.33 100.21 54.89 15.52 24.33"/>
  <rect class="cls-3" x="26.33" y="63.44" width="7.07" height="7.07" transform="translate(-13.87 8.12) rotate(-12.58)"/>
  <polygon class="cls-4" points="137.56 153.58 173.32 115.28 228.28 129.42 193.88 168.07 137.56 153.58"/>
  <g>
    <path class="cls-2" d="m70.78,115.64c-1.09,0-2.07-.18-2.92-.54-.85-.36-1.52-.85-2-1.47-.48-.62-.72-1.32-.72-2.11,0-.61.14-1.16.42-1.67.28-.51.65-.93,1.13-1.27.48-.34,1.01-.55,1.6-.65v-.1c-.78-.16-1.41-.53-1.89-1.13-.48-.6-.72-1.3-.72-2.09,0-.75.22-1.42.66-2.01.44-.59,1.05-1.05,1.82-1.39.77-.34,1.64-.51,2.62-.51s1.85.17,2.62.51,1.37.81,1.81,1.4.66,1.26.67,2.01c0,.8-.25,1.5-.74,2.1-.49.6-1.11.97-1.88,1.13v.1c.58.1,1.11.31,1.59.65.48.34.85.76,1.14,1.27.28.51.42,1.07.43,1.67,0,.79-.25,1.49-.73,2.11-.48.62-1.15,1.11-2,1.47-.85.36-1.82.54-2.92.54Zm0-2.26c.49,0,.91-.09,1.28-.27.36-.18.65-.42.86-.74s.31-.68.31-1.09-.11-.79-.32-1.12c-.21-.32-.5-.58-.87-.77s-.78-.28-1.26-.28-.89.09-1.26.28c-.37.19-.66.44-.87.77-.21.32-.32.7-.32,1.12s.1.78.31,1.09c.2.32.49.56.86.74.37.18.79.27,1.28.27Zm0-6.5c.41,0,.77-.08,1.09-.25.32-.17.57-.4.75-.69s.27-.63.27-1.02-.09-.71-.27-1-.43-.51-.74-.67c-.31-.16-.68-.25-1.09-.25s-.78.08-1.09.25c-.32.16-.56.39-.74.67s-.27.62-.27,1,.09.72.27,1.02c.18.29.43.52.75.69.32.17.68.25,1.09.25Z"/>
    <path class="cls-2" d="m92.09,115.44l-4.67-6.2h-1.05v6.2h-3.08v-14.55h3.08v5.81h.62l4.83-5.81h3.83l-5.67,6.75,5.94,7.8h-3.81Z"/>
    <path class="cls-2" d="m96.66,115.44v-2.47l.41-.04c.53-.04.96-.25,1.29-.61.33-.36.57-.94.73-1.74.16-.8.27-1.87.32-3.22l.24-6.47h9.87v14.55h-2.99v-12.08h-4.03l-.23,5.06c-.08,1.63-.27,2.96-.58,3.99-.31,1.03-.8,1.79-1.48,2.29-.67.49-1.6.74-2.77.74h-.79Z"/>
    <path class="cls-2" d="m114.56,115.44h-3.3l5.02-14.55h3.96l5.01,14.55h-3.3l-3.64-11.22h-.11l-3.65,11.22Zm-.21-5.72h7.78v2.4h-7.78v-2.4Z"/>
    <path class="cls-2" d="m139.84,105.99h-3.11c-.06-.4-.17-.76-.35-1.08-.17-.31-.4-.58-.67-.81-.27-.22-.59-.39-.95-.51-.36-.12-.74-.18-1.16-.18-.75,0-1.41.19-1.97.56-.56.37-.99.91-1.3,1.62-.31.71-.46,1.57-.46,2.57s.16,1.91.47,2.61c.31.71.74,1.24,1.3,1.6.56.36,1.21.54,1.94.54.41,0,.79-.05,1.15-.16s.67-.27.94-.48c.27-.21.5-.47.69-.77.18-.3.31-.65.38-1.04h3.11c-.08.68-.28,1.32-.6,1.94-.32.62-.75,1.17-1.29,1.66s-1.18.87-1.92,1.15c-.74.28-1.58.42-2.51.42-1.3,0-2.46-.29-3.48-.88-1.02-.59-1.83-1.44-2.42-2.55s-.88-2.46-.88-4.04.3-2.94.9-4.05c.6-1.11,1.41-1.96,2.43-2.55s2.17-.88,3.45-.88c.84,0,1.62.12,2.35.35.72.24,1.36.58,1.92,1.03.56.45,1.01,1,1.37,1.66.35.65.58,1.4.68,2.24Z"/>
    <path class="cls-2" d="m154.88,105.99h-3.11c-.06-.4-.17-.76-.35-1.08-.18-.31-.4-.58-.67-.81-.28-.22-.59-.39-.95-.51-.36-.12-.75-.18-1.16-.18-.75,0-1.41.19-1.97.56-.56.37-.99.91-1.3,1.62-.31.71-.46,1.57-.46,2.57s.16,1.91.47,2.61c.31.71.74,1.24,1.3,1.6.56.36,1.21.54,1.94.54.41,0,.79-.05,1.15-.16.35-.11.67-.27.94-.48.27-.21.5-.47.69-.77.18-.3.31-.65.38-1.04h3.11c-.08.68-.28,1.32-.6,1.94s-.75,1.17-1.29,1.66c-.54.49-1.18.87-1.92,1.15s-1.58.42-2.51.42c-1.3,0-2.46-.29-3.48-.88s-1.83-1.44-2.42-2.55c-.59-1.11-.88-2.46-.88-4.04s.3-2.94.89-4.05c.6-1.11,1.41-1.96,2.43-2.55,1.02-.58,2.17-.88,3.45-.88.84,0,1.62.12,2.35.35.72.24,1.36.58,1.92,1.03s1.01,1,1.37,1.66c.35.65.58,1.4.68,2.24Z"/>
  </g>
  <path class="cls-1" d="m212.9,60.76l.27-.84,2.26-.99c.17-.08.32-.15.44-.22.12-.07.23-.15.31-.24.08-.09.14-.19.18-.31.04-.14.05-.26.02-.37-.03-.11-.08-.21-.17-.3-.09-.08-.2-.15-.33-.19-.13-.04-.26-.05-.38-.03-.12.02-.22.08-.31.16-.09.09-.16.2-.2.35l-1.11-.35c.1-.33.27-.59.49-.78.22-.19.49-.31.8-.36.31-.05.64-.01,1,.1.37.12.67.28.9.49.23.21.39.45.47.72.08.27.07.55-.02.84-.06.19-.15.36-.29.52s-.33.32-.59.47c-.26.16-.62.34-1.07.53l-.75.35v.03s1.96.62,1.96.62l-.3.95-3.59-1.14Z"/>
  <g>
    <path class="cls-1" d="m144.77,56.44c-.4-.12-.76-.27-1.1-.45-.33-.17-.61-.35-.83-.53l1.49-2.17c.29.21.57.37.82.47s.5.13.72.09c.22-.04.43-.17.62-.4l.23-.27-.29-11.95,3.47,1.1-.43,8.03.11.04,4.29-6.81,3.49,1.1-7.52,10.16c-.37.51-.79.93-1.28,1.25-.48.33-1.04.53-1.66.6-.62.08-1.33-.01-2.12-.26Z"/>
    <path class="cls-1" d="m160.69,55.09l.86-2.72,9.69,3.06-.86,2.72-9.69-3.06Zm1.47-4.66l.86-2.72,9.69,3.06-.86,2.72-9.69-3.06Z"/>
    <path class="cls-1" d="m185.88,56.12l-.81,2.55-6.42-2.03.81-2.55,6.42,2.03Z"/>
    <path class="cls-1" d="m190.81,66.92c-1.05-.33-1.93-.81-2.63-1.43-.7-.62-1.18-1.33-1.45-2.12-.27-.79-.27-1.6-.02-2.44l3.37,1.07c-.08.31-.07.6.04.89.11.29.29.55.57.78.27.23.6.41,1,.53.4.13.77.17,1.12.12.35-.05.65-.17.9-.36.25-.2.43-.46.52-.78.11-.32.11-.64,0-.96s-.31-.59-.62-.84c-.3-.25-.69-.45-1.16-.6l-1.35-.43.75-2.38,1.35.43c.41.13.79.18,1.15.14.36-.04.66-.15.92-.34.25-.19.43-.45.53-.77.1-.31.12-.61.04-.89-.08-.29-.23-.54-.46-.75s-.52-.38-.87-.49c-.37-.12-.73-.16-1.07-.12s-.64.15-.89.33-.43.43-.54.75l-3.2-1.01c.27-.82.73-1.48,1.38-1.97.65-.49,1.42-.79,2.31-.9.89-.11,1.83,0,2.83.31.99.31,1.81.76,2.46,1.35.64.59,1.08,1.24,1.31,1.97.23.73.23,1.47-.01,2.23-.24.78-.7,1.34-1.37,1.69-.67.34-1.43.45-2.27.31l-.04.11c1.04.47,1.74,1.07,2.11,1.81.37.74.42,1.54.14,2.39-.25.8-.72,1.44-1.38,1.91-.67.47-1.48.75-2.43.84-.95.09-1.97-.04-3.05-.38Z"/>
    <path class="cls-1" d="m204.45,59.58l.63,3.97,2.86-2.87,3.34,1.06-4.55,4.28,1.37,6.15-3.31-1.05-.82-4.06-2.95,2.87-3.36-1.06,4.66-4.25-1.23-6.11,3.36,1.06Z"/>
  </g>
</svg>