<?xml version="1.0" encoding="UTF-8"?>
<svg id="Layer_1" data-name="Layer 1" xmlns="http://www.w3.org/2000/svg" viewBox="0 0 220 220">
  <defs>
    <style>
      .cls-1 {
        stroke: #4d4d4d;
        stroke-miterlimit: 10;
        stroke-width: .5px;
      }

      .cls-1, .cls-2 {
        fill: #4d4d4d;
      }

      .cls-3 {
        fill: #c7c7c7;
      }

      .cls-4 {
        fill: #202020;
      }
    </style>
  </defs>
  <rect class="cls-4" width="220" height="220" rx="10" ry="10"/>
  <g>
    <path class="cls-3" d="m70.62,100.7c.75,0,1.47.13,2.16.38s1.31.65,1.86,1.2.98,1.28,1.3,2.18c.32.91.48,2.02.49,3.33,0,1.24-.14,2.34-.42,3.31-.28.97-.67,1.79-1.19,2.47s-1.14,1.19-1.87,1.54c-.73.35-1.54.53-2.44.53-.97,0-1.83-.19-2.57-.56-.74-.38-1.34-.89-1.79-1.54-.45-.65-.73-1.38-.82-2.2h3.03c.12.53.37.94.75,1.23.38.29.85.44,1.41.44.95,0,1.67-.41,2.16-1.24.49-.83.74-1.96.75-3.4h-.1c-.22.43-.51.79-.88,1.1-.37.31-.79.54-1.27.71-.48.17-.98.25-1.52.25-.86,0-1.62-.2-2.29-.6-.67-.4-1.2-.96-1.59-1.66-.39-.71-.58-1.51-.58-2.41,0-.98.22-1.84.67-2.61.45-.76,1.09-1.36,1.91-1.79.82-.43,1.77-.65,2.85-.64Zm.02,2.41c-.48,0-.9.11-1.27.34-.37.23-.67.53-.88.92-.22.38-.32.81-.32,1.29,0,.48.1.91.32,1.29.21.38.5.68.87.91.37.23.79.34,1.26.34.36,0,.68-.07.99-.2.3-.13.57-.32.79-.55s.4-.51.53-.81c.13-.31.19-.63.19-.98,0-.46-.11-.88-.33-1.26-.21-.38-.51-.69-.88-.92s-.8-.35-1.26-.35Z"/>
    <path class="cls-3" d="m92.08,115.44l-4.67-6.2h-1.05v6.2h-3.08v-14.55h3.08v5.81h.62l4.83-5.81h3.83l-5.67,6.75,5.94,7.8h-3.81Z"/>
    <path class="cls-3" d="m96.65,115.44v-2.47l.41-.04c.53-.04.96-.25,1.29-.61.33-.36.57-.94.74-1.74s.27-1.87.32-3.22l.24-6.47h9.87v14.55h-2.99v-12.08h-4.03l-.23,5.06c-.08,1.63-.27,2.96-.58,3.99-.31,1.03-.8,1.79-1.48,2.29-.67.49-1.6.74-2.77.74h-.8Z"/>
    <path class="cls-3" d="m114.55,115.44h-3.3l5.02-14.55h3.96l5.01,14.55h-3.3l-3.64-11.22h-.11l-3.65,11.22Zm-.21-5.72h7.78v2.4h-7.78v-2.4Z"/>
    <path class="cls-3" d="m139.83,105.99h-3.11c-.06-.4-.17-.76-.35-1.08-.18-.31-.4-.58-.67-.81-.28-.22-.59-.39-.95-.51-.36-.12-.75-.18-1.16-.18-.75,0-1.41.19-1.97.56-.56.37-.99.91-1.3,1.62-.31.71-.46,1.57-.46,2.57s.16,1.91.47,2.61c.31.71.74,1.24,1.3,1.6.56.36,1.21.54,1.94.54.41,0,.79-.05,1.15-.16.35-.11.67-.27.94-.48.27-.21.5-.47.69-.77.18-.3.31-.65.38-1.04h3.11c-.08.68-.28,1.32-.6,1.94s-.75,1.17-1.29,1.66c-.54.49-1.18.87-1.92,1.15s-1.58.42-2.51.42c-1.3,0-2.46-.29-3.48-.88s-1.83-1.44-2.42-2.55c-.59-1.11-.88-2.46-.88-4.04s.3-2.94.89-4.05c.6-1.11,1.41-1.96,2.43-2.55,1.02-.58,2.17-.88,3.45-.88.84,0,1.62.12,2.35.35.72.24,1.36.58,1.92,1.03s1.01,1,1.37,1.66c.35.65.58,1.4.68,2.24Z"/>
    <path class="cls-3" d="m154.88,105.99h-3.11c-.06-.4-.17-.76-.35-1.08-.18-.31-.4-.58-.67-.81-.28-.22-.59-.39-.95-.51-.36-.12-.75-.18-1.16-.18-.75,0-1.41.19-1.97.56-.56.37-.99.91-1.3,1.62-.31.71-.46,1.57-.46,2.57s.16,1.91.47,2.61c.31.71.74,1.24,1.3,1.6.56.36,1.21.54,1.94.54.41,0,.79-.05,1.15-.16.35-.11.67-.27.94-.48.27-.21.5-.47.69-.77.18-.3.31-.65.38-1.04h3.11c-.08.68-.28,1.32-.6,1.94s-.75,1.17-1.29,1.66c-.54.49-1.18.87-1.92,1.15s-1.58.42-2.51.42c-1.3,0-2.46-.29-3.48-.88s-1.83-1.44-2.42-2.55c-.59-1.11-.88-2.46-.88-4.04s.3-2.94.89-4.05c.6-1.11,1.41-1.96,2.43-2.55,1.02-.58,2.17-.88,3.45-.88.84,0,1.62.12,2.35.35.72.24,1.36.58,1.92,1.03s1.01,1,1.37,1.66c.35.65.58,1.4.68,2.24Z"/>
  </g>
  <g>
    <path class="cls-2" d="m23.28,151.34l-2.77-.06c-.03-.24-.11-.46-.25-.67-.14-.21-.33-.38-.57-.51-.24-.14-.54-.22-.89-.25-.47-.04-.87.02-1.21.19-.34.17-.52.42-.55.74-.02.26.06.49.26.68.19.2.54.37,1.03.52l1.93.56c1.04.31,1.8.72,2.27,1.25.48.53.68,1.18.62,1.96-.06.71-.32,1.32-.78,1.82-.46.5-1.07.87-1.82,1.11s-1.6.32-2.54.24c-1.44-.12-2.56-.52-3.36-1.19-.8-.67-1.23-1.54-1.29-2.59l2.98.1c.05.45.24.8.57,1.06.32.26.76.41,1.29.46.53.04.96-.02,1.3-.2.34-.18.53-.43.56-.75.02-.27-.08-.51-.29-.71-.21-.2-.55-.36-1.01-.5l-1.85-.53c-1.04-.3-1.8-.74-2.27-1.3-.47-.57-.67-1.26-.6-2.07.06-.7.3-1.28.72-1.76s.99-.82,1.71-1.03c.71-.21,1.54-.28,2.47-.21,1.37.12,2.43.5,3.17,1.15s1.14,1.48,1.18,2.49Z"/>
    <path class="cls-2" d="m24.77,159.3l.92-10.87,3.01.26-.92,10.87-3.01-.25Zm2.55-12.14c-.45-.04-.82-.22-1.11-.54-.29-.32-.42-.7-.39-1.12s.23-.77.57-1.04.74-.39,1.18-.35c.45.04.82.22,1.11.54.29.32.42.7.39,1.12s-.23.77-.57,1.04c-.34.27-.74.39-1.19.35Z"/>
    <path class="cls-2" d="m33.74,153.73l-.53,6.28-3.01-.26.92-10.87,2.87.24-.16,1.92h.13c.29-.6.74-1.07,1.34-1.39s1.3-.45,2.11-.38c.75.06,1.4.29,1.93.66.53.38.93.89,1.19,1.52.26.64.35,1.38.28,2.22l-.59,6.92-3.01-.25.54-6.38c.06-.67-.06-1.2-.38-1.6s-.77-.63-1.38-.68c-.41-.03-.77.02-1.09.17-.32.15-.59.38-.79.7-.2.32-.32.71-.37,1.18Z"/>
    <path class="cls-2" d="m56.57,154.79l-.2,2.39-9.96-.84.2-2.39,9.96.84Z"/>
  </g>
  <path class="cls-2" d="m45.05,173.31l.19-2.21,5.56-4.34c.47-.39.88-.74,1.21-1.05.33-.31.58-.63.77-.94s.29-.66.32-1.04c.04-.43-.03-.8-.2-1.12-.17-.33-.41-.59-.73-.78-.32-.2-.69-.31-1.12-.35-.44-.04-.84.02-1.18.17-.35.15-.62.39-.83.71-.21.32-.33.71-.37,1.17l-2.91-.25c.08-.95.37-1.75.85-2.42.49-.66,1.14-1.15,1.94-1.47.81-.32,1.71-.43,2.72-.35,1.04.09,1.93.35,2.67.78.74.43,1.3.99,1.67,1.67.37.68.53,1.44.46,2.28-.05.55-.2,1.08-.46,1.59-.26.51-.69,1.07-1.29,1.68-.6.6-1.44,1.31-2.51,2.13l-2.29,1.89v.1s6.08.52,6.08.52l-.21,2.51-10.33-.88Z"/>
  <path class="cls-2" d="m58.95,140.75l-.19,2.22-12.12-1.03.19-2.22,12.12,1.03Zm-7.44-.63l-.92,10.87-2.93-.25.92-10.87,2.93.25Zm2.77.23l2.91.25-.63,7.47c-.02.29,0,.51.08.68.07.17.19.29.35.36.17.08.37.12.63.15.17.01.32.02.47.02s.28,0,.39,0l-.19,2.21c-.26.06-.54.1-.84.13-.3.03-.63.03-.99,0-.95-.08-1.68-.39-2.2-.93-.52-.54-.73-1.37-.64-2.51l.66-7.83Z"/>
  <path class="cls-1" d="m146.17,171.55c-7.86-1.7-8.31-2.21-16.19-3.91-.28.49-.55.97-.82,1.44-.54.97-1.09,1.93-1.63,2.9-.37.65-.73,1.31-1.09,1.96-.54.96-1.08,1.92-1.62,2.89-.45.81-.9,1.61-1.35,2.42-.24.43-.47.86-.72,1.29-.38.67-.76,1.34-1.13,2.01-.05.09-.09.12-.19.09-.53-.12-1.05-.23-1.58-.34-.08-.02-.13-.03-.14-.14-.08-.65-.17-1.29-.25-1.93-.16-1.23-.33-2.47-.49-3.7-.13-.99-.26-1.98-.38-2.97-.01-.09-.05-.12-.14-.13-.57-.12-1.13-.24-1.7-.37l-.17-.04.39-1.8.23.05c.99.21,1.98.43,2.97.64.13.03.18.07.19.2.05.44.11.88.16,1.32.12.99.23,1.97.35,2.96.11.94.22,1.88.33,2.81,0,.03.02.07.05.13.43-.77.84-1.51,1.25-2.26.47-.84.93-1.67,1.4-2.5.46-.82.91-1.64,1.37-2.46.52-.93,1.03-1.85,1.55-2.78.44-.79.88-1.58,1.31-2.36.23-.42.47-.83.69-1.25.06-.12.12-.14.24-.11,3.86.84,15.73,3.61,17.54,4"/>
  <path class="cls-1" d="m204.79,183.46c-7.86-1.7-8.31-2.21-16.19-3.91-.28.49-.55.97-.82,1.44-.54.97-1.09,1.93-1.63,2.9-.37.65-.73,1.31-1.09,1.96-.54.96-1.08,1.92-1.62,2.89-.45.81-.9,1.61-1.35,2.42-.24.43-.47.86-.72,1.29-.38.67-.76,1.34-1.13,2.01-.05.09-.09.12-.19.09-.53-.12-1.05-.23-1.58-.34-.08-.02-.13-.03-.14-.14-.08-.65-.17-1.29-.25-1.93-.16-1.23-.33-2.47-.49-3.7-.13-.99-.26-1.98-.38-2.97-.01-.09-.05-.12-.14-.13-.57-.12-1.13-.24-1.7-.37l-.17-.04.39-1.8.23.05c.99.21,1.98.43,2.97.64.13.03.18.07.19.2.05.44.11.88.16,1.32.12.99.23,1.97.35,2.96.11.94.22,1.88.33,2.81,0,.03.02.07.05.13.43-.77.84-1.51,1.25-2.26.47-.84.93-1.67,1.4-2.5.46-.82.91-1.64,1.37-2.46.52-.93,1.03-1.85,1.55-2.78.44-.79.88-1.58,1.31-2.36.23-.42.47-.83.69-1.25.06-.12.12-.14.24-.11,3.86.84,15.73,3.61,17.54,4"/>
  <g>
    <path class="cls-2" d="m109.14,174.54c.37-1.72.95-3.26,1.72-4.61.77-1.35,1.77-2.54,2.99-3.57l2.83.61c-.46.38-.92.87-1.37,1.46-.45.59-.88,1.26-1.28,1.99-.4.74-.76,1.51-1.07,2.32-.31.81-.56,1.63-.73,2.45-.24,1.1-.36,2.23-.38,3.39s.06,2.27.24,3.31c.18,1.04.44,1.92.79,2.63l-2.82-.61c-.68-1.44-1.1-2.94-1.24-4.48s-.03-3.19.34-4.91Z"/>
    <path class="cls-2" d="m131.85,185.63c-.68-.15-1.26-.4-1.74-.75-.48-.35-.82-.8-1.03-1.33-.21-.54-.23-1.16-.08-1.86.13-.59.34-1.07.65-1.42.3-.36.67-.62,1.1-.78.43-.16.9-.26,1.4-.28s1.03,0,1.57.06c.63.07,1.15.12,1.54.14s.69,0,.88-.08c.2-.08.32-.23.37-.46v-.04c.1-.44.04-.81-.18-1.11-.22-.3-.59-.5-1.09-.61-.53-.11-.98-.09-1.35.08-.36.17-.64.41-.81.74l-2.69-.81c.28-.62.67-1.12,1.18-1.51.51-.39,1.12-.64,1.82-.75s1.48-.08,2.33.1c.59.13,1.15.32,1.66.58.51.26.95.58,1.31.96.36.38.61.83.76,1.34.15.51.15,1.08.02,1.71l-1.56,7.19-2.8-.61.32-1.48-.08-.02c-.24.3-.54.54-.88.73-.34.19-.73.31-1.16.37-.43.05-.91.02-1.44-.09Zm1.29-1.86c.44.09.84.09,1.21-.01s.68-.28.94-.53c.25-.26.42-.57.5-.95l.25-1.13c-.11.04-.24.07-.41.08-.17.01-.36.02-.57.02-.21,0-.41-.01-.62-.02-.21-.01-.39-.03-.56-.04-.36-.02-.68,0-.96.05-.28.06-.52.16-.7.32-.18.16-.31.37-.37.65-.09.4,0,.74.24,1.02.25.27.6.46,1.05.56Z"/>
    <path class="cls-2" d="m150.94,183.58c-.37,1.73-.95,3.26-1.72,4.61-.77,1.35-1.77,2.54-2.99,3.57l-2.83-.61c.46-.38.92-.87,1.37-1.46.45-.6.88-1.26,1.28-1.99.4-.73.76-1.51,1.07-2.32s.56-1.63.74-2.46c.24-1.1.37-2.23.38-3.39.02-1.17-.06-2.27-.24-3.31s-.44-1.92-.79-2.63l2.83.61c.68,1.44,1.1,2.94,1.24,4.48.15,1.55.03,3.18-.34,4.9Z"/>
    <path class="cls-2" d="m158.39,188.91l.53-2.46,9.59,2.07-.53,2.46-9.59-2.07Zm1-4.61l.53-2.46,9.58,2.07-.53,2.46-9.58-2.07Z"/>
    <path class="cls-2" d="m187.14,197.59c-.68-.15-1.26-.4-1.74-.75-.48-.35-.82-.8-1.03-1.33s-.23-1.16-.08-1.86c.13-.59.34-1.07.65-1.42.3-.36.67-.62,1.1-.78.43-.16.89-.26,1.4-.28.51-.02,1.03,0,1.57.06.63.07,1.15.12,1.54.14s.69,0,.88-.08c.2-.08.32-.23.37-.46v-.04c.1-.44.04-.81-.18-1.11-.22-.3-.59-.5-1.09-.61-.53-.12-.98-.09-1.35.08-.36.17-.64.41-.81.74l-2.69-.81c.28-.62.67-1.12,1.18-1.5.51-.39,1.12-.64,1.82-.76s1.48-.08,2.33.1c.59.13,1.15.32,1.66.58.51.26.95.58,1.31.96.36.38.61.83.76,1.34.15.51.15,1.08.02,1.71l-1.56,7.19-2.8-.61.32-1.48-.08-.02c-.24.3-.54.54-.88.73-.34.19-.73.31-1.16.37-.43.05-.91.02-1.44-.09Zm1.29-1.86c.44.09.84.09,1.21-.01.37-.1.68-.28.94-.53s.42-.57.5-.95l.25-1.13c-.11.04-.24.07-.41.08-.17.01-.36.02-.57.02-.21,0-.41-.01-.62-.03s-.39-.03-.56-.04c-.36-.02-.68,0-.96.05-.28.05-.52.16-.7.32s-.31.37-.37.65c-.09.4,0,.74.24,1.02.25.27.6.46,1.05.56Z"/>
  </g>
  <path class="cls-2" d="m119.85,167.29l-.46,2.13-1.19-.26.81-3.73,1.13.24-.15.69h.04c.13-.2.31-.35.54-.44.23-.09.48-.1.75-.04.26.06.48.17.65.32s.28.36.35.59.06.49,0,.77l-.51,2.38-1.19-.26.46-2.15c.05-.21.03-.38-.05-.52s-.21-.23-.4-.27c-.12-.03-.24-.02-.35.01-.11.03-.2.09-.27.18-.07.09-.12.21-.16.35Z"/>
  <path class="cls-2" d="m179.47,180.19l-.46,2.13-1.19-.26.81-3.73,1.13.24-.15.69h.04c.13-.2.31-.35.54-.44.23-.09.48-.1.75-.04.26.06.48.17.65.32.17.16.28.36.34.59s.06.49,0,.77l-.51,2.38-1.19-.26.46-2.15c.05-.21.03-.38-.05-.52-.08-.14-.22-.23-.4-.27-.12-.03-.24-.02-.35.01-.11.03-.2.09-.27.18-.07.09-.12.21-.16.35Z"/>
  <path class="cls-2" d="m152.35,172.98l.81-3.73,1.13.24-.15.69h.04c.13-.2.3-.35.51-.44.21-.09.45-.11.7-.05.26.06.47.17.62.34.16.17.23.38.24.61h.04c.12-.2.29-.35.52-.44.23-.09.48-.1.76-.04.35.08.62.25.79.53.17.27.21.61.13,1l-.54,2.51-1.19-.26.48-2.24c.04-.19.02-.34-.05-.46s-.19-.19-.34-.23c-.16-.04-.3-.01-.42.07-.12.09-.19.22-.23.4l-.48,2.23-1.14-.25.49-2.25c.04-.17.02-.32-.05-.44-.07-.12-.19-.2-.34-.23-.1-.02-.2-.02-.29.01-.09.03-.17.09-.23.17-.06.08-.11.18-.14.31l-.48,2.21-1.19-.26Z"/>
  <path class="cls-2" d="m197.02,188.78l.81-3.73,1.13.24-.15.69h.04c.13-.2.3-.35.51-.44.21-.09.45-.11.7-.05.26.06.47.17.62.34.16.17.23.38.24.61h.04c.12-.2.29-.35.52-.44.23-.09.48-.1.76-.04.35.08.62.25.79.53.17.27.21.61.13,1l-.54,2.51-1.19-.26.48-2.24c.04-.19.02-.34-.05-.46s-.19-.19-.34-.23c-.16-.04-.3-.01-.42.07-.12.09-.19.22-.23.4l-.48,2.23-1.14-.25.49-2.25c.04-.17.02-.32-.05-.44-.07-.12-.19-.2-.34-.23-.1-.02-.2-.02-.29.01-.09.03-.17.09-.23.17-.06.08-.11.18-.14.31l-.48,2.21-1.19-.26Z"/>
  <g>
    <path class="cls-2" d="m92.51,31.48c-.69-.07-1.3-.26-1.81-.55-.52-.3-.91-.7-1.17-1.21-.26-.51-.36-1.12-.29-1.84.06-.6.23-1.1.49-1.49.26-.39.6-.69,1.01-.9.41-.21.86-.35,1.36-.43s1.02-.11,1.56-.11c.64,0,1.15-.01,1.54-.03.39-.02.68-.08.87-.18.19-.1.29-.27.31-.5v-.04c.05-.45-.05-.81-.31-1.08s-.64-.44-1.15-.49c-.54-.06-.99.02-1.33.22-.35.21-.59.48-.73.83l-2.76-.51c.21-.65.55-1.19,1.01-1.63.46-.44,1.04-.76,1.72-.95.68-.19,1.46-.25,2.33-.16.6.06,1.17.19,1.71.39.54.2,1.01.47,1.41.81.4.34.7.76.9,1.25.2.49.27,1.06.2,1.7l-.75,7.32-2.85-.29.16-1.5h-.08c-.21.31-.47.59-.79.81-.32.23-.69.39-1.11.49-.42.1-.91.12-1.44.07Zm1.08-1.99c.44.05.84,0,1.2-.14.36-.14.65-.35.87-.63.22-.28.36-.61.4-1l.12-1.15c-.1.05-.23.09-.4.13-.17.03-.35.06-.56.08-.21.02-.41.03-.62.04-.21.01-.39.02-.56.02-.36.02-.68.07-.95.15-.28.09-.5.22-.66.39-.17.18-.26.41-.29.69-.04.41.08.74.35.98.28.24.65.39,1.11.44Z"/>
    <path class="cls-2" d="m107.83,28.16c-.47-.05-.85-.25-1.15-.62-.3-.37-.42-.78-.37-1.25.05-.46.25-.84.62-1.14s.78-.42,1.25-.37c.45.05.83.25,1.14.62.31.36.43.78.39,1.24-.03.31-.14.59-.32.83-.18.24-.41.42-.68.55-.27.13-.56.17-.86.14Z"/>
    <path class="cls-2" d="m116.19,33.71l1.49-14.47,3.01.31-.56,5.44h.09c.16-.27.38-.55.67-.83.28-.28.64-.5,1.07-.66.43-.16.95-.21,1.55-.15.79.08,1.5.36,2.13.84.63.48,1.1,1.16,1.41,2.02.32.87.41,1.92.28,3.17-.12,1.21-.42,2.21-.9,3-.47.79-1.07,1.37-1.78,1.72-.71.36-1.48.49-2.3.41-.58-.06-1.07-.21-1.46-.44-.39-.24-.7-.51-.93-.83-.23-.32-.39-.64-.5-.96h-.13s-.18,1.72-.18,1.72l-2.97-.31Zm3.5-5.12c-.07.65-.03,1.22.09,1.72.13.5.35.9.66,1.2s.71.48,1.2.53c.49.05.92-.04,1.29-.28s.66-.58.89-1.05c.23-.46.37-1.01.44-1.64.06-.63.03-1.19-.09-1.68-.13-.49-.34-.89-.66-1.2s-.71-.48-1.21-.53c-.49-.05-.92.04-1.28.26s-.66.57-.89,1.02-.38,1.01-.44,1.65Z"/>
    <path class="cls-2" d="m134.29,33.36l.26-2.51,9.76,1-.26,2.51-9.76-1Zm.48-4.69l.26-2.51,9.76,1-.26,2.51-9.76-1Z"/>
    <path class="cls-2" d="m155.15,26.75l1.6,4,2.43-3.58,3.09.32-3.7,5.1,2.67,5.76-3.07-.32-1.75-3.97-2.49,3.54-3.11-.32,3.78-5.09-2.55-5.75,3.11.32Z"/>
    <path class="cls-2" d="m169.79,34.54c-.47-.05-.85-.25-1.15-.62-.3-.37-.42-.78-.37-1.25.05-.46.25-.84.62-1.14s.78-.42,1.25-.37c.45.05.83.25,1.14.62.3.36.43.78.39,1.24-.03.31-.14.59-.32.83-.18.24-.41.42-.68.55-.27.13-.56.18-.86.14Z"/>
    <path class="cls-2" d="m181.71,29.49l1.6,4,2.43-3.58,3.09.32-3.7,5.1,2.67,5.76-3.07-.32-1.75-3.97-2.49,3.53-3.11-.32,3.78-5.09-2.55-5.75,3.11.32Z"/>
    <path class="cls-2" d="m195.14,37.27l.26-2.53,10,1.03-.26,2.53-10-1.03Zm3.35,4.12l1.03-10,2.53.26-1.03,10-2.53-.26Z"/>
    <path class="cls-2" d="m213.69,47.86c-.38-.04-.74-.11-1.06-.2-.33-.09-.59-.2-.8-.31l.91-2.18c.34.14.65.24.94.28.29.04.54,0,.76-.12.22-.12.42-.34.59-.67l.22-.44-2.74-11.56,3.17.33,1.43,8.2h.11s3.09-7.72,3.09-7.72l3.19.33-5.46,11.59c-.26.56-.59,1.04-.98,1.45-.39.4-.86.69-1.42.88-.55.18-1.2.24-1.94.16Z"/>
  </g>
  <path class="cls-2" d="m164.04,41.13c-.24-.02-.45-.09-.63-.19-.18-.1-.31-.24-.4-.42-.09-.18-.12-.39-.1-.64.02-.21.08-.39.17-.52.09-.14.2-.25.34-.32.14-.08.3-.13.47-.16.17-.03.36-.04.55-.04.22,0,.39,0,.53,0,.13,0,.23-.03.3-.07.07-.04.1-.09.11-.17h0c.01-.14-.02-.24-.1-.32s-.19-.12-.34-.14c-.16-.02-.29,0-.4.06s-.18.15-.21.27l-1.11-.15c.06-.23.16-.43.32-.59.16-.17.36-.29.61-.37.25-.08.55-.1.89-.07.24.02.46.08.66.15.2.08.37.18.51.3.14.12.24.27.31.43.07.16.09.35.07.55l-.27,2.58-1.14-.12.05-.53h-.03c-.08.12-.18.22-.29.3-.11.08-.24.13-.39.16-.15.03-.31.04-.48.02Zm.46-.75c.13.01.25,0,.36-.04s.2-.11.27-.19c.07-.09.11-.19.13-.32l.04-.36s-.08.03-.13.04c-.05.01-.1.02-.16.03-.06,0-.12.01-.18.02-.06,0-.12,0-.18,0-.12,0-.22.03-.3.05-.08.03-.15.07-.2.13s-.08.13-.08.21c-.01.12.02.22.1.3.08.08.19.12.33.13Z"/>
  <path class="cls-2" d="m189.5,43.87l.52-5.06,1.21.12-.2,1.92h.02c.06-.11.14-.21.25-.31.1-.1.23-.17.38-.23.15-.05.32-.07.52-.05.26.03.5.12.72.28.22.16.38.39.49.7.11.3.14.68.1,1.12-.04.43-.15.78-.32,1.06-.17.28-.37.47-.62.6s-.51.17-.79.14c-.19-.02-.35-.07-.49-.15-.13-.08-.24-.17-.33-.28-.08-.11-.15-.23-.18-.35h-.04s-.06.61-.06.61l-1.2-.12Zm1.38-1.78c-.02.21-.01.39.03.54.04.16.11.28.2.38.1.09.22.15.36.16.15.02.28-.01.39-.08.11-.07.2-.18.27-.33.07-.15.11-.32.14-.53.02-.2.01-.38-.03-.54-.04-.16-.1-.28-.2-.37-.09-.09-.22-.15-.37-.16-.15-.02-.28.01-.39.08-.11.07-.2.18-.27.32-.07.14-.12.32-.14.53Z"/>
  <polygon class="cls-2" points="101.97 14.22 101.53 13.67 99.29 10.93 97.97 12.01 99.31 13.65 90.36 12.73 90.15 14.72 99.1 15.64 97.46 16.98 98.54 18.3 101.28 16.07 101.83 15.63 102.6 15 101.97 14.22"/>
  <polygon class="cls-2" points="129.82 17.09 129.38 16.54 127.15 13.8 125.82 14.87 127.16 16.52 118.21 15.6 118 17.59 126.96 18.51 125.31 19.85 126.39 21.17 129.13 18.94 129.68 18.49 130.46 17.86 129.82 17.09"/>
  <polygon class="cls-2" points="59.81 77.35 69.81 76.62 69.81 76.62 73.8 76.33 73.51 72.34 73.51 72.34 72.78 62.35 68.79 62.64 69.31 69.81 -6.49 4.32 -9.1 7.35 66.69 72.84 59.52 73.36 59.81 77.35"/>
  <polygon class="cls-2" points="49.81 44.35 59.81 43.62 59.81 43.62 63.8 43.33 63.51 39.34 63.51 39.34 62.78 29.35 58.79 29.64 59.31 36.81 -16.49 -28.68 -19.1 -25.65 56.69 39.84 49.52 40.36 49.81 44.35"/>
  <polygon class="cls-2" points="148.05 65.91 138.05 66.57 138.05 66.57 134.06 66.83 134.33 70.82 134.33 70.82 134.99 80.82 138.98 80.56 138.51 73.38 197.78 124.17 200.6 120.7 141.14 70.37 148.32 69.9 148.05 65.91"/>
</svg>