<?xml version="1.0" encoding="UTF-8"?>
<svg id="Layer_1" data-name="Layer 1" xmlns="http://www.w3.org/2000/svg" viewBox="0 0 132.5 130">
  <defs>
    <style>
      .cls-1 {
        fill: #fff;
      }

      .cls-2 {
        fill: #d1ae59;
      }
    </style>
  </defs>
  <g>
    <path class="cls-1" d="m20.82,17.93c-.83,0-1.57-.14-2.22-.43-.65-.29-1.16-.68-1.54-1.19-.38-.51-.58-1.1-.61-1.77h1.9c.02.37.15.68.37.95.22.27.52.47.88.62.36.15.76.22,1.21.22.49,0,.92-.08,1.29-.25s.67-.41.88-.71c.21-.3.32-.65.32-1.05s-.11-.78-.32-1.1c-.21-.32-.52-.56-.92-.75s-.89-.27-1.46-.27h-1.04v-1.52h1.04c.46,0,.86-.08,1.21-.25s.62-.4.82-.69c.2-.3.3-.64.3-1.04s-.09-.72-.26-1c-.17-.28-.41-.51-.72-.67-.31-.16-.68-.24-1.1-.24s-.78.07-1.13.22c-.35.15-.63.36-.85.63-.22.27-.33.6-.35.98h-1.8c.02-.67.22-1.26.59-1.76.38-.51.87-.9,1.49-1.19.62-.29,1.31-.43,2.06-.43s1.48.15,2.06.46c.58.31,1.02.72,1.34,1.23s.47,1.07.47,1.68c0,.69-.19,1.28-.58,1.76-.39.48-.9.81-1.55.97v.1c.82.12,1.46.45,1.91.98.45.53.68,1.18.67,1.96,0,.68-.18,1.29-.56,1.83-.38.54-.9.96-1.55,1.27-.66.31-1.41.46-2.25.46Z"/>
    <path class="cls-1" d="m28.91,8.49l2.05,3.61,2.06-3.61h1.97l-2.89,4.64,2.92,4.64h-1.97l-2.09-3.47-2.08,3.47h-1.98l2.89-4.64-2.85-4.64h1.98Z"/>
    <path class="cls-1" d="m46.82,11.75v1.56h-5.48v-1.56h5.48Z"/>
    <path class="cls-1" d="m54.88,21.24c-.27,0-.52-.02-.74-.06-.22-.04-.39-.09-.49-.14l.43-1.48c.33.09.62.13.88.11.26-.01.49-.11.69-.29s.38-.48.53-.89l.22-.62-3.39-9.39h1.93l2.35,7.2h.1l2.35-7.2h1.94l-3.82,10.51c-.18.48-.4.89-.68,1.23-.27.34-.6.59-.98.76s-.82.25-1.32.25Z"/>
    <path class="cls-1" d="m68.24,12.41v-1.62h8.16v1.62h-8.16Zm3.27,3.27V7.52h1.62v8.16h-1.62Z"/>
    <path class="cls-1" d="m83.67,17.76v-1.35l4.18-4.33c.45-.47.82-.88,1.11-1.24.29-.36.51-.7.66-1.02.14-.32.22-.66.22-1.03,0-.41-.1-.77-.29-1.07-.19-.3-.46-.53-.79-.69-.33-.16-.71-.24-1.13-.24-.44,0-.83.09-1.16.27s-.58.44-.76.77c-.18.33-.27.72-.27,1.16h-1.78c0-.75.17-1.41.52-1.97s.82-1,1.42-1.31c.6-.31,1.29-.47,2.06-.47s1.46.15,2.06.46c.59.31,1.06.73,1.39,1.26.33.53.5,1.13.5,1.79,0,.46-.09.91-.26,1.35-.17.44-.47.93-.89,1.46-.42.54-1.01,1.19-1.76,1.95l-2.46,2.57v.09h5.57v1.6h-8.14Z"/>
    <path class="cls-1" d="m99.2,10.51v-1.58h7.73v1.58h-7.73Zm0,3.72v-1.58h7.73v1.58h-7.73Z"/>
    <path class="cls-1" d="m118.72,17.96c-.95,0-1.77-.26-2.44-.75-.68-.5-1.19-1.23-1.55-2.18-.36-.95-.54-2.1-.54-3.45s.18-2.49.54-3.44.88-1.67,1.56-2.17,1.49-.75,2.44-.75,1.76.25,2.43.75c.68.5,1.19,1.23,1.55,2.17.36.95.54,2.09.54,3.43s-.18,2.5-.54,3.45c-.36.95-.88,1.68-1.55,2.18s-1.49.75-2.44.75Zm0-1.61c.84,0,1.49-.41,1.97-1.23.47-.82.71-2,.71-3.54,0-1.03-.11-1.89-.32-2.6-.21-.71-.52-1.25-.92-1.62-.4-.37-.88-.55-1.43-.55-.83,0-1.49.41-1.96,1.23-.47.82-.71,2-.72,3.54,0,1.03.11,1.9.32,2.61.22.71.52,1.25.92,1.61s.88.55,1.44.55Z"/>
    <path class="cls-1" d="m127.77,16.07l-.09.66c-.06.48-.16.99-.31,1.51-.14.53-.29,1.01-.44,1.46-.15.45-.27.81-.37,1.07h-1.28c.05-.25.12-.59.22-1.01.09-.42.18-.9.27-1.42.09-.52.16-1.06.2-1.6l.06-.68h1.74Z"/>
    <path class="cls-1" d="m17.96,33.49l2.05,3.61,2.06-3.61h1.97l-2.89,4.64,2.92,4.64h-1.97l-2.09-3.47-2.08,3.47h-1.98l2.89-4.64-2.85-4.64h1.98Z"/>
    <path class="cls-1" d="m30.78,37.41v-1.62h8.16v1.62h-8.16Zm3.27,3.27v-8.16h1.62v8.16h-1.62Z"/>
    <path class="cls-1" d="m46.21,42.76v-1.35l4.18-4.33c.45-.47.82-.88,1.11-1.24.29-.36.51-.7.66-1.02.15-.32.22-.66.22-1.03,0-.41-.1-.77-.29-1.07-.19-.3-.46-.53-.79-.69-.33-.16-.71-.24-1.13-.24-.44,0-.83.09-1.16.27s-.58.44-.76.77c-.18.33-.27.72-.27,1.16h-1.78c0-.75.17-1.41.52-1.97s.82-1,1.42-1.31c.6-.31,1.29-.47,2.06-.47s1.46.15,2.06.46c.59.31,1.06.73,1.39,1.26.33.53.5,1.13.5,1.79,0,.46-.09.91-.26,1.35-.17.44-.47.93-.89,1.46-.42.54-1.01,1.19-1.76,1.95l-2.46,2.57v.09h5.57v1.6h-8.14Z"/>
    <path class="cls-1" d="m57.8,46.24c-.27,0-.52-.02-.74-.06-.22-.04-.39-.09-.49-.14l.43-1.48c.33.09.62.13.88.11.26-.01.49-.11.69-.29s.38-.48.53-.89l.22-.62-3.39-9.39h1.93l2.35,7.2h.1l2.35-7.2h1.94l-3.82,10.51c-.18.48-.4.89-.68,1.23-.27.34-.6.59-.98.76s-.82.25-1.32.25Z"/>
    <path class="cls-1" d="m71.16,37.41v-1.62h8.16v1.62h-8.16Zm3.27,3.27v-8.16h1.62v8.16h-1.62Z"/>
    <path class="cls-1" d="m90.89,42.93c-.83,0-1.57-.14-2.22-.43-.65-.29-1.16-.68-1.54-1.19-.38-.51-.58-1.1-.61-1.77h1.9c.02.37.15.68.37.95.22.27.52.47.88.62.36.15.76.22,1.21.22.49,0,.92-.08,1.29-.25s.67-.41.88-.71c.21-.3.32-.65.32-1.05s-.11-.78-.32-1.1c-.21-.32-.52-.56-.92-.75s-.89-.27-1.46-.27h-1.04v-1.52h1.04c.46,0,.86-.08,1.21-.25.35-.17.62-.4.82-.69.2-.3.3-.64.3-1.04s-.09-.72-.26-1-.41-.51-.72-.67c-.31-.16-.68-.24-1.1-.24s-.78.07-1.13.22c-.35.15-.63.36-.85.63-.22.27-.33.6-.35.98h-1.8c.02-.67.22-1.26.59-1.76.38-.51.87-.9,1.49-1.19.62-.29,1.31-.43,2.06-.43s1.48.15,2.06.46c.58.31,1.02.72,1.34,1.23.32.51.47,1.07.47,1.68,0,.69-.19,1.28-.58,1.76s-.9.81-1.55.97v.1c.82.12,1.46.45,1.91.98.45.53.68,1.18.67,1.96,0,.68-.18,1.29-.56,1.83-.38.54-.9.96-1.55,1.27-.66.31-1.41.46-2.25.46Z"/>
    <path class="cls-1" d="m102.65,35.51v-1.58h7.73v1.58h-7.73Zm0,3.72v-1.58h7.73v1.58h-7.73Z"/>
    <path class="cls-1" d="m122.17,42.96c-.95,0-1.77-.26-2.44-.75-.68-.5-1.19-1.23-1.55-2.18-.36-.95-.54-2.1-.54-3.45s.18-2.49.54-3.44.88-1.67,1.56-2.17,1.49-.75,2.44-.75,1.76.25,2.43.75c.68.5,1.19,1.23,1.55,2.17.36.95.54,2.09.54,3.43s-.18,2.5-.54,3.45c-.36.95-.88,1.68-1.55,2.18s-1.49.75-2.44.75Zm0-1.61c.84,0,1.49-.41,1.97-1.23.47-.82.71-2,.71-3.54,0-1.03-.11-1.89-.32-2.6-.21-.71-.52-1.25-.92-1.62-.4-.37-.88-.55-1.43-.55-.83,0-1.49.41-1.96,1.23-.47.82-.71,2-.72,3.54,0,1.03.11,1.9.32,2.61.22.71.52,1.25.92,1.61s.88.55,1.44.55Z"/>
    <path class="cls-1" d="m131.22,41.07l-.09.66c-.06.48-.16.99-.31,1.51-.14.53-.29,1.01-.44,1.46-.15.45-.27.81-.37,1.07h-1.28c.05-.25.12-.59.22-1.01.09-.42.18-.9.27-1.42.09-.52.16-1.06.2-1.6l.06-.68h1.74Zm-.94-4.94c-.33,0-.61-.12-.85-.36s-.36-.52-.36-.85.12-.61.36-.85c.24-.24.52-.35.85-.35s.61.12.85.35c.24.24.36.52.36.85,0,.22-.05.42-.17.61-.11.18-.26.33-.44.44-.18.11-.38.16-.6.16Z"/>
    <path class="cls-1" d="m17.68,96.24c-.27,0-.52-.02-.74-.06-.22-.04-.39-.09-.49-.14l.43-1.48c.33.09.62.13.88.11.26-.01.49-.11.69-.29s.38-.48.53-.89l.22-.62-3.39-9.39h1.93l2.35,7.2h.1l2.35-7.2h1.94l-3.82,10.51c-.18.48-.4.89-.68,1.23-.27.34-.6.59-.98.76s-.82.25-1.32.25Z"/>
    <path class="cls-1" d="m31.25,85.51v-1.58h7.73v1.58h-7.73Zm0,3.72v-1.58h7.73v1.58h-7.73Z"/>
    <path class="cls-1" d="m50.77,92.93c-.83,0-1.57-.14-2.22-.43-.65-.29-1.16-.68-1.54-1.19-.38-.51-.58-1.1-.61-1.77h1.9c.02.37.15.68.37.95.22.27.52.47.88.62.36.15.76.22,1.21.22.49,0,.92-.08,1.29-.25s.67-.41.88-.71c.21-.3.32-.65.32-1.05s-.11-.78-.32-1.1c-.21-.32-.52-.56-.92-.75s-.89-.27-1.46-.27h-1.04v-1.52h1.04c.46,0,.86-.08,1.21-.25s.62-.4.82-.69c.2-.3.3-.64.3-1.04s-.09-.72-.26-1c-.17-.28-.41-.51-.72-.67-.31-.16-.68-.24-1.1-.24s-.78.07-1.13.22c-.35.15-.63.36-.85.63-.22.27-.33.6-.35.98h-1.8c.02-.67.22-1.26.59-1.76.38-.51.87-.9,1.49-1.19.62-.29,1.31-.43,2.06-.43s1.48.15,2.06.46c.58.31,1.02.72,1.34,1.23s.47,1.07.47,1.68c0,.69-.19,1.28-.58,1.76-.39.48-.9.81-1.55.97v.1c.82.12,1.46.45,1.91.98.45.53.68,1.18.67,1.96,0,.68-.18,1.29-.56,1.83-.38.54-.9.96-1.55,1.27-.66.31-1.41.46-2.25.46Z"/>
    <path class="cls-1" d="m58.87,83.49l2.05,3.61,2.06-3.61h1.97l-2.89,4.64,2.92,4.64h-1.97l-2.09-3.47-2.08,3.47h-1.98l2.89-4.64-2.85-4.64h1.98Z"/>
    <path class="cls-1" d="m71.68,87.41v-1.62h8.16v1.62h-8.16Zm3.27,3.27v-8.16h1.62v8.16h-1.62Z"/>
    <path class="cls-1" d="m87.11,92.76v-1.35l4.18-4.33c.45-.47.82-.88,1.11-1.24.29-.36.51-.7.66-1.02.14-.32.22-.66.22-1.03,0-.41-.1-.77-.29-1.07-.19-.3-.46-.53-.79-.69-.33-.16-.71-.24-1.13-.24-.44,0-.83.09-1.16.27s-.58.44-.76.77c-.18.33-.27.72-.27,1.16h-1.78c0-.75.17-1.41.52-1.97s.82-1,1.42-1.31c.6-.31,1.29-.47,2.06-.47s1.46.15,2.06.46c.59.31,1.06.73,1.39,1.26.33.53.5,1.13.5,1.79,0,.46-.09.91-.26,1.35-.17.44-.47.93-.89,1.46-.42.54-1.01,1.19-1.76,1.95l-2.46,2.57v.09h5.57v1.6h-8.14Z"/>
    <path class="cls-1" d="m17.68,121.24c-.27,0-.52-.02-.74-.06-.22-.04-.39-.09-.49-.14l.43-1.48c.33.09.62.13.88.11.26-.01.49-.11.69-.29s.38-.48.53-.89l.22-.62-3.39-9.39h1.93l2.35,7.2h.1l2.35-7.2h1.94l-3.82,10.51c-.18.48-.4.89-.68,1.23-.27.34-.6.59-.98.76s-.82.25-1.32.25Z"/>
    <path class="cls-1" d="m31.25,111.82v-1.59h7.73v1.59h-7.73Zm0,3.72v-1.59h7.73v1.59h-7.73Z"/>
    <path class="cls-1" d="m51.96,111.75v1.56h-5.48v-1.56h5.48Z"/>
    <path class="cls-1" d="m74.65,111.75v1.56h-17v-1.56h17Z"/>
    <path class="cls-1" d="m77.29,108.49l2.05,3.61,2.06-3.61h1.97l-2.89,4.64,2.92,4.64h-1.97l-2.09-3.47-2.08,3.47h-1.98l2.89-4.64-2.85-4.64h1.98Z"/>
    <path class="cls-1" d="m95.2,111.75v1.56h-5.48v-1.56h5.48Z"/>
    <path class="cls-1" d="m117.9,111.75v1.56h-17v-1.56h17Z"/>
  </g>
  <g>
    <path class="cls-1" d="m67.05,98.18v12.36h-1.87v-10.49h-.07l-2.96,1.93v-1.79l3.08-2.02h1.82Z"/>
    <path class="cls-1" d="m62.36,127.54v-1.35l4.18-4.33c.45-.47.82-.88,1.11-1.24.29-.36.51-.7.66-1.02.14-.32.22-.66.22-1.03,0-.41-.1-.77-.29-1.07-.19-.3-.46-.53-.79-.69-.33-.16-.71-.24-1.13-.24-.44,0-.83.09-1.16.27s-.58.44-.76.77c-.18.33-.27.72-.27,1.16h-1.78c0-.75.17-1.41.52-1.97s.82-1,1.42-1.31c.6-.31,1.29-.47,2.06-.47s1.46.15,2.06.46c.59.31,1.06.73,1.39,1.26.33.53.5,1.13.5,1.79,0,.46-.09.91-.26,1.35-.17.44-.47.93-.89,1.46-.42.54-1.01,1.19-1.76,1.95l-2.46,2.57v.09h5.57v1.6h-8.14Z"/>
  </g>
  <g>
    <path class="cls-1" d="m109.51,110.69c-.83,0-1.57-.14-2.22-.43-.65-.29-1.16-.68-1.54-1.19-.38-.51-.58-1.1-.61-1.77h1.9c.02.37.15.68.37.95.22.27.52.47.88.62.36.15.76.22,1.21.22.49,0,.92-.08,1.29-.25s.67-.41.88-.71c.21-.3.32-.65.32-1.05s-.11-.78-.32-1.1c-.21-.32-.52-.56-.92-.75s-.89-.27-1.46-.27h-1.04v-1.52h1.04c.46,0,.86-.08,1.21-.25.35-.17.62-.4.82-.69.2-.3.3-.64.3-1.04s-.09-.72-.26-1-.41-.51-.72-.67c-.31-.16-.68-.24-1.1-.24s-.78.07-1.13.22c-.35.15-.63.36-.85.63-.22.27-.33.6-.35.98h-1.8c.02-.67.22-1.26.59-1.76.38-.51.87-.9,1.49-1.19.62-.29,1.31-.43,2.06-.43s1.48.15,2.06.46c.58.31,1.02.72,1.34,1.23.32.51.47,1.07.47,1.68,0,.69-.19,1.28-.58,1.76s-.9.81-1.55.97v.1c.82.12,1.46.45,1.91.98.45.53.68,1.18.67,1.96,0,.68-.18,1.29-.56,1.83-.38.54-.9.96-1.55,1.27-.66.31-1.41.46-2.25.46Z"/>
    <path class="cls-1" d="m105.21,127.52v-1.35l4.18-4.33c.45-.47.82-.88,1.11-1.24.29-.36.51-.7.66-1.02.14-.32.22-.66.22-1.03,0-.41-.1-.77-.29-1.07-.19-.3-.46-.53-.79-.69-.33-.16-.71-.24-1.13-.24-.44,0-.83.09-1.16.27s-.58.44-.76.77c-.18.33-.27.72-.27,1.16h-1.78c0-.75.17-1.41.52-1.97s.82-1,1.42-1.31c.6-.31,1.29-.47,2.06-.47s1.46.15,2.06.46c.59.31,1.06.73,1.39,1.26.33.53.5,1.13.5,1.79,0,.46-.09.91-.26,1.35-.17.44-.47.93-.89,1.46-.42.54-1.01,1.19-1.76,1.95l-2.46,2.57v.09h5.57v1.6h-8.14Z"/>
  </g>
  <path class="cls-2" d="m.17,105.29v-1.25c2.25-.01,3.78-.42,4.58-1.22s1.2-2.32,1.2-4.56v-10.23c0-1.42.14-2.65.43-3.7.29-1.05.72-1.92,1.31-2.61.59-.69,1.32-1.2,2.22-1.54.89-.34,1.94-.51,3.15-.51v1.25c-1.35-.01-2.46.23-3.33.72-.87.5-1.5,1.27-1.91,2.31-.41,1.05-.62,2.41-.62,4.07v10.23c0,1.29-.12,2.38-.37,3.27-.25.89-.64,1.61-1.19,2.17-.55.55-1.27.96-2.17,1.21s-2,.38-3.3.38Zm12.89,24.38c-1.21,0-2.26-.17-3.15-.51-.89-.34-1.63-.85-2.22-1.54-.59-.69-1.02-1.56-1.31-2.61-.29-1.05-.43-2.28-.43-3.7v-10.23c0-2.24-.4-3.76-1.2-4.56s-2.33-1.21-4.58-1.22v-1.25c1.3.01,2.4.15,3.3.4s1.62.65,2.17,1.2.94,1.27,1.19,2.16c.25.89.37,1.98.37,3.27v10.23c0,1.67.21,3.02.62,4.07.41,1.05,1.05,1.82,1.91,2.3.87.49,1.98.73,3.33.73v1.25ZM.17,105.29v-1.25h4.22v1.25H.17Z"/>
  <path class="cls-2" d="m.17,26.29v-1.25c2.25-.01,3.78-.42,4.58-1.22s1.2-2.32,1.2-4.56v-10.23c0-1.42.14-2.65.43-3.7.29-1.05.72-1.92,1.31-2.61.59-.69,1.32-1.2,2.22-1.54.89-.34,1.94-.51,3.15-.51v1.25c-1.35-.01-2.46.23-3.33.72-.87.5-1.5,1.27-1.91,2.31-.41,1.05-.62,2.41-.62,4.07v10.23c0,1.29-.12,2.38-.37,3.27-.25.89-.64,1.61-1.19,2.17-.55.55-1.27.96-2.17,1.21s-2,.38-3.3.38Zm12.89,24.38c-1.21,0-2.26-.17-3.15-.51-.89-.34-1.63-.85-2.22-1.54-.59-.69-1.02-1.56-1.31-2.61-.29-1.05-.43-2.28-.43-3.7v-10.23c0-2.24-.4-3.76-1.2-4.56s-2.33-1.21-4.58-1.22v-1.25c1.3.01,2.4.15,3.3.4s1.62.65,2.17,1.2.94,1.27,1.19,2.16c.25.89.37,1.98.37,3.27v10.23c0,1.67.21,3.02.62,4.07.41,1.05,1.05,1.82,1.91,2.3.87.49,1.98.73,3.33.73v1.25ZM.17,26.29v-1.25h4.22v1.25H.17Z"/>
</svg>