<?xml version="1.0" encoding="UTF-8"?>
<svg id="Layer_1" data-name="Layer 1" xmlns="http://www.w3.org/2000/svg" viewBox="0 0 241 628">
  <defs>
    <style>
      .cls-1 {
        fill: #fff;
      }

      .cls-2 {
        fill: #d1ae59;
      }
    </style>
  </defs>
  <path class="cls-2" d="m2.21,45.19v-2.16c3.89-.02,6.53-.73,7.91-2.11,1.38-1.38,2.08-4.01,2.08-7.88V15.37c0-2.45.25-4.58.74-6.39.49-1.81,1.25-3.31,2.26-4.5,1.01-1.19,2.29-2.08,3.83-2.67,1.54-.58,3.36-.88,5.45-.88v2.16c-2.34-.02-4.26.39-5.75,1.25-1.5.85-2.6,2.19-3.31,4-.71,1.81-1.06,4.16-1.06,7.03v17.68c0,2.23-.21,4.11-.64,5.65-.43,1.54-1.11,2.79-2.06,3.74-.94.96-2.19,1.65-3.74,2.09-1.55.44-3.45.66-5.7.66Zm22.27,42.1c-2.09,0-3.91-.29-5.45-.88s-2.82-1.47-3.83-2.67c-1.01-1.19-1.77-2.69-2.26-4.5-.5-1.81-.74-3.94-.74-6.39v-17.68c0-3.87-.69-6.49-2.08-7.88-1.38-1.38-4.02-2.09-7.91-2.11v-2.16c2.25.02,4.15.25,5.7.69,1.55.44,2.8,1.13,3.74,2.07s1.63,2.19,2.06,3.73c.43,1.54.64,3.42.64,5.65v17.68c0,2.88.35,5.22,1.06,7.03.71,1.81,1.81,3.14,3.31,3.98s3.41,1.27,5.75,1.27v2.16ZM2.21,45.19v-2.16h7.29v2.16H2.21Z"/>
  <path class="cls-2" d="m4.21,188.19v-2.16c3.89-.02,6.53-.73,7.91-2.11,1.38-1.38,2.08-4.01,2.08-7.88v-17.68c0-2.45.25-4.58.74-6.39.49-1.81,1.25-3.31,2.26-4.5,1.01-1.19,2.29-2.08,3.83-2.67,1.54-.58,3.36-.88,5.45-.88v2.16c-2.34-.02-4.26.39-5.75,1.25-1.5.85-2.6,2.19-3.31,4-.71,1.81-1.06,4.16-1.06,7.03v17.68c0,2.23-.21,4.11-.64,5.65-.43,1.54-1.11,2.79-2.06,3.75s-2.19,1.65-3.74,2.09c-1.55.44-3.45.66-5.7.66Zm22.27,42.1c-2.09,0-3.91-.29-5.45-.88s-2.82-1.47-3.83-2.67c-1.01-1.19-1.77-2.69-2.26-4.5-.5-1.81-.74-3.94-.74-6.39v-17.68c0-3.87-.69-6.49-2.08-7.88-1.38-1.38-4.02-2.09-7.91-2.11v-2.16c2.25.02,4.15.25,5.7.69,1.55.44,2.8,1.13,3.74,2.07.94.95,1.63,2.19,2.06,3.73.43,1.54.64,3.42.64,5.65v17.68c0,2.88.35,5.22,1.06,7.03.71,1.81,1.81,3.14,3.31,3.98s3.41,1.26,5.75,1.26v2.16Zm-22.27-42.1v-2.16h7.29v2.16h-7.29Z"/>
  <path class="cls-2" d="m11.44,375.53v-1.36c2.46-.01,4.12-.46,5-1.33.87-.87,1.31-2.53,1.31-4.98v-11.17c0-1.55.16-2.89.47-4.04.31-1.14.79-2.09,1.43-2.84.64-.75,1.44-1.31,2.42-1.68.97-.37,2.12-.55,3.44-.55v1.36c-1.48-.01-2.69.25-3.63.79-.95.54-1.64,1.38-2.09,2.53-.45,1.14-.67,2.62-.67,4.44v11.17c0,1.41-.13,2.6-.4,3.57-.27.97-.7,1.76-1.3,2.37s-1.39,1.04-2.37,1.32c-.98.28-2.18.42-3.6.42Zm14.06,26.59c-1.32,0-2.47-.18-3.44-.55-.97-.37-1.78-.93-2.42-1.68-.64-.75-1.12-1.7-1.43-2.84-.31-1.14-.47-2.49-.47-4.04v-11.16c0-2.44-.44-4.1-1.31-4.97s-2.54-1.32-5-1.33v-1.36c1.42.01,2.62.16,3.6.44.98.28,1.77.71,2.37,1.31.6.6,1.03,1.38,1.3,2.36.27.97.4,2.16.4,3.57v11.16c0,1.82.22,3.3.67,4.44.45,1.14,1.14,1.98,2.09,2.51.94.53,2.16.8,3.63.8v1.36Zm-14.06-26.59v-1.36h4.6v1.36h-4.6Z"/>
  <path class="cls-2" d="m10.44,445.53v-1.36c2.46-.01,4.12-.46,5-1.33.87-.87,1.31-2.53,1.31-4.98v-11.17c0-1.55.16-2.89.47-4.04.31-1.14.79-2.09,1.43-2.84.64-.75,1.44-1.31,2.42-1.68.97-.37,2.12-.55,3.44-.55v1.36c-1.48-.01-2.69.25-3.63.79-.95.54-1.64,1.38-2.09,2.53-.45,1.14-.67,2.62-.67,4.44v11.17c0,1.41-.13,2.6-.4,3.57-.27.97-.7,1.76-1.3,2.37s-1.39,1.04-2.37,1.32c-.98.28-2.18.42-3.6.42Zm14.06,26.59c-1.32,0-2.47-.18-3.44-.55-.97-.37-1.78-.93-2.42-1.68-.64-.75-1.12-1.7-1.43-2.84-.31-1.14-.47-2.49-.47-4.04v-11.16c0-2.44-.44-4.1-1.31-4.97s-2.54-1.32-5-1.33v-1.36c1.42.01,2.62.16,3.6.44.98.28,1.77.71,2.37,1.31.6.6,1.03,1.38,1.3,2.36.27.97.4,2.16.4,3.57v11.16c0,1.82.22,3.3.67,4.44.45,1.14,1.14,1.98,2.09,2.51.94.53,2.16.8,3.63.8v1.36Zm-14.06-26.59v-1.36h4.6v1.36h-4.6Z"/>
  <g>
    <path class="cls-1" d="m50.52,15.63v-1.35l4.18-4.33c.45-.47.82-.88,1.11-1.24.29-.36.51-.7.66-1.02.14-.32.22-.66.22-1.03,0-.41-.1-.77-.29-1.07-.19-.3-.46-.53-.79-.69-.33-.16-.71-.24-1.13-.24-.44,0-.83.09-1.16.27s-.58.44-.76.77c-.18.33-.27.72-.27,1.16h-1.78c0-.75.17-1.41.52-1.97s.82-1,1.42-1.31c.6-.31,1.29-.47,2.06-.47s1.46.15,2.06.46c.59.31,1.06.73,1.39,1.26.33.53.5,1.13.5,1.79,0,.46-.09.91-.26,1.35-.17.44-.47.93-.89,1.46-.42.54-1.01,1.19-1.76,1.95l-2.46,2.57v.09h5.57v1.6h-8.14Z"/>
    <path class="cls-1" d="m30.33,34.63v-1.35l4.18-4.33c.45-.47.82-.88,1.11-1.24.29-.36.51-.7.66-1.02.14-.32.22-.66.22-1.03,0-.41-.1-.77-.29-1.07-.19-.3-.46-.53-.79-.69-.33-.16-.71-.24-1.13-.24-.44,0-.83.09-1.16.27s-.58.44-.76.77c-.18.33-.27.72-.27,1.16h-1.78c0-.75.17-1.41.52-1.97s.82-1,1.42-1.31c.6-.31,1.29-.47,2.06-.47s1.46.15,2.06.46c.59.31,1.06.73,1.39,1.26.33.53.5,1.13.5,1.79,0,.46-.09.91-.26,1.35-.17.44-.47.93-.89,1.46-.42.54-1.01,1.19-1.76,1.95l-2.46,2.57v.09h5.57v1.6h-8.14Z"/>
    <path class="cls-1" d="m42.2,25.36l2.05,3.61,2.06-3.61h1.97l-2.89,4.64,2.92,4.64h-1.97l-2.09-3.47-2.08,3.47h-1.98l2.89-4.64-2.85-4.64h1.98Z"/>
    <path class="cls-1" d="m64.61,28.62v1.56h-5.48v-1.56h5.48Z"/>
    <path class="cls-1" d="m72.67,38.11c-.27,0-.52-.02-.74-.06-.22-.04-.39-.09-.5-.14l.43-1.48c.33.09.62.13.88.11.26-.01.49-.11.69-.29s.38-.48.53-.89l.22-.62-3.39-9.39h1.93l2.35,7.2h.1l2.35-7.2h1.94l-3.82,10.51c-.18.48-.4.89-.68,1.23-.27.34-.6.59-.98.76-.38.17-.82.25-1.32.25Z"/>
  </g>
  <g>
    <path class="cls-1" d="m126.41,15.99c-.83,0-1.57-.14-2.22-.43-.65-.29-1.16-.68-1.54-1.19-.38-.51-.58-1.1-.61-1.77h1.9c.02.37.15.68.37.95.22.27.52.47.88.62.36.15.76.22,1.21.22.49,0,.92-.08,1.29-.25s.67-.41.88-.71c.21-.3.32-.65.32-1.05s-.11-.78-.32-1.1c-.21-.32-.52-.56-.92-.75s-.89-.27-1.46-.27h-1.04v-1.52h1.04c.46,0,.86-.08,1.21-.25.35-.17.62-.4.82-.69.2-.3.3-.64.3-1.04s-.09-.72-.26-1-.41-.51-.72-.67c-.31-.16-.68-.24-1.1-.24s-.78.07-1.13.22c-.35.15-.63.36-.85.63-.22.27-.33.6-.35.98h-1.8c.02-.67.22-1.26.59-1.76.38-.51.87-.9,1.49-1.19.62-.29,1.31-.43,2.06-.43s1.48.15,2.06.46c.58.31,1.02.72,1.34,1.23.32.51.47,1.07.47,1.68,0,.69-.19,1.28-.58,1.76s-.9.81-1.55.97v.1c.82.12,1.46.45,1.91.98.45.53.68,1.18.67,1.96,0,.68-.18,1.29-.56,1.83-.38.54-.9.96-1.55,1.27-.66.31-1.41.46-2.25.46Z"/>
    <path class="cls-1" d="m103.63,25.55l2.05,3.61,2.06-3.61h1.97l-2.89,4.64,2.92,4.64h-1.97l-2.09-3.47-2.08,3.47h-1.98l2.89-4.64-2.85-4.64h1.98Z"/>
    <path class="cls-1" d="m126.04,27.85v1.57h-5.48v-1.57h5.48Z"/>
    <path class="cls-1" d="m132.93,34.82v-1.35l4.18-4.33c.45-.47.82-.88,1.11-1.24.29-.36.51-.7.66-1.02.14-.32.22-.66.22-1.03,0-.41-.1-.77-.29-1.07-.19-.3-.46-.53-.79-.69-.33-.16-.71-.24-1.13-.24-.44,0-.83.09-1.16.27s-.58.44-.76.77c-.18.33-.27.72-.27,1.16h-1.78c0-.75.17-1.41.52-1.97s.82-1,1.42-1.31c.6-.31,1.29-.47,2.06-.47s1.46.15,2.06.46c.59.31,1.06.73,1.39,1.26.33.53.5,1.13.5,1.79,0,.46-.09.91-.26,1.35-.17.44-.47.93-.89,1.46-.42.54-1.01,1.19-1.76,1.95l-2.46,2.57v.09h5.57v1.6h-8.14Z"/>
    <path class="cls-1" d="m144.52,38.3c-.27,0-.52-.02-.74-.06-.22-.04-.39-.09-.5-.14l.43-1.48c.33.09.62.13.88.11.26-.01.49-.11.69-.29s.38-.48.53-.89l.22-.62-3.39-9.39h1.93l2.35,7.2h.1l2.35-7.2h1.94l-3.82,10.51c-.18.48-.4.89-.68,1.23-.27.34-.6.59-.98.76-.38.17-.82.25-1.32.25Z"/>
  </g>
  <g>
    <path class="cls-1" d="m180.26,3.23v12.36h-1.87V5.1h-.07l-2.96,1.93v-1.79l3.08-2.02h1.82Z"/>
    <path class="cls-1" d="m174.37,34.6v-1.35l4.18-4.33c.45-.47.82-.88,1.11-1.24.29-.36.51-.7.66-1.02.14-.32.22-.66.22-1.03,0-.41-.1-.77-.29-1.07-.19-.3-.46-.53-.79-.69-.33-.16-.71-.24-1.13-.24-.44,0-.83.09-1.16.27s-.58.44-.76.77c-.18.33-.27.72-.27,1.16h-1.78c0-.75.17-1.41.52-1.97s.82-1,1.42-1.31c.6-.31,1.29-.47,2.06-.47s1.46.15,2.06.46c.59.31,1.06.73,1.39,1.26.33.53.5,1.13.5,1.79,0,.46-.09.91-.26,1.35-.17.44-.47.93-.89,1.46-.42.54-1.01,1.19-1.76,1.95l-2.46,2.57v.09h5.57v1.6h-8.14Z"/>
  </g>
  <path class="cls-1" d="m85.38,20.5v-1.62h8.16v1.62h-8.16Zm3.27,3.27v-8.16h1.62v8.16h-1.62Z"/>
  <path class="cls-1" d="m158.61,18.62v-1.59h7.73v1.59h-7.73Zm0,3.72v-1.59h7.73v1.59h-7.73Z"/>
  <rect class="cls-1" x="30" y="18.75" width="51" height="1.5"/>
  <rect class="cls-1" x="30" y="65.75" width="51" height="1.5"/>
  <rect class="cls-1" x="102" y="18.75" width="51" height="1.5"/>
  <rect class="cls-1" x="102" y="65.75" width="51" height="1.5"/>
  <rect class="cls-1" x="170" y="65.75" width="20" height="1.5"/>
  <rect class="cls-1" x="173" y="18.75" width="12" height="1.5"/>
  <rect class="cls-1" x="65" y="257.75" width="17" height="1.5"/>
  <rect class="cls-1" x="65" y="291.75" width="17" height="1.5"/>
  <g>
    <path class="cls-1" d="m116.26,149.23v12.36h-1.87v-10.49h-.07l-2.96,1.93v-1.79l3.08-2.02h1.82Z"/>
    <path class="cls-1" d="m110.37,180.6v-1.35l4.18-4.34c.45-.47.82-.88,1.11-1.24.29-.36.51-.7.66-1.02.14-.32.22-.66.22-1.03,0-.41-.1-.77-.29-1.07-.19-.3-.46-.53-.79-.69-.33-.16-.71-.24-1.13-.24-.44,0-.83.09-1.16.27s-.58.44-.76.77c-.18.33-.27.72-.27,1.16h-1.78c0-.75.17-1.41.52-1.97s.82-1,1.42-1.31c.6-.31,1.29-.47,2.06-.47s1.46.15,2.06.46c.59.31,1.06.73,1.39,1.26.33.53.5,1.13.5,1.79,0,.46-.09.91-.26,1.35-.17.44-.47.93-.89,1.46-.42.54-1.01,1.19-1.76,1.95l-2.46,2.57v.09h5.57v1.6h-8.14Z"/>
  </g>
  <rect class="cls-1" x="109" y="164.75" width="12" height="1.5"/>
  <path class="cls-1" d="m48.4,29.57v-.95l2.95-3.06c.32-.33.58-.62.78-.88.21-.25.36-.49.46-.72s.15-.47.15-.72c0-.29-.07-.54-.21-.75-.14-.21-.32-.38-.56-.49-.24-.11-.5-.17-.8-.17-.31,0-.59.06-.82.19-.23.13-.41.31-.54.54s-.19.51-.19.82h-1.26c0-.53.12-1,.37-1.39.24-.4.58-.71,1.01-.93s.91-.33,1.45-.33,1.03.11,1.45.33.75.51.98.89c.24.37.35.79.35,1.26,0,.32-.06.64-.18.95-.12.31-.33.65-.63,1.03-.3.38-.71.84-1.24,1.38l-1.73,1.81v.06h3.93v1.13h-5.74Z"/>
  <path class="cls-1" d="m50.4,357.57v-.95l2.95-3.06c.32-.33.58-.62.78-.88s.36-.49.46-.72.15-.47.15-.72c0-.29-.07-.54-.21-.75-.14-.21-.32-.38-.56-.49-.24-.12-.5-.17-.8-.17-.31,0-.59.06-.82.19-.23.13-.41.31-.54.54s-.19.51-.19.82h-1.26c0-.53.12-1,.37-1.39s.58-.71,1.01-.93.91-.33,1.45-.33,1.03.11,1.45.33c.42.22.75.51.98.89.24.37.35.79.35,1.26,0,.32-.06.64-.18.95-.12.31-.33.65-.63,1.03-.3.38-.71.84-1.24,1.38l-1.73,1.81v.06h3.93v1.13h-5.74Z"/>
  <path class="cls-1" d="m40.4,461.57v-.95l2.95-3.06c.32-.33.58-.62.78-.88s.36-.49.46-.72.15-.47.15-.72c0-.29-.07-.54-.21-.75-.14-.21-.32-.38-.56-.49-.24-.12-.5-.17-.8-.17-.31,0-.59.06-.82.19-.23.13-.41.31-.54.54s-.19.51-.19.82h-1.26c0-.53.12-1,.37-1.39s.58-.71,1.01-.93.91-.33,1.45-.33,1.03.11,1.45.33c.42.22.75.51.98.89.24.37.35.79.35,1.26,0,.32-.06.64-.18.95-.12.31-.33.65-.63,1.03-.3.38-.71.84-1.24,1.38l-1.73,1.81v.06h3.93v1.13h-5.74Z"/>
  <path class="cls-1" d="m39.4,392.57v-.95l2.95-3.06c.32-.33.58-.62.78-.88s.36-.49.46-.72.15-.47.15-.72c0-.29-.07-.54-.21-.75-.14-.21-.32-.38-.56-.49-.24-.12-.5-.17-.8-.17-.31,0-.59.06-.82.19-.23.13-.41.31-.54.54s-.19.51-.19.82h-1.26c0-.53.12-1,.37-1.39s.58-.71,1.01-.93.91-.33,1.45-.33,1.03.11,1.45.33c.42.22.75.51.98.89.24.37.35.79.35,1.26,0,.32-.06.64-.18.95-.12.31-.33.65-.63,1.03-.3.38-.71.84-1.24,1.38l-1.73,1.81v.06h3.93v1.13h-5.74Z"/>
  <path class="cls-1" d="m50.4,77.57v-.95l2.95-3.06c.32-.33.58-.62.78-.88.21-.25.36-.49.46-.72s.15-.47.15-.72c0-.29-.07-.54-.21-.75-.14-.21-.32-.38-.56-.49-.24-.11-.5-.17-.8-.17-.31,0-.59.06-.82.19-.23.13-.41.31-.54.54s-.19.51-.19.82h-1.26c0-.53.12-1,.37-1.39.24-.4.58-.71,1.01-.93s.91-.33,1.45-.33,1.03.11,1.45.33.75.51.98.89c.24.37.35.79.35,1.26,0,.32-.06.64-.18.95-.12.31-.33.65-.63,1.03-.3.38-.71.84-1.24,1.38l-1.73,1.81v.06h3.93v1.13h-5.74Z"/>
  <path class="cls-1" d="m112.4,77.57v-.95l2.95-3.06c.32-.33.58-.62.78-.88.21-.25.36-.49.46-.72s.15-.47.15-.72c0-.29-.07-.54-.21-.75-.14-.21-.32-.38-.56-.49-.24-.11-.5-.17-.8-.17-.31,0-.59.06-.82.19-.23.13-.41.31-.54.54s-.19.51-.19.82h-1.26c0-.53.12-1,.37-1.39.24-.4.58-.71,1.01-.93s.91-.33,1.45-.33,1.03.11,1.45.33.75.51.98.89c.24.37.35.79.35,1.26,0,.32-.06.64-.18.95-.12.31-.33.65-.63,1.03-.3.38-.71.84-1.24,1.38l-1.73,1.81v.06h3.93v1.13h-5.74Z"/>
  <path class="cls-1" d="m109.4,29.57v-.95l2.95-3.06c.32-.33.58-.62.78-.88.21-.25.36-.49.46-.72s.15-.47.15-.72c0-.29-.07-.54-.21-.75-.14-.21-.32-.38-.56-.49-.24-.11-.5-.17-.8-.17-.31,0-.59.06-.82.19-.23.13-.41.31-.54.54s-.19.51-.19.82h-1.26c0-.53.12-1,.37-1.39.24-.4.58-.71,1.01-.93s.91-.33,1.45-.33,1.03.11,1.45.33.75.51.98.89c.24.37.35.79.35,1.26,0,.32-.06.64-.18.95-.12.31-.33.65-.63,1.03-.3.38-.71.84-1.24,1.38l-1.73,1.81v.06h3.93v1.13h-5.74Z"/>
  <g>
    <path class="cls-1" d="m216.26,102.46v12.36h-1.87v-10.49h-.07l-2.96,1.93v-1.79l3.08-2.02h1.82Z"/>
    <path class="cls-1" d="m191.63,124.55l2.05,3.61,2.06-3.61h1.97l-2.89,4.64,2.92,4.64h-1.97l-2.09-3.47-2.08,3.47h-1.98l2.89-4.64-2.85-4.64h1.98Z"/>
    <path class="cls-1" d="m214.04,126.85v1.57h-5.48v-1.57h5.48Z"/>
    <path class="cls-1" d="m220.93,133.82v-1.35l4.18-4.33c.45-.47.82-.88,1.11-1.24.29-.36.51-.7.66-1.02.14-.32.22-.66.22-1.03,0-.41-.1-.77-.29-1.07-.19-.3-.46-.53-.79-.69-.33-.16-.71-.24-1.13-.24-.44,0-.83.09-1.16.27s-.58.44-.76.77c-.18.33-.27.72-.27,1.16h-1.78c0-.75.17-1.41.52-1.97s.82-1,1.42-1.31c.6-.31,1.29-.47,2.06-.47s1.46.15,2.06.46c.59.31,1.06.73,1.39,1.26.33.53.5,1.13.5,1.79,0,.46-.09.91-.26,1.35-.17.44-.47.93-.89,1.46-.42.54-1.01,1.19-1.76,1.95l-2.46,2.57v.09h5.57v1.6h-8.14Z"/>
    <path class="cls-1" d="m232.52,137.3c-.27,0-.52-.02-.74-.06-.22-.04-.39-.09-.5-.14l.43-1.48c.33.09.62.13.88.11.26-.01.49-.11.69-.29s.38-.48.53-.89l.22-.62-3.39-9.39h1.93l2.35,7.2h.1l2.35-7.2h1.94l-3.82,10.51c-.18.48-.4.89-.68,1.23-.27.34-.6.59-.98.76-.38.17-.82.25-1.32.25Z"/>
  </g>
  <rect class="cls-1" x="190" y="116.75" width="51" height="1.5"/>
  <path class="cls-1" d="m197.4,128.57v-.95l2.95-3.06c.32-.33.58-.62.78-.88.21-.25.36-.49.46-.72s.15-.47.15-.72c0-.29-.07-.54-.21-.75-.14-.21-.32-.38-.56-.49-.24-.11-.5-.17-.8-.17-.31,0-.59.06-.82.19-.23.13-.41.31-.54.54s-.19.51-.19.82h-1.26c0-.53.12-1,.37-1.39.24-.4.58-.71,1.01-.93s.91-.33,1.45-.33,1.03.11,1.45.33.75.51.98.89c.24.37.35.79.35,1.26,0,.32-.06.64-.18.95-.12.31-.33.65-.63,1.03-.3.38-.71.84-1.24,1.38l-1.73,1.81v.06h3.93v1.13h-5.74Z"/>
  <path class="cls-1" d="m193.2,21.84l-.09.66c-.06.48-.16.99-.31,1.51-.14.53-.29,1.01-.44,1.46-.15.45-.27.81-.37,1.07h-1.28c.05-.25.12-.59.22-1.01.09-.42.18-.9.27-1.42.09-.52.16-1.06.2-1.6l.06-.68h1.74Z"/>
  <g>
    <path class="cls-1" d="m51.56,63.69v-1.35l4.18-4.33c.45-.47.82-.88,1.11-1.24.29-.36.51-.7.66-1.02.14-.32.22-.66.22-1.03,0-.41-.1-.77-.29-1.07-.19-.3-.46-.53-.79-.69-.33-.16-.71-.24-1.13-.24-.44,0-.83.09-1.16.27s-.58.44-.76.77c-.18.33-.27.72-.27,1.16h-1.78c0-.75.17-1.41.52-1.97s.82-1,1.42-1.31c.6-.31,1.29-.47,2.06-.47s1.46.15,2.06.46c.59.31,1.06.73,1.39,1.26.33.53.5,1.13.5,1.79,0,.46-.09.91-.26,1.35-.17.44-.47.93-.89,1.46-.42.54-1.01,1.19-1.76,1.95l-2.46,2.57v.09h5.57v1.6h-8.14Z"/>
    <path class="cls-1" d="m31.37,82.69v-1.35l4.18-4.33c.45-.47.82-.88,1.11-1.24.29-.36.51-.7.66-1.02.14-.32.22-.66.22-1.03,0-.41-.1-.77-.29-1.07-.19-.3-.46-.53-.79-.69-.33-.16-.71-.24-1.13-.24-.44,0-.83.09-1.16.27s-.58.44-.76.77c-.18.33-.27.72-.27,1.16h-1.78c0-.75.17-1.41.52-1.97s.82-1,1.42-1.31c.6-.31,1.29-.47,2.06-.47s1.46.15,2.06.46c.59.31,1.06.73,1.39,1.26.33.53.5,1.13.5,1.79,0,.46-.09.91-.26,1.35-.17.44-.47.93-.89,1.46-.42.54-1.01,1.19-1.76,1.95l-2.46,2.57v.09h5.57v1.6h-8.14Z"/>
    <path class="cls-1" d="m43.24,73.41l2.05,3.61,2.06-3.61h1.97l-2.89,4.64,2.92,4.64h-1.97l-2.09-3.47-2.08,3.47h-1.98l2.89-4.64-2.85-4.64h1.98Z"/>
    <path class="cls-1" d="m65.66,76.68v1.56h-5.48v-1.56h5.48Z"/>
    <path class="cls-1" d="m73.71,86.16c-.27,0-.52-.02-.74-.06-.22-.04-.39-.09-.5-.14l.43-1.48c.33.09.62.13.88.11.26-.01.49-.11.69-.29s.38-.48.53-.89l.22-.62-3.39-9.39h1.93l2.35,7.2h.1l2.35-7.2h1.94l-3.82,10.51c-.18.48-.4.89-.68,1.23-.27.34-.6.59-.98.76-.38.17-.82.25-1.32.25Z"/>
  </g>
  <g>
    <rect class="cls-1" x="85" y="117.75" width="51" height="1.5"/>
    <path class="cls-1" d="m105.4,129.57v-.95l2.95-3.06c.32-.33.58-.62.78-.88.21-.25.36-.49.46-.72s.15-.47.15-.72c0-.29-.07-.54-.21-.75-.14-.21-.32-.38-.56-.49-.24-.11-.5-.17-.8-.17-.31,0-.59.06-.82.19-.23.13-.41.31-.54.54s-.19.51-.19.82h-1.26c0-.53.12-1,.37-1.39.24-.4.58-.71,1.01-.93s.91-.33,1.45-.33,1.03.11,1.45.33.75.51.98.89c.24.37.35.79.35,1.26,0,.32-.06.64-.18.95-.12.31-.33.65-.63,1.03-.3.38-.71.84-1.24,1.38l-1.73,1.81v.06h3.93v1.13h-5.74Z"/>
    <g>
      <path class="cls-1" d="m112.45,103.32v12.36h-1.87v-10.49h-.07l-2.96,1.93v-1.79l3.08-2.02h1.82Z"/>
      <path class="cls-1" d="m86.37,134.69v-1.35l4.18-4.33c.45-.47.82-.88,1.11-1.24.29-.36.51-.7.66-1.02.14-.32.22-.66.22-1.03,0-.41-.1-.77-.29-1.07-.19-.3-.46-.53-.79-.69-.33-.16-.71-.24-1.13-.24-.44,0-.83.09-1.16.27s-.58.44-.76.77c-.18.33-.27.72-.27,1.16h-1.78c0-.75.17-1.41.52-1.97s.82-1,1.42-1.31c.6-.31,1.29-.47,2.06-.47s1.46.15,2.06.46c.59.31,1.06.73,1.39,1.26.33.53.5,1.13.5,1.79,0,.46-.09.91-.26,1.35-.17.44-.47.93-.89,1.46-.42.54-1.01,1.19-1.76,1.95l-2.46,2.57v.09h5.57v1.6h-8.14Z"/>
      <path class="cls-1" d="m98.24,125.41l2.05,3.61,2.06-3.61h1.97l-2.89,4.64,2.92,4.64h-1.97l-2.09-3.47-2.08,3.47h-1.98l2.89-4.64-2.85-4.64h1.98Z"/>
      <path class="cls-1" d="m120.66,128.68v1.56h-5.48v-1.56h5.48Z"/>
      <path class="cls-1" d="m128.71,138.16c-.27,0-.52-.02-.74-.06-.22-.04-.39-.09-.5-.14l.43-1.48c.33.09.62.13.88.11.26-.01.49-.11.69-.29s.38-.48.53-.89l.22-.62-3.39-9.39h1.93l2.35,7.2h.1l2.35-7.2h1.94l-3.82,10.51c-.18.48-.4.89-.68,1.23-.27.34-.6.59-.98.76-.38.17-.82.25-1.32.25Z"/>
    </g>
  </g>
  <g>
    <path class="cls-1" d="m129.51,51.32v12.36h-1.87v-10.49h-.07l-2.96,1.93v-1.79l3.08-2.02h1.82Z"/>
    <path class="cls-1" d="m104.89,73.41l2.05,3.61,2.06-3.61h1.97l-2.89,4.64,2.92,4.64h-1.97l-2.09-3.47-2.08,3.47h-1.98l2.89-4.64-2.85-4.64h1.98Z"/>
    <path class="cls-1" d="m127.3,75.72v1.57h-5.48v-1.57h5.48Z"/>
    <path class="cls-1" d="m134.19,82.69v-1.35l4.18-4.33c.45-.47.82-.88,1.11-1.24.29-.36.51-.7.66-1.02.14-.32.22-.66.22-1.03,0-.41-.1-.77-.29-1.07-.19-.3-.46-.53-.79-.69-.33-.16-.71-.24-1.13-.24-.44,0-.83.09-1.16.27s-.58.44-.76.77c-.18.33-.27.72-.27,1.16h-1.78c0-.75.17-1.41.52-1.97s.82-1,1.42-1.31c.6-.31,1.29-.47,2.06-.47s1.46.15,2.06.46c.59.31,1.06.73,1.39,1.26.33.53.5,1.13.5,1.79,0,.46-.09.91-.26,1.35-.17.44-.47.93-.89,1.46-.42.54-1.01,1.19-1.76,1.95l-2.46,2.57v.09h5.57v1.6h-8.14Z"/>
    <path class="cls-1" d="m145.78,86.16c-.27,0-.52-.02-.74-.06-.22-.04-.39-.09-.5-.14l.43-1.48c.33.09.62.13.88.11.26-.01.49-.11.69-.29s.38-.48.53-.89l.22-.62-3.39-9.39h1.93l2.35,7.2h.1l2.35-7.2h1.94l-3.82,10.51c-.18.48-.4.89-.68,1.23-.27.34-.6.59-.98.76-.38.17-.82.25-1.32.25Z"/>
  </g>
  <g>
    <path class="cls-1" d="m180.59,51.32v12.36h-1.87v-10.49h-.07l-2.96,1.93v-1.79l3.08-2.02h1.82Z"/>
    <path class="cls-1" d="m175.23,70.32v12.36h-1.87v-10.49h-.07l-2.96,1.93v-1.79l3.08-2.02h1.82Z"/>
    <path class="cls-1" d="m182.75,82.85c-.87,0-1.63-.15-2.29-.45s-1.18-.71-1.55-1.23c-.37-.52-.56-1.12-.56-1.79,0-.52.1-1,.32-1.45.22-.44.52-.81.9-1.1.38-.3.8-.48,1.27-.56v-.07c-.62-.15-1.11-.48-1.48-.99-.37-.51-.55-1.1-.55-1.76,0-.63.16-1.2.5-1.69s.81-.89,1.4-1.17,1.27-.43,2.04-.43,1.43.14,2.02.43c.59.29,1.06.68,1.4,1.18.34.5.51,1.06.52,1.69,0,.66-.19,1.25-.57,1.76-.37.51-.86.84-1.46.99v.07c.46.08.88.27,1.25.56s.67.66.89,1.1c.22.44.34.92.34,1.45,0,.67-.19,1.26-.57,1.79-.37.52-.89.93-1.55,1.23s-1.42.45-2.28.45Zm0-1.53c.51,0,.95-.09,1.33-.26.37-.17.66-.41.87-.72.21-.31.31-.67.31-1.08,0-.43-.12-.81-.33-1.14-.22-.33-.52-.59-.89-.78-.37-.19-.8-.28-1.29-.28s-.92.09-1.3.28c-.38.19-.68.45-.89.78-.22.33-.32.71-.32,1.14,0,.41.1.78.3,1.08.2.31.49.55.87.72.38.17.83.26,1.34.26Zm0-5.75c.41,0,.77-.08,1.09-.25.32-.17.57-.39.75-.69.18-.29.28-.64.28-1.03,0-.39-.1-.72-.28-1.01-.18-.29-.43-.51-.75-.67-.32-.16-.69-.24-1.1-.24s-.8.08-1.12.24c-.32.16-.57.38-.75.67-.18.29-.26.63-.26,1.01,0,.39.08.74.27,1.03.18.29.43.52.75.69.32.17.69.25,1.11.25Z"/>
  </g>
  <rect class="cls-1" x="96" y="208.75" width="20" height="1.5"/>
  <g>
    <path class="cls-1" d="m107.59,194.32v12.36h-1.87v-10.49h-.07l-2.96,1.93v-1.79l3.08-2.02h1.82Z"/>
    <path class="cls-1" d="m102.23,213.32v12.36h-1.87v-10.49h-.07l-2.96,1.93v-1.79l3.08-2.02h1.82Z"/>
    <path class="cls-1" d="m109.75,225.85c-.87,0-1.63-.15-2.29-.45-.66-.3-1.18-.71-1.55-1.23-.37-.52-.56-1.12-.56-1.79,0-.52.1-1,.32-1.45.22-.44.52-.81.9-1.1.38-.3.8-.48,1.27-.56v-.07c-.62-.15-1.11-.48-1.48-.99-.37-.51-.55-1.1-.55-1.76,0-.63.16-1.2.5-1.69s.81-.89,1.4-1.17c.6-.29,1.27-.43,2.04-.43s1.43.14,2.02.43c.59.29,1.06.68,1.4,1.18.34.5.51,1.06.52,1.69,0,.66-.19,1.25-.57,1.76-.37.51-.86.84-1.46.99v.07c.46.08.88.27,1.25.56s.67.66.89,1.1c.22.44.34.92.34,1.45,0,.67-.19,1.26-.57,1.79-.37.52-.89.93-1.55,1.23-.66.3-1.42.45-2.28.45Zm0-1.53c.51,0,.95-.08,1.33-.26.37-.17.66-.41.87-.72.21-.31.31-.67.31-1.08,0-.43-.12-.81-.33-1.14-.22-.33-.52-.59-.89-.78-.37-.19-.8-.29-1.29-.29s-.92.1-1.3.29c-.38.19-.68.45-.89.78-.22.33-.32.71-.32,1.14,0,.42.1.78.3,1.08.2.31.49.55.87.72.38.17.83.26,1.34.26Zm0-5.75c.41,0,.77-.08,1.09-.25.32-.16.57-.39.75-.69.18-.29.28-.64.28-1.03,0-.39-.1-.72-.28-1.01-.18-.29-.43-.51-.75-.67-.32-.16-.69-.24-1.1-.24s-.8.08-1.12.24c-.32.16-.57.38-.75.67-.18.29-.26.63-.26,1.01,0,.39.08.74.27,1.03.18.29.43.52.75.69.32.17.69.25,1.11.25Z"/>
  </g>
  <path class="cls-1" d="m197.83,69.97l-.09.66c-.06.48-.16.99-.31,1.51-.14.53-.29,1.01-.44,1.46-.15.45-.27.81-.37,1.07h-1.28c.05-.25.12-.59.22-1.01.09-.42.18-.9.27-1.42.09-.52.16-1.06.2-1.6l.06-.68h1.74Zm-.94-4.94c-.33,0-.61-.12-.85-.36s-.36-.52-.36-.85.12-.61.36-.85c.24-.24.52-.35.85-.35s.61.12.85.35c.24.24.36.52.36.85,0,.22-.05.42-.17.61-.11.18-.26.33-.44.44-.18.11-.38.16-.6.16Z"/>
  <path class="cls-1" d="m93.48,65.5v1.56h-5.48v-1.56h5.48Z"/>
  <path class="cls-1" d="m158.1,65.57v-1.59h7.73v1.59h-7.73Zm0,3.72v-1.59h7.73v1.59h-7.73Z"/>
  <g>
    <path class="cls-1" d="m10.26,110.67v12.36h-1.86v-10.77H2.58v10.77H.72v-12.36h9.54Z"/>
    <path class="cls-1" d="m14.1,126.51c-.27,0-.52-.02-.74-.06-.22-.04-.39-.09-.5-.14l.43-1.48c.33.09.62.13.88.11.26-.01.49-.11.69-.29s.38-.48.53-.89l.22-.62-3.39-9.39h1.93l2.35,7.2h.1l2.35-7.2h1.94l-3.82,10.51c-.18.48-.4.89-.68,1.23-.27.34-.6.59-.98.76-.38.17-.82.25-1.32.25Z"/>
    <path class="cls-1" d="m26.5,123.22c-.9,0-1.67-.2-2.32-.61-.65-.41-1.14-.97-1.49-1.69-.35-.72-.52-1.55-.52-2.48s.18-1.77.53-2.5.85-1.29,1.5-1.69,1.4-.61,2.28-.61c.7,0,1.33.13,1.88.39.55.26,1,.62,1.34,1.09.34.47.54,1.01.61,1.64h-1.76c-.1-.43-.32-.81-.66-1.12s-.8-.47-1.38-.47c-.5,0-.94.13-1.32.4-.38.26-.67.64-.88,1.12-.21.49-.31,1.06-.31,1.72s.1,1.26.31,1.75c.21.49.5.87.87,1.14.38.27.82.4,1.33.4.34,0,.65-.06.93-.19.28-.13.51-.31.71-.55s.33-.52.4-.86h1.76c-.06.6-.26,1.14-.59,1.61s-.76.84-1.31,1.11c-.55.27-1.18.4-1.92.4Z"/>
    <path class="cls-1" d="m31.73,115.32v-1.56h7.82v1.56h-3.03v7.72h-1.76v-7.72h-3.04Z"/>
    <path class="cls-1" d="m42.82,116.95h2.69c1.13,0,2.01.28,2.62.85.61.56.92,1.29.92,2.18,0,.58-.14,1.1-.41,1.56-.27.46-.67.83-1.2,1.1-.53.27-1.17.4-1.93.4h-4.05v-9.27h1.77v7.72h2.28c.52,0,.95-.14,1.28-.41.33-.27.5-.62.5-1.04,0-.45-.17-.81-.5-1.1s-.76-.43-1.28-.43h-2.69v-1.56Z"/>
    <path class="cls-1" d="m58.27,123.24c-.59,0-1.12-.11-1.59-.33-.48-.22-.85-.54-1.13-.96s-.41-.93-.41-1.54c0-.52.1-.95.3-1.29.2-.34.47-.61.81-.8s.72-.35,1.15-.45c.42-.1.85-.18,1.29-.23.55-.06,1.01-.12,1.35-.16.35-.04.6-.11.75-.21s.24-.25.24-.47v-.04c0-.53-.15-.94-.44-1.23-.3-.29-.74-.43-1.32-.43s-1.09.13-1.43.4c-.35.27-.59.56-.72.89l-1.7-.39c.2-.56.5-1.02.88-1.37.39-.35.84-.6,1.34-.76.51-.16,1.04-.24,1.6-.24.37,0,.76.04,1.18.13.42.09.81.24,1.17.47.36.23.66.56.9.98.23.42.35.97.35,1.65v6.16h-1.76v-1.27h-.07c-.12.23-.29.46-.52.69-.23.23-.53.41-.9.56s-.8.22-1.32.22Zm.39-1.45c.5,0,.93-.1,1.28-.3.36-.2.63-.46.82-.78.19-.32.28-.66.28-1.03v-1.2c-.06.06-.19.12-.37.18-.18.05-.39.1-.62.14-.23.04-.46.07-.68.1-.22.03-.41.06-.56.08-.35.04-.67.12-.96.22s-.52.25-.69.45c-.17.2-.26.45-.26.78,0,.45.17.78.5,1.01.33.23.75.34,1.26.34Z"/>
    <path class="cls-1" d="m70.33,117.1v-1.59h7.73v1.59h-7.73Zm0,3.72v-1.59h7.73v1.59h-7.73Z"/>
    <path class="cls-1" d="m150.97,121.34l-.09.66c-.06.48-.16.99-.31,1.51-.14.53-.29,1.01-.44,1.46-.15.45-.27.81-.37,1.07h-1.28c.05-.25.12-.59.22-1.01.09-.42.18-.9.27-1.42.09-.52.16-1.06.2-1.6l.06-.68h1.74Z"/>
    <path class="cls-1" d="m157.97,123.03v-12.36h1.8v4.59h.11c.1-.19.25-.42.45-.67.2-.25.47-.48.82-.67.35-.19.81-.29,1.39-.29.75,0,1.42.19,2,.57.59.38,1.05.92,1.39,1.64s.5,1.57.5,2.57-.17,1.86-.5,2.57-.79,1.26-1.38,1.65c-.58.38-1.25.58-2,.58-.56,0-1.02-.09-1.38-.28-.36-.19-.63-.41-.84-.66-.2-.25-.36-.48-.46-.68h-.15v1.44h-1.76Zm1.77-4.64c0,.65.09,1.22.28,1.71.19.49.46.87.82,1.15.36.28.8.41,1.32.41s.99-.14,1.35-.43c.36-.29.64-.68.82-1.17.19-.49.28-1.05.28-1.67s-.09-1.16-.27-1.65c-.18-.49-.46-.87-.82-1.15s-.82-.42-1.36-.42-.96.13-1.33.4-.63.65-.82,1.13c-.19.48-.28,1.05-.28,1.69Z"/>
    <path class="cls-1" d="m173.54,117.1v-1.59h7.73v1.59h-7.73Zm0,3.72v-1.59h7.73v1.59h-7.73Z"/>
  </g>
  <g>
    <path class="cls-1" d="m29.74,170.81v-1.35l4.18-4.33c.45-.47.82-.88,1.11-1.24.29-.36.51-.7.66-1.02.14-.32.22-.66.22-1.03,0-.41-.1-.77-.29-1.07s-.46-.53-.79-.69-.71-.25-1.13-.25c-.44,0-.83.09-1.16.27-.33.18-.58.44-.76.77s-.27.72-.27,1.16h-1.78c0-.75.17-1.41.52-1.97s.82-1,1.42-1.31c.6-.31,1.29-.47,2.06-.47s1.46.15,2.06.46c.59.31,1.06.73,1.39,1.26s.5,1.13.5,1.79c0,.46-.09.91-.26,1.35s-.47.93-.89,1.46c-.42.54-1.01,1.19-1.76,1.95l-2.46,2.57v.09h5.57v1.6h-8.14Z"/>
    <path class="cls-1" d="m42.89,171.01c-.59,0-1.12-.11-1.59-.33-.48-.22-.85-.54-1.13-.96-.28-.42-.41-.93-.41-1.54,0-.52.1-.95.3-1.29.2-.34.47-.61.81-.8s.72-.35,1.15-.45c.42-.1.85-.18,1.29-.23.55-.06,1.01-.12,1.35-.16.35-.04.6-.11.75-.21.16-.1.24-.25.24-.47v-.04c0-.53-.15-.94-.44-1.23s-.74-.43-1.32-.43-1.09.13-1.43.4c-.35.27-.59.56-.72.89l-1.7-.39c.2-.56.5-1.02.88-1.37.39-.35.84-.6,1.34-.76.51-.16,1.04-.24,1.6-.24.37,0,.76.04,1.18.13.42.09.81.24,1.17.47s.66.56.9.98.35.97.35,1.65v6.16h-1.76v-1.27h-.07c-.12.23-.29.46-.52.69-.23.22-.53.41-.9.56-.37.15-.8.22-1.32.22Zm.39-1.45c.5,0,.93-.1,1.28-.3.36-.2.63-.46.82-.78.19-.32.28-.66.28-1.03v-1.2c-.06.06-.19.12-.37.18-.18.05-.39.1-.62.14s-.46.07-.68.1c-.22.03-.41.06-.56.08-.35.04-.67.12-.96.22s-.52.25-.69.45c-.17.2-.26.45-.26.78,0,.45.17.78.5,1.01s.75.34,1.26.34Z"/>
    <path class="cls-1" d="m54.74,165.46v-1.62h8.16v1.62h-8.16Zm3.27,3.27v-8.16h1.62v8.16h-1.62Z"/>
    <path class="cls-1" d="m74.47,170.98c-.83,0-1.57-.14-2.22-.43-.65-.29-1.16-.68-1.54-1.19-.38-.51-.58-1.1-.61-1.77h1.9c.02.37.15.68.37.95.22.27.52.47.88.62.36.15.76.22,1.21.22.49,0,.92-.08,1.29-.25s.67-.41.88-.71c.21-.3.32-.66.32-1.05s-.11-.78-.32-1.1c-.21-.32-.52-.56-.92-.75-.4-.18-.89-.27-1.46-.27h-1.04v-1.52h1.04c.46,0,.86-.08,1.21-.25.35-.17.62-.4.82-.69s.3-.64.3-1.04-.09-.72-.26-1c-.17-.28-.41-.51-.72-.67-.31-.16-.68-.24-1.1-.24s-.78.07-1.13.22c-.35.15-.63.36-.85.63-.22.27-.33.6-.35.97h-1.8c.02-.67.22-1.25.59-1.76.38-.51.87-.9,1.49-1.19.62-.29,1.31-.43,2.06-.43s1.48.15,2.06.46c.58.31,1.02.72,1.34,1.23.32.51.47,1.07.47,1.68,0,.69-.19,1.28-.58,1.76-.39.48-.9.81-1.55.97v.1c.82.12,1.46.45,1.91.98.45.53.68,1.18.67,1.96,0,.68-.18,1.29-.56,1.83-.38.54-.9.96-1.55,1.27s-1.41.46-2.25.46Z"/>
    <path class="cls-1" d="m81.29,170.81v-12.36h1.8v4.59h.11c.1-.19.25-.42.45-.67.2-.25.47-.48.82-.67.35-.19.81-.29,1.39-.29.75,0,1.42.19,2,.57.59.38,1.05.92,1.39,1.64.34.71.5,1.57.5,2.57s-.17,1.86-.5,2.57c-.33.71-.79,1.26-1.38,1.65-.58.38-1.25.58-2,.58-.56,0-1.02-.09-1.38-.28-.36-.19-.63-.41-.84-.66-.2-.25-.36-.48-.46-.68h-.15v1.44h-1.76Zm1.77-4.64c0,.65.09,1.22.28,1.71.19.49.46.87.82,1.15.36.28.8.41,1.32.41s.99-.14,1.35-.43.64-.68.82-1.17c.19-.5.28-1.05.28-1.67s-.09-1.16-.27-1.65c-.18-.49-.46-.87-.82-1.15-.36-.28-.82-.42-1.36-.42s-.96.13-1.33.4c-.36.27-.63.65-.82,1.13-.19.48-.28,1.05-.28,1.69Z"/>
    <path class="cls-1" d="m96.86,164.87v-1.59h7.73v1.59h-7.73Zm0,3.72v-1.59h7.73v1.59h-7.73Z"/>
    <path class="cls-1" d="m127.96,169.12l-.09.66c-.06.48-.16.99-.31,1.51-.14.53-.29,1.01-.44,1.46-.15.45-.27.81-.37,1.07h-1.28c.05-.25.12-.59.22-1.01.09-.42.18-.9.27-1.42.09-.52.16-1.06.2-1.6l.06-.68h1.74Z"/>
    <path class="cls-1" d="m29.74,215.81v-1.35l4.18-4.33c.45-.47.82-.88,1.11-1.24.29-.36.51-.7.66-1.02.14-.32.22-.66.22-1.03,0-.41-.1-.77-.29-1.07s-.46-.53-.79-.69-.71-.25-1.13-.25c-.44,0-.83.09-1.16.27-.33.18-.58.44-.76.77s-.27.72-.27,1.16h-1.78c0-.75.17-1.41.52-1.97s.82-1,1.42-1.31c.6-.31,1.29-.47,2.06-.47s1.46.15,2.06.46c.59.31,1.06.73,1.39,1.26s.5,1.13.5,1.79c0,.46-.09.91-.26,1.35s-.47.93-.89,1.46c-.42.54-1.01,1.19-1.76,1.95l-2.46,2.57v.09h5.57v1.6h-8.14Z"/>
    <path class="cls-1" d="m42.89,216.01c-.59,0-1.12-.11-1.59-.33-.48-.22-.85-.54-1.13-.96-.28-.42-.41-.93-.41-1.54,0-.52.1-.95.3-1.29.2-.34.47-.61.81-.8s.72-.35,1.15-.45c.42-.1.85-.18,1.29-.23.55-.06,1.01-.12,1.35-.16.35-.04.6-.11.75-.21.16-.1.24-.25.24-.47v-.04c0-.53-.15-.94-.44-1.23s-.74-.43-1.32-.43-1.09.13-1.43.4c-.35.27-.59.56-.72.89l-1.7-.39c.2-.56.5-1.02.88-1.37.39-.35.84-.6,1.34-.76.51-.16,1.04-.24,1.6-.24.37,0,.76.04,1.18.13.42.09.81.24,1.17.47s.66.56.9.98.35.97.35,1.65v6.16h-1.76v-1.27h-.07c-.12.23-.29.46-.52.69-.23.22-.53.41-.9.56-.37.15-.8.22-1.32.22Zm.39-1.45c.5,0,.93-.1,1.28-.3.36-.2.63-.46.82-.78.19-.32.28-.66.28-1.03v-1.2c-.06.06-.19.12-.37.18-.18.05-.39.1-.62.14s-.46.07-.68.1c-.22.03-.41.06-.56.08-.35.04-.67.12-.96.22s-.52.25-.69.45c-.17.2-.26.45-.26.78,0,.45.17.78.5,1.01s.75.34,1.26.34Z"/>
    <path class="cls-1" d="m59.83,209.8v1.56h-5.48v-1.56h5.48Z"/>
    <path class="cls-1" d="m66.89,215.81v-12.36h1.8v4.59h.11c.1-.19.25-.42.45-.67.2-.25.47-.48.82-.67.35-.19.81-.29,1.39-.29.75,0,1.42.19,2,.57.59.38,1.05.92,1.39,1.64.34.71.5,1.57.5,2.57s-.17,1.86-.5,2.57c-.33.71-.79,1.26-1.38,1.65-.58.38-1.25.58-2,.58-.56,0-1.02-.09-1.38-.28-.36-.19-.63-.41-.84-.66-.2-.25-.36-.48-.46-.68h-.15v1.44h-1.76Zm1.77-4.64c0,.65.09,1.22.28,1.71.19.49.46.87.82,1.15.36.28.8.41,1.32.41s.99-.14,1.35-.43.64-.68.82-1.17c.19-.5.28-1.05.28-1.67s-.09-1.16-.27-1.65c-.18-.49-.46-.87-.82-1.15-.36-.28-.82-.42-1.36-.42s-.96.13-1.33.4c-.36.27-.63.65-.82,1.13-.19.48-.28,1.05-.28,1.69Z"/>
    <path class="cls-1" d="m82.47,209.87v-1.59h7.73v1.59h-7.73Zm0,3.72v-1.59h7.73v1.59h-7.73Z"/>
    <path class="cls-1" d="m122.57,214.12l-.09.66c-.06.48-.16.99-.31,1.51-.14.53-.29,1.01-.44,1.46-.15.45-.27.81-.37,1.07h-1.28c.05-.25.12-.59.22-1.01.09-.42.18-.9.27-1.42.09-.52.16-1.06.2-1.6l.06-.68h1.74Zm-.94-4.94c-.33,0-.61-.12-.85-.36-.24-.24-.36-.52-.36-.85s.12-.61.36-.85.52-.35.85-.35.61.12.85.35c.24.24.36.52.36.85,0,.22-.05.42-.17.61-.11.18-.26.33-.44.44-.18.11-.38.16-.6.16Z"/>
  </g>
  <g>
    <path class="cls-1" d="m38.37,264.13c-.59,0-1.12-.11-1.59-.33-.48-.22-.85-.54-1.13-.96-.28-.42-.41-.93-.41-1.54,0-.52.1-.95.3-1.29.2-.34.47-.61.81-.8s.72-.35,1.15-.45c.42-.1.85-.18,1.29-.23.55-.06,1.01-.12,1.35-.16.35-.04.6-.11.75-.21.16-.1.24-.25.24-.47v-.04c0-.53-.15-.94-.44-1.23s-.74-.43-1.32-.43-1.09.13-1.43.4c-.35.27-.59.56-.72.89l-1.7-.39c.2-.56.5-1.02.88-1.37.39-.35.84-.6,1.34-.76.51-.16,1.04-.24,1.6-.24.37,0,.76.04,1.18.13.42.09.81.24,1.17.47s.66.56.9.98.35.97.35,1.65v6.16h-1.76v-1.27h-.07c-.12.23-.29.46-.52.69-.23.22-.53.41-.9.56-.37.15-.8.22-1.32.22Zm.39-1.45c.5,0,.93-.1,1.28-.3.36-.2.63-.46.82-.78.19-.32.28-.66.28-1.03v-1.2c-.06.06-.19.12-.37.18-.18.05-.39.1-.62.14s-.46.07-.68.1c-.22.03-.41.06-.56.08-.35.04-.67.12-.96.22s-.52.25-.69.45c-.17.2-.26.45-.26.78,0,.45.17.78.5,1.01s.75.34,1.26.34Z"/>
    <path class="cls-1" d="m50.43,257.99v-1.59h7.73v1.59h-7.73Zm0,3.72v-1.59h7.73v1.59h-7.73Z"/>
    <path class="cls-1" d="m35.82,296.92v-12.36h1.8v4.59h.11c.1-.19.25-.42.45-.67.2-.25.47-.48.82-.67.35-.19.81-.29,1.39-.29.75,0,1.42.19,2,.57.59.38,1.05.92,1.39,1.64.34.71.5,1.57.5,2.57s-.17,1.86-.5,2.57c-.33.71-.79,1.26-1.38,1.65-.58.38-1.25.58-2,.58-.56,0-1.02-.09-1.38-.28-.36-.19-.63-.41-.84-.66-.2-.25-.36-.48-.46-.68h-.15v1.44h-1.76Zm1.77-4.64c0,.65.09,1.22.28,1.71.19.49.46.87.82,1.15.36.28.8.41,1.32.41s.99-.14,1.35-.43.64-.68.82-1.17c.19-.5.28-1.05.28-1.67s-.09-1.16-.27-1.65c-.18-.49-.46-.87-.82-1.15-.36-.28-.82-.42-1.36-.42s-.96.13-1.33.4c-.36.27-.63.65-.82,1.13-.19.48-.28,1.05-.28,1.69Z"/>
    <path class="cls-1" d="m51.39,290.99v-1.59h7.73v1.59h-7.73Zm0,3.72v-1.59h7.73v1.59h-7.73Z"/>
  </g>
  <g>
    <path class="cls-1" d="m75.48,243.93v12.36h-1.87v-10.49h-.07l-2.96,1.93v-1.79l3.08-2.02h1.82Z"/>
    <path class="cls-1" d="m70.27,260.93v12.36h-1.87v-10.49h-.07l-2.96,1.93v-1.79l3.08-2.02h1.82Z"/>
    <path class="cls-1" d="m73.61,273.29v-1.35l4.18-4.33c.45-.47.82-.88,1.11-1.24.29-.36.51-.7.66-1.02.14-.32.22-.66.22-1.03,0-.41-.1-.77-.29-1.07s-.46-.53-.79-.69-.71-.25-1.13-.25c-.44,0-.83.09-1.16.27-.33.18-.58.44-.76.77s-.27.72-.27,1.16h-1.78c0-.75.17-1.41.52-1.97s.82-1,1.42-1.31c.6-.31,1.29-.47,2.06-.47s1.46.15,2.06.46c.59.31,1.06.73,1.39,1.26s.5,1.13.5,1.79c0,.46-.09.91-.26,1.35s-.47.93-.89,1.46c-.42.54-1.01,1.19-1.76,1.95l-2.46,2.57v.09h5.57v1.6h-8.14Z"/>
  </g>
  <g>
    <path class="cls-1" d="m75.33,277.99v12.36h-1.87v-10.49h-.07l-2.96,1.93v-1.79l3.08-2.02h1.82Z"/>
    <path class="cls-1" d="m73.37,294.82c.55,0,1.09.1,1.63.3s1.02.52,1.45.97c.43.45.78,1.05,1.04,1.81s.39,1.7.4,2.83c0,1.08-.11,2.05-.33,2.89-.22.84-.53,1.55-.93,2.13-.4.58-.89,1.02-1.47,1.32-.58.3-1.22.45-1.94.45s-1.39-.14-1.96-.43-1.04-.69-1.39-1.2c-.36-.51-.58-1.1-.67-1.77h1.84c.12.53.37.96.74,1.29.37.33.85.49,1.45.49.91,0,1.61-.4,2.12-1.19.51-.79.76-1.9.77-3.32h-.1c-.21.35-.47.64-.78.89-.31.25-.66.44-1.05.58-.39.14-.8.21-1.24.21-.71,0-1.36-.17-1.94-.53-.58-.35-1.05-.83-1.39-1.44-.35-.61-.52-1.31-.52-2.09s.18-1.49.53-2.12c.36-.64.86-1.14,1.5-1.51.64-.37,1.4-.55,2.26-.55Zm0,1.57c-.47,0-.89.12-1.27.35-.38.23-.67.54-.89.94-.22.39-.33.83-.33,1.31s.11.91.32,1.3c.21.39.5.7.87.92s.79.34,1.26.34c.35,0,.68-.07.99-.21.31-.14.57-.33.8-.57.23-.24.41-.52.54-.83.13-.31.19-.64.19-.98,0-.45-.11-.88-.32-1.27-.22-.39-.51-.71-.88-.94-.37-.24-.8-.36-1.28-.36Z"/>
  </g>
  <g>
    <path class="cls-1" d="m-.02,321.29v-1.61h9.57v1.61h-3.86v10.76h-1.86v-10.76H-.02Z"/>
    <path class="cls-1" d="m15.42,332.23c-.87,0-1.63-.2-2.28-.6-.65-.4-1.15-.96-1.51-1.67-.36-.72-.54-1.55-.54-2.51s.18-1.8.54-2.52c.36-.72.86-1.28,1.51-1.68.65-.4,1.41-.6,2.28-.6s1.63.2,2.28.6c.65.4,1.15.96,1.51,1.68.36.72.54,1.56.54,2.52s-.18,1.79-.54,2.51c-.36.72-.86,1.27-1.51,1.67-.65.4-1.41.6-2.28.6Zm0-1.52c.56,0,1.03-.15,1.4-.45.37-.3.64-.69.82-1.19.18-.5.27-1.04.27-1.64s-.09-1.14-.27-1.63c-.18-.5-.45-.9-.82-1.2-.37-.3-.84-.45-1.4-.45s-1.04.15-1.41.45-.65.7-.83,1.2-.27,1.04-.27,1.63.09,1.14.27,1.64.46.89.83,1.19.84.45,1.41.45Z"/>
    <path class="cls-1" d="m27.68,322.77v1.56h-4.15v7.71h-1.78v-9.27h5.93Z"/>
    <path class="cls-1" d="m28.68,334.72v-4.24h.75c.19-.18.36-.39.49-.63.13-.25.25-.54.34-.88.09-.34.17-.73.24-1.19.06-.45.12-.97.17-1.55l.29-3.46h6.3v7.71h1.42v4.24h-1.76v-2.67h-6.47v2.67h-1.79Zm2.69-4.24h4.14v-6.16h-2.92l-.19,1.91c-.09.97-.21,1.82-.35,2.53-.14.71-.37,1.29-.68,1.72Z"/>
    <path class="cls-1" d="m43.15,332.25c-.59,0-1.12-.11-1.59-.33-.48-.22-.85-.54-1.13-.96-.28-.42-.41-.93-.41-1.54,0-.52.1-.95.3-1.29.2-.34.47-.61.81-.8s.72-.35,1.15-.45c.42-.1.85-.18,1.29-.23.55-.06,1.01-.12,1.35-.16.35-.04.6-.11.75-.21.16-.1.24-.25.24-.47v-.04c0-.53-.15-.94-.44-1.23s-.74-.43-1.32-.43-1.09.13-1.43.4c-.35.27-.59.56-.72.89l-1.7-.39c.2-.56.5-1.02.88-1.37.39-.35.84-.6,1.34-.76.51-.16,1.04-.24,1.6-.24.37,0,.76.04,1.18.13.42.09.81.24,1.17.47s.66.56.9.98.35.97.35,1.65v6.16h-1.76v-1.27h-.07c-.12.23-.29.46-.52.69-.23.22-.53.41-.9.56-.37.15-.8.22-1.32.22Zm.39-1.45c.5,0,.93-.1,1.28-.3.36-.2.63-.46.82-.78.19-.32.28-.66.28-1.03v-1.2c-.06.06-.19.12-.37.18-.18.05-.39.1-.62.14s-.46.07-.68.1c-.22.03-.41.06-.56.08-.35.04-.67.12-.96.22s-.52.25-.69.45c-.17.2-.26.45-.26.78,0,.45.17.78.5,1.01s.75.34,1.26.34Z"/>
  </g>
  <g>
    <path class="cls-1" d="m30.91,364.88v-1.35l4.18-4.33c.45-.47.82-.88,1.11-1.24.29-.36.51-.7.66-1.02.14-.32.22-.66.22-1.03,0-.41-.1-.77-.29-1.07s-.46-.53-.79-.69-.71-.25-1.13-.25c-.44,0-.83.09-1.16.27-.33.18-.58.44-.76.77s-.27.72-.27,1.16h-1.78c0-.75.17-1.41.52-1.97s.82-1,1.42-1.31c.6-.31,1.29-.47,2.06-.47s1.46.15,2.06.46c.59.31,1.06.73,1.39,1.26s.5,1.13.5,1.79c0,.46-.09.91-.26,1.35s-.47.93-.89,1.46c-.42.54-1.01,1.19-1.76,1.95l-2.46,2.57v.09h5.57v1.6h-8.14Z"/>
    <path class="cls-1" d="m42.78,355.6l2.05,3.61,2.06-3.61h1.97l-2.89,4.64,2.92,4.64h-1.97l-2.09-3.46-2.08,3.46h-1.98l2.89-4.64-2.85-4.64h1.98Z"/>
    <path class="cls-1" d="m65.2,358.87v1.56h-5.48v-1.56h5.48Z"/>
    <path class="cls-1" d="m73.25,368.35c-.27,0-.52-.02-.74-.06-.22-.04-.39-.09-.5-.14l.43-1.48c.33.09.62.13.88.12.26-.01.49-.11.69-.29.2-.18.38-.48.53-.89l.22-.62-3.39-9.39h1.93l2.35,7.2h.1l2.35-7.2h1.94l-3.82,10.51c-.18.48-.4.89-.68,1.23s-.6.59-.98.76c-.38.17-.82.25-1.32.25Z"/>
    <path class="cls-1" d="m86.82,357.63v-1.58h7.73v1.58h-7.73Zm0,3.72v-1.58h7.73v1.58h-7.73Z"/>
    <path class="cls-1" d="m106.73,352.51v12.36h-1.87v-10.49h-.07l-2.96,1.93v-1.79l3.08-2.02h1.82Z"/>
    <path class="cls-1" d="m110.08,364.88v-1.35l4.18-4.33c.45-.47.82-.88,1.11-1.24.29-.36.51-.7.66-1.02.14-.32.22-.66.22-1.03,0-.41-.1-.77-.29-1.07s-.46-.53-.79-.69-.71-.25-1.13-.25c-.44,0-.83.09-1.16.27-.33.18-.58.44-.76.77s-.27.72-.27,1.16h-1.78c0-.75.17-1.41.52-1.97s.82-1,1.42-1.31c.6-.31,1.29-.47,2.06-.47s1.46.15,2.06.46c.59.31,1.06.73,1.39,1.26s.5,1.13.5,1.79c0,.46-.09.91-.26,1.35s-.47.93-.89,1.46c-.42.54-1.01,1.19-1.76,1.95l-2.46,2.57v.09h5.57v1.6h-8.14Z"/>
    <path class="cls-1" d="m122.87,363.19l-.09.66c-.06.48-.16.99-.31,1.51-.14.53-.29,1.01-.44,1.46-.15.45-.27.81-.37,1.07h-1.28c.05-.25.12-.59.22-1.01.09-.42.18-.9.27-1.42.09-.52.16-1.06.2-1.6l.06-.68h1.74Z"/>
    <path class="cls-1" d="m32.36,388.6l2.05,3.61,2.06-3.61h1.97l-2.89,4.64,2.92,4.64h-1.97l-2.09-3.46-2.08,3.46h-1.98l2.89-4.64-2.85-4.64h1.98Z"/>
    <path class="cls-1" d="m54.77,390.91v1.57h-5.48v-1.57h5.48Z"/>
    <path class="cls-1" d="m61.66,397.88v-1.35l4.18-4.33c.45-.47.82-.88,1.11-1.24.29-.36.51-.7.66-1.02.14-.32.22-.66.22-1.03,0-.41-.1-.77-.29-1.07s-.46-.53-.79-.69-.71-.25-1.13-.25c-.44,0-.83.09-1.16.27-.33.18-.58.44-.76.77s-.27.72-.27,1.16h-1.78c0-.75.17-1.41.52-1.97s.82-1,1.42-1.31c.6-.31,1.29-.47,2.06-.47s1.46.15,2.06.46c.59.31,1.06.73,1.39,1.26s.5,1.13.5,1.79c0,.46-.09.91-.26,1.35s-.47.93-.89,1.46c-.42.54-1.01,1.19-1.76,1.95l-2.46,2.57v.09h5.57v1.6h-8.14Z"/>
    <path class="cls-1" d="m73.25,401.35c-.27,0-.52-.02-.74-.06-.22-.04-.39-.09-.5-.14l.43-1.48c.33.09.62.13.88.12.26-.01.49-.11.69-.29.2-.18.38-.48.53-.89l.22-.62-3.39-9.39h1.93l2.35,7.2h.1l2.35-7.2h1.94l-3.82,10.51c-.18.48-.4.89-.68,1.23s-.6.59-.98.76c-.38.17-.82.25-1.32.25Z"/>
    <path class="cls-1" d="m86.82,390.63v-1.58h7.73v1.58h-7.73Zm0,3.72v-1.58h7.73v1.58h-7.73Z"/>
    <path class="cls-1" d="m106.15,385.34c.55,0,1.09.1,1.63.3s1.02.52,1.45.97c.43.45.78,1.05,1.04,1.81s.39,1.7.4,2.83c0,1.08-.11,2.05-.33,2.89-.22.84-.53,1.55-.93,2.13-.4.58-.89,1.02-1.47,1.32-.58.3-1.22.45-1.94.45s-1.39-.14-1.96-.43-1.04-.69-1.39-1.2c-.36-.51-.58-1.1-.67-1.77h1.84c.12.53.37.96.74,1.29.37.33.85.49,1.45.49.91,0,1.61-.4,2.12-1.19.51-.79.76-1.9.77-3.32h-.1c-.21.35-.47.64-.78.89-.31.25-.66.44-1.05.58-.39.14-.8.21-1.24.21-.71,0-1.36-.17-1.94-.53-.58-.35-1.05-.83-1.39-1.44-.35-.61-.52-1.31-.52-2.09s.18-1.49.53-2.12c.36-.64.86-1.14,1.5-1.51.64-.37,1.4-.55,2.26-.55Zm0,1.57c-.47,0-.89.12-1.27.35-.38.23-.67.54-.89.94-.22.39-.33.83-.33,1.31s.11.91.32,1.3c.21.39.5.7.87.92s.79.34,1.26.34c.35,0,.68-.07.99-.21.31-.14.57-.33.8-.57.23-.24.41-.52.54-.83.13-.31.19-.64.19-.98,0-.45-.11-.88-.32-1.27-.22-.39-.51-.71-.88-.94-.37-.24-.8-.36-1.28-.36Z"/>
    <path class="cls-1" d="m115.22,396.19l-.09.66c-.06.48-.16.99-.31,1.51-.14.53-.29,1.01-.44,1.46-.15.45-.27.81-.37,1.07h-1.28c.05-.25.12-.59.22-1.01.09-.42.18-.9.27-1.42.09-.52.16-1.06.2-1.6l.06-.68h1.74Zm-.94-4.94c-.33,0-.61-.12-.85-.36-.24-.24-.36-.52-.36-.85s.12-.61.36-.85.52-.35.85-.35.61.12.85.35c.24.24.36.52.36.85,0,.22-.05.42-.17.61-.11.18-.26.33-.44.44-.18.11-.38.16-.6.16Z"/>
  </g>
  <g>
    <path class="cls-1" d="m32.15,438.63c-.27,0-.52-.02-.74-.06-.22-.04-.39-.09-.5-.14l.43-1.48c.33.09.62.13.88.12.26-.01.49-.11.69-.29.2-.18.38-.48.53-.89l.22-.62-3.39-9.39h1.93l2.35,7.2h.1l2.35-7.2h1.94l-3.82,10.51c-.18.48-.4.89-.68,1.23s-.6.59-.98.76c-.38.17-.82.25-1.32.25Z"/>
    <path class="cls-1" d="m45.72,427.91v-1.58h7.73v1.58h-7.73Zm0,3.72v-1.58h7.73v1.58h-7.73Z"/>
    <path class="cls-1" d="m60.94,435.16v-1.35l4.18-4.33c.45-.47.82-.88,1.11-1.24.29-.36.51-.7.66-1.02.14-.32.22-.66.22-1.03,0-.41-.1-.77-.29-1.07s-.46-.53-.79-.69-.71-.25-1.13-.25c-.44,0-.83.09-1.16.27-.33.18-.58.44-.76.77s-.27.72-.27,1.16h-1.78c0-.75.17-1.41.52-1.97s.82-1,1.42-1.31c.6-.31,1.29-.47,2.06-.47s1.46.15,2.06.46c.59.31,1.06.73,1.39,1.26s.5,1.13.5,1.79c0,.46-.09.91-.26,1.35s-.47.93-.89,1.46c-.42.54-1.01,1.19-1.76,1.95l-2.46,2.57v.09h5.57v1.6h-8.14Z"/>
    <path class="cls-1" d="m72.82,425.88l2.05,3.61,2.06-3.61h1.97l-2.89,4.64,2.92,4.64h-1.97l-2.09-3.46-2.08,3.46h-1.98l2.89-4.64-2.85-4.64h1.98Z"/>
    <path class="cls-1" d="m95.23,428.19v1.57h-5.48v-1.57h5.48Z"/>
    <path class="cls-1" d="m106.81,422.79v12.36h-1.87v-10.49h-.07l-2.96,1.93v-1.79l3.08-2.02h1.82Z"/>
    <path class="cls-1" d="m110.15,435.16v-1.35l4.18-4.33c.45-.47.82-.88,1.11-1.24.29-.36.51-.7.66-1.02.14-.32.22-.66.22-1.03,0-.41-.1-.77-.29-1.07s-.46-.53-.79-.69-.71-.25-1.13-.25c-.44,0-.83.09-1.16.27-.33.18-.58.44-.76.77s-.27.72-.27,1.16h-1.78c0-.75.17-1.41.52-1.97s.82-1,1.42-1.31c.6-.31,1.29-.47,2.06-.47s1.46.15,2.06.46c.59.31,1.06.73,1.39,1.26s.5,1.13.5,1.79c0,.46-.09.91-.26,1.35s-.47.93-.89,1.46c-.42.54-1.01,1.19-1.76,1.95l-2.46,2.57v.09h5.57v1.6h-8.14Z"/>
    <path class="cls-1" d="m32.44,458.88l2.05,3.61,2.06-3.61h1.97l-2.89,4.64,2.92,4.64h-1.97l-2.09-3.46-2.08,3.46h-1.98l2.89-4.64-2.85-4.64h1.98Z"/>
    <path class="cls-1" d="m54.85,461.19v1.57h-5.48v-1.57h5.48Z"/>
    <path class="cls-1" d="m61.74,468.16v-1.35l4.18-4.33c.45-.47.82-.88,1.11-1.24.29-.36.51-.7.66-1.02.14-.32.22-.66.22-1.03,0-.41-.1-.77-.29-1.07s-.46-.53-.79-.69-.71-.25-1.13-.25c-.44,0-.83.09-1.16.27-.33.18-.58.44-.76.77s-.27.72-.27,1.16h-1.78c0-.75.17-1.41.52-1.97s.82-1,1.42-1.31c.6-.31,1.29-.47,2.06-.47s1.46.15,2.06.46c.59.31,1.06.73,1.39,1.26s.5,1.13.5,1.79c0,.46-.09.91-.26,1.35s-.47.93-.89,1.46c-.42.54-1.01,1.19-1.76,1.95l-2.46,2.57v.09h5.57v1.6h-8.14Z"/>
    <path class="cls-1" d="m72.71,461.98c0-1.51.2-2.91.6-4.18s.98-2.45,1.75-3.52h1.65c-.3.4-.58.89-.83,1.47-.26.58-.48,1.21-.68,1.91-.19.69-.34,1.4-.45,2.14-.11.74-.16,1.47-.16,2.18,0,.96.09,1.93.28,2.91.19.98.45,1.89.77,2.74.32.84.68,1.53,1.08,2.06h-1.65c-.76-1.08-1.35-2.25-1.75-3.52s-.6-2.67-.6-4.18Z"/>
    <path class="cls-1" d="m78.59,468.16v-1.35l4.18-4.33c.45-.47.82-.88,1.11-1.24.29-.36.51-.7.66-1.02.14-.32.22-.66.22-1.03,0-.41-.1-.77-.29-1.07s-.46-.53-.79-.69-.71-.25-1.13-.25c-.44,0-.83.09-1.16.27-.33.18-.58.44-.76.77s-.27.72-.27,1.16h-1.78c0-.75.17-1.41.52-1.97s.82-1,1.42-1.31c.6-.31,1.29-.47,2.06-.47s1.46.15,2.06.46c.59.31,1.06.73,1.39,1.26s.5,1.13.5,1.79c0,.46-.09.91-.26,1.35s-.47.93-.89,1.46c-.42.54-1.01,1.19-1.76,1.95l-2.46,2.57v.09h5.57v1.6h-8.14Z"/>
    <path class="cls-1" d="m90.46,458.88l2.05,3.61,2.06-3.61h1.97l-2.89,4.64,2.92,4.64h-1.97l-2.09-3.46-2.08,3.46h-1.98l2.89-4.64-2.85-4.64h1.98Z"/>
    <path class="cls-1" d="m112.88,461.19v1.57h-5.48v-1.57h5.48Z"/>
    <path class="cls-1" d="m124.46,455.79v12.36h-1.87v-10.49h-.07l-2.96,1.93v-1.79l3.08-2.02h1.82Z"/>
    <path class="cls-1" d="m127.8,468.16v-1.35l4.18-4.33c.45-.47.82-.88,1.11-1.24.29-.36.51-.7.66-1.02.14-.32.22-.66.22-1.03,0-.41-.1-.77-.29-1.07s-.46-.53-.79-.69-.71-.25-1.13-.25c-.44,0-.83.09-1.16.27-.33.18-.58.44-.76.77s-.27.72-.27,1.16h-1.78c0-.75.17-1.41.52-1.97s.82-1,1.42-1.31c.6-.31,1.29-.47,2.06-.47s1.46.15,2.06.46c.59.31,1.06.73,1.39,1.26s.5,1.13.5,1.79c0,.46-.09.91-.26,1.35s-.47.93-.89,1.46c-.42.54-1.01,1.19-1.76,1.95l-2.46,2.57v.09h5.57v1.6h-8.14Z"/>
    <path class="cls-1" d="m141.72,461.98c0,1.52-.2,2.91-.6,4.18s-.98,2.44-1.74,3.52h-1.65c.3-.4.58-.89.83-1.47.26-.58.48-1.21.68-1.91.19-.69.34-1.41.45-2.15.11-.74.16-1.47.16-2.19,0-.95-.09-1.92-.28-2.9-.19-.98-.44-1.89-.77-2.73s-.68-1.53-1.07-2.06h1.65c.76,1.07,1.35,2.25,1.74,3.52s.6,2.66.6,4.18Z"/>
    <path class="cls-1" d="m149.76,460.91v-1.58h7.73v1.58h-7.73Zm0,3.72v-1.58h7.73v1.58h-7.73Z"/>
    <path class="cls-1" d="m169.09,455.63c.55,0,1.09.1,1.63.3s1.02.52,1.45.97c.43.45.78,1.05,1.04,1.81s.39,1.7.4,2.83c0,1.08-.11,2.05-.33,2.89-.22.84-.53,1.55-.93,2.13-.4.58-.89,1.02-1.47,1.32-.58.3-1.22.45-1.94.45s-1.39-.14-1.96-.43-1.04-.69-1.39-1.2c-.36-.51-.58-1.1-.67-1.77h1.84c.12.53.37.96.74,1.29.37.33.85.49,1.45.49.91,0,1.61-.4,2.12-1.19.51-.79.76-1.9.77-3.32h-.1c-.21.35-.47.64-.78.89-.31.25-.66.44-1.05.58-.39.14-.8.21-1.24.21-.71,0-1.36-.17-1.94-.53-.58-.35-1.05-.83-1.39-1.44-.35-.61-.52-1.31-.52-2.09s.18-1.49.53-2.12c.36-.64.86-1.14,1.5-1.51.64-.37,1.4-.55,2.26-.55Zm0,1.57c-.47,0-.89.12-1.27.35-.38.23-.67.54-.89.94-.22.39-.33.83-.33,1.31s.11.91.32,1.3c.21.39.5.7.87.92s.79.34,1.26.34c.35,0,.68-.07.99-.21.31-.14.57-.33.8-.57.23-.24.41-.52.54-.83.13-.31.19-.64.19-.98,0-.45-.11-.88-.32-1.27-.22-.39-.51-.71-.88-.94-.37-.24-.8-.36-1.28-.36Z"/>
    <path class="cls-1" d="m32.44,488.88l2.05,3.61,2.06-3.61h1.97l-2.89,4.64,2.92,4.64h-1.97l-2.09-3.46-2.08,3.46h-1.98l2.89-4.64-2.85-4.64h1.98Z"/>
    <path class="cls-1" d="m54.85,491.19v1.57h-5.48v-1.57h5.48Z"/>
    <path class="cls-1" d="m61.48,495.74v-1.51l5.34-8.44h1.19v2.22h-.75l-3.82,6.05v.1h7.32v1.58h-9.28Zm5.86,2.42v-3.56s.01-8.8.01-8.8h1.77v12.36h-1.78Z"/>
    <path class="cls-1" d="m74.31,488.88l2.05,3.61,2.06-3.61h1.97l-2.89,4.64,2.92,4.64h-1.97l-2.09-3.46-2.08,3.46h-1.98l2.89-4.64-2.85-4.64h1.98Z"/>
    <path class="cls-1" d="m91.63,492.81v-1.62h8.16v1.62h-8.16Zm3.27,3.27v-8.16h1.62v8.16h-1.62Z"/>
    <path class="cls-1" d="m107.06,498.16v-1.35l4.18-4.33c.45-.47.82-.88,1.11-1.24.29-.36.51-.7.66-1.02.14-.32.22-.66.22-1.03,0-.41-.1-.77-.29-1.07s-.46-.53-.79-.69-.71-.25-1.13-.25c-.44,0-.83.09-1.16.27-.33.18-.58.44-.76.77s-.27.72-.27,1.16h-1.78c0-.75.17-1.41.52-1.97s.82-1,1.42-1.31c.6-.31,1.29-.47,2.06-.47s1.46.15,2.06.46c.59.31,1.06.73,1.39,1.26s.5,1.13.5,1.79c0,.46-.09.91-.26,1.35s-.47.93-.89,1.46c-.42.54-1.01,1.19-1.76,1.95l-2.46,2.57v.09h5.57v1.6h-8.14Z"/>
    <path class="cls-1" d="m117.22,495.74v-1.51l5.34-8.44h1.19v2.22h-.75l-3.82,6.05v.1h7.32v1.58h-9.28Zm5.86,2.42v-3.56s.01-8.8.01-8.8h1.77v12.36h-1.78Z"/>
    <path class="cls-1" d="m138.59,491.19v1.57h-5.48v-1.57h5.48Z"/>
    <path class="cls-1" d="m149.59,485.63c.55,0,1.09.1,1.63.3s1.02.52,1.45.97c.43.45.78,1.05,1.04,1.81s.39,1.7.4,2.83c0,1.08-.11,2.05-.33,2.89-.22.84-.53,1.55-.93,2.13-.4.58-.89,1.02-1.47,1.32-.58.3-1.22.45-1.94.45s-1.39-.14-1.96-.43-1.04-.69-1.39-1.2c-.36-.51-.58-1.1-.67-1.77h1.84c.12.53.37.96.74,1.29.37.33.85.49,1.45.49.91,0,1.61-.4,2.12-1.19.51-.79.76-1.9.77-3.32h-.1c-.21.35-.47.64-.78.89-.31.25-.66.44-1.05.58-.39.14-.8.21-1.24.21-.71,0-1.36-.17-1.94-.53-.58-.35-1.05-.83-1.39-1.44-.35-.61-.52-1.31-.52-2.09s.18-1.49.53-2.12c.36-.64.86-1.14,1.5-1.51.64-.37,1.4-.55,2.26-.55Zm0,1.57c-.47,0-.89.12-1.27.35-.38.23-.67.54-.89.94-.22.39-.33.83-.33,1.31s.11.91.32,1.3c.21.39.5.7.87.92s.79.34,1.26.34c.35,0,.68-.07.99-.21.31-.14.57-.33.8-.57.23-.24.41-.52.54-.83.13-.31.19-.64.19-.98,0-.45-.11-.88-.32-1.27-.22-.39-.51-.71-.88-.94-.37-.24-.8-.36-1.28-.36Z"/>
    <path class="cls-1" d="m161.4,490.91v-1.58h7.73v1.58h-7.73Zm0,3.72v-1.58h7.73v1.58h-7.73Z"/>
    <path class="cls-1" d="m180.92,498.36c-.95,0-1.77-.25-2.44-.75-.68-.5-1.19-1.22-1.55-2.18s-.54-2.1-.54-3.45.18-2.49.54-3.43c.36-.95.88-1.67,1.56-2.17s1.49-.75,2.44-.75,1.76.25,2.43.75c.68.5,1.19,1.23,1.55,2.17.36.95.54,2.09.54,3.43s-.18,2.5-.54,3.45c-.36.95-.88,1.68-1.55,2.18-.68.5-1.49.75-2.44.75Zm0-1.61c.84,0,1.49-.41,1.97-1.23.47-.82.71-2,.71-3.54,0-1.03-.11-1.89-.32-2.6-.21-.71-.52-1.25-.92-1.62s-.88-.55-1.43-.55c-.83,0-1.49.41-1.96,1.23-.47.82-.71,2-.72,3.54,0,1.03.11,1.9.32,2.61.22.71.52,1.25.92,1.61s.88.55,1.44.55Z"/>
    <path class="cls-1" d="m36.47,513.19v1.57h-5.48v-1.57h5.48Z"/>
    <path class="cls-1" d="m43.16,520.33c-.83,0-1.57-.14-2.22-.43-.65-.29-1.16-.68-1.54-1.19-.38-.51-.58-1.1-.61-1.77h1.9c.02.37.15.68.37.95.22.27.52.47.88.62.36.15.76.22,1.21.22.49,0,.92-.08,1.29-.25s.67-.41.88-.71c.21-.3.32-.66.32-1.05s-.11-.78-.32-1.1c-.21-.32-.52-.56-.92-.75-.4-.18-.89-.27-1.46-.27h-1.04v-1.52h1.04c.46,0,.86-.08,1.21-.25.35-.17.62-.4.82-.69s.3-.64.3-1.04-.09-.72-.26-1c-.17-.28-.41-.51-.72-.67-.31-.16-.68-.24-1.1-.24s-.78.07-1.13.22c-.35.15-.63.36-.85.63-.22.27-.33.6-.35.97h-1.8c.02-.67.22-1.25.59-1.76.38-.51.87-.9,1.49-1.19.62-.29,1.31-.43,2.06-.43s1.48.15,2.06.46c.58.31,1.02.72,1.34,1.23.32.51.47,1.07.47,1.68,0,.69-.19,1.28-.58,1.76-.39.48-.9.81-1.55.97v.1c.82.12,1.46.45,1.91.98.45.53.68,1.18.67,1.96,0,.68-.18,1.29-.56,1.83-.38.54-.9.96-1.55,1.27s-1.41.46-2.25.46Z"/>
    <path class="cls-1" d="m51.26,510.88l2.05,3.61,2.06-3.61h1.97l-2.89,4.64,2.92,4.64h-1.97l-2.09-3.46-2.08,3.46h-1.98l2.89-4.64-2.85-4.64h1.98Z"/>
    <path class="cls-1" d="m68.79,514.22v-1.59h7.73v1.59h-7.73Zm0,3.72v-1.59h7.73v1.59h-7.73Z"/>
    <path class="cls-1" d="m89.5,513.19v1.57h-5.48v-1.57h5.48Z"/>
    <path class="cls-1" d="m96.57,507.79v12.36h-1.87v-10.49h-.07l-2.96,1.93v-1.79l3.08-2.02h1.82Z"/>
    <path class="cls-1" d="m104,520.33c-.76,0-1.44-.15-2.04-.44s-1.08-.69-1.44-1.2c-.36-.51-.55-1.09-.57-1.75h1.81c.04.53.28.97.71,1.31.43.34.94.51,1.53.51.47,0,.9-.11,1.26-.33s.66-.52.87-.91c.21-.39.32-.83.32-1.32s-.11-.95-.33-1.35c-.22-.39-.52-.7-.9-.93-.38-.23-.82-.34-1.31-.34-.37,0-.75.06-1.13.19-.38.13-.68.3-.92.51l-1.71-.25.69-6.23h6.8v1.6h-5.25l-.39,3.46h.07c.24-.23.56-.43.96-.59.4-.16.83-.24,1.29-.24.75,0,1.42.18,2.01.54.59.36,1.05.85,1.39,1.46.34.62.51,1.33.5,2.13,0,.8-.18,1.51-.54,2.14s-.87,1.12-1.51,1.48-1.38.54-2.21.54Z"/>
    <path class="cls-1" d="m32.44,532.88l2.05,3.61,2.06-3.61h1.97l-2.89,4.64,2.92,4.64h-1.97l-2.09-3.46-2.08,3.46h-1.98l2.89-4.64-2.85-4.64h1.98Z"/>
    <path class="cls-1" d="m49.97,534.91v-1.58h7.73v1.58h-7.73Zm0,3.72v-1.58h7.73v1.58h-7.73Z"/>
    <path class="cls-1" d="m69.27,542.33c-.76,0-1.44-.15-2.04-.44s-1.08-.69-1.44-1.2c-.36-.51-.55-1.09-.57-1.75h1.81c.04.53.28.97.71,1.31.43.34.94.51,1.53.51.47,0,.9-.11,1.26-.33s.66-.52.87-.91c.21-.39.32-.83.32-1.32s-.11-.95-.33-1.35c-.22-.39-.52-.7-.9-.93-.38-.23-.82-.34-1.31-.34-.37,0-.75.06-1.13.19-.38.13-.68.3-.92.51l-1.71-.25.69-6.23h6.8v1.6h-5.25l-.39,3.46h.07c.24-.23.56-.43.96-.59.4-.16.83-.24,1.29-.24.75,0,1.42.18,2.01.54.59.36,1.05.85,1.39,1.46.34.62.51,1.33.5,2.13,0,.8-.18,1.51-.54,2.14s-.87,1.12-1.51,1.48-1.38.54-2.21.54Z"/>
    <path class="cls-1" d="m32.44,554.88l2.05,3.61,2.06-3.61h1.97l-2.89,4.64,2.92,4.64h-1.97l-2.09-3.46-2.08,3.46h-1.98l2.89-4.64-2.85-4.64h1.98Z"/>
    <path class="cls-1" d="m49.97,558.22v-1.59h7.73v1.59h-7.73Zm0,3.72v-1.59h7.73v1.59h-7.73Z"/>
    <path class="cls-1" d="m78.27,564.33c-.76,0-1.44-.15-2.04-.44s-1.08-.69-1.44-1.2c-.36-.51-.55-1.09-.57-1.75h1.81c.04.53.28.97.71,1.31.43.34.94.51,1.53.51.47,0,.9-.11,1.26-.33s.66-.52.87-.91c.21-.39.32-.83.32-1.32s-.11-.95-.33-1.35c-.22-.39-.52-.7-.9-.93-.38-.23-.82-.34-1.31-.34-.37,0-.75.06-1.13.19-.38.13-.68.3-.92.51l-1.71-.25.69-6.23h6.8v1.6h-5.25l-.39,3.46h.07c.24-.23.56-.43.96-.59.4-.16.83-.24,1.29-.24.75,0,1.42.18,2.01.54.59.36,1.05.85,1.39,1.46.34.62.51,1.33.5,2.13,0,.8-.18,1.51-.54,2.14s-.87,1.12-1.51,1.48-1.38.54-2.21.54Z"/>
    <path class="cls-1" d="m32.44,576.88l2.05,3.61,2.06-3.61h1.97l-2.89,4.64,2.92,4.64h-1.97l-2.09-3.46-2.08,3.46h-1.98l2.89-4.64-2.85-4.64h1.98Z"/>
    <path class="cls-1" d="m49.97,580.22v-1.59h7.73v1.59h-7.73Zm0,3.72v-1.59h7.73v1.59h-7.73Z"/>
    <path class="cls-1" d="m70.67,580.15v1.56h-5.48v-1.56h5.48Z"/>
    <path class="cls-1" d="m90.65,586.33c-.76,0-1.44-.15-2.04-.44s-1.08-.69-1.44-1.2c-.36-.51-.55-1.09-.57-1.75h1.81c.04.53.28.97.71,1.31.43.34.94.51,1.53.51.47,0,.9-.11,1.26-.33s.66-.52.87-.91c.21-.39.32-.83.32-1.32s-.11-.95-.33-1.35c-.22-.39-.52-.7-.9-.93-.38-.23-.82-.34-1.31-.34-.37,0-.75.06-1.13.19-.38.13-.68.3-.92.51l-1.71-.25.69-6.23h6.8v1.6h-5.25l-.39,3.46h.07c.24-.23.56-.43.96-.59.4-.16.83-.24,1.29-.24.75,0,1.42.18,2.01.54.59.36,1.05.85,1.39,1.46.34.62.51,1.33.5,2.13,0,.8-.18,1.51-.54,2.14s-.87,1.12-1.51,1.48-1.38.54-2.21.54Z"/>
  </g>
  <path class="cls-1" d="m80.4,429.57v-.95l2.95-3.06c.32-.33.58-.62.78-.88s.36-.49.46-.72.15-.47.15-.72c0-.29-.07-.54-.21-.75-.14-.21-.32-.38-.56-.49-.24-.12-.5-.17-.8-.17-.31,0-.59.06-.82.19-.23.13-.41.31-.54.54s-.19.51-.19.82h-1.26c0-.53.12-1,.37-1.39s.58-.71,1.01-.93.91-.33,1.45-.33,1.03.11,1.45.33c.42.22.75.51.98.89.24.37.35.79.35,1.26,0,.32-.06.64-.18.95-.12.31-.33.65-.63,1.03-.3.38-.71.84-1.24,1.38l-1.73,1.81v.06h3.93v1.13h-5.74Z"/>
  <path class="cls-1" d="m98.4,461.57v-.95l2.95-3.06c.32-.33.58-.62.78-.88s.36-.49.46-.72.15-.47.15-.72c0-.29-.07-.54-.21-.75-.14-.21-.32-.38-.56-.49-.24-.12-.5-.17-.8-.17-.31,0-.59.06-.82.19-.23.13-.41.31-.54.54s-.19.51-.19.82h-1.26c0-.53.12-1,.37-1.39s.58-.71,1.01-.93.91-.33,1.45-.33,1.03.11,1.45.33c.42.22.75.51.98.89.24.37.35.79.35,1.26,0,.32-.06.64-.18.95-.12.31-.33.65-.63,1.03-.3.38-.71.84-1.24,1.38l-1.73,1.81v.06h3.93v1.13h-5.74Z"/>
  <path class="cls-1" d="m81.4,492.57v-.95l2.95-3.06c.32-.33.58-.62.78-.88s.36-.49.46-.72.15-.47.15-.72c0-.29-.07-.54-.21-.75-.14-.21-.32-.38-.56-.49-.24-.12-.5-.17-.8-.17-.31,0-.59.06-.82.19-.23.13-.41.31-.54.54s-.19.51-.19.82h-1.26c0-.53.12-1,.37-1.39s.58-.71,1.01-.93.91-.33,1.45-.33,1.03.11,1.45.33c.42.22.75.51.98.89.24.37.35.79.35,1.26,0,.32-.06.64-.18.95-.12.31-.33.65-.63,1.03-.3.38-.71.84-1.24,1.38l-1.73,1.81v.06h3.93v1.13h-5.74Z"/>
  <path class="cls-1" d="m39.4,492.57v-.95l2.95-3.06c.32-.33.58-.62.78-.88s.36-.49.46-.72.15-.47.15-.72c0-.29-.07-.54-.21-.75-.14-.21-.32-.38-.56-.49-.24-.12-.5-.17-.8-.17-.31,0-.59.06-.82.19-.23.13-.41.31-.54.54s-.19.51-.19.82h-1.26c0-.53.12-1,.37-1.39s.58-.71,1.01-.93.91-.33,1.45-.33,1.03.11,1.45.33c.42.22.75.51.98.89.24.37.35.79.35,1.26,0,.32-.06.64-.18.95-.12.31-.33.65-.63,1.03-.3.38-.71.84-1.24,1.38l-1.73,1.81v.06h3.93v1.13h-5.74Z"/>
  <path class="cls-1" d="m58.4,514.57v-.95l2.95-3.06c.32-.33.58-.62.78-.88s.36-.49.46-.72.15-.47.15-.72c0-.29-.07-.54-.21-.75-.14-.21-.32-.38-.56-.49-.24-.12-.5-.17-.8-.17-.31,0-.59.06-.82.19-.23.13-.41.31-.54.54s-.19.51-.19.82h-1.26c0-.53.12-1,.37-1.39s.58-.71,1.01-.93.91-.33,1.45-.33,1.03.11,1.45.33c.42.22.75.51.98.89.24.37.35.79.35,1.26,0,.32-.06.64-.18.95-.12.31-.33.65-.63,1.03-.3.38-.71.84-1.24,1.38l-1.73,1.81v.06h3.93v1.13h-5.74Z"/>
  <path class="cls-1" d="m39.4,536.57v-.95l2.95-3.06c.32-.33.58-.62.78-.88s.36-.49.46-.72.15-.47.15-.72c0-.29-.07-.54-.21-.75-.14-.21-.32-.38-.56-.49-.24-.12-.5-.17-.8-.17-.31,0-.59.06-.82.19-.23.13-.41.31-.54.54s-.19.51-.19.82h-1.26c0-.53.12-1,.37-1.39s.58-.71,1.01-.93.91-.33,1.45-.33,1.03.11,1.45.33c.42.22.75.51.98.89.24.37.35.79.35,1.26,0,.32-.06.64-.18.95-.12.31-.33.65-.63,1.03-.3.38-.71.84-1.24,1.38l-1.73,1.81v.06h3.93v1.13h-5.74Z"/>
  <path class="cls-1" d="m43.55,559.84v8.73h-1.32v-7.41h-.05l-2.09,1.36v-1.26l2.18-1.42h1.28Z"/>
  <path class="cls-1" d="m39.4,590.57v-.95l2.95-3.06c.32-.33.58-.62.78-.88s.36-.49.46-.72.15-.47.15-.72c0-.29-.07-.54-.21-.75-.14-.21-.32-.38-.56-.49-.24-.12-.5-.17-.8-.17-.31,0-.59.06-.82.19-.23.13-.41.31-.54.54s-.19.51-.19.82h-1.26c0-.53.12-1,.37-1.39s.58-.71,1.01-.93.91-.33,1.45-.33,1.03.11,1.45.33c.42.22.75.51.98.89.24.37.35.79.35,1.26,0,.32-.06.64-.18.95-.12.31-.33.65-.63,1.03-.3.38-.71.84-1.24,1.38l-1.73,1.81v.06h3.93v1.13h-5.74Z"/>
  <path class="cls-1" d="m86.63,548h-16.71c-.11,0-.16.03-.2.15-.11.41-.24.83-.37,1.24-.24.79-.47,1.56-.71,2.34-.28.92-.56,1.84-.84,2.76-.25.81-.49,1.62-.75,2.44-.25.83-.51,1.65-.76,2.48-.23.73-.44,1.46-.68,2.24-.03-.05-.05-.07-.07-.11-.28-.81-.56-1.61-.84-2.42-.29-.85-.59-1.7-.88-2.56-.13-.37-.27-.76-.4-1.13-.04-.11-.09-.15-.21-.13h-2.96v1.66h1.73c.08,0,.12.01.15.09.31.85.6,1.7.91,2.56.37,1.07.76,2.12,1.15,3.18.2.56.4,1.11.6,1.66.03.09.08.11.15.11h1.46c.09,0,.12-.03.15-.12.2-.67.41-1.33.61-2,.13-.43.25-.85.39-1.28.24-.8.49-1.6.73-2.4.29-.96.59-1.9.88-2.86.2-.65.4-1.29.6-1.94.29-.96.59-1.92.89-2.88.15-.48.29-.95.44-1.44h15.49v-1.62h.05Z"/>
  <path class="cls-1" d="m99.63,570h-16.71c-.11,0-.16.03-.2.15-.11.41-.24.83-.37,1.24-.24.79-.47,1.56-.71,2.34-.28.92-.56,1.84-.84,2.76-.25.81-.49,1.62-.75,2.44-.25.83-.51,1.65-.76,2.48-.23.73-.44,1.46-.68,2.24-.03-.05-.05-.07-.07-.11-.28-.81-.56-1.61-.84-2.42-.29-.85-.59-1.7-.88-2.56-.13-.37-.27-.76-.4-1.13-.04-.11-.09-.15-.21-.13h-2.96v1.66h1.73c.08,0,.12.01.15.09.31.85.6,1.7.91,2.56.37,1.07.76,2.12,1.15,3.18.2.56.4,1.11.6,1.66.03.09.08.11.15.11h1.46c.09,0,.12-.03.15-.12.2-.67.41-1.33.61-2,.13-.43.25-.85.39-1.28.24-.8.49-1.6.73-2.4.29-.96.59-1.9.88-2.86.2-.65.4-1.29.6-1.94.29-.96.59-1.92.89-2.88.15-.48.29-.95.44-1.44h15.49v-1.62h.05Z"/>
  <path class="cls-1" d="m90.63,609h-16.71c-.11,0-.16.03-.2.15-.11.41-.24.83-.37,1.24-.24.79-.47,1.56-.71,2.34-.28.92-.56,1.84-.84,2.76-.25.81-.49,1.62-.75,2.44-.25.83-.51,1.65-.76,2.48-.23.73-.44,1.46-.68,2.24-.03-.05-.05-.07-.07-.11-.28-.81-.56-1.61-.84-2.42-.29-.85-.59-1.7-.88-2.56-.13-.37-.27-.76-.4-1.13-.04-.11-.09-.15-.21-.13h-2.96v1.66h1.73c.08,0,.12.01.15.09.31.85.6,1.7.91,2.56.37,1.07.76,2.12,1.15,3.18.2.56.4,1.11.6,1.66.03.09.08.11.15.11h1.46c.09,0,.12-.03.15-.12.2-.67.41-1.33.61-2,.13-.43.25-.85.39-1.28.24-.8.49-1.6.73-2.4.29-.96.59-1.9.88-2.86.2-.65.4-1.29.6-1.94.29-.96.59-1.92.89-2.88.15-.48.29-.95.44-1.44h15.49v-1.62h.05Z"/>
  <path class="cls-1" d="m171.63,610h-16.71c-.11,0-.16.03-.2.15-.11.41-.24.83-.37,1.24-.24.79-.47,1.56-.71,2.34-.28.92-.56,1.84-.84,2.76-.25.81-.49,1.62-.75,2.44-.25.83-.51,1.65-.76,2.48-.23.73-.44,1.46-.68,2.24-.03-.05-.05-.07-.07-.11-.28-.81-.56-1.61-.84-2.42-.29-.85-.59-1.7-.88-2.56-.13-.37-.27-.76-.4-1.13-.04-.11-.09-.15-.21-.13h-2.96v1.66h1.73c.08,0,.12.01.15.09.31.85.6,1.7.91,2.56.37,1.07.76,2.12,1.15,3.18.2.56.4,1.11.6,1.66.03.09.08.11.15.11h1.46c.09,0,.12-.03.15-.12.2-.67.41-1.33.61-2,.13-.43.25-.85.39-1.28.24-.8.49-1.6.73-2.4.29-.96.59-1.9.88-2.86.2-.65.4-1.29.6-1.94.29-.96.59-1.92.89-2.88.15-.48.29-.95.44-1.44h15.49v-1.62h.05Z"/>
  <g>
    <path class="cls-1" d="m11.33,618.82c0,1.32-.24,2.45-.72,3.4-.48.95-1.14,1.68-1.98,2.19s-1.79.76-2.86.76-2.03-.25-2.87-.76c-.84-.51-1.5-1.24-1.98-2.19-.48-.95-.72-2.08-.72-3.4s.24-2.45.72-3.4c.48-.95,1.14-1.68,1.98-2.18.84-.51,1.79-.76,2.87-.76s2.02.25,2.86.76c.84.51,1.5,1.24,1.98,2.18.48.95.72,2.08.72,3.4Zm-1.85,0c0-1.01-.16-1.85-.49-2.54s-.77-1.21-1.33-1.57-1.2-.53-1.9-.53-1.35.18-1.91.53-1,.88-1.33,1.57c-.32.69-.49,1.54-.49,2.54s.16,1.85.49,2.54c.32.69.77,1.21,1.33,1.57.56.36,1.2.53,1.91.53s1.34-.18,1.9-.53c.56-.36,1-.88,1.33-1.57.32-.69.49-1.54.49-2.54Z"/>
    <path class="cls-1" d="m12.99,617.29v-1.56h7.82v1.56h-3.03v7.71h-1.76v-7.71h-3.04Z"/>
    <path class="cls-1" d="m22.72,625v-9.27h3.84c1.05,0,1.88.22,2.49.67.61.44.92,1.05.92,1.81,0,.54-.17.97-.52,1.29-.35.32-.8.53-1.38.64.41.05.79.17,1.14.37.35.2.62.47.84.8.21.33.32.73.32,1.2,0,.49-.13.92-.38,1.3-.25.38-.62.67-1.1.88-.48.21-1.06.32-1.74.32h-4.43Zm1.7-5.41h2.17c.34,0,.63-.05.87-.14s.43-.23.56-.41c.13-.18.2-.39.2-.64,0-.36-.15-.64-.44-.84s-.7-.3-1.21-.3h-2.15v2.34Zm0,3.9h2.73c.45,0,.8-.11,1.05-.32.25-.21.38-.5.38-.87,0-.43-.13-.77-.38-1.02-.25-.25-.6-.37-1.05-.37h-2.73v2.58Z"/>
    <path class="cls-1" d="m36.34,625.19c-.91,0-1.7-.2-2.36-.59s-1.17-.95-1.52-1.66c-.36-.71-.53-1.55-.53-2.51s.18-1.79.53-2.51c.36-.72.86-1.29,1.5-1.7.64-.41,1.39-.61,2.25-.61.52,0,1.03.09,1.52.26s.93.44,1.32.81c.39.37.7.85.92,1.44.22.59.34,1.3.34,2.15v.64h-7.37v-1.35h5.6c0-.47-.1-.9-.29-1.26s-.46-.66-.81-.87c-.35-.21-.76-.32-1.22-.32-.51,0-.95.12-1.32.37-.38.25-.67.57-.87.97s-.3.83-.3,1.29v1.06c0,.62.11,1.15.33,1.58.22.43.53.77.92.99.39.23.86.34,1.38.34.34,0,.65-.05.94-.15.28-.1.52-.25.73-.44.21-.2.36-.44.47-.73l1.71.31c-.14.5-.38.94-.73,1.32-.35.38-.79.67-1.32.88s-1.13.31-1.81.31Z"/>
    <path class="cls-1" d="m41.81,617.29v-1.56h7.82v1.56h-3.03v7.71h-1.76v-7.71h-3.04Z"/>
    <path class="cls-1" d="m52.73,618.37c-.33,0-.61-.12-.85-.36-.24-.24-.36-.52-.36-.85s.12-.61.36-.85.52-.35.85-.35.61.12.85.35.36.52.36.85c0,.22-.06.42-.17.61-.11.18-.26.33-.44.44-.18.11-.38.16-.6.16Zm0,6.75c-.33,0-.61-.12-.85-.35s-.36-.52-.36-.85.12-.61.36-.85c.24-.24.52-.35.85-.35s.61.12.85.35c.24.24.36.52.36.85,0,.22-.06.42-.17.61-.11.18-.26.33-.44.44-.18.11-.38.16-.6.16Z"/>
    <path class="cls-1" d="m61.38,618.82c0-1.51.2-2.91.6-4.18s.98-2.45,1.75-3.52h1.65c-.3.4-.58.89-.83,1.47-.26.58-.48,1.21-.68,1.91-.19.69-.34,1.4-.45,2.14-.11.74-.16,1.47-.16,2.18,0,.96.09,1.93.28,2.91.19.98.45,1.89.77,2.74.32.84.68,1.53,1.08,2.06h-1.65c-.76-1.08-1.35-2.25-1.75-3.52s-.6-2.67-.6-4.18Z"/>
    <path class="cls-1" d="m80.34,625.17c-.76,0-1.44-.15-2.04-.44s-1.08-.69-1.44-1.2c-.36-.51-.55-1.09-.57-1.75h1.81c.04.53.28.97.71,1.31.43.34.94.51,1.53.51.47,0,.9-.11,1.26-.33s.66-.52.87-.91c.21-.39.32-.83.32-1.32s-.11-.95-.33-1.35c-.22-.39-.52-.7-.9-.93-.38-.23-.82-.34-1.31-.34-.37,0-.75.06-1.13.19-.38.13-.68.3-.92.51l-1.71-.25.69-6.23h6.8v1.6h-5.25l-.39,3.46h.07c.24-.23.56-.43.96-.59.4-.16.83-.24,1.29-.24.75,0,1.42.18,2.01.54.59.36,1.05.85,1.39,1.46.34.62.51,1.33.5,2.13,0,.8-.18,1.51-.54,2.14s-.87,1.12-1.51,1.48-1.38.54-2.21.54Z"/>
    <path class="cls-1" d="m89.17,623.31l-.09.66c-.06.48-.16.99-.31,1.51-.14.53-.29,1.01-.44,1.46-.15.45-.27.81-.37,1.07h-1.28c.05-.25.12-.59.22-1.01.09-.42.18-.9.27-1.42.09-.52.16-1.06.2-1.6l.06-.68h1.74Zm-.94-4.94c-.33,0-.61-.12-.85-.36-.24-.24-.36-.52-.36-.85s.12-.61.36-.85.52-.35.85-.35.61.12.85.35c.24.24.36.52.36.85,0,.22-.05.42-.17.61-.11.18-.26.33-.44.44-.18.11-.38.16-.6.16Z"/>
    <path class="cls-1" d="m101.68,618.03v1.57h-5.48v-1.57h5.48Z"/>
    <path class="cls-1" d="m104.07,625v-1.35l4.18-4.33c.45-.47.82-.88,1.11-1.24.29-.36.51-.7.66-1.02.14-.32.22-.66.22-1.03,0-.41-.1-.77-.29-1.07s-.46-.53-.79-.69-.71-.25-1.13-.25c-.44,0-.83.09-1.16.27-.33.18-.58.44-.76.77s-.27.72-.27,1.16h-1.78c0-.75.17-1.41.52-1.97s.82-1,1.42-1.31c.6-.31,1.29-.47,2.06-.47s1.46.15,2.06.46c.59.31,1.06.73,1.39,1.26s.5,1.13.5,1.79c0,.46-.09.91-.26,1.35s-.47.93-.89,1.46c-.42.54-1.01,1.19-1.76,1.95l-2.46,2.57v.09h5.57v1.6h-8.14Z"/>
    <path class="cls-1" d="m117.99,618.82c0,1.52-.2,2.91-.6,4.18s-.98,2.44-1.74,3.52h-1.65c.3-.4.58-.89.83-1.47.26-.58.48-1.21.68-1.91.19-.69.34-1.41.45-2.15.11-.74.16-1.47.16-2.19,0-.95-.09-1.92-.28-2.9-.19-.98-.44-1.89-.77-2.73s-.68-1.53-1.07-2.06h1.65c.76,1.07,1.35,2.25,1.74,3.52s.6,2.66.6,4.18Z"/>
    <path class="cls-1" d="m123.29,623.31l-.09.66c-.06.48-.16.99-.31,1.51-.14.53-.29,1.01-.44,1.46-.15.45-.27.81-.37,1.07h-1.28c.05-.25.12-.59.22-1.01.09-.42.18-.9.27-1.42.09-.52.16-1.06.2-1.6l.06-.68h1.74Z"/>
    <path class="cls-1" d="m130.66,619.87c0-1.51.2-2.91.6-4.18.4-1.27.98-2.45,1.75-3.52h1.65c-.3.4-.58.89-.83,1.47-.26.58-.48,1.21-.68,1.9s-.34,1.41-.45,2.14c-.11.74-.16,1.47-.16,2.18,0,.96.09,1.93.28,2.91.19.98.45,1.89.77,2.73.32.84.68,1.53,1.08,2.06h-1.65c-.76-1.07-1.35-2.25-1.75-3.52-.4-1.27-.6-2.67-.6-4.18Z"/>
    <path class="cls-1" d="m142.03,618.99v1.56h-5.48v-1.56h5.48Z"/>
    <path class="cls-1" d="m162,625.17c-.76,0-1.44-.15-2.04-.44s-1.08-.69-1.44-1.2c-.36-.51-.55-1.09-.57-1.75h1.81c.04.53.28.97.71,1.31.43.34.94.51,1.53.51.47,0,.9-.11,1.26-.33s.66-.52.87-.91c.21-.39.32-.83.32-1.32s-.11-.95-.33-1.35c-.22-.39-.52-.7-.9-.93-.38-.23-.82-.34-1.31-.34-.37,0-.75.06-1.13.19-.38.13-.68.3-.92.51l-1.71-.25.69-6.23h6.8v1.6h-5.25l-.39,3.46h.07c.24-.23.56-.43.96-.59.4-.16.83-.24,1.29-.24.75,0,1.42.18,2.01.54.59.36,1.05.85,1.39,1.46.34.62.51,1.33.5,2.13,0,.8-.18,1.51-.54,2.14s-.87,1.12-1.51,1.48-1.38.54-2.21.54Z"/>
    <path class="cls-1" d="m170.83,623.31l-.09.66c-.06.48-.16.99-.31,1.51-.14.53-.29,1.01-.44,1.46-.15.45-.27.81-.37,1.07h-1.28c.05-.25.12-.59.22-1.01.09-.42.18-.9.27-1.42.09-.52.16-1.06.2-1.6l.06-.68h1.74Zm-.94-4.94c-.33,0-.61-.12-.85-.36-.24-.24-.36-.52-.36-.85s.12-.61.36-.85.52-.35.85-.35.61.12.85.35c.24.24.36.52.36.85,0,.22-.05.42-.17.61-.11.18-.26.33-.44.44-.18.11-.38.16-.6.16Z"/>
    <path class="cls-1" d="m183.34,618.03v1.57h-5.48v-1.57h5.48Z"/>
    <path class="cls-1" d="m185.73,625v-1.35l4.18-4.33c.45-.47.82-.88,1.11-1.24.29-.36.51-.7.66-1.02.14-.32.22-.66.22-1.03,0-.41-.1-.77-.29-1.07s-.46-.53-.79-.69-.71-.25-1.13-.25c-.44,0-.83.09-1.16.27-.33.18-.58.44-.76.77s-.27.72-.27,1.16h-1.78c0-.75.17-1.41.52-1.97s.82-1,1.42-1.31c.6-.31,1.29-.47,2.06-.47s1.46.15,2.06.46c.59.31,1.06.73,1.39,1.26s.5,1.13.5,1.79c0,.46-.09.91-.26,1.35s-.47.93-.89,1.46c-.42.54-1.01,1.19-1.76,1.95l-2.46,2.57v.09h5.57v1.6h-8.14Z"/>
    <path class="cls-1" d="m199.65,618.82c0,1.52-.2,2.91-.6,4.18s-.98,2.44-1.74,3.52h-1.65c.3-.4.58-.89.83-1.47.26-.58.48-1.21.68-1.91.19-.69.34-1.41.45-2.15.11-.74.16-1.47.16-2.19,0-.95-.09-1.92-.28-2.9-.19-.98-.44-1.89-.77-2.73s-.68-1.53-1.07-2.06h1.65c.76,1.07,1.35,2.25,1.74,3.52s.6,2.66.6,4.18Z"/>
  </g>
</svg>