<?xml version="1.0" encoding="UTF-8"?>
<svg xmlns="http://www.w3.org/2000/svg" viewBox="0 0 150.25 150.5">
  <defs>
    <style>
      .cls-1 {
        fill: #fff;
      }

      .cls-2 {
        fill: #c75c5c;
      }

      .cls-3 {
        opacity: .31;
        stroke: #bdccd4;
        stroke-width: .5px;
      }

      .cls-3, .cls-4, .cls-5, .cls-6 {
        fill: none;
        stroke-miterlimit: 10;
      }

      .cls-4 {
        stroke: #fff;
      }

      .cls-4, .cls-5, .cls-6 {
        stroke-width: 2px;
      }

      .cls-7 {
        fill: #d1ae59;
      }

      .cls-5 {
        stroke: #d1ae59;
      }

      .cls-6 {
        stroke: #c75c5c;
      }
    </style>
  </defs>
  <g id="Layer_1" data-name="Layer 1">
    <rect class="cls-3" x=".25" y=".25" width="149.75" height="150"/>
    <line class="cls-3" x1="70" y1=".25" x2="70" y2="150.25"/>
    <line class="cls-3" x1="60" y1=".25" x2="60" y2="150.25"/>
    <line class="cls-3" x1="50" y1=".25" x2="50" y2="150.25"/>
    <line class="cls-3" x1="40" y1=".25" x2="40" y2="150.25"/>
    <line class="cls-3" x1="30" y1=".25" x2="30" y2="150.25"/>
    <line class="cls-3" x1="20" y1=".25" x2="20" y2="150.25"/>
    <line class="cls-3" x1="10" y1=".25" x2="10" y2="150.25"/>
    <line class="cls-3" x1="150" y1="80.25" x2=".5" y2="80.25"/>
    <line class="cls-3" x1="150" y1="90.25" x2=".5" y2="90.25"/>
    <line class="cls-3" x1="150" y1="100.25" x2=".5" y2="100.25"/>
    <line class="cls-3" x1="150" y1="110.25" x2=".5" y2="110.25"/>
    <line class="cls-3" x1="150" y1="120.25" x2=".5" y2="120.25"/>
    <line class="cls-3" x1="150" y1="130.25" x2=".5" y2="130.25"/>
    <line class="cls-3" x1="150" y1="140.25" x2=".5" y2="140.25"/>
    <line class="cls-3" x1="150" y1="70.25" x2=".5" y2="70.25"/>
    <line class="cls-3" x1="150" y1="60.25" x2=".5" y2="60.25"/>
    <line class="cls-3" x1="150" y1="50.25" x2=".5" y2="50.25"/>
    <line class="cls-3" x1="150" y1="40.25" x2=".5" y2="40.25"/>
    <line class="cls-3" x1="150" y1="30.25" x2=".5" y2="30.25"/>
    <line class="cls-3" x1="150" y1="20.25" x2=".5" y2="20.25"/>
    <line class="cls-3" x1="150" y1="10.25" x2=".5" y2="10.25"/>
    <line class="cls-3" x1="80" y1=".25" x2="80" y2="150.25"/>
    <line class="cls-3" x1="90" y1=".25" x2="90" y2="150.25"/>
    <line class="cls-3" x1="100" y1=".25" x2="100" y2="150.25"/>
    <line class="cls-3" x1="110" y1=".25" x2="110" y2="150.25"/>
    <line class="cls-3" x1="120" y1=".25" x2="120" y2="150.25"/>
    <line class="cls-3" x1="130" y1=".25" x2="130" y2="150.25"/>
    <line class="cls-3" x1="140" y1=".25" x2="140" y2="150.25"/>
  </g>
  <g id="Layer_2" data-name="Layer 2">
    <line class="cls-4" x1="10.12" y1="70.25" x2="140.12" y2="70.25"/>
    <line class="cls-4" x1="50.12" y1="10.25" x2="50.12" y2="140.25"/>
    <polygon class="cls-1" points="50.12 6.25 47.82 10.25 52.43 10.25 50.12 6.25"/>
    <polygon class="cls-1" points="144.12 70.25 140.12 67.94 140.12 72.56 144.12 70.25"/>
    <circle class="cls-7" cx="20.12" cy="70.25" r="1"/>
    <circle class="cls-7" cx="60.12" cy="90.25" r="1"/>
    <circle class="cls-7" cx="50.12" cy="50.25" r="1"/>
    <circle class="cls-7" cx="40.12" cy="80.25" r="1"/>
    <circle class="cls-7" cx="60.12" cy="20.25" r="1"/>
    <polyline class="cls-6" points="20.12 70.25 60.12 90.25 100 110.25 140 130.25"/>
    <line class="cls-6" x1="10.12" y1="65.31" x2="20" y2="70.25"/>
    <polyline class="cls-5" points="64.81 6.25 53.64 39.75 42.47 73.25 31.17 106.75 20 140.25"/>
    <g>
      <path class="cls-7" d="m72.55,17.45c-.19,0-.36-.02-.52-.04s-.27-.06-.35-.1l.31-1.04c.23.06.44.09.62.08.18,0,.34-.08.48-.2.14-.13.26-.34.37-.63l.16-.43-2.39-6.63h1.36l1.66,5.08h.07l1.66-5.08h1.37l-2.7,7.42c-.12.34-.28.63-.48.87s-.42.42-.69.53c-.27.12-.58.18-.93.18Z"/>
      <path class="cls-7" d="m82.13,9.87v-1.12h5.46v1.12h-5.46Zm0,2.62v-1.12h5.46v1.12h-5.46Z"/>
      <path class="cls-7" d="m95.91,15.11c-.58,0-1.11-.1-1.57-.3s-.82-.48-1.09-.84c-.27-.36-.41-.78-.43-1.25h1.34c.02.26.1.48.26.67.16.19.36.33.62.44.26.1.54.15.85.15.34,0,.65-.06.91-.18.27-.12.47-.29.62-.5.15-.21.23-.46.23-.74s-.08-.55-.22-.77c-.15-.22-.37-.4-.65-.53s-.63-.19-1.03-.19h-.74v-1.07h.74c.32,0,.61-.06.85-.17.25-.12.44-.28.58-.49.14-.21.21-.45.21-.73s-.06-.51-.18-.71c-.12-.2-.29-.36-.51-.47-.22-.11-.48-.17-.78-.17s-.55.05-.79.16c-.25.1-.45.25-.6.44-.15.19-.24.42-.25.69h-1.27c.01-.47.15-.89.42-1.24s.62-.64,1.05-.84.92-.3,1.46-.3,1.04.11,1.45.33c.41.22.72.51.95.87.22.36.33.76.33,1.18,0,.49-.13.9-.41,1.24-.27.34-.64.57-1.09.69v.07c.58.09,1.03.32,1.35.69.32.37.48.83.47,1.38,0,.48-.13.91-.4,1.29-.27.38-.63.68-1.1.9-.46.22-.99.33-1.59.33Z"/>
      <path class="cls-7" d="m101.63,8.45l1.44,2.55,1.46-2.55h1.39l-2.04,3.27,2.06,3.27h-1.39l-1.47-2.45-1.47,2.45h-1.4l2.04-3.27-2.01-3.27h1.4Z"/>
      <path class="cls-7" d="m110.67,11.22v-1.14h5.76v1.14h-5.76Zm2.31,2.31v-5.76h1.15v5.76h-1.15Z"/>
      <path class="cls-7" d="m121.56,14.99v-.95l2.95-3.06c.32-.33.58-.62.78-.88.21-.25.36-.49.46-.72s.15-.47.15-.72c0-.29-.07-.54-.21-.75-.14-.21-.32-.38-.56-.49-.24-.11-.5-.17-.8-.17-.31,0-.59.06-.82.19-.23.13-.41.31-.54.54s-.19.51-.19.82h-1.26c0-.53.12-1,.37-1.39.24-.4.58-.71,1.01-.93s.91-.33,1.45-.33,1.03.11,1.45.33.75.51.98.89c.24.37.35.79.35,1.26,0,.32-.06.64-.18.95-.12.31-.33.65-.63,1.03-.3.38-.71.84-1.24,1.38l-1.73,1.81v.06h3.93v1.13h-5.74Z"/>
    </g>
    <g>
      <path class="cls-2" d="m82.06,95.95c-.19,0-.36-.01-.52-.04-.16-.03-.27-.06-.35-.1l.31-1.04c.23.06.44.09.62.08.18,0,.34-.08.48-.2s.26-.34.37-.63l.16-.43-2.39-6.63h1.36l1.66,5.08h.07l1.66-5.08h1.37l-2.7,7.42c-.12.34-.28.63-.48.87-.19.24-.42.42-.69.53s-.58.18-.93.18Z"/>
      <path class="cls-2" d="m91.64,89.31v-1.12h5.46v1.12h-5.46Zm0,2.62v-1.12h5.46v1.12h-5.46Z"/>
      <path class="cls-2" d="m113.54,89.26v1.1h-12v-1.1h12Z"/>
      <path class="cls-2" d="m115.4,86.95l1.44,2.55,1.46-2.55h1.39l-2.04,3.27,2.06,3.27h-1.39l-1.47-2.45-1.47,2.45h-1.4l2.04-3.27-2.01-3.27h1.4Z"/>
      <path class="cls-2" d="m128.04,89.26v1.1h-3.87v-1.1h3.87Z"/>
      <path class="cls-2" d="m144.07,89.26v1.1h-12v-1.1h12Z"/>
    </g>
    <g>
      <path class="cls-2" d="m108.15,79.79v8.73h-1.32v-7.41h-.05l-2.09,1.36v-1.26l2.18-1.42h1.28Z"/>
      <path class="cls-2" d="m103.99,100.51v-.95l2.95-3.06c.32-.33.58-.62.78-.88.21-.25.36-.49.46-.72.1-.23.15-.47.15-.72,0-.29-.07-.54-.21-.75-.14-.21-.32-.38-.56-.49-.24-.12-.5-.17-.8-.17-.31,0-.59.06-.82.19-.23.13-.41.31-.54.54-.12.23-.19.51-.19.82h-1.26c0-.53.12-1,.37-1.39.24-.4.58-.71,1.01-.93.43-.22.91-.33,1.45-.33s1.03.11,1.45.33c.42.22.75.51.98.89.24.37.35.79.35,1.26,0,.32-.06.64-.18.95-.12.31-.33.65-.63,1.03-.3.38-.71.84-1.24,1.38l-1.73,1.82v.06h3.93v1.13h-5.74Z"/>
    </g>
    <g>
      <path class="cls-2" d="m137.69,88.14c-.58,0-1.11-.1-1.57-.3-.46-.2-.82-.48-1.09-.84-.27-.36-.41-.78-.43-1.25h1.34c.02.26.1.48.26.67.16.19.36.33.62.44.26.1.54.15.85.15.34,0,.65-.06.91-.18s.47-.29.62-.5c.15-.21.23-.46.23-.74s-.08-.55-.22-.77c-.15-.22-.37-.4-.65-.53s-.63-.19-1.03-.19h-.74v-1.07h.74c.32,0,.61-.06.85-.17.25-.12.44-.28.58-.49.14-.21.21-.45.21-.74s-.06-.5-.18-.71c-.12-.2-.29-.36-.51-.47-.22-.11-.48-.17-.78-.17s-.55.05-.79.16c-.25.1-.45.25-.6.44-.15.19-.24.42-.25.69h-1.27c.01-.47.15-.89.42-1.24.27-.36.62-.64,1.05-.84s.92-.3,1.46-.3,1.04.11,1.45.33c.41.22.72.51.95.87.22.36.33.76.33,1.18,0,.49-.13.9-.41,1.24s-.64.57-1.09.69v.07c.58.09,1.03.32,1.35.69.32.37.48.83.47,1.39,0,.48-.13.91-.4,1.29s-.63.68-1.1.9c-.46.22-.99.33-1.59.33Z"/>
      <path class="cls-2" d="m134.84,100.03v-.95l2.95-3.06c.32-.33.58-.62.78-.88.21-.25.36-.49.46-.72.1-.23.15-.47.15-.72,0-.29-.07-.54-.21-.75-.14-.21-.32-.38-.56-.49-.24-.12-.5-.17-.8-.17-.31,0-.59.06-.82.19-.23.13-.41.31-.54.54-.12.23-.19.51-.19.82h-1.26c0-.53.12-1,.37-1.39.24-.4.58-.71,1.01-.93.43-.22.91-.33,1.45-.33s1.03.11,1.45.33c.42.22.75.51.98.89.24.37.35.79.35,1.26,0,.32-.06.64-.18.95-.12.31-.33.65-.63,1.03-.3.38-.71.84-1.24,1.38l-1.73,1.82v.06h3.93v1.13h-5.74Z"/>
    </g>
  </g>
</svg>