<?xml version="1.0" encoding="UTF-8"?>
<svg id="Layer_1" data-name="Layer 1" xmlns="http://www.w3.org/2000/svg" viewBox="0 0 228 242">
  <defs>
    <style>
      .cls-1 {
        fill: #fff;
      }

      .cls-2 {
        fill: #d1ae59;
      }

      .cls-3 {
        fill: none;
        stroke: #d1ae59;
        stroke-miterlimit: 10;
        stroke-width: 1.5px;
      }
    </style>
  </defs>
  <g>
    <path class="cls-1" d="m13.74,3.56l2.05,3.61,2.06-3.61h1.97l-2.89,4.64,2.92,4.64h-1.97l-2.09-3.47-2.08,3.47h-1.98l2.89-4.64-2.85-4.64h1.98Z"/>
    <path class="cls-1" d="m26.56,7.48v-1.62h8.16v1.62h-8.16Zm3.27,3.27V2.59h1.62v8.16h-1.62Z"/>
    <path class="cls-1" d="m41.73,10.41v-1.51L47.07.47h1.19v2.22h-.75l-3.82,6.05v.1h7.32v1.58h-9.28Zm5.86,2.41v-3.56s.01-8.8.01-8.8h1.77v12.36h-1.78Z"/>
    <path class="cls-1" d="m54.28,16.31c-.27,0-.52-.02-.74-.06-.22-.04-.39-.09-.5-.14l.43-1.48c.33.09.62.13.88.11.26-.01.49-.11.69-.29s.38-.48.53-.89l.22-.62-3.39-9.39h1.93l2.35,7.2h.1l2.35-7.2h1.94l-3.82,10.51c-.18.48-.4.89-.68,1.23-.27.34-.6.59-.98.76-.38.17-.82.25-1.32.25Z"/>
    <path class="cls-1" d="m72.73,5.86v1.57h-5.48v-1.57h5.48Z"/>
    <path class="cls-1" d="m79.62,12.83v-1.35l4.18-4.33c.45-.47.82-.88,1.11-1.24.29-.36.51-.7.66-1.02.14-.32.22-.66.22-1.03,0-.41-.1-.77-.29-1.07-.19-.3-.46-.53-.79-.69-.33-.16-.71-.24-1.13-.24-.44,0-.83.09-1.16.27s-.58.44-.76.77c-.18.33-.27.72-.27,1.16h-1.78c0-.75.17-1.41.52-1.97s.82-1,1.42-1.31c.6-.31,1.29-.47,2.06-.47s1.46.15,2.06.46c.59.31,1.06.73,1.39,1.26.33.53.5,1.13.5,1.79,0,.46-.09.91-.26,1.35-.17.44-.47.93-.89,1.46-.42.54-1.01,1.19-1.76,1.95l-2.46,2.57v.09h5.57v1.6h-8.14Z"/>
    <path class="cls-1" d="m95.15,5.58v-1.58h7.73v1.58h-7.73Zm0,3.72v-1.58h7.73v1.58h-7.73Z"/>
    <path class="cls-1" d="m114.67,13.03c-.95,0-1.77-.26-2.44-.75-.68-.5-1.19-1.23-1.55-2.18-.36-.95-.54-2.1-.54-3.45s.18-2.49.54-3.44.88-1.67,1.56-2.17,1.49-.75,2.44-.75,1.76.25,2.43.75c.68.5,1.19,1.23,1.55,2.17.36.95.54,2.09.54,3.43s-.18,2.5-.54,3.45c-.36.95-.88,1.68-1.55,2.18s-1.49.75-2.44.75Zm0-1.61c.84,0,1.49-.41,1.97-1.23.47-.82.71-2,.71-3.54,0-1.03-.11-1.89-.32-2.6-.21-.71-.52-1.25-.92-1.62-.4-.37-.88-.55-1.43-.55-.83,0-1.49.41-1.96,1.23-.47.82-.71,2-.72,3.54,0,1.03.11,1.9.32,2.61.22.71.52,1.25.92,1.61s.88.55,1.44.55Z"/>
    <path class="cls-1" d="m123.72,11.14l-.09.66c-.06.48-.16.99-.31,1.51-.14.53-.29,1.01-.44,1.46-.15.45-.27.81-.37,1.07h-1.28c.05-.25.12-.59.22-1.01.09-.42.18-.9.27-1.42.09-.52.16-1.06.2-1.6l.06-.68h1.74Z"/>
    <path class="cls-1" d="m16.6,33.4c-.83,0-1.57-.14-2.22-.43-.65-.29-1.16-.68-1.54-1.19-.38-.51-.58-1.1-.61-1.77h1.9c.02.37.15.68.37.95.22.27.52.47.88.62.36.15.76.22,1.21.22.49,0,.92-.08,1.29-.25s.67-.41.88-.71c.21-.3.32-.65.32-1.05s-.11-.78-.32-1.1c-.21-.32-.52-.56-.92-.75s-.89-.27-1.46-.27h-1.04v-1.52h1.04c.46,0,.86-.08,1.21-.25s.62-.4.82-.69c.2-.3.3-.64.3-1.04s-.09-.72-.26-1c-.17-.28-.41-.51-.72-.67-.31-.16-.68-.24-1.1-.24s-.78.07-1.13.22c-.35.15-.63.36-.85.63-.22.27-.33.6-.35.98h-1.8c.02-.67.22-1.26.59-1.76.38-.51.87-.9,1.49-1.19.62-.29,1.31-.43,2.06-.43s1.48.15,2.06.46c.58.31,1.02.72,1.34,1.23s.47,1.07.47,1.68c0,.69-.19,1.28-.58,1.76-.39.48-.9.81-1.55.97v.1c.82.12,1.46.45,1.91.98.45.53.68,1.18.67,1.96,0,.68-.18,1.29-.56,1.83-.38.54-.9.96-1.55,1.27-.66.31-1.41.46-2.25.46Z"/>
    <path class="cls-1" d="m24.69,23.96l2.05,3.61,2.06-3.61h1.97l-2.89,4.64,2.92,4.64h-1.97l-2.09-3.47-2.08,3.47h-1.98l2.89-4.64-2.85-4.64h1.98Z"/>
    <path class="cls-1" d="m37.51,27.88v-1.62h8.16v1.62h-8.16Zm3.27,3.27v-8.16h1.62v8.16h-1.62Z"/>
    <path class="cls-1" d="m57.12,33.4c-.87,0-1.63-.15-2.29-.45s-1.18-.71-1.55-1.23c-.38-.52-.56-1.12-.56-1.79,0-.52.1-1,.32-1.45.22-.44.52-.81.9-1.1.38-.3.8-.48,1.27-.56v-.07c-.62-.15-1.11-.48-1.48-.99s-.55-1.1-.55-1.76c0-.63.16-1.2.5-1.69s.81-.89,1.4-1.17,1.27-.43,2.04-.43,1.43.14,2.02.43c.59.29,1.06.68,1.4,1.18s.52,1.06.52,1.69c0,.66-.19,1.25-.57,1.76-.37.51-.86.84-1.46.99v.07c.46.08.88.27,1.25.56.37.3.67.66.89,1.1.22.44.34.92.34,1.45,0,.67-.19,1.26-.57,1.79-.37.52-.89.93-1.55,1.23s-1.42.45-2.28.45Zm0-1.53c.51,0,.95-.09,1.33-.26.37-.17.66-.41.87-.72.21-.31.31-.67.31-1.08,0-.43-.12-.81-.33-1.14-.22-.33-.52-.59-.89-.78-.38-.19-.8-.28-1.29-.28s-.92.09-1.3.28c-.38.19-.68.45-.89.78-.22.33-.32.71-.32,1.14,0,.41.1.78.3,1.08.2.31.49.55.87.72.38.17.83.26,1.34.26Zm0-5.75c.41,0,.77-.08,1.09-.25s.57-.39.75-.69c.18-.29.28-.64.28-1.03,0-.39-.1-.72-.28-1.01s-.43-.51-.75-.67c-.32-.16-.69-.24-1.1-.24s-.8.08-1.12.24c-.32.16-.57.38-.75.67-.18.29-.26.63-.26,1.01,0,.39.08.74.27,1.03.18.29.43.52.75.69.32.17.69.25,1.11.25Z"/>
    <path class="cls-1" d="m64.84,36.71c-.27,0-.52-.02-.74-.06-.22-.04-.39-.09-.5-.14l.43-1.48c.33.09.62.13.88.11.26-.01.49-.11.69-.29s.38-.48.53-.89l.22-.62-3.39-9.39h1.93l2.35,7.2h.1l2.35-7.2h1.94l-3.82,10.51c-.18.48-.4.89-.68,1.23-.27.34-.6.59-.98.76-.38.17-.82.25-1.32.25Z"/>
    <path class="cls-1" d="m83.29,26.26v1.57h-5.48v-1.57h5.48Z"/>
    <path class="cls-1" d="m90.18,33.23v-1.35l4.18-4.33c.45-.47.82-.88,1.11-1.24.29-.36.51-.7.66-1.02.14-.32.22-.66.22-1.03,0-.41-.1-.77-.29-1.07-.19-.3-.46-.53-.79-.69-.33-.16-.71-.24-1.13-.24-.44,0-.83.09-1.16.27s-.58.44-.76.77c-.18.33-.27.72-.27,1.16h-1.78c0-.75.17-1.41.52-1.97s.82-1,1.42-1.31c.6-.31,1.29-.47,2.06-.47s1.46.15,2.06.46c.59.31,1.06.73,1.39,1.26.33.53.5,1.13.5,1.79,0,.46-.09.91-.26,1.35-.17.44-.47.93-.89,1.46-.42.54-1.01,1.19-1.76,1.95l-2.46,2.57v.09h5.57v1.6h-8.14Z"/>
    <path class="cls-1" d="m105.71,25.98v-1.58h7.73v1.58h-7.73Zm0,3.72v-1.58h7.73v1.58h-7.73Z"/>
    <path class="cls-1" d="m125.24,33.43c-.95,0-1.77-.26-2.44-.75-.68-.5-1.19-1.23-1.55-2.18-.36-.95-.54-2.1-.54-3.45s.18-2.49.54-3.44.88-1.67,1.56-2.17,1.49-.75,2.44-.75,1.76.25,2.43.75c.68.5,1.19,1.23,1.55,2.17.36.95.54,2.09.54,3.43s-.18,2.5-.54,3.45c-.36.95-.88,1.68-1.55,2.18s-1.49.75-2.44.75Zm0-1.61c.84,0,1.49-.41,1.97-1.23.47-.82.71-2,.71-3.54,0-1.03-.11-1.89-.32-2.6-.21-.71-.52-1.25-.92-1.62-.4-.37-.88-.55-1.43-.55-.83,0-1.49.41-1.96,1.23-.47.82-.71,2-.72,3.54,0,1.03.11,1.9.32,2.61.22.71.52,1.25.92,1.61s.88.55,1.44.55Z"/>
    <path class="cls-1" d="m134.29,31.54l-.09.66c-.06.48-.16.99-.31,1.51-.14.53-.29,1.01-.44,1.46-.15.45-.27.81-.37,1.07h-1.28c.05-.25.12-.59.22-1.01.09-.42.18-.9.27-1.42.09-.52.16-1.06.2-1.6l.06-.68h1.74Zm-.94-4.94c-.33,0-.61-.12-.85-.36s-.36-.52-.36-.85.12-.61.36-.85c.24-.24.52-.35.85-.35s.61.12.85.35c.24.24.36.52.36.85,0,.22-.05.42-.17.61-.11.18-.26.33-.44.44-.18.11-.38.16-.6.16Z"/>
  </g>
  <g>
    <path class="cls-1" d="m14.03,45.83l2.05,3.61,2.06-3.61h1.97l-2.89,4.64,2.92,4.64h-1.97l-2.09-3.47-2.08,3.47h-1.98l2.89-4.64-2.85-4.64h1.98Z"/>
    <path class="cls-1" d="m27.06,47.85v-1.58h7.73v1.58h-7.73Zm0,3.72v-1.58h7.73v1.58h-7.73Z"/>
    <path class="cls-1" d="m42.28,55.1v-1.35l4.18-4.33c.45-.47.82-.88,1.11-1.24.29-.36.51-.7.66-1.02.15-.32.22-.66.22-1.03,0-.41-.1-.77-.29-1.07-.19-.3-.46-.53-.79-.69-.33-.16-.71-.24-1.13-.24-.44,0-.83.09-1.16.27s-.58.44-.76.77c-.18.33-.27.72-.27,1.16h-1.78c0-.75.17-1.41.52-1.97s.82-1,1.42-1.31c.6-.31,1.29-.47,2.06-.47s1.46.15,2.06.46c.59.31,1.06.73,1.39,1.26.33.53.5,1.13.5,1.79,0,.46-.09.91-.26,1.35-.17.44-.47.93-.89,1.46-.42.54-1.01,1.19-1.76,1.95l-2.46,2.57v.09h5.57v1.6h-8.14Z"/>
    <path class="cls-1" d="m62.69,48.13v1.57h-5.48v-1.57h5.48Z"/>
    <path class="cls-1" d="m69.32,52.69v-1.51l5.34-8.44h1.19v2.22h-.75l-3.82,6.05v.1h7.32v1.58h-9.28Zm5.86,2.41v-3.56s.01-8.8.01-8.8h1.77v12.36h-1.78Z"/>
    <path class="cls-1" d="m81.87,58.58c-.27,0-.52-.02-.74-.06-.22-.04-.39-.09-.49-.14l.43-1.48c.33.09.62.13.88.11.26-.01.49-.11.69-.29s.38-.48.53-.89l.22-.62-3.39-9.39h1.93l2.35,7.2h.1l2.35-7.2h1.94l-3.82,10.51c-.18.48-.4.89-.68,1.23-.27.34-.6.59-.98.76s-.82.25-1.32.25Z"/>
    <path class="cls-1" d="m16.89,75.67c-.83,0-1.57-.14-2.22-.43-.65-.29-1.16-.68-1.54-1.19-.38-.51-.58-1.1-.61-1.77h1.9c.02.37.15.68.37.95.22.27.52.47.88.62.36.15.76.22,1.21.22.49,0,.92-.08,1.29-.25s.67-.41.88-.71c.21-.3.32-.65.32-1.05s-.11-.78-.32-1.1c-.21-.32-.52-.56-.92-.75s-.89-.27-1.46-.27h-1.04v-1.52h1.04c.46,0,.86-.08,1.21-.25s.62-.4.82-.69c.2-.3.3-.64.3-1.04s-.09-.72-.26-1c-.17-.28-.41-.51-.72-.67-.31-.16-.68-.24-1.1-.24s-.78.07-1.13.22c-.35.15-.63.36-.85.63-.22.27-.33.6-.35.98h-1.8c.02-.67.22-1.26.59-1.76.38-.51.87-.9,1.49-1.19.62-.29,1.31-.43,2.06-.43s1.48.15,2.06.46c.58.31,1.02.72,1.34,1.23s.47,1.07.47,1.68c0,.69-.19,1.28-.58,1.76-.39.48-.9.81-1.55.97v.1c.82.12,1.46.45,1.91.98.45.53.68,1.18.67,1.96,0,.68-.18,1.29-.56,1.83-.38.54-.9.96-1.55,1.27-.66.31-1.41.46-2.25.46Z"/>
    <path class="cls-1" d="m24.98,66.23l2.05,3.61,2.06-3.61h1.97l-2.89,4.64,2.92,4.64h-1.97l-2.09-3.47-2.08,3.47h-1.98l2.89-4.64-2.85-4.64h1.98Z"/>
    <path class="cls-1" d="m37.8,70.15v-1.62h8.16v1.62h-8.16Zm3.27,3.27v-8.16h1.62v8.16h-1.62Z"/>
    <path class="cls-1" d="m57.41,75.67c-.87,0-1.63-.15-2.29-.45s-1.18-.71-1.55-1.23c-.37-.52-.56-1.12-.56-1.79,0-.52.1-1,.32-1.45.22-.44.52-.81.9-1.1.38-.3.8-.48,1.27-.56v-.07c-.62-.15-1.11-.48-1.48-.99-.37-.51-.55-1.1-.55-1.76,0-.63.16-1.2.5-1.69.34-.5.81-.89,1.4-1.17.6-.29,1.27-.43,2.03-.43s1.43.14,2.02.43,1.06.68,1.4,1.18c.34.5.52,1.06.52,1.69,0,.66-.19,1.25-.57,1.76-.37.51-.86.84-1.46.99v.07c.46.08.88.27,1.25.56s.67.66.89,1.1c.22.44.34.92.34,1.45,0,.67-.19,1.26-.57,1.79-.37.52-.89.93-1.55,1.23-.66.3-1.42.45-2.28.45Zm0-1.53c.51,0,.95-.09,1.33-.26.37-.17.66-.41.87-.72.21-.31.31-.67.31-1.08,0-.43-.12-.81-.34-1.14-.22-.33-.52-.59-.89-.78-.37-.19-.8-.28-1.29-.28s-.92.09-1.3.28c-.38.19-.68.45-.89.78-.22.33-.32.71-.32,1.14,0,.41.1.78.3,1.08.2.31.49.55.87.72.38.17.82.26,1.34.26Zm0-5.75c.41,0,.77-.08,1.09-.25s.57-.39.75-.69c.18-.29.28-.64.28-1.03,0-.39-.1-.72-.27-1.01-.18-.29-.43-.51-.75-.67-.32-.16-.69-.24-1.1-.24s-.8.08-1.12.24c-.32.16-.57.38-.75.67s-.26.63-.26,1.01c0,.39.08.74.27,1.03.18.29.43.52.75.69.32.17.69.25,1.11.25Z"/>
    <path class="cls-1" d="m65.13,78.98c-.27,0-.52-.02-.74-.06-.22-.04-.39-.09-.49-.14l.43-1.48c.33.09.62.13.88.11.26-.01.49-.11.69-.29s.38-.48.53-.89l.22-.62-3.39-9.39h1.93l2.35,7.2h.1l2.35-7.2h1.94l-3.82,10.51c-.18.48-.4.89-.68,1.23-.27.34-.6.59-.98.76s-.82.25-1.32.25Z"/>
    <path class="cls-1" d="m83.58,68.53v1.57h-5.48v-1.57h5.48Z"/>
    <path class="cls-1" d="m90.47,75.5v-1.35l4.18-4.33c.45-.47.82-.88,1.11-1.24.29-.36.51-.7.66-1.02.14-.32.22-.66.22-1.03,0-.41-.1-.77-.29-1.07-.19-.3-.46-.53-.79-.69-.33-.16-.71-.24-1.13-.24-.44,0-.83.09-1.16.27s-.58.44-.76.77c-.18.33-.27.72-.27,1.16h-1.78c0-.75.17-1.41.52-1.97s.82-1,1.42-1.31c.6-.31,1.29-.47,2.06-.47s1.46.15,2.06.46c.59.31,1.06.73,1.39,1.26.33.53.5,1.13.5,1.79,0,.46-.09.91-.26,1.35-.17.44-.47.93-.89,1.46-.42.54-1.01,1.19-1.76,1.95l-2.46,2.57v.09h5.57v1.6h-8.14Z"/>
    <path class="cls-1" d="m106,68.25v-1.58h7.73v1.58h-7.73Zm0,3.72v-1.58h7.73v1.58h-7.73Z"/>
    <path class="cls-1" d="m125.53,75.71c-.95,0-1.77-.26-2.44-.75-.68-.5-1.19-1.23-1.55-2.18-.36-.95-.54-2.1-.54-3.45s.18-2.49.54-3.44.88-1.67,1.56-2.17,1.49-.75,2.44-.75,1.76.25,2.43.75c.68.5,1.19,1.23,1.55,2.17.36.95.54,2.09.54,3.43s-.18,2.5-.54,3.45c-.36.95-.88,1.68-1.55,2.18s-1.49.75-2.44.75Zm0-1.61c.84,0,1.49-.41,1.97-1.23.47-.82.71-2,.71-3.54,0-1.03-.11-1.89-.32-2.6-.21-.71-.52-1.25-.92-1.62-.4-.37-.88-.55-1.43-.55-.83,0-1.49.41-1.96,1.23-.47.82-.71,2-.72,3.54,0,1.03.11,1.9.32,2.61.22.71.52,1.25.92,1.61s.88.55,1.44.55Z"/>
  </g>
  <path class="cls-1" d="m.53,61.19v-.89c1.6,0,2.68-.3,3.25-.87.57-.57.85-1.65.85-3.23v-7.26c0-1.01.1-1.88.3-2.62.2-.74.51-1.36.93-1.85s.94-.85,1.57-1.09,1.38-.36,2.24-.36v.89c-.96,0-1.75.16-2.36.51-.61.35-1.07.9-1.36,1.64-.29.74-.44,1.71-.44,2.89v7.26c0,.91-.09,1.69-.26,2.32-.18.63-.46,1.15-.84,1.54s-.9.68-1.54.86c-.64.18-1.42.27-2.34.27Zm9.14,17.28c-.86,0-1.6-.12-2.24-.36-.63-.24-1.16-.6-1.57-1.09s-.73-1.11-.93-1.85c-.2-.74-.3-1.62-.3-2.62v-7.26c0-1.59-.28-2.67-.85-3.23s-1.65-.86-3.25-.87v-.89c.92,0,1.7.1,2.34.28.64.18,1.15.46,1.54.85s.67.9.84,1.53c.18.63.26,1.41.26,2.32v7.26c0,1.18.15,2.14.44,2.89.29.74.74,1.29,1.36,1.63.61.35,1.4.52,2.36.52v.89ZM.53,61.19v-.89h2.99v.89H.53Z"/>
  <path class="cls-1" d="m.53,18.19v-.89c1.6,0,2.68-.3,3.25-.87.57-.57.85-1.65.85-3.23v-7.26c0-1.01.1-1.88.3-2.62.2-.74.51-1.36.93-1.85s.94-.85,1.57-1.09S8.81.01,9.67.01v.89c-.96,0-1.75.16-2.36.51-.61.35-1.07.9-1.36,1.64-.29.74-.44,1.71-.44,2.89v7.26c0,.91-.09,1.69-.26,2.32-.18.63-.46,1.15-.84,1.54s-.9.68-1.54.86c-.64.18-1.42.27-2.34.27Zm9.14,17.28c-.86,0-1.6-.12-2.24-.36-.63-.24-1.16-.6-1.57-1.09s-.73-1.11-.93-1.85c-.2-.74-.3-1.62-.3-2.62v-7.26c0-1.59-.28-2.67-.85-3.23s-1.65-.86-3.25-.87v-.89c.92,0,1.7.1,2.34.28.64.18,1.15.46,1.54.85s.67.9.84,1.53c.18.63.26,1.41.26,2.32v7.26c0,1.18.15,2.14.44,2.89.29.74.74,1.29,1.36,1.63.61.35,1.4.52,2.36.52v.89ZM.53,18.19v-.89h2.99v.89H.53Z"/>
  <g>
    <circle class="cls-3" cx="151" cy="69" r="8"/>
    <path class="cls-2" d="m152.13,64.86v8.73h-1.58v-7.19h-.05l-2.04,1.3v-1.45l2.17-1.39h1.5Z"/>
  </g>
  <g>
    <circle class="cls-3" cx="36" cy="95" r="8"/>
    <path class="cls-2" d="m37.13,90.86v8.73h-1.58v-7.19h-.05l-2.04,1.3v-1.45l2.17-1.39h1.5Z"/>
  </g>
  <circle class="cls-3" cx="36" cy="193" r="8"/>
  <path class="cls-2" d="m33.05,197.58v-1.14l3.03-2.97c.29-.29.53-.55.72-.78.19-.23.34-.45.43-.66.1-.21.14-.44.14-.68,0-.28-.06-.51-.19-.71s-.3-.35-.52-.46c-.22-.11-.47-.16-.75-.16s-.54.06-.75.18-.38.29-.5.5c-.12.22-.18.47-.18.77h-1.5c0-.55.13-1.04.38-1.44s.6-.73,1.05-.95c.45-.22.96-.34,1.53-.34s1.1.11,1.54.33.79.52,1.03.9.37.82.37,1.3c0,.33-.06.65-.19.96-.12.31-.34.66-.66,1.05-.31.38-.75.85-1.32,1.39l-1.5,1.53v.06h3.8v1.32h-5.98Z"/>
  <circle class="cls-3" cx="105" cy="51" r="8"/>
  <path class="cls-2" d="m102.05,55.58v-1.14l3.03-2.97c.29-.29.53-.55.72-.78.19-.23.34-.45.43-.66.1-.21.14-.44.14-.68,0-.28-.06-.51-.19-.71s-.3-.35-.52-.46-.47-.16-.75-.16-.54.06-.75.18c-.22.12-.38.29-.5.5-.12.22-.18.47-.18.77h-1.5c0-.55.13-1.04.38-1.44s.6-.73,1.05-.95c.45-.22.96-.34,1.53-.34s1.1.11,1.54.33.79.52,1.03.9c.25.38.37.82.37,1.3,0,.33-.06.65-.19.96-.12.31-.34.66-.66,1.05-.31.38-.75.85-1.32,1.39l-1.5,1.53v.06h3.8v1.32h-5.98Z"/>
  <g>
    <path class="cls-1" d="m62.81,100.6c-.83,0-1.57-.14-2.22-.43-.65-.29-1.16-.68-1.54-1.19-.38-.51-.58-1.1-.61-1.77h1.9c.02.37.15.68.37.95.22.27.52.47.88.62.36.15.76.22,1.21.22.49,0,.92-.08,1.29-.25s.67-.41.88-.71c.21-.3.32-.65.32-1.05s-.11-.78-.32-1.1c-.21-.32-.52-.56-.92-.75s-.89-.27-1.46-.27h-1.04v-1.52h1.04c.46,0,.86-.08,1.21-.25s.62-.4.82-.69c.2-.3.3-.64.3-1.04s-.09-.72-.26-1c-.17-.28-.41-.51-.72-.67-.31-.16-.68-.24-1.1-.24s-.78.07-1.13.22c-.35.15-.63.36-.85.63-.22.27-.33.6-.35.98h-1.8c.02-.67.22-1.26.59-1.76.38-.51.87-.9,1.49-1.19.62-.29,1.31-.43,2.06-.43s1.48.15,2.06.46c.58.31,1.02.72,1.34,1.23s.47,1.07.47,1.68c0,.69-.19,1.28-.58,1.76-.39.48-.9.81-1.55.97v.1c.82.12,1.46.45,1.91.98.45.53.68,1.18.67,1.96,0,.68-.18,1.29-.56,1.83-.38.54-.9.96-1.55,1.27-.66.31-1.41.46-2.25.46Z"/>
    <path class="cls-1" d="m70,94.25c0-1.51.2-2.91.6-4.18.4-1.27.98-2.44,1.74-3.52h1.65c-.3.4-.58.89-.83,1.47-.26.58-.48,1.21-.68,1.9-.19.69-.34,1.4-.45,2.14-.11.74-.16,1.47-.16,2.18,0,.96.09,1.93.28,2.91.19.98.44,1.89.77,2.73.32.84.68,1.53,1.07,2.06h-1.65c-.76-1.07-1.35-2.25-1.74-3.52-.4-1.27-.6-2.67-.6-4.18Z"/>
    <path class="cls-1" d="m75.88,100.43v-1.35l4.18-4.33c.45-.47.82-.88,1.11-1.24.29-.36.51-.7.66-1.02.15-.32.22-.66.22-1.03,0-.41-.1-.77-.29-1.07-.19-.3-.46-.53-.79-.69-.33-.16-.71-.24-1.13-.24-.44,0-.83.09-1.16.27s-.58.44-.76.77c-.18.33-.27.72-.27,1.16h-1.78c0-.75.17-1.41.52-1.97s.82-1,1.42-1.31c.6-.31,1.29-.47,2.06-.47s1.46.15,2.06.46c.59.31,1.06.73,1.39,1.26.33.53.5,1.13.5,1.79,0,.46-.09.91-.26,1.35-.17.44-.47.93-.89,1.46-.42.54-1.01,1.19-1.76,1.95l-2.46,2.57v.09h5.57v1.6h-8.14Z"/>
    <path class="cls-1" d="m96.29,93.46v1.57h-5.48v-1.57h5.48Z"/>
    <path class="cls-1" d="m102.92,98.01v-1.51l5.34-8.44h1.19v2.22h-.75l-3.82,6.05v.1h7.32v1.58h-9.28Zm5.86,2.41v-3.56s.01-8.8.01-8.8h1.77v12.36h-1.78Z"/>
    <path class="cls-1" d="m115.47,103.9c-.27,0-.52-.02-.74-.06-.22-.04-.39-.09-.5-.14l.43-1.48c.33.09.62.13.88.11.26-.01.49-.11.69-.29s.38-.48.53-.89l.22-.62-3.39-9.39h1.93l2.35,7.2h.1l2.35-7.2h1.94l-3.82,10.51c-.18.48-.4.89-.68,1.23-.27.34-.6.59-.98.76-.38.17-.82.25-1.32.25Z"/>
    <path class="cls-1" d="m127.43,95.3c0,1.52-.2,2.91-.6,4.18-.4,1.27-.98,2.44-1.74,3.52h-1.65c.3-.4.58-.89.83-1.47.26-.58.48-1.21.68-1.9s.34-1.41.45-2.15c.11-.74.16-1.47.16-2.19,0-.95-.09-1.92-.28-2.9s-.44-1.89-.77-2.73c-.32-.84-.68-1.53-1.07-2.06h1.65c.76,1.07,1.35,2.25,1.74,3.52.4,1.27.6,2.66.6,4.18Z"/>
    <path class="cls-1" d="m135.25,95.08v-1.62h8.16v1.62h-8.16Zm3.27,3.27v-8.16h1.62v8.16h-1.62Z"/>
    <path class="cls-1" d="m154.86,100.6c-.87,0-1.63-.15-2.29-.45s-1.18-.71-1.55-1.23c-.37-.52-.56-1.12-.56-1.79,0-.52.1-1,.32-1.45.22-.44.52-.81.9-1.1.38-.3.8-.48,1.27-.56v-.07c-.62-.15-1.11-.48-1.48-.99-.37-.51-.55-1.1-.55-1.76,0-.63.16-1.2.5-1.69s.81-.89,1.4-1.17,1.27-.43,2.04-.43,1.43.14,2.02.43c.59.29,1.06.68,1.4,1.18.34.5.51,1.06.52,1.69,0,.66-.19,1.25-.57,1.76-.37.51-.86.84-1.46.99v.07c.46.08.88.27,1.25.56s.67.66.89,1.1c.22.44.34.92.34,1.45,0,.67-.19,1.26-.57,1.79-.37.52-.89.93-1.55,1.23s-1.42.45-2.28.45Zm0-1.53c.51,0,.95-.09,1.33-.26.37-.17.66-.41.87-.72.21-.31.31-.67.31-1.08,0-.43-.12-.81-.33-1.14-.22-.33-.52-.59-.89-.78-.37-.19-.8-.28-1.29-.28s-.92.09-1.3.28c-.38.19-.68.45-.89.78-.22.33-.32.71-.32,1.14,0,.41.1.78.3,1.08.2.31.49.55.87.72.38.17.83.26,1.34.26Zm0-5.75c.41,0,.77-.08,1.09-.25.32-.17.57-.39.75-.69.18-.29.28-.64.28-1.03,0-.39-.1-.72-.28-1.01-.18-.29-.43-.51-.75-.67-.32-.16-.69-.24-1.1-.24s-.8.08-1.12.24c-.32.16-.57.38-.75.67-.18.29-.26.63-.26,1.01,0,.39.08.74.27,1.03.18.29.43.52.75.69.32.17.69.25,1.11.25Z"/>
    <path class="cls-1" d="m162.58,103.9c-.27,0-.52-.02-.74-.06-.22-.04-.39-.09-.5-.14l.43-1.48c.33.09.62.13.88.11.26-.01.49-.11.69-.29s.38-.48.53-.89l.22-.62-3.39-9.39h1.93l2.35,7.2h.1l2.35-7.2h1.94l-3.82,10.51c-.18.48-.4.89-.68,1.23-.27.34-.6.59-.98.76-.38.17-.82.25-1.32.25Z"/>
    <path class="cls-1" d="m181.03,93.46v1.57h-5.48v-1.57h5.48Z"/>
    <path class="cls-1" d="m187.92,100.43v-1.35l4.18-4.33c.45-.47.82-.88,1.11-1.24.29-.36.51-.7.66-1.02.14-.32.22-.66.22-1.03,0-.41-.1-.77-.29-1.07-.19-.3-.46-.53-.79-.69-.33-.16-.71-.24-1.13-.24-.44,0-.83.09-1.16.27s-.58.44-.76.77c-.18.33-.27.72-.27,1.16h-1.78c0-.75.17-1.41.52-1.97s.82-1,1.42-1.31c.6-.31,1.29-.47,2.06-.47s1.46.15,2.06.46c.59.31,1.06.73,1.39,1.26.33.53.5,1.13.5,1.79,0,.46-.09.91-.26,1.35-.17.44-.47.93-.89,1.46-.42.54-1.01,1.19-1.76,1.95l-2.46,2.57v.09h5.57v1.6h-8.14Z"/>
    <path class="cls-1" d="m203.46,93.18v-1.58h7.73v1.58h-7.73Zm0,3.72v-1.58h7.73v1.58h-7.73Z"/>
    <path class="cls-1" d="m222.98,100.63c-.95,0-1.77-.26-2.44-.75-.68-.5-1.19-1.23-1.55-2.18-.36-.95-.54-2.1-.54-3.45s.18-2.49.54-3.44.88-1.67,1.56-2.17,1.49-.75,2.44-.75,1.76.25,2.43.75c.68.5,1.19,1.23,1.55,2.17.36.95.54,2.09.54,3.43s-.18,2.5-.54,3.45c-.36.95-.88,1.68-1.55,2.18s-1.49.75-2.44.75Zm0-1.61c.84,0,1.49-.41,1.97-1.23.47-.82.71-2,.71-3.54,0-1.03-.11-1.89-.32-2.6-.21-.71-.52-1.25-.92-1.62-.4-.37-.88-.55-1.43-.55-.83,0-1.49.41-1.96,1.23-.47.82-.71,2-.72,3.54,0,1.03.11,1.9.32,2.61.22.71.52,1.25.92,1.61s.88.55,1.44.55Z"/>
    <path class="cls-1" d="m62.82,121c-.55,0-1.09-.11-1.63-.3-.53-.19-1.02-.52-1.45-.97s-.78-1.06-1.04-1.82c-.26-.76-.39-1.71-.39-2.85,0-1.08.11-2.04.32-2.87.22-.84.53-1.54.93-2.12.41-.58.9-1.02,1.47-1.32.58-.3,1.22-.45,1.94-.45s1.39.15,1.96.43c.57.29,1.04.69,1.39,1.2.36.51.58,1.09.68,1.74h-1.84c-.12-.52-.37-.94-.74-1.26-.37-.33-.85-.49-1.45-.49-.91,0-1.61.39-2.12,1.18-.51.79-.76,1.89-.76,3.29h.09c.21-.35.48-.65.79-.9.31-.25.66-.44,1.05-.57.39-.13.8-.2,1.23-.2.72,0,1.37.17,1.95.52.58.35,1.05.83,1.39,1.44s.52,1.31.52,2.1-.18,1.5-.53,2.14c-.36.64-.86,1.15-1.5,1.52-.64.37-1.4.55-2.26.55Zm0-1.57c.48,0,.9-.12,1.27-.35s.67-.55.89-.94c.22-.39.33-.83.33-1.32s-.11-.91-.32-1.3c-.21-.39-.5-.7-.87-.93-.37-.23-.79-.34-1.26-.34-.36,0-.69.07-.99.21s-.57.33-.8.57c-.23.24-.41.52-.54.83s-.2.64-.2.99c0,.46.11.89.32,1.29s.51.71.89.95c.38.24.8.36,1.28.36Z"/>
    <path class="cls-1" d="m79.3,113.86v1.57h-5.48v-1.57h5.48Z"/>
    <path class="cls-1" d="m90.88,108.46v12.36h-1.87v-10.49h-.07l-2.96,1.93v-1.79l3.08-2.02h1.82Z"/>
    <path class="cls-1" d="m94.22,120.83v-1.35l4.18-4.33c.45-.47.82-.88,1.11-1.24.29-.36.51-.7.66-1.02.14-.32.22-.66.22-1.03,0-.41-.1-.77-.29-1.07-.19-.3-.46-.53-.79-.69-.33-.16-.71-.24-1.13-.24-.44,0-.83.09-1.16.27s-.58.44-.76.77c-.18.33-.27.72-.27,1.16h-1.78c0-.75.17-1.41.52-1.97s.82-1,1.42-1.31c.6-.31,1.29-.47,2.06-.47s1.46.15,2.06.46c.59.31,1.06.73,1.39,1.26.33.53.5,1.13.5,1.79,0,.46-.09.91-.26,1.35-.17.44-.47.93-.89,1.46-.42.54-1.01,1.19-1.76,1.95l-2.46,2.57v.09h5.57v1.6h-8.14Z"/>
    <path class="cls-1" d="m105.81,124.3c-.27,0-.52-.02-.74-.06-.22-.04-.39-.09-.5-.14l.43-1.48c.33.09.62.13.88.11.26-.01.49-.11.69-.29s.38-.48.53-.89l.22-.62-3.39-9.39h1.93l2.35,7.2h.1l2.35-7.2h1.94l-3.82,10.51c-.18.48-.4.89-.68,1.23-.27.34-.6.59-.98.76-.38.17-.82.25-1.32.25Z"/>
    <path class="cls-1" d="m119.17,115.48v-1.62h8.16v1.62h-8.16Zm3.27,3.27v-8.16h1.62v8.16h-1.62Z"/>
    <path class="cls-1" d="m138.78,121c-.87,0-1.63-.15-2.29-.45s-1.18-.71-1.55-1.23c-.37-.52-.56-1.12-.56-1.79,0-.52.1-1,.32-1.45.22-.44.52-.81.9-1.1.38-.3.8-.48,1.27-.56v-.07c-.62-.15-1.11-.48-1.48-.99-.37-.51-.55-1.1-.55-1.76,0-.63.16-1.2.5-1.69s.81-.89,1.4-1.17,1.27-.43,2.04-.43,1.43.14,2.02.43c.59.29,1.06.68,1.4,1.18.34.5.51,1.06.52,1.69,0,.66-.19,1.25-.57,1.76-.37.51-.86.84-1.46.99v.07c.46.08.88.27,1.25.56s.67.66.89,1.1c.22.44.34.92.34,1.45,0,.67-.19,1.26-.57,1.79-.37.52-.89.93-1.55,1.23s-1.42.45-2.28.45Zm0-1.53c.51,0,.95-.09,1.33-.26.37-.17.66-.41.87-.72.21-.31.31-.67.31-1.08,0-.43-.12-.81-.33-1.14-.22-.33-.52-.59-.89-.78-.37-.19-.8-.28-1.29-.28s-.92.09-1.3.28c-.38.19-.68.45-.89.78-.22.33-.32.71-.32,1.14,0,.41.1.78.3,1.08.2.31.49.55.87.72.38.17.83.26,1.34.26Zm0-5.75c.41,0,.77-.08,1.09-.25.32-.17.57-.39.75-.69.18-.29.28-.64.28-1.03,0-.39-.1-.72-.28-1.01-.18-.29-.43-.51-.75-.67-.32-.16-.69-.24-1.1-.24s-.8.08-1.12.24c-.32.16-.57.38-.75.67-.18.29-.26.63-.26,1.01,0,.39.08.74.27,1.03.18.29.43.52.75.69.32.17.69.25,1.11.25Z"/>
    <path class="cls-1" d="m146.5,124.3c-.27,0-.52-.02-.74-.06-.22-.04-.39-.09-.5-.14l.43-1.48c.33.09.62.13.88.11.26-.01.49-.11.69-.29s.38-.48.53-.89l.22-.62-3.39-9.39h1.93l2.35,7.2h.1l2.35-7.2h1.94l-3.82,10.51c-.18.48-.4.89-.68,1.23-.27.34-.6.59-.98.76-.38.17-.82.25-1.32.25Z"/>
    <path class="cls-1" d="m164.96,113.86v1.57h-5.48v-1.57h5.48Z"/>
    <path class="cls-1" d="m171.85,120.83v-1.35l4.18-4.33c.45-.47.82-.88,1.11-1.24.29-.36.51-.7.66-1.02.14-.32.22-.66.22-1.03,0-.41-.1-.77-.29-1.07-.19-.3-.46-.53-.79-.69-.33-.16-.71-.24-1.13-.24-.44,0-.83.09-1.16.27s-.58.44-.76.77c-.18.33-.27.72-.27,1.16h-1.78c0-.75.17-1.41.52-1.97s.82-1,1.42-1.31c.6-.31,1.29-.47,2.06-.47s1.46.15,2.06.46c.59.31,1.06.73,1.39,1.26.33.53.5,1.13.5,1.79,0,.46-.09.91-.26,1.35-.17.44-.47.93-.89,1.46-.42.54-1.01,1.19-1.76,1.95l-2.46,2.57v.09h5.57v1.6h-8.14Z"/>
    <path class="cls-1" d="m187.38,113.58v-1.58h7.73v1.58h-7.73Zm0,3.72v-1.58h7.73v1.58h-7.73Z"/>
    <path class="cls-1" d="m206.9,121.03c-.95,0-1.77-.26-2.44-.75-.68-.5-1.19-1.23-1.55-2.18-.36-.95-.54-2.1-.54-3.45s.18-2.49.54-3.44.88-1.67,1.56-2.17,1.49-.75,2.44-.75,1.76.25,2.43.75c.68.5,1.19,1.23,1.55,2.17.36.95.54,2.09.54,3.43s-.18,2.5-.54,3.45c-.36.95-.88,1.68-1.55,2.18s-1.49.75-2.44.75Zm0-1.61c.84,0,1.49-.41,1.97-1.23.47-.82.71-2,.71-3.54,0-1.03-.11-1.89-.32-2.6-.21-.71-.52-1.25-.92-1.62-.4-.37-.88-.55-1.43-.55-.83,0-1.49.41-1.96,1.23-.47.82-.71,2-.72,3.54,0,1.03.11,1.9.32,2.61.22.71.52,1.25.92,1.61s.88.55,1.44.55Z"/>
    <path class="cls-1" d="m63.99,134.26v1.57h-5.48v-1.57h5.48Z"/>
    <path class="cls-1" d="m66.12,138.81v-1.51l5.34-8.44h1.19v2.22h-.75l-3.82,6.05v.1h7.32v1.58h-9.28Zm5.86,2.42v-3.56s.01-8.8.01-8.8h1.77v12.36h-1.78Z"/>
    <path class="cls-1" d="m78.66,144.7c-.27,0-.52-.02-.74-.06-.22-.04-.39-.09-.49-.14l.43-1.48c.33.09.62.13.88.12.26-.01.49-.11.69-.29.2-.18.38-.48.53-.89l.22-.62-3.39-9.39h1.93l2.35,7.2h.1l2.35-7.2h1.94l-3.82,10.51c-.18.48-.4.89-.68,1.23-.27.34-.6.59-.98.76s-.82.25-1.32.25Z"/>
    <path class="cls-1" d="m92.23,135.29v-1.59h7.73v1.59h-7.73Zm0,3.72v-1.59h7.73v1.59h-7.73Z"/>
    <path class="cls-1" d="m112.94,134.26v1.57h-5.48v-1.57h5.48Z"/>
    <path class="cls-1" d="m115.06,138.81v-1.51l5.34-8.44h1.19v2.22h-.75l-3.82,6.05v.1h7.32v1.58h-9.28Zm5.86,2.42v-3.56s.01-8.8.01-8.8h1.77v12.36h-1.78Z"/>
    <path class="cls-1" d="m59.67,165.1c-.27,0-.52-.02-.74-.06-.22-.04-.39-.09-.49-.14l.43-1.48c.33.09.62.13.88.12.26-.01.49-.11.69-.29.2-.18.38-.48.53-.89l.22-.62-3.39-9.39h1.93l2.35,7.2h.1l2.35-7.2h1.94l-3.82,10.51c-.18.48-.4.89-.68,1.23-.27.34-.6.59-.98.76s-.82.25-1.32.25Z"/>
    <path class="cls-1" d="m73.24,154.38v-1.58h7.73v1.58h-7.73Zm0,3.72v-1.58h7.73v1.58h-7.73Z"/>
    <path class="cls-1" d="m93.15,149.26v12.36h-1.87v-10.49h-.07l-2.96,1.93v-1.79l3.08-2.02h1.82Z"/>
  </g>
  <g>
    <path class="cls-1" d="m60.72,185.24l2.05,3.61,2.06-3.61h1.97l-2.89,4.64,2.92,4.64h-1.97l-2.09-3.46-2.08,3.46h-1.98l2.89-4.64-2.85-4.64h1.98Z"/>
    <path class="cls-1" d="m73.74,187.27v-1.58h7.73v1.58h-7.73Zm0,3.72v-1.58h7.73v1.58h-7.73Z"/>
    <path class="cls-1" d="m88.96,194.52v-1.35l4.18-4.33c.45-.47.82-.88,1.11-1.24.29-.36.51-.7.66-1.02.14-.32.22-.66.22-1.03,0-.41-.1-.77-.29-1.07s-.46-.53-.79-.69-.71-.25-1.13-.25c-.44,0-.83.09-1.16.27-.33.18-.58.44-.76.77-.18.33-.27.72-.27,1.16h-1.78c0-.75.17-1.41.52-1.97.35-.56.82-1,1.42-1.31.6-.31,1.29-.47,2.06-.47s1.46.15,2.06.46c.59.31,1.06.73,1.39,1.26s.5,1.13.5,1.79c0,.46-.09.91-.26,1.35-.17.44-.47.93-.89,1.46-.42.54-1.01,1.19-1.76,1.95l-2.46,2.57v.09h5.57v1.6h-8.14Z"/>
    <path class="cls-1" d="m109.38,187.55v1.57h-5.48v-1.57h5.48Z"/>
    <path class="cls-1" d="m116.01,192.1v-1.51l5.34-8.44h1.19v2.22h-.75l-3.82,6.05v.1h7.32v1.58h-9.28Zm5.86,2.42v-3.56s.01-8.8.01-8.8h1.77v12.36h-1.78Z"/>
    <path class="cls-1" d="m128.6,190.31c-.33,0-.61-.12-.85-.35s-.36-.52-.36-.85.12-.61.36-.85.52-.35.85-.35.61.12.85.35.36.52.36.85c0,.22-.06.42-.17.61-.11.18-.26.33-.44.44-.18.11-.38.16-.6.16Z"/>
    <path class="cls-1" d="m136.89,182.15v12.36h-1.87v-10.49h-.07l-2.96,1.93v-1.79l3.08-2.02h1.82Z"/>
    <path class="cls-1" d="m60.72,205.64l2.05,3.61,2.06-3.61h1.97l-2.89,4.64,2.92,4.64h-1.97l-2.09-3.46-2.08,3.46h-1.98l2.89-4.64-2.85-4.64h1.98Z"/>
    <path class="cls-1" d="m73.74,208.98v-1.59h7.73v1.59h-7.73Zm0,3.72v-1.59h7.73v1.59h-7.73Z"/>
    <path class="cls-1" d="m94.45,207.95v1.57h-5.48v-1.57h5.48Z"/>
    <path class="cls-1" d="m96.83,214.92v-1.35l4.18-4.33c.45-.47.82-.88,1.11-1.24.29-.36.51-.7.66-1.02.14-.32.22-.66.22-1.03,0-.41-.1-.77-.29-1.07s-.46-.53-.79-.69-.71-.25-1.13-.25c-.44,0-.83.09-1.16.27-.33.18-.58.44-.76.77s-.27.72-.27,1.16h-1.78c0-.75.17-1.41.52-1.97s.82-1,1.42-1.31c.6-.31,1.29-.47,2.06-.47s1.46.15,2.06.46c.59.31,1.06.73,1.39,1.26s.5,1.13.5,1.79c0,.46-.09.91-.26,1.35s-.47.93-.89,1.46c-.42.54-1.01,1.19-1.76,1.95l-2.46,2.57v.09h5.57v1.6h-8.14Z"/>
  </g>
  <g>
    <path class="cls-1" d="m44.02,232.02c0,1.32-.24,2.45-.72,3.4-.48.95-1.14,1.68-1.98,2.19-.84.51-1.79.76-2.86.76s-2.03-.25-2.86-.76c-.84-.51-1.5-1.24-1.98-2.19-.48-.95-.72-2.08-.72-3.4s.24-2.45.72-3.4c.48-.95,1.14-1.68,1.98-2.18.84-.51,1.79-.76,2.86-.76s2.02.25,2.86.76c.84.51,1.5,1.24,1.98,2.18.48.95.72,2.08.72,3.4Zm-1.85,0c0-1.01-.16-1.85-.49-2.54-.32-.69-.77-1.21-1.33-1.57s-1.2-.53-1.9-.53-1.35.18-1.91.53c-.56.36-1,.88-1.33,1.57-.32.69-.49,1.54-.49,2.54s.16,1.85.49,2.54c.32.69.77,1.21,1.33,1.57.56.36,1.2.53,1.91.53s1.34-.18,1.9-.53c.56-.36,1-.88,1.33-1.57.32-.69.49-1.54.49-2.54Z"/>
    <path class="cls-1" d="m45.67,230.49v-1.56h7.82v1.56h-3.02v7.71h-1.76v-7.71h-3.04Z"/>
    <path class="cls-1" d="m55.4,238.2v-9.27h3.85c1.05,0,1.88.22,2.49.67.61.44.92,1.05.92,1.81,0,.54-.17.97-.52,1.29-.35.32-.81.53-1.38.64.41.05.79.17,1.14.37s.62.47.84.8c.21.33.32.73.32,1.2,0,.49-.13.92-.38,1.3s-.62.67-1.1.88c-.48.21-1.06.32-1.74.32h-4.43Zm1.7-5.41h2.17c.34,0,.63-.05.87-.14.24-.1.43-.23.56-.41.13-.18.2-.39.2-.64,0-.36-.15-.64-.44-.84-.29-.2-.7-.3-1.21-.3h-2.15v2.34Zm0,3.9h2.73c.45,0,.8-.11,1.05-.32.25-.21.38-.5.38-.87,0-.43-.13-.77-.38-1.02-.25-.25-.6-.37-1.05-.37h-2.73v2.58Z"/>
    <path class="cls-1" d="m69.02,238.39c-.91,0-1.7-.2-2.36-.59-.66-.39-1.17-.95-1.52-1.66-.36-.71-.53-1.55-.53-2.51s.18-1.79.53-2.51c.36-.72.86-1.29,1.5-1.7.64-.41,1.39-.61,2.25-.61.52,0,1.03.09,1.52.26.49.17.93.44,1.32.81.39.37.7.85.92,1.44s.34,1.3.34,2.15v.64h-7.37v-1.35h5.6c0-.47-.1-.9-.29-1.26-.19-.37-.46-.66-.81-.87-.35-.21-.76-.32-1.22-.32-.51,0-.95.12-1.33.37-.38.25-.67.57-.87.97-.2.4-.31.83-.31,1.29v1.06c0,.62.11,1.15.33,1.58.22.43.53.77.92.99.39.23.85.34,1.38.34.34,0,.65-.05.94-.15s.53-.25.73-.44c.21-.2.36-.44.47-.73l1.71.31c-.14.5-.38.94-.73,1.32-.35.38-.79.67-1.32.88-.53.21-1.13.31-1.81.31Z"/>
    <path class="cls-1" d="m74.49,230.49v-1.56h7.82v1.56h-3.02v7.71h-1.76v-7.71h-3.04Z"/>
    <path class="cls-1" d="m85.41,231.57c-.33,0-.61-.12-.85-.36-.24-.24-.36-.52-.36-.85s.12-.61.36-.85c.24-.24.52-.35.85-.35s.61.12.85.35.36.52.36.85c0,.22-.06.42-.17.61-.11.18-.26.33-.44.44-.18.11-.38.16-.6.16Zm0,6.75c-.33,0-.61-.12-.85-.35-.24-.24-.36-.52-.36-.85s.12-.61.36-.85c.24-.24.52-.35.85-.35s.61.12.85.35c.24.24.36.52.36.85,0,.22-.06.42-.17.61-.11.18-.26.33-.44.44-.18.11-.38.16-.6.16Z"/>
    <path class="cls-1" d="m94.06,232.02c0-1.51.2-2.91.6-4.18s.98-2.45,1.75-3.52h1.65c-.3.4-.58.89-.83,1.47-.26.58-.48,1.21-.68,1.91-.19.69-.34,1.4-.45,2.14-.11.74-.16,1.47-.16,2.18,0,.96.09,1.93.28,2.91.19.98.45,1.89.77,2.74.32.84.68,1.53,1.08,2.06h-1.65c-.76-1.08-1.35-2.25-1.75-3.52s-.6-2.67-.6-4.18Z"/>
    <path class="cls-1" d="m105.43,231.24v1.57h-5.48v-1.57h5.48Z"/>
    <path class="cls-1" d="m107.81,238.2v-1.35l4.18-4.33c.45-.47.82-.88,1.11-1.24.29-.36.51-.7.66-1.02.14-.32.22-.66.22-1.03,0-.41-.1-.77-.29-1.07s-.46-.53-.79-.69-.71-.25-1.13-.25c-.44,0-.83.09-1.16.27-.33.18-.58.44-.76.77s-.27.72-.27,1.16h-1.78c0-.75.17-1.41.52-1.97s.82-1,1.42-1.31c.6-.31,1.29-.47,2.06-.47s1.46.15,2.06.46c.59.31,1.06.73,1.39,1.26s.5,1.13.5,1.79c0,.46-.09.91-.26,1.35s-.47.93-.89,1.46c-.42.54-1.01,1.19-1.76,1.95l-2.46,2.57v.09h5.57v1.6h-8.14Z"/>
    <path class="cls-1" d="m120.61,236.51l-.09.66c-.06.48-.16.99-.31,1.51-.14.53-.29,1.01-.44,1.46-.15.45-.27.81-.37,1.07h-1.28c.05-.25.12-.59.22-1.01.09-.42.18-.9.27-1.42.09-.52.16-1.06.2-1.6l.06-.68h1.74Zm-.94-4.94c-.33,0-.61-.12-.85-.36-.24-.24-.36-.52-.36-.85s.12-.61.36-.85.52-.35.85-.35.61.12.85.35c.24.24.36.52.36.85,0,.22-.05.42-.17.61-.11.18-.26.33-.44.44-.18.11-.38.16-.6.16Z"/>
    <path class="cls-1" d="m132.32,225.84v12.36h-1.87v-10.49h-.07l-2.96,1.93v-1.79l3.08-2.02h1.82Z"/>
    <path class="cls-1" d="m139.16,232.02c0,1.52-.2,2.91-.6,4.18s-.98,2.44-1.74,3.52h-1.65c.3-.4.58-.89.83-1.47.26-.58.48-1.21.68-1.91.19-.69.34-1.41.45-2.15.11-.74.16-1.47.16-2.19,0-.95-.09-1.92-.28-2.9-.19-.98-.44-1.89-.77-2.73s-.68-1.53-1.07-2.06h1.65c.76,1.07,1.35,2.25,1.74,3.52s.6,2.66.6,4.18Z"/>
  </g>
</svg>