<?xml version="1.0" encoding="UTF-8"?>
<svg xmlns="http://www.w3.org/2000/svg" viewBox="0 0 150.25 150.5">
  <defs>
    <style>
      .cls-1 {
        isolation: isolate;
        opacity: .3;
        stroke: #bdccd4;
        stroke-width: .5px;
      }

      .cls-1, .cls-2, .cls-3, .cls-4 {
        fill: none;
        stroke-miterlimit: 10;
      }

      .cls-5 {
        fill: #fff;
      }

      .cls-2, .cls-3 {
        stroke: #fff;
      }

      .cls-3, .cls-4 {
        stroke-width: 2px;
      }

      .cls-4 {
        stroke: #d1ae59;
      }
    </style>
  </defs>
  <g id="Layer_1" data-name="Layer 1">
    <g id="Layer_1-2" data-name="Layer 1-2">
      <rect class="cls-1" x=".25" y=".25" width="149.75" height="150"/>
      <line class="cls-1" x1="70" y1=".25" x2="70" y2="150.25"/>
      <line class="cls-1" x1="60" y1=".25" x2="60" y2="150.25"/>
      <line class="cls-1" x1="50" y1=".25" x2="50" y2="150.25"/>
      <line class="cls-1" x1="40" y1=".25" x2="40" y2="150.25"/>
      <line class="cls-1" x1="30" y1=".25" x2="30" y2="150.25"/>
      <line class="cls-1" x1="20" y1=".25" x2="20" y2="150.25"/>
      <line class="cls-1" x1="10" y1=".25" x2="10" y2="150.25"/>
      <line class="cls-1" x1="150" y1="80.25" x2=".5" y2="80.25"/>
      <line class="cls-1" x1="150" y1="90.25" x2=".5" y2="90.25"/>
      <line class="cls-1" x1="150" y1="100.25" x2=".5" y2="100.25"/>
      <line class="cls-1" x1="150" y1="110.25" x2=".5" y2="110.25"/>
      <line class="cls-1" x1="150" y1="120.25" x2=".5" y2="120.25"/>
      <line class="cls-1" x1="150" y1="130.25" x2=".5" y2="130.25"/>
      <line class="cls-1" x1="150" y1="140.25" x2=".5" y2="140.25"/>
      <line class="cls-1" x1="150" y1="70.25" x2=".5" y2="70.25"/>
      <line class="cls-1" x1="150" y1="60.25" x2=".5" y2="60.25"/>
      <line class="cls-1" x1="150" y1="50.25" x2=".5" y2="50.25"/>
      <line class="cls-1" x1="150" y1="40.25" x2=".5" y2="40.25"/>
      <line class="cls-1" x1="150" y1="30.25" x2=".5" y2="30.25"/>
      <line class="cls-1" x1="150" y1="20.25" x2=".5" y2="20.25"/>
      <line class="cls-1" x1="150" y1="10.25" x2=".5" y2="10.25"/>
      <line class="cls-1" x1="80" y1=".25" x2="80" y2="150.25"/>
      <line class="cls-1" x1="90" y1=".25" x2="90" y2="150.25"/>
      <line class="cls-1" x1="100" y1=".25" x2="100" y2="150.25"/>
      <line class="cls-1" x1="110" y1=".25" x2="110" y2="150.25"/>
      <line class="cls-1" x1="120" y1=".25" x2="120" y2="150.25"/>
      <line class="cls-1" x1="130" y1=".25" x2="130" y2="150.25"/>
      <line class="cls-1" x1="140" y1=".25" x2="140" y2="150.25"/>
    </g>
    <line class="cls-3" x1="80" y1="10.25" x2="80" y2="140.19"/>
    <line class="cls-3" x1="9.7" y1="100.39" x2="139.7" y2="100.39"/>
    <polygon class="cls-5" points="145.52 100.39 139.61 96.98 139.61 103.8 145.52 100.39"/>
    <polygon class="cls-5" points="80 4.79 76.59 10.71 83.41 10.71 80 4.79"/>
    <line class="cls-2" x1="83.41" y1="70.11" x2="76.59" y2="70.11"/>
    <path class="cls-5" d="m144.46,105.55l1.44,2.55,1.46-2.55h1.39l-2.04,3.27,2.06,3.27h-1.39l-1.47-2.45-1.47,2.45h-1.4l2.04-3.27-2.01-3.27h1.4-.01Z"/>
    <path class="cls-5" d="m69.8,12.7c-.19,0-.36-.02-.52-.04s-.27-.06-.35-.1l.31-1.04c.23.06.44.09.62.08.18,0,.34-.08.48-.2.14-.13.26-.34.37-.63l.16-.43-2.39-6.63h1.36l1.66,5.08h.07l1.66-5.08h1.37l-2.7,7.42c-.12.34-.28.63-.48.87s-.42.42-.69.53c-.27.12-.58.18-.93.18h0Z"/>
    <path class="cls-5" d="m72.05,112.39c-.67,0-1.25-.18-1.73-.53s-.84-.87-1.09-1.54-.38-1.48-.38-2.43.13-1.75.38-2.42.62-1.18,1.1-1.53c.48-.35,1.05-.53,1.72-.53s1.24.18,1.72.53.84.87,1.1,1.53c.25.67.38,1.48.38,2.42s-.13,1.76-.38,2.44-.62,1.18-1.09,1.54c-.48.35-1.05.53-1.72.53h-.01Zm0-1.14c.59,0,1.05-.29,1.39-.87.33-.58.5-1.41.5-2.5,0-.72-.08-1.34-.23-1.84s-.37-.88-.65-1.14-.62-.39-1.01-.39c-.59,0-1.05.29-1.39.87-.33.58-.5,1.41-.51,2.5,0,.73.08,1.34.23,1.84s.37.88.65,1.14.62.39,1.01.39h.01Z"/>
    <g>
      <path class="cls-5" d="m11.13,142.64c-.19,0-.36-.02-.52-.04-.16-.03-.27-.06-.35-.1l.31-1.04c.23.06.44.09.62.08.18,0,.34-.08.48-.21s.27-.34.37-.63l.16-.43-2.4-6.63h1.36l1.66,5.08h.07l1.66-5.08h1.37l-2.7,7.42c-.12.34-.28.63-.48.87s-.42.42-.69.53c-.27.12-.58.18-.93.18Z"/>
      <path class="cls-5" d="m20.71,136v-1.12h5.46v1.12h-5.46Zm0,2.62v-1.12h5.46v1.12h-5.46Z"/>
      <path class="cls-5" d="m33.38,140.34c-.42,0-.79-.08-1.12-.23-.33-.16-.6-.38-.79-.68-.19-.29-.29-.66-.29-1.09,0-.37.07-.67.21-.91.14-.24.33-.43.58-.57.24-.14.51-.24.81-.32.3-.07.6-.12.91-.16.39-.05.71-.08.96-.11.24-.03.42-.08.53-.15.11-.07.17-.18.17-.33v-.03c0-.37-.1-.66-.31-.86-.21-.21-.52-.31-.93-.31s-.77.09-1.01.28c-.25.19-.42.4-.51.63l-1.2-.27c.14-.4.35-.72.62-.96.27-.25.59-.42.95-.54.36-.11.73-.17,1.13-.17.26,0,.54.03.83.09.29.06.57.17.83.33.26.16.47.39.63.69.17.3.25.69.25,1.17v4.35h-1.25v-.89h-.05c-.08.17-.21.33-.37.49-.16.16-.38.29-.63.4-.26.11-.57.16-.93.16Zm.28-1.02c.35,0,.65-.07.91-.21.25-.14.44-.32.58-.55s.2-.47.2-.73v-.84s-.13.09-.26.13c-.13.04-.28.07-.44.1-.17.03-.33.05-.48.07s-.29.04-.39.05c-.25.03-.47.08-.67.16s-.37.18-.49.32-.18.32-.18.55c0,.32.12.55.35.71.23.16.53.24.89.24Z"/>
      <path class="cls-5" d="m38.3,140.19v-6.54h1.23v1.04h.07c.12-.35.33-.63.63-.83s.65-.3,1.03-.3c.08,0,.17,0,.28,0s.2.01.26.02v1.22c-.05-.01-.14-.03-.27-.05s-.26-.03-.39-.03c-.3,0-.57.06-.8.19-.23.13-.42.3-.56.52-.14.22-.21.48-.21.76v4h-1.27Z"/>
      <path class="cls-5" d="m45.67,140.32c-.63,0-1.18-.14-1.63-.43-.46-.29-.81-.69-1.05-1.2-.24-.51-.37-1.09-.37-1.75s.12-1.25.38-1.76.6-.91,1.06-1.2c.45-.29.99-.43,1.61-.43.5,0,.94.09,1.33.28.39.18.7.44.94.77.24.33.38.71.43,1.15h-1.24c-.07-.31-.22-.57-.47-.79-.24-.22-.57-.33-.97-.33-.36,0-.67.09-.93.28-.27.19-.47.45-.62.79-.15.34-.22.75-.22,1.21s.07.89.22,1.24c.14.35.35.62.62.81s.58.29.94.29c.24,0,.46-.04.66-.13s.36-.22.5-.39c.13-.17.23-.37.28-.6h1.24c-.05.42-.18.8-.41,1.13-.23.33-.54.59-.92.78-.39.19-.84.29-1.35.29Z"/>
      <path class="cls-5" d="m52.78,133.64v1.02h-3.58v-1.02h3.58Zm-2.62-1.57h1.27v6.19c0,.25.04.43.11.56.07.12.17.21.29.25.12.04.25.07.38.07.1,0,.19,0,.27-.02.08-.01.14-.03.18-.03l.23,1.05c-.07.03-.18.06-.32.09-.14.03-.31.05-.51.05-.34,0-.65-.05-.94-.18-.29-.12-.52-.32-.7-.58-.18-.26-.27-.59-.27-.98v-6.46Z"/>
      <path class="cls-5" d="m56.93,142.78c-.52,0-.97-.07-1.34-.2-.37-.14-.68-.32-.91-.54-.24-.22-.41-.47-.53-.74l1.09-.45c.08.12.18.26.31.4.13.14.31.26.53.36.22.1.51.15.86.15.48,0,.88-.12,1.2-.35s.47-.61.47-1.12v-1.29h-.08c-.08.14-.19.29-.33.46-.14.17-.34.32-.59.44s-.58.19-.98.19c-.52,0-.98-.12-1.4-.36s-.74-.6-.98-1.08-.36-1.06-.36-1.76.12-1.29.36-1.79.56-.88.98-1.14c.42-.27.88-.4,1.41-.4.41,0,.73.07.98.2s.45.29.59.47.25.34.33.47h.09v-1.06h1.25v6.69c0,.56-.13,1.02-.39,1.38-.26.36-.62.63-1.06.8-.44.17-.95.26-1.5.26Zm-.01-3.75c.37,0,.68-.09.93-.26.25-.17.45-.42.58-.74.13-.32.2-.71.2-1.16s-.07-.83-.2-1.16-.32-.6-.58-.79-.57-.28-.94-.28-.7.1-.96.3-.45.46-.58.8c-.13.34-.19.72-.19,1.13s.07.81.2,1.13c.13.32.32.58.58.76.26.18.57.27.95.27Z"/>
      <path class="cls-5" d="m65.78,133.64l1.44,2.55,1.46-2.55h1.39l-2.04,3.27,2.06,3.27h-1.39l-1.47-2.45-1.47,2.45h-1.4l2.04-3.27-2.01-3.27h1.4Z"/>
    </g>
    <line class="cls-2" x1="83.41" y1="40.25" x2="76.59" y2="40.25"/>
    <path class="cls-4" d="m10,41.94c62.04,0,80,55.75,129.7,55.75"/>
  </g>
  <g id="Layer_2" data-name="Layer 2">
    <g>
      <path class="cls-5" d="m73.23,67.16v1.07h-6.72v-1.07h6.72Zm-4.46,0v6.54h-1.26v-6.54h1.26Zm2.22,0h1.26v4.78c0,.2.03.34.1.44.07.1.16.17.26.2.11.04.23.05.36.05.09,0,.19,0,.28-.03.1-.02.17-.03.23-.04v1.07c-.11.03-.24.06-.4.1s-.34.05-.55.05c-.46,0-.83-.13-1.11-.4-.29-.27-.43-.72-.43-1.37v-4.85Z"/>
      <path class="cls-5" d="m67.15,85.71v-.95l2.95-3.06c.32-.33.58-.62.78-.88s.36-.49.46-.72c.1-.23.15-.47.15-.72,0-.29-.07-.54-.21-.75-.14-.21-.32-.38-.56-.49-.24-.12-.5-.17-.8-.17-.31,0-.59.06-.82.19-.23.13-.41.31-.54.54-.12.23-.19.51-.19.82h-1.26c0-.53.12-1,.37-1.39.24-.4.58-.71,1.01-.93.43-.22.91-.33,1.45-.33s1.03.11,1.45.33c.42.22.75.51.98.89.24.37.35.79.35,1.26,0,.32-.06.64-.18.95-.12.31-.33.65-.63,1.03-.3.38-.71.84-1.24,1.38l-1.73,1.81v.06h3.93v1.13h-5.74Z"/>
    </g>
    <rect class="cls-5" x="66.51" y="74.88" width="6.97" height="1.04"/>
    <path class="cls-5" d="m91.96,36.72v1.07h-6.72v-1.07h6.72Zm-4.46,0v6.54h-1.26v-6.54h1.26Zm2.22,0h1.26v4.78c0,.2.03.34.1.44.07.1.16.17.26.2.11.04.23.05.36.05.09,0,.19,0,.28-.03.1-.02.17-.03.23-.04v1.07c-.11.03-.24.06-.4.1s-.34.05-.55.05c-.46,0-.83-.13-1.11-.4-.29-.27-.43-.72-.43-1.37v-4.85Z"/>
  </g>
</svg>