<?xml version="1.0" encoding="UTF-8"?>
<svg xmlns="http://www.w3.org/2000/svg" viewBox="0 0 150.25 150.5">
  <defs>
    <style>
      .cls-1 {
        isolation: isolate;
        opacity: .3;
        stroke: #bdccd4;
        stroke-width: .5px;
      }

      .cls-1, .cls-2, .cls-3, .cls-4 {
        fill: none;
        stroke-miterlimit: 10;
      }

      .cls-5 {
        fill: #fff;
      }

      .cls-2, .cls-3 {
        stroke: #fff;
      }

      .cls-3, .cls-4 {
        stroke-width: 2px;
      }

      .cls-4 {
        stroke: #d1ae59;
      }
    </style>
  </defs>
  <g id="Layer_1" data-name="Layer 1">
    <g id="Layer_1-2" data-name="Layer 1-2">
      <rect class="cls-1" x=".25" y=".25" width="149.75" height="150"/>
      <line class="cls-1" x1="70" y1=".25" x2="70" y2="150.25"/>
      <line class="cls-1" x1="60" y1=".25" x2="60" y2="150.25"/>
      <line class="cls-1" x1="50" y1=".25" x2="50" y2="150.25"/>
      <line class="cls-1" x1="40" y1=".25" x2="40" y2="150.25"/>
      <line class="cls-1" x1="30" y1=".25" x2="30" y2="150.25"/>
      <line class="cls-1" x1="20" y1=".25" x2="20" y2="150.25"/>
      <line class="cls-1" x1="10" y1=".25" x2="10" y2="150.25"/>
      <line class="cls-1" x1="150" y1="80.25" x2=".5" y2="80.25"/>
      <line class="cls-1" x1="150" y1="90.25" x2=".5" y2="90.25"/>
      <line class="cls-1" x1="150" y1="100.25" x2=".5" y2="100.25"/>
      <line class="cls-1" x1="150" y1="110.25" x2=".5" y2="110.25"/>
      <line class="cls-1" x1="150" y1="120.25" x2=".5" y2="120.25"/>
      <line class="cls-1" x1="150" y1="130.25" x2=".5" y2="130.25"/>
      <line class="cls-1" x1="150" y1="140.25" x2=".5" y2="140.25"/>
      <line class="cls-1" x1="150" y1="70.25" x2=".5" y2="70.25"/>
      <line class="cls-1" x1="150" y1="60.25" x2=".5" y2="60.25"/>
      <line class="cls-1" x1="150" y1="50.25" x2=".5" y2="50.25"/>
      <line class="cls-1" x1="150" y1="40.25" x2=".5" y2="40.25"/>
      <line class="cls-1" x1="150" y1="30.25" x2=".5" y2="30.25"/>
      <line class="cls-1" x1="150" y1="20.25" x2=".5" y2="20.25"/>
      <line class="cls-1" x1="150" y1="10.25" x2=".5" y2="10.25"/>
      <line class="cls-1" x1="80" y1=".25" x2="80" y2="150.25"/>
      <line class="cls-1" x1="90" y1=".25" x2="90" y2="150.25"/>
      <line class="cls-1" x1="100" y1=".25" x2="100" y2="150.25"/>
      <line class="cls-1" x1="110" y1=".25" x2="110" y2="150.25"/>
      <line class="cls-1" x1="120" y1=".25" x2="120" y2="150.25"/>
      <line class="cls-1" x1="130" y1=".25" x2="130" y2="150.25"/>
      <line class="cls-1" x1="140" y1=".25" x2="140" y2="150.25"/>
    </g>
    <line class="cls-3" x1="80" y1="10.25" x2="80" y2="140.19"/>
    <line class="cls-3" x1="10" y1="80.25" x2="140" y2="80.25"/>
    <polygon class="cls-5" points="145.82 80.25 139.91 76.84 139.91 83.66 145.82 80.25"/>
    <polygon class="cls-5" points="80 4.79 76.59 10.71 83.41 10.71 80 4.79"/>
    <line class="cls-2" x1="110" y1="77.07" x2="110" y2="83.89"/>
    <line class="cls-2" x1="49.71" y1="77.07" x2="49.71" y2="83.89"/>
    <line class="cls-2" x1="83.41" y1="40.25" x2="76.59" y2="40.25"/>
    <line class="cls-2" x1="83.41" y1="120.25" x2="76.59" y2="120.25"/>
    <path class="cls-5" d="m144.76,85.41l1.44,2.55,1.46-2.55h1.39l-2.04,3.27,2.06,3.27h-1.39l-1.47-2.45-1.47,2.45h-1.4l2.04-3.27-2.01-3.27h1.4-.01Z"/>
    <path class="cls-5" d="m69.8,12.7c-.19,0-.36-.02-.52-.04s-.27-.06-.35-.1l.31-1.04c.23.06.44.09.62.08.18,0,.34-.08.48-.2.14-.13.26-.34.37-.63l.16-.43-2.39-6.63h1.36l1.66,5.08h.07l1.66-5.08h1.37l-2.7,7.42c-.12.34-.28.63-.48.87s-.42.42-.69.53c-.27.12-.58.18-.93.18h0Z"/>
    <path class="cls-5" d="m111.13,86.27v8.73h-1.32v-7.41h-.05l-2.09,1.36v-1.26l2.18-1.42h1.28Z"/>
    <g>
      <path class="cls-5" d="m47.21,90.76v1.1h-3.87v-1.1h3.87Z"/>
      <path class="cls-5" d="m52.2,86.27v8.73h-1.32v-7.41h-.05l-2.09,1.36v-1.26l2.18-1.42h1.28Z"/>
    </g>
    <g>
      <path class="cls-5" d="m6.87,142.64c-.19,0-.36-.01-.52-.04-.16-.03-.27-.06-.35-.1l.31-1.04c.23.06.44.09.62.08.18,0,.34-.08.48-.2.14-.13.27-.34.37-.63l.16-.43-2.4-6.63h1.36l1.66,5.08h.07l1.66-5.08h1.37l-2.7,7.42c-.12.34-.28.63-.48.87s-.42.42-.69.54-.58.18-.93.18Z"/>
      <path class="cls-5" d="m16.45,136v-1.12h5.46v1.12h-5.46Zm0,2.62v-1.12h5.46v1.12h-5.46Z"/>
      <path class="cls-5" d="m29.11,140.33c-.41,0-.79-.08-1.12-.23-.33-.15-.6-.38-.79-.67-.19-.3-.29-.66-.29-1.09,0-.37.07-.67.21-.91s.33-.43.58-.57c.24-.14.51-.24.81-.32.3-.07.6-.12.91-.16.39-.04.71-.08.95-.11.24-.03.42-.08.53-.15s.17-.18.17-.33v-.03c0-.37-.1-.66-.31-.87-.21-.2-.52-.31-.93-.31s-.77.09-1.01.28c-.25.19-.42.4-.51.63l-1.2-.27c.14-.4.35-.72.62-.96.27-.25.59-.42.95-.54s.73-.17,1.13-.17c.26,0,.54.03.83.09.29.06.57.17.83.33.26.16.47.39.63.69.17.3.25.69.25,1.17v4.35h-1.24v-.9h-.05c-.08.17-.21.33-.37.49-.16.16-.38.29-.63.4-.26.1-.57.16-.93.16Zm.28-1.02c.35,0,.65-.07.91-.21.25-.14.44-.32.58-.55.13-.23.2-.47.2-.73v-.84s-.13.09-.26.13c-.13.04-.28.07-.44.1-.16.03-.33.05-.48.07-.16.02-.29.04-.39.05-.25.03-.47.08-.68.16-.2.07-.37.18-.49.32-.12.14-.18.32-.18.55,0,.32.12.55.35.71.23.16.53.24.89.24Z"/>
      <path class="cls-5" d="m34.04,140.19v-6.55h1.23v1.04h.07c.12-.35.33-.63.63-.83s.65-.3,1.03-.3c.08,0,.17,0,.28,0,.11,0,.2.01.26.02v1.22c-.05-.01-.14-.03-.27-.05-.13-.02-.26-.03-.39-.03-.3,0-.57.06-.8.19-.23.13-.42.3-.56.52-.14.22-.2.48-.2.76v4h-1.27Z"/>
      <path class="cls-5" d="m41.41,140.32c-.63,0-1.18-.14-1.63-.43s-.81-.69-1.05-1.2c-.24-.51-.37-1.09-.37-1.75s.12-1.25.38-1.76.6-.91,1.06-1.2.99-.43,1.61-.43c.5,0,.94.09,1.33.27.39.18.7.44.94.77.24.33.38.71.43,1.16h-1.24c-.07-.31-.22-.57-.47-.79-.24-.22-.57-.33-.97-.33-.35,0-.67.09-.93.28-.27.19-.47.45-.62.79-.15.34-.22.75-.22,1.21s.07.89.22,1.24c.14.35.35.62.62.81s.58.29.94.29c.24,0,.46-.04.66-.13.2-.09.36-.22.5-.39.13-.17.23-.37.28-.61h1.24c-.05.42-.18.8-.41,1.13-.23.33-.54.59-.92.78-.39.19-.84.29-1.35.29Z"/>
      <path class="cls-5" d="m50.37,135.24l-1.15.2c-.05-.15-.12-.29-.23-.42-.1-.13-.24-.24-.42-.33-.18-.08-.4-.13-.66-.13-.36,0-.66.08-.9.24-.24.16-.36.37-.36.62,0,.22.08.39.24.53.16.13.42.24.78.33l1.04.24c.6.14,1.05.35,1.35.64s.44.67.44,1.13c0,.39-.11.74-.34,1.05-.23.3-.54.54-.94.72-.4.17-.87.26-1.4.26-.73,0-1.33-.16-1.79-.47-.46-.31-.75-.76-.85-1.34l1.23-.19c.08.32.23.56.47.73.24.16.55.25.93.25.42,0,.75-.09,1-.26s.38-.39.38-.64c0-.2-.08-.38-.23-.52-.15-.14-.38-.24-.7-.32l-1.11-.24c-.61-.14-1.06-.36-1.35-.67s-.44-.69-.44-1.16c0-.39.11-.72.32-1.01.22-.29.51-.52.89-.68.38-.16.82-.25,1.31-.25.71,0,1.26.15,1.67.46s.67.71.81,1.23Z"/>
      <path class="cls-5" d="m52.54,132.63c-.22,0-.41-.07-.57-.22s-.24-.33-.24-.54.08-.39.24-.54c.16-.15.35-.22.57-.22s.41.08.57.22c.16.15.24.33.24.54s-.08.39-.24.54-.35.22-.57.22Zm-.64,7.56v-6.55h1.27v6.55h-1.27Z"/>
      <path class="cls-5" d="m56.15,136.3v3.89h-1.27v-6.55h1.22v1.07h.08c.15-.35.39-.62.71-.83.32-.21.73-.32,1.22-.32.45,0,.84.09,1.17.28.34.19.6.46.78.83.18.37.28.82.28,1.36v4.16h-1.27v-4.01c0-.47-.12-.85-.37-1.12-.25-.27-.59-.4-1.02-.4-.3,0-.56.06-.79.19-.23.13-.41.32-.54.56-.13.25-.2.54-.2.89Z"/>
      <path class="cls-5" d="m66.23,133.64l1.44,2.55,1.46-2.55h1.39l-2.04,3.27,2.06,3.27h-1.39l-1.47-2.45-1.47,2.45h-1.4l2.04-3.27-2.01-3.27h1.4Z"/>
    </g>
    <path class="cls-4" d="m110,40.25c0,30-60.29,50-60.29,80.12"/>
    <path class="cls-5" d="m72.35,92.25c-.67,0-1.25-.18-1.73-.53s-.84-.87-1.09-1.54-.38-1.48-.38-2.43.13-1.75.38-2.42.62-1.18,1.1-1.53c.48-.35,1.05-.53,1.72-.53s1.24.18,1.72.53.84.87,1.1,1.53c.25.67.38,1.48.38,2.42s-.13,1.76-.38,2.44-.62,1.18-1.09,1.54c-.48.35-1.05.53-1.72.53h-.01Zm0-1.14c.59,0,1.05-.29,1.39-.87.33-.58.5-1.41.5-2.5,0-.72-.08-1.34-.23-1.84s-.37-.88-.65-1.14-.62-.39-1.01-.39c-.59,0-1.05.29-1.39.87-.33.58-.5,1.41-.51,2.5,0,.73.08,1.34.23,1.84s.37.88.65,1.14.62.39,1.01.39h.01Z"/>
  </g>
  <g id="Layer_2" data-name="Layer 2">
    <g>
      <path class="cls-5" d="m92.54,32.18v1.07h-6.72v-1.07h6.72Zm-4.46,0v6.55h-1.26v-6.55h1.26Zm2.22,0h1.26v4.78c0,.2.03.34.1.44.07.1.16.17.26.2s.23.05.36.05c.09,0,.19,0,.28-.03.1-.02.17-.03.23-.04v1.07c-.11.03-.24.06-.4.1-.16.03-.34.05-.55.05-.46,0-.83-.13-1.11-.4-.29-.27-.43-.72-.43-1.37v-4.85Z"/>
      <path class="cls-5" d="m86.46,50.73v-.95l2.95-3.06c.32-.33.58-.62.78-.88.21-.25.36-.49.46-.72s.15-.47.15-.72c0-.29-.07-.54-.21-.75-.14-.21-.32-.38-.56-.49-.24-.11-.5-.17-.8-.17-.31,0-.59.06-.82.19-.23.13-.41.31-.54.54s-.19.51-.19.82h-1.26c0-.53.12-1,.37-1.39.24-.4.58-.71,1.01-.93s.91-.33,1.45-.33,1.03.11,1.45.33.75.51.98.89c.24.37.35.79.35,1.26,0,.32-.06.64-.18.95-.12.31-.33.65-.63,1.03-.3.38-.71.84-1.24,1.38l-1.73,1.81v.06h3.93v1.13h-5.74Z"/>
    </g>
    <rect class="cls-5" x="85.83" y="39.91" width="6.97" height="1.04"/>
    <g>
      <path class="cls-5" d="m97.54,112.21v1.07h-6.72v-1.07h6.72Zm-4.46,0v6.55h-1.26v-6.55h1.26Zm2.22,0h1.26v4.78c0,.2.03.34.1.44s.16.17.26.2c.11.04.23.05.36.05.09,0,.19,0,.28-.03.1-.02.17-.03.23-.04v1.07c-.11.03-.24.06-.4.1-.16.03-.34.05-.55.05-.46,0-.83-.13-1.11-.4-.29-.27-.43-.72-.43-1.37v-4.85Z"/>
      <path class="cls-5" d="m91.46,130.75v-.96l2.95-3.06c.32-.33.58-.62.78-.88.21-.25.36-.49.46-.72.1-.23.15-.47.15-.72,0-.29-.07-.54-.21-.75-.14-.21-.32-.38-.56-.49-.24-.11-.5-.17-.8-.17-.31,0-.59.06-.82.19-.23.13-.41.31-.54.54-.12.23-.19.51-.19.82h-1.26c0-.53.12-1,.37-1.39s.58-.71,1.01-.93c.43-.22.91-.33,1.45-.33s1.03.11,1.45.33c.42.22.75.51.98.89.24.37.35.79.35,1.26,0,.32-.06.64-.18.95-.12.31-.33.65-.63,1.03-.3.38-.71.84-1.24,1.38l-1.73,1.82v.06h3.93v1.13h-5.74Z"/>
    </g>
    <rect class="cls-5" x="90.83" y="119.93" width="6.97" height="1.04"/>
    <path class="cls-5" d="m89.16,119.86v1.1h-3.87v-1.1h3.87Z"/>
  </g>
</svg>