<?xml version="1.0" encoding="UTF-8"?>
<svg id="Layer_1" data-name="Layer 1" xmlns="http://www.w3.org/2000/svg" viewBox="0 0 150.25 150.5">
  <defs>
    <style>
      .cls-1 {
        fill: none;
        stroke: #bdccd4;
        stroke-miterlimit: 10;
        stroke-width: .5px;
      }
    </style>
  </defs>
  <rect class="cls-1" x=".25" y=".25" width="149.75" height="150"/>
  <line class="cls-1" x1="70" y1=".25" x2="70" y2="150.25"/>
  <line class="cls-1" x1="60" y1=".25" x2="60" y2="150.25"/>
  <line class="cls-1" x1="50" y1=".25" x2="50" y2="150.25"/>
  <line class="cls-1" x1="40" y1=".25" x2="40" y2="150.25"/>
  <line class="cls-1" x1="30" y1=".25" x2="30" y2="150.25"/>
  <line class="cls-1" x1="20" y1=".25" x2="20" y2="150.25"/>
  <line class="cls-1" x1="10" y1=".25" x2="10" y2="150.25"/>
  <line class="cls-1" x1="150" y1="80.25" x2=".5" y2="80.25"/>
  <line class="cls-1" x1="150" y1="90.25" x2=".5" y2="90.25"/>
  <line class="cls-1" x1="150" y1="100.25" x2=".5" y2="100.25"/>
  <line class="cls-1" x1="150" y1="110.25" x2=".5" y2="110.25"/>
  <line class="cls-1" x1="150" y1="120.25" x2=".5" y2="120.25"/>
  <line class="cls-1" x1="150" y1="130.25" x2=".5" y2="130.25"/>
  <line class="cls-1" x1="150" y1="140.25" x2=".5" y2="140.25"/>
  <line class="cls-1" x1="150" y1="70.25" x2=".5" y2="70.25"/>
  <line class="cls-1" x1="150" y1="60.25" x2=".5" y2="60.25"/>
  <line class="cls-1" x1="150" y1="50.25" x2=".5" y2="50.25"/>
  <line class="cls-1" x1="150" y1="40.25" x2=".5" y2="40.25"/>
  <line class="cls-1" x1="150" y1="30.25" x2=".5" y2="30.25"/>
  <line class="cls-1" x1="150" y1="20.25" x2=".5" y2="20.25"/>
  <line class="cls-1" x1="150" y1="10.25" x2=".5" y2="10.25"/>
  <line class="cls-1" x1="80" y1=".25" x2="80" y2="150.25"/>
  <line class="cls-1" x1="90" y1=".25" x2="90" y2="150.25"/>
  <line class="cls-1" x1="100" y1=".25" x2="100" y2="150.25"/>
  <line class="cls-1" x1="110" y1=".25" x2="110" y2="150.25"/>
  <line class="cls-1" x1="120" y1=".25" x2="120" y2="150.25"/>
  <line class="cls-1" x1="130" y1=".25" x2="130" y2="150.25"/>
  <line class="cls-1" x1="140" y1=".25" x2="140" y2="150.25"/>
</svg>