<?xml version="1.0" encoding="UTF-8"?>
<svg id="Layer_1" data-name="Layer 1" xmlns="http://www.w3.org/2000/svg" viewBox="0 0 114.28 46.06">
  <defs>
    <style>
      .cls-1 {
        fill: #fff;
      }
    </style>
  </defs>
  <g>
    <path class="cls-1" d="m.1,16.81V4.44h4.53c.88,0,1.6.14,2.18.43s1.01.68,1.29,1.17.43,1.04.43,1.65c0,.51-.09.95-.28,1.3-.19.35-.44.63-.76.84-.32.21-.66.37-1.04.46v.12c.41.02.81.15,1.21.4.39.24.72.59.97,1.04s.39.99.39,1.63-.15,1.2-.44,1.7-.75.9-1.37,1.19-1.4.44-2.36.44H.1Zm1.87-7.01h2.5c.42,0,.8-.08,1.13-.24s.6-.39.8-.68.3-.64.3-1.04c0-.51-.18-.94-.54-1.29-.36-.35-.91-.52-1.65-.52H1.96v3.76Zm0,5.42h2.69c.89,0,1.53-.17,1.92-.52.39-.35.58-.78.58-1.3,0-.39-.1-.75-.3-1.07s-.48-.59-.84-.78c-.36-.19-.8-.29-1.29-.29H1.96v3.96Z"/>
    <path class="cls-1" d="m21.49,8.46h-1.88c-.07-.4-.21-.76-.4-1.06-.2-.31-.44-.57-.72-.78-.29-.21-.61-.38-.96-.48-.35-.11-.73-.16-1.12-.16-.71,0-1.35.18-1.91.54s-1,.88-1.33,1.58c-.32.69-.49,1.54-.49,2.54s.16,1.86.49,2.55c.32.69.77,1.21,1.33,1.57s1.2.53,1.9.53c.39,0,.76-.05,1.11-.16.35-.11.67-.26.96-.47.29-.21.53-.47.73-.77.2-.3.34-.65.41-1.05h1.88c-.1.61-.29,1.17-.58,1.68-.29.51-.66.95-1.11,1.32-.45.37-.96.65-1.54.85-.58.2-1.2.3-1.88.3-1.07,0-2.02-.25-2.86-.76-.84-.51-1.5-1.24-1.98-2.19-.48-.95-.72-2.08-.72-3.4s.24-2.45.72-3.4c.48-.95,1.14-1.68,1.98-2.19.84-.51,1.79-.76,2.86-.76.66,0,1.27.09,1.84.28.57.19,1.08.46,1.54.82s.83.8,1.13,1.32c.3.52.5,1.11.6,1.77Z"/>
    <path class="cls-1" d="m28.66,10.87v-1.59h7.73v1.59h-7.73Zm0,3.72v-1.59h7.73v1.59h-7.73Z"/>
    <path class="cls-1" d="m54.1,16.81h-1.98l4.45-12.36h2.16l4.45,12.36h-1.98l-3.5-10.12h-.1l-3.5,10.12Zm.33-4.84h6.42v1.57h-6.42v-1.57Z"/>
    <path class="cls-1" d="m75.22,8.46h-1.88c-.07-.4-.21-.76-.4-1.06s-.44-.57-.72-.78c-.29-.21-.6-.38-.96-.48-.35-.11-.73-.16-1.12-.16-.71,0-1.35.18-1.91.54s-1,.88-1.33,1.58c-.32.69-.49,1.54-.49,2.54s.16,1.86.49,2.55c.32.69.77,1.21,1.33,1.57s1.2.53,1.9.53c.39,0,.76-.05,1.11-.16.35-.11.67-.26.96-.47s.53-.47.73-.77.34-.65.41-1.05h1.88c-.1.61-.29,1.17-.58,1.68-.29.51-.66.95-1.11,1.32-.45.37-.96.65-1.54.85s-1.2.3-1.88.3c-1.07,0-2.02-.25-2.86-.76-.84-.51-1.5-1.24-1.98-2.19-.48-.95-.72-2.08-.72-3.4s.24-2.45.72-3.4c.48-.95,1.14-1.68,1.98-2.19.84-.51,1.79-.76,2.86-.76.66,0,1.27.09,1.84.28.57.19,1.08.46,1.54.82s.83.8,1.13,1.32c.3.52.5,1.11.6,1.77Z"/>
    <path class="cls-1" d="m83,12.6c-.33,0-.61-.12-.85-.35s-.36-.52-.36-.85.12-.61.36-.85.52-.35.85-.35.61.12.85.35.36.52.36.85c0,.22-.06.42-.17.61-.11.18-.26.33-.44.44-.18.11-.38.16-.6.16Z"/>
    <path class="cls-1" d="m91.27,16.81V4.44h1.87v5.37h6.16v-5.37h1.87v12.36h-1.87v-5.39h-6.16v5.39h-1.87Z"/>
    <path class="cls-1" d="m114.16,8.46h-1.88c-.07-.4-.21-.76-.4-1.06s-.44-.57-.72-.78c-.29-.21-.6-.38-.96-.48-.35-.11-.73-.16-1.12-.16-.71,0-1.35.18-1.91.54s-1,.88-1.33,1.58c-.32.69-.49,1.54-.49,2.54s.16,1.86.49,2.55c.32.69.77,1.21,1.33,1.57s1.2.53,1.9.53c.39,0,.76-.05,1.11-.16.35-.11.67-.26.96-.47s.53-.47.73-.77.34-.65.41-1.05h1.88c-.1.61-.29,1.17-.58,1.68-.29.51-.66.95-1.11,1.32-.45.37-.96.65-1.54.85s-1.2.3-1.88.3c-1.07,0-2.02-.25-2.86-.76-.84-.51-1.5-1.24-1.98-2.19-.48-.95-.72-2.08-.72-3.4s.24-2.45.72-3.4c.48-.95,1.14-1.68,1.98-2.19.84-.51,1.79-.76,2.86-.76.66,0,1.27.09,1.84.28.57.19,1.08.46,1.54.82s.83.8,1.13,1.32c.3.52.5,1.11.6,1.77Z"/>
  </g>
  <path class="cls-1" d="m113.56,0v1.59c-7.1,0-54.12,0-61.22,0-.15.47-.76,2.33-.91,2.79-.29.93-.58,1.87-.87,2.8-.19.63-.38,1.26-.58,1.9-.29.93-.58,1.86-.86,2.79-.24.78-.48,1.56-.72,2.34-.13.42-.25.83-.38,1.25-.2.65-.4,1.3-.6,1.95-.03.09-.06.12-.15.12-.48,0-.95,0-1.43,0-.07,0-.12,0-.15-.1-.19-.54-.39-1.08-.58-1.62-.37-1.03-.74-2.07-1.11-3.1-.3-.83-.59-1.66-.88-2.49-.03-.07-.07-.09-.14-.09-.51,0-1.02,0-1.53,0h-.15v-1.62h.21c.89,0,1.78,0,2.68,0,.11,0,.17.03.2.14.12.37.26.74.38,1.11.28.83.57,1.66.85,2.49.27.79.54,1.58.81,2.36.01.03.03.05.06.1.22-.74.44-1.46.66-2.18.25-.81.49-1.61.74-2.42.24-.79.48-1.59.72-2.38.27-.9.55-1.79.82-2.69.23-.76.46-1.52.69-2.28.12-.4.7-2.23.81-2.63.03-.12.05-.1.16-.1,3.48,0,6.2,0,9.69,0h11.87C72.71,0,113.49,0,113.56,0Z"/>
  <g>
    <path class="cls-1" d="m1.75,45.35H-.23l4.45-12.36h2.16l4.45,12.36h-1.98l-3.5-10.12h-.1l-3.5,10.12Zm.33-4.84h6.42v1.57H2.08v-1.57Z"/>
    <path class="cls-1" d="m12.6,45.35v-12.36h4.53c.88,0,1.6.14,2.18.43.57.29,1.01.68,1.29,1.17s.43,1.04.43,1.65c0,.51-.1.95-.29,1.3s-.44.63-.76.84c-.31.21-.66.37-1.04.46v.12c.41.02.81.15,1.21.4.39.24.72.59.97,1.04s.39.99.39,1.63-.15,1.2-.44,1.7c-.3.5-.75.9-1.37,1.19-.62.29-1.4.44-2.36.44h-4.74Zm1.87-7.01h2.5c.42,0,.8-.08,1.13-.24s.6-.39.8-.68.3-.64.3-1.04c0-.51-.18-.94-.54-1.29-.36-.35-.91-.52-1.65-.52h-2.55v3.76Zm0,5.42h2.69c.89,0,1.53-.17,1.92-.52.39-.35.58-.78.58-1.3,0-.39-.1-.75-.29-1.07-.2-.33-.48-.59-.84-.78-.36-.19-.8-.29-1.29-.29h-2.76v3.96Z"/>
    <path class="cls-1" d="m28.66,39.42v-1.59h7.73v1.59h-7.73Zm0,3.72v-1.59h7.73v1.59h-7.73Z"/>
    <path class="cls-1" d="m54.1,45.35h-1.98l4.45-12.36h2.16l4.45,12.36h-1.98l-3.5-10.12h-.1l-3.5,10.12Zm.33-4.84h6.42v1.57h-6.42v-1.57Z"/>
    <path class="cls-1" d="m75.22,37.01h-1.88c-.07-.4-.21-.76-.4-1.06s-.44-.57-.72-.78c-.29-.21-.6-.38-.96-.48-.35-.11-.73-.16-1.12-.16-.71,0-1.35.18-1.91.54s-1,.88-1.33,1.58c-.32.69-.49,1.54-.49,2.54s.16,1.86.49,2.55c.32.69.77,1.21,1.33,1.57s1.2.53,1.9.53c.39,0,.76-.05,1.11-.16.35-.11.67-.26.96-.47s.53-.47.73-.77.34-.65.41-1.05h1.88c-.1.61-.29,1.17-.58,1.68-.29.51-.66.95-1.11,1.32-.45.37-.96.65-1.54.85s-1.2.3-1.88.3c-1.07,0-2.02-.25-2.86-.76-.84-.51-1.5-1.24-1.98-2.19-.48-.95-.72-2.08-.72-3.4s.24-2.45.72-3.4c.48-.95,1.14-1.68,1.98-2.19.84-.51,1.79-.76,2.86-.76.66,0,1.27.09,1.84.28.57.19,1.08.46,1.54.82s.83.8,1.13,1.32c.3.52.5,1.11.6,1.77Z"/>
    <path class="cls-1" d="m83,41.14c-.33,0-.61-.12-.85-.35s-.36-.52-.36-.85.12-.61.36-.85.52-.35.85-.35.61.12.85.35.36.52.36.85c0,.22-.06.42-.17.61-.11.18-.26.33-.44.44-.18.11-.38.16-.6.16Z"/>
    <path class="cls-1" d="m92.32,45.35h-1.98l4.45-12.36h2.16l4.45,12.36h-1.98l-3.5-10.12h-.1l-3.5,10.12Zm.33-4.84h6.42v1.57h-6.42v-1.57Z"/>
    <path class="cls-1" d="m103.17,45.35v-12.36h1.87v5.37h6.16v-5.37h1.87v12.36h-1.87v-5.39h-6.16v5.39h-1.87Z"/>
  </g>
  <path class="cls-1" d="m113.56,28.54v1.59c-7.1,0-54.12,0-61.22,0-.15.47-.76,2.33-.91,2.79-.29.93-.58,1.87-.87,2.8-.19.63-.38,1.26-.58,1.9-.29.93-.58,1.86-.86,2.79-.24.78-.48,1.56-.72,2.34-.13.42-.25.83-.38,1.25-.2.65-.4,1.3-.6,1.95-.03.09-.06.12-.15.12-.48,0-.95,0-1.43,0-.07,0-.12,0-.15-.1-.19-.54-.39-1.08-.58-1.62-.37-1.03-.74-2.07-1.11-3.1-.3-.83-.59-1.66-.88-2.49-.03-.07-.07-.09-.14-.09-.51,0-1.02,0-1.53,0h-.15v-1.62h.21c.89,0,1.78,0,2.68,0,.11,0,.17.03.2.14.12.37.26.74.38,1.11.28.83.57,1.66.85,2.49.27.79.54,1.58.81,2.36.01.03.03.05.06.1.22-.74.44-1.46.66-2.18.25-.81.49-1.61.74-2.42.24-.79.48-1.59.72-2.38.27-.9.55-1.79.82-2.69.23-.76.46-1.52.69-2.28.12-.4.7-2.23.81-2.63.03-.12.05-.1.16-.1,3.48,0,6.2,0,9.69,0h11.87c.05,0,40.84,0,40.91,0Z"/>
</svg>