<?xml version="1.0" encoding="UTF-8"?>
<svg id="Layer_1" data-name="Layer 1" xmlns="http://www.w3.org/2000/svg" viewBox="0 0 58.88 77">
  <defs>
    <style>
      .cls-1 {
        fill: #fff;
      }

      .cls-2 {
        fill: none;
        stroke: #d1ae59;
        stroke-miterlimit: 10;
        stroke-width: 2px;
      }
    </style>
  </defs>
  <path class="cls-1" d="m1.7,9.09H.3L3.44.36h1.52l3.14,8.73h-1.4L4.24,1.94h-.07l-2.47,7.14Zm.23-3.42h4.53v1.11H1.93v-1.11Z"/>
  <path class="cls-1" d="m.02,77v-8.73h3.2c.62,0,1.13.1,1.54.3s.71.48.91.82c.2.34.3.73.3,1.17,0,.36-.07.67-.2.92-.13.25-.31.45-.53.6-.22.15-.47.26-.74.33v.09c.29.01.57.11.85.28.28.17.51.42.69.73s.27.7.27,1.15-.1.85-.31,1.2-.53.63-.97.84c-.43.21-.99.31-1.67.31H.02Zm1.32-4.95h1.76c.29,0,.56-.06.8-.17.24-.11.43-.27.57-.48s.21-.45.21-.73c0-.36-.13-.66-.38-.91-.25-.24-.64-.37-1.16-.37h-1.8v2.66Zm0,3.82h1.9c.63,0,1.08-.12,1.36-.37.27-.25.41-.55.41-.92,0-.28-.07-.53-.21-.76-.14-.23-.34-.41-.59-.55-.26-.14-.56-.21-.91-.21h-1.95v2.8Z"/>
  <path class="cls-1" d="m58.88,70.95h-1.33c-.05-.28-.15-.53-.29-.75-.14-.22-.31-.4-.51-.55-.2-.15-.43-.26-.68-.34-.25-.08-.51-.12-.79-.12-.5,0-.95.13-1.35.38s-.71.62-.94,1.11c-.23.49-.34,1.08-.34,1.79s.12,1.31.34,1.8c.23.49.54.86.94,1.11s.84.38,1.34.38c.28,0,.54-.04.79-.11.25-.08.47-.19.67-.33.2-.15.37-.33.51-.54.14-.21.24-.46.29-.74h1.33c-.07.43-.21.83-.41,1.19s-.46.67-.78.93c-.32.26-.68.46-1.08.6-.41.14-.85.21-1.33.21-.76,0-1.43-.18-2.02-.54s-1.06-.87-1.4-1.54c-.34-.67-.51-1.47-.51-2.4s.17-1.73.51-2.4c.34-.67.81-1.18,1.4-1.54s1.26-.54,2.02-.54c.46,0,.9.07,1.3.2.4.13.76.33,1.08.58.32.25.59.56.8.93s.35.78.43,1.25Z"/>
  <path class="cls-1" d="m34.67,42.36v-8.73h1.32v3.79h4.35v-3.79h1.32v8.73h-1.32v-3.8h-4.35v3.8h-1.32Z"/>
  <polygon class="cls-2" points="8.1 13.64 8.1 66.02 49.71 66.12 8.1 13.64"/>
  <polyline class="cls-2" points="15.06 66.02 15.06 59.07 8.1 59.07"/>
  <line class="cls-2" x1="8.1" y1="66.12" x2="30.65" y2="42.12"/>
</svg>