<?xml version="1.0" encoding="UTF-8"?>
<svg id="Layer_1" data-name="Layer 1" xmlns="http://www.w3.org/2000/svg" viewBox="0 0 173 209">
  <defs>
    <style>
      .cls-1 {
        fill: #fff;
      }

      .cls-2 {
        stroke-dasharray: 0 0 4.61 2.77;
      }

      .cls-2, .cls-3, .cls-4 {
        fill: none;
        stroke: #d1ae59;
        stroke-miterlimit: 10;
        stroke-width: 2px;
      }

      .cls-5 {
        fill: #d1ae59;
      }

      .cls-3 {
        stroke-dasharray: 0 0 4.98 2.99;
      }
    </style>
  </defs>
  <polyline class="cls-4" points="88.34 75 169.84 75 132 140 2 140 39.84 75 53.51 75"/>
  <path class="cls-5" d="m88,7.41v68.05l-34.1,58.32-.9-66.26L88,7.41m2-7.41l-39,67,1,74,38-65V0h0Z"/>
  <polyline class="cls-4" points="53 135 54 205 89 144 89 140"/>
  <circle class="cls-5" cx="75.5" cy="99.5" r="2.5"/>
  <path class="cls-1" d="m66.9,94.83h-1.4l3.14-8.73h1.52l3.14,8.73h-1.4l-2.47-7.14h-.07l-2.47,7.14Zm.23-3.42h4.53v1.11h-4.53v-1.11Z"/>
  <path class="cls-1" d="m61.96,135.98c-.41,0-.79-.08-1.12-.23-.33-.16-.6-.38-.79-.68-.19-.3-.29-.66-.29-1.09,0-.37.07-.67.21-.91.14-.24.33-.43.58-.57.24-.14.51-.24.81-.32.3-.07.6-.12.91-.16.39-.04.71-.08.95-.11.24-.03.42-.08.53-.15s.17-.18.17-.33v-.03c0-.37-.1-.66-.31-.87-.21-.2-.52-.31-.93-.31s-.77.09-1.01.28c-.25.19-.42.4-.51.63l-1.2-.27c.14-.4.35-.72.62-.97.27-.25.59-.42.95-.54s.73-.17,1.13-.17c.26,0,.54.03.83.09s.57.17.83.33c.26.16.47.39.63.69.17.3.25.69.25,1.17v4.35h-1.24v-.89h-.05c-.08.16-.21.33-.37.49-.16.16-.38.29-.63.4-.26.1-.57.16-.93.16Zm.28-1.02c.35,0,.65-.07.91-.21.25-.14.44-.32.58-.55.13-.23.2-.47.2-.73v-.84s-.13.09-.26.12c-.13.04-.28.07-.44.1-.16.03-.33.05-.48.07s-.29.04-.39.05c-.25.03-.47.08-.68.16s-.37.18-.49.32c-.12.14-.18.32-.18.55,0,.32.12.55.35.71.23.16.53.24.89.24Z"/>
  <path class="cls-1" d="m16.2,135.06c-.55,0-1.02-.15-1.44-.44-.41-.29-.73-.69-.96-1.2-.23-.51-.35-1.1-.35-1.76s.12-1.24.36-1.75c.24-.5.57-.9,1-1.18.42-.29.9-.43,1.44-.43.38,0,.72.07,1.01.22.29.14.54.34.74.6.21.25.38.55.51.89h.44l.25,1.64.84,3.29h-1.09l-.78-3.29c-.04-.21-.11-.44-.19-.7-.09-.26-.2-.5-.34-.74-.14-.24-.31-.43-.53-.58-.21-.15-.47-.23-.77-.23-.33,0-.61.1-.86.29-.25.2-.44.46-.58.81s-.2.74-.2,1.18.07.83.2,1.18c.13.35.32.62.55.83.24.2.51.3.83.3.29,0,.54-.08.75-.23s.4-.35.55-.6c.15-.24.27-.49.37-.76.09-.26.17-.5.21-.71l.7-3.29h1.09l-.75,3.29-.25,1.66h-.4c-.14.34-.31.64-.53.9s-.47.47-.78.62c-.3.15-.65.22-1.05.22Z"/>
  <g>
    <line class="cls-4" x1="89" y1="76" x2="89" y2="78.5"/>
    <line class="cls-3" x1="89" y1="81.49" x2="89" y2="135.81"/>
    <line class="cls-4" x1="89" y1="137.31" x2="89" y2="139.81"/>
  </g>
  <g>
    <line class="cls-4" x1="53.7" y1="75" x2="56.2" y2="75"/>
    <line class="cls-2" x1="58.97" y1="75" x2="87.12" y2="75"/>
    <line class="cls-4" x1="88.5" y1="75" x2="91" y2="75"/>
  </g>
</svg>