<?xml version="1.0" encoding="UTF-8"?>
<svg id="Layer_1" data-name="Layer 1" xmlns="http://www.w3.org/2000/svg" viewBox="0 0 173 67">
  <defs>
    <style>
      .cls-1 {
        fill: #fff;
      }

      .cls-2 {
        fill: none;
        stroke: #fff;
        stroke-miterlimit: 10;
      }

      .cls-3 {
        fill: #d1ae59;
      }
    </style>
  </defs>
  <line class="cls-2" x1="44" y1="66" x2="117" y2="1"/>
  <path class="cls-3" d="m169.52,2l-36.67,63H3.48L40.15,2h129.37m3.48-2H39L0,67h134L173,0h0Z"/>
  <circle class="cls-3" cx="61.5" cy="50.5" r="2.5"/>
  <circle class="cls-3" cx="98.5" cy="17.5" r="2.5"/>
  <path class="cls-1" d="m52.9,46.83h-1.4l3.14-8.73h1.52l3.14,8.73h-1.4l-2.47-7.14h-.07l-2.47,7.14Zm.23-3.42h4.53v1.11h-4.53v-1.11Z"/>
  <path class="cls-1" d="m87.16,14.83V6.1h3.2c.62,0,1.13.1,1.54.3s.71.48.91.82c.2.35.3.73.3,1.17,0,.36-.07.67-.2.92-.13.25-.31.45-.54.6s-.47.26-.74.33v.08c.29.01.57.11.85.28.28.17.51.42.69.73.18.32.27.7.27,1.15s-.11.85-.31,1.2c-.21.35-.53.63-.97.84-.43.21-.99.31-1.67.31h-3.34Zm1.32-4.95h1.76c.29,0,.56-.06.8-.17s.43-.27.57-.48.21-.45.21-.73c0-.36-.13-.66-.38-.91s-.64-.37-1.16-.37h-1.8v2.65Zm0,3.82h1.9c.63,0,1.08-.12,1.35-.37.27-.24.41-.55.41-.92,0-.28-.07-.53-.21-.76-.14-.23-.34-.41-.59-.55-.26-.14-.56-.21-.91-.21h-1.95v2.8Z"/>
  <path class="cls-1" d="m16.2,61.06c-.55,0-1.02-.15-1.44-.44s-.73-.69-.96-1.2c-.23-.51-.35-1.1-.35-1.76s.12-1.24.36-1.75c.24-.5.57-.9,1-1.18.42-.29.9-.43,1.44-.43.38,0,.72.07,1.01.22.29.14.54.34.74.6.21.25.38.55.51.89h.44l.25,1.64.83,3.29h-1.09l-.78-3.29c-.04-.21-.11-.44-.19-.7-.09-.26-.2-.5-.34-.74-.14-.24-.31-.43-.53-.58s-.47-.23-.76-.23c-.33,0-.61.1-.86.29-.25.2-.44.46-.58.81-.14.34-.2.74-.2,1.18s.07.83.2,1.18c.13.35.32.62.55.83.24.2.51.3.83.3.29,0,.54-.08.75-.23s.4-.35.55-.6c.15-.24.27-.49.37-.76s.17-.5.21-.71l.7-3.29h1.09l-.75,3.29-.25,1.66h-.4c-.14.34-.31.64-.53.9-.21.26-.47.47-.78.62-.3.15-.65.22-1.05.22Z"/>
</svg>