<?xml version="1.0" encoding="UTF-8"?>
<svg id="Layer_1" data-name="Layer 1" xmlns="http://www.w3.org/2000/svg" viewBox="0 0 173 67">
  <defs>
    <style>
      .cls-1 {
        fill: #fff;
      }

      .cls-2 {
        fill: #d1ae59;
      }
    </style>
  </defs>
  <path class="cls-2" d="m169.52,2l-36.67,63H3.48L40.15,2h129.37m3.48-2H39L0,67h134L173,0h0Z"/>
  <circle class="cls-2" cx="45.5" cy="48.5" r="2.5"/>
  <circle class="cls-2" cx="82.5" cy="15.5" r="2.5"/>
  <circle class="cls-2" cx="116.5" cy="41.5" r="2.5"/>
  <path class="cls-1" d="m52.9,49.83h-1.4l3.14-8.73h1.52l3.14,8.73h-1.4l-2.47-7.14h-.07l-2.47,7.14Zm.23-3.42h4.53v1.11h-4.53v-1.11Z"/>
  <path class="cls-1" d="m89.16,15.83V7.1h3.2c.62,0,1.13.1,1.54.3s.71.48.91.82c.2.35.3.73.3,1.17,0,.36-.07.67-.2.92-.13.25-.31.45-.54.6-.22.15-.47.26-.73.33v.08c.29.01.57.11.85.28s.51.42.69.73c.18.32.27.7.27,1.15s-.1.85-.31,1.2c-.21.35-.53.63-.97.84s-.99.31-1.67.31h-3.35Zm1.32-4.95h1.76c.3,0,.56-.06.8-.17s.43-.27.57-.48.21-.45.21-.73c0-.36-.13-.66-.38-.91s-.64-.37-1.16-.37h-1.8v2.65Zm0,3.82h1.9c.63,0,1.08-.12,1.35-.37.27-.24.41-.55.41-.92,0-.28-.07-.53-.21-.76-.14-.23-.34-.41-.59-.55-.26-.14-.56-.21-.91-.21h-1.95v2.8Z"/>
  <path class="cls-1" d="m131.41,35.94h-1.33c-.05-.28-.15-.53-.29-.75-.14-.22-.31-.4-.51-.55-.2-.15-.43-.26-.68-.34-.25-.08-.51-.11-.79-.11-.5,0-.95.13-1.35.38s-.71.62-.94,1.11-.34,1.08-.34,1.79.12,1.31.34,1.8.54.86.94,1.11c.4.25.85.38,1.34.38.28,0,.54-.04.79-.11.25-.08.47-.19.67-.33.2-.15.37-.33.51-.54s.24-.46.29-.74h1.33c-.07.43-.21.83-.41,1.19s-.46.67-.78.93c-.32.26-.68.46-1.08.6s-.85.21-1.33.21c-.76,0-1.43-.18-2.02-.54-.59-.36-1.06-.87-1.4-1.54-.34-.67-.51-1.47-.51-2.4s.17-1.73.51-2.4c.34-.67.81-1.18,1.4-1.54.59-.36,1.26-.54,2.02-.54.46,0,.9.07,1.3.2.4.13.76.33,1.08.58.32.25.59.56.8.93s.35.78.43,1.25Z"/>
  <path class="cls-1" d="m16.2,61.06c-.55,0-1.02-.15-1.44-.44-.41-.29-.73-.69-.96-1.2-.23-.51-.35-1.1-.35-1.76s.12-1.24.36-1.75c.24-.5.57-.9,1-1.18.42-.29.9-.43,1.44-.43.38,0,.72.07,1.01.22.29.14.54.34.74.6.21.25.38.55.51.89h.44l.25,1.64.84,3.29h-1.09l-.78-3.29c-.04-.21-.11-.44-.19-.7-.09-.26-.2-.5-.34-.74-.14-.24-.31-.43-.53-.58-.21-.15-.47-.23-.77-.23-.33,0-.61.1-.86.29-.25.2-.44.46-.58.81s-.2.74-.2,1.18.07.83.2,1.18c.13.35.32.62.55.83.24.2.51.3.83.3.29,0,.54-.08.75-.23s.4-.35.55-.6c.15-.24.27-.49.37-.76.09-.26.17-.5.21-.71l.7-3.29h1.09l-.75,3.29-.25,1.66h-.4c-.14.34-.31.64-.53.9s-.47.47-.78.62c-.3.15-.65.22-1.05.22Z"/>
</svg>