<?xml version="1.0" encoding="UTF-8"?>
<svg id="Layer_1" data-name="Layer 1" xmlns="http://www.w3.org/2000/svg" viewBox="0 0 68.5 40.5">
  <defs>
    <style>
      .cls-1 {
        fill: #fff;
      }
    </style>
  </defs>
  <g>
    <path class="cls-1" d="m8.34,6.94l2.05,3.61,2.06-3.61h1.97l-2.89,4.64,2.92,4.64h-1.97l-2.09-3.47-2.08,3.47h-1.98l2.89-4.64-2.85-4.64h1.98Z"/>
    <path class="cls-1" d="m25.87,10.28v-1.59h7.73v1.59h-7.73Zm0,3.72v-1.59h7.73v1.59h-7.73Z"/>
    <path class="cls-1" d="m50.09,16.21v-1.35l4.18-4.33c.45-.47.82-.88,1.11-1.24.29-.36.51-.7.66-1.02.15-.32.22-.66.22-1.03,0-.41-.1-.77-.29-1.07-.19-.3-.46-.53-.79-.69-.33-.16-.71-.24-1.13-.24-.44,0-.83.09-1.16.27s-.58.44-.76.77c-.18.33-.27.72-.27,1.16h-1.78c0-.75.17-1.41.52-1.97s.82-1,1.42-1.31c.6-.31,1.29-.47,2.06-.47s1.46.15,2.06.46c.59.31,1.06.73,1.39,1.26.33.53.5,1.13.5,1.79,0,.46-.09.91-.26,1.35-.17.44-.47.93-.89,1.46-.42.54-1.01,1.19-1.76,1.95l-2.46,2.57v.09h5.57v1.6h-8.14Z"/>
    <path class="cls-1" d="m2.15,27.34l2.05,3.61,2.06-3.61h1.97l-2.89,4.64,2.92,4.64h-1.97l-2.09-3.47-2.08,3.47H.13l2.89-4.64L.17,27.34h1.98Z"/>
    <path class="cls-1" d="m19.68,30.68v-1.59h7.73v1.59h-7.73Zm0,3.72v-1.59h7.73v1.59h-7.73Z"/>
    <path class="cls-1" d="m40.39,30.6v1.56h-5.48v-1.56h5.48Z"/>
    <path class="cls-1" d="m56.28,36.61v-1.35l4.18-4.33c.45-.47.82-.88,1.11-1.24.29-.36.51-.7.66-1.02.15-.32.22-.66.22-1.03,0-.41-.1-.77-.29-1.07-.19-.3-.46-.53-.79-.69-.33-.16-.71-.24-1.13-.24-.44,0-.83.09-1.16.27s-.58.44-.76.77c-.18.33-.27.72-.27,1.16h-1.78c0-.75.17-1.41.52-1.97s.82-1,1.42-1.31c.6-.31,1.29-.47,2.06-.47s1.46.15,2.06.46c.59.31,1.06.73,1.39,1.26.33.53.5,1.13.5,1.79,0,.46-.09.91-.26,1.35-.17.44-.47.93-.89,1.46-.42.54-1.01,1.19-1.76,1.95l-2.46,2.57v.09h5.57v1.6h-8.14Z"/>
  </g>
  <path class="cls-1" d="m18.94,10.92v8.73h-1.32v-7.41h-.05l-2.09,1.36v-1.26l2.18-1.42h1.28Z"/>
  <path class="cls-1" d="m8.63,39.65v-.95l2.95-3.06c.32-.33.58-.62.78-.88.21-.25.36-.49.46-.72s.15-.47.15-.72c0-.29-.07-.54-.21-.75-.14-.21-.32-.38-.56-.49-.24-.11-.5-.17-.8-.17-.31,0-.59.06-.82.19-.23.13-.41.31-.54.54s-.19.51-.19.82h-1.26c0-.53.12-1,.37-1.39.24-.4.58-.71,1.01-.93s.91-.33,1.45-.33,1.03.11,1.45.33.75.51.98.89c.24.37.35.79.35,1.26,0,.32-.06.64-.18.95-.12.31-.33.65-.63,1.03-.3.38-.71.84-1.24,1.38l-1.73,1.81v.06h3.93v1.13h-5.74Z"/>
  <path class="cls-1" d="m62,1.23h-15.27c-.1,0-.15.02-.18.13-.1.38-.22.75-.34,1.13-.22.72-.43,1.42-.64,2.14-.26.84-.51,1.68-.77,2.52-.23.74-.45,1.48-.68,2.23-.23.75-.46,1.51-.69,2.26-.21.67-.4,1.34-.62,2.04-.02-.05-.05-.06-.06-.1-.26-.74-.51-1.47-.77-2.21-.27-.78-.54-1.56-.8-2.34-.12-.34-.24-.69-.37-1.03-.04-.1-.09-.13-.19-.12h-2.7v1.52h1.58c.07,0,.11.01.13.09.28.78.55,1.56.83,2.34.34.97.69,1.93,1.05,2.91.18.51.37,1.01.55,1.52.02.09.07.1.13.1h1.34c.09,0,.11-.02.13-.11.18-.61.38-1.22.56-1.83.12-.39.23-.78.35-1.17.22-.73.45-1.46.67-2.19.27-.88.54-1.74.8-2.62.18-.6.37-1.18.55-1.78.27-.88.54-1.75.82-2.63.13-.44.27-.86.4-1.31h14.15v-1.48h.05Z"/>
  <path class="cls-1" d="m68,21.23h-15.27c-.1,0-.15.02-.18.13-.1.38-.22.75-.34,1.13-.22.72-.43,1.42-.64,2.14-.26.84-.51,1.68-.77,2.52-.23.74-.45,1.48-.68,2.23-.23.75-.46,1.51-.69,2.26-.21.67-.4,1.34-.62,2.04-.02-.05-.05-.06-.06-.1-.26-.74-.51-1.47-.77-2.21-.27-.78-.54-1.56-.8-2.34-.12-.34-.24-.69-.37-1.03-.04-.1-.09-.13-.19-.12h-2.7v1.52h1.58c.07,0,.11.01.13.09.28.78.55,1.56.83,2.34.34.97.69,1.93,1.05,2.91.18.51.37,1.01.55,1.52.02.09.07.1.13.1h1.34c.09,0,.11-.02.13-.11.18-.61.38-1.22.56-1.83.12-.39.23-.78.35-1.17.22-.73.45-1.46.67-2.19.27-.88.54-1.74.8-2.62.18-.6.37-1.18.55-1.78.27-.88.54-1.75.82-2.63.13-.44.27-.86.4-1.31h14.15v-1.48h.05Z"/>
</svg>