<?xml version="1.0" encoding="UTF-8"?>
<svg id="Layer_1" data-name="Layer 1" xmlns="http://www.w3.org/2000/svg" viewBox="0 0 56.5 20.5">
  <defs>
    <style>
      .cls-1 {
        fill: #fff;
      }
    </style>
  </defs>
  <g>
    <path class="cls-1" d="m2.34,6.94l2.05,3.61,2.06-3.61h1.97l-2.89,4.64,2.92,4.64h-1.97l-2.09-3.47-2.08,3.47H.32l2.89-4.64L.36,6.94h1.98Z"/>
    <path class="cls-1" d="m19.87,10.28v-1.59h7.73v1.59h-7.73Zm0,3.72v-1.59h7.73v1.59h-7.73Z"/>
    <path class="cls-1" d="m44.09,16.21v-1.35l4.18-4.33c.45-.47.82-.88,1.11-1.24.29-.36.51-.7.66-1.02.15-.32.22-.66.22-1.03,0-.41-.1-.77-.29-1.07-.19-.3-.46-.53-.79-.69-.33-.16-.71-.24-1.13-.24-.44,0-.83.09-1.16.27s-.58.44-.76.77c-.18.33-.27.72-.27,1.16h-1.78c0-.75.17-1.41.52-1.97s.82-1,1.42-1.31c.6-.31,1.29-.47,2.06-.47s1.46.15,2.06.46c.59.31,1.06.73,1.39,1.26.33.53.5,1.13.5,1.79,0,.46-.09.91-.26,1.35-.17.44-.47.93-.89,1.46-.42.54-1.01,1.19-1.76,1.95l-2.46,2.57v.09h5.57v1.6h-8.14Z"/>
  </g>
  <path class="cls-1" d="m12.94,10.92v8.73h-1.32v-7.41h-.05l-2.09,1.36v-1.26l2.18-1.42h1.28Z"/>
  <path class="cls-1" d="m56,1.23h-15.27c-.1,0-.15.02-.18.13-.1.38-.22.75-.34,1.13-.22.72-.43,1.42-.64,2.14-.26.84-.51,1.68-.77,2.52-.23.74-.45,1.48-.68,2.23-.23.75-.46,1.51-.69,2.26-.21.67-.4,1.34-.62,2.04-.02-.05-.05-.06-.06-.1-.26-.74-.51-1.47-.77-2.21-.27-.78-.54-1.56-.8-2.34-.12-.34-.24-.69-.37-1.03-.04-.1-.09-.13-.19-.12h-2.7v1.52h1.58c.07,0,.11.01.13.09.28.78.55,1.56.83,2.34.34.97.69,1.93,1.05,2.91.18.51.37,1.01.55,1.52.02.09.07.1.13.1h1.34c.09,0,.11-.02.13-.11.18-.61.38-1.22.56-1.83.12-.39.23-.78.35-1.17.22-.73.45-1.46.67-2.19.27-.88.54-1.74.8-2.62.18-.6.37-1.18.55-1.78.27-.88.54-1.75.82-2.63.13-.44.27-.86.4-1.31h14.15v-1.48h.05Z"/>
</svg>