<?xml version="1.0" encoding="UTF-8"?>
<svg id="Layer_1" data-name="Layer 1" xmlns="http://www.w3.org/2000/svg" viewBox="0 0 8 50">
  <defs>
    <style>
      .cls-1 {
        fill: #fff;
      }
    </style>
  </defs>
  <path class="cls-1" d="m.8,25.12c0-4.38.4-8.63,1.19-12.76.79-4.13,1.93-8.07,3.42-11.82h1.62c-.7,1.74-1.33,3.6-1.88,5.58-.55,1.98-1.02,4.02-1.4,6.14s-.68,4.25-.88,6.42c-.2,2.16-.3,4.32-.3,6.45,0,2.86.18,5.73.54,8.62.36,2.89.87,5.7,1.54,8.41.67,2.71,1.46,5.23,2.38,7.55h-1.62c-1.49-3.78-2.63-7.73-3.42-11.86-.79-4.13-1.19-8.37-1.19-12.73Z"/>
</svg>