<?xml version="1.0" encoding="UTF-8"?>
<svg xmlns="http://www.w3.org/2000/svg" viewBox="0 0 150.25 150.5">
  <defs>
    <style>
      .cls-1 {
        isolation: isolate;
        opacity: .3;
        stroke: #bdccd4;
        stroke-width: .5px;
      }

      .cls-1, .cls-2, .cls-3, .cls-4 {
        fill: none;
        stroke-miterlimit: 10;
      }

      .cls-5 {
        fill: #fff;
      }

      .cls-2, .cls-3 {
        stroke: #fff;
      }

      .cls-3, .cls-4 {
        stroke-width: 2px;
      }

      .cls-6 {
        fill: #d1ae59;
      }

      .cls-4 {
        stroke: #d1ae59;
      }
    </style>
  </defs>
  <g id="Layer_1" data-name="Layer 1">
    <g id="Layer_1-2" data-name="Layer 1">
      <rect class="cls-1" x=".25" y=".25" width="149.75" height="150"/>
      <line class="cls-1" x1="70" y1=".25" x2="70" y2="150.25"/>
      <line class="cls-1" x1="60" y1=".25" x2="60" y2="150.25"/>
      <line class="cls-1" x1="50" y1=".25" x2="50" y2="150.25"/>
      <line class="cls-1" x1="40" y1=".25" x2="40" y2="150.25"/>
      <line class="cls-1" x1="30" y1=".25" x2="30" y2="150.25"/>
      <line class="cls-1" x1="20" y1=".25" x2="20" y2="150.25"/>
      <line class="cls-1" x1="10" y1=".25" x2="10" y2="150.25"/>
      <line class="cls-1" x1="150" y1="80.25" x2=".5" y2="80.25"/>
      <line class="cls-1" x1="150" y1="90.25" x2=".5" y2="90.25"/>
      <line class="cls-1" x1="150" y1="100.25" x2=".5" y2="100.25"/>
      <line class="cls-1" x1="150" y1="110.25" x2=".5" y2="110.25"/>
      <line class="cls-1" x1="150" y1="120.25" x2=".5" y2="120.25"/>
      <line class="cls-1" x1="150" y1="130.25" x2=".5" y2="130.25"/>
      <line class="cls-1" x1="150" y1="140.25" x2=".5" y2="140.25"/>
      <line class="cls-1" x1="150" y1="70.25" x2=".5" y2="70.25"/>
      <line class="cls-1" x1="150" y1="60.25" x2=".5" y2="60.25"/>
      <line class="cls-1" x1="150" y1="50.25" x2=".5" y2="50.25"/>
      <line class="cls-1" x1="150" y1="40.25" x2=".5" y2="40.25"/>
      <line class="cls-1" x1="150" y1="30.25" x2=".5" y2="30.25"/>
      <line class="cls-1" x1="150" y1="20.25" x2=".5" y2="20.25"/>
      <line class="cls-1" x1="150" y1="10.25" x2=".5" y2="10.25"/>
      <line class="cls-1" x1="80" y1=".25" x2="80" y2="150.25"/>
      <line class="cls-1" x1="90" y1=".25" x2="90" y2="150.25"/>
      <line class="cls-1" x1="100" y1=".25" x2="100" y2="150.25"/>
      <line class="cls-1" x1="110" y1=".25" x2="110" y2="150.25"/>
      <line class="cls-1" x1="120" y1=".25" x2="120" y2="150.25"/>
      <line class="cls-1" x1="130" y1=".25" x2="130" y2="150.25"/>
      <line class="cls-1" x1="140" y1=".25" x2="140" y2="150.25"/>
    </g>
    <polygon class="cls-5" points="70 4.03 66.41 10.25 73.59 10.25 70 4.03"/>
    <polygon class="cls-5" points="146.22 90.25 140 86.66 140 93.84 146.22 90.25"/>
    <line class="cls-3" x1="10" y1="90.25" x2="140" y2="90.25"/>
    <line class="cls-3" x1="70" y1="10.25" x2="70" y2="140.25"/>
    <line class="cls-2" x1="80" y1="87.04" x2="80" y2="93.46"/>
    <line class="cls-2" x1="66.79" y1="80.25" x2="73.21" y2="80.25"/>
    <path class="cls-5" d="m136.91,100.12l2.05,3.61,2.06-3.61h1.97l-2.89,4.64,2.92,4.64h-1.97l-2.09-3.46-2.08,3.46h-1.98l2.89-4.64-2.85-4.64h1.98,0Z"/>
    <path class="cls-5" d="m81.13,97.03v12.36h-1.87v-10.49h-.07l-2.96,1.93v-1.79l3.08-2.02h1.82Z"/>
    <path class="cls-5" d="m64.36,74.29v12.36h-1.87v-10.49h-.07l-2.96,1.93v-1.79l3.08-2.02h1.82Z"/>
  </g>
  <g id="Layer_3" data-name="Layer 3">
    <circle class="cls-4" cx="60" cy="70.25" r="50"/>
    <circle class="cls-6" cx="60" cy="70.25" r="2.76"/>
    <circle class="cls-6" cx="102.76" cy="44.58" r="2.76"/>
    <line class="cls-4" x1="60" y1="70.25" x2="103.09" y2="44.87"/>
    <g>
      <path class="cls-5" d="m31.13,55.89c0,.93-.17,1.73-.51,2.4-.34.67-.81,1.18-1.4,1.54-.59.36-1.27.54-2.02.54s-1.43-.18-2.02-.54c-.59-.36-1.06-.87-1.4-1.54-.34-.67-.51-1.47-.51-2.4s.17-1.73.51-2.4c.34-.67.81-1.18,1.4-1.54.59-.36,1.27-.54,2.02-.54s1.43.18,2.02.54c.59.36,1.06.87,1.4,1.54s.51,1.47.51,2.4Zm-1.3,0c0-.71-.11-1.31-.34-1.8s-.54-.86-.94-1.11c-.4-.25-.84-.38-1.34-.38s-.95.12-1.35.38c-.4.25-.71.62-.94,1.11s-.34,1.09-.34,1.8.12,1.31.34,1.8.54.86.94,1.11c.39.25.84.38,1.35.38s.95-.13,1.34-.38c.4-.25.71-.62.94-1.11s.34-1.09.34-1.8Z"/>
      <path class="cls-5" d="m33.04,56.63c0-1.07.14-2.05.42-2.95.28-.9.69-1.73,1.23-2.48h1.17c-.21.28-.41.63-.59,1.04s-.34.86-.48,1.34c-.14.49-.24.99-.32,1.51-.08.52-.12,1.04-.12,1.54,0,.68.07,1.36.2,2.05.13.69.31,1.34.54,1.93.23.59.48,1.08.76,1.45h-1.17c-.54-.76-.95-1.59-1.23-2.48s-.42-1.88-.42-2.95Z"/>
      <path class="cls-5" d="m38.21,53.7l1.44,2.55,1.46-2.55h1.39l-2.04,3.27,2.06,3.27h-1.39l-1.47-2.45-1.47,2.45h-1.4l2.04-3.27-2.01-3.27h1.4Z"/>
      <path class="cls-5" d="m51.83,59.06l-.06.46c-.04.34-.11.7-.21,1.07-.1.37-.21.71-.31,1.03s-.19.57-.26.76h-.9c.04-.18.09-.41.15-.71s.13-.63.19-1,.11-.75.14-1.13l.04-.48h1.23Zm-.67-3.49c-.23,0-.43-.08-.6-.25-.17-.17-.25-.37-.25-.6s.08-.43.25-.6c.17-.17.37-.25.6-.25s.43.08.6.25c.17.17.25.37.25.6,0,.16-.04.3-.12.43-.08.13-.18.23-.31.31-.13.08-.27.11-.43.11Z"/>
      <path class="cls-5" d="m54.43,62.7c-.19,0-.36-.01-.52-.04-.16-.03-.27-.06-.35-.1l.31-1.04c.23.06.44.09.62.08.18,0,.34-.08.48-.2s.26-.34.37-.63l.16-.43-2.39-6.63h1.36l1.66,5.08h.07l1.66-5.08h1.37l-2.7,7.42c-.12.34-.28.63-.48.87-.19.24-.42.42-.69.53s-.58.18-.93.18Z"/>
      <path class="cls-5" d="m66.05,56.63c0,1.07-.14,2.06-.42,2.95s-.69,1.73-1.23,2.48h-1.17c.21-.28.41-.63.59-1.04.18-.41.34-.86.48-1.34.14-.49.24-.99.32-1.51.08-.52.11-1.04.11-1.54,0-.67-.07-1.36-.2-2.05-.13-.69-.31-1.34-.54-1.93s-.48-1.08-.76-1.45h1.17c.54.76.95,1.59,1.23,2.48.28.9.42,1.88.42,2.95Z"/>
    </g>
    <g>
      <path class="cls-5" d="m105.71,33.4h1.6l2.78,6.78h.1l2.78-6.78h1.6v8.73h-1.25v-6.32h-.08l-2.57,6.3h-1.04l-2.57-6.31h-.08v6.32h-1.25v-8.73Z"/>
      <path class="cls-5" d="m119.93,38.5c0-1.07.14-2.05.42-2.95.28-.9.69-1.73,1.23-2.48h1.17c-.21.28-.41.63-.59,1.04s-.34.86-.48,1.34c-.14.49-.24.99-.32,1.51-.08.52-.12,1.04-.12,1.54,0,.68.07,1.36.2,2.05.13.69.31,1.34.54,1.93.23.59.48,1.08.76,1.45h-1.17c-.54-.76-.95-1.59-1.23-2.48s-.42-1.88-.42-2.95Z"/>
      <path class="cls-5" d="m125.1,35.58l1.44,2.55,1.46-2.55h1.39l-2.04,3.27,2.06,3.27h-1.39l-1.47-2.45-1.47,2.45h-1.4l2.04-3.27-2.01-3.27h1.4Z"/>
      <path class="cls-5" d="m132.37,40.93l-.06.46c-.04.34-.11.7-.21,1.07-.1.37-.21.71-.31,1.03s-.19.57-.26.76h-.9c.04-.18.09-.41.15-.71s.13-.63.19-1,.11-.75.14-1.13l.04-.48h1.23Zm-.67-3.49c-.23,0-.43-.08-.6-.25-.17-.17-.25-.37-.25-.6s.08-.43.25-.6c.17-.17.37-.25.6-.25s.43.08.6.25c.17.17.25.37.25.6,0,.16-.04.3-.12.43-.08.13-.18.23-.31.31-.13.08-.27.11-.43.11Z"/>
      <path class="cls-5" d="m134.97,44.58c-.19,0-.36-.01-.52-.04-.16-.03-.27-.06-.35-.1l.31-1.04c.23.06.44.09.62.08.18,0,.34-.08.48-.2s.26-.34.37-.63l.16-.43-2.39-6.63h1.36l1.66,5.08h.07l1.66-5.08h1.37l-2.7,7.42c-.12.34-.28.63-.48.87-.19.24-.42.42-.69.53s-.58.18-.93.18Z"/>
      <path class="cls-5" d="m143.41,38.5c0,1.07-.14,2.06-.42,2.95s-.69,1.73-1.23,2.48h-1.17c.21-.28.41-.63.59-1.04.18-.41.34-.86.48-1.34.14-.49.24-.99.32-1.51.08-.52.11-1.04.11-1.54,0-.67-.07-1.36-.2-2.05-.13-.69-.31-1.34-.54-1.93s-.48-1.08-.76-1.45h1.17c.54.76.95,1.59,1.23,2.48.28.9.42,1.88.42,2.95Z"/>
    </g>
    <path class="cls-5" d="m45.57,64.76c-.5,0-.94-.13-1.29-.4-.36-.26-.63-.65-.82-1.15-.19-.5-.29-1.11-.29-1.83s.1-1.32.29-1.82c.19-.5.47-.89.83-1.15.36-.26.79-.4,1.29-.4s.93.13,1.29.4c.36.27.63.65.82,1.15.19.5.29,1.11.29,1.82s-.09,1.32-.29,1.83c-.19.5-.46.89-.82,1.15-.36.26-.79.4-1.29.4Zm0-.85c.44,0,.79-.22,1.04-.65.25-.43.38-1.06.38-1.88,0-.54-.06-1-.17-1.38s-.28-.66-.49-.86c-.21-.2-.46-.29-.76-.29-.44,0-.79.22-1.04.65-.25.43-.38,1.06-.38,1.88,0,.55.06,1.01.17,1.38.11.38.28.66.49.85.21.19.46.29.76.29Z"/>
    <path class="cls-5" d="m60.32,64.76c-.5,0-.94-.13-1.29-.4-.36-.26-.63-.65-.82-1.15-.19-.5-.29-1.11-.29-1.83s.1-1.32.29-1.82c.19-.5.47-.89.83-1.15.36-.26.79-.4,1.29-.4s.93.13,1.29.4c.36.27.63.65.82,1.15.19.5.29,1.11.29,1.82s-.09,1.32-.29,1.83c-.19.5-.46.89-.82,1.15-.36.26-.79.4-1.29.4Zm0-.85c.44,0,.79-.22,1.04-.65.25-.43.38-1.06.38-1.88,0-.54-.06-1-.17-1.38s-.28-.66-.49-.86c-.21-.2-.46-.29-.76-.29-.44,0-.79.22-1.04.65-.25.43-.38,1.06-.38,1.88,0,.55.06,1.01.17,1.38.11.38.28.66.49.85.21.19.46.29.76.29Z"/>
    <path class="cls-5" d="m51.48,21.25c-.27,0-.52-.02-.74-.06-.22-.04-.39-.09-.49-.14l.43-1.48c.33.09.62.13.88.11.26-.01.49-.11.69-.29s.38-.48.53-.89l.22-.62-3.39-9.39h1.93l2.35,7.2h.1l2.35-7.2h1.94l-3.82,10.51c-.18.48-.4.89-.68,1.23-.27.34-.6.59-.98.76s-.82.25-1.32.25h0Z"/>
  </g>
</svg>