<?xml version="1.0" encoding="UTF-8"?>
<svg id="Layer_1" data-name="Layer 1" xmlns="http://www.w3.org/2000/svg" viewBox="0 0 104.13 77">
  <defs>
    <style>
      .cls-1 {
        fill: #fff;
      }

      .cls-2 {
        fill-rule: evenodd;
      }

      .cls-2, .cls-3 {
        fill: none;
        stroke: #d1ae59;
        stroke-miterlimit: 10;
        stroke-width: 2px;
      }

      .cls-4 {
        fill: #d1ae59;
      }
    </style>
  </defs>
  <path class="cls-4" d="m31.09,8.99c16.04,0,29.09,13.05,29.09,29.09s-13.05,29.09-29.09,29.09S2,54.12,2,38.08,15.05,8.99,31.09,8.99m0-2C13.92,6.99,0,20.91,0,38.08s13.92,31.09,31.09,31.09,31.09-13.92,31.09-31.09S48.26,6.99,31.09,6.99h0Z"/>
  <g>
    <path class="cls-4" d="m31.09,39.37c-.71,0-1.29-.58-1.29-1.29s.58-1.29,1.29-1.29,1.29.58,1.29,1.29-.58,1.29-1.29,1.29Z"/>
    <path class="cls-4" d="m31.09,37.79c.16,0,.29.13.29.29s-.13.29-.29.29-.29-.13-.29-.29.13-.29.29-.29m0-2c-1.26,0-2.29,1.02-2.29,2.29s1.02,2.29,2.29,2.29,2.29-1.02,2.29-2.29-1.02-2.29-2.29-2.29h0Z"/>
  </g>
  <g>
    <path class="cls-4" d="m38.38,10.12c-.71,0-1.29-.58-1.29-1.29s.58-1.29,1.29-1.29,1.29.58,1.29,1.29-.58,1.29-1.29,1.29Z"/>
    <path class="cls-4" d="m38.38,8.55c.16,0,.29.13.29.29s-.13.29-.29.29-.29-.13-.29-.29.13-.29.29-.29m0-2c-1.26,0-2.29,1.02-2.29,2.29s1.02,2.29,2.29,2.29,2.29-1.02,2.29-2.29-1.02-2.29-2.29-2.29h0Z"/>
  </g>
  <g>
    <circle class="cls-4" cx="50.25" cy="61.25" r="1.29"/>
    <path class="cls-4" d="m50.25,60.97c.16,0,.29.13.29.29s-.13.29-.29.29-.29-.13-.29-.29.13-.29.29-.29m0-2c-1.26,0-2.29,1.02-2.29,2.29s1.02,2.29,2.29,2.29,2.29-1.02,2.29-2.29-1.02-2.29-2.29-2.29h0Z"/>
  </g>
  <line class="cls-3" x1="15.39" y1="1.14" x2="101.78" y2="29.29"/>
  <line class="cls-3" x1="99.66" y1="19.18" x2="33.38" y2="76.13"/>
  <path class="cls-1" d="m27.87,33.59c0,.75-.14,1.4-.41,1.94s-.65.96-1.13,1.25c-.48.29-1.02.44-1.63.44s-1.16-.15-1.64-.44-.86-.71-1.13-1.25c-.28-.54-.41-1.19-.41-1.94s.14-1.4.41-1.94c.28-.54.65-.96,1.13-1.25s1.03-.44,1.64-.44,1.15.15,1.63.44c.48.29.86.71,1.13,1.25.28.54.41,1.19.41,1.94Zm-1.06,0c0-.58-.09-1.06-.28-1.45-.19-.39-.44-.69-.76-.9-.32-.2-.68-.31-1.09-.31s-.77.1-1.09.31c-.32.2-.57.5-.76.9-.19.39-.28.88-.28,1.45s.09,1.06.28,1.45c.18.39.44.69.76.9.32.2.68.31,1.09.31s.77-.1,1.09-.31c.32-.2.57-.5.76-.9.18-.39.28-.88.28-1.45Z"/>
  <polyline class="cls-3" points="38.49 8.67 31.09 38.08 103.85 23.48"/>
  <line class="cls-3" x1="31.09" y1="38.08" x2="50.49" y2="61.42"/>
  <polyline class="cls-3" points="43.45 10.29 42.43 14.64 37.26 13.13"/>
  <polyline class="cls-3" points="47.6 57.94 51.21 54.74 54.08 58.34"/>
  <line class="cls-3" x1="71.15" y1="16.62" x2="69.63" y2="21.51"/>
  <line class="cls-3" x1="71.97" y1="46.35" x2="68.81" y2="42.3"/>
  <path class="cls-2" d="m81.96,22.83c-1.29,2.79,0,5.04,0,5.04"/>
  <path class="cls-2" d="m79.29,28.41c0,4.1,3.56,5.21,3.56,5.21"/>
</svg>