<?xml version="1.0" encoding="UTF-8"?>
<svg id="Layer_1" data-name="Layer 1" xmlns="http://www.w3.org/2000/svg" viewBox="0 0 99.58 97.11">
  <defs>
    <style>
      .cls-1 {
        fill: #fff;
      }

      .cls-2 {
        fill: #d1ae59;
      }

      .cls-3 {
        fill: none;
        stroke: #d1ae59;
        stroke-miterlimit: 10;
        stroke-width: 2px;
      }
    </style>
  </defs>
  <circle class="cls-3" cx="40.9" cy="48.23" r="37.84"/>
  <circle class="cls-2" cx="9.25" cy="68.83" r="2.03"/>
  <circle class="cls-2" cx="77.21" cy="58.97" r="2.03"/>
  <circle class="cls-2" cx="51.54" cy="12.01" r="2.03"/>
  <circle class="cls-2" cx="61.69" cy="79.85" r="2.03"/>
  <path class="cls-1" d="m82.63,59.89v-7.95h2.91c.56,0,1.03.09,1.4.28.37.18.65.43.83.75s.28.67.28,1.06c0,.33-.06.61-.18.84-.12.23-.28.41-.49.54-.2.14-.43.23-.67.3v.08c.26.01.52.1.77.25.25.16.46.38.63.67.17.29.25.64.25,1.05s-.1.77-.29,1.09c-.19.32-.48.58-.88.77-.4.19-.9.28-1.52.28h-3.05Zm1.2-4.51h1.61c.27,0,.51-.05.73-.16.22-.1.39-.25.52-.44.13-.19.19-.41.19-.67,0-.33-.12-.6-.35-.83s-.58-.33-1.06-.33h-1.64v2.42Zm0,3.48h1.73c.58,0,.99-.11,1.24-.33.25-.22.37-.5.37-.83,0-.25-.06-.48-.19-.69s-.31-.38-.54-.5-.51-.19-.83-.19h-1.77v2.55Z"/>
  <path class="cls-1" d="m63.39,93.65h-2.57v-7.95h2.66c.78,0,1.45.16,2.01.48.56.32.99.77,1.29,1.36.3.59.45,1.3.45,2.13s-.15,1.54-.45,2.14-.74,1.05-1.31,1.37c-.57.32-1.26.48-2.07.48Zm-1.38-1.05h1.31c.61,0,1.11-.11,1.51-.34.4-.23.7-.56.9-1s.3-.97.3-1.6-.1-1.15-.3-1.59c-.2-.43-.49-.76-.88-.99-.39-.23-.88-.34-1.46-.34h-1.38v5.86Z"/>
  <path class="cls-1" d="m59.94,3.93h-1.21c-.05-.26-.13-.49-.26-.68s-.28-.36-.47-.5-.39-.24-.62-.31c-.23-.07-.47-.1-.72-.1-.46,0-.87.12-1.23.35s-.65.57-.85,1.01c-.21.45-.31.99-.31,1.63s.1,1.19.31,1.64c.21.45.49.78.86,1.01.36.23.77.34,1.22.34.25,0,.49-.03.72-.1.23-.07.43-.17.62-.3.18-.13.34-.3.47-.5.13-.2.22-.42.27-.67h1.21c-.07.4-.19.75-.38,1.08-.19.33-.42.61-.71.85-.29.24-.62.42-.99.55s-.77.19-1.21.19c-.69,0-1.3-.16-1.84-.49-.54-.33-.96-.8-1.27-1.41-.31-.61-.46-1.34-.46-2.19s.16-1.58.47-2.19c.31-.61.74-1.08,1.27-1.41s1.15-.49,1.84-.49c.42,0,.82.06,1.18.18.37.12.7.3.99.53.29.23.54.51.73.85.19.33.32.71.39,1.14Z"/>
  <path class="cls-1" d="m3.94,81.88v-7.95h4.99v1.03h-3.79v2.42h3.53v1.03h-3.53v2.43h3.83v1.03H3.94Z"/>
  <path class="cls-1" d="m93.75,96.89h-1.27l2.86-7.95h1.39l2.86,7.95h-1.27l-2.25-6.51h-.06l-2.25,6.51Zm.21-3.11h4.13v1.01h-4.13v-1.01Z"/>
  <polyline class="cls-3" points=".35 66.92 92.2 86.07 47.63 4.21"/>
  <circle class="cls-2" cx="40.9" cy="48.23" r="2.03"/>
  <path class="cls-1" d="m45.52,48.1h1.46l2.53,6.18h.09l2.53-6.18h1.46v7.95h-1.14v-5.76h-.07l-2.35,5.74h-.95l-2.35-5.75h-.07v5.76h-1.14v-7.95Z"/>
</svg>