<?xml version="1.0" encoding="UTF-8"?>
<svg id="Layer_1" data-name="Layer 1" xmlns="http://www.w3.org/2000/svg" viewBox="0 0 96.87 97.11">
  <defs>
    <style>
      .cls-1 {
        fill: #fff;
      }

      .cls-2 {
        fill: #d1ae59;
      }

      .cls-3 {
        fill: none;
        stroke: #d1ae59;
        stroke-miterlimit: 10;
        stroke-width: 2px;
      }
    </style>
  </defs>
  <path class="cls-1" d="m59.29,42.66c0,.93-.17,1.73-.51,2.4s-.81,1.18-1.4,1.54c-.59.36-1.27.54-2.02.54s-1.43-.18-2.02-.54c-.59-.36-1.06-.87-1.4-1.54-.34-.67-.51-1.47-.51-2.4s.17-1.73.51-2.4c.34-.67.81-1.18,1.4-1.54.59-.36,1.27-.54,2.02-.54s1.43.18,2.02.54c.59.36,1.06.87,1.4,1.54.34.67.51,1.47.51,2.4Zm-1.3,0c0-.71-.11-1.31-.34-1.8s-.54-.86-.94-1.11-.84-.38-1.34-.38-.95.13-1.35.38c-.4.25-.71.62-.94,1.11s-.34,1.09-.34,1.8.12,1.31.34,1.8.54.86.94,1.11c.39.25.84.38,1.35.38s.95-.13,1.34-.38.71-.62.94-1.11.34-1.09.34-1.8Z"/>
  <circle class="cls-3" cx="48.38" cy="48.64" r="47.16"/>
  <circle class="cls-3" cx="48.38" cy="48.64" r="31.1"/>
  <circle class="cls-2" cx="48.38" cy="48.64" r="1.62"/>
</svg>