<?xml version="1.0" encoding="UTF-8"?>
<svg id="Layer_1" data-name="Layer 1" xmlns="http://www.w3.org/2000/svg" viewBox="0 0 75.72 77">
  <defs>
    <style>
      .cls-1 {
        fill: #fff;
      }

      .cls-2 {
        fill: #d1ae59;
      }

      .cls-3 {
        fill: none;
        stroke: #d1ae59;
        stroke-miterlimit: 10;
        stroke-width: 2px;
      }
    </style>
  </defs>
  <path class="cls-2" d="m37.86,2.03c19.77,0,35.86,16.09,35.86,35.86s-16.09,35.86-35.86,35.86S2,57.66,2,37.89,18.09,2.03,37.86,2.03m0-2C16.95.03,0,16.98,0,37.89s16.95,37.86,37.86,37.86,37.86-16.95,37.86-37.86S58.77.03,37.86.03h0Z"/>
  <path class="cls-2" d="m37.89,37.52c.18,0,.33.15.33.33s-.15.33-.33.33-.33-.15-.33-.33.15-.33.33-.33m0-2c-1.29,0-2.33,1.05-2.33,2.33s1.05,2.33,2.33,2.33,2.33-1.05,2.33-2.33-1.05-2.33-2.33-2.33h0Z"/>
  <path class="cls-2" d="m38.61,74.33c.18,0,.33.15.33.33s-.15.33-.33.33-.33-.15-.33-.33.15-.33.33-.33m0-2c-1.29,0-2.33,1.05-2.33,2.33s1.05,2.33,2.33,2.33,2.33-1.05,2.33-2.33-1.05-2.33-2.33-2.33h0Z"/>
  <path class="cls-2" d="m70.43,21.25c.18,0,.33.15.33.33s-.15.33-.33.33-.33-.15-.33-.33.15-.33.33-.33m0-2c-1.29,0-2.33,1.05-2.33,2.33s1.05,2.33,2.33,2.33,2.33-1.05,2.33-2.33-1.05-2.33-2.33-2.33h0Z"/>
  <polyline class="cls-3" points="70.95 20.68 54.52 47.88 38.09 75.08"/>
  <line class="cls-3" x1="54.53" y1="47.97" x2="6.18" y2="19.36"/>
  <path class="cls-1" d="m46.28,30.21c0,.92-.17,1.71-.5,2.37-.34.66-.8,1.17-1.38,1.52-.58.35-1.25.53-1.99.53s-1.41-.18-1.99-.53c-.58-.35-1.04-.86-1.38-1.52s-.5-1.45-.5-2.37.17-1.71.5-2.37c.34-.66.8-1.17,1.38-1.52.58-.35,1.25-.53,1.99-.53s1.41.18,1.99.53c.58.35,1.04.86,1.38,1.52.34.66.5,1.45.5,2.37Zm-1.29,0c0-.7-.11-1.29-.34-1.77s-.53-.84-.92-1.09c-.39-.25-.83-.37-1.33-.37s-.94.12-1.33.37c-.39.25-.7.61-.92,1.09s-.34,1.07-.34,1.77.11,1.29.34,1.77c.23.48.53.84.92,1.09.39.25.83.37,1.33.37s.93-.12,1.33-.37c.39-.25.7-.61.92-1.09.23-.48.34-1.07.34-1.77Z"/>
  <polyline class="cls-3" points="50.35 45.43 48.1 49.25 51.99 51.62"/>
  <line class="cls-3" x1="43.88" y1="60.25" x2="48.67" y2="63.44"/>
  <line class="cls-3" x1="60.12" y1="33.03" x2="64.9" y2="36.22"/>
</svg>