<?xml version="1.0" encoding="UTF-8"?>
<svg xmlns="http://www.w3.org/2000/svg" viewBox="0 0 95.91 97.11">
  <defs>
    <style>
      .cls-1 {
        fill: #fff;
      }

      .cls-2 {
        fill: #d1ae59;
      }

      .cls-3 {
        stroke: #d1ae59;
      }

      .cls-3, .cls-4 {
        fill: none;
        stroke-miterlimit: 10;
        stroke-width: 2px;
      }

      .cls-4 {
        stroke: #c75c5c;
      }
    </style>
  </defs>
  <g id="Layer_1" data-name="Layer 1">
    <circle class="cls-2" cx="43.09" cy="43.07" r="2.25"/>
    <circle class="cls-2" cx="59.56" cy="54.43" r="2.25"/>
    <path class="cls-1" d="m89.55,49.82v-8.83h3.23c.63,0,1.15.1,1.56.31.41.21.72.48.92.83s.31.74.31,1.18c0,.37-.07.68-.2.93-.14.25-.32.45-.54.6-.23.15-.47.26-.74.33v.09c.29.01.58.11.86.28s.51.42.7.74.28.71.28,1.17-.11.86-.32,1.21c-.21.36-.54.64-.98.85-.44.21-1,.31-1.69.31h-3.39Zm1.33-5.01h1.79c.3,0,.57-.06.81-.17.24-.11.43-.28.57-.48.14-.21.21-.46.21-.74,0-.37-.13-.67-.38-.92-.26-.25-.65-.37-1.18-.37h-1.82v2.69Zm0,3.87h1.92c.64,0,1.1-.12,1.37-.37.28-.25.41-.56.41-.93,0-.28-.07-.53-.21-.77-.14-.23-.34-.42-.6-.56-.26-.14-.57-.21-.92-.21h-1.97v2.83Z"/>
    <path class="cls-1" d="m76.76,9.7h-2.86V.87h2.95c.87,0,1.61.18,2.23.53.62.35,1.1.86,1.43,1.51s.5,1.44.5,2.36-.17,1.71-.5,2.37-.82,1.17-1.45,1.52c-.63.36-1.4.53-2.29.53Zm-1.53-1.17h1.45c.67,0,1.23-.13,1.68-.38.45-.25.78-.62,1-1.11.22-.48.33-1.08.33-1.77s-.11-1.28-.33-1.76c-.22-.48-.55-.85-.98-1.1s-.97-.38-1.62-.38h-1.54v6.5Z"/>
    <path class="cls-1" d="m56.96,90.94h-1.35c-.05-.29-.15-.54-.29-.76-.14-.22-.31-.4-.52-.56-.21-.15-.43-.27-.68-.34-.25-.08-.52-.12-.8-.12-.51,0-.96.13-1.37.38-.4.26-.72.63-.95,1.12-.23.5-.35,1.1-.35,1.81s.12,1.33.35,1.82c.23.5.55.87.95,1.12.4.25.86.38,1.36.38.28,0,.54-.04.8-.11.25-.08.48-.19.68-.34.2-.15.38-.33.52-.55.14-.22.24-.47.29-.75h1.35c-.07.44-.21.84-.42,1.2-.21.36-.47.68-.79.94-.32.26-.69.47-1.1.61s-.86.22-1.35.22c-.76,0-1.45-.18-2.04-.55-.6-.36-1.07-.88-1.41-1.56s-.52-1.49-.52-2.43.17-1.75.52-2.43c.35-.68.82-1.2,1.42-1.56.6-.36,1.28-.55,2.04-.55.47,0,.91.07,1.31.2.41.13.77.33,1.1.59.33.26.59.57.81.94s.36.79.43,1.27Z"/>
    <path class="cls-1" d="m48.19,42.93h1.62l2.81,6.87h.1l2.81-6.87h1.62v8.83h-1.27v-6.39h-.08l-2.61,6.38h-1.05l-2.61-6.38h-.08v6.4h-1.27v-8.83Z"/>
    <path class="cls-1" d="m4.34,79.28h-1.42l3.18-8.83h1.54l3.18,8.83h-1.42l-2.5-7.23h-.07l-2.5,7.23Zm.24-3.46h4.59v1.12h-4.59v-1.12Z"/>
  </g>
  <g id="Layer_2" data-name="Layer 2">
    <circle class="cls-4" cx="43.09" cy="43.07" r="42.03"/>
    <path class="cls-3" d="m12.48,71.44l72.58-26.21c-.98,19.34-15.03,35.22-33.49,39.01h0S71.52,12.28,71.52,12.28l.04-.13c-7.49-6.9-17.49-11.11-28.47-11.11C19.88,1.04,1.06,19.86,1.06,43.07c0,10.99,4.22,20.99,11.12,28.48l.3-.11Z"/>
    <path class="cls-3" d="m62.21,45.87c4.81.51,5.94,5.46,5.94,5.46"/>
    <path class="cls-1" d="m70.33,45.46c-.55,0-1.02-.15-1.44-.44-.41-.29-.73-.69-.96-1.2-.23-.51-.34-1.1-.34-1.76s.12-1.24.36-1.75c.24-.5.57-.9,1-1.18.42-.29.9-.43,1.44-.43.38,0,.72.07,1.01.22.29.14.54.34.74.6.21.25.38.55.51.89h.44l.25,1.64.83,3.29h-1.09l-.78-3.29c-.04-.21-.11-.44-.19-.7-.08-.26-.2-.5-.34-.74-.14-.24-.31-.43-.53-.58-.21-.15-.47-.23-.76-.23-.33,0-.61.1-.86.29-.25.2-.44.46-.58.81-.14.34-.2.74-.2,1.18s.07.83.2,1.18.32.62.55.83c.24.2.51.3.83.3.29,0,.54-.08.75-.23s.4-.35.55-.6c.15-.24.27-.49.37-.76.1-.26.17-.5.21-.71l.7-3.29h1.09l-.75,3.29-.25,1.66h-.41c-.14.34-.31.64-.53.9s-.47.47-.78.62-.65.22-1.05.22Z"/>
  </g>
</svg>