<?xml version="1.0" encoding="UTF-8"?>
<svg id="Layer_1" data-name="Layer 1" xmlns="http://www.w3.org/2000/svg" viewBox="0 0 150.25 150.5">
  <defs>
    <style>
      .cls-1 {
        isolation: isolate;
        opacity: .3;
        stroke: #bdccd4;
        stroke-width: .5px;
      }

      .cls-1, .cls-2, .cls-3, .cls-4 {
        fill: none;
        stroke-miterlimit: 10;
      }

      .cls-5 {
        fill: #fff;
      }

      .cls-2, .cls-3 {
        stroke: #fff;
      }

      .cls-3, .cls-4 {
        stroke-width: 2px;
      }

      .cls-4 {
        stroke: #d1ae59;
      }
    </style>
  </defs>
  <path class="cls-4" d="m82.82,81.19c5.26,3.24,3.14,9.06,3.14,9.06"/>
  <g id="Layer_1-2" data-name="Layer 1">
    <rect class="cls-1" x=".25" y=".25" width="149.75" height="150"/>
    <line class="cls-1" x1="70" y1=".25" x2="70" y2="150.25"/>
    <line class="cls-1" x1="60" y1=".25" x2="60" y2="150.25"/>
    <line class="cls-1" x1="50" y1=".25" x2="50" y2="150.25"/>
    <line class="cls-1" x1="40" y1=".25" x2="40" y2="150.25"/>
    <line class="cls-1" x1="30" y1=".25" x2="30" y2="150.25"/>
    <line class="cls-1" x1="20" y1=".25" x2="20" y2="150.25"/>
    <line class="cls-1" x1="10" y1=".25" x2="10" y2="150.25"/>
    <line class="cls-1" x1="150" y1="80.25" x2=".5" y2="80.25"/>
    <line class="cls-1" x1="150" y1="90.25" x2=".5" y2="90.25"/>
    <line class="cls-1" x1="150" y1="100.25" x2=".5" y2="100.25"/>
    <line class="cls-1" x1="150" y1="110.25" x2=".5" y2="110.25"/>
    <line class="cls-1" x1="150" y1="120.25" x2=".5" y2="120.25"/>
    <line class="cls-1" x1="150" y1="130.25" x2=".5" y2="130.25"/>
    <line class="cls-1" x1="150" y1="140.25" x2=".5" y2="140.25"/>
    <line class="cls-1" x1="150" y1="70.25" x2=".5" y2="70.25"/>
    <line class="cls-1" x1="150" y1="60.25" x2=".5" y2="60.25"/>
    <line class="cls-1" x1="150" y1="50.25" x2=".5" y2="50.25"/>
    <line class="cls-1" x1="150" y1="40.25" x2=".5" y2="40.25"/>
    <line class="cls-1" x1="150" y1="30.25" x2=".5" y2="30.25"/>
    <line class="cls-1" x1="150" y1="20.25" x2=".5" y2="20.25"/>
    <line class="cls-1" x1="150" y1="10.25" x2=".5" y2="10.25"/>
    <line class="cls-1" x1="80" y1=".25" x2="80" y2="150.25"/>
    <line class="cls-1" x1="90" y1=".25" x2="90" y2="150.25"/>
    <line class="cls-1" x1="100" y1=".25" x2="100" y2="150.25"/>
    <line class="cls-1" x1="110" y1=".25" x2="110" y2="150.25"/>
    <line class="cls-1" x1="120" y1=".25" x2="120" y2="150.25"/>
    <line class="cls-1" x1="130" y1=".25" x2="130" y2="150.25"/>
    <line class="cls-1" x1="140" y1=".25" x2="140" y2="150.25"/>
  </g>
  <line class="cls-4" x1="140" y1="43.33" x2="10" y2="130.25"/>
  <path class="cls-4" d="m38.51,81.19c5.26,3.24,3.14,9.06,3.14,9.06"/>
  <polygon class="cls-5" points="70 4.03 66.41 10.25 73.59 10.25 70 4.03"/>
  <polygon class="cls-5" points="146.22 90.25 140 86.66 140 93.84 146.22 90.25"/>
  <line class="cls-3" x1="10" y1="90.25" x2="140" y2="90.25"/>
  <line class="cls-3" x1="70" y1="10.25" x2="70" y2="140.25"/>
  <line class="cls-2" x1="80" y1="87.04" x2="80" y2="93.46"/>
  <line class="cls-2" x1="66.79" y1="80.25" x2="73.21" y2="80.25"/>
  <path class="cls-5" d="m136.91,100.12l2.05,3.61,2.06-3.61h1.97l-2.89,4.64,2.92,4.64h-1.97l-2.09-3.46-2.08,3.46h-1.98l2.89-4.64-2.85-4.64h1.98,0Z"/>
  <path class="cls-5" d="m51.48,21.25c-.27,0-.52-.02-.74-.06-.22-.04-.39-.09-.49-.14l.43-1.48c.33.09.62.13.88.11.26-.01.49-.11.69-.29s.38-.48.53-.89l.22-.62-3.39-9.39h1.93l2.35,7.2h.1l2.35-7.2h1.94l-3.82,10.51c-.18.48-.4.89-.68,1.23-.27.34-.6.59-.98.76s-.82.25-1.32.25h0Z"/>
  <path class="cls-5" d="m81.13,97.03v12.36h-1.87v-10.49h-.07l-2.96,1.93v-1.79l3.08-2.02h1.82Z"/>
  <path class="cls-5" d="m64.36,74.29v12.36h-1.87v-10.49h-.07l-2.96,1.93v-1.79l3.08-2.02h1.82Z"/>
  <line class="cls-4" x1="140" y1="13.33" x2="10" y2="100.25"/>
  <path class="cls-5" d="m47.83,87.18c-.55,0-1.02-.15-1.44-.44-.41-.29-.73-.69-.96-1.2-.23-.51-.34-1.1-.34-1.76s.12-1.24.36-1.75c.24-.5.57-.9,1-1.18.42-.29.9-.43,1.44-.43.38,0,.72.07,1.01.22.29.14.54.34.74.6.21.25.38.55.51.89h.44l.25,1.64.83,3.29h-1.09l-.78-3.29c-.04-.21-.11-.44-.19-.7-.08-.26-.2-.5-.34-.74-.14-.24-.31-.43-.53-.58-.21-.15-.47-.23-.76-.23-.33,0-.61.1-.86.29-.25.2-.44.46-.58.81-.14.34-.2.74-.2,1.18s.07.83.2,1.18.32.62.55.83c.24.2.51.3.83.3.29,0,.54-.08.75-.23s.4-.35.55-.6c.15-.24.27-.49.37-.76.1-.26.17-.5.21-.71l.7-3.29h1.09l-.75,3.29-.25,1.66h-.41c-.14.34-.31.64-.53.9s-.47.47-.78.62-.65.22-1.05.22Z"/>
  <path class="cls-5" d="m92.49,87.31c-.55,0-1.02-.15-1.44-.44-.41-.29-.73-.69-.96-1.2-.23-.51-.34-1.1-.34-1.76s.12-1.24.36-1.75c.24-.5.57-.9,1-1.18.42-.29.9-.43,1.44-.43.38,0,.72.07,1.01.22.29.14.54.34.74.6.21.25.38.55.51.89h.44l.25,1.64.83,3.29h-1.09l-.78-3.29c-.04-.21-.11-.44-.19-.7-.08-.26-.2-.5-.34-.74-.14-.24-.31-.43-.53-.58-.21-.15-.47-.23-.76-.23-.33,0-.61.1-.86.29-.25.2-.44.46-.58.81-.14.34-.2.74-.2,1.18s.07.83.2,1.18.32.62.55.83c.24.2.51.3.83.3.29,0,.54-.08.75-.23s.4-.35.55-.6c.15-.24.27-.49.37-.76.1-.26.17-.5.21-.71l.7-3.29h1.09l-.75,3.29-.25,1.66h-.41c-.14.34-.31.64-.53.9s-.47.47-.78.62-.65.22-1.05.22Z"/>
</svg>