<?xml version="1.0" encoding="UTF-8"?>
<svg xmlns="http://www.w3.org/2000/svg" viewBox="0 0 95.17 97.11">
  <defs>
    <style>
      .cls-1 {
        fill: #fff;
      }

      .cls-2 {
        fill: #d1ae59;
      }

      .cls-3 {
        stroke: #d1ae59;
      }

      .cls-3, .cls-4 {
        fill: none;
        stroke-miterlimit: 10;
        stroke-width: 2px;
      }

      .cls-4 {
        stroke: #c75c5c;
      }
    </style>
  </defs>
  <g id="Layer_1" data-name="Layer 1">
    <circle class="cls-2" cx="43.12" cy="43.24" r="2.24"/>
    <path class="cls-1" d="m89.09,40.99v-8.43h3.09c.6,0,1.09.1,1.49.29.39.2.69.46.88.79.2.33.29.71.29,1.12,0,.35-.06.65-.19.89s-.3.43-.52.58c-.22.14-.45.25-.71.31v.08c.28.01.55.1.82.27s.49.4.67.71c.17.3.26.67.26,1.11s-.1.82-.3,1.16c-.2.34-.51.61-.93.81-.42.2-.96.3-1.61.3h-3.23Zm1.27-4.78h1.7c.29,0,.54-.05.77-.16.23-.11.41-.26.55-.46s.2-.43.2-.71c0-.35-.12-.64-.37-.88-.24-.24-.62-.35-1.12-.35h-1.74v2.56Zm0,3.69h1.83c.61,0,1.04-.12,1.31-.35.26-.24.39-.53.39-.88,0-.27-.07-.51-.2-.73-.13-.22-.33-.4-.57-.53s-.54-.2-.88-.2h-1.88v2.7Z"/>
    <path class="cls-1" d="m38.8,97.11h-1.35l3.03-8.43h1.47l3.03,8.43h-1.35l-2.38-6.9h-.07l-2.39,6.9Zm.23-3.3h4.38v1.07h-4.38v-1.07Z"/>
  </g>
  <g id="Layer_2" data-name="Layer 2">
    <circle class="cls-4" cx="43.12" cy="43.24" r="41.89"/>
    <line class="cls-3" x1="1.28" y1="85.12" x2="95.16" y2="85.12"/>
    <path class="cls-3" d="m41.92,85.11C19.34,84.48,1.22,65.97,1.22,43.24S19.98,1.34,43.12,1.34c21.48,0,39.18,16.16,41.61,36.98l-.46.5-42.35,46.31"/>
    <path class="cls-3" d="m51.11,75.08c4.72,4.59,3.66,10.05,3.66,10.05"/>
    <path class="cls-1" d="m60.22,80.24c-.55,0-1.02-.15-1.44-.44-.41-.29-.73-.69-.96-1.2-.23-.51-.34-1.1-.34-1.76s.12-1.24.36-1.75c.24-.5.57-.9,1-1.18.42-.29.9-.43,1.44-.43.38,0,.72.07,1.01.22.29.14.54.34.74.6.21.25.38.55.51.89h.44l.25,1.64.83,3.29h-1.09l-.78-3.29c-.04-.21-.11-.44-.19-.7-.08-.26-.2-.5-.34-.74-.14-.24-.31-.43-.53-.58-.21-.15-.47-.23-.76-.23-.33,0-.61.1-.86.29-.25.2-.44.46-.58.81-.14.34-.2.74-.2,1.18s.07.83.2,1.18.32.62.55.83c.24.2.51.3.83.3.29,0,.54-.08.75-.23s.4-.35.55-.6c.15-.24.27-.49.37-.76.1-.26.17-.5.21-.71l.7-3.29h1.09l-.75,3.29-.25,1.66h-.41c-.14.34-.31.64-.53.9s-.47.47-.78.62-.65.22-1.05.22Z"/>
  </g>
</svg>