<?xml version="1.0" encoding="UTF-8"?>
<svg xmlns="http://www.w3.org/2000/svg" viewBox="0 0 113.81 97.11">
  <defs>
    <style>
      .cls-1 {
        fill: #fff;
      }

      .cls-2 {
        fill: #d1ae59;
      }

      .cls-3 {
        stroke: #d1ae59;
      }

      .cls-3, .cls-4 {
        fill: none;
        stroke-miterlimit: 10;
        stroke-width: 2px;
      }

      .cls-4 {
        stroke: #c75c5c;
      }
    </style>
  </defs>
  <g id="Layer_1" data-name="Layer 1">
    <circle class="cls-2" cx="71.35" cy="42.57" r="2.21"/>
    <path class="cls-1" d="m25.31,67.25v-8.29h3.04c.59,0,1.08.1,1.46.29.39.19.67.45.87.78.19.33.29.7.29,1.11,0,.35-.06.64-.19.87s-.3.43-.51.57-.44.25-.7.31v.08c.28.01.54.1.81.27.26.16.48.39.65.69.17.3.26.66.26,1.09s-.1.8-.3,1.14c-.2.34-.5.6-.92.8-.41.2-.94.29-1.58.29h-3.18Zm1.25-4.71h1.68c.28,0,.53-.05.76-.16.23-.11.41-.26.54-.46.13-.2.2-.43.2-.69,0-.34-.12-.63-.36-.86s-.61-.35-1.11-.35h-1.71v2.52Zm0,3.63h1.81c.6,0,1.03-.12,1.29-.35.26-.23.39-.52.39-.87,0-.26-.07-.5-.2-.72-.13-.22-.32-.39-.56-.52-.25-.13-.53-.19-.87-.19h-1.85v2.66Z"/>
    <path class="cls-1" d="m11.67,79.38h-1.33l2.98-8.29h1.45l2.98,8.29h-1.33l-2.34-6.79h-.07l-2.35,6.79Zm.22-3.25h4.31v1.05h-4.31v-1.05Z"/>
    <path class="cls-1" d="m74.86,91.24h-1.32c-.05-.28-.15-.53-.28-.75-.14-.21-.31-.4-.51-.55-.2-.15-.42-.26-.67-.34-.25-.08-.51-.12-.79-.12-.5,0-.95.13-1.34.38s-.71.62-.93,1.11c-.23.49-.34,1.08-.34,1.78s.11,1.3.34,1.79c.23.49.54.85.94,1.1s.84.37,1.34.37c.28,0,.54-.04.78-.11.25-.08.47-.19.67-.33.2-.15.37-.33.51-.54.14-.21.24-.46.29-.74h1.32c-.07.43-.21.82-.41,1.18-.2.36-.46.67-.78.92s-.68.46-1.08.6-.85.21-1.32.21c-.75,0-1.42-.18-2.01-.54-.59-.36-1.05-.87-1.39-1.54-.34-.67-.51-1.46-.51-2.39s.17-1.73.51-2.39c.34-.67.8-1.18,1.39-1.54.59-.36,1.26-.54,2.01-.54.46,0,.89.07,1.29.2s.76.32,1.08.58c.32.25.58.56.79.93.21.36.35.78.42,1.25Z"/>
    <path class="cls-1" d="m107.56,12.89h-2.81V4.19h2.9c.85,0,1.58.17,2.2.52s1.08.84,1.41,1.49c.33.65.49,1.42.49,2.32s-.17,1.68-.49,2.33c-.33.65-.81,1.15-1.43,1.5-.62.35-1.38.52-2.26.52Zm-1.5-1.15h1.43c.66,0,1.21-.12,1.65-.38.44-.25.77-.61.99-1.09.22-.48.33-1.06.33-1.75s-.11-1.26-.32-1.74-.54-.84-.97-1.08-.96-.37-1.59-.37h-1.51v6.4Z"/>
  </g>
  <g id="Layer_2" data-name="Layer 2">
    <circle class="cls-4" cx="71.35" cy="42.57" r="41.23"/>
    <line class="cls-3" y1="83.8" x2="112.58" y2="83.8"/>
    <line class="cls-3" x1="103.12" y1="1.34" x2="6.51" y2="94.31"/>
    <path class="cls-3" d="m28.49,73.16c5.36,3.63,4.3,10.65,4.3,10.65"/>
    <path class="cls-3" d="m36.83,65.14c-4.25-6.48-6.71-14.23-6.71-22.56C30.11,19.8,48.57,1.34,71.35,1.34c8.9,0,17.13,2.82,23.87,7.61"/>
    <circle class="cls-2" cx="71.35" cy="83.81" r="2.21"/>
    <circle class="cls-2" cx="36.83" cy="65.14" r="2.21"/>
    <circle class="cls-2" cx="95.22" cy="9.05" r="2.21"/>
    <path class="cls-1" d="m37.94,79.52c-.55,0-1.02-.15-1.44-.44-.41-.29-.73-.69-.96-1.2-.23-.51-.34-1.1-.34-1.76s.12-1.24.36-1.75c.24-.5.57-.9,1-1.18.42-.29.9-.43,1.44-.43.38,0,.72.07,1.01.22.29.14.54.34.74.6.21.25.38.55.51.89h.44l.25,1.64.83,3.29h-1.09l-.78-3.29c-.04-.21-.11-.44-.19-.7-.08-.26-.2-.5-.34-.74-.14-.24-.31-.43-.53-.58-.21-.15-.47-.23-.76-.23-.33,0-.61.1-.86.29-.25.2-.44.46-.58.81-.14.34-.2.74-.2,1.18s.07.83.2,1.18.32.62.55.83c.24.2.51.3.83.3.29,0,.54-.08.75-.23s.4-.35.55-.6c.15-.24.27-.49.37-.76.1-.26.17-.5.21-.71l.7-3.29h1.09l-.75,3.29-.25,1.66h-.41c-.14.34-.31.64-.53.9s-.47.47-.78.62-.65.22-1.05.22Z"/>
  </g>
</svg>