<?xml version="1.0" encoding="UTF-8"?>
<svg id="Layer_1" data-name="Layer 1" xmlns="http://www.w3.org/2000/svg" viewBox="0 0 68.08 62">
  <defs>
    <style>
      .cls-1 {
        fill: #fff;
      }

      .cls-2 {
        fill: none;
        stroke: #d1ae59;
        stroke-miterlimit: 10;
        stroke-width: 2px;
      }
    </style>
  </defs>
  <path class="cls-1" d="m12.1,61.49h-1.29l2.89-8.03h1.4l2.89,8.03h-1.29l-2.27-6.57h-.06l-2.27,6.57Zm.22-3.14h4.17v1.02h-4.17v-1.02Z"/>
  <path class="cls-1" d="m17.47,9.95V1.22h3.2c.62,0,1.13.1,1.54.3.41.2.71.48.91.82.2.35.3.73.3,1.17,0,.36-.07.67-.2.92s-.31.45-.53.6c-.22.15-.47.26-.74.33v.08c.29.01.57.11.85.28s.51.42.69.73c.18.32.27.7.27,1.15s-.1.85-.31,1.2-.53.63-.97.84c-.43.21-.99.31-1.67.31,0,0-3.34,0-3.34,0Zm1.32-4.95h1.76c.29,0,.56-.06.8-.17s.43-.27.57-.48.21-.45.21-.73c0-.36-.13-.66-.38-.91s-.64-.37-1.16-.37h-1.8v2.65h0Zm0,3.82h1.9c.63,0,1.08-.12,1.36-.37.27-.24.41-.55.41-.92,0-.28-.07-.53-.21-.76-.14-.23-.34-.41-.59-.55-.26-.14-.56-.21-.91-.21h-1.95v2.8h-.01Z"/>
  <path class="cls-1" d="m47.21,56.1h-1.22c-.05-.26-.13-.49-.26-.69-.13-.2-.29-.37-.47-.51-.19-.14-.39-.24-.62-.31s-.47-.11-.73-.11c-.46,0-.88.12-1.24.35s-.65.57-.86,1.02-.32,1-.32,1.65.11,1.2.32,1.65.5.79.86,1.02c.37.23.78.34,1.23.34.25,0,.49-.04.72-.1.23-.07.44-.17.62-.31.18-.14.34-.3.47-.5s.22-.42.27-.68h1.22c-.07.4-.19.76-.38,1.09-.19.33-.43.62-.72.85-.29.24-.62.42-1,.55-.37.13-.78.2-1.22.2-.7,0-1.31-.17-1.86-.5-.54-.33-.97-.8-1.28-1.42-.31-.62-.47-1.35-.47-2.21s.16-1.59.47-2.21.74-1.09,1.29-1.42c.54-.33,1.16-.5,1.85-.5.43,0,.82.06,1.19.18s.7.3,1,.53.54.52.73.85.32.72.39,1.15l.02.04Z"/>
  <line class="cls-2" y1="50.93" x2="68.08" y2="50.93"/>
  <polyline class="cls-2" points="14.05 50.93 14.05 11.6 39.6 50.93"/>
  <polyline class="cls-2" points="14.05 45.17 19.63 45.17 19.63 50.93"/>
</svg>