<?xml version="1.0" encoding="UTF-8"?>
<svg xmlns="http://www.w3.org/2000/svg" viewBox="0 0 125.14 97.11">
  <defs>
    <style>
      .cls-1 {
        fill: #fff;
      }

      .cls-2 {
        fill: #d1ae59;
      }

      .cls-3 {
        stroke: #d1ae59;
      }

      .cls-3, .cls-4 {
        fill: none;
        stroke-miterlimit: 10;
        stroke-width: 2px;
      }

      .cls-4 {
        stroke: #c75c5c;
      }
    </style>
  </defs>
  <g id="Layer_1" data-name="Layer 1">
    <path class="cls-1" d="m14.84,96.9v-7.95h4.99v1.03h-3.79v2.42h3.53v1.03h-3.53v2.43h3.83v1.03h-5.03Z"/>
    <circle class="cls-2" cx="41.29" cy="49.54" r="2.15"/>
    <path class="cls-1" d="m82.31,35.16v-8.43h3.09c.6,0,1.09.1,1.49.29.39.2.69.46.88.79.2.33.29.71.29,1.12,0,.35-.06.65-.19.89s-.3.43-.52.58c-.22.14-.45.25-.71.31v.08c.28.01.55.1.82.27s.49.4.67.71c.17.3.26.67.26,1.11s-.1.82-.3,1.16c-.2.34-.51.61-.93.81-.42.2-.96.3-1.61.3h-3.23Zm1.27-4.78h1.7c.29,0,.54-.05.77-.16.23-.11.41-.26.55-.46s.2-.43.2-.71c0-.35-.12-.64-.37-.88-.24-.24-.62-.35-1.12-.35h-1.74v2.56Zm0,3.69h1.83c.61,0,1.04-.12,1.31-.35.26-.24.39-.53.39-.88,0-.27-.07-.51-.2-.73-.13-.22-.33-.4-.57-.53s-.54-.2-.88-.2h-1.88v2.7Z"/>
    <path class="cls-1" d="m22.15,9.45h-2.86V.62h2.95c.87,0,1.61.18,2.23.53.62.35,1.1.86,1.43,1.51s.5,1.44.5,2.36-.17,1.71-.5,2.37-.82,1.17-1.45,1.52c-.63.36-1.4.53-2.29.53Zm-1.53-1.17h1.45c.67,0,1.23-.13,1.68-.38.45-.25.78-.62,1-1.11.22-.48.33-1.08.33-1.77s-.11-1.28-.33-1.76c-.22-.48-.55-.85-.98-1.1s-.97-.38-1.62-.38h-1.54v6.5Z"/>
    <path class="cls-1" d="m86.54,71.43h-1.35c-.05-.29-.15-.54-.29-.76-.14-.22-.31-.4-.52-.56-.21-.15-.43-.27-.68-.34-.25-.08-.52-.12-.8-.12-.51,0-.96.13-1.37.38-.4.26-.72.63-.95,1.12-.23.5-.35,1.1-.35,1.81s.12,1.33.35,1.82c.23.5.55.87.95,1.12.4.25.86.38,1.36.38.28,0,.54-.04.8-.11.25-.08.48-.19.68-.34.2-.15.38-.33.52-.55.14-.22.24-.47.29-.75h1.35c-.07.44-.21.84-.42,1.2-.21.36-.47.68-.79.94-.32.26-.69.47-1.1.61s-.86.22-1.35.22c-.76,0-1.45-.18-2.04-.55-.6-.36-1.07-.88-1.41-1.56s-.52-1.49-.52-2.43.17-1.75.52-2.43c.35-.68.82-1.2,1.42-1.56.6-.36,1.28-.55,2.04-.55.47,0,.91.07,1.31.2.41.13.77.33,1.1.59.33.26.59.57.81.94s.36.79.43,1.27Z"/>
    <path class="cls-1" d="m118.96,47.99h-1.35l3.03-8.43h1.47l3.03,8.43h-1.35l-2.38-6.9h-.07l-2.39,6.9Zm.23-3.3h4.38v1.07h-4.38v-1.07Z"/>
  </g>
  <g id="Layer_2" data-name="Layer 2">
    <circle class="cls-4" cx="41.29" cy="49.54" r="40.09"/>
    <polyline class="cls-3" points="6.11 7.48 117.32 53.94 6.11 85.91"/>
    <path class="cls-3" d="m78.23,65.15c-6.09,14.39-20.33,24.49-36.94,24.49-8.55,0-16.47-2.67-22.97-7.23"/>
    <path class="cls-3" d="m22.18,14.29c5.68-3.09,12.19-4.84,19.11-4.84,18.22,0,33.6,12.16,38.48,28.8"/>
    <path class="cls-1" d="m95.52,55.93c-.55,0-1.02-.15-1.44-.44-.41-.29-.73-.69-.96-1.2-.23-.51-.34-1.1-.34-1.76s.12-1.24.36-1.75c.24-.5.57-.9,1-1.18.42-.29.9-.43,1.44-.43.38,0,.72.07,1.01.22.29.14.54.34.74.6.21.25.38.55.51.89h.44l.25,1.64.83,3.29h-1.09l-.78-3.29c-.04-.21-.11-.44-.19-.7-.08-.26-.2-.5-.34-.74-.14-.24-.31-.43-.53-.58-.21-.15-.47-.23-.76-.23-.33,0-.61.1-.86.29-.25.2-.44.46-.58.81-.14.34-.2.74-.2,1.18s.07.83.2,1.18.32.62.55.83c.24.2.51.3.83.3.29,0,.54-.08.75-.23s.4-.35.55-.6c.15-.24.27-.49.37-.76.1-.26.17-.5.21-.71l.7-3.29h1.09l-.75,3.29-.25,1.66h-.41c-.14.34-.31.64-.53.9s-.47.47-.78.62-.65.22-1.05.22Z"/>
    <path class="cls-3" d="m103.96,48.56c-3.28,4.16-.44,9.35-.44,9.35"/>
  </g>
</svg>