<?xml version="1.0" encoding="UTF-8"?>
<svg id="Layer_2" data-name="Layer 2" xmlns="http://www.w3.org/2000/svg" viewBox="0 0 500 270">
  <defs>
    <style>
      .cls-1, .cls-2 {
        fill: #fff;
      }

      .cls-3 {
        fill: none;
      }

      .cls-3, .cls-4, .cls-2 {
        stroke-miterlimit: 10;
        stroke-width: 2px;
      }

      .cls-3, .cls-2 {
        stroke: #fff;
      }

      .cls-4 {
        stroke: #d1ae59;
      }

      .cls-4, .cls-5 {
        fill: #d1ae59;
      }

      .cls-2 {
        fill-rule: evenodd;
      }
    </style>
  </defs>
  <g>
    <path class="cls-1" d="m221.57,21.54c-.9,0-1.67-.2-2.32-.61-.65-.41-1.14-.97-1.49-1.69-.35-.72-.52-1.55-.52-2.48s.18-1.77.53-2.5.85-1.29,1.5-1.69,1.4-.61,2.28-.61c.7,0,1.33.13,1.88.39.55.26,1,.62,1.34,1.09.34.47.54,1.01.61,1.64h-1.76c-.1-.43-.32-.81-.66-1.12s-.8-.47-1.38-.47c-.5,0-.94.13-1.32.4-.38.26-.67.64-.88,1.12-.21.49-.31,1.06-.31,1.72s.1,1.26.31,1.75c.21.49.5.87.87,1.14.38.27.82.4,1.33.4.34,0,.65-.06.93-.19.28-.13.51-.31.71-.55s.33-.52.4-.86h1.76c-.06.6-.26,1.14-.59,1.61s-.76.84-1.31,1.11c-.55.27-1.18.4-1.92.4Z"/>
    <path class="cls-1" d="m231.64,12.08v1.45h-5.07v-1.45h5.07Zm-3.71-2.22h1.81v8.77c0,.35.05.61.16.79.1.18.24.29.41.36s.35.09.55.09c.14,0,.27-.01.38-.03.11-.02.19-.04.25-.05l.33,1.49c-.1.04-.25.08-.45.12-.19.04-.44.07-.72.07-.48,0-.92-.08-1.33-.25-.41-.18-.74-.45-1-.82-.25-.37-.38-.84-.38-1.39v-9.15Z"/>
    <path class="cls-1" d="m237.52,25.02c-.74,0-1.37-.1-1.9-.29-.53-.19-.96-.45-1.29-.77s-.58-.67-.75-1.04l1.55-.64c.11.18.25.37.44.56.18.2.43.37.75.51.32.14.72.21,1.22.21.68,0,1.25-.17,1.7-.5.45-.33.67-.86.67-1.58v-1.82h-.11c-.11.2-.26.42-.47.66-.2.24-.48.45-.84.63-.35.18-.82.27-1.38.27-.73,0-1.39-.17-1.98-.52-.59-.34-1.05-.85-1.39-1.53-.34-.67-.51-1.5-.51-2.49s.17-1.83.5-2.54c.34-.7.8-1.24,1.38-1.62.59-.38,1.25-.56,2-.56.58,0,1.04.1,1.39.29.35.19.63.41.83.67.2.25.35.48.46.67h.13v-1.5h1.77v9.48c0,.8-.19,1.45-.56,1.96-.37.51-.87.89-1.5,1.13s-1.34.37-2.13.37Zm-.02-5.31c.52,0,.96-.12,1.32-.37.36-.24.63-.59.82-1.05.19-.46.28-1,.28-1.65s-.09-1.17-.28-1.65c-.19-.48-.46-.85-.82-1.11s-.8-.4-1.33-.4-1,.14-1.36.42-.63.66-.82,1.14c-.18.48-.28,1.01-.28,1.61s.09,1.14.28,1.6c.18.46.46.82.82,1.07.36.26.81.39,1.35.39Z"/>
    <path class="cls-1" d="m247.61,21.54c-.77,0-1.45-.22-2.03-.63-.58-.41-1.04-.98-1.36-1.7-.33-.72-.49-1.56-.49-2.5s.17-1.76.51-2.47c.34-.71.81-1.27,1.41-1.68.6-.4,1.28-.61,2.04-.61.54,0,1.02.1,1.43.31.41.2.76.49,1.05.85.29.36.53.78.72,1.26h.63l.36,2.32,1.18,4.66h-1.55l-1.11-4.66c-.06-.3-.15-.63-.27-1-.12-.37-.28-.72-.48-1.05s-.45-.61-.75-.83-.66-.33-1.08-.33c-.46,0-.87.14-1.22.41-.35.28-.62.66-.81,1.14-.19.49-.29,1.05-.29,1.68s.09,1.18.28,1.67c.19.5.45.88.78,1.17.33.28.72.43,1.17.43.41,0,.76-.11,1.07-.33.31-.22.57-.5.78-.85.21-.34.39-.7.52-1.07.13-.37.23-.71.3-1.01l1-4.66h1.54l-1.06,4.66-.36,2.35h-.57c-.19.48-.44.9-.75,1.28-.3.37-.67.66-1.1.87-.43.21-.93.31-1.49.31Z"/>
    <path class="cls-1" d="m260.16,15.41v-1.59h7.73v1.59h-7.73Zm0,3.72v-1.59h7.73v1.59h-7.73Z"/>
    <path class="cls-1" d="m276.83,12.08l2.05,3.61,2.06-3.61h1.97l-2.89,4.64,2.92,4.64h-1.97l-2.09-3.47-2.08,3.47h-1.98l2.89-4.64-2.85-4.64h1.98Z"/>
  </g>
  <g>
    <path class="cls-1" d="m161.01,235.36l2.05,3.61,2.06-3.61h1.97l-2.89,4.64,2.92,4.64h-1.97l-2.09-3.46-2.08,3.46h-1.98l2.89-4.64-2.85-4.64h1.98Z"/>
    <path class="cls-1" d="m174.04,238.69v-1.59h7.73v1.59h-7.73Zm0,3.72v-1.59h7.73v1.59h-7.73Z"/>
    <path class="cls-1" d="m191.98,244.83c-.59,0-1.12-.11-1.59-.33-.48-.22-.85-.54-1.13-.96-.28-.42-.41-.93-.41-1.54,0-.52.1-.95.3-1.29s.47-.61.82-.8.72-.35,1.15-.45c.42-.1.85-.18,1.29-.23.56-.06,1.01-.12,1.35-.16s.6-.11.75-.21c.16-.1.24-.25.24-.47v-.04c0-.53-.15-.94-.44-1.23-.29-.29-.74-.43-1.32-.43s-1.09.13-1.43.4c-.35.27-.59.56-.72.89l-1.7-.39c.2-.56.5-1.02.88-1.37.39-.35.84-.6,1.34-.76.51-.16,1.04-.24,1.6-.24.37,0,.76.04,1.18.13.42.09.81.24,1.17.47s.66.56.9.98.35.97.35,1.65v6.16h-1.76v-1.27h-.07c-.12.23-.29.46-.53.69-.23.22-.53.41-.9.56-.37.15-.8.22-1.32.22Zm.39-1.45c.5,0,.93-.1,1.28-.3s.63-.46.82-.78c.19-.32.28-.66.28-1.03v-1.2c-.06.06-.19.12-.37.18-.18.05-.39.1-.62.14s-.46.07-.68.1c-.22.03-.41.06-.55.08-.35.04-.67.12-.96.22s-.52.25-.69.45c-.17.2-.26.45-.26.78,0,.45.17.78.5,1.01s.75.34,1.26.34Z"/>
    <path class="cls-1" d="m198.96,244.63v-9.27h1.74v1.47h.1c.17-.5.47-.89.9-1.18.43-.29.92-.43,1.46-.43.11,0,.25,0,.4.01.16,0,.28.02.37.03v1.73c-.07-.02-.2-.04-.39-.07-.19-.03-.37-.04-.56-.04-.43,0-.81.09-1.14.27-.33.18-.59.43-.79.74-.19.32-.29.67-.29,1.08v5.66h-1.8Z"/>
    <path class="cls-1" d="m209.4,244.82c-.9,0-1.67-.2-2.32-.61-.65-.41-1.14-.97-1.49-1.69-.35-.72-.52-1.54-.52-2.47s.18-1.77.53-2.5c.35-.72.85-1.29,1.5-1.69.64-.41,1.4-.61,2.28-.61.71,0,1.33.13,1.88.39s1,.62,1.34,1.09c.34.47.54,1.01.61,1.64h-1.76c-.1-.43-.32-.81-.66-1.12-.34-.31-.8-.47-1.38-.47-.5,0-.94.13-1.32.4-.38.26-.67.64-.88,1.12-.21.48-.31,1.06-.31,1.72s.1,1.26.31,1.75.5.87.87,1.14c.38.27.82.41,1.33.41.34,0,.65-.06.93-.19.28-.13.52-.31.71-.55.19-.24.32-.52.4-.86h1.76c-.06.6-.26,1.13-.59,1.61s-.76.84-1.31,1.11c-.55.27-1.18.41-1.92.41Z"/>
    <path class="cls-1" d="m219.05,244.82c-.9,0-1.67-.2-2.32-.61-.65-.41-1.14-.97-1.49-1.69-.35-.72-.52-1.54-.52-2.47s.18-1.77.53-2.5c.35-.72.85-1.29,1.5-1.69.64-.41,1.4-.61,2.28-.61.71,0,1.33.13,1.88.39s1,.62,1.34,1.09c.34.47.54,1.01.61,1.64h-1.76c-.1-.43-.32-.81-.66-1.12-.34-.31-.8-.47-1.38-.47-.5,0-.94.13-1.32.4-.38.26-.67.64-.88,1.12-.21.48-.31,1.06-.31,1.72s.1,1.26.31,1.75.5.87.87,1.14c.38.27.82.41,1.33.41.34,0,.65-.06.93-.19.28-.13.52-.31.71-.55.19-.24.32-.52.4-.86h1.76c-.06.6-.26,1.13-.59,1.61s-.76.84-1.31,1.11c-.55.27-1.18.41-1.92.41Z"/>
    <path class="cls-1" d="m229.13,235.36v1.45h-5.06v-1.45h5.06Zm-3.71-2.22h1.8v8.77c0,.35.05.61.16.79.1.17.24.29.41.36.17.06.35.09.55.09.15,0,.27,0,.38-.03.11-.02.19-.04.25-.05l.33,1.49c-.1.04-.25.08-.45.12-.19.04-.43.06-.72.07-.47,0-.92-.08-1.33-.25s-.74-.45-1-.82-.38-.83-.38-1.39v-9.15Z"/>
    <path class="cls-1" d="m235.01,248.3c-.74,0-1.37-.1-1.9-.29s-.96-.45-1.29-.77c-.33-.32-.58-.67-.75-1.04l1.55-.64c.11.18.25.37.44.56s.43.37.75.51c.32.14.72.21,1.22.21.68,0,1.25-.17,1.7-.5.45-.33.67-.86.67-1.58v-1.82h-.12c-.11.2-.26.42-.47.66s-.48.45-.84.63-.82.27-1.38.27c-.73,0-1.39-.17-1.98-.52-.59-.34-1.05-.85-1.39-1.53-.34-.67-.51-1.5-.51-2.49s.17-1.83.5-2.54.8-1.25,1.39-1.62c.59-.38,1.25-.56,2-.56.58,0,1.04.1,1.39.29.35.19.63.41.83.67.2.25.35.48.46.67h.13v-1.5h1.77v9.48c0,.8-.19,1.45-.56,1.96-.37.51-.87.89-1.5,1.13-.63.25-1.34.37-2.13.37Zm-.02-5.31c.52,0,.96-.12,1.32-.37.36-.24.63-.59.82-1.05.19-.46.28-1,.28-1.64s-.09-1.17-.28-1.65c-.19-.47-.46-.85-.82-1.11s-.8-.4-1.33-.4-1,.14-1.36.42c-.36.28-.63.66-.82,1.14-.18.48-.27,1.01-.27,1.61s.09,1.14.28,1.6c.18.46.46.82.82,1.07s.81.39,1.35.39Z"/>
    <path class="cls-1" d="m245.1,244.82c-.77,0-1.45-.22-2.04-.63-.58-.41-1.04-.98-1.36-1.7-.33-.72-.49-1.56-.49-2.5s.17-1.76.51-2.47c.34-.71.81-1.27,1.41-1.68.6-.4,1.28-.61,2.04-.61.54,0,1.02.1,1.43.3.41.2.76.49,1.05.85s.53.78.72,1.26h.63l.36,2.32,1.18,4.66h-1.55l-1.11-4.66c-.06-.3-.15-.63-.27-1-.12-.37-.28-.72-.48-1.05s-.45-.61-.75-.83c-.3-.22-.66-.33-1.08-.33-.46,0-.87.14-1.22.41-.35.28-.62.66-.82,1.14-.19.49-.29,1.05-.29,1.68s.09,1.18.28,1.67c.19.5.45.88.78,1.17.33.28.72.43,1.17.43.41,0,.76-.11,1.07-.33.31-.22.57-.5.78-.84.21-.34.39-.7.52-1.07.13-.37.23-.71.3-1l1-4.66h1.54l-1.06,4.66-.36,2.35h-.57c-.19.48-.44.9-.75,1.28-.3.37-.67.66-1.1.87-.43.21-.93.31-1.49.31Z"/>
    <path class="cls-1" d="m257.43,240.57v-1.62h8.16v1.62h-8.16Zm3.27,3.27v-8.16h1.62v8.16h-1.62Z"/>
    <path class="cls-1" d="m281.95,235.36v1.51h-9.51v-1.51h9.51Zm-6.31,0v9.27h-1.78v-9.27h1.78Zm3.15,0h1.78v6.77c0,.28.05.49.14.63.09.14.22.24.37.29.16.05.32.08.5.08.13,0,.27-.01.4-.04.13-.02.24-.04.32-.06v1.51c-.15.04-.34.09-.56.14-.22.05-.48.07-.77.07-.65,0-1.17-.19-1.58-.57-.4-.38-.61-1.03-.61-1.94v-6.88Z"/>
    <path class="cls-1" d="m284.26,244.63v-12.36h1.8v12.36h-1.8Zm1.66-3.15v-2.2s.3,0,.3,0l3.69-3.92h2.16l-4.21,4.47h-.28l-1.66,1.66Zm4.2,3.15l-3.32-4.41,1.24-1.26,4.29,5.67h-2.22Z"/>
    <path class="cls-1" d="m296.07,242.94l-.09.66c-.06.48-.16.99-.31,1.51-.14.53-.29,1.01-.44,1.46-.15.45-.27.81-.37,1.07h-1.28c.05-.25.12-.59.22-1.01.09-.42.18-.9.27-1.42.09-.52.16-1.06.2-1.6l.06-.68h1.74Z"/>
    <path class="cls-1" d="m302.92,244.63v-12.36h1.8v12.36h-1.8Zm1.66-3.15v-2.2s.3,0,.3,0l3.69-3.92h2.16l-4.21,4.47h-.28l-1.66,1.66Zm4.2,3.15l-3.32-4.41,1.24-1.26,4.29,5.67h-2.22Z"/>
    <path class="cls-1" d="m325.04,239.12v1.15h-6.86c.03.51.1.97.22,1.37s.31.74.55,1.02.56.49.96.62c.39.13.93.2,1.61.2h3.51v1.15h-3.54c-.54,0-1.01-.03-1.41-.1s-.76-.17-1.08-.32c-.32-.15-.62-.37-.91-.68s-.52-.63-.69-1c-.18-.37-.31-.78-.4-1.24-.09-.46-.13-.96-.13-1.49,0-.87.09-1.6.26-2.17.17-.57.46-1.08.86-1.53s.89-.76,1.45-.96c.56-.19,1.29-.29,2.19-.29h3.4v1.15h-3.41c-.55,0-.99.03-1.33.09-.34.06-.62.16-.85.29-.23.14-.43.33-.62.58-.19.25-.33.56-.44.92s-.17.77-.2,1.23h6.85Z"/>
    <path class="cls-1" d="m331.81,244.63v-1.24l6.5-9.51h-6.56v-1.61h8.84v1.24l-6.5,9.51h6.56v1.61h-8.84Z"/>
  </g>
  <line class="cls-3" x1="183.77" y1="73.24" x2="52.62" y2="204.39"/>
  <line class="cls-3" x1="197.01" y1="73.24" x2="51.29" y2="73.24"/>
  <line class="cls-3" x1="50.04" y1="132.01" x2="195.76" y2="132.01"/>
  <line class="cls-3" x1="125" y1="206.37" x2="125" y2="60.65"/>
  <polygon class="cls-2" points="125 56.45 122.58 60.65 127.42 60.65 125 56.45"/>
  <polygon class="cls-2" points="199.96 132.01 195.76 129.59 195.76 134.43 199.96 132.01"/>
  <path class="cls-4" d="m125.3,73.24c32.24,0,58.47,26.23,58.47,58.47s-26.23,58.47-58.47,58.47-58.47-26.23-58.47-58.47,26.23-58.47,58.47-58.47m0-1.2c-32.95,0-59.67,26.72-59.67,59.67s26.72,59.67,59.67,59.67,59.67-26.72,59.67-59.67-26.72-59.67-59.67-59.67h0Z"/>
  <circle class="cls-5" cx="167.35" cy="88.71" r="5.4"/>
  <circle class="cls-5" cx="84.85" cy="175.31" r="5.4"/>
  <path class="cls-1" d="m193.71,90.04l2.05,3.61,2.06-3.61h1.97l-2.89,4.64,2.92,4.64h-1.97l-2.09-3.47-2.08,3.47h-1.98l2.89-4.64-2.85-4.64h1.98Z"/>
  <line class="cls-3" x1="436.99" y1="190.48" x2="312.65" y2="66.13"/>
  <line class="cls-3" x1="451.08" y1="73.04" x2="305.36" y2="73.04"/>
  <line class="cls-3" x1="303.26" y1="132.01" x2="448.98" y2="132.01"/>
  <line class="cls-3" x1="378.22" y1="206.37" x2="378.22" y2="60.65"/>
  <polygon class="cls-2" points="378.22 56.45 375.8 60.65 380.64 60.65 378.22 56.45"/>
  <polygon class="cls-2" points="453.18 132.01 448.98 129.59 448.98 134.43 453.18 132.01"/>
  <path class="cls-4" d="m378.52,73.24c32.24,0,58.47,26.23,58.47,58.47s-26.23,58.47-58.47,58.47-58.47-26.23-58.47-58.47,26.23-58.47,58.47-58.47m0-1.2c-32.95,0-59.67,26.72-59.67,59.67s26.72,59.67,59.67,59.67,59.67-26.72,59.67-59.67-26.72-59.67-59.67-59.67h0Z"/>
  <circle class="cls-5" cx="420.57" cy="173.45" r="5.4"/>
  <circle class="cls-5" cx="336.46" cy="90.04" r="5.4"/>
  <path class="cls-1" d="m444.9,160.81l2.05,3.61,2.06-3.61h1.97l-2.89,4.64,2.92,4.64h-1.97l-2.09-3.47-2.08,3.47h-1.98l2.89-4.64-2.85-4.64h1.98Z"/>
</svg>