<?xml version="1.0" encoding="UTF-8"?>
<svg id="Layer_2" data-name="Layer 2" xmlns="http://www.w3.org/2000/svg" viewBox="0 0 250 270">
  <defs>
    <style>
      .cls-1, .cls-2 {
        fill: #fff;
      }

      .cls-3 {
        fill: none;
      }

      .cls-3, .cls-4, .cls-2 {
        stroke-miterlimit: 10;
        stroke-width: 2px;
      }

      .cls-3, .cls-2 {
        stroke: #fff;
      }

      .cls-4 {
        stroke: #d1ae59;
      }

      .cls-4, .cls-5 {
        fill: #d1ae59;
      }

      .cls-2 {
        fill-rule: evenodd;
      }
    </style>
  </defs>
  <line class="cls-3" x1="190.88" y1="198.5" x2="59.72" y2="67.34"/>
  <line class="cls-3" x1="197.86" y1="74.15" x2="52.14" y2="74.15"/>
  <line class="cls-3" x1="50.04" y1="132.92" x2="195.76" y2="132.92"/>
  <line class="cls-3" x1="125" y1="207.28" x2="125" y2="61.56"/>
  <polygon class="cls-2" points="125 57.36 122.58 61.56 127.42 61.56 125 57.36"/>
  <polygon class="cls-2" points="199.96 132.92 195.76 130.5 195.76 135.34 199.96 132.92"/>
  <path class="cls-4" d="m125.3,74.15c32.24,0,58.47,26.23,58.47,58.47s-26.23,58.47-58.47,58.47-58.47-26.23-58.47-58.47,26.23-58.47,58.47-58.47m0-1.2c-32.95,0-59.67,26.72-59.67,59.67s26.72,59.67,59.67,59.67,59.67-26.72,59.67-59.67-26.72-59.67-59.67-59.67h0Z"/>
  <circle class="cls-5" cx="83.36" cy="90.98" r="5.4"/>
  <circle class="cls-5" cx="167.24" cy="174.86" r="5.4"/>
  <g>
    <g>
      <path class="cls-1" d="m58.68,236.55c-.77,0-1.45-.22-2.03-.63-.58-.41-1.04-.98-1.36-1.7-.33-.72-.49-1.56-.49-2.5s.17-1.76.51-2.47.81-1.27,1.41-1.68c.6-.4,1.28-.61,2.04-.61.54,0,1.02.1,1.43.3s.76.49,1.05.85.53.78.72,1.26h.63l.36,2.32,1.18,4.66h-1.55l-1.11-4.66c-.06-.3-.15-.63-.27-1s-.28-.72-.48-1.05-.45-.61-.75-.83-.66-.33-1.08-.33c-.46,0-.87.14-1.22.41-.35.28-.62.66-.81,1.14-.19.49-.29,1.05-.29,1.68s.09,1.18.28,1.67c.19.5.45.88.78,1.17.33.28.72.43,1.17.43.41,0,.76-.11,1.07-.33s.57-.5.78-.84.39-.7.52-1.07c.13-.37.23-.71.3-1l1-4.66h1.54l-1.06,4.66-.36,2.35h-.57c-.19.48-.44.9-.75,1.28-.3.37-.67.66-1.1.87-.43.21-.93.31-1.49.31h0Z"/>
      <path class="cls-1" d="m71.23,230.42v-1.59h7.73v1.59h-7.73Zm0,3.72v-1.59h7.73v1.59h-7.73Z"/>
      <path class="cls-1" d="m91.93,230.35v1.56h-5.48v-1.56h5.48Z"/>
      <path class="cls-1" d="m112.73,232.3v-1.62h8.16v1.62s-8.16,0-8.16,0Zm3.27,3.27v-8.16h1.62v8.16h-1.62Z"/>
      <path class="cls-1" d="m137.24,227.08v1.51h-9.51v-1.51h9.51Zm-6.31,0v9.27h-1.78v-9.27h1.78Zm3.15,0h1.78v6.77c0,.28.05.49.14.63s.22.24.37.29c.16.05.32.08.5.08.13,0,.27,0,.4-.04.13-.02.24-.04.32-.06v1.51c-.15.04-.34.09-.56.14s-.48.07-.77.07c-.65,0-1.17-.19-1.58-.57s-.61-1.03-.61-1.94v-6.88h.01Z"/>
      <path class="cls-1" d="m139.55,236.36v-12.36h1.8v12.36h-1.8Zm1.66-3.15v-2.2h.3l3.69-3.92h2.16l-4.21,4.47h-.28l-1.66,1.66h0Zm4.2,3.15l-3.32-4.41,1.24-1.26,4.29,5.67h-2.22.01Z"/>
      <path class="cls-1" d="m151.36,234.67l-.09.66c-.06.48-.16.99-.31,1.51-.14.53-.29,1.01-.44,1.46-.15.45-.27.81-.37,1.07h-1.28c.05-.25.12-.59.22-1.01.09-.42.18-.9.27-1.42.09-.52.16-1.06.2-1.6l.06-.68h1.74,0Z"/>
      <path class="cls-1" d="m158.21,236.36v-12.36h1.8v12.36h-1.8Zm1.66-3.15v-2.2h.3l3.69-3.92h2.16l-4.21,4.47h-.28l-1.66,1.66h0Zm4.2,3.15l-3.32-4.41,1.24-1.26,4.29,5.67h-2.22.01Z"/>
      <path class="cls-1" d="m180.33,230.84v1.15h-6.86c.03.51.1.97.22,1.37s.31.74.55,1.02.56.49.96.62c.39.13.93.2,1.61.2h3.51v1.15h-3.54c-.54,0-1.01-.03-1.41-.1s-.76-.17-1.08-.32c-.32-.15-.62-.37-.91-.68s-.52-.63-.69-1c-.18-.37-.31-.78-.4-1.24s-.13-.96-.13-1.49c0-.87.09-1.6.26-2.17.17-.57.46-1.08.86-1.53s.89-.76,1.45-.96c.56-.19,1.29-.29,2.19-.29h3.4v1.15h-3.41c-.55,0-.99.03-1.33.09s-.62.16-.85.29c-.23.14-.43.33-.62.58s-.33.56-.44.92-.17.77-.2,1.23h6.86Z"/>
      <path class="cls-1" d="m186.2,236.36v-1.24l6.5-9.51h-6.56v-1.61h8.84v1.24l-6.5,9.51h6.56v1.61h-8.84Z"/>
    </g>
    <g>
      <path class="cls-1" d="m106.25,219.84v1.51h-9.51v-1.51h9.51Zm-6.31,0v9.27h-1.78v-9.27h1.78Zm3.15,0h1.78v6.77c0,.28.05.49.14.63s.22.24.37.29c.16.05.32.08.5.08.13,0,.27,0,.4-.04.13-.02.24-.04.32-.06v1.51c-.15.04-.34.09-.56.14s-.48.07-.77.07c-.65,0-1.17-.19-1.58-.57s-.61-1.03-.61-1.94v-6.88h0Z"/>
      <path class="cls-1" d="m96.91,243.7v-1.51l5.34-8.44h1.19v2.22h-.75l-3.82,6.05v.1h7.32v1.58h-9.28Zm5.86,2.42v-12.36h1.78v12.36h-1.78Z"/>
    </g>
    <rect class="cls-1" x="95.82" y="230.38" width="12.2" height="1.67"/>
  </g>
  <g>
    <path class="cls-1" d="m196.59,163.46v1.56h-5.48v-1.56h5.48Z"/>
    <path class="cls-1" d="m203.66,157.1v12.36h-1.87v-10.49h-.07l-2.96,1.93v-1.79l3.08-2.02h1.82Z"/>
  </g>
  <g>
    <path class="cls-1" d="m93.29,19.12c-.9,0-1.67-.2-2.31-.61-.65-.41-1.14-.97-1.49-1.69-.35-.72-.52-1.55-.52-2.48s.18-1.77.53-2.5.85-1.29,1.5-1.69,1.4-.61,2.28-.61c.7,0,1.33.13,1.88.39.55.26,1,.62,1.34,1.09.34.47.54,1.01.61,1.64h-1.76c-.1-.43-.32-.81-.66-1.12s-.8-.47-1.38-.47c-.5,0-.94.13-1.32.4-.38.26-.67.64-.88,1.12-.21.49-.31,1.06-.31,1.72s.1,1.26.31,1.75c.21.49.5.87.87,1.14s.82.4,1.33.4c.34,0,.65-.06.93-.19.28-.13.52-.31.71-.55.19-.24.32-.52.4-.86h1.76c-.06.6-.26,1.14-.59,1.61-.33.47-.76.84-1.31,1.11s-1.18.4-1.92.4Z"/>
    <path class="cls-1" d="m103.37,9.66v1.45h-5.06v-1.45h5.06Zm-3.71-2.22h1.8v8.77c0,.35.05.61.16.79.1.18.24.29.41.36s.35.09.55.09c.15,0,.27-.01.38-.03.11-.02.19-.04.25-.05l.33,1.49c-.1.04-.25.08-.45.12-.19.04-.43.07-.72.07-.47,0-.92-.08-1.33-.25-.41-.18-.74-.45-1-.82-.25-.37-.38-.84-.38-1.39V7.44Z"/>
    <path class="cls-1" d="m109.25,22.6c-.74,0-1.37-.1-1.9-.29-.53-.19-.96-.45-1.29-.77s-.58-.67-.75-1.04l1.55-.64c.11.18.25.37.44.56.18.2.43.37.75.51.32.14.72.21,1.22.21.68,0,1.25-.17,1.7-.5.45-.33.67-.86.67-1.58v-1.82h-.11c-.11.2-.26.42-.47.66-.2.24-.48.45-.84.63-.35.18-.81.27-1.38.27-.73,0-1.39-.17-1.98-.52-.59-.34-1.05-.85-1.39-1.53-.34-.67-.51-1.5-.51-2.49s.17-1.83.5-2.54.8-1.24,1.39-1.62c.59-.38,1.25-.56,2-.56.58,0,1.04.1,1.39.29.35.19.63.41.83.67.2.25.35.48.46.67h.13v-1.5h1.77v9.48c0,.8-.19,1.45-.56,1.96-.37.51-.87.89-1.5,1.13s-1.34.37-2.13.37Zm-.02-5.31c.52,0,.96-.12,1.32-.37.36-.24.63-.59.82-1.05.19-.46.28-1,.28-1.65s-.09-1.17-.28-1.65c-.19-.48-.46-.85-.81-1.11s-.8-.4-1.33-.4-1,.14-1.36.42c-.36.28-.63.66-.82,1.14-.18.48-.27,1.01-.27,1.61s.09,1.14.28,1.6c.19.46.46.82.82,1.07.36.26.81.39,1.35.39Z"/>
    <path class="cls-1" d="m119.34,19.12c-.77,0-1.45-.22-2.03-.63s-1.04-.98-1.36-1.7c-.33-.72-.49-1.56-.49-2.5s.17-1.76.51-2.47c.34-.71.81-1.27,1.41-1.68.6-.4,1.28-.61,2.04-.61.54,0,1.02.1,1.43.31.41.2.76.49,1.05.85.29.36.53.78.72,1.26h.63l.36,2.32,1.18,4.66h-1.55l-1.11-4.66c-.06-.3-.15-.63-.27-1s-.28-.72-.48-1.05-.45-.61-.75-.83-.66-.33-1.08-.33c-.46,0-.87.14-1.22.41-.35.28-.62.66-.82,1.14-.19.49-.29,1.05-.29,1.68s.09,1.18.28,1.67.45.88.78,1.17c.33.28.72.43,1.17.43.41,0,.76-.11,1.07-.33.31-.22.57-.5.78-.85.21-.34.39-.7.52-1.07.13-.37.23-.71.3-1.01l1-4.66h1.54l-1.06,4.66-.36,2.35h-.57c-.19.48-.44.9-.75,1.28-.3.37-.67.66-1.1.87-.43.21-.93.31-1.49.31Z"/>
    <path class="cls-1" d="m131.89,13v-1.59h7.73v1.59h-7.73Zm0,3.72v-1.59h7.73v1.59h-7.73Z"/>
    <path class="cls-1" d="m152.59,12.92v1.56h-5.48v-1.56h5.48Z"/>
    <path class="cls-1" d="m159.67,6.57v12.36h-1.87v-10.49h-.07l-2.96,1.93v-1.79l3.08-2.02h1.82Z"/>
  </g>
  <g>
    <path class="cls-1" d="m90.65,59.43v1.56h-5.48v-1.56h5.48Z"/>
    <path class="cls-1" d="m97.73,53.07v12.36h-1.87v-10.49h-.07l-2.96,1.93v-1.79l3.08-2.02h1.82Z"/>
  </g>
</svg>