<?xml version="1.0" encoding="UTF-8"?>
<svg id="Layer_1" data-name="Layer 1" xmlns="http://www.w3.org/2000/svg" viewBox="0 0 222 171">
  <defs>
    <style>
      .cls-1 {
        fill: #fff;
      }
    </style>
  </defs>
  <g>
    <path class="cls-1" d="m49.27,63.29h-4v-12.36h4.13c1.21,0,2.25.25,3.12.74.87.49,1.54,1.2,2,2.12.46.92.7,2.02.7,3.31s-.23,2.39-.7,3.32c-.47.93-1.15,1.64-2.03,2.13-.89.5-1.96.75-3.21.75Zm-2.14-1.63h2.03c.94,0,1.72-.18,2.35-.53.62-.36,1.09-.87,1.4-1.55.31-.68.46-1.51.46-2.48s-.15-1.79-.46-2.47c-.31-.68-.77-1.19-1.37-1.54-.61-.35-1.36-.53-2.26-.53h-2.15v9.1Z"/>
    <path class="cls-1" d="m44.84,77.88v-1.51l5.34-8.44h1.19v2.22h-.75l-3.82,6.05v.1h7.32v1.58h-9.28Zm5.86,2.41v-3.56s.01-8.8.01-8.8h1.77v12.36h-1.78Z"/>
  </g>
  <g>
    <path class="cls-1" d="m19.6,19.55v-1.59h7.73v1.59h-7.73Zm0,3.72v-1.59h7.73v1.59h-7.73Z"/>
    <path class="cls-1" d="m71.83,19.48v1.56h-5.48v-1.56h5.48Z"/>
    <path class="cls-1" d="m81.44,25.69c-.59,0-1.12-.11-1.59-.33-.48-.22-.85-.54-1.13-.96s-.41-.93-.41-1.54c0-.52.1-.95.3-1.29.2-.34.47-.61.81-.8s.72-.35,1.15-.45c.42-.1.85-.18,1.29-.23.55-.06,1.01-.12,1.35-.16.35-.04.6-.11.75-.21s.24-.25.24-.47v-.04c0-.53-.15-.94-.44-1.23-.3-.29-.74-.43-1.32-.43s-1.09.13-1.43.4c-.35.27-.59.56-.72.89l-1.7-.39c.2-.56.5-1.02.88-1.37.39-.35.84-.6,1.34-.76.51-.16,1.04-.24,1.6-.24.37,0,.76.04,1.18.13.42.09.81.24,1.17.47.36.23.66.56.9.98.23.42.35.97.35,1.65v6.16h-1.76v-1.27h-.07c-.12.23-.29.46-.52.69-.23.23-.53.41-.9.56s-.8.22-1.32.22Zm.39-1.45c.5,0,.93-.1,1.28-.3.36-.2.63-.46.82-.78.19-.32.28-.66.28-1.03v-1.2c-.06.06-.19.12-.37.18-.18.05-.39.1-.62.14-.23.04-.46.07-.68.1-.22.03-.41.06-.56.08-.35.04-.67.12-.96.22s-.52.25-.69.45c-.17.2-.26.45-.26.78,0,.45.17.78.5,1.01.33.23.75.34,1.26.34Z"/>
    <path class="cls-1" d="m92.33,25.67c-.9,0-1.67-.2-2.32-.61-.65-.41-1.14-.97-1.49-1.69-.35-.72-.52-1.55-.52-2.48s.18-1.77.53-2.5.85-1.29,1.5-1.69,1.4-.61,2.28-.61c.7,0,1.33.13,1.88.39.55.26,1,.62,1.34,1.09.34.47.54,1.01.61,1.64h-1.76c-.1-.43-.32-.81-.66-1.12s-.8-.47-1.38-.47c-.5,0-.94.13-1.32.4-.38.26-.67.64-.88,1.12-.21.49-.31,1.06-.31,1.72s.1,1.26.31,1.75c.21.49.5.87.87,1.14.38.27.82.4,1.33.4.34,0,.65-.06.93-.19.28-.13.51-.31.71-.55s.33-.52.4-.86h1.76c-.06.6-.26,1.14-.59,1.61s-.76.84-1.31,1.11c-.55.27-1.18.4-1.92.4Z"/>
  </g>
  <g>
    <path class="cls-1" d="m40.7,19.42V7.05h1.81v4.59h.11c.1-.19.26-.42.45-.67.2-.25.47-.48.82-.67.35-.19.81-.29,1.39-.29.75,0,1.42.19,2,.57.59.38,1.05.92,1.39,1.64.34.71.5,1.57.5,2.57s-.17,1.86-.5,2.57-.79,1.26-1.38,1.65-1.25.58-2,.58c-.56,0-1.02-.09-1.38-.28-.36-.19-.63-.41-.84-.66s-.36-.48-.46-.68h-.15v1.44h-1.76Zm1.77-4.64c0,.65.09,1.22.28,1.71.19.49.46.87.82,1.15.36.28.8.41,1.32.41s.99-.14,1.35-.43c.36-.29.64-.68.82-1.17.19-.49.28-1.05.28-1.67s-.09-1.16-.27-1.65c-.18-.49-.46-.87-.82-1.15s-.82-.42-1.36-.42-.96.13-1.33.4c-.36.27-.63.65-.82,1.13s-.28,1.05-.28,1.69Z"/>
    <path class="cls-1" d="m40.64,36.42v-1.35l4.18-4.33c.45-.47.82-.88,1.11-1.24.29-.36.51-.7.66-1.02.15-.32.22-.66.22-1.03,0-.41-.1-.77-.29-1.07-.19-.3-.46-.53-.79-.69-.33-.16-.71-.24-1.13-.24-.44,0-.83.09-1.16.27s-.58.44-.76.77c-.18.33-.27.72-.27,1.16h-1.78c0-.75.17-1.41.52-1.97s.82-1,1.42-1.31c.6-.31,1.29-.47,2.06-.47s1.46.15,2.06.46c.59.31,1.06.73,1.39,1.26.33.53.5,1.13.5,1.79,0,.46-.09.91-.26,1.35-.17.44-.47.93-.89,1.46-.42.54-1.01,1.19-1.76,1.95l-2.46,2.57v.09h5.57v1.6h-8.14Z"/>
  </g>
  <path class="cls-1" d="m57.32,23.05c0,3.08-.38,6.07-1.13,8.97-.75,2.9-1.83,5.67-3.25,8.31h-1.54c.67-1.22,1.26-2.53,1.78-3.92.52-1.39.96-2.83,1.33-4.31s.64-2.99.84-4.51c.19-1.52.29-3.03.29-4.53,0-2.01-.17-4.03-.51-6.06-.34-2.03-.83-4-1.46-5.91-.63-1.91-1.39-3.67-2.27-5.3h1.54c1.41,2.65,2.49,5.43,3.25,8.33.75,2.9,1.13,5.88,1.13,8.94Z"/>
  <path class="cls-1" d="m30.93,23.51c0-3.08.38-6.07,1.13-8.97s1.83-5.67,3.25-8.31h1.54c-.67,1.22-1.26,2.53-1.78,3.92-.52,1.39-.96,2.83-1.33,4.31s-.64,2.99-.84,4.51c-.19,1.52-.29,3.03-.29,4.53,0,2.01.17,4.03.51,6.06.34,2.03.83,4,1.46,5.91.63,1.91,1.39,3.67,2.26,5.3h-1.54c-1.41-2.65-2.49-5.43-3.25-8.33s-1.13-5.88-1.13-8.94Z"/>
  <path class="cls-1" d="m57.42,8.85v-.95l2.95-3.06c.32-.33.58-.62.78-.88.21-.25.36-.49.46-.72.1-.23.15-.47.15-.72,0-.29-.07-.54-.2-.75s-.32-.38-.56-.49c-.24-.11-.5-.17-.8-.17-.31,0-.59.06-.82.19-.23.13-.41.31-.54.54s-.19.51-.19.82h-1.26c0-.53.12-1,.37-1.39.24-.4.58-.71,1.01-.93S59.69,0,60.23,0s1.03.11,1.45.33c.42.22.75.51.98.89s.35.79.35,1.26c0,.32-.06.64-.18.95-.12.31-.33.65-.63,1.03-.3.38-.71.84-1.24,1.38l-1.73,1.81v.06h3.93v1.13h-5.74Z"/>
  <rect class="cls-1" x="43" y="65.25" width="13" height="1.5"/>
  <g>
    <path class="cls-1" d="m6.27,19.29H2.27V6.93h4.13c1.21,0,2.25.25,3.12.74.87.49,1.54,1.2,2,2.12.46.92.7,2.02.7,3.31s-.23,2.39-.7,3.32c-.47.93-1.15,1.64-2.03,2.13-.89.5-1.96.75-3.21.75Zm-2.14-1.63h2.03c.94,0,1.72-.18,2.35-.53.62-.36,1.09-.87,1.4-1.55.31-.68.46-1.51.46-2.48s-.15-1.79-.46-2.47c-.31-.68-.77-1.19-1.37-1.54-.61-.35-1.36-.53-2.26-.53h-2.15v9.1Z"/>
    <path class="cls-1" d="m1.84,33.88v-1.51l5.34-8.44h1.19v2.22h-.75l-3.82,6.05v.1h7.32v1.58H1.84Zm5.86,2.41v-3.56s.01-8.8.01-8.8h1.77v12.36h-1.78Z"/>
  </g>
  <rect class="cls-1" y="21.25" width="13" height="1.5"/>
  <g>
    <path class="cls-1" d="m49.27,108.29h-4v-12.36h4.13c1.21,0,2.25.25,3.12.74.87.49,1.54,1.2,2,2.12.46.92.7,2.02.7,3.31s-.23,2.39-.7,3.32c-.47.93-1.15,1.64-2.03,2.13-.89.5-1.96.75-3.21.75Zm-2.14-1.63h2.03c.94,0,1.72-.18,2.35-.53.62-.36,1.09-.87,1.4-1.55.31-.68.46-1.51.46-2.48s-.15-1.79-.46-2.47c-.31-.68-.77-1.19-1.37-1.54-.61-.35-1.36-.53-2.26-.53h-2.15v9.1Z"/>
    <path class="cls-1" d="m44.84,122.88v-1.51l5.34-8.44h1.19v2.22h-.75l-3.82,6.05v.1h7.32v1.58h-9.28Zm5.86,2.41v-3.56s.01-8.8.01-8.8h1.77v12.36h-1.78Z"/>
  </g>
  <rect class="cls-1" x="43" y="110.25" width="13" height="1.5"/>
  <g>
    <path class="cls-1" d="m49.27,153.29h-4v-12.36h4.13c1.21,0,2.25.25,3.12.74.87.49,1.54,1.2,2,2.12s.7,2.02.7,3.3-.23,2.39-.7,3.32c-.47.93-1.15,1.64-2.03,2.13-.89.5-1.96.75-3.21.75Zm-2.14-1.63h2.03c.94,0,1.72-.18,2.35-.53s1.09-.87,1.4-1.55c.31-.68.46-1.51.46-2.48s-.15-1.79-.46-2.47c-.31-.68-.77-1.19-1.37-1.54-.61-.35-1.36-.53-2.26-.53h-2.15v9.1Z"/>
    <path class="cls-1" d="m44.84,167.88v-1.51l5.34-8.44h1.19v2.22h-.75l-3.82,6.05v.1h7.32v1.58h-9.28Zm5.86,2.42v-3.56s.01-8.8.01-8.8h1.77v12.36h-1.78Z"/>
  </g>
  <rect class="cls-1" x="43" y="155.25" width="13" height="1.5"/>
  <rect class="cls-1" x="38" y="21.25" width="13" height="1.5"/>
  <rect class="cls-1" x="160" y="105.25" width="19" height="1.5"/>
  <rect class="cls-1" x="169" y="44.8" width="13" height="1.5"/>
  <rect class="cls-1" x="160" y="62.25" width="62" height="1.5"/>
  <g>
    <path class="cls-1" d="m.22,70.26v-12.36h7.75v1.61H2.09v3.77h5.48v1.6H2.09v3.79h5.96v1.61H.22Z"/>
    <path class="cls-1" d="m14.23,70.45c-.9,0-1.67-.2-2.31-.61-.65-.41-1.14-.97-1.49-1.69-.35-.72-.52-1.55-.52-2.48s.18-1.77.53-2.5.85-1.29,1.5-1.69,1.4-.61,2.28-.61c.7,0,1.33.13,1.88.39.55.26,1,.62,1.34,1.09.34.47.54,1.01.61,1.64h-1.76c-.1-.43-.32-.81-.66-1.12s-.8-.47-1.38-.47c-.5,0-.94.13-1.32.4-.38.26-.67.64-.88,1.12-.21.49-.31,1.06-.31,1.72s.1,1.26.31,1.75c.21.49.5.87.87,1.14s.82.4,1.33.4c.34,0,.65-.06.93-.19.28-.13.52-.31.71-.55.19-.24.32-.52.4-.86h1.76c-.06.6-.26,1.14-.59,1.61-.33.47-.76.84-1.31,1.11s-1.18.4-1.92.4Z"/>
    <path class="cls-1" d="m19.25,70.26v-1.56s.33,0,.33,0c.26,0,.47-.06.65-.17.17-.11.32-.3.43-.56.11-.27.2-.63.26-1.1.06-.47.1-1.06.13-1.77l.16-4.11h6.47v9.27h-1.77v-7.72h-3.03l-.15,3.15c-.04.76-.11,1.43-.23,2s-.29,1.05-.52,1.43-.52.66-.87.85c-.35.19-.78.28-1.29.28h-.58Z"/>
    <path class="cls-1" d="m31.86,67.73l4.09-6.74h1.94v9.27h-1.77v-6.75l-4.07,6.75h-1.96v-9.27h1.77v6.74Z"/>
    <path class="cls-1" d="m71.29,64.91l-8.02,3.89v-1.85l5.92-2.69-.06.1v-.26l.06.11-5.92-2.7v-1.84l8.02,3.89v1.35Z"/>
    <path class="cls-1" d="m82.93,70.46c-.95,0-1.77-.26-2.44-.75-.68-.5-1.19-1.23-1.55-2.18-.36-.95-.54-2.1-.54-3.45s.18-2.49.54-3.44c.36-.95.88-1.67,1.56-2.17s1.49-.75,2.44-.75,1.76.25,2.43.75c.68.5,1.19,1.23,1.55,2.17s.54,2.09.54,3.43-.18,2.5-.54,3.45c-.36.95-.88,1.68-1.55,2.18s-1.49.75-2.44.75Zm0-1.61c.84,0,1.49-.41,1.96-1.23.47-.82.71-2,.71-3.54,0-1.03-.11-1.89-.32-2.6-.22-.71-.52-1.25-.92-1.62-.4-.37-.88-.55-1.43-.55-.83,0-1.49.41-1.96,1.23-.48.82-.71,2-.72,3.54,0,1.03.11,1.9.32,2.61.22.71.52,1.25.92,1.61s.88.55,1.44.55Z"/>
    <path class="cls-1" d="m91.98,68.57l-.09.66c-.06.48-.16.99-.3,1.51-.14.53-.29,1.01-.44,1.46s-.27.81-.37,1.07h-1.28c.05-.25.12-.59.22-1.01.09-.42.18-.9.27-1.42.09-.52.15-1.06.2-1.6l.06-.68h1.74Z"/>
    <path class="cls-1" d="m.22,115.26v-12.36h7.75v1.61H2.09v3.77h5.48v1.6H2.09v3.79h5.96v1.61H.22Z"/>
    <path class="cls-1" d="m14.23,115.45c-.9,0-1.67-.2-2.31-.61-.65-.41-1.14-.97-1.49-1.69-.35-.72-.52-1.55-.52-2.48s.18-1.77.53-2.5.85-1.29,1.5-1.69,1.4-.61,2.28-.61c.7,0,1.33.13,1.88.39.55.26,1,.62,1.34,1.09.34.47.54,1.01.61,1.64h-1.76c-.1-.43-.32-.81-.66-1.12s-.8-.47-1.38-.47c-.5,0-.94.13-1.32.4-.38.26-.67.64-.88,1.12-.21.49-.31,1.06-.31,1.72s.1,1.26.31,1.75c.21.49.5.87.87,1.14s.82.4,1.33.4c.34,0,.65-.06.93-.19.28-.13.52-.31.71-.55.19-.24.32-.52.4-.86h1.76c-.06.6-.26,1.14-.59,1.61-.33.47-.76.84-1.31,1.11s-1.18.4-1.92.4Z"/>
    <path class="cls-1" d="m19.25,115.26v-1.56s.33,0,.33,0c.26,0,.47-.06.65-.17.17-.11.32-.3.43-.56.11-.27.2-.63.26-1.1.06-.47.1-1.06.13-1.77l.16-4.11h6.47v9.27h-1.77v-7.72h-3.03l-.15,3.15c-.04.76-.11,1.43-.23,2s-.29,1.05-.52,1.43-.52.66-.87.85c-.35.19-.78.28-1.29.28h-.58Z"/>
    <path class="cls-1" d="m31.86,112.73l4.09-6.74h1.94v9.27h-1.77v-6.75l-4.07,6.75h-1.96v-9.27h1.77v6.74Z"/>
    <path class="cls-1" d="m63.41,108.01v-1.58h7.73v1.58h-7.73Zm0,3.72v-1.58h7.73v1.58h-7.73Z"/>
    <path class="cls-1" d="m82.93,115.46c-.95,0-1.77-.26-2.44-.75-.68-.5-1.19-1.23-1.55-2.18-.36-.95-.54-2.1-.54-3.45s.18-2.49.54-3.44c.36-.95.88-1.67,1.56-2.17s1.49-.75,2.44-.75,1.76.25,2.43.75c.68.5,1.19,1.23,1.55,2.17s.54,2.09.54,3.43-.18,2.5-.54,3.45c-.36.95-.88,1.68-1.55,2.18s-1.49.75-2.44.75Zm0-1.61c.84,0,1.49-.41,1.96-1.23.47-.82.71-2,.71-3.54,0-1.03-.11-1.89-.32-2.6-.22-.71-.52-1.25-.92-1.62-.4-.37-.88-.55-1.43-.55-.83,0-1.49.41-1.96,1.23-.48.82-.71,2-.72,3.54,0,1.03.11,1.9.32,2.61.22.71.52,1.25.92,1.61s.88.55,1.44.55Z"/>
    <path class="cls-1" d="m91.98,113.57l-.09.66c-.06.48-.16.99-.3,1.51-.14.53-.29,1.01-.44,1.46s-.27.81-.37,1.07h-1.28c.05-.25.12-.59.22-1.01.09-.42.18-.9.27-1.42.09-.52.15-1.06.2-1.6l.06-.68h1.74Z"/>
    <path class="cls-1" d="m.22,160.26v-12.36h7.75v1.61H2.09v3.77h5.48v1.6H2.09v3.79h5.96v1.61H.22Z"/>
    <path class="cls-1" d="m14.23,160.45c-.9,0-1.67-.2-2.31-.61-.65-.41-1.14-.97-1.49-1.69-.35-.72-.52-1.54-.52-2.47s.18-1.77.53-2.5c.35-.72.85-1.29,1.5-1.69.64-.41,1.4-.61,2.28-.61.7,0,1.33.13,1.88.39.55.26,1,.62,1.34,1.09.34.47.54,1.01.61,1.64h-1.76c-.1-.43-.32-.81-.66-1.12-.34-.31-.8-.47-1.38-.47-.5,0-.94.13-1.32.4-.38.26-.67.64-.88,1.12-.21.48-.31,1.06-.31,1.72s.1,1.26.31,1.75c.21.49.5.87.87,1.14.38.27.82.41,1.33.41.34,0,.65-.06.93-.19s.52-.31.71-.55c.19-.24.32-.52.4-.86h1.76c-.06.6-.26,1.13-.59,1.61-.33.47-.76.84-1.31,1.11-.55.27-1.18.41-1.92.41Z"/>
    <path class="cls-1" d="m19.25,160.26v-1.56s.33,0,.33,0c.26,0,.47-.06.65-.17.17-.11.32-.3.43-.56.11-.27.2-.63.26-1.1.06-.47.1-1.06.13-1.77l.16-4.1h6.47v9.27h-1.77v-7.71h-3.03l-.15,3.15c-.04.76-.11,1.43-.23,2s-.29,1.05-.52,1.43c-.23.38-.52.66-.87.85-.35.19-.78.28-1.29.28h-.58Z"/>
    <path class="cls-1" d="m31.86,157.73l4.09-6.74h1.94v9.27h-1.77v-6.75l-4.07,6.75h-1.96v-9.27h1.77v6.74Z"/>
    <path class="cls-1" d="m63.27,154.91v-1.35l8.02-3.89v1.84l-5.92,2.7.05-.11v.26l-.05-.1,5.92,2.69v1.85l-8.02-3.89Z"/>
    <path class="cls-1" d="m82.93,160.46c-.95,0-1.77-.25-2.44-.75-.68-.5-1.19-1.22-1.55-2.18s-.54-2.1-.54-3.45.18-2.49.54-3.43c.36-.95.88-1.67,1.56-2.17s1.49-.75,2.44-.75,1.76.25,2.43.75c.68.5,1.19,1.23,1.55,2.17.36.95.54,2.09.54,3.43s-.18,2.5-.54,3.45c-.36.95-.88,1.68-1.55,2.18-.68.5-1.49.75-2.44.75Zm0-1.61c.84,0,1.49-.41,1.96-1.23.47-.82.71-2,.71-3.54,0-1.03-.11-1.89-.32-2.6-.22-.71-.52-1.25-.92-1.62s-.88-.55-1.43-.55c-.83,0-1.49.41-1.96,1.23-.48.82-.71,2-.72,3.54,0,1.03.11,1.9.32,2.61.22.71.52,1.25.92,1.61s.88.55,1.44.55Z"/>
    <path class="cls-1" d="m91.98,158.57l-.09.66c-.06.48-.16.99-.3,1.51-.14.53-.29,1.01-.44,1.46-.15.45-.27.81-.37,1.07h-1.28c.05-.25.12-.59.22-1.01.09-.42.18-.9.27-1.42.09-.52.15-1.06.2-1.6l.06-.68h1.74Z"/>
  </g>
  <g>
    <path class="cls-1" d="m121.86,58.9l2.05,3.61,2.06-3.61h1.97l-2.89,4.64,2.92,4.64h-1.97l-2.09-3.47-2.08,3.47h-1.98l2.89-4.64-2.85-4.64h1.98Z"/>
    <path class="cls-1" d="m148.4,62.23v-1.59h7.73v1.59h-7.73Zm0,3.72v-1.59h7.73v1.59h-7.73Z"/>
  </g>
  <g>
    <path class="cls-1" d="m171.43,43.28v-12.36h1.8v4.59h.11c.1-.19.25-.42.45-.67.2-.25.47-.48.82-.67.35-.19.81-.29,1.39-.29.75,0,1.42.19,2,.57.59.38,1.05.92,1.39,1.64s.5,1.57.5,2.57-.17,1.86-.5,2.57-.79,1.26-1.38,1.65c-.58.38-1.25.58-2,.58-.56,0-1.02-.09-1.38-.28-.36-.19-.63-.41-.84-.66-.2-.25-.36-.48-.46-.68h-.15v1.44h-1.76Zm1.77-4.64c0,.65.09,1.22.28,1.71.19.49.46.87.82,1.15.36.28.8.41,1.32.41s.99-.14,1.35-.43c.36-.29.64-.68.82-1.17.19-.49.28-1.05.28-1.67s-.09-1.16-.27-1.65c-.18-.49-.46-.87-.82-1.15s-.82-.42-1.36-.42-.96.13-1.33.4-.63.65-.82,1.13c-.19.48-.28,1.05-.28,1.69Z"/>
    <path class="cls-1" d="m171.37,60.28v-1.35l4.18-4.33c.45-.47.82-.88,1.11-1.24.29-.36.51-.7.66-1.02.14-.32.22-.66.22-1.03,0-.41-.1-.77-.29-1.07-.19-.3-.46-.53-.79-.69-.33-.16-.71-.24-1.13-.24-.44,0-.83.09-1.16.27s-.58.44-.76.77c-.18.33-.27.72-.27,1.16h-1.78c0-.75.17-1.41.52-1.97s.82-1,1.42-1.31c.6-.31,1.29-.47,2.06-.47s1.46.15,2.06.46c.59.31,1.06.73,1.39,1.26.33.53.5,1.13.5,1.79,0,.46-.09.91-.26,1.35-.17.44-.47.93-.89,1.46-.42.54-1.01,1.19-1.76,1.95l-2.46,2.57v.09h5.57v1.6h-8.14Z"/>
  </g>
  <g>
    <path class="cls-1" d="m207.11,43.49h-4v-12.36h4.13c1.21,0,2.25.25,3.12.74s1.54,1.2,2,2.12c.46.92.7,2.02.7,3.31s-.24,2.39-.7,3.32c-.47.93-1.15,1.64-2.03,2.13s-1.96.75-3.21.75Zm-2.14-1.63h2.03c.94,0,1.72-.18,2.35-.53.62-.36,1.09-.87,1.4-1.55.31-.68.46-1.51.46-2.48s-.15-1.79-.46-2.47c-.31-.68-.77-1.19-1.37-1.54s-1.36-.53-2.26-.53h-2.15v9.1Z"/>
    <path class="cls-1" d="m203.26,58.08v-1.51l5.34-8.44h1.19v2.22h-.75l-3.82,6.05v.1h7.32v1.58h-9.28Zm5.86,2.41v-3.56s.01-8.8.01-8.8h1.77v12.36h-1.78Z"/>
  </g>
  <g>
    <path class="cls-1" d="m132.11,62.91v8.73h-1.32v-7.41h-.05l-2.09,1.36v-1.26l2.18-1.42h1.28Z"/>
    <path class="cls-1" d="m136.15,70.45l-.06.46c-.04.34-.11.7-.22,1.07-.1.37-.2.71-.31,1.03-.11.32-.19.57-.26.76h-.9c.04-.18.09-.41.15-.71.06-.3.13-.63.19-1,.06-.37.11-.75.14-1.13l.04-.48h1.23Z"/>
    <path class="cls-1" d="m137.92,71.64v-.95l2.95-3.06c.32-.33.58-.62.78-.88.21-.25.36-.49.46-.72.1-.23.15-.47.15-.72,0-.29-.07-.54-.21-.75s-.32-.38-.56-.49c-.24-.11-.5-.17-.8-.17-.31,0-.58.06-.82.19-.23.13-.41.31-.54.54s-.19.51-.19.82h-1.26c0-.53.12-1,.37-1.39.25-.4.58-.71,1.01-.93.43-.22.91-.33,1.45-.33s1.03.11,1.45.33c.42.22.75.51.98.89s.35.79.35,1.26c0,.32-.06.64-.18.95-.12.31-.33.65-.63,1.03-.3.38-.71.84-1.24,1.38l-1.73,1.81v.06h3.93v1.13h-5.74Z"/>
  </g>
  <g>
    <path class="cls-1" d="m167.26,45.07v1.1h-3.87v-1.1h3.87Z"/>
    <path class="cls-1" d="m184.89,45.45v-1.1h5.66v1.1h-5.66Zm0,3.48v-1.12h5.66v1.12h-5.66Zm2.25-1.82v-4.41h1.15v4.41h-1.15Z"/>
  </g>
  <path class="cls-1" d="m198.51,28c-.11,0-.16.02-.19.14l-.33,6.17s-.65,13.54-.66,13.56c-.08.92-.14,1.84-.22,2.77-.07.82-.13,1.63-.19,2.45l-.2,2.49c-.06.74-.11,1.47-.17,2.25-.04-.04-.07-.06-.08-.09-.43-.7-.86-1.41-1.28-2.12-.45-.74-.9-1.48-1.35-2.23-.2-.33-.41-.65-.61-.99-.06-.1-.11-.11-.22-.09-.86.2-1.72.39-2.58.58-.07.01-.13.03-.2.04.11.53.23,1.04.34,1.57.06-.01.1-.02.14-.03.5-.11.99-.21,1.48-.33.07-.01.11,0,.16.06.45.74.92,1.48,1.38,2.21.58.92,1.15,1.84,1.74,2.76.3.48.61.95.91,1.44.06.08.09.08.17.07.45-.1.92-.21,1.38-.3.09-.02.11-.06.12-.14.06-.66.11-1.34.17-2,.03-.43.07-.85.1-1.28.07-.8.13-1.61.2-2.4.08-.96.17-1.92.24-2.88.06-.65.1-1.31.16-1.95.04-.54,1.01-12.9,1.57-20.13h14.18v-1.58h-5.77"/>
  <path class="cls-1" d="m187.01,74.25c-.42,0-.79-.08-1.12-.23-.34-.15-.6-.38-.79-.68s-.29-.66-.29-1.09c0-.37.07-.67.21-.91.14-.24.33-.43.58-.57s.51-.24.81-.32c.3-.07.6-.12.91-.16.39-.05.71-.08.96-.11.24-.03.42-.08.53-.15.11-.07.17-.18.17-.33v-.03c0-.37-.1-.66-.31-.86-.21-.2-.52-.31-.93-.31s-.77.09-1.01.28c-.25.19-.42.4-.51.63l-1.2-.27c.14-.4.35-.72.62-.96s.59-.42.95-.54c.36-.11.73-.17,1.13-.17.26,0,.54.03.83.09s.57.17.83.33.47.39.63.69c.17.3.25.69.25,1.17v4.35h-1.24v-.9h-.05c-.08.17-.21.33-.37.49s-.38.29-.63.4-.57.16-.93.16Zm.28-1.02c.35,0,.65-.07.91-.21.25-.14.44-.32.58-.55.13-.23.2-.47.2-.73v-.84s-.13.09-.26.13c-.13.04-.28.07-.44.1-.17.03-.33.05-.48.07-.16.02-.29.04-.39.05-.25.03-.47.08-.68.16-.2.07-.36.18-.49.32s-.18.32-.18.55c0,.32.12.55.35.71.23.16.53.24.89.24Z"/>
  <g>
    <path class="cls-1" d="m121.67,101.28l2.05,3.61,2.06-3.61h1.97l-2.89,4.64,2.92,4.64h-1.97l-2.09-3.47-2.08,3.47h-1.98l2.89-4.64-2.85-4.64h1.98Z"/>
    <path class="cls-1" d="m134.7,104.62v-1.59h7.73v1.59h-7.73Zm0,3.72v-1.59h7.73v1.59h-7.73Z"/>
    <path class="cls-1" d="m155.41,104.54v1.56h-5.48v-1.56h5.48Z"/>
  </g>
  <g>
    <path class="cls-1" d="m166.61,103.75v-12.36h1.8v4.59h.11c.1-.19.25-.42.45-.67.2-.25.47-.48.82-.67.35-.19.81-.29,1.39-.29.75,0,1.42.19,2,.57.59.38,1.05.92,1.39,1.64s.5,1.57.5,2.57-.17,1.86-.5,2.57-.79,1.26-1.38,1.65c-.58.38-1.25.58-2,.58-.56,0-1.02-.09-1.38-.28-.36-.19-.63-.41-.84-.66-.2-.25-.36-.48-.46-.68h-.15v1.44h-1.76Zm1.77-4.64c0,.65.09,1.22.28,1.71.19.49.46.87.82,1.15.36.28.8.41,1.32.41s.99-.14,1.35-.43c.36-.29.64-.68.82-1.17.19-.49.28-1.05.28-1.67s-.09-1.16-.27-1.65c-.18-.49-.46-.87-.82-1.15s-.82-.42-1.36-.42-.96.13-1.33.4-.63.65-.82,1.13c-.19.48-.28,1.05-.28,1.69Z"/>
    <path class="cls-1" d="m161.71,120.75v-1.35l4.18-4.33c.45-.47.82-.88,1.11-1.24.29-.36.51-.7.66-1.02.14-.32.22-.66.22-1.03,0-.41-.1-.77-.29-1.07-.19-.3-.46-.53-.79-.69-.33-.16-.71-.24-1.13-.24-.44,0-.83.09-1.16.27s-.58.44-.76.77c-.18.33-.27.72-.27,1.16h-1.78c0-.75.17-1.41.52-1.97s.82-1,1.42-1.31c.6-.31,1.29-.47,2.06-.47s1.46.15,2.06.46c.59.31,1.06.73,1.39,1.26.33.53.5,1.13.5,1.79,0,.46-.09.91-.26,1.35-.17.44-.47.93-.89,1.46-.42.54-1.01,1.19-1.76,1.95l-2.46,2.57v.09h5.57v1.6h-8.14Z"/>
    <path class="cls-1" d="m174.86,120.96c-.59,0-1.12-.11-1.59-.33-.48-.22-.85-.54-1.13-.96s-.41-.93-.41-1.54c0-.52.1-.95.3-1.29.2-.34.47-.61.81-.8s.72-.35,1.15-.45c.42-.1.85-.18,1.29-.23.55-.06,1.01-.12,1.35-.16.35-.04.6-.11.75-.21s.24-.25.24-.47v-.04c0-.53-.15-.94-.44-1.23-.3-.29-.74-.43-1.32-.43s-1.09.13-1.43.4c-.35.27-.59.56-.72.89l-1.7-.39c.2-.56.5-1.02.88-1.37.39-.35.84-.6,1.34-.76.51-.16,1.04-.24,1.6-.24.37,0,.76.04,1.18.13.42.09.81.24,1.17.47.36.23.66.56.9.98.23.42.35.97.35,1.65v6.16h-1.76v-1.27h-.07c-.12.23-.29.46-.52.69-.23.23-.53.41-.9.56s-.8.22-1.32.22Zm.39-1.45c.5,0,.93-.1,1.28-.3.36-.2.63-.46.82-.78.19-.32.28-.66.28-1.03v-1.2c-.06.06-.19.12-.37.18-.18.05-.39.1-.62.14-.23.04-.46.07-.68.1-.22.03-.41.06-.56.08-.35.04-.67.12-.96.22s-.52.25-.69.45c-.17.2-.26.45-.26.78,0,.45.17.78.5,1.01.33.23.75.34,1.26.34Z"/>
  </g>
  <g>
    <path class="cls-1" d="m122.18,148.5v9.27h-1.77v-9.27h1.77Zm4.52,3.86v1.56h-5.02v-1.56h5.02Zm1.26-3.86v9.27h-1.76v-9.27h1.76Z"/>
    <path class="cls-1" d="m134.37,157.96c-.91,0-1.7-.2-2.36-.59-.66-.39-1.17-.95-1.52-1.66-.36-.71-.53-1.55-.53-2.51s.18-1.79.53-2.51c.36-.72.86-1.29,1.5-1.7.64-.41,1.39-.61,2.25-.61.52,0,1.03.09,1.52.26.49.17.93.44,1.32.81.39.37.7.85.92,1.44.22.59.34,1.3.34,2.15v.64h-7.37v-1.35h5.6c0-.47-.1-.9-.29-1.26-.19-.37-.46-.66-.81-.87-.35-.21-.76-.32-1.22-.32-.51,0-.95.12-1.33.37-.38.25-.67.57-.87.97-.2.4-.31.83-.31,1.29v1.06c0,.62.11,1.15.33,1.58.22.43.53.77.92.99.39.23.85.34,1.38.34.34,0,.65-.05.94-.15s.53-.25.73-.44c.21-.2.36-.44.47-.73l1.71.31c-.14.5-.38.94-.73,1.32-.35.38-.79.67-1.32.88-.53.21-1.13.31-1.81.31Z"/>
    <path class="cls-1" d="m139.83,150.06v-1.56h7.82v1.56h-3.02v7.71h-1.76v-7.71h-3.04Z"/>
    <path class="cls-1" d="m154.07,157.78v-9.27h1.8v3.89h.87l3.06-3.89h2.23l-3.59,4.51,3.63,4.76h-2.24l-2.79-3.71h-1.18v3.71h-1.8Z"/>
    <path class="cls-1" d="m167.38,157.96c-.87,0-1.63-.2-2.28-.6-.65-.4-1.15-.96-1.51-1.67-.36-.72-.54-1.55-.54-2.51s.18-1.8.54-2.52c.36-.72.86-1.28,1.51-1.68.65-.4,1.41-.6,2.28-.6s1.63.2,2.28.6c.65.4,1.15.96,1.51,1.68.36.72.54,1.56.54,2.52s-.18,1.79-.54,2.51c-.36.72-.86,1.27-1.51,1.67-.65.4-1.41.6-2.28.6Zm0-1.52c.56,0,1.03-.15,1.4-.45.37-.3.65-.69.82-1.19.18-.5.27-1.04.27-1.64s-.09-1.14-.27-1.63c-.18-.5-.45-.9-.82-1.2-.37-.3-.84-.45-1.4-.45s-1.04.15-1.41.45-.65.7-.83,1.2-.27,1.04-.27,1.63.09,1.14.27,1.64.46.89.83,1.19.84.45,1.41.45Z"/>
    <path class="cls-1" d="m173.71,161.25v-12.75h1.76v1.5h.15c.11-.19.26-.42.45-.67.2-.25.47-.48.82-.67.35-.19.81-.29,1.39-.29.75,0,1.42.19,2,.57.59.38,1.05.92,1.39,1.64.34.71.5,1.57.5,2.57s-.17,1.86-.5,2.57c-.33.71-.79,1.26-1.38,1.65-.58.38-1.25.58-2,.58-.56,0-1.02-.09-1.38-.28-.36-.19-.63-.41-.84-.66s-.36-.48-.46-.68h-.11v4.92h-1.81Zm1.77-8.11c0,.65.09,1.22.28,1.71s.46.87.82,1.15c.36.28.8.41,1.32.41s.99-.14,1.35-.43c.36-.29.64-.68.82-1.17.19-.5.28-1.05.28-1.67s-.09-1.16-.27-1.65c-.18-.49-.46-.87-.82-1.15-.36-.28-.82-.42-1.36-.42s-.96.13-1.32.4c-.36.27-.63.65-.82,1.13-.19.48-.28,1.05-.28,1.69Z"/>
    <path class="cls-1" d="m185.97,148.5v9.27h-1.77v-9.27h1.77Zm4.52,3.86v1.56h-5.02v-1.56h5.02Zm1.26-3.86v9.27h-1.76v-9.27h1.76Z"/>
    <path class="cls-1" d="m198.16,157.96c-.91,0-1.7-.2-2.36-.59s-1.17-.95-1.52-1.66c-.36-.71-.53-1.55-.53-2.51s.18-1.79.53-2.51c.36-.72.86-1.29,1.5-1.7.64-.41,1.39-.61,2.25-.61.52,0,1.03.09,1.52.26s.93.44,1.32.81c.39.37.7.85.92,1.44.22.59.34,1.3.34,2.15v.64h-7.37v-1.35h5.6c0-.47-.1-.9-.29-1.26s-.46-.66-.81-.87c-.35-.21-.76-.32-1.22-.32-.51,0-.95.12-1.32.37-.38.25-.67.57-.87.97s-.3.83-.3,1.29v1.06c0,.62.11,1.15.33,1.58.22.43.53.77.92.99.39.23.86.34,1.38.34.34,0,.65-.05.94-.15.28-.1.52-.25.73-.44.21-.2.36-.44.47-.73l1.71.31c-.14.5-.38.94-.73,1.32-.35.38-.79.67-1.32.88s-1.13.31-1.81.31Z"/>
    <path class="cls-1" d="m205.91,155.25l4.09-6.74h1.94v9.27h-1.77v-6.75l-4.07,6.75h-1.96v-9.27h1.77v6.74Zm3.31-9.88h1.48c0,.68-.24,1.23-.72,1.66-.48.42-1.13.64-1.95.64s-1.46-.21-1.94-.64c-.48-.42-.72-.98-.72-1.66h1.48c0,.3.09.57.27.8.18.23.48.35.91.35s.73-.12.91-.34c.18-.23.28-.5.28-.8Z"/>
  </g>
</svg>