<?xml version="1.0" encoding="UTF-8"?>
<svg id="Layer_1" data-name="Layer 1" xmlns="http://www.w3.org/2000/svg" viewBox="0 0 117.72 97.11">
  <defs>
    <style>
      .cls-1 {
        fill: #fff;
      }

      .cls-2 {
        fill: #d1ae59;
        opacity: .3;
      }

      .cls-2, .cls-3 {
        stroke: #d1ae59;
        stroke-miterlimit: 10;
        stroke-width: 2px;
      }

      .cls-3 {
        fill: none;
      }
    </style>
  </defs>
  <polyline class="cls-3" points="115.36 3.91 4.93 62.36 115.89 92.58"/>
  <line class="cls-3" x1="4.93" y1="62.36" x2="117.18" y2="46.69"/>
  <polygon class="cls-2" points="54.21 37.96 69.63 53.33 52.53 73.15 54.21 37.96"/>
  <polygon class="cls-2" points="80.96 24.05 105.48 48.5 78.28 80.02 80.96 24.05"/>
  <polygon class="cls-3" points="54.21 37.96 69.63 53.33 52.53 73.15 54.21 37.96"/>
  <polygon class="cls-3" points="80.96 24.05 105.48 48.5 78.28 80.02 80.96 24.05"/>
  <path class="cls-1" d="m8.54,54.06c0,.93-.17,1.73-.51,2.4s-.81,1.18-1.4,1.54-1.26.54-2.02.54-1.43-.18-2.02-.54-1.06-.87-1.4-1.54c-.34-.67-.51-1.47-.51-2.4s.17-1.73.51-2.4c.34-.67.81-1.18,1.4-1.54s1.27-.54,2.02-.54,1.43.18,2.02.54,1.06.87,1.4,1.54c.34.67.51,1.47.51,2.4Zm-1.3,0c0-.71-.11-1.31-.34-1.8-.23-.49-.54-.86-.94-1.11-.4-.25-.84-.38-1.34-.38s-.95.13-1.35.38c-.4.25-.71.62-.94,1.11-.23.49-.34,1.09-.34,1.8s.11,1.31.34,1.8c.23.49.54.86.94,1.11.4.25.84.38,1.35.38s.95-.12,1.34-.38c.4-.25.71-.62.94-1.11.23-.49.34-1.09.34-1.8Z"/>
</svg>