<?xml version="1.0" encoding="UTF-8"?>
<svg xmlns="http://www.w3.org/2000/svg" viewBox="0 0 150.25 150.5">
  <defs>
    <style>
      .cls-1 {
        fill: #fff;
      }

      .cls-2, .cls-3 {
        stroke: #fff;
      }

      .cls-2, .cls-3, .cls-4 {
        fill: none;
        stroke-miterlimit: 10;
      }

      .cls-3 {
        stroke-width: 2px;
      }

      .cls-4 {
        opacity: .3;
        stroke: #bdccd4;
        stroke-width: .5px;
      }
    </style>
  </defs>
  <g id="Layer_1" data-name="Layer 1">
    <rect class="cls-4" x=".25" y=".25" width="149.75" height="150"/>
    <line class="cls-4" x1="70" y1=".25" x2="70" y2="150.25"/>
    <line class="cls-4" x1="60" y1=".25" x2="60" y2="150.25"/>
    <line class="cls-4" x1="50" y1=".25" x2="50" y2="150.25"/>
    <line class="cls-4" x1="40" y1=".25" x2="40" y2="150.25"/>
    <line class="cls-4" x1="30" y1=".25" x2="30" y2="150.25"/>
    <line class="cls-4" x1="20" y1=".25" x2="20" y2="150.25"/>
    <line class="cls-4" x1="10" y1=".25" x2="10" y2="150.25"/>
    <line class="cls-4" x1="150" y1="80.25" x2=".5" y2="80.25"/>
    <line class="cls-4" x1="150" y1="90.25" x2=".5" y2="90.25"/>
    <line class="cls-4" x1="150" y1="100.25" x2=".5" y2="100.25"/>
    <line class="cls-4" x1="150" y1="110.25" x2=".5" y2="110.25"/>
    <line class="cls-4" x1="150" y1="120.25" x2=".5" y2="120.25"/>
    <line class="cls-4" x1="150" y1="130.25" x2=".5" y2="130.25"/>
    <line class="cls-4" x1="150" y1="140.25" x2=".5" y2="140.25"/>
    <line class="cls-4" x1="150" y1="70.25" x2=".5" y2="70.25"/>
    <line class="cls-4" x1="150" y1="60.25" x2=".5" y2="60.25"/>
    <line class="cls-4" x1="150" y1="50.25" x2=".5" y2="50.25"/>
    <line class="cls-4" x1="150" y1="40.25" x2=".5" y2="40.25"/>
    <line class="cls-4" x1="150" y1="30.25" x2=".5" y2="30.25"/>
    <line class="cls-4" x1="150" y1="20.25" x2=".5" y2="20.25"/>
    <line class="cls-4" x1="150" y1="10.25" x2=".5" y2="10.25"/>
    <line class="cls-4" x1="80" y1=".25" x2="80" y2="150.25"/>
    <line class="cls-4" x1="90" y1=".25" x2="90" y2="150.25"/>
    <line class="cls-4" x1="100" y1=".25" x2="100" y2="150.25"/>
    <line class="cls-4" x1="110" y1=".25" x2="110" y2="150.25"/>
    <line class="cls-4" x1="120" y1=".25" x2="120" y2="150.25"/>
    <line class="cls-4" x1="130" y1=".25" x2="130" y2="150.25"/>
    <line class="cls-4" x1="140" y1=".25" x2="140" y2="150.25"/>
  </g>
  <g id="Layer_2" data-name="Layer 2">
    <polygon class="cls-1" points="70 4.03 66.41 10.25 73.59 10.25 70 4.03"/>
    <polygon class="cls-1" points="146.22 90.25 140 86.66 140 93.84 146.22 90.25"/>
    <line class="cls-3" x1="10" y1="90.25" x2="140" y2="90.25"/>
    <line class="cls-3" x1="70" y1="10.25" x2="70" y2="140.25"/>
    <line class="cls-2" x1="80" y1="87.04" x2="80" y2="93.46"/>
    <line class="cls-2" x1="66.79" y1="80.25" x2="73.21" y2="80.25"/>
    <path class="cls-1" d="m136.91,100.12l2.05,3.61,2.06-3.61h1.97l-2.89,4.64,2.92,4.64h-1.97l-2.09-3.46-2.08,3.46h-1.98l2.89-4.64-2.85-4.64h1.98Z"/>
    <path class="cls-1" d="m51.48,21.25c-.27,0-.52-.02-.74-.06-.22-.04-.39-.09-.49-.14l.43-1.48c.33.09.62.13.88.11.26-.01.49-.11.69-.29s.38-.48.53-.89l.22-.62-3.39-9.39h1.93l2.35,7.2h.1l2.35-7.2h1.94l-3.82,10.51c-.18.48-.4.89-.68,1.23-.27.34-.6.59-.98.76s-.82.25-1.32.25Z"/>
    <path class="cls-1" d="m81.13,97.03v12.36h-1.87v-10.49h-.07l-2.96,1.93v-1.79l3.08-2.02h1.82Z"/>
    <path class="cls-1" d="m62.47,74.29v12.36h-1.87v-10.49h-.07l-2.96,1.93v-1.79l3.08-2.02h1.82Z"/>
  </g>
</svg>