<?xml version="1.0" encoding="UTF-8"?>
<svg id="Layer_1" data-name="Layer 1" xmlns="http://www.w3.org/2000/svg" viewBox="0 0 213.24 52.66">
  <defs>
    <style>
      .cls-1 {
        fill: #fff;
      }

      .cls-2 {
        fill: #d1ae59;
      }
    </style>
  </defs>
  <g>
    <path class="cls-2" d="m7.13,8.8c-.05-.49-.25-.87-.62-1.13s-.86-.4-1.49-.4c-.43,0-.79.06-1.08.18-.29.12-.52.28-.67.49-.16.21-.23.45-.23.71,0,.22.04.41.14.58s.25.31.43.43.39.22.63.31.49.16.76.22l1.11.27c.54.12,1.03.28,1.49.48.45.2.84.45,1.17.74.33.29.59.64.77,1.04.18.4.28.85.28,1.37,0,.76-.2,1.41-.58,1.97-.38.55-.93.98-1.64,1.29-.71.3-1.57.46-2.58.46s-1.87-.15-2.6-.46-1.31-.76-1.73-1.36c-.41-.6-.63-1.35-.65-2.24h2.53c.03.41.15.76.36,1.04.21.28.5.48.85.62s.76.21,1.21.21.83-.06,1.16-.19.58-.31.76-.54c.18-.23.27-.49.27-.79,0-.28-.08-.51-.24-.7-.16-.19-.4-.35-.71-.48-.31-.13-.69-.25-1.14-.36l-1.35-.34c-1.04-.25-1.87-.65-2.47-1.19-.6-.54-.9-1.27-.9-2.18,0-.75.2-1.4.6-1.96.4-.56.96-1,1.67-1.31.71-.31,1.51-.47,2.41-.47s1.72.16,2.41.47c.69.31,1.22.75,1.6,1.31.38.56.58,1.21.59,1.94h-2.51Z"/>
    <path class="cls-1" d="m16.78,11.67v-1.59h7.73v1.59h-7.73Zm0,3.72v-1.59h7.73v1.59h-7.73Z"/>
    <path class="cls-1" d="m41.03,21.08v-12.75h1.76v1.5h.15c.1-.19.26-.42.45-.67.2-.25.47-.48.82-.67.35-.19.81-.29,1.39-.29.75,0,1.42.19,2,.57.59.38,1.05.92,1.38,1.64.34.71.5,1.57.5,2.57s-.17,1.86-.5,2.57c-.33.71-.79,1.26-1.38,1.65s-1.25.58-2,.58c-.56,0-1.02-.09-1.38-.28-.36-.19-.63-.41-.84-.66s-.36-.48-.46-.68h-.11v4.92h-1.8Zm1.77-8.11c0,.65.09,1.22.28,1.71.19.49.46.87.82,1.15.36.28.8.41,1.32.41s.99-.14,1.35-.43c.36-.29.64-.68.82-1.17.19-.49.28-1.05.28-1.67s-.09-1.16-.28-1.65c-.18-.49-.46-.87-.82-1.15s-.82-.42-1.36-.42-.96.13-1.33.4-.63.65-.82,1.13c-.18.48-.28,1.05-.28,1.69Z"/>
    <path class="cls-1" d="m56.55,12.48c0-1.51.2-2.91.6-4.18.4-1.27.98-2.44,1.75-3.52h1.65c-.3.4-.58.89-.83,1.47-.26.58-.48,1.21-.68,1.9-.19.69-.34,1.4-.45,2.14-.11.74-.16,1.47-.16,2.18,0,.96.09,1.93.28,2.91.19.98.45,1.89.77,2.73.32.84.68,1.53,1.08,2.06h-1.65c-.76-1.07-1.35-2.25-1.75-3.52-.4-1.27-.6-2.67-.6-4.18Z"/>
    <path class="cls-1" d="m62.45,21.08v-12.75h1.76v1.5h.15c.1-.19.26-.42.45-.67.2-.25.47-.48.82-.67.35-.19.81-.29,1.39-.29.75,0,1.42.19,2,.57.59.38,1.05.92,1.38,1.64.34.71.5,1.57.5,2.57s-.17,1.86-.5,2.57c-.33.71-.79,1.26-1.38,1.65s-1.25.58-2,.58c-.56,0-1.02-.09-1.38-.28-.36-.19-.63-.41-.84-.66s-.36-.48-.46-.68h-.11v4.92h-1.8Zm1.77-8.11c0,.65.09,1.22.28,1.71.19.49.46.87.82,1.15.36.28.8.41,1.32.41s.99-.14,1.35-.43c.36-.29.64-.68.82-1.17.19-.49.28-1.05.28-1.67s-.09-1.16-.28-1.65c-.18-.49-.46-.87-.82-1.15s-.82-.42-1.36-.42-.96.13-1.33.4-.63.65-.82,1.13c-.18.48-.28,1.05-.28,1.69Z"/>
    <path class="cls-1" d="m82.91,11.6v1.56h-5.48v-1.56h5.48Z"/>
    <path class="cls-1" d="m92.52,17.81c-.59,0-1.12-.11-1.59-.33-.48-.22-.85-.54-1.13-.96s-.41-.93-.41-1.54c0-.52.1-.95.3-1.29.2-.34.47-.61.81-.8s.72-.35,1.15-.45c.42-.1.85-.18,1.29-.23.55-.06,1.01-.12,1.35-.16.35-.04.6-.11.75-.21s.24-.25.24-.47v-.04c0-.53-.15-.94-.44-1.23-.3-.29-.74-.43-1.32-.43s-1.09.13-1.43.4c-.35.27-.59.56-.72.89l-1.7-.39c.2-.56.5-1.02.88-1.37.39-.35.84-.6,1.34-.76.51-.16,1.04-.24,1.6-.24.37,0,.76.04,1.18.13.42.09.81.24,1.17.47.36.23.66.56.9.98.23.42.35.97.35,1.65v6.16h-1.76v-1.27h-.07c-.12.23-.29.46-.52.69-.23.23-.53.41-.9.56s-.8.22-1.32.22Zm.39-1.45c.5,0,.93-.1,1.28-.3.36-.2.63-.46.82-.78.19-.32.28-.66.28-1.03v-1.2c-.06.06-.19.12-.37.18-.18.05-.39.1-.62.14-.23.04-.46.07-.68.1-.22.03-.41.06-.56.08-.35.04-.67.12-.96.22s-.52.25-.69.45c-.17.2-.26.45-.26.78,0,.45.17.78.5,1.01.33.23.75.34,1.26.34Z"/>
    <path class="cls-1" d="m102.97,12.48c0,1.52-.2,2.91-.6,4.18-.4,1.27-.98,2.44-1.74,3.52h-1.65c.3-.4.58-.89.83-1.47.26-.58.48-1.21.68-1.9s.34-1.41.45-2.15c.11-.74.16-1.47.16-2.19,0-.95-.09-1.92-.28-2.9s-.44-1.89-.77-2.73c-.32-.84-.68-1.53-1.07-2.06h1.65c.76,1.07,1.35,2.25,1.74,3.52.4,1.27.6,2.66.6,4.18Z"/>
    <path class="cls-1" d="m110.95,12.48c0-1.51.2-2.91.6-4.18.4-1.27.98-2.44,1.75-3.52h1.65c-.3.4-.58.89-.83,1.47-.26.58-.48,1.21-.68,1.9-.19.69-.34,1.4-.45,2.14-.11.74-.16,1.47-.16,2.18,0,.96.09,1.93.28,2.91.19.98.45,1.89.77,2.73.32.84.68,1.53,1.08,2.06h-1.65c-.76-1.07-1.35-2.25-1.75-3.52-.4-1.27-.6-2.67-.6-4.18Z"/>
    <path class="cls-1" d="m116.85,21.08v-12.75h1.76v1.5h.15c.1-.19.26-.42.45-.67.2-.25.47-.48.82-.67.35-.19.81-.29,1.39-.29.75,0,1.42.19,2,.57.59.38,1.05.92,1.38,1.64.34.71.5,1.57.5,2.57s-.17,1.86-.5,2.57c-.33.71-.79,1.26-1.38,1.65s-1.25.58-2,.58c-.56,0-1.02-.09-1.38-.28-.36-.19-.63-.41-.84-.66s-.36-.48-.46-.68h-.11v4.92h-1.8Zm1.77-8.11c0,.65.09,1.22.28,1.71.19.49.46.87.82,1.15.36.28.8.41,1.32.41s.99-.14,1.35-.43c.36-.29.64-.68.82-1.17.19-.49.28-1.05.28-1.67s-.09-1.16-.28-1.65c-.18-.49-.46-.87-.82-1.15s-.82-.42-1.36-.42-.96.13-1.33.4-.63.65-.82,1.13c-.18.48-.28,1.05-.28,1.69Z"/>
    <path class="cls-1" d="m137.3,11.6v1.56h-5.48v-1.56h5.48Z"/>
    <path class="cls-1" d="m144.36,17.61V5.24h1.8v4.59h.11c.1-.19.25-.42.45-.67.2-.25.47-.48.82-.67.35-.19.81-.29,1.39-.29.75,0,1.42.19,2,.57.59.38,1.05.92,1.39,1.64s.5,1.57.5,2.57-.17,1.86-.5,2.57-.79,1.26-1.38,1.65c-.58.38-1.25.58-2,.58-.56,0-1.02-.09-1.38-.28-.36-.19-.63-.41-.84-.66-.2-.25-.36-.48-.46-.68h-.15v1.44h-1.76Zm1.77-4.64c0,.65.09,1.22.28,1.71.19.49.46.87.82,1.15.36.28.8.41,1.32.41s.99-.14,1.35-.43c.36-.29.64-.68.82-1.17.19-.49.28-1.05.28-1.67s-.09-1.16-.27-1.65c-.18-.49-.46-.87-.82-1.15s-.82-.42-1.36-.42-.96.13-1.33.4-.63.65-.82,1.13c-.19.48-.28,1.05-.28,1.69Z"/>
    <path class="cls-1" d="m158.32,12.48c0,1.52-.2,2.91-.6,4.18-.4,1.27-.98,2.44-1.74,3.52h-1.65c.3-.4.58-.89.83-1.47.26-.58.48-1.21.68-1.9s.34-1.41.45-2.15c.11-.74.16-1.47.16-2.19,0-.95-.09-1.92-.28-2.9s-.44-1.89-.77-2.73c-.32-.84-.68-1.53-1.07-2.06h1.65c.76,1.07,1.35,2.25,1.74,3.52.4,1.27.6,2.66.6,4.18Z"/>
    <path class="cls-1" d="m166.3,12.48c0-1.51.2-2.91.6-4.18.4-1.27.98-2.44,1.75-3.52h1.65c-.3.4-.58.89-.83,1.47-.26.58-.48,1.21-.68,1.9-.19.69-.34,1.4-.45,2.14-.11.74-.16,1.47-.16,2.18,0,.96.09,1.93.28,2.91.19.98.45,1.89.77,2.73.32.84.68,1.53,1.08,2.06h-1.65c-.76-1.07-1.35-2.25-1.75-3.52-.4-1.27-.6-2.67-.6-4.18Z"/>
    <path class="cls-1" d="m172.2,21.08v-12.75h1.76v1.5h.15c.1-.19.26-.42.45-.67.2-.25.47-.48.82-.67.35-.19.81-.29,1.39-.29.75,0,1.42.19,2,.57.59.38,1.05.92,1.38,1.64.34.71.5,1.57.5,2.57s-.17,1.86-.5,2.57c-.33.71-.79,1.26-1.38,1.65s-1.25.58-2,.58c-.56,0-1.02-.09-1.38-.28-.36-.19-.63-.41-.84-.66s-.36-.48-.46-.68h-.11v4.92h-1.8Zm1.77-8.11c0,.65.09,1.22.28,1.71.19.49.46.87.82,1.15.36.28.8.41,1.32.41s.99-.14,1.35-.43c.36-.29.64-.68.82-1.17.19-.49.28-1.05.28-1.67s-.09-1.16-.28-1.65c-.18-.49-.46-.87-.82-1.15s-.82-.42-1.36-.42-.96.13-1.33.4-.63.65-.82,1.13c-.18.48-.28,1.05-.28,1.69Z"/>
    <path class="cls-1" d="m192.66,11.6v1.56h-5.48v-1.56h5.48Z"/>
    <path class="cls-1" d="m203.48,17.79c-.9,0-1.67-.2-2.32-.61-.65-.41-1.14-.97-1.49-1.69-.35-.72-.52-1.55-.52-2.48s.18-1.77.53-2.5.85-1.29,1.5-1.69,1.4-.61,2.28-.61c.7,0,1.33.13,1.88.39.55.26,1,.62,1.34,1.09.34.47.54,1.01.61,1.64h-1.76c-.1-.43-.32-.81-.66-1.12s-.8-.47-1.38-.47c-.5,0-.94.13-1.32.4-.38.26-.67.64-.88,1.12-.21.49-.31,1.06-.31,1.72s.1,1.26.31,1.75c.21.49.5.87.87,1.14.38.27.82.4,1.33.4.34,0,.65-.06.93-.19.28-.13.51-.31.71-.55s.33-.52.4-.86h1.76c-.06.6-.26,1.14-.59,1.61s-.76.84-1.31,1.11c-.55.27-1.18.4-1.92.4Z"/>
    <path class="cls-1" d="m212.7,12.48c0,1.52-.2,2.91-.6,4.18-.4,1.27-.98,2.44-1.74,3.52h-1.65c.3-.4.58-.89.83-1.47.26-.58.48-1.21.68-1.9s.34-1.41.45-2.15c.11-.74.16-1.47.16-2.19,0-.95-.09-1.92-.28-2.9s-.44-1.89-.77-2.73c-.32-.84-.68-1.53-1.07-2.06h1.65c.76,1.07,1.35,2.25,1.74,3.52.4,1.27.6,2.66.6,4.18Z"/>
    <path class="cls-1" d="m46.46,46.08v-12.75h1.76v1.5h.15c.1-.19.26-.42.45-.67.2-.25.47-.48.82-.67.35-.19.81-.29,1.39-.29.75,0,1.42.19,2,.57.59.38,1.05.92,1.38,1.64.34.71.5,1.57.5,2.57s-.17,1.86-.5,2.57c-.33.71-.79,1.26-1.38,1.65s-1.25.58-2,.58c-.56,0-1.02-.09-1.38-.28-.36-.19-.63-.41-.84-.66s-.36-.48-.46-.68h-.11v4.92h-1.8Zm1.77-8.11c0,.65.09,1.22.28,1.71.19.49.46.87.82,1.15.36.28.8.41,1.32.41s.99-.14,1.35-.43c.36-.29.64-.68.82-1.17.19-.49.28-1.05.28-1.67s-.09-1.16-.28-1.65c-.18-.49-.46-.87-.82-1.15s-.82-.42-1.36-.42-.96.13-1.33.4-.63.65-.82,1.13c-.18.48-.28,1.05-.28,1.69Z"/>
    <path class="cls-1" d="m62.04,36.67v-1.59h7.73v1.59h-7.73Zm0,3.72v-1.59h7.73v1.59h-7.73Z"/>
    <path class="cls-1" d="m86.81,37.48c0-1.51.2-2.91.6-4.18.4-1.27.98-2.44,1.75-3.52h1.65c-.3.4-.58.89-.83,1.47-.26.58-.48,1.21-.68,1.9-.19.69-.34,1.4-.45,2.14-.11.74-.16,1.47-.16,2.18,0,.96.09,1.93.28,2.91.19.98.45,1.89.77,2.73.32.84.68,1.53,1.08,2.06h-1.65c-.76-1.07-1.35-2.25-1.75-3.52-.4-1.27-.6-2.67-.6-4.18Z"/>
    <path class="cls-1" d="m95.41,42.81c-.59,0-1.12-.11-1.59-.33-.48-.22-.85-.54-1.13-.96s-.41-.93-.41-1.54c0-.52.1-.95.3-1.29.2-.34.47-.61.81-.8s.72-.35,1.15-.45c.42-.1.85-.18,1.29-.23.55-.06,1.01-.12,1.35-.16.35-.04.6-.11.75-.21s.24-.25.24-.47v-.04c0-.53-.15-.94-.44-1.23-.3-.29-.74-.43-1.32-.43s-1.09.13-1.43.4c-.35.27-.59.56-.72.89l-1.7-.39c.2-.56.5-1.02.88-1.37.39-.35.84-.6,1.34-.76.51-.16,1.04-.24,1.6-.24.37,0,.76.04,1.18.13.42.09.81.24,1.17.47.36.23.66.56.9.98.23.42.35.97.35,1.65v6.16h-1.76v-1.27h-.07c-.12.23-.29.46-.52.69-.23.23-.53.41-.9.56s-.8.22-1.32.22Zm.39-1.45c.5,0,.93-.1,1.28-.3.36-.2.63-.46.82-.78.19-.32.28-.66.28-1.03v-1.2c-.06.06-.19.12-.37.18-.18.05-.39.1-.62.14-.23.04-.46.07-.68.1-.22.03-.41.06-.56.08-.35.04-.67.12-.96.22s-.52.25-.69.45c-.17.2-.26.45-.26.78,0,.45.17.78.5,1.01.33.23.75.34,1.26.34Z"/>
    <path class="cls-1" d="m107.26,38.55v-1.62h8.16v1.62h-8.16Zm3.27,3.27v-8.16h1.62v8.16h-1.62Z"/>
    <path class="cls-1" d="m122.86,42.61v-12.36h1.8v4.59h.11c.1-.19.25-.42.45-.67.2-.25.47-.48.82-.67.35-.19.81-.29,1.39-.29.75,0,1.42.19,2,.57.59.38,1.05.92,1.39,1.64s.5,1.57.5,2.57-.17,1.86-.5,2.57-.79,1.26-1.38,1.65c-.58.38-1.25.58-2,.58-.56,0-1.02-.09-1.38-.28-.36-.19-.63-.41-.84-.66-.2-.25-.36-.48-.46-.68h-.15v1.44h-1.76Zm1.77-4.64c0,.65.09,1.22.28,1.71.19.49.46.87.82,1.15.36.28.8.41,1.32.41s.99-.14,1.35-.43c.36-.29.64-.68.82-1.17.19-.49.28-1.05.28-1.67s-.09-1.16-.27-1.65c-.18-.49-.46-.87-.82-1.15s-.82-.42-1.36-.42-.96.13-1.33.4-.63.65-.82,1.13c-.19.48-.28,1.05-.28,1.69Z"/>
    <path class="cls-1" d="m138.22,38.55v-1.62h8.16v1.62h-8.16Zm3.27,3.27v-8.16h1.62v8.16h-1.62Z"/>
    <path class="cls-1" d="m157.58,42.79c-.9,0-1.67-.2-2.32-.61-.65-.41-1.14-.97-1.49-1.69-.35-.72-.52-1.55-.52-2.48s.18-1.77.53-2.5.85-1.29,1.5-1.69,1.4-.61,2.28-.61c.7,0,1.33.13,1.88.39.55.26,1,.62,1.34,1.09.34.47.54,1.01.61,1.64h-1.76c-.1-.43-.32-.81-.66-1.12s-.8-.47-1.38-.47c-.5,0-.94.13-1.32.4-.38.26-.67.64-.88,1.12-.21.49-.31,1.06-.31,1.72s.1,1.26.31,1.75c.21.49.5.87.87,1.14.38.27.82.4,1.33.4.34,0,.65-.06.93-.19.28-.13.51-.31.71-.55s.33-.52.4-.86h1.76c-.06.6-.26,1.14-.59,1.61s-.76.84-1.31,1.11c-.55.27-1.18.4-1.92.4Z"/>
    <path class="cls-1" d="m166.8,37.48c0,1.52-.2,2.91-.6,4.18-.4,1.27-.98,2.44-1.74,3.52h-1.65c.3-.4.58-.89.83-1.47.26-.58.48-1.21.68-1.9s.34-1.41.45-2.15c.11-.74.16-1.47.16-2.19,0-.95-.09-1.92-.28-2.9s-.44-1.89-.77-2.73c-.32-.84-.68-1.53-1.07-2.06h1.65c.76,1.07,1.35,2.25,1.74,3.52.4,1.27.6,2.66.6,4.18Z"/>
  </g>
  <g>
    <path class="cls-1" d="m80.15,23.3v12.36h-1.87v-10.49h-.07l-2.96,1.93v-1.79l3.08-2.02h1.82Z"/>
    <path class="cls-1" d="m74.26,52.66v-1.35l4.18-4.33c.45-.47.82-.88,1.11-1.24.29-.36.51-.69.66-1.02.14-.32.22-.66.22-1.03,0-.41-.1-.77-.29-1.07s-.46-.53-.79-.69-.71-.25-1.13-.25c-.44,0-.83.09-1.16.27-.33.18-.58.44-.76.77s-.27.72-.27,1.16h-1.78c0-.75.17-1.41.52-1.97s.82-1,1.42-1.31c.6-.31,1.29-.47,2.06-.47s1.46.15,2.06.46c.59.31,1.06.73,1.39,1.26s.5,1.13.5,1.79c0,.46-.09.91-.26,1.35-.17.44-.47.93-.89,1.46-.42.54-1.01,1.19-1.76,1.95l-2.46,2.57v.09h5.57v1.6h-8.14Z"/>
  </g>
  <rect class="cls-1" x="74.25" y="36.81" width="8.96" height="1.42"/>
  <path class="cls-1" d="m213.21,0v1.59c-7.1,0-165.93,0-173.03,0-.15.47-2.18,6.88-2.32,7.35-.29.93-.58,1.87-.87,2.8-.19.63-.38,1.26-.58,1.9-.29.93-.58,1.86-.86,2.79-.24.78-.48,1.56-.72,2.34-.13.42-.25.83-.38,1.25-.2.65-.4,1.3-.6,1.95-.03.09-.06.12-.15.12-.48,0-.95,0-1.43,0-.07,0-.12,0-.15-.1-.19-.54-.39-1.08-.58-1.62-.37-1.03-.74-2.07-1.11-3.1-.3-.83-.59-1.66-.88-2.49-.03-.07-.07-.09-.14-.09-.51,0-1.02,0-1.53,0h-.15v-1.62h.21c.89,0,1.78,0,2.68,0,.11,0,.17.03.2.14.12.37.26.74.38,1.11.28.83.57,1.66.85,2.49.27.79.54,1.58.81,2.36.01.03.03.05.06.1.22-.74.44-1.46.66-2.18.25-.81.49-1.61.74-2.42.24-.79.48-1.59.72-2.38.27-.9.55-1.79.82-2.69.23-.76.46-1.52.69-2.28.12-.4,2.11-6.79,2.22-7.19.03-.12.05-.1.16-.1,3.48,0,6.2,0,9.69,0h11.87C60.55,0,213.14,0,213.21,0Z"/>
</svg>