<?xml version="1.0" encoding="UTF-8"?>
<svg id="Layer_1" data-name="Layer 1" xmlns="http://www.w3.org/2000/svg" viewBox="0 0 267.22 117">
  <defs>
    <style>
      .cls-1 {
        fill: #fff;
      }

      .cls-2, .cls-3 {
        fill: #d1ae59;
      }

      .cls-4 {
        stroke-dasharray: 0 0 4 3;
      }

      .cls-4, .cls-3, .cls-5 {
        stroke: #d1ae59;
        stroke-miterlimit: 10;
        stroke-width: 2px;
      }

      .cls-4, .cls-5 {
        fill: none;
      }

      .cls-3 {
        opacity: .3;
      }
    </style>
  </defs>
  <polygon class="cls-3" points="195.5 100.81 3.06 100.81 71.55 36.3 263.99 36.3 195.5 100.81"/>
  <circle class="cls-2" cx="172.15" cy="23.13" r="3.34"/>
  <circle class="cls-2" cx="173.67" cy="71.46" r="3.34"/>
  <circle class="cls-2" cx="99.74" cy="83.52" r="3.34"/>
  <polygon class="cls-5" points="195.32 100.81 2.37 100.81 71.04 36.3 263.99 36.3 195.32 100.81"/>
  <path class="cls-1" d="m156.53,19.79h-1.98l4.45-12.36h2.16l4.45,12.36h-1.98l-3.5-10.12h-.1l-3.5,10.12Zm.33-4.84h6.42v1.57h-6.42v-1.57Z"/>
  <line class="cls-5" x1="171.43" y1=".16" x2="173.6" y2="69.41"/>
  <line class="cls-5" x1="174.61" y1="101.68" x2="175.09" y2="116.84"/>
  <line class="cls-4" x1="173.6" y1="69.41" x2="174.56" y2="99.8"/>
  <path class="cls-5" d="m172.12,22.29l-74.13,62.24s0,.06.02.05l75.67-12.63"/>
  <path class="cls-1" d="m82.79,93.35v-12.36h4.53c.88,0,1.6.14,2.18.43.58.29,1.01.68,1.29,1.17.29.49.43,1.04.43,1.65,0,.52-.09.95-.28,1.3-.19.35-.44.63-.76.84-.32.21-.66.37-1.04.46v.12c.41.02.81.15,1.2.4.39.24.72.59.98,1.04.26.45.39.99.39,1.63s-.15,1.2-.44,1.7-.75.9-1.37,1.19c-.62.29-1.4.44-2.36.44h-4.74Zm1.87-7.01h2.5c.42,0,.8-.08,1.13-.24.34-.16.6-.39.8-.68s.3-.64.3-1.04c0-.51-.18-.94-.54-1.29-.36-.35-.91-.52-1.65-.52h-2.55v3.76Zm0,5.42h2.69c.89,0,1.53-.17,1.92-.52.39-.35.58-.78.58-1.3,0-.39-.1-.75-.29-1.07-.2-.33-.48-.59-.84-.78s-.8-.29-1.29-.29h-2.76v3.96Z"/>
  <path class="cls-1" d="m191.31,69.95h-1.88c-.07-.4-.21-.76-.4-1.06s-.44-.57-.72-.78c-.29-.21-.6-.37-.96-.48-.35-.11-.73-.16-1.12-.16-.71,0-1.35.18-1.91.54s-1,.88-1.33,1.58c-.32.69-.49,1.54-.49,2.54s.16,1.86.49,2.55c.32.69.77,1.21,1.33,1.57s1.2.53,1.9.53c.39,0,.76-.05,1.11-.16.35-.11.67-.26.96-.47.29-.21.53-.47.73-.77.2-.3.34-.65.41-1.05h1.88c-.1.61-.29,1.17-.58,1.68-.29.51-.66.95-1.11,1.32-.45.37-.96.65-1.54.85s-1.2.3-1.88.3c-1.07,0-2.02-.25-2.86-.76s-1.5-1.24-1.98-2.19c-.48-.95-.72-2.08-.72-3.4s.24-2.45.72-3.4c.48-.95,1.14-1.68,1.98-2.18.84-.51,1.79-.76,2.86-.76.66,0,1.27.09,1.84.28s1.08.46,1.54.82.83.8,1.13,1.32c.3.52.5,1.11.6,1.77Z"/>
  <polyline class="cls-5" points="173.38 62.23 162.82 64.77 163.58 73.64"/>
  <path class="cls-1" d="m28.48,95.32c-.77,0-1.45-.22-2.03-.63-.58-.41-1.04-.98-1.36-1.7-.33-.72-.49-1.56-.49-2.5s.17-1.76.51-2.47c.34-.71.81-1.27,1.41-1.68.6-.4,1.28-.61,2.04-.61.54,0,1.02.1,1.43.3s.76.49,1.05.85c.29.36.53.78.72,1.26h.63l.36,2.32,1.18,4.66h-1.55l-1.11-4.66c-.06-.3-.15-.63-.27-1-.12-.37-.28-.72-.48-1.05s-.45-.61-.75-.83c-.3-.22-.66-.33-1.08-.33-.46,0-.87.14-1.22.41-.35.28-.62.66-.81,1.14-.19.49-.29,1.05-.29,1.68s.09,1.18.28,1.67c.19.5.45.88.78,1.17.33.28.72.43,1.17.43.41,0,.76-.11,1.07-.33.31-.22.57-.5.78-.84.21-.34.39-.7.52-1.07.13-.37.23-.71.3-1l1-4.66h1.54l-1.06,4.66-.36,2.35h-.57c-.19.48-.44.9-.75,1.28-.3.37-.67.66-1.1.87-.43.21-.93.31-1.49.31Z"/>
</svg>