<?xml version="1.0" encoding="UTF-8"?>
<svg id="Layer_1" data-name="Layer 1" xmlns="http://www.w3.org/2000/svg" viewBox="0 0 425 278">
  <defs>
    <style>
      .cls-1 {
        fill: #fff;
      }

      .cls-2 {
        fill: none;
        stroke: #fff;
        stroke-miterlimit: 10;
        stroke-width: 2px;
      }

      .cls-3 {
        fill: #d1ae59;
      }
    </style>
  </defs>
  <g>
    <path class="cls-1" d="m37.42,15.71c0-1.51.2-2.91.6-4.18.4-1.27.98-2.44,1.74-3.52h1.65c-.3.4-.58.89-.83,1.47-.26.58-.48,1.21-.68,1.9-.19.69-.34,1.4-.45,2.14-.11.74-.16,1.47-.16,2.18,0,.96.09,1.93.28,2.91.19.98.44,1.89.77,2.73.32.84.68,1.53,1.07,2.06h-1.65c-.76-1.07-1.35-2.25-1.74-3.52-.4-1.27-.6-2.67-.6-4.18Z"/>
    <path class="cls-1" d="m44.74,11.57l2.05,3.61,2.06-3.61h1.97l-2.89,4.64,2.92,4.64h-1.97l-2.09-3.47-2.08,3.47h-1.98l2.89-4.64-2.85-4.64h1.98Z"/>
    <path class="cls-1" d="m67.16,13.88v1.57h-5.48v-1.57h5.48Z"/>
    <path class="cls-1" d="m73.79,18.43v-1.51l5.34-8.44h1.19v2.22h-.75l-3.82,6.05v.1h7.32v1.58h-9.28Zm5.86,2.41v-3.56s.01-8.8.01-8.8h1.77v12.36h-1.78Z"/>
    <path class="cls-1" d="m86.61,11.57l2.05,3.61,2.06-3.61h1.97l-2.89,4.64,2.92,4.64h-1.97l-2.09-3.47-2.08,3.47h-1.98l2.89-4.64-2.85-4.64h1.98Z"/>
    <path class="cls-1" d="m104.53,13.88v1.57h-5.48v-1.57h5.48Z"/>
    <path class="cls-1" d="m116.1,8.48v12.36h-1.87v-10.49h-.07l-2.96,1.93v-1.79l3.08-2.02h1.82Z"/>
    <path class="cls-1" d="m122.94,14.66c0,1.52-.2,2.91-.6,4.18-.4,1.27-.98,2.44-1.74,3.52h-1.65c.3-.4.58-.89.83-1.47s.48-1.21.68-1.9c.19-.69.34-1.41.45-2.15.11-.74.16-1.47.16-2.19,0-.95-.09-1.92-.28-2.9s-.44-1.89-.77-2.73-.68-1.53-1.07-2.06h1.65c.76,1.07,1.35,2.25,1.74,3.52.4,1.27.6,2.66.6,4.18Z"/>
    <path class="cls-1" d="m140.37,13.88v1.57h-5.48v-1.57h5.48Z"/>
    <path class="cls-1" d="m151.56,21.02c-.83,0-1.57-.14-2.22-.43-.65-.29-1.16-.68-1.54-1.19-.38-.51-.58-1.1-.61-1.77h1.9c.02.37.15.68.37.95.22.27.52.47.88.62.36.15.76.22,1.21.22.49,0,.92-.08,1.29-.25s.67-.41.88-.71c.21-.3.32-.65.32-1.05s-.11-.78-.32-1.1c-.21-.32-.52-.56-.92-.75s-.89-.27-1.46-.27h-1.04v-1.52h1.04c.46,0,.86-.08,1.21-.25.35-.17.62-.4.82-.69.2-.3.3-.64.3-1.04s-.09-.72-.26-1-.41-.51-.72-.67c-.31-.16-.68-.24-1.1-.24s-.78.07-1.13.22c-.35.15-.63.36-.85.63-.22.27-.33.6-.35.98h-1.8c.02-.67.22-1.26.59-1.76.38-.51.87-.9,1.49-1.19.62-.29,1.31-.43,2.06-.43s1.48.15,2.06.46c.58.31,1.02.72,1.34,1.23.32.51.47,1.07.47,1.68,0,.69-.19,1.28-.58,1.76s-.9.81-1.55.97v.1c.82.12,1.46.45,1.91.98.45.53.68,1.18.67,1.96,0,.68-.18,1.29-.56,1.83-.38.54-.9.96-1.55,1.27-.66.31-1.41.46-2.25.46Z"/>
    <path class="cls-1" d="m158.75,15.71c0-1.51.2-2.91.6-4.18.4-1.27.98-2.44,1.75-3.52h1.65c-.3.4-.58.89-.83,1.47-.26.58-.48,1.21-.68,1.9-.19.69-.34,1.4-.45,2.14-.11.74-.16,1.47-.16,2.18,0,.96.09,1.93.28,2.91.19.98.45,1.89.77,2.73.32.84.68,1.53,1.08,2.06h-1.65c-.76-1.07-1.35-2.25-1.75-3.52-.4-1.27-.6-2.67-.6-4.18Z"/>
    <path class="cls-1" d="m166.08,11.57l2.05,3.61,2.06-3.61h1.97l-2.89,4.64,2.92,4.64h-1.97l-2.09-3.47-2.08,3.47h-1.98l2.89-4.64-2.85-4.64h1.98Z"/>
    <path class="cls-1" d="m188.49,13.88v1.57h-5.48v-1.57h5.48Z"/>
    <path class="cls-1" d="m195.12,18.43v-1.51l5.34-8.44h1.19v2.22h-.75l-3.82,6.05v.1h7.32v1.58h-9.28Zm5.86,2.41v-3.56s.01-8.8.01-8.8h1.77v12.36h-1.78Z"/>
    <path class="cls-1" d="m207.95,11.57l2.05,3.61,2.06-3.61h1.97l-2.89,4.64,2.92,4.64h-1.97l-2.09-3.47-2.08,3.47h-1.98l2.89-4.64-2.85-4.64h1.98Z"/>
    <path class="cls-1" d="m225.86,13.88v1.57h-5.48v-1.57h5.48Z"/>
    <path class="cls-1" d="m237.44,8.48v12.36h-1.87v-10.49h-.07l-2.96,1.93v-1.79l3.08-2.02h1.82Z"/>
    <path class="cls-1" d="m244.28,14.66c0,1.52-.2,2.91-.6,4.18-.4,1.27-.98,2.44-1.74,3.52h-1.65c.3-.4.58-.89.83-1.47s.48-1.21.68-1.9c.19-.69.34-1.41.45-2.15.11-.74.16-1.47.16-2.19,0-.95-.09-1.92-.28-2.9s-.44-1.89-.77-2.73-.68-1.53-1.07-2.06h1.65c.76,1.07,1.35,2.25,1.74,3.52.4,1.27.6,2.66.6,4.18Z"/>
    <path class="cls-1" d="m257.2,13.88v1.57h-5.48v-1.57h5.48Z"/>
    <path class="cls-1" d="m263.83,18.43v-1.51l5.34-8.44h1.19v2.22h-.75l-3.82,6.05v.1h7.32v1.58h-9.28Zm5.86,2.41v-3.56s.01-8.8.01-8.8h1.77v12.36h-1.78Z"/>
    <path class="cls-1" d="m280.18,14.13v-1.35l8.02-2.63v1.64l-5.49,1.64.06-.11v.27l-.06-.11,5.49,1.64v1.64l-8.02-2.63Zm8.02,5.06h-8.02v-1.58h8.02v1.58Z"/>
    <path class="cls-1" d="m299.84,21.05c-.95,0-1.77-.26-2.44-.75-.68-.5-1.19-1.23-1.55-2.18-.36-.95-.54-2.1-.54-3.45s.18-2.49.54-3.44.88-1.67,1.56-2.17,1.49-.75,2.44-.75,1.76.25,2.43.75c.68.5,1.19,1.23,1.55,2.17.36.95.54,2.09.54,3.43s-.18,2.5-.54,3.45c-.36.95-.88,1.68-1.55,2.18s-1.49.75-2.44.75Zm0-1.61c.84,0,1.49-.41,1.97-1.23.47-.82.71-2,.71-3.54,0-1.03-.11-1.89-.32-2.6-.21-.71-.52-1.25-.92-1.62-.4-.37-.88-.55-1.43-.55-.83,0-1.49.41-1.96,1.23-.47.82-.71,2-.72,3.54,0,1.03.11,1.9.32,2.61.22.71.52,1.25.92,1.61s.88.55,1.44.55Z"/>
    <path class="cls-1" d="m10.7,32.48v12.36h-1.86v-10.77H3.03v10.77h-1.86v-12.36h9.54Z"/>
    <path class="cls-1" d="m14.55,48.32c-.27,0-.52-.02-.74-.06-.22-.04-.39-.09-.49-.14l.43-1.48c.33.09.62.13.88.11.26-.01.49-.11.69-.29s.38-.48.53-.89l.22-.62-3.39-9.39h1.93l2.35,7.2h.1l2.35-7.2h1.94l-3.82,10.51c-.18.48-.4.89-.68,1.23-.27.34-.6.59-.98.76s-.82.25-1.32.25Z"/>
    <path class="cls-1" d="m26.94,45.03c-.9,0-1.67-.2-2.31-.61-.65-.41-1.14-.97-1.49-1.69-.35-.72-.52-1.55-.52-2.48s.18-1.77.53-2.5.85-1.29,1.5-1.69,1.4-.61,2.28-.61c.7,0,1.33.13,1.88.39.55.26,1,.62,1.34,1.09.34.47.54,1.01.61,1.64h-1.76c-.1-.43-.32-.81-.66-1.12s-.8-.47-1.38-.47c-.5,0-.94.13-1.32.4-.38.26-.67.64-.88,1.12-.21.49-.31,1.06-.31,1.72s.1,1.26.31,1.75c.21.49.5.87.87,1.14s.82.4,1.33.4c.34,0,.65-.06.93-.19.28-.13.52-.31.71-.55.19-.24.32-.52.4-.86h1.76c-.06.6-.26,1.14-.59,1.61-.33.47-.76.84-1.31,1.11s-1.18.4-1.92.4Z"/>
    <path class="cls-1" d="m32.17,37.13v-1.56h7.82v1.56h-3.02v7.72h-1.76v-7.72h-3.04Z"/>
    <path class="cls-1" d="m43.26,38.76h2.69c1.13,0,2.01.28,2.62.85s.92,1.29.92,2.18c0,.58-.14,1.1-.41,1.56-.27.46-.67.83-1.2,1.1s-1.17.4-1.93.4h-4.05v-9.27h1.77v7.72h2.28c.52,0,.95-.14,1.28-.41.33-.27.5-.62.5-1.04,0-.45-.17-.81-.5-1.1s-.76-.43-1.28-.43h-2.69v-1.56Z"/>
    <path class="cls-1" d="m60.35,35.57v1.45h-5.06v-1.45h5.06Zm-3.71-2.22h1.8v8.77c0,.35.05.61.16.79.1.18.24.29.41.36s.35.09.55.09c.15,0,.27-.01.38-.03.11-.02.19-.04.25-.05l.33,1.49c-.1.04-.25.08-.45.12-.19.04-.43.07-.72.07-.47,0-.92-.08-1.33-.25-.41-.18-.74-.45-1-.82-.25-.37-.38-.84-.38-1.39v-9.15Z"/>
    <path class="cls-1" d="m67.42,38.91v-1.59h7.73v1.59h-7.73Zm0,3.72v-1.59h7.73v1.59h-7.73Z"/>
    <path class="cls-1" d="m84.09,35.57l2.05,3.61,2.06-3.61h1.97l-2.89,4.64,2.92,4.64h-1.97l-2.09-3.47-2.08,3.47h-1.98l2.89-4.64-2.85-4.64h1.98Z"/>
    <path class="cls-1" d="m106.5,37.88v1.57h-5.48v-1.57h5.48Z"/>
    <path class="cls-1" d="m113.13,42.43v-1.51l5.34-8.44h1.19v2.22h-.75l-3.82,6.05v.1h7.32v1.58h-9.28Zm5.86,2.41v-3.56s.01-8.8.01-8.8h1.77v12.36h-1.78Z"/>
    <path class="cls-1" d="m125.96,35.57l2.05,3.61,2.06-3.61h1.97l-2.89,4.64,2.92,4.64h-1.97l-2.09-3.47-2.08,3.47h-1.98l2.89-4.64-2.85-4.64h1.98Z"/>
    <path class="cls-1" d="m143.87,37.88v1.57h-5.48v-1.57h5.48Z"/>
    <path class="cls-1" d="m155.45,32.48v12.36h-1.87v-10.49h-.07l-2.96,1.93v-1.79l3.08-2.02h1.82Z"/>
    <path class="cls-1" d="m41.22,59.57v1.45h-5.06v-1.45h5.06Zm-3.71-2.22h1.8v8.77c0,.35.05.61.16.79.1.18.24.29.41.36s.35.09.55.09c.15,0,.27-.01.38-.03.11-.02.19-.04.25-.05l.33,1.49c-.1.04-.25.08-.45.12-.19.04-.43.07-.72.07-.47,0-.92-.08-1.33-.25-.41-.18-.74-.45-1-.82-.25-.37-.38-.84-.38-1.39v-9.15Z"/>
    <path class="cls-1" d="m57.69,61.88v1.57h-5.48v-1.57h5.48Z"/>
    <path class="cls-1" d="m68.88,69.02c-.83,0-1.57-.14-2.22-.43-.65-.29-1.16-.68-1.54-1.19-.38-.51-.58-1.1-.61-1.77h1.9c.02.37.15.68.37.95.22.27.52.47.88.62.36.15.76.22,1.21.22.49,0,.92-.08,1.29-.25s.67-.41.88-.71c.21-.3.32-.65.32-1.05s-.11-.78-.32-1.1c-.21-.32-.52-.56-.92-.75s-.89-.27-1.46-.27h-1.04v-1.52h1.04c.46,0,.86-.08,1.21-.25s.62-.4.82-.69c.2-.3.3-.64.3-1.04s-.09-.72-.26-1c-.17-.28-.41-.51-.72-.67-.31-.16-.68-.24-1.1-.24s-.78.07-1.13.22c-.35.15-.63.36-.85.63-.22.27-.33.6-.35.98h-1.8c.02-.67.22-1.26.59-1.76.38-.51.87-.9,1.49-1.19.62-.29,1.31-.43,2.06-.43s1.48.15,2.06.46c.58.31,1.02.72,1.34,1.23s.47,1.07.47,1.68c0,.69-.19,1.28-.58,1.76-.39.48-.9.81-1.55.97v.1c.82.12,1.46.45,1.91.98.45.53.68,1.18.67,1.96,0,.68-.18,1.29-.56,1.83-.38.54-.9.96-1.55,1.27-.66.31-1.41.46-2.25.46Z"/>
    <path class="cls-1" d="m79.88,59.57v1.45h-5.06v-1.45h5.06Zm-3.71-2.22h1.8v8.77c0,.35.05.61.16.79.1.18.24.29.41.36s.35.09.55.09c.15,0,.27-.01.38-.03.11-.02.19-.04.25-.05l.33,1.49c-.1.04-.25.08-.45.12-.19.04-.43.07-.72.07-.47,0-.92-.08-1.33-.25-.41-.18-.74-.45-1-.82-.25-.37-.38-.84-.38-1.39v-9.15Z"/>
    <path class="cls-1" d="m91.83,61.88v1.57h-5.48v-1.57h5.48Z"/>
    <path class="cls-1" d="m98.46,66.43v-1.51l5.34-8.44h1.19v2.22h-.75l-3.82,6.05v.1h7.32v1.58h-9.28Zm5.86,2.41v-3.56s.01-8.8.01-8.8h1.77v12.36h-1.78Z"/>
    <path class="cls-1" d="m114.81,62.13v-1.35l8.02-2.63v1.64l-5.49,1.64.06-.11v.27l-.06-.11,5.49,1.64v1.64l-8.02-2.63Zm8.02,5.06h-8.02v-1.58h8.02v1.58Z"/>
    <path class="cls-1" d="m134.47,69.05c-.95,0-1.77-.26-2.44-.75-.68-.5-1.19-1.23-1.55-2.18-.36-.95-.54-2.1-.54-3.45s.18-2.49.54-3.44.88-1.67,1.56-2.17,1.49-.75,2.44-.75,1.76.25,2.43.75c.68.5,1.19,1.23,1.55,2.17.36.95.54,2.09.54,3.43s-.18,2.5-.54,3.45c-.36.95-.88,1.68-1.55,2.18s-1.49.75-2.44.75Zm0-1.61c.84,0,1.49-.41,1.97-1.23.47-.82.71-2,.71-3.54,0-1.03-.11-1.89-.32-2.6-.21-.71-.52-1.25-.92-1.62-.4-.37-.88-.55-1.43-.55-.83,0-1.49.41-1.96,1.23-.47.82-.71,2-.72,3.54,0,1.03.11,1.9.32,2.61.22.71.52,1.25.92,1.61s.88.55,1.44.55Z"/>
    <path class="cls-1" d="m41.22,83.57v1.45h-5.06v-1.45h5.06Zm-3.71-2.22h1.8v8.77c0,.35.05.61.16.79.1.18.24.29.41.36s.35.09.55.09c.15,0,.27-.01.38-.03.11-.02.19-.04.25-.05l.33,1.49c-.1.04-.25.08-.45.12-.19.04-.43.07-.72.07-.47,0-.92-.08-1.33-.25-.41-.18-.74-.45-1-.82-.25-.37-.38-.84-.38-1.39v-9.15Z"/>
    <path class="cls-1" d="m52.8,86.91v-1.59h7.73v1.59h-7.73Zm0,3.72v-1.59h7.73v1.59h-7.73Z"/>
    <path class="cls-1" d="m73.51,85.88v1.57h-5.48v-1.57h5.48Z"/>
    <path class="cls-1" d="m80.58,80.48v12.36h-1.87v-10.49h-.07l-2.96,1.93v-1.79l3.08-2.02h1.82Z"/>
    <path class="cls-1" d="m41.22,107.57v1.45h-5.06v-1.45h5.06Zm-3.71-2.22h1.8v8.77c0,.35.05.61.16.79.1.18.24.29.41.36s.35.09.55.09c.15,0,.27-.01.38-.03.11-.02.19-.04.25-.05l.33,1.49c-.1.04-.25.08-.45.12-.19.04-.43.07-.72.07-.47,0-.92-.08-1.33-.25-.41-.18-.74-.45-1-.82-.25-.37-.38-.84-.38-1.39v-9.15Z"/>
    <path class="cls-1" d="m52.8,109.6v-1.58h7.73v1.58h-7.73Zm0,3.72v-1.58h7.73v1.58h-7.73Z"/>
    <path class="cls-1" d="m67.76,114.43v-1.51l5.34-8.44h1.19v2.22h-.75l-3.82,6.05v.1h7.32v1.58h-9.28Zm5.86,2.41v-3.56s.01-8.8.01-8.8h1.77v12.36h-1.78Z"/>
    <path class="cls-1" d="m6.36,133.88v1.57H.88v-1.57h5.48Z"/>
    <path class="cls-1" d="m13.43,128.48v12.36h-1.87v-10.49h-.07l-2.96,1.93v-1.79l3.08-2.02h1.82Z"/>
    <path class="cls-1" d="m21.75,134.13v-1.35l8.02-2.63v1.64l-5.49,1.64.06-.11v.27l-.06-.11,5.49,1.64v1.64l-8.02-2.63Zm8.02,5.06h-8.02v-1.58h8.02v1.58Z"/>
    <path class="cls-1" d="m41.46,131.57v1.45h-5.06v-1.45h5.06Zm-3.71-2.22h1.8v8.77c0,.35.05.61.16.79.1.17.24.29.41.36.17.06.35.09.55.09.15,0,.27,0,.38-.03.11-.02.19-.04.25-.05l.33,1.49c-.1.04-.25.08-.45.12-.19.04-.43.06-.72.07-.47,0-.92-.08-1.33-.25-.41-.18-.74-.45-1-.82-.25-.37-.38-.83-.38-1.39v-9.15Z"/>
    <path class="cls-1" d="m48.39,134.13v-1.35l8.02-2.63v1.64l-5.49,1.64.06-.11v.27l-.06-.11,5.49,1.64v1.64l-8.02-2.63Zm8.02,5.06h-8.02v-1.58h8.02v1.58Z"/>
    <path class="cls-1" d="m63.49,138.43v-1.51l5.34-8.44h1.19v2.22h-.75l-3.82,6.05v.1h7.32v1.58h-9.28Zm5.86,2.42v-3.56s.01-8.8.01-8.8h1.77v12.36h-1.78Z"/>
    <path class="cls-1" d="m76.78,139.16l-.09.66c-.06.48-.16.99-.3,1.51-.14.53-.29,1.01-.44,1.46-.15.45-.27.81-.37,1.07h-1.28c.05-.25.12-.59.22-1.01.09-.42.18-.9.27-1.42.09-.52.15-1.06.2-1.6l.06-.68h1.74Z"/>
    <path class="cls-1" d="m83.08,138.39h1.85c.02.38.2.67.52.88.32.21.74.31,1.25.31s.96-.11,1.33-.33c.37-.22.55-.57.55-1.04,0-.28-.07-.53-.21-.74s-.33-.38-.59-.49c-.25-.12-.55-.17-.89-.17h-1.51v-1.42h1.51c.51,0,.89-.12,1.15-.35s.38-.53.38-.88c0-.38-.14-.68-.41-.91-.27-.23-.65-.35-1.13-.35s-.9.11-1.23.33c-.33.22-.5.5-.51.85h-1.82c.01-.52.17-.97.47-1.37.3-.39.71-.7,1.23-.92.52-.22,1.11-.33,1.77-.33s1.28.11,1.79.33c.5.22.89.53,1.17.92.28.39.41.84.41,1.35s-.15.93-.46,1.25c-.3.32-.7.56-1.19.7v.1c.36.02.68.13.95.33.28.19.5.45.65.77.16.32.24.68.24,1.08,0,.57-.16,1.06-.47,1.47-.31.41-.74.73-1.29.96-.55.22-1.18.33-1.88.33s-1.3-.11-1.84-.32c-.54-.22-.97-.52-1.29-.92-.32-.39-.48-.86-.5-1.4Z"/>
    <path class="cls-1" d="m93.98,131.57v9.27h-1.77v-9.27h1.77Zm4.52,3.86v1.56h-5.02v-1.56h5.02Zm1.26-3.86v9.27h-1.76v-9.27h1.76Z"/>
    <path class="cls-1" d="m104.87,141.05c-.59,0-1.12-.11-1.59-.33-.48-.22-.85-.54-1.13-.96-.28-.42-.41-.93-.41-1.54,0-.52.1-.95.3-1.29s.47-.61.81-.8c.34-.2.72-.35,1.15-.45.42-.1.85-.18,1.29-.23.56-.06,1.01-.12,1.35-.16.35-.04.6-.11.75-.21.16-.1.24-.25.24-.47v-.04c0-.53-.15-.94-.44-1.23-.3-.29-.74-.43-1.32-.43s-1.09.13-1.43.4c-.35.27-.59.56-.72.89l-1.7-.39c.2-.56.5-1.02.88-1.37.39-.35.84-.6,1.34-.76.51-.16,1.04-.24,1.6-.24.37,0,.76.04,1.18.13s.81.24,1.17.47c.36.23.66.56.9.98.23.42.35.97.35,1.65v6.16h-1.76v-1.27h-.07c-.12.23-.29.46-.53.69-.23.22-.53.41-.9.56-.37.15-.81.22-1.32.22Zm.39-1.45c.5,0,.93-.1,1.28-.3.36-.2.63-.46.81-.78.19-.32.28-.66.28-1.03v-1.2c-.06.06-.19.12-.37.18-.18.05-.39.1-.62.14-.23.04-.46.07-.68.1-.22.03-.41.06-.56.08-.35.04-.67.12-.96.22-.29.1-.52.25-.69.45-.17.2-.26.45-.26.78,0,.45.17.78.5,1.01s.75.34,1.26.34Z"/>
    <path class="cls-1" d="m118.52,135.88v1.56c-.28.11-.57.21-.88.3-.31.09-.63.15-.98.2-.34.05-.7.07-1.07.07-1.15,0-2.06-.28-2.73-.84s-1.01-1.42-1.01-2.58v-3.03h1.76v3.03c0,.44.08.79.24,1.07.16.27.39.47.69.6.3.13.65.19,1.06.19.54,0,1.05-.05,1.51-.15s.93-.24,1.42-.42Zm.77-4.3v9.27h-1.76v-9.27h1.76Z"/>
    <path class="cls-1" d="m123.47,138.32l4.09-6.74h1.94v9.27h-1.77v-6.75l-4.07,6.75h-1.96v-9.27h1.77v6.74Z"/>
    <path class="cls-1" d="m131.41,133.13v-1.56h7.82v1.56h-3.03v7.71h-1.76v-7.71h-3.04Z"/>
    <path class="cls-1" d="m151.1,133.88v1.57h-5.48v-1.57h5.48Z"/>
    <path class="cls-1" d="m158.18,128.48v12.36h-1.87v-10.49h-.07l-2.96,1.93v-1.79l3.08-2.02h1.82Z"/>
    <path class="cls-1" d="m166.49,134.13v-1.35l8.02-2.63v1.64l-5.49,1.64.06-.11v.27l-.06-.11,5.49,1.64v1.64l-8.02-2.63Zm8.02,5.06h-8.02v-1.58h8.02v1.58Z"/>
    <path class="cls-1" d="m183.3,131.57l2.05,3.61,2.06-3.61h1.97l-2.89,4.64,2.92,4.64h-1.97l-2.09-3.46-2.08,3.46h-1.98l2.89-4.64-2.85-4.64h1.98Z"/>
    <path class="cls-1" d="m205.71,133.88v1.57h-5.48v-1.57h5.48Z"/>
    <path class="cls-1" d="m207.84,138.43v-1.51l5.34-8.44h1.19v2.22h-.75l-3.82,6.05v.1h7.32v1.58h-9.28Zm5.86,2.42v-3.56s.01-8.8.01-8.8h1.77v12.36h-1.78Z"/>
    <path class="cls-1" d="m220.67,131.57l2.05,3.61,2.06-3.61h1.97l-2.89,4.64,2.92,4.64h-1.97l-2.09-3.46-2.08,3.46h-1.98l2.89-4.64-2.85-4.64h1.98Z"/>
    <path class="cls-1" d="m238.58,133.88v1.57h-5.48v-1.57h5.48Z"/>
    <path class="cls-1" d="m250.16,128.48v12.36h-1.87v-10.49h-.07l-2.96,1.93v-1.79l3.08-2.02h1.82Z"/>
    <path class="cls-1" d="m258.47,134.13v-1.35l8.02-2.63v1.64l-5.49,1.64.06-.11v.27l-.06-.11,5.49,1.64v1.64l-8.02-2.63Zm8.02,5.06h-8.02v-1.58h8.02v1.58Z"/>
    <path class="cls-1" d="m273.57,138.43v-1.51l5.34-8.44h1.19v2.22h-.75l-3.82,6.05v.1h7.32v1.58h-9.28Zm5.86,2.42v-3.56s.01-8.8.01-8.8h1.77v12.36h-1.78Z"/>
    <path class="cls-1" d="m285.69,140.96c-.33,0-.61-.12-.85-.35s-.36-.52-.36-.85.12-.61.36-.85c.24-.24.52-.35.85-.35s.61.12.85.35c.24.24.36.52.36.85,0,.22-.06.42-.17.61-.11.18-.26.33-.44.44-.18.11-.38.16-.6.16Z"/>
    <path class="cls-1" d="m303.44,128.48v12.36h-1.86v-10.77h-5.82v10.77h-1.86v-12.36h9.54Z"/>
    <path class="cls-1" d="m310.14,141.03c-.91,0-1.7-.2-2.36-.59s-1.17-.95-1.52-1.66c-.36-.71-.53-1.55-.53-2.51s.18-1.79.53-2.51.86-1.29,1.5-1.7,1.39-.61,2.25-.61c.52,0,1.03.09,1.52.26s.93.44,1.32.81c.39.37.7.85.92,1.44.22.59.34,1.3.34,2.15v.64h-7.37v-1.35h5.6c0-.47-.1-.9-.29-1.26s-.46-.66-.81-.87c-.35-.21-.76-.32-1.22-.32-.51,0-.95.12-1.32.37-.38.25-.67.57-.87.97s-.3.83-.3,1.29v1.06c0,.62.11,1.15.33,1.58.22.43.53.77.92.99.39.23.86.34,1.38.34.34,0,.65-.05.94-.15.28-.1.52-.25.73-.44.21-.2.36-.44.47-.73l1.71.31c-.14.5-.38.94-.73,1.32-.35.38-.79.67-1.32.88s-1.13.31-1.81.31Z"/>
    <path class="cls-1" d="m316.13,144.32v-12.75h1.76v1.5h.15c.1-.19.26-.42.45-.67.2-.25.47-.48.82-.67.35-.19.81-.29,1.39-.29.75,0,1.42.19,2,.57.59.38,1.05.92,1.38,1.64.34.71.5,1.57.5,2.57s-.17,1.86-.5,2.57c-.33.71-.79,1.26-1.38,1.65-.58.38-1.25.58-2,.58-.56,0-1.02-.09-1.38-.28-.36-.19-.63-.41-.84-.66s-.36-.48-.46-.68h-.11v4.92h-1.8Zm1.77-8.11c0,.65.09,1.22.28,1.71.19.49.46.87.82,1.15.36.28.8.41,1.32.41s.99-.14,1.35-.43c.36-.29.64-.68.82-1.17.19-.5.28-1.05.28-1.67s-.09-1.16-.28-1.65c-.18-.49-.46-.87-.82-1.15s-.82-.42-1.36-.42-.96.14-1.33.4-.63.65-.82,1.13c-.18.48-.28,1.05-.28,1.69Z"/>
    <path class="cls-1" d="m330.62,141.03c-.91,0-1.7-.2-2.36-.59s-1.17-.95-1.52-1.66c-.36-.71-.53-1.55-.53-2.51s.18-1.79.53-2.51.86-1.29,1.5-1.7,1.39-.61,2.25-.61c.52,0,1.03.09,1.52.26s.93.44,1.32.81c.39.37.7.85.92,1.44.22.59.34,1.3.34,2.15v.64h-7.37v-1.35h5.6c0-.47-.1-.9-.29-1.26s-.46-.66-.81-.87c-.35-.21-.76-.32-1.22-.32-.51,0-.95.12-1.32.37-.38.25-.67.57-.87.97s-.3.83-.3,1.29v1.06c0,.62.11,1.15.33,1.58.22.43.53.77.92.99.39.23.86.34,1.38.34.34,0,.65-.05.94-.15.28-.1.52-.25.73-.44.21-.2.36-.44.47-.73l1.71.31c-.14.5-.38.94-.73,1.32-.35.38-.79.67-1.32.88s-1.13.31-1.81.31Z"/>
    <path class="cls-1" d="m336.6,140.85v-9.27h7.56v9.27h-1.77v-7.71h-4.04v7.71h-1.76Z"/>
    <path class="cls-1" d="m348.36,138.32l4.09-6.74h1.94v9.27h-1.77v-6.75l-4.07,6.75h-1.96v-9.27h1.77v6.74Z"/>
    <path class="cls-1" d="m356.82,131.57h1.77v7.71h3.21v-7.71h1.77v7.71h3.21v-7.71h1.77v9.27h-11.72v-9.27Z"/>
    <path class="cls-1" d="m374.93,141.03c-.91,0-1.7-.2-2.36-.59s-1.17-.95-1.52-1.66c-.36-.71-.53-1.55-.53-2.51s.18-1.79.53-2.51.86-1.29,1.5-1.7,1.39-.61,2.25-.61c.52,0,1.03.09,1.52.26s.93.44,1.32.81c.39.37.7.85.92,1.44.22.59.34,1.3.34,2.15v.64h-7.37v-1.35h5.6c0-.47-.1-.9-.29-1.26s-.46-.66-.81-.87c-.35-.21-.76-.32-1.22-.32-.51,0-.95.12-1.32.37-.38.25-.67.57-.87.97s-.3.83-.3,1.29v1.06c0,.62.11,1.15.33,1.58.22.43.53.77.92.99.39.23.86.34,1.38.34.34,0,.65-.05.94-.15.28-.1.52-.25.73-.44.21-.2.36-.44.47-.73l1.71.31c-.14.5-.38.94-.73,1.32-.35.38-.79.67-1.32.88s-1.13.31-1.81.31Z"/>
    <path class="cls-1" d="m382.69,131.57v9.27h-1.77v-9.27h1.77Zm3.43,7.04l2.99-7.04h1.56l-3.88,9.27h-1.34l-3.8-9.27h1.54l2.93,7.04Zm3.48,2.23v-9.27h1.76v9.27h-1.76Z"/>
    <path class="cls-1" d="m401.46,133.02c-.31,0-.62.08-.91.22-.29.15-.53.34-.71.58-.19.24-.28.52-.28.82h-1.7c0-.43.1-.84.29-1.23s.46-.73.79-1.02c.33-.29.72-.53,1.15-.69s.89-.25,1.37-.25c.87,0,1.61.21,2.22.64.61.42,1.07.99,1.38,1.69.31.7.47,1.47.47,2.31v.3c0,.84-.16,1.61-.47,2.31-.31.7-.77,1.27-1.38,1.69-.61.42-1.34.63-2.22.63-.7,0-1.32-.15-1.87-.45-.54-.3-.97-.71-1.28-1.22-.31-.52-.46-1.11-.46-1.77h1.7c0,.33.09.64.26.92.17.28.4.51.69.68.29.17.6.26.95.26.52,0,.95-.16,1.29-.47.34-.31.59-.7.76-1.17s.25-.94.25-1.42v-.3c0-.5-.08-.98-.25-1.44s-.42-.85-.76-1.16c-.34-.3-.77-.46-1.29-.46Zm2.93,2.48v1.39h-3.8v-1.39h3.8Z"/>
    <path class="cls-1" d="m407.02,133.13v-1.56h7.82v1.56h-3.03v7.71h-1.76v-7.71h-3.04Z"/>
    <path class="cls-1" d="m420.66,141.03c-.87,0-1.63-.2-2.28-.6-.65-.4-1.15-.96-1.51-1.67-.36-.72-.54-1.55-.54-2.51s.18-1.8.54-2.52c.36-.72.86-1.28,1.51-1.68.65-.4,1.41-.6,2.28-.6s1.63.2,2.28.6c.65.4,1.15.96,1.51,1.68.36.72.54,1.56.54,2.52s-.18,1.79-.54,2.51c-.36.72-.86,1.27-1.51,1.67-.65.4-1.41.6-2.28.6Zm0-1.52c.56,0,1.03-.15,1.4-.45.37-.3.64-.69.82-1.19.18-.5.27-1.04.27-1.64s-.09-1.14-.27-1.63c-.18-.5-.45-.9-.82-1.2-.37-.3-.84-.45-1.4-.45s-1.04.15-1.41.45c-.37.3-.65.7-.83,1.2s-.27,1.04-.27,1.63.09,1.14.27,1.64.46.89.83,1.19.84.45,1.41.45Z"/>
    <path class="cls-1" d="m.89,164.85v-9.27h3.85c1.05,0,1.88.22,2.49.67.61.44.92,1.05.92,1.81,0,.54-.17.97-.52,1.29-.35.32-.81.53-1.38.64.41.05.79.17,1.14.37s.62.47.84.8c.21.33.32.73.32,1.2,0,.49-.13.92-.38,1.3s-.62.67-1.1.88c-.48.21-1.06.32-1.74.32H.89Zm1.7-5.41h2.17c.34,0,.63-.05.87-.14.24-.1.43-.23.56-.41.13-.18.2-.39.2-.64,0-.36-.15-.64-.44-.84-.29-.2-.7-.3-1.21-.3h-2.15v2.34Zm0,3.9h2.73c.45,0,.8-.11,1.05-.32.25-.21.38-.5.38-.87,0-.43-.13-.77-.38-1.02-.25-.25-.6-.37-1.05-.37h-2.73v2.58Z"/>
    <path class="cls-1" d="m15.02,164.85v-9.27h3.85c1.05,0,1.88.22,2.49.67.61.44.92,1.05.92,1.81,0,.54-.17.97-.52,1.29-.35.32-.81.53-1.38.64.41.05.79.17,1.14.37s.62.47.84.8c.21.33.32.73.32,1.2,0,.49-.13.92-.38,1.3s-.62.67-1.1.88c-.48.21-1.06.32-1.74.32h-4.43Zm1.7-5.41h2.17c.34,0,.63-.05.87-.14.24-.1.43-.23.56-.41.13-.18.2-.39.2-.64,0-.36-.15-.64-.44-.84-.29-.2-.7-.3-1.21-.3h-2.15v2.34Zm0,3.9h2.73c.45,0,.8-.11,1.05-.32.25-.21.38-.5.38-.87,0-.43-.13-.77-.38-1.02-.25-.25-.6-.37-1.05-.37h-2.73v2.58Z"/>
    <path class="cls-1" d="m26.41,162.32l4.09-6.74h1.94v9.27h-1.77v-6.75l-4.07,6.75h-1.96v-9.27h1.77v6.74Z"/>
    <path class="cls-1" d="m33.96,167.52v-4.24h.75c.19-.18.36-.39.49-.63.13-.25.25-.54.34-.88.09-.34.17-.73.24-1.19.06-.45.12-.97.17-1.55l.29-3.46h6.3v7.71h1.42v4.24h-1.76v-2.67h-6.47v2.67h-1.79Zm2.69-4.24h4.14v-6.16h-2.92l-.19,1.91c-.09.97-.21,1.82-.35,2.53-.14.71-.37,1.29-.68,1.72Z"/>
    <path class="cls-1" d="m49.73,165.03c-.91,0-1.7-.2-2.36-.59-.66-.39-1.17-.95-1.52-1.66-.36-.71-.53-1.55-.53-2.51s.18-1.79.53-2.51c.36-.72.86-1.29,1.5-1.7.64-.41,1.39-.61,2.25-.61.52,0,1.03.09,1.52.26.49.17.93.44,1.32.81.39.37.7.85.92,1.44s.34,1.3.34,2.15v.64h-7.37v-1.35h5.6c0-.47-.1-.9-.29-1.26-.19-.37-.46-.66-.81-.87-.35-.21-.76-.32-1.22-.32-.51,0-.95.12-1.33.37-.38.25-.67.57-.87.97-.2.4-.31.83-.31,1.29v1.06c0,.62.11,1.15.33,1.58.22.43.53.77.92.99.39.23.85.34,1.38.34.34,0,.65-.05.94-.15s.53-.25.73-.44c.21-.2.36-.44.47-.73l1.71.31c-.14.5-.38.94-.73,1.32-.35.38-.79.67-1.32.88-.53.21-1.13.31-1.81.31Z"/>
    <path class="cls-1" d="m64.13,165.03c-.9,0-1.67-.2-2.31-.61-.65-.41-1.14-.97-1.49-1.69-.35-.72-.52-1.54-.52-2.47s.18-1.77.53-2.5c.35-.72.85-1.29,1.5-1.69.64-.41,1.4-.61,2.28-.61.7,0,1.33.13,1.88.39.55.26,1,.62,1.34,1.09.34.47.54,1.01.61,1.64h-1.76c-.1-.43-.32-.81-.66-1.12-.34-.31-.8-.47-1.38-.47-.5,0-.94.13-1.32.4-.38.26-.67.64-.88,1.12-.21.48-.31,1.06-.31,1.72s.1,1.26.31,1.75c.21.49.5.87.87,1.14.38.27.82.41,1.33.41.34,0,.65-.06.93-.19s.52-.31.71-.55c.19-.24.32-.52.4-.86h1.76c-.06.6-.26,1.13-.59,1.61-.33.47-.76.84-1.31,1.11-.55.27-1.18.41-1.92.41Z"/>
    <path class="cls-1" d="m71.65,162.32l4.09-6.74h1.94v9.27h-1.77v-6.75l-4.07,6.75h-1.96v-9.27h1.77v6.74Z"/>
    <path class="cls-1" d="m84.01,165.03c-.9,0-1.67-.2-2.31-.61-.65-.41-1.14-.97-1.49-1.69-.35-.72-.52-1.54-.52-2.47s.18-1.77.53-2.5c.35-.72.85-1.29,1.5-1.69.64-.41,1.4-.61,2.28-.61.7,0,1.33.13,1.88.39.55.26,1,.62,1.34,1.09.34.47.54,1.01.61,1.64h-1.76c-.1-.43-.32-.81-.66-1.12-.34-.31-.8-.47-1.38-.47-.5,0-.94.13-1.32.4-.38.26-.67.64-.88,1.12-.21.48-.31,1.06-.31,1.72s.1,1.26.31,1.75c.21.49.5.87.87,1.14.38.27.82.41,1.33.41.34,0,.65-.06.93-.19s.52-.31.71-.55c.19-.24.32-.52.4-.86h1.76c-.06.6-.26,1.13-.59,1.61-.33.47-.76.84-1.31,1.11-.55.27-1.18.41-1.92.41Z"/>
    <path class="cls-1" d="m89.24,157.13v-1.56h7.82v1.56h-3.02v7.71h-1.76v-7.71h-3.04Z"/>
    <path class="cls-1" d="m102.97,165.03c-.91,0-1.7-.2-2.36-.59-.66-.39-1.17-.95-1.52-1.66-.36-.71-.53-1.55-.53-2.51s.18-1.79.53-2.51c.36-.72.86-1.29,1.5-1.7.64-.41,1.39-.61,2.25-.61.52,0,1.03.09,1.52.26.49.17.93.44,1.32.81.39.37.7.85.92,1.44s.34,1.3.34,2.15v.64h-7.37v-1.35h5.6c0-.47-.1-.9-.29-1.26-.19-.37-.46-.66-.81-.87-.35-.21-.76-.32-1.22-.32-.51,0-.95.12-1.33.37-.38.25-.67.57-.87.97-.2.4-.31.83-.31,1.29v1.06c0,.62.11,1.15.33,1.58.22.43.53.77.92.99.39.23.85.34,1.38.34.34,0,.65-.05.94-.15s.53-.25.73-.44c.21-.2.36-.44.47-.73l1.71.31c-.14.5-.38.94-.73,1.32-.35.38-.79.67-1.32.88-.53.21-1.13.31-1.81.31Z"/>
    <path class="cls-1" d="m110.72,155.57v9.27h-1.77v-9.27h1.77Zm3.43,7.04l2.99-7.04h1.56l-3.88,9.27h-1.34l-3.8-9.27h1.54l2.93,7.04Zm3.48,2.23v-9.27h1.76v9.27h-1.76Z"/>
    <path class="cls-1" d="m123.17,158.76h2.69c1.13,0,2.01.28,2.62.84.61.56.92,1.29.92,2.18,0,.58-.14,1.1-.41,1.56-.27.46-.67.83-1.2,1.1-.53.27-1.17.4-1.93.4h-4.05v-9.27h1.77v7.71h2.28c.52,0,.95-.14,1.28-.41s.5-.62.5-1.04c0-.45-.17-.81-.5-1.1-.33-.28-.76-.42-1.28-.42h-2.69v-1.56Zm7.55,6.08v-9.27h1.8v9.27h-1.8Z"/>
    <path class="cls-1" d="m141.22,155.57v9.27h-1.77v-9.27h1.77Zm4.52,3.86v1.56h-5.02v-1.56h5.02Zm1.26-3.86v9.27h-1.76v-9.27h1.76Z"/>
    <path class="cls-1" d="m153.4,165.03c-.91,0-1.7-.2-2.36-.59s-1.17-.95-1.52-1.66c-.36-.71-.53-1.55-.53-2.51s.18-1.79.53-2.51c.36-.72.86-1.29,1.5-1.7.64-.41,1.39-.61,2.25-.61.52,0,1.03.09,1.52.26s.93.44,1.32.81c.39.37.7.85.92,1.44.22.59.34,1.3.34,2.15v.64h-7.37v-1.35h5.6c0-.47-.1-.9-.29-1.26s-.46-.66-.81-.87c-.35-.21-.76-.32-1.22-.32-.51,0-.95.12-1.32.37-.38.25-.67.57-.87.97s-.3.83-.3,1.29v1.06c0,.62.11,1.15.33,1.58.22.43.53.77.92.99.39.23.86.34,1.38.34.34,0,.65-.05.94-.15.28-.1.52-.25.73-.44.21-.2.36-.44.47-.73l1.71.31c-.14.5-.38.94-.73,1.32-.35.38-.79.67-1.32.88s-1.13.31-1.81.31Z"/>
    <path class="cls-1" d="m159.39,168.32v-12.75h1.76v1.5h.15c.1-.19.26-.42.45-.67.2-.25.47-.48.82-.67.35-.19.81-.29,1.39-.29.75,0,1.42.19,2,.57.59.38,1.05.92,1.38,1.64.34.71.5,1.57.5,2.57s-.17,1.86-.5,2.57c-.33.71-.79,1.26-1.38,1.65-.58.38-1.25.58-2,.58-.56,0-1.02-.09-1.38-.28-.36-.19-.63-.41-.84-.66s-.36-.48-.46-.68h-.11v4.92h-1.8Zm1.77-8.11c0,.65.09,1.22.28,1.71.19.49.46.87.82,1.15.36.28.8.41,1.32.41s.99-.14,1.35-.43c.36-.29.64-.68.82-1.17.19-.5.28-1.05.28-1.67s-.09-1.16-.28-1.65c-.18-.49-.46-.87-.82-1.15-.36-.28-.82-.42-1.36-.42s-.96.13-1.33.4c-.36.27-.63.65-.82,1.13-.18.48-.28,1.05-.28,1.69Z"/>
    <path class="cls-1" d="m172.58,165.05c-.59,0-1.12-.11-1.59-.33-.48-.22-.85-.54-1.13-.96-.28-.42-.41-.93-.41-1.54,0-.52.1-.95.3-1.29.2-.34.47-.61.81-.8s.72-.35,1.15-.45c.42-.1.85-.18,1.29-.23.55-.06,1.01-.12,1.35-.16.35-.04.6-.11.75-.21.16-.1.24-.25.24-.47v-.04c0-.53-.15-.94-.44-1.23s-.74-.43-1.32-.43-1.09.13-1.43.4c-.35.27-.59.56-.72.89l-1.7-.39c.2-.56.5-1.02.88-1.37.39-.35.84-.6,1.34-.76.51-.16,1.04-.24,1.6-.24.37,0,.76.04,1.18.13.42.09.81.24,1.17.47s.66.56.9.98.35.97.35,1.65v6.16h-1.76v-1.27h-.07c-.12.23-.29.46-.52.69-.23.22-.53.41-.9.56-.37.15-.8.22-1.32.22Zm.39-1.45c.5,0,.93-.1,1.28-.3.36-.2.63-.46.82-.78.19-.32.28-.66.28-1.03v-1.2c-.06.06-.19.12-.37.18-.18.05-.39.1-.62.14s-.46.07-.68.1c-.22.03-.41.06-.56.08-.35.04-.67.12-.96.22s-.52.25-.69.45c-.17.2-.26.45-.26.78,0,.45.17.78.5,1.01s.75.34,1.26.34Z"/>
    <path class="cls-1" d="m179.56,164.85v-9.27h3.84c1.05,0,1.88.22,2.49.67.61.44.92,1.05.92,1.81,0,.54-.17.97-.52,1.29-.35.32-.8.53-1.38.64.41.05.79.17,1.14.37.35.2.62.47.84.8.21.33.32.73.32,1.2,0,.49-.13.92-.38,1.3-.25.38-.62.67-1.1.88-.48.21-1.06.32-1.74.32h-4.43Zm1.7-5.41h2.17c.34,0,.63-.05.87-.14s.43-.23.56-.41c.13-.18.2-.39.2-.64,0-.36-.15-.64-.44-.84s-.7-.3-1.21-.3h-2.15v2.34Zm0,3.9h2.73c.45,0,.8-.11,1.05-.32.25-.21.38-.5.38-.87,0-.43-.13-.77-.38-1.02-.25-.25-.6-.37-1.05-.37h-2.73v2.58Z"/>
    <path class="cls-1" d="m193.17,165.03c-.91,0-1.7-.2-2.36-.59s-1.17-.95-1.52-1.66c-.36-.71-.53-1.55-.53-2.51s.18-1.79.53-2.51c.36-.72.86-1.29,1.5-1.7.64-.41,1.39-.61,2.25-.61.52,0,1.03.09,1.52.26s.93.44,1.32.81c.39.37.7.85.92,1.44.22.59.34,1.3.34,2.15v.64h-7.37v-1.35h5.6c0-.47-.1-.9-.29-1.26s-.46-.66-.81-.87c-.35-.21-.76-.32-1.22-.32-.51,0-.95.12-1.32.37-.38.25-.67.57-.87.97s-.3.83-.3,1.29v1.06c0,.62.11,1.15.33,1.58.22.43.53.77.92.99.39.23.86.34,1.38.34.34,0,.65-.05.94-.15.28-.1.52-.25.73-.44.21-.2.36-.44.47-.73l1.71.31c-.14.5-.38.94-.73,1.32-.35.38-.79.67-1.32.88s-1.13.31-1.81.31Z"/>
    <path class="cls-1" d="m200.93,155.57v9.27h-1.77v-9.27h1.77Zm4.52,3.86v1.56h-5.02v-1.56h5.02Zm1.26-3.86v9.27h-1.76v-9.27h1.76Z"/>
    <path class="cls-1" d="m213.02,165.03c-.9,0-1.67-.2-2.32-.61-.65-.41-1.14-.97-1.49-1.69-.35-.72-.52-1.54-.52-2.47s.18-1.77.53-2.5c.35-.72.85-1.29,1.5-1.69.64-.41,1.4-.61,2.28-.61.7,0,1.33.13,1.88.39.55.26,1,.62,1.34,1.09.34.47.54,1.01.61,1.64h-1.76c-.1-.43-.32-.81-.66-1.12-.34-.31-.8-.47-1.38-.47-.5,0-.94.13-1.32.4-.38.26-.67.64-.88,1.12-.21.48-.31,1.06-.31,1.72s.1,1.26.31,1.75.5.87.87,1.14c.38.27.82.41,1.33.41.34,0,.65-.06.93-.19.28-.13.51-.31.71-.55.19-.24.33-.52.4-.86h1.76c-.06.6-.26,1.13-.59,1.61s-.76.84-1.31,1.11c-.55.27-1.18.41-1.92.41Z"/>
    <path class="cls-1" d="m218.25,157.13v-1.56h7.82v1.56h-3.03v7.71h-1.76v-7.71h-3.04Z"/>
    <path class="cls-1" d="m227.98,164.85v-9.27h3.84c1.05,0,1.88.22,2.49.67.61.44.92,1.05.92,1.81,0,.54-.17.97-.52,1.29-.35.32-.8.53-1.38.64.41.05.79.17,1.14.37.35.2.62.47.84.8.21.33.32.73.32,1.2,0,.49-.13.92-.38,1.3-.25.38-.62.67-1.1.88-.48.21-1.06.32-1.74.32h-4.43Zm1.7-5.41h2.17c.34,0,.63-.05.87-.14s.43-.23.56-.41c.13-.18.2-.39.2-.64,0-.36-.15-.64-.44-.84s-.7-.3-1.21-.3h-2.15v2.34Zm0,3.9h2.73c.45,0,.8-.11,1.05-.32.25-.21.38-.5.38-.87,0-.43-.13-.77-.38-1.02-.25-.25-.6-.37-1.05-.37h-2.73v2.58Z"/>
    <path class="cls-1" d="m38.32,179.57l2.05,3.61,2.06-3.61h1.97l-2.89,4.64,2.92,4.64h-1.97l-2.09-3.46-2.08,3.46h-1.98l2.89-4.64-2.85-4.64h1.98Z"/>
    <path class="cls-1" d="m60.73,181.88v1.57h-5.48v-1.57h5.48Z"/>
    <path class="cls-1" d="m67.36,186.43v-1.51l5.34-8.44h1.19v2.22h-.75l-3.82,6.05v.1h7.32v1.58h-9.28Zm5.86,2.42v-3.56s.01-8.8.01-8.8h1.77v12.36h-1.78Z"/>
    <path class="cls-1" d="m80.19,179.57l2.05,3.61,2.06-3.61h1.97l-2.89,4.64,2.92,4.64h-1.97l-2.09-3.46-2.08,3.46h-1.98l2.89-4.64-2.85-4.64h1.98Z"/>
    <path class="cls-1" d="m98.1,181.88v1.57h-5.48v-1.57h5.48Z"/>
    <path class="cls-1" d="m109.68,176.48v12.36h-1.87v-10.49h-.07l-2.96,1.93v-1.79l3.08-2.02h1.82Z"/>
    <path class="cls-1" d="m117.99,182.13v-1.35l8.02-2.63v1.64l-5.49,1.64.06-.11v.27l-.06-.11,5.49,1.64v1.64l-8.02-2.63Zm8.02,5.06h-8.02v-1.58h8.02v1.58Z"/>
    <path class="cls-1" d="m133.09,186.43v-1.51l5.34-8.44h1.19v2.22h-.75l-3.82,6.05v.1h7.32v1.58h-9.28Zm5.86,2.42v-3.56s.01-8.8.01-8.8h1.77v12.36h-1.78Z"/>
    <path class="cls-1" d="m218.32,179.57l2.05,3.61,2.06-3.61h1.97l-2.89,4.64,2.92,4.64h-1.97l-2.09-3.46-2.08,3.46h-1.98l2.89-4.64-2.85-4.64h1.98Z"/>
    <path class="cls-1" d="m240.74,181.88v1.57h-5.48v-1.57h5.48Z"/>
    <path class="cls-1" d="m247.36,186.43v-1.51l5.34-8.44h1.19v2.22h-.75l-3.82,6.05v.1h7.32v1.58h-9.28Zm5.86,2.42v-3.56s.01-8.8.01-8.8h1.77v12.36h-1.78Z"/>
    <path class="cls-1" d="m260.19,179.57l2.05,3.61,2.06-3.61h1.97l-2.89,4.64,2.92,4.64h-1.97l-2.09-3.46-2.08,3.46h-1.98l2.89-4.64-2.85-4.64h1.98Z"/>
    <path class="cls-1" d="m278.1,181.88v1.57h-5.48v-1.57h5.48Z"/>
    <path class="cls-1" d="m289.07,189.01c-.76,0-1.44-.15-2.04-.44s-1.08-.69-1.44-1.2c-.36-.51-.55-1.09-.57-1.75h1.81c.04.53.28.97.71,1.31.43.34.94.51,1.53.51.47,0,.9-.11,1.26-.33s.66-.52.87-.91c.21-.39.32-.83.32-1.32s-.11-.95-.33-1.35c-.22-.39-.52-.7-.9-.93-.38-.23-.82-.34-1.31-.34-.37,0-.75.06-1.13.19-.38.13-.68.3-.92.51l-1.71-.25.69-6.23h6.8v1.6h-5.25l-.39,3.46h.07c.24-.23.56-.43.96-.59.4-.16.83-.24,1.29-.24.75,0,1.42.18,2.01.54.59.36,1.05.85,1.39,1.46.34.62.51,1.33.5,2.13,0,.8-.18,1.51-.54,2.14s-.87,1.12-1.51,1.48-1.38.54-2.21.54Z"/>
    <path class="cls-1" d="m300.5,182.13v-1.35l8.02-2.63v1.64l-5.49,1.64.06-.11v.27l-.06-.11,5.49,1.64v1.64l-8.02-2.63Zm8.02,5.06h-8.02v-1.58h8.02v1.58Z"/>
    <path class="cls-1" d="m320.16,189.05c-.95,0-1.77-.25-2.44-.75-.68-.5-1.19-1.22-1.55-2.18s-.54-2.1-.54-3.45.18-2.49.54-3.43c.36-.95.88-1.67,1.56-2.17s1.49-.75,2.44-.75,1.76.25,2.43.75c.68.5,1.19,1.23,1.55,2.17.36.95.54,2.09.54,3.43s-.18,2.5-.54,3.45c-.36.95-.88,1.68-1.55,2.18-.68.5-1.49.75-2.44.75Zm0-1.61c.84,0,1.49-.41,1.97-1.23.47-.82.71-2,.71-3.54,0-1.03-.11-1.89-.32-2.6-.21-.71-.52-1.25-.92-1.62s-.88-.55-1.43-.55c-.83,0-1.49.41-1.96,1.23-.47.82-.71,2-.72,3.54,0,1.03.11,1.9.32,2.61.22.71.52,1.25.92,1.61s.88.55,1.44.55Z"/>
    <path class="cls-1" d="m38.32,203.57l2.05,3.61,2.06-3.61h1.97l-2.89,4.64,2.92,4.64h-1.97l-2.09-3.46-2.08,3.46h-1.98l2.89-4.64-2.85-4.64h1.98Z"/>
    <path class="cls-1" d="m60.73,205.88v1.57h-5.48v-1.57h5.48Z"/>
    <path class="cls-1" d="m67.36,210.43v-1.51l5.34-8.44h1.19v2.22h-.75l-3.82,6.05v.1h7.32v1.58h-9.28Zm5.86,2.42v-3.56s.01-8.8.01-8.8h1.77v12.36h-1.78Z"/>
    <path class="cls-1" d="m80.19,203.57l2.05,3.61,2.06-3.61h1.97l-2.89,4.64,2.92,4.64h-1.97l-2.09-3.46-2.08,3.46h-1.98l2.89-4.64-2.85-4.64h1.98Z"/>
    <path class="cls-1" d="m98.1,205.88v1.57h-5.48v-1.57h5.48Z"/>
    <path class="cls-1" d="m109.68,200.48v12.36h-1.87v-10.49h-.07l-2.96,1.93v-1.79l3.08-2.02h1.82Z"/>
    <path class="cls-1" d="m126.01,206.13l-8.02,2.63v-1.64l5.49-1.64-.05.11v-.27l.05.11-5.49-1.64v-1.64l8.02,2.63v1.35Zm-8.02,5.06v-1.58h8.02v1.58h-8.02Z"/>
    <path class="cls-1" d="m138.84,205.88v1.57h-5.48v-1.57h5.48Z"/>
    <path class="cls-1" d="m145.91,200.48v12.36h-1.87v-10.49h-.07l-2.96,1.93v-1.79l3.08-2.02h1.82Z"/>
    <path class="cls-1" d="m218.32,203.57l2.05,3.61,2.06-3.61h1.97l-2.89,4.64,2.92,4.64h-1.97l-2.09-3.46-2.08,3.46h-1.98l2.89-4.64-2.85-4.64h1.98Z"/>
    <path class="cls-1" d="m240.73,205.88v1.57h-5.48v-1.57h5.48Z"/>
    <path class="cls-1" d="m247.36,210.43v-1.51l5.34-8.44h1.19v2.22h-.75l-3.82,6.05v.1h7.32v1.58h-9.28Zm5.86,2.42v-3.56s.01-8.8.01-8.8h1.77v12.36h-1.78Z"/>
    <path class="cls-1" d="m260.19,203.57l2.05,3.61,2.06-3.61h1.97l-2.89,4.64,2.92,4.64h-1.97l-2.09-3.46-2.08,3.46h-1.98l2.89-4.64-2.85-4.64h1.98Z"/>
    <path class="cls-1" d="m281.1,206.13l-8.02,2.63v-1.64l5.49-1.64-.05.11v-.27l.05.11-5.49-1.64v-1.64l8.02,2.63v1.35Zm-8.02,5.06v-1.58h8.02v1.58h-8.02Z"/>
    <path class="cls-1" d="m292.74,213.05c-.95,0-1.77-.25-2.44-.75-.68-.5-1.19-1.22-1.55-2.18s-.54-2.1-.54-3.45.18-2.49.54-3.43c.36-.95.88-1.67,1.56-2.17s1.49-.75,2.44-.75,1.76.25,2.43.75c.68.5,1.19,1.23,1.55,2.17.36.95.54,2.09.54,3.43s-.18,2.5-.54,3.45c-.36.95-.88,1.68-1.55,2.18-.68.5-1.49.75-2.44.75Zm0-1.61c.84,0,1.49-.41,1.97-1.23.47-.82.71-2,.71-3.54,0-1.03-.11-1.89-.32-2.6-.21-.71-.52-1.25-.92-1.62s-.88-.55-1.43-.55c-.83,0-1.49.41-1.96,1.23-.47.82-.71,2-.72,3.54,0,1.03.11,1.9.32,2.61.22.71.52,1.25.92,1.61s.88.55,1.44.55Z"/>
  </g>
  <path class="cls-1" d="m52.51,14.29v-.95l2.95-3.06c.32-.33.58-.62.78-.88.21-.25.36-.49.46-.72.1-.23.15-.47.15-.72,0-.29-.07-.54-.2-.75s-.32-.38-.56-.49c-.24-.11-.5-.17-.8-.17-.31,0-.59.06-.82.19-.23.13-.41.31-.54.54s-.19.51-.19.82h-1.26c0-.53.12-1,.37-1.39.24-.4.58-.71,1.01-.93s.91-.33,1.45-.33,1.03.11,1.45.33c.42.22.75.51.98.89s.35.79.35,1.26c0,.32-.06.64-.18.95-.12.31-.33.65-.63,1.03-.3.38-.71.84-1.24,1.38l-1.73,1.81v.06h3.93v1.13h-5.74Z"/>
  <path class="cls-1" d="m125.51,9.29v-.95l2.95-3.06c.32-.33.58-.62.78-.88.21-.25.36-.49.46-.72.1-.23.15-.47.15-.72,0-.29-.07-.54-.2-.75s-.32-.38-.56-.49c-.24-.11-.5-.17-.8-.17-.31,0-.59.06-.82.19-.23.13-.41.31-.54.54s-.19.51-.19.82h-1.26c0-.53.12-1,.37-1.39.24-.4.58-.71,1.01-.93s.91-.33,1.45-.33,1.03.11,1.45.33c.42.22.75.51.98.89s.35.79.35,1.26c0,.32-.06.64-.18.95-.12.31-.33.65-.63,1.03-.3.38-.71.84-1.24,1.38l-1.73,1.81v.06h3.93v1.13h-5.74Z"/>
  <path class="cls-1" d="m173.51,14.29v-.95l2.95-3.06c.32-.33.58-.62.78-.88.21-.25.36-.49.46-.72.1-.23.15-.47.15-.72,0-.29-.07-.54-.2-.75s-.32-.38-.56-.49c-.24-.11-.5-.17-.8-.17-.31,0-.59.06-.82.19-.23.13-.41.31-.54.54s-.19.51-.19.82h-1.26c0-.53.12-1,.37-1.39.24-.4.58-.71,1.01-.93s.91-.33,1.45-.33,1.03.11,1.45.33c.42.22.75.51.98.89s.35.79.35,1.26c0,.32-.06.64-.18.95-.12.31-.33.65-.63,1.03-.3.38-.71.84-1.24,1.38l-1.73,1.81v.06h3.93v1.13h-5.74Z"/>
  <path class="cls-1" d="m91.51,39.29v-.95l2.95-3.06c.32-.33.58-.62.78-.88.21-.25.36-.49.46-.72.1-.23.15-.47.15-.72,0-.29-.07-.54-.2-.75s-.32-.38-.56-.49c-.24-.11-.5-.17-.8-.17-.31,0-.59.06-.82.19-.23.13-.41.31-.54.54s-.19.51-.19.82h-1.26c0-.53.12-1,.37-1.39.24-.4.58-.71,1.01-.93s.91-.33,1.45-.33,1.03.11,1.45.33c.42.22.75.51.98.89s.35.79.35,1.26c0,.32-.06.64-.18.95-.12.31-.33.65-.63,1.03-.3.38-.71.84-1.24,1.38l-1.73,1.81v.06h3.93v1.13h-5.74Z"/>
  <path class="cls-1" d="m190.51,134.29v-.95l2.95-3.06c.32-.33.58-.62.78-.88.21-.25.36-.49.46-.72.1-.23.15-.47.15-.72,0-.29-.07-.54-.2-.75s-.32-.38-.56-.49c-.24-.11-.5-.17-.8-.17-.31,0-.59.06-.82.19-.23.13-.41.31-.54.54s-.19.51-.19.82h-1.26c0-.53.12-1,.37-1.39.24-.4.58-.71,1.01-.93s.91-.33,1.45-.33,1.03.11,1.45.33c.42.22.75.51.98.89s.35.79.35,1.26c0,.32-.06.64-.18.95-.12.31-.33.65-.63,1.03-.3.38-.71.84-1.24,1.38l-1.73,1.81v.06h3.93v1.13h-5.74Z"/>
  <path class="cls-1" d="m44.51,182.29v-.95l2.95-3.06c.32-.33.58-.62.78-.88.21-.25.36-.49.46-.72.1-.23.15-.47.15-.72,0-.29-.07-.54-.2-.75s-.32-.38-.56-.49c-.24-.11-.5-.17-.8-.17-.31,0-.59.06-.82.19-.23.13-.41.31-.54.54s-.19.51-.19.82h-1.26c0-.53.12-1,.37-1.39.24-.4.58-.71,1.01-.93s.91-.33,1.45-.33,1.03.11,1.45.33c.42.22.75.51.98.89s.35.79.35,1.26c0,.32-.06.64-.18.95-.12.31-.33.65-.63,1.03-.3.38-.71.84-1.24,1.38l-1.73,1.81v.06h3.93v1.13h-5.74Z"/>
  <path class="cls-1" d="m224.51,207.29v-.95l2.95-3.06c.32-.33.58-.62.78-.88.21-.25.36-.49.46-.72.1-.23.15-.47.15-.72,0-.29-.07-.54-.2-.75s-.32-.38-.56-.49c-.24-.11-.5-.17-.8-.17-.31,0-.59.06-.82.19-.23.13-.41.31-.54.54s-.19.51-.19.82h-1.26c0-.53.12-1,.37-1.39.24-.4.58-.71,1.01-.93s.91-.33,1.45-.33,1.03.11,1.45.33c.42.22.75.51.98.89s.35.79.35,1.26c0,.32-.06.64-.18.95-.12.31-.33.65-.63,1.03-.3.38-.71.84-1.24,1.38l-1.73,1.81v.06h3.93v1.13h-5.74Z"/>
  <path class="cls-1" d="m44.51,207.29v-.95l2.95-3.06c.32-.33.58-.62.78-.88.21-.25.36-.49.46-.72.1-.23.15-.47.15-.72,0-.29-.07-.54-.2-.75s-.32-.38-.56-.49c-.24-.11-.5-.17-.8-.17-.31,0-.59.06-.82.19-.23.13-.41.31-.54.54s-.19.51-.19.82h-1.26c0-.53.12-1,.37-1.39.24-.4.58-.71,1.01-.93s.91-.33,1.45-.33,1.03.11,1.45.33c.42.22.75.51.98.89s.35.79.35,1.26c0,.32-.06.64-.18.95-.12.31-.33.65-.63,1.03-.3.38-.71.84-1.24,1.38l-1.73,1.81v.06h3.93v1.13h-5.74Z"/>
  <path class="cls-1" d="m224.51,183.29v-.95l2.95-3.06c.32-.33.58-.62.78-.88.21-.25.36-.49.46-.72.1-.23.15-.47.15-.72,0-.29-.07-.54-.2-.75s-.32-.38-.56-.49c-.24-.11-.5-.17-.8-.17-.31,0-.59.06-.82.19-.23.13-.41.31-.54.54s-.19.51-.19.82h-1.26c0-.53.12-1,.37-1.39.24-.4.58-.71,1.01-.93s.91-.33,1.45-.33,1.03.11,1.45.33c.42.22.75.51.98.89s.35.79.35,1.26c0,.32-.06.64-.18.95-.12.31-.33.65-.63,1.03-.3.38-.71.84-1.24,1.38l-1.73,1.81v.06h3.93v1.13h-5.74Z"/>
  <path class="cls-1" d="m42.51,60.29v-.95l2.95-3.06c.32-.33.58-.62.78-.88.21-.25.36-.49.46-.72.1-.23.15-.47.15-.72,0-.29-.07-.54-.2-.75s-.32-.38-.56-.49c-.24-.11-.5-.17-.8-.17-.31,0-.59.06-.82.19-.23.13-.41.31-.54.54s-.19.51-.19.82h-1.26c0-.53.12-1,.37-1.39.24-.4.58-.71,1.01-.93s.91-.33,1.45-.33,1.03.11,1.45.33c.42.22.75.51.98.89s.35.79.35,1.26c0,.32-.06.64-.18.95-.12.31-.33.65-.63,1.03-.3.38-.71.84-1.24,1.38l-1.73,1.81v.06h3.93v1.13h-5.74Z"/>
  <path class="cls-1" d="m43.51,120.29v-.95l2.95-3.06c.32-.33.58-.62.78-.88.21-.25.36-.49.46-.72.1-.23.15-.47.15-.72,0-.29-.07-.54-.2-.75s-.32-.38-.56-.49c-.24-.11-.5-.17-.8-.17-.31,0-.59.06-.82.19-.23.13-.41.31-.54.54s-.19.51-.19.82h-1.26c0-.53.12-1,.37-1.39.24-.4.58-.71,1.01-.93s.91-.33,1.45-.33,1.03.11,1.45.33c.42.22.75.51.98.89s.35.79.35,1.26c0,.32-.06.64-.18.95-.12.31-.33.65-.63,1.03-.3.38-.71.84-1.24,1.38l-1.73,1.81v.06h3.93v1.13h-5.74Z"/>
  <path class="cls-1" d="m46.82,87.56v8.73h-1.32v-7.41h-.05l-2.09,1.36v-1.26l2.18-1.42h1.28Z"/>
  <line class="cls-2" x1="210" y1="69.31" x2="240.87" y2="69.31"/>
  <line class="cls-2" x1="248.92" y1="69.14" x2="290.53" y2="69.14"/>
  <line class="cls-2" x1="298.59" y1="69.14" x2="349.59" y2="69.14"/>
  <polygon class="cls-1" points="361 69.31 348.92 62.33 348.92 76.28 361 69.31"/>
  <circle class="cls-3" cx="244.9" cy="69.31" r="4.7"/>
  <circle class="cls-3" cx="294.56" cy="69.31" r="4.7"/>
  <g>
    <path class="cls-1" d="m240.8,83.74v1.49h-5.19v-1.49h5.19Z"/>
    <path class="cls-1" d="m247.51,78.63v11.71h-1.77v-9.94h-.07l-2.8,1.83v-1.69l2.92-1.91h1.72Z"/>
  </g>
  <path class="cls-1" d="m289.65,87v-1.43l5.06-8h1.13v2.1h-.71l-3.62,5.73v.09h6.94v1.5h-8.79Zm5.55,2.29v-3.37s.01-8.34.01-8.34h1.68v11.71h-1.69Z"/>
  <path class="cls-1" d="m325.59,58.98v-1.54h7.73v1.54h-7.73Zm3.09,3.1v-7.73h1.54v7.73h-1.54Z"/>
  <path class="cls-1" d="m215.52,58.98v-1.54h7.73v1.54h-7.73Zm3.09,3.1v-7.73h1.54v7.73h-1.54Z"/>
  <path class="cls-1" d="m272.62,57.14v1.48h-5.19v-1.48h5.19Z"/>
  <path class="cls-2" d="m244.9,64.61c0-14.26-20.13-19.55-34.9-19.55"/>
  <path class="cls-2" d="m294.56,64.61c0-14.26-14.71-19.55-25.5-19.55"/>
  <path class="cls-2" d="m294.56,64.61c0-14.26,30.97-19.55,53.69-19.55"/>
  <path class="cls-2" d="m244.9,64.61c0-14.26,14.71-19.55,25.5-19.55"/>
  <line class="cls-2" x1="35" y1="257.74" x2="62.6" y2="257.74"/>
  <line class="cls-2" x1="69.8" y1="257.59" x2="107" y2="257.59"/>
  <line class="cls-2" x1="114.2" y1="257.59" x2="159.8" y2="257.59"/>
  <polygon class="cls-1" points="170 257.74 159.2 251.5 159.2 263.97 170 257.74"/>
  <circle class="cls-3" cx="66.2" cy="257.74" r="4.2"/>
  <circle class="cls-3" cx="110.6" cy="257.74" r="4.2"/>
  <g>
    <path class="cls-1" d="m62.54,270.64v1.33h-4.64v-1.33h4.64Z"/>
    <path class="cls-1" d="m68.53,266.07v10.47h-1.58v-8.89h-.06l-2.51,1.64v-1.51l2.61-1.71h1.54Z"/>
  </g>
  <path class="cls-1" d="m109.89,275.75c-.64,0-1.22-.12-1.73-.37s-.92-.59-1.22-1.02c-.3-.43-.47-.93-.49-1.48h1.53c.04.45.24.82.6,1.11.36.29.79.43,1.3.43.4,0,.76-.09,1.07-.28s.56-.44.74-.77c.18-.33.27-.7.27-1.12s-.09-.81-.28-1.14-.44-.6-.76-.79c-.32-.19-.69-.29-1.11-.29-.32,0-.64.05-.96.16s-.58.25-.78.43l-1.45-.21.59-5.28h5.76v1.36h-4.44l-.33,2.93h.06c.2-.2.48-.36.82-.5.34-.13.7-.2,1.09-.2.64,0,1.21.15,1.71.46s.89.72,1.18,1.24.43,1.12.43,1.8c0,.68-.15,1.28-.46,1.81-.31.53-.73.95-1.28,1.26-.54.3-1.17.46-1.87.46Z"/>
  <path class="cls-1" d="m138.34,248.51v-1.38h6.91v1.38h-6.91Zm2.77,2.77v-6.91h1.38v6.91h-1.38Z"/>
  <path class="cls-1" d="m39.94,248.51v-1.38h6.91v1.38h-6.91Zm2.77,2.77v-6.91h1.38v6.91h-1.38Z"/>
  <path class="cls-1" d="m90.99,246.86v1.32h-4.64v-1.32h4.64Z"/>
  <path class="cls-2" d="m66.2,253.54c0-12.75-18-17.48-31.2-17.48"/>
  <path class="cls-2" d="m110.6,253.54c0-12.75-13.15-17.48-22.8-17.48"/>
  <path class="cls-2" d="m110.6,253.54c0-12.75,27.69-17.48,48-17.48"/>
  <path class="cls-2" d="m66.2,253.54c0-12.75,13.15-17.48,22.8-17.48"/>
  <line class="cls-2" x1="214" y1="258.74" x2="241.6" y2="258.74"/>
  <line class="cls-2" x1="248.8" y1="258.59" x2="286" y2="258.59"/>
  <line class="cls-2" x1="293.2" y1="258.59" x2="338.8" y2="258.59"/>
  <polygon class="cls-1" points="349 258.74 338.2 252.5 338.2 264.97 349 258.74"/>
  <circle class="cls-3" cx="245.2" cy="258.74" r="4.2"/>
  <circle class="cls-3" cx="289.6" cy="258.74" r="4.2"/>
  <path class="cls-1" d="m240.54,277.72c-.81,0-1.5-.22-2.07-.64-.57-.42-1.01-1.04-1.31-1.85-.3-.81-.46-1.78-.46-2.92s.15-2.1.46-2.91c.31-.8.75-1.42,1.32-1.84.57-.42,1.26-.63,2.06-.63s1.49.21,2.06.64c.57.42,1.01,1.04,1.32,1.84s.46,1.77.46,2.91-.15,2.12-.46,2.92c-.3.81-.74,1.42-1.31,1.85s-1.26.64-2.07.64Zm0-1.37c.71,0,1.26-.35,1.66-1.04s.6-1.69.6-3c0-.87-.09-1.6-.27-2.21-.18-.6-.44-1.06-.78-1.37-.34-.31-.74-.47-1.21-.47-.71,0-1.26.35-1.66,1.04-.4.7-.61,1.7-.61,3,0,.87.09,1.61.27,2.21.18.6.44,1.06.78,1.37.34.31.74.46,1.22.46Z"/>
  <path class="cls-1" d="m285.21,274.56v-1.28l4.53-7.15h1.01v1.88h-.64l-3.24,5.12v.08h6.2v1.34h-7.86Zm4.96,2.05v-3.02s0-7.46,0-7.46h1.5v10.47h-1.51Z"/>
  <path class="cls-1" d="m317.34,249.51v-1.38h6.91v1.38h-6.91Zm2.77,2.77v-6.91h1.38v6.91h-1.38Z"/>
  <path class="cls-1" d="m218.94,249.51v-1.38h6.91v1.38h-6.91Zm2.77,2.77v-6.91h1.38v6.91h-1.38Z"/>
  <path class="cls-1" d="m269.99,247.86v1.32h-4.64v-1.32h4.64Z"/>
  <path class="cls-2" d="m245.2,254.54c0-12.75-18-17.48-31.2-17.48"/>
  <path class="cls-2" d="m289.6,254.54c0-12.75-13.15-17.48-22.8-17.48"/>
  <path class="cls-2" d="m289.6,254.54c0-12.75,27.69-17.48,48-17.48"/>
  <path class="cls-2" d="m245.2,254.54c0-12.75,13.15-17.48,22.8-17.48"/>
  <path class="cls-3" d="m19.85,196.22v-1.34c1.82-.01,3.07-.36,3.75-1.05.68-.69,1.01-1.93,1.01-3.73v-7.29c0-1.27.12-2.36.38-3.29.25-.93.64-1.7,1.17-2.31.53-.61,1.22-1.07,2.06-1.37.84-.3,1.85-.45,3.04-.45v1.73c-1.15-.01-2.08.18-2.79.58-.71.4-1.23,1.02-1.55,1.86-.33.84-.49,1.92-.49,3.24v7.72c0,.98-.1,1.83-.31,2.54-.21.71-.56,1.3-1.05,1.77-.49.46-1.16.81-2.01,1.04-.85.23-1.92.34-3.21.34Zm0,.61v-1.95h3.56v1.95h-3.56Zm11.41,19.48c-1.18,0-2.19-.15-3.04-.45s-1.53-.75-2.06-1.37-.92-1.38-1.17-2.31c-.25-.93-.38-2.02-.38-3.29v-7.29c0-1.8-.34-3.04-1.01-3.73-.68-.69-1.93-1.04-3.75-1.05v-1.34c1.29.01,2.36.13,3.21.36.85.23,1.52.57,2.01,1.03.49.46.84,1.04,1.05,1.76.21.71.31,1.56.31,2.54v7.72c0,1.32.16,2.4.49,3.24.32.84.84,1.46,1.55,1.85.71.39,1.64.59,2.79.59v1.73Z"/>
  <path class="cls-3" d="m198.85,196.22v-1.34c1.82-.01,3.07-.36,3.75-1.05.68-.69,1.01-1.93,1.01-3.73v-7.29c0-1.27.12-2.36.38-3.29.25-.93.64-1.7,1.17-2.31.53-.61,1.22-1.07,2.06-1.37.84-.3,1.85-.45,3.04-.45v1.73c-1.15-.01-2.08.18-2.79.58-.71.4-1.23,1.02-1.55,1.86-.33.84-.49,1.92-.49,3.24v7.72c0,.98-.1,1.83-.31,2.54-.21.71-.56,1.3-1.05,1.77-.49.46-1.16.81-2.01,1.04-.85.23-1.92.34-3.21.34Zm0,.61v-1.95h3.56v1.95h-3.56Zm11.41,19.48c-1.18,0-2.19-.15-3.04-.45s-1.53-.75-2.06-1.37-.92-1.38-1.17-2.31c-.25-.93-.38-2.02-.38-3.29v-7.29c0-1.8-.34-3.04-1.01-3.73-.68-.69-1.93-1.04-3.75-1.05v-1.34c1.29.01,2.36.13,3.21.36.85.23,1.52.57,2.01,1.03.49.46.84,1.04,1.05,1.76.21.71.31,1.56.31,2.54v7.72c0,1.32.16,2.4.49,3.24.32.84.84,1.46,1.55,1.85.71.39,1.64.59,2.79.59v1.73Z"/>
</svg>