<?xml version="1.0" encoding="UTF-8"?>
<svg id="Layer_1" data-name="Layer 1" xmlns="http://www.w3.org/2000/svg" viewBox="0 0 468 344">
  <defs>
    <style>
      .cls-1 {
        fill: #fff;
      }

      .cls-2 {
        stroke: #fff;
      }

      .cls-2, .cls-3 {
        fill: none;
        stroke-miterlimit: 10;
        stroke-width: 2px;
      }

      .cls-3 {
        stroke: #d1ae59;
      }
    </style>
  </defs>
  <g>
    <path class="cls-1" d="m37.77,8.74c0-1.51.2-2.91.6-4.18.4-1.27.98-2.44,1.74-3.52h1.65c-.3.4-.58.89-.83,1.47-.26.58-.48,1.21-.68,1.9-.19.69-.34,1.4-.45,2.14-.11.74-.16,1.47-.16,2.18,0,.96.09,1.93.28,2.91.19.98.44,1.89.77,2.73.32.84.68,1.53,1.07,2.06h-1.65c-.76-1.07-1.35-2.25-1.74-3.52-.4-1.27-.6-2.67-.6-4.18Z"/>
    <path class="cls-1" d="m45.09,4.6l2.05,3.61,2.06-3.61h1.97l-2.89,4.64,2.92,4.64h-1.97l-2.09-3.47-2.08,3.47h-1.98l2.89-4.64-2.85-4.64h1.98Z"/>
    <path class="cls-1" d="m63.01,6.9v1.57h-5.48v-1.57h5.48Z"/>
    <path class="cls-1" d="m74.58,1.5v12.36h-1.87V3.38h-.07l-2.96,1.93v-1.79l3.08-2.02h1.82Z"/>
    <path class="cls-1" d="m81.42,8.74c0,1.52-.2,2.91-.6,4.18-.4,1.27-.98,2.44-1.74,3.52h-1.65c.3-.4.58-.89.83-1.47.26-.58.48-1.21.68-1.9s.34-1.41.45-2.15c.11-.74.16-1.47.16-2.19,0-.95-.09-1.92-.28-2.9s-.44-1.89-.77-2.73c-.32-.84-.68-1.53-1.07-2.06h1.65c.76,1.07,1.35,2.25,1.74,3.52.4,1.27.6,2.66.6,4.18Z"/>
    <path class="cls-1" d="m84.9,8.74c0-1.51.2-2.91.6-4.18.4-1.27.98-2.44,1.75-3.52h1.65c-.3.4-.58.89-.83,1.47-.26.58-.48,1.21-.68,1.9-.19.69-.34,1.4-.45,2.14-.11.74-.16,1.47-.16,2.18,0,.96.09,1.93.28,2.91.19.98.45,1.89.77,2.73.32.84.68,1.53,1.08,2.06h-1.65c-.76-1.07-1.35-2.25-1.75-3.52-.4-1.27-.6-2.67-.6-4.18Z"/>
    <path class="cls-1" d="m92.22,4.6l2.05,3.61,2.06-3.61h1.97l-2.89,4.64,2.92,4.64h-1.97l-2.09-3.47-2.08,3.47h-1.98l2.89-4.64-2.85-4.64h1.98Z"/>
    <path class="cls-1" d="m110.14,6.9v1.57h-5.48v-1.57h5.48Z"/>
    <path class="cls-1" d="m117.03,13.87v-1.35l4.18-4.33c.45-.47.82-.88,1.11-1.24.29-.36.51-.7.66-1.02.14-.32.22-.66.22-1.03,0-.41-.1-.77-.29-1.07-.19-.3-.46-.53-.79-.69-.33-.16-.71-.24-1.13-.24-.44,0-.83.09-1.16.27s-.58.44-.76.77c-.18.33-.27.72-.27,1.16h-1.78c0-.75.17-1.41.52-1.97s.82-1,1.42-1.31c.6-.31,1.29-.47,2.06-.47s1.46.15,2.06.46c.59.31,1.06.73,1.39,1.26.33.53.5,1.13.5,1.79,0,.46-.09.91-.26,1.35-.17.44-.47.93-.89,1.46-.42.54-1.01,1.19-1.76,1.95l-2.46,2.57v.09h5.57v1.6h-8.14Z"/>
    <path class="cls-1" d="m130.95,8.74c0,1.52-.2,2.91-.6,4.18-.4,1.27-.98,2.44-1.74,3.52h-1.65c.3-.4.58-.89.83-1.47.26-.58.48-1.21.68-1.9s.34-1.41.45-2.15c.11-.74.16-1.47.16-2.19,0-.95-.09-1.92-.28-2.9s-.44-1.89-.77-2.73c-.32-.84-.68-1.53-1.07-2.06h1.65c.76,1.07,1.35,2.25,1.74,3.52.4,1.27.6,2.66.6,4.18Z"/>
    <path class="cls-1" d="m134.42,8.74c0-1.51.2-2.91.6-4.18.4-1.27.98-2.44,1.75-3.52h1.65c-.3.4-.58.89-.83,1.47-.26.58-.48,1.21-.68,1.9-.19.69-.34,1.4-.45,2.14-.11.74-.16,1.47-.16,2.18,0,.96.09,1.93.28,2.91.19.98.45,1.89.77,2.73.32.84.68,1.53,1.08,2.06h-1.65c-.76-1.07-1.35-2.25-1.75-3.52-.4-1.27-.6-2.67-.6-4.18Z"/>
    <path class="cls-1" d="m141.75,4.6l2.05,3.61,2.06-3.61h1.97l-2.89,4.64,2.92,4.64h-1.97l-2.09-3.47-2.08,3.47h-1.98l2.89-4.64-2.85-4.64h1.98Z"/>
    <path class="cls-1" d="m159.66,6.9v1.57h-5.48v-1.57h5.48Z"/>
    <path class="cls-1" d="m170.85,14.04c-.83,0-1.57-.14-2.22-.43-.65-.29-1.16-.68-1.54-1.19-.38-.51-.58-1.1-.61-1.77h1.9c.02.37.15.68.37.95.22.27.52.47.88.62.36.15.76.22,1.21.22.49,0,.92-.08,1.29-.25s.67-.41.88-.71c.21-.3.32-.65.32-1.05s-.11-.78-.32-1.1c-.21-.32-.52-.56-.92-.75s-.89-.27-1.46-.27h-1.04v-1.52h1.04c.46,0,.86-.08,1.21-.25.35-.17.62-.4.82-.69.2-.3.3-.64.3-1.04s-.09-.72-.26-1-.41-.51-.72-.67c-.31-.16-.68-.24-1.1-.24s-.78.07-1.13.22c-.35.15-.63.36-.85.63-.22.27-.33.6-.35.98h-1.8c.02-.67.22-1.26.59-1.76.38-.51.87-.9,1.49-1.19.62-.29,1.31-.43,2.06-.43s1.48.15,2.06.46c.58.31,1.02.72,1.34,1.23.32.51.47,1.07.47,1.68,0,.69-.19,1.28-.58,1.76s-.9.81-1.55.97v.1c.82.12,1.46.45,1.91.98.45.53.68,1.18.67,1.96,0,.68-.18,1.29-.56,1.83-.38.54-.9.96-1.55,1.27-.66.31-1.41.46-2.25.46Z"/>
    <path class="cls-1" d="m180.99,7.69c0,1.52-.2,2.91-.6,4.18-.4,1.27-.98,2.44-1.74,3.52h-1.65c.3-.4.58-.89.83-1.47s.48-1.21.68-1.9c.19-.69.34-1.41.45-2.15.11-.74.16-1.47.16-2.19,0-.95-.09-1.92-.28-2.9s-.44-1.89-.77-2.73-.68-1.53-1.07-2.06h1.65c.76,1.07,1.35,2.25,1.74,3.52.4,1.27.6,2.66.6,4.18Z"/>
    <path class="cls-1" d="m196.91,8.52l-8.02,3.89v-1.85l5.92-2.69-.06.1v-.26l.06.11-5.92-2.7v-1.84l8.02,3.89v1.35Z"/>
    <path class="cls-1" d="m208.55,14.07c-.95,0-1.77-.26-2.44-.75-.68-.5-1.19-1.23-1.55-2.18-.36-.95-.54-2.1-.54-3.45s.18-2.49.54-3.44.88-1.67,1.56-2.17,1.49-.75,2.44-.75,1.76.25,2.43.75c.68.5,1.19,1.23,1.55,2.17.36.95.54,2.09.54,3.43s-.18,2.5-.54,3.45c-.36.95-.88,1.68-1.55,2.18s-1.49.75-2.44.75Zm0-1.61c.84,0,1.49-.41,1.97-1.23.47-.82.71-2,.71-3.54,0-1.03-.11-1.89-.32-2.6-.21-.71-.52-1.25-.92-1.62-.4-.37-.88-.55-1.43-.55-.83,0-1.49.41-1.96,1.23-.47.82-.71,2-.72,3.54,0,1.03.11,1.9.32,2.61.22.71.52,1.25.92,1.61s.88.55,1.44.55Z"/>
    <path class="cls-1" d="m11.06,21.9v12.36h-1.86v-10.77H3.38v10.77h-1.86v-12.36h9.54Z"/>
    <path class="cls-1" d="m13.76,37.75v-12.75h1.76v1.5h.15c.1-.19.26-.42.45-.67.2-.25.47-.48.82-.67.35-.19.81-.29,1.39-.29.75,0,1.42.19,2,.57.59.38,1.05.92,1.39,1.64s.5,1.57.5,2.57-.17,1.86-.5,2.57-.79,1.26-1.38,1.65-1.25.58-2,.58c-.56,0-1.02-.09-1.38-.28-.36-.19-.64-.41-.84-.66s-.36-.48-.46-.68h-.11v4.92h-1.81Zm1.77-8.11c0,.65.09,1.22.28,1.71.19.49.46.87.82,1.15.36.28.8.41,1.32.41s.99-.14,1.35-.43c.36-.29.64-.68.82-1.17.19-.49.28-1.05.28-1.67s-.09-1.16-.27-1.65c-.18-.49-.46-.87-.82-1.15s-.82-.42-1.36-.42-.96.13-1.32.4c-.36.27-.63.65-.82,1.13s-.28,1.05-.28,1.69Z"/>
    <path class="cls-1" d="m26.02,31.74l4.09-6.74h1.94v9.27h-1.77v-6.75l-4.07,6.75h-1.96v-9.27h1.77v6.74Z"/>
    <path class="cls-1" d="m34.48,37.75v-12.75h1.76v1.5h.15c.1-.19.26-.42.45-.67.2-.25.47-.48.82-.67.35-.19.81-.29,1.39-.29.75,0,1.42.19,2,.57.59.38,1.05.92,1.39,1.64s.5,1.57.5,2.57-.17,1.86-.5,2.57-.79,1.26-1.38,1.65-1.25.58-2,.58c-.56,0-1.02-.09-1.38-.28-.36-.19-.64-.41-.84-.66s-.36-.48-.46-.68h-.11v4.92h-1.81Zm1.77-8.11c0,.65.09,1.22.28,1.71.19.49.46.87.82,1.15.36.28.8.41,1.32.41s.99-.14,1.35-.43c.36-.29.64-.68.82-1.17.19-.49.28-1.05.28-1.67s-.09-1.16-.27-1.65c-.18-.49-.46-.87-.82-1.15s-.82-.42-1.36-.42-.96.13-1.32.4c-.36.27-.63.65-.82,1.13s-.28,1.05-.28,1.69Z"/>
    <path class="cls-1" d="m47.67,34.47c-.59,0-1.12-.11-1.59-.33-.48-.22-.85-.54-1.13-.96-.28-.42-.41-.93-.41-1.54,0-.52.1-.95.3-1.29.2-.34.47-.61.81-.8.34-.2.72-.35,1.15-.45.42-.1.85-.18,1.29-.23.56-.06,1.01-.12,1.35-.16.35-.04.6-.11.75-.21s.24-.25.24-.47v-.04c0-.53-.15-.94-.44-1.23-.3-.29-.74-.43-1.32-.43s-1.09.13-1.43.4c-.35.27-.59.56-.72.89l-1.7-.39c.2-.56.5-1.02.88-1.37.39-.35.84-.6,1.34-.76.51-.16,1.04-.24,1.6-.24.37,0,.76.04,1.18.13s.81.24,1.17.47c.36.23.66.56.9.98.23.42.35.97.35,1.65v6.16h-1.76v-1.27h-.07c-.12.23-.29.46-.53.69-.23.23-.53.41-.9.56s-.81.22-1.32.22Zm.39-1.45c.5,0,.93-.1,1.28-.3.36-.2.63-.46.81-.78.19-.32.28-.66.28-1.03v-1.2c-.06.06-.19.12-.37.18-.18.05-.39.1-.62.14-.23.04-.46.07-.68.1-.22.03-.41.06-.56.08-.35.04-.67.12-.96.22-.29.1-.52.25-.69.45-.17.2-.26.45-.26.78,0,.45.17.78.5,1.01.33.23.75.34,1.26.34Z"/>
    <path class="cls-1" d="m54.65,34.27v-9.27h3.85c1.05,0,1.88.22,2.49.67.61.44.92,1.05.92,1.81,0,.54-.17.97-.52,1.29-.35.32-.81.53-1.38.64.41.05.79.17,1.14.37s.62.47.84.8c.21.33.32.73.32,1.2,0,.49-.13.92-.38,1.3s-.62.67-1.1.88c-.48.21-1.06.32-1.74.32h-4.43Zm1.7-5.41h2.17c.34,0,.63-.05.87-.15.24-.1.43-.23.56-.41.13-.18.2-.39.2-.64,0-.36-.15-.64-.44-.84-.29-.2-.7-.3-1.21-.3h-2.15v2.34Zm0,3.9h2.73c.45,0,.8-.11,1.05-.32.25-.21.38-.5.38-.87,0-.43-.13-.77-.38-1.02-.25-.25-.6-.37-1.05-.37h-2.73v2.58Z"/>
    <path class="cls-1" d="m66.04,25v9.27h-1.77v-9.27h1.77Zm4.52,3.86v1.56h-5.02v-1.56h5.02Zm1.26-3.86v9.27h-1.76v-9.27h1.76Z"/>
    <path class="cls-1" d="m76,31.74l4.09-6.74h1.94v9.27h-1.77v-6.75l-4.07,6.75h-1.96v-9.27h1.77v6.74Z"/>
    <path class="cls-1" d="m84.45,34.27v-9.27h3.84c1.05,0,1.88.22,2.49.67.61.44.92,1.05.92,1.81,0,.54-.17.97-.52,1.29-.35.32-.8.53-1.38.64.41.05.79.17,1.14.37.35.2.62.47.84.8.21.33.32.73.32,1.2,0,.49-.13.92-.38,1.3-.25.38-.62.67-1.1.88-.48.21-1.06.32-1.74.32h-4.43Zm1.7-5.41h2.17c.34,0,.63-.05.87-.15.24-.1.43-.23.56-.41.13-.18.2-.39.2-.64,0-.36-.15-.64-.44-.84s-.7-.3-1.21-.3h-2.15v2.34Zm0,3.9h2.73c.45,0,.8-.11,1.05-.32.25-.21.38-.5.38-.87,0-.43-.13-.77-.38-1.02-.25-.25-.6-.37-1.05-.37h-2.73v2.58Z"/>
    <path class="cls-1" d="m96.77,34.47c-.59,0-1.12-.11-1.59-.33-.48-.22-.85-.54-1.13-.96s-.41-.93-.41-1.54c0-.52.1-.95.3-1.29.2-.34.47-.61.81-.8s.72-.35,1.15-.45c.42-.1.85-.18,1.29-.23.55-.06,1.01-.12,1.35-.16.35-.04.6-.11.75-.21s.24-.25.24-.47v-.04c0-.53-.15-.94-.44-1.23-.3-.29-.74-.43-1.32-.43s-1.09.13-1.43.4c-.35.27-.59.56-.72.89l-1.7-.39c.2-.56.5-1.02.88-1.37.39-.35.84-.6,1.34-.76.51-.16,1.04-.24,1.6-.24.37,0,.76.04,1.18.13.42.09.81.24,1.17.47.36.23.66.56.9.98.23.42.35.97.35,1.65v6.16h-1.76v-1.27h-.07c-.12.23-.29.46-.52.69-.23.23-.53.41-.9.56s-.8.22-1.32.22Zm.39-1.45c.5,0,.93-.1,1.28-.3.36-.2.63-.46.82-.78.19-.32.28-.66.28-1.03v-1.2c-.06.06-.19.12-.37.18-.18.05-.39.1-.62.14-.23.04-.46.07-.68.1-.22.03-.41.06-.56.08-.35.04-.67.12-.96.22s-.52.25-.69.45c-.17.2-.26.45-.26.78,0,.45.17.78.5,1.01.33.23.75.34,1.26.34Z"/>
    <path class="cls-1" d="m107.75,34.46c-.91,0-1.7-.2-2.36-.59-.66-.39-1.17-.95-1.52-1.66s-.53-1.55-.53-2.51.18-1.79.53-2.51.86-1.29,1.5-1.7,1.39-.61,2.25-.61c.52,0,1.03.09,1.52.26s.93.44,1.32.81c.39.37.7.85.92,1.44.22.59.34,1.3.34,2.15v.64h-7.37v-1.35h5.6c0-.47-.1-.9-.29-1.26s-.46-.66-.81-.87c-.35-.21-.76-.32-1.22-.32-.51,0-.95.12-1.32.37-.38.25-.67.57-.87.97-.2.4-.3.83-.3,1.29v1.06c0,.62.11,1.15.33,1.58s.53.77.92.99.86.34,1.38.34c.34,0,.65-.05.94-.15.28-.1.52-.25.73-.44.21-.2.36-.44.47-.73l1.71.31c-.14.5-.38.94-.73,1.32-.35.38-.79.67-1.32.88-.53.21-1.13.31-1.81.31Z"/>
    <path class="cls-1" d="m115.51,25v9.27h-1.77v-9.27h1.77Zm3.43,7.04l2.99-7.04h1.56l-3.88,9.27h-1.34l-3.8-9.27h1.54l2.93,7.04Zm3.48,2.23v-9.27h1.76v9.27h-1.76Z"/>
    <path class="cls-1" d="m131.09,34.27v-9.27h1.8v3.89h.87l3.06-3.89h2.23l-3.59,4.51,3.63,4.76h-2.24l-2.79-3.71h-1.18v3.71h-1.8Z"/>
    <path class="cls-1" d="m146.77,25v9.27h-1.77v-9.27h1.77Zm4.52,3.86v1.56h-5.02v-1.56h5.02Zm1.26-3.86v9.27h-1.76v-9.27h1.76Z"/>
    <path class="cls-1" d="m156.1,37.75c-.27,0-.52-.02-.74-.06-.22-.04-.39-.09-.5-.14l.43-1.48c.33.09.62.13.88.11.26-.01.49-.11.69-.29s.38-.48.53-.89l.22-.62-3.39-9.39h1.93l2.35,7.2h.1l2.35-7.2h1.94l-3.82,10.51c-.18.48-.4.89-.68,1.23-.27.34-.6.59-.98.76-.38.17-.82.25-1.32.25Z"/>
    <path class="cls-1" d="m163.86,34.27v-1.56s.33,0,.33,0c.26,0,.47-.06.65-.17s.32-.3.43-.56c.11-.27.2-.63.26-1.1.06-.47.1-1.06.13-1.77l.16-4.11h6.47v9.27h-1.77v-7.72h-3.03l-.14,3.15c-.04.76-.11,1.43-.23,2-.12.57-.29,1.05-.52,1.43s-.51.66-.87.85-.79.28-1.29.28h-.58Z"/>
    <path class="cls-1" d="m175.88,25v9.27h-1.8v-9.27h1.8Zm3.48,3.92v1.57h-4.94v-1.57h4.94Zm2.83,5.54c-.86,0-1.61-.2-2.26-.6-.64-.4-1.14-.96-1.5-1.68-.35-.72-.53-1.55-.53-2.5s.18-1.8.53-2.51c.35-.72.85-1.28,1.5-1.68.64-.4,1.4-.6,2.26-.6s1.62.2,2.26.6c.64.4,1.14.96,1.5,1.68.36.72.53,1.56.53,2.51s-.18,1.78-.53,2.5c-.36.72-.85,1.28-1.5,1.68-.64.4-1.4.6-2.26.6Zm0-1.55c.58,0,1.06-.15,1.43-.44.37-.3.65-.69.82-1.18.18-.49.27-1.03.27-1.62s-.09-1.13-.27-1.63-.45-.89-.82-1.19c-.37-.3-.85-.45-1.43-.45s-1.06.15-1.43.45c-.37.3-.65.69-.83,1.19s-.27,1.04-.27,1.63.09,1.13.27,1.62c.18.49.45.88.83,1.18.37.3.85.44,1.43.44Z"/>
    <path class="cls-1" d="m194.88,31.74l4.09-6.74h1.94v9.27h-1.77v-6.75l-4.07,6.75h-1.96v-9.27h1.77v6.74Z"/>
    <path class="cls-1" d="m209.61,25v9.27h-1.77v-9.27h1.77Zm4.52,3.86v1.56h-5.02v-1.56h5.02Zm1.26-3.86v9.27h-1.76v-9.27h1.76Z"/>
    <path class="cls-1" d="m220.49,34.47c-.59,0-1.12-.11-1.59-.33-.48-.22-.85-.54-1.13-.96s-.41-.93-.41-1.54c0-.52.1-.95.3-1.29.2-.34.47-.61.81-.8s.72-.35,1.15-.45c.42-.1.85-.18,1.29-.23.55-.06,1.01-.12,1.35-.16.35-.04.6-.11.75-.21s.24-.25.24-.47v-.04c0-.53-.15-.94-.44-1.23-.3-.29-.74-.43-1.32-.43s-1.09.13-1.43.4c-.35.27-.59.56-.72.89l-1.7-.39c.2-.56.5-1.02.88-1.37.39-.35.84-.6,1.34-.76.51-.16,1.04-.24,1.6-.24.37,0,.76.04,1.18.13.42.09.81.24,1.17.47.36.23.66.56.9.98.23.42.35.97.35,1.65v6.16h-1.76v-1.27h-.07c-.12.23-.29.46-.52.69-.23.23-.53.41-.9.56s-.8.22-1.32.22Zm.39-1.45c.5,0,.93-.1,1.28-.3.36-.2.63-.46.82-.78.19-.32.28-.66.28-1.03v-1.2c-.06.06-.19.12-.37.18-.18.05-.39.1-.62.14-.23.04-.46.07-.68.1-.22.03-.41.06-.56.08-.35.04-.67.12-.96.22s-.52.25-.69.45c-.17.2-.26.45-.26.78,0,.45.17.78.5,1.01.33.23.75.34,1.26.34Z"/>
    <path class="cls-1" d="m228.9,25l2.05,3.61,2.06-3.61h1.97l-2.89,4.64,2.92,4.64h-1.97l-2.09-3.47-2.08,3.47h-1.98l2.89-4.64-2.85-4.64h1.98Z"/>
    <path class="cls-1" d="m240.75,34.46c-.87,0-1.63-.2-2.28-.6-.65-.4-1.15-.96-1.51-1.67s-.54-1.55-.54-2.51.18-1.8.54-2.52c.36-.72.86-1.28,1.51-1.68.65-.4,1.41-.6,2.28-.6s1.63.2,2.28.6c.65.4,1.15.96,1.51,1.68.36.72.54,1.56.54,2.52s-.18,1.8-.54,2.51-.86,1.27-1.51,1.67c-.65.4-1.41.6-2.28.6Zm0-1.52c.56,0,1.03-.15,1.4-.45.37-.3.64-.69.82-1.19.18-.49.27-1.04.27-1.64s-.09-1.14-.27-1.63c-.18-.5-.45-.9-.82-1.2-.37-.3-.84-.45-1.4-.45s-1.04.15-1.41.45c-.37.3-.65.7-.83,1.2s-.27,1.04-.27,1.63.09,1.14.27,1.64c.18.5.46.89.83,1.19s.84.45,1.41.45Z"/>
    <path class="cls-1" d="m246.17,36.94v-4.24h.75c.19-.18.36-.39.49-.63.13-.25.25-.54.34-.88s.17-.73.24-1.19c.06-.45.12-.97.17-1.55l.29-3.46h6.3v7.71h1.42v4.24h-1.76v-2.67h-6.47v2.67h-1.79Zm2.69-4.24h4.14v-6.16h-2.92l-.19,1.91c-.09.97-.21,1.82-.35,2.53-.14.71-.37,1.29-.68,1.72Z"/>
    <path class="cls-1" d="m259.71,31.74l4.09-6.74h1.94v9.27h-1.77v-6.75l-4.07,6.75h-1.96v-9.27h1.77v6.74Z"/>
    <path class="cls-1" d="m269.94,25v9.27h-1.77v-9.27h1.77Zm3.43,7.04l2.99-7.04h1.56l-3.88,9.27h-1.34l-3.8-9.27h1.54l2.93,7.04Zm3.48,2.23v-9.27h1.76v9.27h-1.76Z"/>
    <path class="cls-1" d="m285.53,34.27v-9.27h1.8v3.89h.87l3.06-3.89h2.23l-3.59,4.51,3.63,4.76h-2.24l-2.79-3.71h-1.18v3.71h-1.8Z"/>
    <path class="cls-1" d="m298.84,34.46c-.87,0-1.63-.2-2.28-.6-.65-.4-1.15-.96-1.51-1.67s-.54-1.55-.54-2.51.18-1.8.54-2.52c.36-.72.86-1.28,1.51-1.68.65-.4,1.41-.6,2.28-.6s1.63.2,2.28.6c.65.4,1.15.96,1.51,1.68.36.72.54,1.56.54,2.52s-.18,1.8-.54,2.51-.86,1.27-1.51,1.67c-.65.4-1.41.6-2.28.6Zm0-1.52c.56,0,1.03-.15,1.4-.45.37-.3.64-.69.82-1.19.18-.49.27-1.04.27-1.64s-.09-1.14-.27-1.63c-.18-.5-.45-.9-.82-1.2-.37-.3-.84-.45-1.4-.45s-1.04.15-1.41.45c-.37.3-.65.7-.83,1.2s-.27,1.04-.27,1.63.09,1.14.27,1.64c.18.5.46.89.83,1.19s.84.45,1.41.45Z"/>
    <path class="cls-1" d="m305.17,37.75v-12.75h1.76v1.5h.15c.1-.19.26-.42.45-.67.2-.25.47-.48.82-.67.35-.19.81-.29,1.39-.29.75,0,1.42.19,2,.57.59.38,1.05.92,1.38,1.64.34.71.5,1.57.5,2.57s-.17,1.86-.5,2.57c-.33.71-.79,1.26-1.38,1.65s-1.25.58-2,.58c-.56,0-1.02-.09-1.38-.28-.36-.19-.63-.41-.84-.66s-.36-.48-.46-.68h-.11v4.92h-1.8Zm1.77-8.11c0,.65.09,1.22.28,1.71.19.49.46.87.82,1.15.36.28.8.41,1.32.41s.99-.14,1.35-.43c.36-.29.64-.68.82-1.17.19-.49.28-1.05.28-1.67s-.09-1.16-.28-1.65c-.18-.49-.46-.87-.82-1.15s-.82-.42-1.36-.42-.96.13-1.33.4-.63.65-.82,1.13c-.18.48-.28,1.05-.28,1.69Z"/>
    <path class="cls-1" d="m317.43,25v9.27h-1.77v-9.27h1.77Zm4.52,3.86v1.56h-5.02v-1.56h5.02Zm1.26-3.86v9.27h-1.76v-9.27h1.76Z"/>
    <path class="cls-1" d="m327.39,31.74l4.09-6.74h1.94v9.27h-1.77v-6.75l-4.07,6.75h-1.96v-9.27h1.77v6.74Z"/>
    <path class="cls-1" d="m2.39,58.15c-.27,0-.52-.02-.74-.06-.22-.04-.39-.09-.49-.14l.43-1.48c.33.09.62.13.88.11.26-.01.49-.11.69-.29s.38-.48.53-.89l.22-.62-3.39-9.39h1.93l2.35,7.2h.1l2.35-7.2h1.94l-3.82,10.51c-.18.48-.4.89-.68,1.23-.27.34-.6.59-.98.76s-.82.25-1.32.25Z"/>
    <path class="cls-1" d="m10.88,58.15v-12.75h1.76v1.5h.15c.1-.19.26-.42.45-.67.2-.25.47-.48.82-.67.35-.19.81-.29,1.39-.29.75,0,1.42.19,2,.57.59.38,1.05.92,1.39,1.64s.5,1.57.5,2.57-.17,1.86-.5,2.57-.79,1.26-1.38,1.65-1.25.58-2,.58c-.56,0-1.02-.09-1.38-.28-.36-.19-.64-.41-.84-.66s-.36-.48-.46-.68h-.11v4.92h-1.81Zm1.77-8.11c0,.65.09,1.22.28,1.71.19.49.46.87.82,1.15.36.28.8.41,1.32.41s.99-.14,1.35-.43c.36-.29.64-.68.82-1.17.19-.49.28-1.05.28-1.67s-.09-1.16-.27-1.65c-.18-.49-.46-.87-.82-1.15s-.82-.42-1.36-.42-.96.13-1.32.4c-.36.27-.63.65-.82,1.13s-.28,1.05-.28,1.69Z"/>
    <path class="cls-1" d="m24.07,54.87c-.59,0-1.12-.11-1.59-.33-.48-.22-.85-.54-1.13-.96-.28-.42-.41-.93-.41-1.54,0-.52.1-.95.3-1.29.2-.34.47-.61.81-.8.34-.2.72-.35,1.15-.45.42-.1.85-.18,1.29-.23.56-.06,1.01-.12,1.35-.16.35-.04.6-.11.75-.21s.24-.25.24-.47v-.04c0-.53-.15-.94-.44-1.23-.3-.29-.74-.43-1.32-.43s-1.09.13-1.43.4c-.35.27-.59.56-.72.89l-1.7-.39c.2-.56.5-1.02.88-1.37.39-.35.84-.6,1.34-.76.51-.16,1.04-.24,1.6-.24.37,0,.76.04,1.18.13s.81.24,1.17.47c.36.23.66.56.9.98.23.42.35.97.35,1.65v6.16h-1.76v-1.27h-.07c-.12.23-.29.46-.53.69-.23.23-.53.41-.9.56s-.81.22-1.32.22Zm.39-1.45c.5,0,.93-.1,1.28-.3.36-.2.63-.46.81-.78.19-.32.28-.66.28-1.03v-1.2c-.06.06-.19.12-.37.18-.18.05-.39.1-.62.14-.23.04-.46.07-.68.1-.22.03-.41.06-.56.08-.35.04-.67.12-.96.22-.29.1-.52.25-.69.45-.17.2-.26.45-.26.78,0,.45.17.78.5,1.01.33.23.75.34,1.26.34Z"/>
    <path class="cls-1" d="m31.04,54.67v-9.27h3.85c1.05,0,1.88.22,2.49.67.61.44.92,1.05.92,1.81,0,.54-.17.97-.52,1.29-.35.32-.81.53-1.38.64.41.05.79.17,1.14.37s.62.47.84.8c.21.33.32.73.32,1.2,0,.49-.13.92-.38,1.3s-.62.67-1.1.88c-.48.21-1.06.32-1.74.32h-4.43Zm1.7-5.41h2.17c.34,0,.63-.05.87-.15.24-.1.43-.23.56-.41.13-.18.2-.39.2-.64,0-.36-.15-.64-.44-.84-.29-.2-.7-.3-1.21-.3h-2.15v2.34Zm0,3.9h2.73c.45,0,.8-.11,1.05-.32.25-.21.38-.5.38-.87,0-.43-.13-.77-.38-1.02-.25-.25-.6-.37-1.05-.37h-2.73v2.58Z"/>
    <path class="cls-1" d="m42.44,45.4v9.27h-1.77v-9.27h1.77Zm4.52,3.86v1.56h-5.02v-1.56h5.02Zm1.26-3.86v9.27h-1.76v-9.27h1.76Z"/>
    <path class="cls-1" d="m54.62,54.85c-.91,0-1.7-.2-2.36-.59-.66-.39-1.17-.95-1.52-1.66-.36-.71-.53-1.55-.53-2.51s.18-1.79.53-2.51c.36-.72.86-1.29,1.5-1.7.64-.41,1.39-.61,2.25-.61.52,0,1.03.09,1.52.26.49.17.93.44,1.32.81.39.37.7.85.92,1.44.23.59.34,1.3.34,2.15v.64h-7.37v-1.35h5.6c0-.47-.1-.9-.29-1.26-.19-.37-.46-.66-.81-.87-.35-.21-.76-.32-1.22-.32-.51,0-.95.12-1.33.37s-.67.57-.87.97c-.2.4-.31.83-.31,1.29v1.06c0,.62.11,1.15.33,1.58s.53.77.92.99c.39.23.85.34,1.38.34.34,0,.65-.05.94-.15s.53-.25.73-.44c.21-.2.36-.44.47-.73l1.71.31c-.14.5-.38.94-.73,1.32-.35.38-.79.67-1.32.88-.53.21-1.13.31-1.81.31Z"/>
    <path class="cls-1" d="m62.38,45.4v9.27h-1.77v-9.27h1.77Zm4.52,3.86v1.56h-5.02v-1.56h5.02Zm1.26-3.86v9.27h-1.76v-9.27h1.76Z"/>
    <path class="cls-1" d="m72.33,52.14l4.09-6.74h1.94v9.27h-1.77v-6.75l-4.07,6.75h-1.96v-9.27h1.77v6.74Z"/>
    <path class="cls-1" d="m80.23,54.67l2.61-4.68h1.85l-2.61,4.68h-1.85Zm6.08,0v-7.73h-2.22c-.53,0-.94.12-1.23.37-.29.25-.44.57-.44.97s.14.71.41.95.65.36,1.14.36h2.87v1.46h-2.87c-.68,0-1.28-.11-1.77-.34s-.88-.55-1.15-.97c-.27-.42-.4-.91-.4-1.49s.14-1.09.41-1.51.67-.75,1.19-.99c.52-.23,1.13-.35,1.84-.35h3.92v9.27h-1.7Z"/>
    <path class="cls-1" d="m37.77,69.94c0-1.51.2-2.91.6-4.18.4-1.27.98-2.44,1.74-3.52h1.65c-.3.4-.58.89-.83,1.47-.26.58-.48,1.21-.68,1.9-.19.69-.34,1.4-.45,2.14-.11.74-.16,1.47-.16,2.18,0,.96.09,1.93.28,2.91.19.98.44,1.89.77,2.73.32.84.68,1.53,1.07,2.06h-1.65c-.76-1.07-1.35-2.25-1.74-3.52-.4-1.27-.6-2.67-.6-4.18Z"/>
    <path class="cls-1" d="m45.09,65.8l2.05,3.61,2.06-3.61h1.97l-2.89,4.64,2.92,4.64h-1.97l-2.09-3.47-2.08,3.47h-1.98l2.89-4.64-2.85-4.64h1.98Z"/>
    <path class="cls-1" d="m63.01,68.1v1.57h-5.48v-1.57h5.48Z"/>
    <path class="cls-1" d="m74.58,62.7v12.36h-1.87v-10.49h-.07l-2.96,1.93v-1.79l3.08-2.02h1.82Z"/>
    <path class="cls-1" d="m81.42,69.94c0,1.52-.2,2.91-.6,4.18-.4,1.27-.98,2.44-1.74,3.52h-1.65c.3-.4.58-.89.83-1.47.26-.58.48-1.21.68-1.9s.34-1.41.45-2.15c.11-.74.16-1.47.16-2.19,0-.95-.09-1.92-.28-2.9s-.44-1.89-.77-2.73c-.32-.84-.68-1.53-1.07-2.06h1.65c.76,1.07,1.35,2.25,1.74,3.52.4,1.27.6,2.66.6,4.18Z"/>
    <path class="cls-1" d="m84.9,69.94c0-1.51.2-2.91.6-4.18.4-1.27.98-2.44,1.75-3.52h1.65c-.3.4-.58.89-.83,1.47-.26.58-.48,1.21-.68,1.9-.19.69-.34,1.4-.45,2.14-.11.74-.16,1.47-.16,2.18,0,.96.09,1.93.28,2.91.19.98.45,1.89.77,2.73.32.84.68,1.53,1.08,2.06h-1.65c-.76-1.07-1.35-2.25-1.75-3.52-.4-1.27-.6-2.67-.6-4.18Z"/>
    <path class="cls-1" d="m92.22,65.8l2.05,3.61,2.06-3.61h1.97l-2.89,4.64,2.92,4.64h-1.97l-2.09-3.47-2.08,3.47h-1.98l2.89-4.64-2.85-4.64h1.98Z"/>
    <path class="cls-1" d="m110.14,68.1v1.57h-5.48v-1.57h5.48Z"/>
    <path class="cls-1" d="m117.03,75.07v-1.35l4.18-4.33c.45-.47.82-.88,1.11-1.24.29-.36.51-.7.66-1.02.14-.32.22-.66.22-1.03,0-.41-.1-.77-.29-1.07-.19-.3-.46-.53-.79-.69-.33-.16-.71-.24-1.13-.24-.44,0-.83.09-1.16.27s-.58.44-.76.77c-.18.33-.27.72-.27,1.16h-1.78c0-.75.17-1.41.52-1.97s.82-1,1.42-1.31c.6-.31,1.29-.47,2.06-.47s1.46.15,2.06.46c.59.31,1.06.73,1.39,1.26.33.53.5,1.13.5,1.79,0,.46-.09.91-.26,1.35-.17.44-.47.93-.89,1.46-.42.54-1.01,1.19-1.76,1.95l-2.46,2.57v.09h5.57v1.6h-8.14Z"/>
    <path class="cls-1" d="m130.95,69.94c0,1.52-.2,2.91-.6,4.18-.4,1.27-.98,2.44-1.74,3.52h-1.65c.3-.4.58-.89.83-1.47.26-.58.48-1.21.68-1.9s.34-1.41.45-2.15c.11-.74.16-1.47.16-2.19,0-.95-.09-1.92-.28-2.9s-.44-1.89-.77-2.73c-.32-.84-.68-1.53-1.07-2.06h1.65c.76,1.07,1.35,2.25,1.74,3.52.4,1.27.6,2.66.6,4.18Z"/>
    <path class="cls-1" d="m134.42,69.94c0-1.51.2-2.91.6-4.18.4-1.27.98-2.44,1.75-3.52h1.65c-.3.4-.58.89-.83,1.47-.26.58-.48,1.21-.68,1.9-.19.69-.34,1.4-.45,2.14-.11.74-.16,1.47-.16,2.18,0,.96.09,1.93.28,2.91.19.98.45,1.89.77,2.73.32.84.68,1.53,1.08,2.06h-1.65c-.76-1.07-1.35-2.25-1.75-3.52-.4-1.27-.6-2.67-.6-4.18Z"/>
    <path class="cls-1" d="m141.75,65.8l2.05,3.61,2.06-3.61h1.97l-2.89,4.64,2.92,4.64h-1.97l-2.09-3.47-2.08,3.47h-1.98l2.89-4.64-2.85-4.64h1.98Z"/>
    <path class="cls-1" d="m159.66,68.1v1.57h-5.48v-1.57h5.48Z"/>
    <path class="cls-1" d="m170.85,75.24c-.83,0-1.57-.14-2.22-.43-.65-.29-1.16-.68-1.54-1.19-.38-.51-.58-1.1-.61-1.77h1.9c.02.37.15.68.37.95.22.27.52.47.88.62.36.15.76.22,1.21.22.49,0,.92-.08,1.29-.25s.67-.41.88-.71c.21-.3.32-.65.32-1.05s-.11-.78-.32-1.1c-.21-.32-.52-.56-.92-.75s-.89-.27-1.46-.27h-1.04v-1.52h1.04c.46,0,.86-.08,1.21-.25.35-.17.62-.4.82-.69.2-.3.3-.64.3-1.04s-.09-.72-.26-1-.41-.51-.72-.67c-.31-.16-.68-.24-1.1-.24s-.78.07-1.13.22c-.35.15-.63.36-.85.63-.22.27-.33.6-.35.98h-1.8c.02-.67.22-1.26.59-1.76.38-.51.87-.9,1.49-1.19.62-.29,1.31-.43,2.06-.43s1.48.15,2.06.46c.58.31,1.02.72,1.34,1.23.32.51.47,1.07.47,1.68,0,.69-.19,1.28-.58,1.76s-.9.81-1.55.97v.1c.82.12,1.46.45,1.91.98.45.53.68,1.18.67,1.96,0,.68-.18,1.29-.56,1.83-.38.54-.9.96-1.55,1.27-.66.31-1.41.46-2.25.46Z"/>
    <path class="cls-1" d="m180.99,68.89c0,1.52-.2,2.91-.6,4.18-.4,1.27-.98,2.44-1.74,3.52h-1.65c.3-.4.58-.89.83-1.47s.48-1.21.68-1.9c.19-.69.34-1.41.45-2.15.11-.74.16-1.47.16-2.19,0-.95-.09-1.92-.28-2.9s-.44-1.89-.77-2.73-.68-1.53-1.07-2.06h1.65c.76,1.07,1.35,2.25,1.74,3.52.4,1.27.6,2.66.6,4.18Z"/>
    <path class="cls-1" d="m189.03,67.82v-1.58h7.73v1.58h-7.73Zm0,3.72v-1.58h7.73v1.58h-7.73Z"/>
    <path class="cls-1" d="m208.55,75.27c-.95,0-1.77-.26-2.44-.75-.68-.5-1.19-1.23-1.55-2.18-.36-.95-.54-2.1-.54-3.45s.18-2.49.54-3.44.88-1.67,1.56-2.17,1.49-.75,2.44-.75,1.76.25,2.43.75c.68.5,1.19,1.23,1.55,2.17.36.95.54,2.09.54,3.43s-.18,2.5-.54,3.45c-.36.95-.88,1.68-1.55,2.18s-1.49.75-2.44.75Zm0-1.61c.84,0,1.49-.41,1.97-1.23.47-.82.71-2,.71-3.54,0-1.03-.11-1.89-.32-2.6-.21-.71-.52-1.25-.92-1.62-.4-.37-.88-.55-1.43-.55-.83,0-1.49.41-1.96,1.23-.47.82-.71,2-.72,3.54,0,1.03.11,1.9.32,2.61.22.71.52,1.25.92,1.61s.88.55,1.44.55Z"/>
    <path class="cls-1" d="m38.67,86.2l2.05,3.61,2.06-3.61h1.97l-2.89,4.64,2.92,4.64h-1.97l-2.09-3.47-2.08,3.47h-1.98l2.89-4.64-2.85-4.64h1.98Z"/>
    <path class="cls-1" d="m56.2,88.22v-1.58h7.73v1.58h-7.73Zm0,3.72v-1.58h7.73v1.58h-7.73Z"/>
    <path class="cls-1" d="m76.11,83.1v12.36h-1.87v-10.49h-.07l-2.96,1.93v-1.79l3.08-2.02h1.82Z"/>
    <path class="cls-1" d="m38.67,106.6l2.05,3.61,2.06-3.61h1.97l-2.89,4.64,2.92,4.64h-1.97l-2.09-3.46-2.08,3.46h-1.98l2.89-4.64-2.85-4.64h1.98Z"/>
    <path class="cls-1" d="m56.2,108.62v-1.58h7.73v1.58h-7.73Zm0,3.72v-1.58h7.73v1.58h-7.73Z"/>
    <path class="cls-1" d="m71.42,115.87v-1.35l4.18-4.33c.45-.47.82-.88,1.11-1.24.29-.36.51-.7.66-1.02.14-.32.22-.66.22-1.03,0-.41-.1-.77-.29-1.07s-.46-.53-.79-.69-.71-.25-1.13-.25c-.44,0-.83.09-1.16.27-.33.18-.58.44-.76.77s-.27.72-.27,1.16h-1.78c0-.75.17-1.41.52-1.97s.82-1,1.42-1.31c.6-.31,1.29-.47,2.06-.47s1.46.15,2.06.46c.59.31,1.06.73,1.39,1.26s.5,1.13.5,1.79c0,.46-.09.91-.26,1.35s-.47.93-.89,1.46c-.42.54-1.01,1.19-1.76,1.95l-2.46,2.57v.09h5.57v1.6h-8.14Z"/>
    <path class="cls-1" d="m38.67,127l2.05,3.61,2.06-3.61h1.97l-2.89,4.64,2.92,4.64h-1.97l-2.09-3.46-2.08,3.46h-1.98l2.89-4.64-2.85-4.64h1.98Z"/>
    <path class="cls-1" d="m56.2,129.02v-1.58h7.73v1.58h-7.73Zm0,3.72v-1.58h7.73v1.58h-7.73Z"/>
    <path class="cls-1" d="m75.73,136.44c-.83,0-1.57-.14-2.22-.43-.65-.29-1.16-.68-1.54-1.19-.38-.51-.58-1.1-.61-1.77h1.9c.02.37.15.68.37.95.22.27.52.47.88.62.36.15.76.22,1.21.22.49,0,.92-.08,1.29-.25s.67-.41.88-.71c.21-.3.32-.66.32-1.05s-.11-.78-.32-1.1c-.21-.32-.52-.56-.92-.75-.4-.18-.89-.27-1.46-.27h-1.04v-1.52h1.04c.46,0,.86-.08,1.21-.25.35-.17.62-.4.82-.69s.3-.64.3-1.04-.09-.72-.26-1c-.17-.28-.41-.51-.72-.67-.31-.16-.68-.24-1.1-.24s-.78.07-1.13.22c-.35.15-.63.36-.85.63-.22.27-.33.6-.35.97h-1.8c.02-.67.22-1.25.59-1.76.38-.51.87-.9,1.49-1.19.62-.29,1.31-.43,2.06-.43s1.48.15,2.06.46c.58.31,1.02.72,1.34,1.23.32.51.47,1.07.47,1.68,0,.69-.19,1.28-.58,1.76-.39.48-.9.81-1.55.97v.1c.82.12,1.46.45,1.91.98.45.53.68,1.18.67,1.96,0,.68-.18,1.29-.56,1.83-.38.54-.9.96-1.55,1.27s-1.41.46-2.25.46Z"/>
    <path class="cls-1" d="m12.13,150.49c0,1.32-.24,2.45-.72,3.4-.48.95-1.14,1.68-1.98,2.19-.84.51-1.79.76-2.86.76s-2.03-.25-2.86-.76c-.84-.51-1.5-1.24-1.98-2.19-.48-.95-.72-2.08-.72-3.4s.24-2.45.72-3.4c.48-.95,1.14-1.68,1.98-2.18.84-.51,1.79-.76,2.86-.76s2.02.25,2.86.76c.84.51,1.5,1.24,1.98,2.18.48.95.72,2.08.72,3.4Zm-1.85,0c0-1.01-.16-1.85-.49-2.54-.32-.69-.77-1.21-1.33-1.57s-1.2-.53-1.9-.53-1.35.18-1.91.53c-.56.36-1,.88-1.33,1.57-.32.69-.49,1.54-.49,2.54s.16,1.85.49,2.54c.32.69.77,1.21,1.33,1.57.56.36,1.2.53,1.91.53s1.34-.18,1.9-.53c.56-.36,1-.88,1.33-1.57.32-.69.49-1.54.49-2.54Z"/>
    <path class="cls-1" d="m13.79,148.95v-1.56h7.82v1.56h-3.02v7.71h-1.76v-7.71h-3.04Z"/>
    <path class="cls-1" d="m25.29,147.4v9.27h-1.77v-9.27h1.77Zm3.44,7.04l2.99-7.04h1.56l-3.88,9.27h-1.34l-3.8-9.27h1.54l2.93,7.04Zm3.48,2.23v-9.27h1.76v9.27h-1.76Z"/>
    <path class="cls-1" d="m40.37,156.86c-.91,0-1.7-.2-2.36-.59-.66-.39-1.17-.95-1.52-1.66-.36-.71-.53-1.55-.53-2.51s.18-1.79.53-2.51c.36-.72.86-1.29,1.5-1.7.64-.41,1.39-.61,2.25-.61.52,0,1.03.09,1.52.26.49.17.93.44,1.32.81.39.37.7.85.92,1.44s.34,1.3.34,2.15v.64h-7.37v-1.35h5.6c0-.47-.1-.9-.29-1.26-.19-.37-.46-.66-.81-.87-.35-.21-.76-.32-1.22-.32-.51,0-.95.12-1.33.37-.38.25-.67.57-.87.97-.2.4-.31.83-.31,1.29v1.06c0,.62.11,1.15.33,1.58.22.43.53.77.92.99.39.23.85.34,1.38.34.34,0,.65-.05.94-.15s.53-.25.73-.44c.21-.2.36-.44.47-.73l1.71.31c-.14.5-.38.94-.73,1.32-.35.38-.79.67-1.32.88-.53.21-1.13.31-1.81.31Z"/>
    <path class="cls-1" d="m53.03,151.7v1.56c-.28.11-.57.21-.88.3-.31.09-.64.15-.98.2-.34.05-.7.07-1.07.07-1.15,0-2.06-.28-2.73-.84s-1.01-1.42-1.01-2.58v-3.03h1.76v3.03c0,.44.08.79.24,1.07.16.27.39.47.69.6s.65.19,1.06.19c.54,0,1.05-.05,1.51-.15.46-.1.93-.24,1.42-.42Zm.77-4.3v9.27h-1.76v-9.27h1.76Z"/>
    <path class="cls-1" d="m58.91,156.87c-.59,0-1.12-.11-1.59-.33-.48-.22-.85-.54-1.13-.96-.28-.42-.41-.93-.41-1.54,0-.52.1-.95.3-1.29s.47-.61.81-.8c.34-.2.72-.35,1.15-.45.42-.1.85-.18,1.29-.23.56-.06,1.01-.12,1.35-.16.35-.04.6-.11.75-.21.16-.1.24-.25.24-.47v-.04c0-.53-.15-.94-.44-1.23-.3-.29-.74-.43-1.32-.43s-1.09.13-1.43.4c-.35.27-.59.56-.72.89l-1.7-.39c.2-.56.5-1.02.88-1.37.39-.35.84-.6,1.34-.76.51-.16,1.04-.24,1.6-.24.37,0,.76.04,1.18.13s.81.24,1.17.47.66.56.9.98.35.97.35,1.65v6.16h-1.76v-1.27h-.07c-.12.23-.29.46-.53.69-.23.22-.53.41-.9.56-.37.15-.81.22-1.32.22Zm.39-1.45c.5,0,.93-.1,1.28-.3.36-.2.63-.46.81-.78.19-.32.28-.66.28-1.03v-1.2c-.06.06-.19.12-.37.18-.18.05-.39.1-.62.14-.23.04-.46.07-.68.1-.22.03-.41.06-.56.08-.35.04-.67.12-.96.22-.29.1-.52.25-.69.45-.17.2-.26.45-.26.78,0,.45.17.78.5,1.01s.75.34,1.26.34Z"/>
    <path class="cls-1" d="m69.88,156.86c-.91,0-1.7-.2-2.36-.59s-1.17-.95-1.52-1.66c-.36-.71-.53-1.55-.53-2.51s.18-1.79.53-2.51c.36-.72.86-1.29,1.5-1.7.64-.41,1.39-.61,2.25-.61.52,0,1.03.09,1.52.26s.93.44,1.32.81c.39.37.7.85.92,1.44.22.59.34,1.3.34,2.15v.64h-7.37v-1.35h5.6c0-.47-.1-.9-.29-1.26s-.46-.66-.81-.87c-.35-.21-.76-.32-1.22-.32-.51,0-.95.12-1.32.37-.38.25-.67.57-.87.97s-.3.83-.3,1.29v1.06c0,.62.11,1.15.33,1.58.22.43.53.77.92.99.39.23.86.34,1.38.34.34,0,.65-.05.94-.15.28-.1.52-.25.73-.44.21-.2.36-.44.47-.73l1.71.31c-.14.5-.38.94-.73,1.32-.35.38-.79.67-1.32.88s-1.13.31-1.81.31Z"/>
    <path class="cls-1" d="m77.64,147.4v9.27h-1.77v-9.27h1.77Zm3.43,7.04l2.99-7.04h1.56l-3.88,9.27h-1.34l-3.8-9.27h1.54l2.93,7.04Zm3.48,2.23v-9.27h1.76v9.27h-1.76Z"/>
    <path class="cls-1" d="m92.71,148.95v-1.56h7.82v1.56h-3.03v7.71h-1.76v-7.71h-3.04Z"/>
    <path class="cls-1" d="m106.34,156.86c-.87,0-1.63-.2-2.28-.6-.65-.4-1.15-.96-1.51-1.67-.36-.72-.54-1.55-.54-2.51s.18-1.8.54-2.52c.36-.72.86-1.28,1.51-1.68.65-.4,1.41-.6,2.28-.6s1.63.2,2.28.6c.65.4,1.15.96,1.51,1.68.36.72.54,1.56.54,2.52s-.18,1.79-.54,2.51c-.36.72-.86,1.27-1.51,1.67-.65.4-1.41.6-2.28.6Zm0-1.52c.56,0,1.03-.15,1.4-.45.37-.3.64-.69.82-1.19.18-.5.27-1.04.27-1.64s-.09-1.14-.27-1.63c-.18-.5-.45-.9-.82-1.2-.37-.3-.84-.45-1.4-.45s-1.04.15-1.41.45-.65.7-.83,1.2-.27,1.04-.27,1.63.09,1.14.27,1.64.46.89.83,1.19.84.45,1.41.45Z"/>
    <path class="cls-1" d="m119.35,151.7v1.56c-.28.11-.57.21-.88.3-.31.09-.64.15-.98.2-.34.05-.7.07-1.07.07-1.15,0-2.06-.28-2.73-.84s-1.01-1.42-1.01-2.58v-3.03h1.76v3.03c0,.44.08.79.24,1.07.16.27.39.47.69.6s.65.19,1.06.19c.54,0,1.05-.05,1.51-.15s.93-.24,1.42-.42Zm.77-4.3v9.27h-1.76v-9.27h1.76Z"/>
    <path class="cls-1" d="m122.53,156.67v-9.27h1.8v3.89h.87l3.06-3.89h2.23l-3.59,4.51,3.63,4.76h-2.24l-2.79-3.71h-1.18v3.71h-1.8Z"/>
    <path class="cls-1" d="m133.7,154.14l4.09-6.74h1.94v9.27h-1.77v-6.75l-4.07,6.75h-1.96v-9.27h1.77v6.74Z"/>
    <path class="cls-1" d="m148.43,147.4v9.27h-1.77v-9.27h1.77Zm4.52,3.86v1.56h-5.02v-1.56h5.02Zm1.26-3.86v9.27h-1.76v-9.27h1.76Z"/>
    <path class="cls-1" d="m159.32,156.87c-.59,0-1.12-.11-1.59-.33-.48-.22-.85-.54-1.13-.96-.28-.42-.41-.93-.41-1.54,0-.52.1-.95.3-1.29.2-.34.47-.61.81-.8s.72-.35,1.15-.45c.42-.1.85-.18,1.29-.23.55-.06,1.01-.12,1.35-.16.35-.04.6-.11.75-.21.16-.1.24-.25.24-.47v-.04c0-.53-.15-.94-.44-1.23s-.74-.43-1.32-.43-1.09.13-1.43.4c-.35.27-.59.56-.72.89l-1.7-.39c.2-.56.5-1.02.88-1.37.39-.35.84-.6,1.34-.76.51-.16,1.04-.24,1.6-.24.37,0,.76.04,1.18.13.42.09.81.24,1.17.47s.66.56.9.98.35.97.35,1.65v6.16h-1.76v-1.27h-.07c-.12.23-.29.46-.52.69-.23.22-.53.41-.9.56-.37.15-.8.22-1.32.22Zm.39-1.45c.5,0,.93-.1,1.28-.3.36-.2.63-.46.82-.78.19-.32.28-.66.28-1.03v-1.2c-.06.06-.19.12-.37.18-.18.05-.39.1-.62.14s-.46.07-.68.1c-.22.03-.41.06-.56.08-.35.04-.67.12-.96.22s-.52.25-.69.45c-.17.2-.26.45-.26.78,0,.45.17.78.5,1.01s.75.34,1.26.34Z"/>
    <path class="cls-1" d="m170.8,156.67v-9.27h1.8v3.89h.87l3.06-3.89h2.23l-3.59,4.51,3.63,4.76h-2.24l-2.79-3.71h-1.18v3.71h-1.8Z"/>
    <path class="cls-1" d="m184.11,156.86c-.87,0-1.63-.2-2.28-.6-.65-.4-1.15-.96-1.51-1.67-.36-.72-.54-1.55-.54-2.51s.18-1.8.54-2.52c.36-.72.86-1.28,1.51-1.68.65-.4,1.41-.6,2.28-.6s1.63.2,2.28.6c.65.4,1.15.96,1.51,1.68.36.72.54,1.56.54,2.52s-.18,1.79-.54,2.51c-.36.72-.86,1.27-1.51,1.67-.65.4-1.41.6-2.28.6Zm0-1.52c.56,0,1.03-.15,1.4-.45.37-.3.64-.69.82-1.19.18-.5.27-1.04.27-1.64s-.09-1.14-.27-1.63c-.18-.5-.45-.9-.82-1.2-.37-.3-.84-.45-1.4-.45s-1.04.15-1.41.45-.65.7-.83,1.2-.27,1.04-.27,1.63.09,1.14.27,1.64.46.89.83,1.19.84.45,1.41.45Z"/>
    <path class="cls-1" d="m194.35,156.86c-.87,0-1.63-.2-2.28-.6-.65-.4-1.15-.96-1.51-1.67-.36-.72-.54-1.55-.54-2.51s.18-1.8.54-2.52c.36-.72.86-1.28,1.51-1.68.65-.4,1.41-.6,2.28-.6s1.63.2,2.28.6c.65.4,1.15.96,1.51,1.68.36.72.54,1.56.54,2.52s-.18,1.79-.54,2.51c-.36.72-.86,1.27-1.51,1.67-.65.4-1.41.6-2.28.6Zm0-1.52c.56,0,1.03-.15,1.4-.45.37-.3.64-.69.82-1.19.18-.5.27-1.04.27-1.64s-.09-1.14-.27-1.63c-.18-.5-.45-.9-.82-1.2-.37-.3-.84-.45-1.4-.45s-1.04.15-1.41.45-.65.7-.83,1.2-.27,1.04-.27,1.63.09,1.14.27,1.64.46.89.83,1.19.84.45,1.41.45Z"/>
    <path class="cls-1" d="m200.68,160.15v-12.75h1.76v1.5h.15c.1-.19.26-.42.45-.67.2-.25.47-.48.82-.67.35-.19.81-.29,1.39-.29.75,0,1.42.19,2,.57.59.38,1.05.92,1.38,1.64.34.71.5,1.57.5,2.57s-.17,1.86-.5,2.57c-.33.71-.79,1.26-1.38,1.65-.58.38-1.25.58-2,.58-.56,0-1.02-.09-1.38-.28-.36-.19-.63-.41-.84-.66s-.36-.48-.46-.68h-.11v4.92h-1.8Zm1.77-8.11c0,.65.09,1.22.28,1.71.19.49.46.87.82,1.15.36.28.8.41,1.32.41s.99-.14,1.35-.43c.36-.29.64-.68.82-1.17.19-.5.28-1.05.28-1.67s-.09-1.16-.28-1.65c-.18-.49-.46-.87-.82-1.15-.36-.28-.82-.42-1.36-.42s-.96.13-1.33.4c-.36.27-.63.65-.82,1.13-.18.48-.28,1.05-.28,1.69Z"/>
    <path class="cls-1" d="m210.27,159.34v-4.24h.75c.19-.18.36-.39.49-.63.13-.25.25-.54.34-.88.09-.34.17-.73.24-1.19.06-.45.12-.97.17-1.55l.29-3.46h6.3v7.71h1.42v4.24h-1.76v-2.67h-6.47v2.67h-1.79Zm2.69-4.24h4.14v-6.16h-2.92l-.19,1.91c-.09.97-.21,1.82-.35,2.53-.14.71-.37,1.29-.68,1.72Z"/>
    <path class="cls-1" d="m223.81,154.14l4.09-6.74h1.94v9.27h-1.77v-6.75l-4.07,6.75h-1.96v-9.27h1.77v6.74Z"/>
    <path class="cls-1" d="m234.03,147.4v9.27h-1.77v-9.27h1.77Zm4.52,3.86v1.56h-5.02v-1.56h5.02Zm1.26-3.86v9.27h-1.76v-9.27h1.76Z"/>
    <path class="cls-1" d="m244.92,156.87c-.59,0-1.12-.11-1.59-.33-.48-.22-.85-.54-1.13-.96-.28-.42-.41-.93-.41-1.54,0-.52.1-.95.3-1.29.2-.34.47-.61.81-.8s.72-.35,1.15-.45c.42-.1.85-.18,1.29-.23.55-.06,1.01-.12,1.35-.16.35-.04.6-.11.75-.21.16-.1.24-.25.24-.47v-.04c0-.53-.15-.94-.44-1.23s-.74-.43-1.32-.43-1.09.13-1.43.4c-.35.27-.59.56-.72.89l-1.7-.39c.2-.56.5-1.02.88-1.37.39-.35.84-.6,1.34-.76.51-.16,1.04-.24,1.6-.24.37,0,.76.04,1.18.13.42.09.81.24,1.17.47s.66.56.9.98.35.97.35,1.65v6.16h-1.76v-1.27h-.07c-.12.23-.29.46-.52.69-.23.22-.53.41-.9.56-.37.15-.8.22-1.32.22Zm.39-1.45c.5,0,.93-.1,1.28-.3.36-.2.63-.46.82-.78.19-.32.28-.66.28-1.03v-1.2c-.06.06-.19.12-.37.18-.18.05-.39.1-.62.14s-.46.07-.68.1c-.22.03-.41.06-.56.08-.35.04-.67.12-.96.22s-.52.25-.69.45c-.17.2-.26.45-.26.78,0,.45.17.78.5,1.01s.75.34,1.26.34Z"/>
    <path class="cls-1" d="m251.38,148.95v-1.56h7.82v1.56h-3.03v7.71h-1.76v-7.71h-3.04Z"/>
    <path class="cls-1" d="m262.88,147.4v9.27h-1.77v-9.27h1.77Zm4.52,3.86v1.56h-5.02v-1.56h5.02Zm1.26-3.86v9.27h-1.76v-9.27h1.76Z"/>
    <path class="cls-1" d="m274.97,156.86c-.87,0-1.63-.2-2.28-.6-.65-.4-1.15-.96-1.51-1.67-.36-.72-.54-1.55-.54-2.51s.18-1.8.54-2.52c.36-.72.86-1.28,1.51-1.68.65-.4,1.41-.6,2.28-.6s1.63.2,2.28.6c.65.4,1.15.96,1.51,1.68.36.72.54,1.56.54,2.52s-.18,1.79-.54,2.51c-.36.72-.86,1.27-1.51,1.67-.65.4-1.41.6-2.28.6Zm0-1.52c.56,0,1.03-.15,1.4-.45.37-.3.64-.69.82-1.19.18-.5.27-1.04.27-1.64s-.09-1.14-.27-1.63c-.18-.5-.45-.9-.82-1.2-.37-.3-.84-.45-1.4-.45s-1.04.15-1.41.45-.65.7-.83,1.2-.27,1.04-.27,1.63.09,1.14.27,1.64.46.89.83,1.19.84.45,1.41.45Z"/>
    <path class="cls-1" d="m283.07,154.14l4.09-6.74h1.94v9.27h-1.77v-6.75l-4.07,6.75h-1.96v-9.27h1.77v6.74Zm3.31-9.88h1.48c0,.68-.24,1.23-.72,1.66-.48.42-1.13.64-1.95.64s-1.46-.21-1.94-.64c-.48-.42-.72-.98-.72-1.66h1.48c0,.3.09.57.27.8.18.23.48.35.91.35s.73-.12.91-.34c.18-.23.28-.5.28-.8Z"/>
    <path class="cls-1" d="m296.03,156.67v-9.27h7.56v9.27h-1.77v-7.71h-4.04v7.71h-1.76Z"/>
    <path class="cls-1" d="m306.02,160.15v-12.75h1.76v1.5h.15c.1-.19.26-.42.45-.67.2-.25.47-.48.82-.67.35-.19.81-.29,1.39-.29.75,0,1.42.19,2,.57.59.38,1.05.92,1.38,1.64.34.71.5,1.57.5,2.57s-.17,1.86-.5,2.57c-.33.71-.79,1.26-1.38,1.65-.58.38-1.25.58-2,.58-.56,0-1.02-.09-1.38-.28-.36-.19-.63-.41-.84-.66s-.36-.48-.46-.68h-.11v4.92h-1.8Zm1.77-8.11c0,.65.09,1.22.28,1.71.19.49.46.87.82,1.15.36.28.8.41,1.32.41s.99-.14,1.35-.43c.36-.29.64-.68.82-1.17.19-.5.28-1.05.28-1.67s-.09-1.16-.28-1.65c-.18-.49-.46-.87-.82-1.15-.36-.28-.82-.42-1.36-.42s-.96.13-1.33.4c-.36.27-.63.65-.82,1.13-.18.48-.28,1.05-.28,1.69Z"/>
    <path class="cls-1" d="m315.96,156.67l2.61-4.68h1.85l-2.61,4.68h-1.85Zm6.08,0v-7.73h-2.22c-.53,0-.94.12-1.23.37-.29.25-.44.57-.44.97s.14.71.41.95.65.36,1.14.36h2.87v1.46h-2.87c-.68,0-1.28-.11-1.77-.34-.5-.23-.88-.55-1.15-.97-.27-.42-.4-.91-.4-1.48s.14-1.09.41-1.51.67-.75,1.19-.99c.52-.23,1.13-.35,1.84-.35h3.92v9.27h-1.7Z"/>
    <path class="cls-1" d="m327.91,147.4v9.27h-1.77v-9.27h1.77Zm3.43,7.04l2.99-7.04h1.56l-3.88,9.27h-1.34l-3.8-9.27h1.54l2.93,7.04Zm3.48,2.23v-9.27h1.76v9.27h-1.76Z"/>
    <path class="cls-1" d="m342.9,156.86c-.87,0-1.63-.2-2.28-.6-.65-.4-1.15-.96-1.51-1.67-.36-.72-.54-1.55-.54-2.51s.18-1.8.54-2.52c.36-.72.86-1.28,1.51-1.68.65-.4,1.41-.6,2.28-.6s1.63.2,2.28.6c.65.4,1.15.96,1.51,1.68.36.72.54,1.56.54,2.52s-.18,1.79-.54,2.51c-.36.72-.86,1.27-1.51,1.67-.65.4-1.41.6-2.28.6Zm0-1.52c.56,0,1.03-.15,1.4-.45.37-.3.64-.69.82-1.19.18-.5.27-1.04.27-1.64s-.09-1.14-.27-1.63c-.18-.5-.45-.9-.82-1.2-.37-.3-.84-.45-1.4-.45s-1.04.15-1.41.45-.65.7-.83,1.2-.27,1.04-.27,1.63.09,1.14.27,1.64.46.89.83,1.19.84.45,1.41.45Z"/>
    <path class="cls-1" d="m351,154.14l4.09-6.74h1.94v9.27h-1.77v-6.75l-4.07,6.75h-1.96v-9.27h1.77v6.74Zm3.31-9.88h1.48c0,.68-.24,1.23-.72,1.66-.48.42-1.13.64-1.95.64s-1.46-.21-1.94-.64c-.48-.42-.72-.98-.72-1.66h1.48c0,.3.09.57.27.8.18.23.48.35.91.35s.73-.12.91-.34c.18-.23.28-.5.28-.8Z"/>
    <path class="cls-1" d="m360.65,156.78c-.33,0-.61-.12-.85-.35s-.36-.52-.36-.85.12-.61.36-.85c.24-.24.52-.35.85-.35s.61.12.85.35c.24.24.36.52.36.85,0,.22-.06.42-.17.61-.11.18-.26.33-.44.44-.18.11-.38.16-.6.16Z"/>
    <path class="cls-1" d="m368.73,156.67v-12.36h1.87v5.37h6.16v-5.37h1.87v12.36h-1.87v-5.39h-6.16v5.39h-1.87Z"/>
    <path class="cls-1" d="m383.9,156.87c-.59,0-1.12-.11-1.59-.33-.48-.22-.85-.54-1.13-.96-.28-.42-.41-.93-.41-1.54,0-.52.1-.95.3-1.29.2-.34.47-.61.81-.8s.72-.35,1.15-.45c.42-.1.85-.18,1.29-.23.55-.06,1.01-.12,1.35-.16.35-.04.6-.11.75-.21.16-.1.24-.25.24-.47v-.04c0-.53-.15-.94-.44-1.23s-.74-.43-1.32-.43-1.09.13-1.43.4c-.35.27-.59.56-.72.89l-1.7-.39c.2-.56.5-1.02.88-1.37.39-.35.84-.6,1.34-.76.51-.16,1.04-.24,1.6-.24.37,0,.76.04,1.18.13.42.09.81.24,1.17.47s.66.56.9.98.35.97.35,1.65v6.16h-1.76v-1.27h-.07c-.12.23-.29.46-.52.69-.23.22-.53.41-.9.56-.37.15-.8.22-1.32.22Zm.39-1.45c.5,0,.93-.1,1.28-.3.36-.2.63-.46.82-.78.19-.32.28-.66.28-1.03v-1.2c-.06.06-.19.12-.37.18-.18.05-.39.1-.62.14s-.46.07-.68.1c-.22.03-.41.06-.56.08-.35.04-.67.12-.96.22s-.52.25-.69.45c-.17.2-.26.45-.26.78,0,.45.17.78.5,1.01s.75.34,1.26.34Z"/>
    <path class="cls-1" d="m389.97,159.34v-4.24h.75c.19-.18.36-.39.49-.63.13-.25.25-.54.34-.88.09-.34.17-.73.24-1.19.06-.45.12-.97.17-1.55l.29-3.46h6.3v7.71h1.42v4.24h-1.76v-2.67h-6.47v2.67h-1.79Zm2.69-4.24h4.14v-6.16h-2.92l-.19,1.91c-.09.97-.21,1.82-.35,2.53-.14.71-.37,1.29-.68,1.72Z"/>
    <path class="cls-1" d="m3.02,174.54l4.09-6.74h1.94v9.27h-1.77v-6.75l-4.07,6.75h-1.96v-9.27h1.77v6.74Z"/>
    <path class="cls-1" d="m13.24,167.8v9.27h-1.77v-9.27h1.77Zm4.52,3.86v1.56h-5.02v-1.56h5.02Zm1.26-3.86v9.27h-1.76v-9.27h1.76Z"/>
    <path class="cls-1" d="m20.91,169.35v-1.56h7.82v1.56h-3.02v7.71h-1.76v-7.71h-3.04Z"/>
    <path class="cls-1" d="m34.64,177.26c-.91,0-1.7-.2-2.36-.59-.66-.39-1.17-.95-1.52-1.66-.36-.71-.53-1.55-.53-2.51s.18-1.79.53-2.51c.36-.72.86-1.29,1.5-1.7.64-.41,1.39-.61,2.25-.61.52,0,1.03.09,1.52.26.49.17.93.44,1.32.81.39.37.7.85.92,1.44s.34,1.3.34,2.15v.64h-7.37v-1.35h5.6c0-.47-.1-.9-.29-1.26-.19-.37-.46-.66-.81-.87-.35-.21-.76-.32-1.22-.32-.51,0-.95.12-1.33.37-.38.25-.67.57-.87.97-.2.4-.31.83-.31,1.29v1.06c0,.62.11,1.15.33,1.58.22.43.53.77.92.99.39.23.85.34,1.38.34.34,0,.65-.05.94-.15s.53-.25.73-.44c.21-.2.36-.44.47-.73l1.71.31c-.14.5-.38.94-.73,1.32-.35.38-.79.67-1.32.88-.53.21-1.13.31-1.81.31Z"/>
    <path class="cls-1" d="m40.62,180.55v-12.75h1.76v1.5h.15c.1-.19.26-.42.45-.67.2-.25.47-.48.82-.67s.81-.29,1.39-.29c.75,0,1.42.19,2,.57.59.38,1.05.92,1.39,1.64.34.71.5,1.57.5,2.57s-.17,1.86-.5,2.57c-.33.71-.79,1.26-1.38,1.65-.58.38-1.25.58-2,.58-.56,0-1.02-.09-1.38-.28-.36-.19-.64-.41-.84-.66s-.36-.48-.46-.68h-.11v4.92h-1.81Zm1.77-8.11c0,.65.09,1.22.28,1.71.19.49.46.87.82,1.15.36.28.8.41,1.32.41s.99-.14,1.35-.43.64-.68.82-1.17c.19-.5.28-1.05.28-1.67s-.09-1.16-.27-1.65c-.18-.49-.46-.87-.82-1.15-.36-.28-.82-.42-1.36-.42s-.96.13-1.32.4c-.36.27-.63.65-.82,1.13-.19.48-.28,1.05-.28,1.69Z"/>
    <path class="cls-1" d="m51.12,177.07v-9.27h3.85c1.05,0,1.88.22,2.49.67.61.44.92,1.05.92,1.81,0,.54-.17.97-.52,1.29-.35.32-.81.53-1.38.64.41.05.79.17,1.14.37s.62.47.84.8c.21.33.32.73.32,1.2,0,.49-.13.92-.38,1.3s-.62.67-1.1.88c-.48.21-1.06.32-1.74.32h-4.43Zm1.7-5.41h2.17c.34,0,.63-.05.87-.14.24-.1.43-.23.56-.41.13-.18.2-.39.2-.64,0-.36-.15-.64-.44-.84-.29-.2-.7-.3-1.21-.3h-2.15v2.34Zm0,3.9h2.73c.45,0,.8-.11,1.05-.32.25-.21.38-.5.38-.87,0-.43-.13-.77-.38-1.02-.25-.25-.6-.37-1.05-.37h-2.73v2.58Z"/>
    <path class="cls-1" d="m63.44,177.27c-.59,0-1.12-.11-1.59-.33-.48-.22-.85-.54-1.13-.96-.28-.42-.41-.93-.41-1.54,0-.52.1-.95.3-1.29s.47-.61.81-.8c.34-.2.72-.35,1.15-.45.42-.1.85-.18,1.29-.23.56-.06,1.01-.12,1.35-.16.35-.04.6-.11.75-.21.16-.1.23-.25.23-.47v-.04c0-.53-.15-.94-.44-1.23-.29-.29-.74-.43-1.32-.43s-1.09.13-1.43.4c-.35.27-.59.56-.72.89l-1.7-.39c.2-.56.5-1.02.88-1.37.39-.35.84-.6,1.34-.76.51-.16,1.04-.24,1.6-.24.37,0,.76.04,1.18.13.42.09.81.24,1.17.47.37.23.66.56.9.98.23.42.35.97.35,1.65v6.16h-1.76v-1.27h-.07c-.12.23-.29.46-.53.69-.23.22-.53.41-.9.56-.37.15-.81.22-1.32.22Zm.39-1.45c.5,0,.93-.1,1.28-.3s.63-.46.82-.78c.19-.32.28-.66.28-1.03v-1.2c-.06.06-.19.12-.37.18-.18.05-.39.1-.62.14-.23.04-.46.07-.68.1-.22.03-.41.06-.56.08-.35.04-.67.12-.96.22-.29.1-.52.25-.69.45-.17.2-.26.45-.26.78,0,.45.17.78.5,1.01s.75.34,1.26.34Z"/>
    <path class="cls-1" d="m69.69,177.07v-1.56s.33,0,.33,0c.26,0,.47-.06.65-.17s.32-.3.43-.56c.11-.27.2-.63.26-1.1s.1-1.06.13-1.77l.16-4.1h6.47v9.27h-1.77v-7.71h-3.03l-.14,3.15c-.04.76-.11,1.43-.23,2-.12.57-.29,1.05-.52,1.43-.23.38-.51.66-.87.85-.35.19-.79.28-1.29.28h-.58Z"/>
    <path class="cls-1" d="m83.22,177.27c-.59,0-1.12-.11-1.59-.33-.48-.22-.85-.54-1.13-.96-.28-.42-.41-.93-.41-1.54,0-.52.1-.95.3-1.29.2-.34.47-.61.81-.8s.72-.35,1.15-.45c.42-.1.85-.18,1.29-.23.55-.06,1.01-.12,1.35-.16.35-.04.6-.11.75-.21.16-.1.24-.25.24-.47v-.04c0-.53-.15-.94-.44-1.23s-.74-.43-1.32-.43-1.09.13-1.43.4c-.35.27-.59.56-.72.89l-1.7-.39c.2-.56.5-1.02.88-1.37.39-.35.84-.6,1.34-.76.51-.16,1.04-.24,1.6-.24.37,0,.76.04,1.18.13.42.09.81.24,1.17.47s.66.56.9.98.35.97.35,1.65v6.16h-1.76v-1.27h-.07c-.12.23-.29.46-.52.69-.23.22-.53.41-.9.56-.37.15-.8.22-1.32.22Zm.39-1.45c.5,0,.93-.1,1.28-.3.36-.2.63-.46.82-.78.19-.32.28-.66.28-1.03v-1.2c-.06.06-.19.12-.37.18-.18.05-.39.1-.62.14s-.46.07-.68.1c-.22.03-.41.06-.56.08-.35.04-.67.12-.96.22s-.52.25-.69.45c-.17.2-.26.45-.26.78,0,.45.17.78.5,1.01s.75.34,1.26.34Z"/>
    <path class="cls-1" d="m91.97,167.8v9.27h-1.77v-9.27h1.77Zm3.43,7.04l2.99-7.04h1.56l-3.88,9.27h-1.34l-3.8-9.27h1.54l2.93,7.04Zm3.48,2.23v-9.27h1.76v9.27h-1.76Z"/>
    <path class="cls-1" d="m104.82,174.54l4.09-6.74h1.94v9.27h-1.77v-6.75l-4.07,6.75h-1.96v-9.27h1.77v6.74Z"/>
    <path class="cls-1" d="m121.69,177.26c-.9,0-1.67-.2-2.32-.61-.65-.41-1.14-.97-1.49-1.69-.35-.72-.52-1.54-.52-2.47s.18-1.77.53-2.5c.35-.72.85-1.29,1.5-1.69.64-.41,1.4-.61,2.28-.61.7,0,1.33.13,1.88.39.55.26,1,.62,1.34,1.09.34.47.54,1.01.61,1.64h-1.76c-.1-.43-.32-.81-.66-1.12-.34-.31-.8-.47-1.38-.47-.5,0-.94.13-1.32.4-.38.26-.67.64-.88,1.12-.21.48-.31,1.06-.31,1.72s.1,1.26.31,1.75.5.87.87,1.14c.38.27.82.41,1.33.41.34,0,.65-.06.93-.19.28-.13.51-.31.71-.55.19-.24.33-.52.4-.86h1.76c-.06.6-.26,1.13-.59,1.61s-.76.84-1.31,1.11c-.55.27-1.18.41-1.92.41Z"/>
    <path class="cls-1" d="m127.44,177.07v-9.27h7.56v9.27h-1.77v-7.71h-4.04v7.71h-1.76Z"/>
    <path class="cls-1" d="m137.42,180.55v-12.75h1.76v1.5h.15c.1-.19.26-.42.45-.67.2-.25.47-.48.82-.67.35-.19.81-.29,1.39-.29.75,0,1.42.19,2,.57.59.38,1.05.92,1.38,1.64.34.71.5,1.57.5,2.57s-.17,1.86-.5,2.57c-.33.71-.79,1.26-1.38,1.65-.58.38-1.25.58-2,.58-.56,0-1.02-.09-1.38-.28-.36-.19-.63-.41-.84-.66s-.36-.48-.46-.68h-.11v4.92h-1.8Zm1.77-8.11c0,.65.09,1.22.28,1.71.19.49.46.87.82,1.15.36.28.8.41,1.32.41s.99-.14,1.35-.43c.36-.29.64-.68.82-1.17.19-.5.28-1.05.28-1.67s-.09-1.16-.28-1.65c-.18-.49-.46-.87-.82-1.15-.36-.28-.82-.42-1.36-.42s-.96.13-1.33.4c-.36.27-.63.65-.82,1.13-.18.48-.28,1.05-.28,1.69Z"/>
    <path class="cls-1" d="m150.61,177.27c-.59,0-1.12-.11-1.59-.33-.48-.22-.85-.54-1.13-.96-.28-.42-.41-.93-.41-1.54,0-.52.1-.95.3-1.29.2-.34.47-.61.81-.8s.72-.35,1.15-.45c.42-.1.85-.18,1.29-.23.55-.06,1.01-.12,1.35-.16.35-.04.6-.11.75-.21.16-.1.24-.25.24-.47v-.04c0-.53-.15-.94-.44-1.23s-.74-.43-1.32-.43-1.09.13-1.43.4c-.35.27-.59.56-.72.89l-1.7-.39c.2-.56.5-1.02.88-1.37.39-.35.84-.6,1.34-.76.51-.16,1.04-.24,1.6-.24.37,0,.76.04,1.18.13.42.09.81.24,1.17.47s.66.56.9.98.35.97.35,1.65v6.16h-1.76v-1.27h-.07c-.12.23-.29.46-.52.69-.23.22-.53.41-.9.56-.37.15-.8.22-1.32.22Zm.39-1.45c.5,0,.93-.1,1.28-.3.36-.2.63-.46.82-.78.19-.32.28-.66.28-1.03v-1.2c-.06.06-.19.12-.37.18-.18.05-.39.1-.62.14s-.46.07-.68.1c-.22.03-.41.06-.56.08-.35.04-.67.12-.96.22s-.52.25-.69.45c-.17.2-.26.45-.26.78,0,.45.17.78.5,1.01s.75.34,1.26.34Z"/>
    <path class="cls-1" d="m157.59,177.07v-9.27h3.84c1.05,0,1.88.22,2.49.67.61.44.92,1.05.92,1.81,0,.54-.17.97-.52,1.29-.35.32-.8.53-1.38.64.41.05.79.17,1.14.37.35.2.62.47.84.8.21.33.32.73.32,1.2,0,.49-.13.92-.38,1.3-.25.38-.62.67-1.1.88-.48.21-1.06.32-1.74.32h-4.43Zm1.7-5.41h2.17c.34,0,.63-.05.87-.14s.43-.23.56-.41c.13-.18.2-.39.2-.64,0-.36-.15-.64-.44-.84s-.7-.3-1.21-.3h-2.15v2.34Zm0,3.9h2.73c.45,0,.8-.11,1.05-.32.25-.21.38-.5.38-.87,0-.43-.13-.77-.38-1.02-.25-.25-.6-.37-1.05-.37h-2.73v2.58Z"/>
    <path class="cls-1" d="m169.91,177.27c-.59,0-1.12-.11-1.59-.33-.48-.22-.85-.54-1.13-.96-.28-.42-.41-.93-.41-1.54,0-.52.1-.95.3-1.29.2-.34.47-.61.81-.8s.72-.35,1.15-.45c.42-.1.85-.18,1.29-.23.55-.06,1.01-.12,1.35-.16.35-.04.6-.11.75-.21.16-.1.24-.25.24-.47v-.04c0-.53-.15-.94-.44-1.23s-.74-.43-1.32-.43-1.09.13-1.43.4c-.35.27-.59.56-.72.89l-1.7-.39c.2-.56.5-1.02.88-1.37.39-.35.84-.6,1.34-.76.51-.16,1.04-.24,1.6-.24.37,0,.76.04,1.18.13.42.09.81.24,1.17.47s.66.56.9.98.35.97.35,1.65v6.16h-1.76v-1.27h-.07c-.12.23-.29.46-.52.69-.23.22-.53.41-.9.56-.37.15-.8.22-1.32.22Zm.39-1.45c.5,0,.93-.1,1.28-.3.36-.2.63-.46.82-.78.19-.32.28-.66.28-1.03v-1.2c-.06.06-.19.12-.37.18-.18.05-.39.1-.62.14s-.46.07-.68.1c-.22.03-.41.06-.56.08-.35.04-.67.12-.96.22s-.52.25-.69.45c-.17.2-.26.45-.26.78,0,.45.17.78.5,1.01s.75.34,1.26.34Z"/>
    <path class="cls-1" d="m183.16,167.8v9.27h-1.77v-9.27h1.77Zm4.52,3.86v1.56h-5.02v-1.56h5.02Zm1.26-3.86v9.27h-1.76v-9.27h1.76Z"/>
    <path class="cls-1" d="m194.05,177.27c-.59,0-1.12-.11-1.59-.33-.48-.22-.85-.54-1.13-.96-.28-.42-.41-.93-.41-1.54,0-.52.1-.95.3-1.29.2-.34.47-.61.81-.8s.72-.35,1.15-.45c.42-.1.85-.18,1.29-.23.55-.06,1.01-.12,1.35-.16.35-.04.6-.11.75-.21.16-.1.24-.25.24-.47v-.04c0-.53-.15-.94-.44-1.23s-.74-.43-1.32-.43-1.09.13-1.43.4c-.35.27-.59.56-.72.89l-1.7-.39c.2-.56.5-1.02.88-1.37.39-.35.84-.6,1.34-.76.51-.16,1.04-.24,1.6-.24.37,0,.76.04,1.18.13.42.09.81.24,1.17.47s.66.56.9.98.35.97.35,1.65v6.16h-1.76v-1.27h-.07c-.12.23-.29.46-.52.69-.23.22-.53.41-.9.56-.37.15-.8.22-1.32.22Zm.39-1.45c.5,0,.93-.1,1.28-.3.36-.2.63-.46.82-.78.19-.32.28-.66.28-1.03v-1.2c-.06.06-.19.12-.37.18-.18.05-.39.1-.62.14s-.46.07-.68.1c-.22.03-.41.06-.56.08-.35.04-.67.12-.96.22s-.52.25-.69.45c-.17.2-.26.45-.26.78,0,.45.17.78.5,1.01s.75.34,1.26.34Z"/>
    <path class="cls-1" d="m200.29,177.07v-1.56s.33,0,.33,0c.26,0,.47-.06.65-.17s.32-.3.43-.56c.11-.27.2-.63.26-1.1s.1-1.06.13-1.77l.16-4.1h6.47v9.27h-1.77v-7.71h-3.03l-.14,3.15c-.04.76-.11,1.43-.23,2-.12.57-.29,1.05-.52,1.43-.23.38-.51.66-.87.85-.35.19-.79.28-1.29.28h-.58Z"/>
    <path class="cls-1" d="m215.13,177.26c-.91,0-1.7-.2-2.36-.59s-1.17-.95-1.52-1.66c-.36-.71-.53-1.55-.53-2.51s.18-1.79.53-2.51c.36-.72.86-1.29,1.5-1.7.64-.41,1.39-.61,2.25-.61.52,0,1.03.09,1.52.26s.93.44,1.32.81c.39.37.7.85.92,1.44.22.59.34,1.3.34,2.15v.64h-7.37v-1.35h5.6c0-.47-.1-.9-.29-1.26s-.46-.66-.81-.87c-.35-.21-.76-.32-1.22-.32-.51,0-.95.12-1.32.37-.38.25-.67.57-.87.97s-.3.83-.3,1.29v1.06c0,.62.11,1.15.33,1.58.22.43.53.77.92.99.39.23.86.34,1.38.34.34,0,.65-.05.94-.15.28-.1.52-.25.73-.44.21-.2.36-.44.47-.73l1.71.31c-.14.5-.38.94-.73,1.32-.35.38-.79.67-1.32.88s-1.13.31-1.81.31Z"/>
    <path class="cls-1" d="m221.12,177.07v-9.27h3.84c1.05,0,1.88.22,2.49.67.61.44.92,1.05.92,1.81,0,.54-.17.97-.52,1.29-.35.32-.8.53-1.38.64.41.05.79.17,1.14.37.35.2.62.47.84.8.21.33.32.73.32,1.2,0,.49-.13.92-.38,1.3-.25.38-.62.67-1.1.88-.48.21-1.06.32-1.74.32h-4.43Zm1.7-5.41h2.17c.34,0,.63-.05.87-.14s.43-.23.56-.41c.13-.18.2-.39.2-.64,0-.36-.15-.64-.44-.84s-.7-.3-1.21-.3h-2.15v2.34Zm0,3.9h2.73c.45,0,.8-.11,1.05-.32.25-.21.38-.5.38-.87,0-.43-.13-.77-.38-1.02-.25-.25-.6-.37-1.05-.37h-2.73v2.58Z"/>
    <path class="cls-1" d="m234.64,177.26c-.87,0-1.63-.2-2.28-.6-.65-.4-1.15-.96-1.51-1.67-.36-.72-.54-1.55-.54-2.51s.18-1.8.54-2.52c.36-.72.86-1.28,1.51-1.68.65-.4,1.41-.6,2.28-.6s1.63.2,2.28.6c.65.4,1.15.96,1.51,1.68.36.72.54,1.56.54,2.52s-.18,1.79-.54,2.51c-.36.72-.86,1.27-1.51,1.67-.65.4-1.41.6-2.28.6Zm0-1.52c.56,0,1.03-.15,1.4-.45.37-.3.64-.69.82-1.19.18-.5.27-1.04.27-1.64s-.09-1.14-.27-1.63c-.18-.5-.45-.9-.82-1.2-.37-.3-.84-.45-1.4-.45s-1.04.15-1.41.45-.65.7-.83,1.2-.27,1.04-.27,1.63.09,1.14.27,1.64.46.89.83,1.19.84.45,1.41.45Z"/>
    <path class="cls-1" d="m245.48,180.55v-12.75h1.76v1.5h.15c.1-.19.26-.42.45-.67.2-.25.47-.48.82-.67.35-.19.81-.29,1.39-.29.75,0,1.42.19,2,.57.59.38,1.05.92,1.38,1.64.34.71.5,1.57.5,2.57s-.17,1.86-.5,2.57c-.33.71-.79,1.26-1.38,1.65-.58.38-1.25.58-2,.58-.56,0-1.02-.09-1.38-.28-.36-.19-.63-.41-.84-.66s-.36-.48-.46-.68h-.11v4.92h-1.8Zm1.77-8.11c0,.65.09,1.22.28,1.71.19.49.46.87.82,1.15.36.28.8.41,1.32.41s.99-.14,1.35-.43c.36-.29.64-.68.82-1.17.19-.5.28-1.05.28-1.67s-.09-1.16-.28-1.65c-.18-.49-.46-.87-.82-1.15-.36-.28-.82-.42-1.36-.42s-.96.13-1.33.4c-.36.27-.63.65-.82,1.13-.18.48-.28,1.05-.28,1.69Z"/>
    <path class="cls-1" d="m258.67,177.27c-.59,0-1.12-.11-1.59-.33-.48-.22-.85-.54-1.13-.96-.28-.42-.41-.93-.41-1.54,0-.52.1-.95.3-1.29.2-.34.47-.61.81-.8s.72-.35,1.15-.45c.42-.1.85-.18,1.29-.23.55-.06,1.01-.12,1.35-.16.35-.04.6-.11.75-.21.16-.1.24-.25.24-.47v-.04c0-.53-.15-.94-.44-1.23s-.74-.43-1.32-.43-1.09.13-1.43.4c-.35.27-.59.56-.72.89l-1.7-.39c.2-.56.5-1.02.88-1.37.39-.35.84-.6,1.34-.76.51-.16,1.04-.24,1.6-.24.37,0,.76.04,1.18.13.42.09.81.24,1.17.47s.66.56.9.98.35.97.35,1.65v6.16h-1.76v-1.27h-.07c-.12.23-.29.46-.52.69-.23.22-.53.41-.9.56-.37.15-.8.22-1.32.22Zm.39-1.45c.5,0,.93-.1,1.28-.3.36-.2.63-.46.82-.78.19-.32.28-.66.28-1.03v-1.2c-.06.06-.19.12-.37.18-.18.05-.39.1-.62.14s-.46.07-.68.1c-.22.03-.41.06-.56.08-.35.04-.67.12-.96.22s-.52.25-.69.45c-.17.2-.26.45-.26.78,0,.45.17.78.5,1.01s.75.34,1.26.34Z"/>
    <path class="cls-1" d="m269.56,177.26c-.9,0-1.67-.2-2.32-.61-.65-.41-1.14-.97-1.49-1.69-.35-.72-.52-1.54-.52-2.47s.18-1.77.53-2.5c.35-.72.85-1.29,1.5-1.69.64-.41,1.4-.61,2.28-.61.7,0,1.33.13,1.88.39.55.26,1,.62,1.34,1.09.34.47.54,1.01.61,1.64h-1.76c-.1-.43-.32-.81-.66-1.12-.34-.31-.8-.47-1.38-.47-.5,0-.94.13-1.32.4-.38.26-.67.64-.88,1.12-.21.48-.31,1.06-.31,1.72s.1,1.26.31,1.75.5.87.87,1.14c.38.27.82.41,1.33.41.34,0,.65-.06.93-.19.28-.13.51-.31.71-.55.19-.24.33-.52.4-.86h1.76c-.06.6-.26,1.13-.59,1.61s-.76.84-1.31,1.11c-.55.27-1.18.41-1.92.41Z"/>
    <path class="cls-1" d="m279.21,177.26c-.9,0-1.67-.2-2.32-.61-.65-.41-1.14-.97-1.49-1.69-.35-.72-.52-1.54-.52-2.47s.18-1.77.53-2.5c.35-.72.85-1.29,1.5-1.69.64-.41,1.4-.61,2.28-.61.7,0,1.33.13,1.88.39.55.26,1,.62,1.34,1.09.34.47.54,1.01.61,1.64h-1.76c-.1-.43-.32-.81-.66-1.12-.34-.31-.8-.47-1.38-.47-.5,0-.94.13-1.32.4-.38.26-.67.64-.88,1.12-.21.48-.31,1.06-.31,1.72s.1,1.26.31,1.75.5.87.87,1.14c.38.27.82.41,1.33.41.34,0,.65-.06.93-.19.28-.13.51-.31.71-.55.19-.24.33-.52.4-.86h1.76c-.06.6-.26,1.13-.59,1.61s-.76.84-1.31,1.11c-.55.27-1.18.41-1.92.41Z"/>
    <path class="cls-1" d="m284.44,169.35v-1.56h7.82v1.56h-3.03v7.71h-1.76v-7.71h-3.04Z"/>
    <path class="cls-1" d="m296.87,177.27c-.59,0-1.12-.11-1.59-.33-.48-.22-.85-.54-1.13-.96-.28-.42-.41-.93-.41-1.54,0-.52.1-.95.3-1.29.2-.34.47-.61.81-.8s.72-.35,1.15-.45c.42-.1.85-.18,1.29-.23.55-.06,1.01-.12,1.35-.16.35-.04.6-.11.75-.21.16-.1.24-.25.24-.47v-.04c0-.53-.15-.94-.44-1.23s-.74-.43-1.32-.43-1.09.13-1.43.4c-.35.27-.59.56-.72.89l-1.7-.39c.2-.56.5-1.02.88-1.37.39-.35.84-.6,1.34-.76.51-.16,1.04-.24,1.6-.24.37,0,.76.04,1.18.13.42.09.81.24,1.17.47s.66.56.9.98.35.97.35,1.65v6.16h-1.76v-1.27h-.07c-.12.23-.29.46-.52.69-.23.22-.53.41-.9.56-.37.15-.8.22-1.32.22Zm.39-1.45c.5,0,.93-.1,1.28-.3.36-.2.63-.46.82-.78.19-.32.28-.66.28-1.03v-1.2c-.06.06-.19.12-.37.18-.18.05-.39.1-.62.14s-.46.07-.68.1c-.22.03-.41.06-.56.08-.35.04-.67.12-.96.22s-.52.25-.69.45c-.17.2-.26.45-.26.78,0,.45.17.78.5,1.01s.75.34,1.26.34Z"/>
    <path class="cls-1" d="m303.85,177.07v-9.27h3.84c1.05,0,1.88.22,2.49.67.61.44.92,1.05.92,1.81,0,.54-.17.97-.52,1.29-.35.32-.8.53-1.38.64.41.05.79.17,1.14.37.35.2.62.47.84.8.21.33.32.73.32,1.2,0,.49-.13.92-.38,1.3-.25.38-.62.67-1.1.88-.48.21-1.06.32-1.74.32h-4.43Zm1.7-5.41h2.17c.34,0,.63-.05.87-.14s.43-.23.56-.41c.13-.18.2-.39.2-.64,0-.36-.15-.64-.44-.84s-.7-.3-1.21-.3h-2.15v2.34Zm0,3.9h2.73c.45,0,.8-.11,1.05-.32.25-.21.38-.5.38-.87,0-.43-.13-.77-.38-1.02-.25-.25-.6-.37-1.05-.37h-2.73v2.58Z"/>
    <path class="cls-1" d="m312.74,177.07v-1.56s.33,0,.33,0c.26,0,.47-.06.65-.17s.32-.3.43-.56c.11-.27.2-.63.26-1.1s.1-1.06.13-1.77l.16-4.1h6.47v9.27h-1.77v-7.71h-3.03l-.14,3.15c-.04.76-.11,1.43-.23,2-.12.57-.29,1.05-.52,1.43-.23.38-.51.66-.87.85-.35.19-.79.28-1.29.28h-.58Z"/>
    <path class="cls-1" d="m323.02,177.07l2.61-4.68h1.85l-2.61,4.68h-1.85Zm6.08,0v-7.73h-2.22c-.53,0-.94.12-1.23.37-.29.25-.44.57-.44.97s.14.71.41.95.65.36,1.14.36h2.87v1.46h-2.87c-.68,0-1.28-.11-1.77-.34-.5-.23-.88-.55-1.15-.97-.27-.42-.4-.91-.4-1.48s.14-1.09.41-1.51.67-.75,1.19-.99c.52-.23,1.13-.35,1.84-.35h3.92v9.27h-1.7Z"/>
    <path class="cls-1" d="m337.21,177.26c-.91,0-1.7-.2-2.36-.59s-1.17-.95-1.52-1.66c-.36-.71-.53-1.55-.53-2.51s.18-1.79.53-2.51c.36-.72.86-1.29,1.5-1.7.64-.41,1.39-.61,2.25-.61.52,0,1.03.09,1.52.26s.93.44,1.32.81c.39.37.7.85.92,1.44.22.59.34,1.3.34,2.15v.64h-7.37v-1.35h5.6c0-.47-.1-.9-.29-1.26s-.46-.66-.81-.87c-.35-.21-.76-.32-1.22-.32-.51,0-.95.12-1.32.37-.38.25-.67.57-.87.97s-.3.83-.3,1.29v1.06c0,.62.11,1.15.33,1.58.22.43.53.77.92.99.39.23.86.34,1.38.34.34,0,.65-.05.94-.15.28-.1.52-.25.73-.44.21-.2.36-.44.47-.73l1.71.31c-.14.5-.38.94-.73,1.32-.35.38-.79.67-1.32.88s-1.13.31-1.81.31Z"/>
    <path class="cls-1" d="m344.96,167.8v9.27h-1.77v-9.27h1.77Zm3.43,7.04l2.99-7.04h1.56l-3.88,9.27h-1.34l-3.8-9.27h1.54l2.93,7.04Zm3.48,2.23v-9.27h1.76v9.27h-1.76Z"/>
    <path class="cls-1" d="m360,174.62h1.85c.02.38.2.67.52.88.32.21.74.31,1.25.31s.96-.11,1.33-.33c.37-.22.55-.57.55-1.04,0-.28-.07-.53-.21-.74s-.33-.38-.59-.49c-.25-.12-.55-.17-.89-.17h-1.51v-1.42h1.51c.51,0,.89-.12,1.15-.35s.38-.53.38-.88c0-.38-.14-.68-.41-.91s-.65-.35-1.13-.35-.9.11-1.23.33c-.33.22-.5.5-.51.85h-1.82c.01-.52.17-.98.47-1.37.3-.39.71-.7,1.23-.92.52-.22,1.11-.33,1.77-.33s1.28.11,1.79.33.89.53,1.17.92c.28.39.41.84.41,1.35s-.15.93-.46,1.25-.7.56-1.19.7v.1c.36.02.68.13.95.33.28.19.5.45.65.77.16.32.24.68.24,1.08,0,.57-.16,1.06-.47,1.47-.31.41-.74.73-1.29.96-.55.22-1.18.33-1.88.33s-1.3-.11-1.84-.32c-.54-.22-.97-.52-1.29-.92-.32-.39-.48-.86-.5-1.4Z"/>
    <path class="cls-1" d="m370.9,167.8v9.27h-1.77v-9.27h1.77Zm4.52,3.86v1.56h-5.02v-1.56h5.02Zm1.26-3.86v9.27h-1.76v-9.27h1.76Z"/>
    <path class="cls-1" d="m381.79,177.27c-.59,0-1.12-.11-1.59-.33-.48-.22-.85-.54-1.13-.96-.28-.42-.41-.93-.41-1.54,0-.52.1-.95.3-1.29.2-.34.47-.61.81-.8s.72-.35,1.15-.45c.42-.1.85-.18,1.29-.23.55-.06,1.01-.12,1.35-.16.35-.04.6-.11.75-.21.16-.1.24-.25.24-.47v-.04c0-.53-.15-.94-.44-1.23s-.74-.43-1.32-.43-1.09.13-1.43.4c-.35.27-.59.56-.72.89l-1.7-.39c.2-.56.5-1.02.88-1.37.39-.35.84-.6,1.34-.76.51-.16,1.04-.24,1.6-.24.37,0,.76.04,1.18.13.42.09.81.24,1.17.47s.66.56.9.98.35.97.35,1.65v6.16h-1.76v-1.27h-.07c-.12.23-.29.46-.52.69-.23.22-.53.41-.9.56-.37.15-.8.22-1.32.22Zm.39-1.45c.5,0,.93-.1,1.28-.3.36-.2.63-.46.82-.78.19-.32.28-.66.28-1.03v-1.2c-.06.06-.19.12-.37.18-.18.05-.39.1-.62.14s-.46.07-.68.1c-.22.03-.41.06-.56.08-.35.04-.67.12-.96.22s-.52.25-.69.45c-.17.2-.26.45-.26.78,0,.45.17.78.5,1.01s.75.34,1.26.34Z"/>
    <path class="cls-1" d="m388.77,177.07v-9.27h1.8v3.89h.87l3.06-3.89h2.23l-3.59,4.51,3.63,4.76h-2.24l-2.79-3.71h-1.18v3.71h-1.8Z"/>
    <path class="cls-1" d="m399.94,174.54l4.09-6.74h1.94v9.27h-1.77v-6.75l-4.07,6.75h-1.96v-9.27h1.77v6.74Z"/>
    <path class="cls-1" d="m412.54,168.57v-1.16c0-.34.06-.7.19-1.08.13-.38.31-.74.54-1.09.23-.35.5-.64.81-.89l.89.64c-.25.36-.46.73-.63,1.12s-.26.82-.26,1.27v1.18h-1.54Zm3.08,0v-1.16c0-.34.06-.7.19-1.08.13-.38.31-.74.54-1.09.23-.35.5-.64.81-.89l.89.64c-.25.36-.46.73-.63,1.12s-.26.82-.26,1.27v1.18h-1.54Z"/>
    <path class="cls-1" d="m419.6,177.07v-9.27h7.56v9.27h-1.77v-7.71h-4.04v7.71h-1.76Z"/>
    <path class="cls-1" d="m428.86,177.07v-1.56s.33,0,.33,0c.26,0,.47-.06.65-.17s.32-.3.43-.56c.11-.27.2-.63.26-1.1s.1-1.06.13-1.77l.16-4.1h6.47v9.27h-1.77v-7.71h-3.03l-.14,3.15c-.04.76-.11,1.43-.23,2-.12.57-.29,1.05-.52,1.43-.23.38-.51.66-.87.85-.35.19-.79.28-1.29.28h-.58Z"/>
    <path class="cls-1" d="m440.88,167.8v9.27h-1.8v-9.27h1.8Zm3.48,3.92v1.57h-4.94v-1.57h4.94Zm2.83,5.54c-.86,0-1.61-.2-2.26-.6-.64-.4-1.14-.96-1.5-1.68-.35-.72-.53-1.55-.53-2.5s.18-1.8.53-2.51c.35-.72.85-1.28,1.5-1.68.64-.4,1.4-.6,2.26-.6s1.62.2,2.26.6c.64.4,1.14.96,1.5,1.68.36.72.53,1.56.53,2.51s-.18,1.78-.53,2.5c-.36.72-.85,1.28-1.5,1.68-.64.4-1.4.6-2.26.6Zm0-1.55c.58,0,1.06-.15,1.43-.44.37-.3.65-.69.82-1.18s.27-1.03.27-1.62-.09-1.13-.27-1.63c-.18-.49-.45-.89-.82-1.19-.37-.3-.85-.45-1.43-.45s-1.06.15-1.43.45-.65.69-.83,1.19c-.18.49-.27,1.04-.27,1.63s.09,1.13.27,1.62.45.88.83,1.18.85.44,1.43.44Z"/>
    <path class="cls-1" d="m457.51,177.26c-.9,0-1.67-.2-2.32-.61-.65-.41-1.14-.97-1.49-1.69-.35-.72-.52-1.54-.52-2.47s.18-1.77.53-2.5c.35-.72.85-1.29,1.5-1.69.64-.41,1.4-.61,2.28-.61.7,0,1.33.13,1.88.39.55.26,1,.62,1.34,1.09.34.47.54,1.01.61,1.64h-1.76c-.1-.43-.32-.81-.66-1.12-.34-.31-.8-.47-1.38-.47-.5,0-.94.13-1.32.4-.38.26-.67.64-.88,1.12-.21.48-.31,1.06-.31,1.72s.1,1.26.31,1.75.5.87.87,1.14c.38.27.82.41,1.33.41.34,0,.65-.06.93-.19.28-.13.51-.31.71-.55.19-.24.33-.52.4-.86h1.76c-.06.6-.26,1.13-.59,1.61s-.76.84-1.31,1.11c-.55.27-1.18.41-1.92.41Z"/>
    <path class="cls-1" d="m464.81,164.71v1.16c0,.34-.06.7-.19,1.08-.13.38-.31.74-.54,1.08-.23.35-.5.64-.81.89l-.89-.64c.24-.35.44-.71.62-1.1s.26-.82.26-1.29v-1.18h1.54Zm3.07,0v1.16c0,.34-.06.7-.19,1.08s-.3.74-.53,1.08c-.23.35-.5.64-.81.89l-.89-.64c.24-.35.44-.71.62-1.1.18-.39.26-.82.26-1.29v-1.18h1.55Z"/>
    <path class="cls-1" d="m3.02,194.94l4.09-6.74h1.94v9.27h-1.77v-6.75l-4.07,6.75h-1.96v-9.27h1.77v6.74Z"/>
    <path class="cls-1" d="m15.62,188.97v-1.16c0-.34.06-.7.19-1.08.13-.38.31-.74.54-1.09.23-.35.5-.64.81-.89l.89.64c-.25.36-.45.73-.63,1.12-.17.39-.26.82-.26,1.27v1.18h-1.55Zm3.08,0v-1.16c0-.34.06-.7.19-1.08.13-.38.31-.74.54-1.09.23-.35.5-.64.81-.89l.89.64c-.25.36-.46.73-.63,1.12-.17.39-.26.82-.26,1.27v1.18h-1.55Z"/>
    <path class="cls-1" d="m24.45,188.2v9.27h-1.77v-9.27h1.77Zm3.44,7.04l2.99-7.04h1.56l-3.88,9.27h-1.34l-3.8-9.27h1.54l2.93,7.04Zm3.48,2.23v-9.27h1.76v9.27h-1.76Z"/>
    <path class="cls-1" d="m37.3,194.94l4.09-6.74h1.94v9.27h-1.77v-6.75l-4.07,6.75h-1.96v-9.27h1.77v6.74Z"/>
    <path class="cls-1" d="m47.53,188.2v9.27h-1.77v-9.27h1.77Zm4.52,3.86v1.56h-5.02v-1.56h5.02Zm1.26-3.86v9.27h-1.76v-9.27h1.76Z"/>
    <path class="cls-1" d="m56.85,200.95c-.27,0-.52-.02-.74-.06-.22-.04-.39-.09-.49-.14l.43-1.48c.33.09.62.13.88.12.26-.01.49-.11.69-.29.2-.18.38-.48.53-.89l.22-.62-3.39-9.39h1.93l2.35,7.2h.1l2.35-7.2h1.94l-3.82,10.51c-.18.48-.4.89-.68,1.23-.27.34-.6.59-.98.76s-.82.25-1.32.25Z"/>
    <path class="cls-1" d="m69.25,197.66c-.9,0-1.67-.2-2.32-.61-.64-.41-1.14-.97-1.49-1.69-.35-.72-.52-1.54-.52-2.47s.18-1.77.53-2.5c.35-.72.85-1.29,1.5-1.69.64-.41,1.4-.61,2.28-.61.7,0,1.33.13,1.88.39s1,.62,1.34,1.09c.34.47.54,1.01.61,1.64h-1.76c-.1-.43-.32-.81-.66-1.12-.34-.31-.8-.47-1.38-.47-.5,0-.94.13-1.32.4-.38.26-.67.64-.88,1.12-.21.48-.31,1.06-.31,1.72s.1,1.26.31,1.75.5.87.87,1.14c.38.27.82.41,1.33.41.34,0,.65-.06.93-.19.28-.13.51-.31.71-.55.19-.24.33-.52.4-.86h1.76c-.06.6-.26,1.13-.59,1.61s-.76.84-1.31,1.11c-.54.27-1.18.41-1.92.41Z"/>
    <path class="cls-1" d="m76.54,185.1v1.16c0,.34-.06.7-.19,1.08-.13.38-.31.74-.54,1.08-.23.35-.5.64-.81.89l-.89-.64c.24-.35.44-.71.62-1.1s.26-.82.26-1.29v-1.18h1.54Zm3.07,0v1.16c0,.34-.06.7-.19,1.08s-.3.74-.53,1.08c-.23.35-.5.64-.81.89l-.89-.64c.24-.35.44-.71.62-1.1.18-.39.26-.82.26-1.29v-1.18h1.55Z"/>
    <path class="cls-1" d="m84.04,195.78l-.09.66c-.06.48-.16.99-.31,1.51-.14.53-.29,1.01-.44,1.46-.15.45-.27.81-.37,1.07h-1.28c.05-.25.12-.59.22-1.01.09-.42.18-.9.27-1.42.09-.52.16-1.06.2-1.6l.06-.68h1.74Z"/>
    <path class="cls-1" d="m92.66,188.2v9.27h-1.77v-9.27h1.77Zm4.52,3.86v1.56h-5.02v-1.56h5.02Zm1.26-3.86v9.27h-1.76v-9.27h1.76Z"/>
    <path class="cls-1" d="m103.55,197.67c-.59,0-1.12-.11-1.59-.33-.48-.22-.85-.54-1.13-.96-.28-.42-.41-.93-.41-1.54,0-.52.1-.95.3-1.29.2-.34.47-.61.81-.8s.72-.35,1.15-.45c.42-.1.85-.18,1.29-.23.55-.06,1.01-.12,1.35-.16.35-.04.6-.11.75-.21.16-.1.24-.25.24-.47v-.04c0-.53-.15-.94-.44-1.23s-.74-.43-1.32-.43-1.09.13-1.43.4c-.35.27-.59.56-.72.89l-1.7-.39c.2-.56.5-1.02.88-1.37.39-.35.84-.6,1.34-.76.51-.16,1.04-.24,1.6-.24.37,0,.76.04,1.18.13.42.09.81.24,1.17.47s.66.56.9.98.35.97.35,1.65v6.16h-1.76v-1.27h-.07c-.12.23-.29.46-.52.69-.23.22-.53.41-.9.56-.37.15-.8.22-1.32.22Zm.39-1.45c.5,0,.93-.1,1.28-.3.36-.2.63-.46.82-.78.19-.32.28-.66.28-1.03v-1.2c-.06.06-.19.12-.37.18-.18.05-.39.1-.62.14s-.46.07-.68.1c-.22.03-.41.06-.56.08-.35.04-.67.12-.96.22s-.52.25-.69.45c-.17.2-.26.45-.26.78,0,.45.17.78.5,1.01s.75.34,1.26.34Z"/>
    <path class="cls-1" d="m117.2,192.5v1.56c-.28.11-.57.21-.88.3-.31.09-.64.15-.98.2-.34.05-.7.07-1.07.07-1.15,0-2.06-.28-2.73-.84s-1.01-1.42-1.01-2.58v-3.03h1.76v3.03c0,.44.08.79.24,1.07.16.27.39.47.69.6s.65.19,1.06.19c.54,0,1.05-.05,1.51-.15s.93-.24,1.42-.42Zm.77-4.3v9.27h-1.76v-9.27h1.76Z"/>
    <path class="cls-1" d="m122.15,194.94l4.09-6.74h1.94v9.27h-1.77v-6.75l-4.07,6.75h-1.96v-9.27h1.77v6.74Z"/>
    <path class="cls-1" d="m132.37,188.2v9.27h-1.77v-9.27h1.77Zm4.52,3.86v1.56h-5.02v-1.56h5.02Zm1.26-3.86v9.27h-1.76v-9.27h1.76Z"/>
    <path class="cls-1" d="m143.26,197.67c-.59,0-1.12-.11-1.59-.33-.48-.22-.85-.54-1.13-.96-.28-.42-.41-.93-.41-1.54,0-.52.1-.95.3-1.29.2-.34.47-.61.81-.8s.72-.35,1.15-.45c.42-.1.85-.18,1.29-.23.55-.06,1.01-.12,1.35-.16.35-.04.6-.11.75-.21.16-.1.24-.25.24-.47v-.04c0-.53-.15-.94-.44-1.23s-.74-.43-1.32-.43-1.09.13-1.43.4c-.35.27-.59.56-.72.89l-1.7-.39c.2-.56.5-1.02.88-1.37.39-.35.84-.6,1.34-.76.51-.16,1.04-.24,1.6-.24.37,0,.76.04,1.18.13.42.09.81.24,1.17.47s.66.56.9.98.35.97.35,1.65v6.16h-1.76v-1.27h-.07c-.12.23-.29.46-.52.69-.23.22-.53.41-.9.56-.37.15-.8.22-1.32.22Zm.39-1.45c.5,0,.93-.1,1.28-.3.36-.2.63-.46.82-.78.19-.32.28-.66.28-1.03v-1.2c-.06.06-.19.12-.37.18-.18.05-.39.1-.62.14s-.46.07-.68.1c-.22.03-.41.06-.56.08-.35.04-.67.12-.96.22s-.52.25-.69.45c-.17.2-.26.45-.26.78,0,.45.17.78.5,1.01s.75.34,1.26.34Z"/>
    <path class="cls-1" d="m149.68,197.47l2.61-4.68h1.85l-2.61,4.68h-1.85Zm6.08,0v-7.73h-2.22c-.53,0-.94.12-1.23.37-.29.25-.44.57-.44.97s.14.71.41.95.65.36,1.14.36h2.87v1.46h-2.87c-.68,0-1.28-.11-1.77-.34-.5-.23-.88-.55-1.15-.97-.27-.42-.4-.91-.4-1.48s.14-1.09.41-1.51.67-.75,1.19-.99c.52-.23,1.13-.35,1.84-.35h3.92v9.27h-1.7Z"/>
    <path class="cls-1" d="m168.28,197.66c-.9,0-1.67-.2-2.32-.61-.65-.41-1.14-.97-1.49-1.69-.35-.72-.52-1.54-.52-2.47s.18-1.77.53-2.5c.35-.72.85-1.29,1.5-1.69.64-.41,1.4-.61,2.28-.61.7,0,1.33.13,1.88.39.55.26,1,.62,1.34,1.09.34.47.54,1.01.61,1.64h-1.76c-.1-.43-.32-.81-.66-1.12-.34-.31-.8-.47-1.38-.47-.5,0-.94.13-1.32.4-.38.26-.67.64-.88,1.12-.21.48-.31,1.06-.31,1.72s.1,1.26.31,1.75.5.87.87,1.14c.38.27.82.41,1.33.41.34,0,.65-.06.93-.19.28-.13.51-.31.71-.55.19-.24.33-.52.4-.86h1.76c-.06.6-.26,1.13-.59,1.61s-.76.84-1.31,1.11c-.55.27-1.18.41-1.92.41Z"/>
    <path class="cls-1" d="m177.93,197.66c-.87,0-1.63-.2-2.28-.6-.65-.4-1.15-.96-1.51-1.67-.36-.72-.54-1.55-.54-2.51s.18-1.8.54-2.52c.36-.72.86-1.28,1.51-1.68.65-.4,1.41-.6,2.28-.6s1.63.2,2.28.6c.65.4,1.15.96,1.51,1.68.36.72.54,1.56.54,2.52s-.18,1.79-.54,2.51c-.36.72-.86,1.27-1.51,1.67-.65.4-1.41.6-2.28.6Zm0-1.52c.56,0,1.03-.15,1.4-.45.37-.3.64-.69.82-1.19.18-.5.27-1.04.27-1.64s-.09-1.14-.27-1.63c-.18-.5-.45-.9-.82-1.2-.37-.3-.84-.45-1.4-.45s-1.04.15-1.41.45-.65.7-.83,1.2-.27,1.04-.27,1.63.09,1.14.27,1.64.46.89.83,1.19.84.45,1.41.45Z"/>
    <path class="cls-1" d="m188.22,195.02h1.85c.02.38.2.67.52.88.32.21.74.31,1.25.31s.96-.11,1.33-.33c.37-.22.55-.57.55-1.04,0-.28-.07-.53-.21-.74s-.33-.38-.59-.49c-.25-.12-.55-.17-.89-.17h-1.51v-1.42h1.51c.51,0,.89-.12,1.15-.35s.38-.53.38-.88c0-.38-.14-.68-.41-.91s-.65-.35-1.13-.35-.9.11-1.23.33c-.33.22-.5.5-.51.85h-1.82c.01-.52.17-.98.47-1.37.3-.39.71-.7,1.23-.92.52-.22,1.11-.33,1.77-.33s1.28.11,1.79.33.89.53,1.17.92c.28.39.41.84.41,1.35s-.15.93-.46,1.25-.7.56-1.19.7v.1c.36.02.68.13.95.33.28.19.5.45.65.77.16.32.24.68.24,1.08,0,.57-.16,1.06-.47,1.47-.31.41-.74.73-1.29.96-.55.22-1.18.33-1.88.33s-1.3-.11-1.84-.32c-.54-.22-.97-.52-1.29-.92-.32-.39-.48-.86-.5-1.4Z"/>
    <path class="cls-1" d="m199.12,188.2v9.27h-1.77v-9.27h1.77Zm4.52,3.86v1.56h-5.02v-1.56h5.02Zm1.26-3.86v9.27h-1.76v-9.27h1.76Z"/>
    <path class="cls-1" d="m210.01,197.67c-.59,0-1.12-.11-1.59-.33-.48-.22-.85-.54-1.13-.96-.28-.42-.41-.93-.41-1.54,0-.52.1-.95.3-1.29.2-.34.47-.61.81-.8s.72-.35,1.15-.45c.42-.1.85-.18,1.29-.23.55-.06,1.01-.12,1.35-.16.35-.04.6-.11.75-.21.16-.1.24-.25.24-.47v-.04c0-.53-.15-.94-.44-1.23s-.74-.43-1.32-.43-1.09.13-1.43.4c-.35.27-.59.56-.72.89l-1.7-.39c.2-.56.5-1.02.88-1.37.39-.35.84-.6,1.34-.76.51-.16,1.04-.24,1.6-.24.37,0,.76.04,1.18.13.42.09.81.24,1.17.47s.66.56.9.98.35.97.35,1.65v6.16h-1.76v-1.27h-.07c-.12.23-.29.46-.52.69-.23.22-.53.41-.9.56-.37.15-.8.22-1.32.22Zm.39-1.45c.5,0,.93-.1,1.28-.3.36-.2.63-.46.82-.78.19-.32.28-.66.28-1.03v-1.2c-.06.06-.19.12-.37.18-.18.05-.39.1-.62.14s-.46.07-.68.1c-.22.03-.41.06-.56.08-.35.04-.67.12-.96.22s-.52.25-.69.45c-.17.2-.26.45-.26.78,0,.45.17.78.5,1.01s.75.34,1.26.34Z"/>
    <path class="cls-1" d="m216.99,197.47v-9.27h1.8v3.89h.87l3.06-3.89h2.23l-3.59,4.51,3.63,4.76h-2.24l-2.79-3.71h-1.18v3.71h-1.8Z"/>
    <path class="cls-1" d="m229.09,197.67c-.59,0-1.12-.11-1.59-.33-.48-.22-.85-.54-1.13-.96-.28-.42-.41-.93-.41-1.54,0-.52.1-.95.3-1.29.2-.34.47-.61.81-.8s.72-.35,1.15-.45c.42-.1.85-.18,1.29-.23.55-.06,1.01-.12,1.35-.16.35-.04.6-.11.75-.21.16-.1.24-.25.24-.47v-.04c0-.53-.15-.94-.44-1.23s-.74-.43-1.32-.43-1.09.13-1.43.4c-.35.27-.59.56-.72.89l-1.7-.39c.2-.56.5-1.02.88-1.37.39-.35.84-.6,1.34-.76.51-.16,1.04-.24,1.6-.24.37,0,.76.04,1.18.13.42.09.81.24,1.17.47s.66.56.9.98.35.97.35,1.65v6.16h-1.76v-1.27h-.07c-.12.23-.29.46-.52.69-.23.22-.53.41-.9.56-.37.15-.8.22-1.32.22Zm.39-1.45c.5,0,.93-.1,1.28-.3.36-.2.63-.46.82-.78.19-.32.28-.66.28-1.03v-1.2c-.06.06-.19.12-.37.18-.18.05-.39.1-.62.14s-.46.07-.68.1c-.22.03-.41.06-.56.08-.35.04-.67.12-.96.22s-.52.25-.69.45c-.17.2-.26.45-.26.78,0,.45.17.78.5,1.01s.75.34,1.26.34Z"/>
    <path class="cls-1" d="m240.22,188.97v-1.16c0-.34.06-.7.19-1.08.13-.38.31-.74.54-1.09.23-.35.5-.64.81-.89l.89.64c-.25.36-.46.73-.63,1.12s-.26.82-.26,1.27v1.18h-1.54Zm3.08,0v-1.16c0-.34.06-.7.19-1.08.13-.38.31-.74.54-1.09.23-.35.5-.64.81-.89l.89.64c-.25.36-.46.73-.63,1.12s-.26.82-.26,1.27v1.18h-1.54Z"/>
    <path class="cls-1" d="m247.27,197.47v-9.27h7.56v9.27h-1.77v-7.71h-4.04v7.71h-1.76Z"/>
    <path class="cls-1" d="m256.53,197.47v-1.56s.33,0,.33,0c.26,0,.47-.06.65-.17s.32-.3.43-.56c.11-.27.2-.63.26-1.1s.1-1.06.13-1.77l.16-4.1h6.47v9.27h-1.77v-7.71h-3.03l-.14,3.15c-.04.76-.11,1.43-.23,2-.12.57-.29,1.05-.52,1.43-.23.38-.51.66-.87.85-.35.19-.79.28-1.29.28h-.58Z"/>
    <path class="cls-1" d="m268.55,188.2v9.27h-1.8v-9.27h1.8Zm3.48,3.92v1.57h-4.94v-1.57h4.94Zm2.83,5.54c-.86,0-1.61-.2-2.26-.6-.64-.4-1.14-.96-1.5-1.68-.35-.72-.53-1.55-.53-2.5s.18-1.8.53-2.51c.35-.72.85-1.28,1.5-1.68.64-.4,1.4-.6,2.26-.6s1.62.2,2.26.6c.64.4,1.14.96,1.5,1.68.36.72.53,1.56.53,2.51s-.18,1.78-.53,2.5c-.36.72-.85,1.28-1.5,1.68-.64.4-1.4.6-2.26.6Zm0-1.55c.58,0,1.06-.15,1.43-.44.37-.3.65-.69.82-1.18s.27-1.03.27-1.62-.09-1.13-.27-1.63c-.18-.49-.45-.89-.82-1.19-.37-.3-.85-.45-1.43-.45s-1.06.15-1.43.45-.65.69-.83,1.19c-.18.49-.27,1.04-.27,1.63s.09,1.13.27,1.62.45.88.83,1.18.85.44,1.43.44Z"/>
    <path class="cls-1" d="m285.18,197.66c-.9,0-1.67-.2-2.32-.61-.65-.41-1.14-.97-1.49-1.69-.35-.72-.52-1.54-.52-2.47s.18-1.77.53-2.5c.35-.72.85-1.29,1.5-1.69.64-.41,1.4-.61,2.28-.61.7,0,1.33.13,1.88.39.55.26,1,.62,1.34,1.09.34.47.54,1.01.61,1.64h-1.76c-.1-.43-.32-.81-.66-1.12-.34-.31-.8-.47-1.38-.47-.5,0-.94.13-1.32.4-.38.26-.67.64-.88,1.12-.21.48-.31,1.06-.31,1.72s.1,1.26.31,1.75.5.87.87,1.14c.38.27.82.41,1.33.41.34,0,.65-.06.93-.19.28-.13.51-.31.71-.55.19-.24.33-.52.4-.86h1.76c-.06.6-.26,1.13-.59,1.61s-.76.84-1.31,1.11c-.55.27-1.18.41-1.92.41Z"/>
    <path class="cls-1" d="m292.48,185.1v1.16c0,.34-.06.7-.19,1.08-.13.38-.31.74-.54,1.08-.23.35-.5.64-.81.89l-.89-.64c.24-.35.44-.71.62-1.1s.26-.82.26-1.29v-1.18h1.54Zm3.07,0v1.16c0,.34-.06.7-.19,1.08s-.3.74-.53,1.08c-.23.35-.5.64-.81.89l-.89-.64c.24-.35.44-.71.62-1.1.18-.39.26-.82.26-1.29v-1.18h1.55Z"/>
    <path class="cls-1" d="m11.06,307.5v12.36h-1.86v-10.77H3.38v10.77h-1.86v-12.36h9.54Z"/>
    <path class="cls-1" d="m17.67,320.06c-.87,0-1.63-.2-2.28-.6s-1.15-.96-1.51-1.67-.54-1.55-.54-2.51.18-1.8.54-2.52c.36-.72.86-1.28,1.51-1.68s1.41-.6,2.28-.6,1.63.2,2.28.6,1.15.96,1.51,1.68c.36.72.54,1.56.54,2.52s-.18,1.79-.54,2.51c-.36.72-.86,1.27-1.51,1.67s-1.41.6-2.28.6Zm0-1.52c.56,0,1.03-.15,1.4-.45s.65-.69.82-1.19c.18-.5.27-1.04.27-1.64s-.09-1.14-.27-1.63c-.18-.5-.45-.9-.82-1.2s-.84-.45-1.4-.45-1.04.15-1.41.45c-.37.3-.65.7-.83,1.2s-.27,1.04-.27,1.63.09,1.14.27,1.64.45.89.83,1.19c.37.3.84.45,1.41.45Z"/>
    <path class="cls-1" d="m28.5,323.35v-12.75h1.76v1.5h.15c.1-.19.26-.42.45-.67.2-.25.47-.48.82-.67s.81-.29,1.39-.29c.75,0,1.42.19,2,.57.59.38,1.05.92,1.39,1.64.34.71.5,1.57.5,2.57s-.17,1.86-.5,2.57c-.33.71-.79,1.26-1.38,1.65-.58.38-1.25.58-2,.58-.56,0-1.02-.09-1.38-.28-.36-.19-.64-.41-.84-.66s-.36-.48-.46-.68h-.11v4.92h-1.81Zm1.77-8.11c0,.65.09,1.22.28,1.71.19.49.46.87.82,1.15.36.28.8.41,1.32.41s.99-.14,1.35-.43.64-.68.82-1.17c.19-.5.28-1.05.28-1.67s-.09-1.16-.27-1.65c-.18-.49-.46-.87-.82-1.15-.36-.28-.82-.42-1.36-.42s-.96.13-1.32.4c-.36.27-.63.65-.82,1.13-.19.48-.28,1.05-.28,1.69Z"/>
    <path class="cls-1" d="m40.76,317.34l4.09-6.74h1.94v9.27h-1.77v-6.75l-4.07,6.75h-1.96v-9.27h1.77v6.74Z"/>
    <path class="cls-1" d="m53.13,320.06c-.9,0-1.67-.2-2.31-.61-.65-.41-1.14-.97-1.49-1.69-.35-.72-.52-1.54-.52-2.47s.18-1.77.53-2.5c.35-.72.85-1.29,1.5-1.69.64-.41,1.4-.61,2.28-.61.7,0,1.33.13,1.88.39.55.26,1,.62,1.34,1.09.34.47.54,1.01.61,1.64h-1.76c-.1-.43-.32-.81-.66-1.12-.34-.31-.8-.47-1.38-.47-.5,0-.94.13-1.32.4-.38.26-.67.64-.88,1.12-.21.48-.31,1.06-.31,1.72s.1,1.26.31,1.75c.21.49.5.87.87,1.14.38.27.82.41,1.33.41.34,0,.65-.06.93-.19s.52-.31.71-.55c.19-.24.32-.52.4-.86h1.76c-.06.6-.26,1.13-.59,1.61-.33.47-.76.84-1.31,1.11-.55.27-1.18.41-1.92.41Z"/>
    <path class="cls-1" d="m60.02,323.35c-.27,0-.52-.02-.74-.06-.22-.04-.39-.09-.49-.14l.43-1.48c.33.09.62.13.88.12.26-.01.49-.11.69-.29.2-.18.38-.48.53-.89l.22-.62-3.39-9.39h1.93l2.35,7.2h.1l2.35-7.2h1.94l-3.82,10.51c-.18.48-.4.89-.68,1.23-.27.34-.6.59-.98.76s-.82.25-1.32.25Z"/>
    <path class="cls-1" d="m70.27,310.6v9.27h-1.77v-9.27h1.77Zm4.52,3.86v1.56h-5.02v-1.56h5.02Zm1.26-3.86v9.27h-1.76v-9.27h1.76Z"/>
    <path class="cls-1" d="m78.46,319.87v-9.27h1.8v3.89h.87l3.06-3.89h2.23l-3.59,4.51,3.63,4.76h-2.24l-2.79-3.71h-1.18v3.71h-1.8Z"/>
    <path class="cls-1" d="m89,323.35c-.27,0-.52-.02-.74-.06-.22-.04-.39-.09-.5-.14l.43-1.48c.33.09.62.13.88.12.26-.01.49-.11.69-.29.2-.18.38-.48.53-.89l.22-.62-3.39-9.39h1.93l2.35,7.2h.1l2.35-7.2h1.94l-3.82,10.51c-.18.48-.4.89-.68,1.23s-.6.59-.98.76c-.38.17-.82.25-1.32.25Z"/>
    <path class="cls-1" d="m102,319.87v-9.27h7.56v9.27h-1.77v-7.71h-4.04v7.71h-1.76Z"/>
    <path class="cls-1" d="m115.89,320.06c-.87,0-1.63-.2-2.28-.6-.65-.4-1.15-.96-1.51-1.67-.36-.72-.54-1.55-.54-2.51s.18-1.8.54-2.52c.36-.72.86-1.28,1.51-1.68.65-.4,1.41-.6,2.28-.6s1.63.2,2.28.6c.65.4,1.15.96,1.51,1.68.36.72.54,1.56.54,2.52s-.18,1.79-.54,2.51c-.36.72-.86,1.27-1.51,1.67-.65.4-1.41.6-2.28.6Zm0-1.52c.56,0,1.03-.15,1.4-.45.37-.3.64-.69.82-1.19.18-.5.27-1.04.27-1.64s-.09-1.14-.27-1.63c-.18-.5-.45-.9-.82-1.2-.37-.3-.84-.45-1.4-.45s-1.04.15-1.41.45-.65.7-.83,1.2-.27,1.04-.27,1.63.09,1.14.27,1.64.46.89.83,1.19.84.45,1.41.45Z"/>
    <path class="cls-1" d="m123.99,310.6v9.27h-1.77v-9.27h1.77Zm4.52,3.86v1.56h-5.02v-1.56h5.02Zm1.26-3.86v9.27h-1.76v-9.27h1.76Z"/>
    <path class="cls-1" d="m131.62,319.87l2.61-4.68h1.85l-2.61,4.68h-1.85Zm6.08,0v-7.73h-2.22c-.53,0-.94.12-1.23.37-.29.25-.44.57-.44.97s.14.71.41.95.65.36,1.14.36h2.87v1.46h-2.87c-.68,0-1.28-.11-1.77-.34-.5-.23-.88-.55-1.15-.97-.27-.42-.4-.91-.4-1.48s.14-1.09.41-1.51.67-.75,1.19-.99c.52-.23,1.13-.35,1.84-.35h3.92v9.27h-1.7Z"/>
    <path class="cls-1" d="m141.29,312.15v-1.56h7.82v1.56h-3.03v7.71h-1.76v-7.71h-3.04Z"/>
    <path class="cls-1" d="m152.79,310.6v9.27h-1.77v-9.27h1.77Zm4.52,3.86v1.56h-5.02v-1.56h5.02Zm1.26-3.86v9.27h-1.76v-9.27h1.76Z"/>
    <path class="cls-1" d="m164.88,320.06c-.87,0-1.63-.2-2.28-.6-.65-.4-1.15-.96-1.51-1.67-.36-.72-.54-1.55-.54-2.51s.18-1.8.54-2.52c.36-.72.86-1.28,1.51-1.68.65-.4,1.41-.6,2.28-.6s1.63.2,2.28.6c.65.4,1.15.96,1.51,1.68.36.72.54,1.56.54,2.52s-.18,1.79-.54,2.51c-.36.72-.86,1.27-1.51,1.67-.65.4-1.41.6-2.28.6Zm0-1.52c.56,0,1.03-.15,1.4-.45.37-.3.64-.69.82-1.19.18-.5.27-1.04.27-1.64s-.09-1.14-.27-1.63c-.18-.5-.45-.9-.82-1.2-.37-.3-.84-.45-1.4-.45s-1.04.15-1.41.45-.65.7-.83,1.2-.27,1.04-.27,1.63.09,1.14.27,1.64.46.89.83,1.19.84.45,1.41.45Z"/>
    <path class="cls-1" d="m173.56,318.18l-.09.66c-.06.48-.16.99-.31,1.51-.14.53-.29,1.01-.44,1.46-.15.45-.27.81-.37,1.07h-1.28c.05-.25.12-.59.22-1.01.09-.42.18-.9.27-1.42.09-.52.16-1.06.2-1.6l.06-.68h1.74Z"/>
    <path class="cls-1" d="m180.42,319.87v-9.27h3.84c1.05,0,1.88.22,2.49.67.61.44.92,1.05.92,1.81,0,.54-.17.97-.52,1.29-.35.32-.8.53-1.38.64.41.05.79.17,1.14.37.35.2.62.47.84.8.21.33.32.73.32,1.2,0,.49-.13.92-.38,1.3-.25.38-.62.67-1.1.88-.48.21-1.06.32-1.74.32h-4.43Zm1.7-5.41h2.17c.34,0,.63-.05.87-.14s.43-.23.56-.41c.13-.18.2-.39.2-.64,0-.36-.15-.64-.44-.84s-.7-.3-1.21-.3h-2.15v2.34Zm0,3.9h2.73c.45,0,.8-.11,1.05-.32.25-.21.38-.5.38-.87,0-.43-.13-.77-.38-1.02-.25-.25-.6-.37-1.05-.37h-2.73v2.58Z"/>
    <path class="cls-1" d="m194.54,319.87v-9.27h1.8v3.89h.87l3.06-3.89h2.23l-3.59,4.51,3.63,4.76h-2.24l-2.79-3.71h-1.18v3.71h-1.8Z"/>
    <path class="cls-1" d="m206.64,320.07c-.59,0-1.12-.11-1.59-.33-.48-.22-.85-.54-1.13-.96-.28-.42-.41-.93-.41-1.54,0-.52.1-.95.3-1.29.2-.34.47-.61.81-.8s.72-.35,1.15-.45c.42-.1.85-.18,1.29-.23.55-.06,1.01-.12,1.35-.16.35-.04.6-.11.75-.21.16-.1.24-.25.24-.47v-.04c0-.53-.15-.94-.44-1.23s-.74-.43-1.32-.43-1.09.13-1.43.4c-.35.27-.59.56-.72.89l-1.7-.39c.2-.56.5-1.02.88-1.37.39-.35.84-.6,1.34-.76.51-.16,1.04-.24,1.6-.24.37,0,.76.04,1.18.13.42.09.81.24,1.17.47s.66.56.9.98.35.97.35,1.65v6.16h-1.76v-1.27h-.07c-.12.23-.29.46-.52.69-.23.22-.53.41-.9.56-.37.15-.8.22-1.32.22Zm.39-1.45c.5,0,.93-.1,1.28-.3.36-.2.63-.46.82-.78.19-.32.28-.66.28-1.03v-1.2c-.06.06-.19.12-.37.18-.18.05-.39.1-.62.14s-.46.07-.68.1c-.22.03-.41.06-.56.08-.35.04-.67.12-.96.22s-.52.25-.69.45c-.17.2-.26.45-.26.78,0,.45.17.78.5,1.01s.75.34,1.26.34Z"/>
    <path class="cls-1" d="m213.62,319.87v-9.27h1.8v3.89h.87l3.06-3.89h2.23l-3.59,4.51,3.63,4.76h-2.24l-2.79-3.71h-1.18v3.71h-1.8Z"/>
    <path class="cls-1" d="m224.8,317.34l4.09-6.74h1.94v9.27h-1.77v-6.75l-4.07,6.75h-1.96v-9.27h1.77v6.74Z"/>
    <path class="cls-1" d="m234.68,310.6l2.05,3.61,2.06-3.61h1.97l-2.89,4.64,2.92,4.64h-1.97l-2.09-3.46-2.08,3.46h-1.98l2.89-4.64-2.85-4.64h1.98Z"/>
    <path class="cls-1" d="m246.58,317.42h1.85c.02.38.2.67.52.88.32.21.74.31,1.25.31s.96-.11,1.33-.33c.37-.22.55-.57.55-1.04,0-.28-.07-.53-.21-.74s-.33-.38-.59-.49c-.25-.12-.55-.17-.89-.17h-1.51v-1.42h1.51c.51,0,.89-.12,1.15-.35s.38-.53.38-.88c0-.38-.14-.68-.41-.91s-.65-.35-1.13-.35-.9.11-1.23.33c-.33.22-.5.5-.51.85h-1.82c.01-.52.17-.98.47-1.37.3-.39.71-.7,1.23-.92.52-.22,1.11-.33,1.77-.33s1.28.11,1.79.33.89.53,1.17.92c.28.39.41.84.41,1.35s-.15.93-.46,1.25-.7.56-1.19.7v.1c.36.02.68.13.95.33.28.19.5.45.65.77.16.32.24.68.24,1.08,0,.57-.16,1.06-.47,1.47-.31.41-.74.73-1.29.96-.55.22-1.18.33-1.88.33s-1.3-.11-1.84-.32c-.54-.22-.97-.52-1.29-.92-.32-.39-.48-.86-.5-1.4Z"/>
    <path class="cls-1" d="m257.48,310.6v9.27h-1.77v-9.27h1.77Zm4.52,3.86v1.56h-5.02v-1.56h5.02Zm1.26-3.86v9.27h-1.76v-9.27h1.76Z"/>
    <path class="cls-1" d="m268.37,320.07c-.59,0-1.12-.11-1.59-.33-.48-.22-.85-.54-1.13-.96-.28-.42-.41-.93-.41-1.54,0-.52.1-.95.3-1.29.2-.34.47-.61.81-.8s.72-.35,1.15-.45c.42-.1.85-.18,1.29-.23.55-.06,1.01-.12,1.35-.16.35-.04.6-.11.75-.21.16-.1.24-.25.24-.47v-.04c0-.53-.15-.94-.44-1.23s-.74-.43-1.32-.43-1.09.13-1.43.4c-.35.27-.59.56-.72.89l-1.7-.39c.2-.56.5-1.02.88-1.37.39-.35.84-.6,1.34-.76.51-.16,1.04-.24,1.6-.24.37,0,.76.04,1.18.13.42.09.81.24,1.17.47s.66.56.9.98.35.97.35,1.65v6.16h-1.76v-1.27h-.07c-.12.23-.29.46-.52.69-.23.22-.53.41-.9.56-.37.15-.8.22-1.32.22Zm.39-1.45c.5,0,.93-.1,1.28-.3.36-.2.63-.46.82-.78.19-.32.28-.66.28-1.03v-1.2c-.06.06-.19.12-.37.18-.18.05-.39.1-.62.14s-.46.07-.68.1c-.22.03-.41.06-.56.08-.35.04-.67.12-.96.22s-.52.25-.69.45c-.17.2-.26.45-.26.78,0,.45.17.78.5,1.01s.75.34,1.26.34Z"/>
    <path class="cls-1" d="m282.02,314.9v1.56c-.28.11-.57.21-.88.3-.31.09-.64.15-.98.2-.34.05-.7.07-1.07.07-1.15,0-2.06-.28-2.73-.84s-1.01-1.42-1.01-2.58v-3.03h1.76v3.03c0,.44.08.79.24,1.07.16.27.39.47.69.6s.65.19,1.06.19c.54,0,1.05-.05,1.51-.15s.93-.24,1.42-.42Zm.77-4.3v9.27h-1.76v-9.27h1.76Z"/>
    <path class="cls-1" d="m289.19,320.06c-.91,0-1.7-.2-2.36-.59s-1.17-.95-1.52-1.66c-.36-.71-.53-1.55-.53-2.51s.18-1.79.53-2.51c.36-.72.86-1.29,1.5-1.7.64-.41,1.39-.61,2.25-.61.52,0,1.03.09,1.52.26s.93.44,1.32.81c.39.37.7.85.92,1.44.22.59.34,1.3.34,2.15v.64h-7.37v-1.35h5.6c0-.47-.1-.9-.29-1.26s-.46-.66-.81-.87c-.35-.21-.76-.32-1.22-.32-.51,0-.95.12-1.32.37-.38.25-.67.57-.87.97s-.3.83-.3,1.29v1.06c0,.62.11,1.15.33,1.58.22.43.53.77.92.99.39.23.86.34,1.38.34.34,0,.65-.05.94-.15.28-.1.52-.25.73-.44.21-.2.36-.44.47-.73l1.71.31c-.14.5-.38.94-.73,1.32-.35.38-.79.67-1.32.88s-1.13.31-1.81.31Z"/>
    <path class="cls-1" d="m296.95,310.6v9.27h-1.77v-9.27h1.77Zm4.52,3.86v1.56h-5.02v-1.56h5.02Zm1.26-3.86v9.27h-1.76v-9.27h1.76Z"/>
    <path class="cls-1" d="m306.91,317.34l4.09-6.74h1.94v9.27h-1.77v-6.75l-4.07,6.75h-1.96v-9.27h1.77v6.74Z"/>
    <path class="cls-1" d="m314.81,319.87l2.61-4.68h1.85l-2.61,4.68h-1.85Zm6.08,0v-7.73h-2.22c-.53,0-.94.12-1.23.37-.29.25-.44.57-.44.97s.14.71.41.95.65.36,1.14.36h2.87v1.46h-2.87c-.68,0-1.28-.11-1.77-.34-.5-.23-.88-.55-1.15-.97-.27-.42-.4-.91-.4-1.48s.14-1.09.41-1.51.67-.75,1.19-.99c.52-.23,1.13-.35,1.84-.35h3.92v9.27h-1.7Z"/>
    <path class="cls-1" d="m326.42,310.6l2.05,3.61,2.06-3.61h1.97l-2.89,4.64,2.92,4.64h-1.97l-2.09-3.46-2.08,3.46h-1.98l2.89-4.64-2.85-4.64h1.98Z"/>
    <path class="cls-1" d="m340.64,310.6v9.27h-1.77v-9.27h1.77Zm4.52,3.86v1.56h-5.02v-1.56h5.02Zm1.26-3.86v9.27h-1.76v-9.27h1.76Z"/>
    <path class="cls-1" d="m352.82,320.06c-.91,0-1.7-.2-2.36-.59s-1.17-.95-1.52-1.66c-.36-.71-.53-1.55-.53-2.51s.18-1.79.53-2.51c.36-.72.86-1.29,1.5-1.7.64-.41,1.39-.61,2.25-.61.52,0,1.03.09,1.52.26s.93.44,1.32.81c.39.37.7.85.92,1.44.22.59.34,1.3.34,2.15v.64h-7.37v-1.35h5.6c0-.47-.1-.9-.29-1.26s-.46-.66-.81-.87c-.35-.21-.76-.32-1.22-.32-.51,0-.95.12-1.32.37-.38.25-.67.57-.87.97s-.3.83-.3,1.29v1.06c0,.62.11,1.15.33,1.58.22.43.53.77.92.99.39.23.86.34,1.38.34.34,0,.65-.05.94-.15.28-.1.52-.25.73-.44.21-.2.36-.44.47-.73l1.71.31c-.14.5-.38.94-.73,1.32-.35.38-.79.67-1.32.88s-1.13.31-1.81.31Z"/>
    <path class="cls-1" d="m358.81,323.35v-12.75h1.76v1.5h.15c.1-.19.26-.42.45-.67.2-.25.47-.48.82-.67.35-.19.81-.29,1.39-.29.75,0,1.42.19,2,.57.59.38,1.05.92,1.38,1.64.34.71.5,1.57.5,2.57s-.17,1.86-.5,2.57c-.33.71-.79,1.26-1.38,1.65-.58.38-1.25.58-2,.58-.56,0-1.02-.09-1.38-.28-.36-.19-.63-.41-.84-.66s-.36-.48-.46-.68h-.11v4.92h-1.8Zm1.77-8.11c0,.65.09,1.22.28,1.71.19.49.46.87.82,1.15.36.28.8.41,1.32.41s.99-.14,1.35-.43c.36-.29.64-.68.82-1.17.19-.5.28-1.05.28-1.67s-.09-1.16-.28-1.65c-.18-.49-.46-.87-.82-1.15-.36-.28-.82-.42-1.36-.42s-.96.13-1.33.4c-.36.27-.63.65-.82,1.13-.18.48-.28,1.05-.28,1.69Z"/>
    <path class="cls-1" d="m372,320.07c-.59,0-1.12-.11-1.59-.33-.48-.22-.85-.54-1.13-.96-.28-.42-.41-.93-.41-1.54,0-.52.1-.95.3-1.29.2-.34.47-.61.81-.8s.72-.35,1.15-.45c.42-.1.85-.18,1.29-.23.55-.06,1.01-.12,1.35-.16.35-.04.6-.11.75-.21.16-.1.24-.25.24-.47v-.04c0-.53-.15-.94-.44-1.23s-.74-.43-1.32-.43-1.09.13-1.43.4c-.35.27-.59.56-.72.89l-1.7-.39c.2-.56.5-1.02.88-1.37.39-.35.84-.6,1.34-.76.51-.16,1.04-.24,1.6-.24.37,0,.76.04,1.18.13.42.09.81.24,1.17.47s.66.56.9.98.35.97.35,1.65v6.16h-1.76v-1.27h-.07c-.12.23-.29.46-.52.69-.23.22-.53.41-.9.56-.37.15-.8.22-1.32.22Zm.39-1.45c.5,0,.93-.1,1.28-.3.36-.2.63-.46.82-.78.19-.32.28-.66.28-1.03v-1.2c-.06.06-.19.12-.37.18-.18.05-.39.1-.62.14s-.46.07-.68.1c-.22.03-.41.06-.56.08-.35.04-.67.12-.96.22s-.52.25-.69.45c-.17.2-.26.45-.26.78,0,.45.17.78.5,1.01s.75.34,1.26.34Z"/>
    <path class="cls-1" d="m378.98,319.87v-9.27h3.84c1.05,0,1.88.22,2.49.67.61.44.92,1.05.92,1.81,0,.54-.17.97-.52,1.29-.35.32-.8.53-1.38.64.41.05.79.17,1.14.37.35.2.62.47.84.8.21.33.32.73.32,1.2,0,.49-.13.92-.38,1.3-.25.38-.62.67-1.1.88-.48.21-1.06.32-1.74.32h-4.43Zm1.7-5.41h2.17c.34,0,.63-.05.87-.14s.43-.23.56-.41c.13-.18.2-.39.2-.64,0-.36-.15-.64-.44-.84s-.7-.3-1.21-.3h-2.15v2.34Zm0,3.9h2.73c.45,0,.8-.11,1.05-.32.25-.21.38-.5.38-.87,0-.43-.13-.77-.38-1.02-.25-.25-.6-.37-1.05-.37h-2.73v2.58Z"/>
    <path class="cls-1" d="m392.6,320.06c-.91,0-1.7-.2-2.36-.59s-1.17-.95-1.52-1.66c-.36-.71-.53-1.55-.53-2.51s.18-1.79.53-2.51c.36-.72.86-1.29,1.5-1.7.64-.41,1.39-.61,2.25-.61.52,0,1.03.09,1.52.26s.93.44,1.32.81c.39.37.7.85.92,1.44.22.59.34,1.3.34,2.15v.64h-7.37v-1.35h5.6c0-.47-.1-.9-.29-1.26s-.46-.66-.81-.87c-.35-.21-.76-.32-1.22-.32-.51,0-.95.12-1.32.37-.38.25-.67.57-.87.97s-.3.83-.3,1.29v1.06c0,.62.11,1.15.33,1.58.22.43.53.77.92.99.39.23.86.34,1.38.34.34,0,.65-.05.94-.15.28-.1.52-.25.73-.44.21-.2.36-.44.47-.73l1.71.31c-.14.5-.38.94-.73,1.32-.35.38-.79.67-1.32.88s-1.13.31-1.81.31Z"/>
    <path class="cls-1" d="m400.36,310.6v9.27h-1.77v-9.27h1.77Zm4.52,3.86v1.56h-5.02v-1.56h5.02Zm1.26-3.86v9.27h-1.76v-9.27h1.76Z"/>
    <path class="cls-1" d="m412.45,320.06c-.9,0-1.67-.2-2.32-.61-.65-.41-1.14-.97-1.49-1.69-.35-.72-.52-1.54-.52-2.47s.18-1.77.53-2.5c.35-.72.85-1.29,1.5-1.69.64-.41,1.4-.61,2.28-.61.7,0,1.33.13,1.88.39.55.26,1,.62,1.34,1.09.34.47.54,1.01.61,1.64h-1.76c-.1-.43-.32-.81-.66-1.12-.34-.31-.8-.47-1.38-.47-.5,0-.94.13-1.32.4-.38.26-.67.64-.88,1.12-.21.48-.31,1.06-.31,1.72s.1,1.26.31,1.75.5.87.87,1.14c.38.27.82.41,1.33.41.34,0,.65-.06.93-.19.28-.13.51-.31.71-.55.19-.24.33-.52.4-.86h1.76c-.06.6-.26,1.13-.59,1.61s-.76.84-1.31,1.11c-.55.27-1.18.41-1.92.41Z"/>
    <path class="cls-1" d="m417.68,312.15v-1.56h7.82v1.56h-3.03v7.71h-1.76v-7.71h-3.04Z"/>
    <path class="cls-1" d="m427.41,319.87v-9.27h3.84c1.05,0,1.88.22,2.49.67.61.44.92,1.05.92,1.81,0,.54-.17.97-.52,1.29-.35.32-.8.53-1.38.64.41.05.79.17,1.14.37.35.2.62.47.84.8.21.33.32.73.32,1.2,0,.49-.13.92-.38,1.3-.25.38-.62.67-1.1.88-.48.21-1.06.32-1.74.32h-4.43Zm1.7-5.41h2.17c.34,0,.63-.05.87-.14s.43-.23.56-.41c.13-.18.2-.39.2-.64,0-.36-.15-.64-.44-.84s-.7-.3-1.21-.3h-2.15v2.34Zm0,3.9h2.73c.45,0,.8-.11,1.05-.32.25-.21.38-.5.38-.87,0-.43-.13-.77-.38-1.02-.25-.25-.6-.37-1.05-.37h-2.73v2.58Z"/>
    <path class="cls-1" d="m440.94,320.06c-.87,0-1.63-.2-2.28-.6-.65-.4-1.15-.96-1.51-1.67-.36-.72-.54-1.55-.54-2.51s.18-1.8.54-2.52c.36-.72.86-1.28,1.51-1.68.65-.4,1.41-.6,2.28-.6s1.63.2,2.28.6c.65.4,1.15.96,1.51,1.68.36.72.54,1.56.54,2.52s-.18,1.79-.54,2.51c-.36.72-.86,1.27-1.51,1.67-.65.4-1.41.6-2.28.6Zm0-1.52c.56,0,1.03-.15,1.4-.45.37-.3.64-.69.82-1.19.18-.5.27-1.04.27-1.64s-.09-1.14-.27-1.63c-.18-.5-.45-.9-.82-1.2-.37-.3-.84-.45-1.4-.45s-1.04.15-1.41.45-.65.7-.83,1.2-.27,1.04-.27,1.63.09,1.14.27,1.64.46.89.83,1.19.84.45,1.41.45Z"/>
    <path class="cls-1" d="m8.4,327.54l.75,1.14c-.28.25-.59.43-.94.54-.35.11-.76.17-1.22.2-.46.03-.98.05-1.58.07-.67.02-1.22.16-1.65.43-.43.27-.76.66-.99,1.18s-.38,1.17-.45,1.96h.11c.3-.58.72-1.01,1.26-1.29.54-.29,1.14-.43,1.81-.43.75,0,1.41.17,2,.51.58.34,1.04.84,1.38,1.5s.5,1.46.5,2.41-.18,1.79-.53,2.49c-.35.7-.85,1.24-1.49,1.62-.64.38-1.39.57-2.25.57s-1.62-.2-2.26-.59c-.64-.39-1.14-.97-1.49-1.75-.35-.77-.53-1.73-.53-2.86v-.92c0-2.12.38-3.72,1.13-4.79.76-1.07,1.89-1.62,3.39-1.65.49-.01.92-.02,1.3,0,.38,0,.72-.01,1.01-.05.29-.04.53-.14.72-.3Zm-3.27,11.4c.5,0,.94-.13,1.3-.38.36-.25.65-.62.84-1.09.2-.47.3-1.03.3-1.67s-.1-1.16-.3-1.6c-.2-.44-.48-.77-.85-1s-.81-.35-1.32-.35c-.38,0-.72.07-1.01.2-.3.13-.55.32-.76.58-.21.25-.37.56-.49.93s-.18.78-.18,1.25c0,.96.22,1.72.66,2.29s1.04.85,1.81.85Z"/>
    <path class="cls-1" d="m15.31,340.46c-.87,0-1.63-.2-2.28-.6s-1.15-.96-1.51-1.67-.54-1.55-.54-2.51.18-1.8.54-2.52c.36-.72.86-1.28,1.51-1.68s1.41-.6,2.28-.6,1.63.2,2.28.6,1.15.96,1.51,1.68c.36.72.54,1.56.54,2.52s-.18,1.79-.54,2.51c-.36.72-.86,1.27-1.51,1.67s-1.41.6-2.28.6Zm0-1.52c.56,0,1.03-.15,1.4-.45s.65-.69.82-1.19c.18-.5.27-1.04.27-1.64s-.09-1.14-.27-1.63c-.18-.5-.45-.9-.82-1.2s-.84-.45-1.4-.45-1.04.15-1.41.45c-.37.3-.65.7-.83,1.2s-.27,1.04-.27,1.63.09,1.14.27,1.64.45.89.83,1.19c.37.3.84.45,1.41.45Z"/>
    <path class="cls-1" d="m20.91,340.27v-1.56s.33,0,.33,0c.26,0,.47-.06.65-.17.17-.11.32-.3.43-.56.11-.27.2-.63.26-1.1.06-.47.1-1.06.13-1.77l.16-4.1h6.47v9.27h-1.77v-7.71h-3.03l-.15,3.15c-.04.76-.11,1.43-.23,2s-.29,1.05-.52,1.43c-.23.38-.52.66-.87.85-.35.19-.78.28-1.29.28h-.58Z"/>
    <path class="cls-1" d="m33.11,334.18h2.69c1.13,0,2.01.28,2.62.84s.92,1.29.92,2.18c0,.58-.14,1.1-.41,1.56-.27.46-.67.83-1.2,1.1s-1.17.4-1.93.4h-4.05v-9.27h1.77v7.71h2.28c.52,0,.95-.14,1.28-.41s.5-.62.5-1.04c0-.45-.17-.81-.5-1.1-.33-.28-.76-.42-1.28-.42h-2.69v-1.56Z"/>
    <path class="cls-1" d="m41.36,331h1.77v7.71h3.21v-7.71h1.77v7.71h3.21v-7.71h1.77v9.27h-11.72v-9.27Z"/>
    <path class="cls-1" d="m59.48,340.46c-.91,0-1.7-.2-2.36-.59-.66-.39-1.17-.95-1.52-1.66-.36-.71-.53-1.55-.53-2.51s.18-1.79.53-2.51c.36-.72.86-1.29,1.5-1.7.64-.41,1.39-.61,2.25-.61.52,0,1.03.09,1.52.26.49.17.93.44,1.32.81.39.37.7.85.92,1.44s.34,1.3.34,2.15v.64h-7.37v-1.35h5.6c0-.47-.1-.9-.29-1.26-.19-.37-.46-.66-.81-.87-.35-.21-.76-.32-1.22-.32-.51,0-.95.12-1.33.37-.38.25-.67.57-.87.97-.2.4-.31.83-.31,1.29v1.06c0,.62.11,1.15.33,1.58.22.43.53.77.92.99.39.23.85.34,1.38.34.34,0,.65-.05.94-.15s.53-.25.73-.44c.21-.2.36-.44.47-.73l1.71.31c-.14.5-.38.94-.73,1.32-.35.38-.79.67-1.32.88-.53.21-1.13.31-1.81.31Z"/>
    <path class="cls-1" d="m71.74,331v9.27h-1.77v-9.27h1.77Zm4.52,3.86v1.56h-5.02v-1.56h5.02Zm1.26-3.86v9.27h-1.76v-9.27h1.76Z"/>
    <path class="cls-1" d="m81.07,343.75c-.27,0-.52-.02-.74-.06-.22-.04-.39-.09-.5-.14l.43-1.48c.33.09.62.13.88.12.26-.01.49-.11.69-.29.2-.18.38-.48.53-.89l.22-.62-3.39-9.39h1.93l2.35,7.2h.1l2.35-7.2h1.94l-3.82,10.51c-.18.48-.4.89-.68,1.23s-.6.59-.98.76c-.38.17-.82.25-1.32.25Z"/>
    <path class="cls-1" d="m88.82,340.27v-1.56s.33,0,.33,0c.26,0,.47-.06.65-.17s.32-.3.43-.56c.11-.27.2-.63.26-1.1s.1-1.06.13-1.77l.16-4.1h6.47v9.27h-1.77v-7.71h-3.03l-.14,3.15c-.04.76-.11,1.43-.23,2-.12.57-.29,1.05-.52,1.43-.23.38-.51.66-.87.85-.35.19-.79.28-1.29.28h-.58Z"/>
    <path class="cls-1" d="m99.1,340.27l2.61-4.68h1.85l-2.61,4.68h-1.85Zm6.08,0v-7.73h-2.22c-.53,0-.94.12-1.23.37-.29.25-.44.57-.44.97s.14.71.41.95.65.36,1.14.36h2.87v1.46h-2.87c-.68,0-1.28-.11-1.77-.34-.5-.23-.88-.55-1.15-.97-.27-.42-.4-.91-.4-1.48s.14-1.09.41-1.51.67-.75,1.19-.99c.52-.23,1.13-.35,1.84-.35h3.92v9.27h-1.7Z"/>
  </g>
  <path class="cls-1" d="m49.57,90.24v8.73h-1.32v-7.41h-.05l-2.09,1.36v-1.26l2.18-1.42h1.28Z"/>
  <path class="cls-1" d="m46.25,119.97v-.95l2.95-3.06c.32-.33.58-.62.78-.88.21-.25.36-.49.46-.72.1-.23.15-.47.15-.72,0-.29-.07-.54-.2-.75s-.32-.38-.56-.49c-.24-.11-.5-.17-.8-.17-.31,0-.59.06-.82.19-.23.13-.41.31-.54.54s-.19.51-.19.82h-1.26c0-.53.12-1,.37-1.39.24-.4.58-.71,1.01-.93s.91-.33,1.45-.33,1.03.11,1.45.33c.42.22.75.51.98.89s.35.79.35,1.26c0,.32-.06.64-.18.95-.12.31-.33.65-.63,1.03-.3.38-.71.84-1.24,1.38l-1.73,1.81v.06h3.93v1.13h-5.74Z"/>
  <path class="cls-1" d="m49.29,140.09c-.59,0-1.11-.1-1.57-.3-.46-.2-.82-.48-1.09-.84s-.41-.78-.43-1.25h1.34c.02.26.1.48.26.67s.36.33.62.44c.26.1.54.15.85.15.34,0,.65-.06.91-.18.27-.12.47-.29.62-.5.15-.21.23-.46.23-.74s-.07-.55-.22-.77c-.15-.22-.37-.4-.65-.53s-.63-.19-1.03-.19h-.74v-1.07h.74c.32,0,.61-.06.85-.17.25-.12.44-.28.58-.49s.21-.45.21-.73-.06-.51-.18-.71c-.12-.2-.29-.36-.51-.47s-.48-.17-.78-.17-.55.05-.79.16c-.25.1-.45.25-.6.44s-.24.42-.25.69h-1.27c.01-.47.15-.89.42-1.24s.62-.64,1.05-.84.92-.3,1.46-.3,1.04.11,1.45.33.72.51.95.87c.22.36.33.76.33,1.18,0,.49-.13.9-.41,1.24-.27.34-.64.57-1.09.69v.07c.58.09,1.03.32,1.35.69.32.37.48.83.48,1.38,0,.48-.13.91-.4,1.29-.27.38-.63.68-1.1.9s-.99.33-1.59.33Z"/>
  <line class="cls-2" x1="38" y1="253.69" x2="84.41" y2="253.69"/>
  <line class="cls-2" x1="92.54" y1="253.81" x2="154.04" y2="253.81"/>
  <path class="cls-2" d="m89.06,249.05c0-23.09-31.61-30.05-51.06-30.05"/>
  <path class="cls-2" d="m228.3,249.05c0-23.09-21.55-30.05-34.81-30.05"/>
  <path class="cls-2" d="m228.3,249.05c0-23.09,31.61-30.05,51.06-30.05"/>
  <path class="cls-2" d="m158.68,249.05c0-23.09,21.55-30.05,34.81-30.05"/>
  <path class="cls-2" d="m158.68,249.05c0-23.09-21.55-30.05-34.81-30.05"/>
  <path class="cls-2" d="m89.06,249.05c0-23.09,21.55-30.05,34.81-30.05"/>
  <line class="cls-2" x1="163.32" y1="253.81" x2="223.66" y2="253.81"/>
  <line class="cls-2" x1="232.94" y1="253.81" x2="281.68" y2="253.81"/>
  <polygon class="cls-1" points="290.38 253.69 279.94 247.67 279.94 259.72 290.38 253.69"/>
  <path class="cls-1" d="m297.19,264.24l2.37,4.19,2.4-4.19h2.29l-3.36,5.38,3.38,5.38h-2.29l-2.42-4.02-2.42,4.02h-2.3l3.35-5.38-3.31-5.38h2.3Z"/>
  <path class="cls-1" d="m89.39,260.95v14.35h-2.17v-12.17h-.08l-3.43,2.24v-2.07l3.58-2.34h2.11Z"/>
  <path class="cls-1" d="m154.7,276.81v-1.57l4.85-5.03c.52-.55.95-1.03,1.29-1.44.34-.41.59-.81.76-1.18.17-.37.25-.77.25-1.19,0-.48-.11-.89-.34-1.24-.22-.35-.53-.62-.92-.81-.39-.19-.82-.28-1.31-.28-.51,0-.96.11-1.34.32-.38.21-.68.51-.88.89s-.31.83-.31,1.34h-2.07c0-.87.2-1.64.6-2.29.4-.65.95-1.16,1.65-1.52.7-.36,1.5-.54,2.39-.54s1.7.18,2.39.54,1.23.84,1.61,1.46.58,1.31.58,2.08c0,.53-.1,1.05-.3,1.56-.2.51-.54,1.08-1.03,1.7-.49.62-1.17,1.38-2.05,2.27l-2.85,2.98v.1h6.46v1.86h-9.44Z"/>
  <path class="cls-1" d="m229.49,278.07c-.96,0-1.82-.17-2.57-.5-.75-.33-1.35-.79-1.79-1.38-.44-.59-.67-1.28-.7-2.06h2.2c.03.42.17.79.43,1.1s.6.55,1.02.72c.42.17.89.25,1.4.25.57,0,1.07-.1,1.5-.29.44-.2.78-.47,1.03-.82.25-.35.37-.76.37-1.22s-.12-.91-.37-1.27-.6-.66-1.07-.87c-.47-.21-1.04-.32-1.7-.32h-1.21v-1.76h1.21c.53,0,1-.1,1.4-.29s.72-.46.95-.8c.23-.34.34-.75.34-1.21s-.1-.83-.3-1.16c-.2-.33-.48-.59-.84-.77-.36-.19-.79-.28-1.28-.28s-.9.08-1.31.26-.73.41-.98.73c-.25.32-.39.69-.41,1.13h-2.09c.02-.77.25-1.46.69-2.04.44-.59,1.01-1.05,1.73-1.38.72-.33,1.52-.5,2.4-.5s1.71.18,2.39.54c.67.36,1.19.83,1.56,1.43.37.59.55,1.24.54,1.95,0,.8-.22,1.49-.67,2.05-.45.56-1.05.94-1.8,1.13v.11c.95.15,1.69.52,2.22,1.13.53.61.79,1.37.78,2.28,0,.79-.21,1.5-.65,2.12-.44.63-1.04,1.12-1.8,1.47s-1.63.54-2.61.54Z"/>
  <circle class="cls-3" cx="89.06" cy="253.81" r="4.64"/>
  <circle class="cls-3" cx="158.68" cy="253.69" r="4.64"/>
  <circle class="cls-3" cx="228.3" cy="253.69" r="4.64"/>
  <path class="cls-1" d="m255.83,240.41v-1.88h9.47v1.88h-9.47Zm3.79,3.8v-9.47h1.88v9.47h-1.88Z"/>
  <path class="cls-1" d="m118.91,240.41v-1.88h9.47v1.88h-9.47Zm3.79,3.8v-9.47h1.88v9.47h-1.88Z"/>
  <path class="cls-1" d="m57.15,238.15v1.81h-6.36v-1.81h6.36Z"/>
  <path class="cls-1" d="m197.56,238.15v1.81h-6.36v-1.81h6.36Z"/>
</svg>