<?xml version="1.0" encoding="utf-8"?>
<!-- Generator: Adobe Illustrator 27.6.1, SVG Export Plug-In . SVG Version: 6.00 Build 0)  -->
<svg version="1.1" id="Layer_1" xmlns="http://www.w3.org/2000/svg" xmlns:xlink="http://www.w3.org/1999/xlink" x="0px" y="0px"
	 viewBox="0 0 138 22.5" style="enable-background:new 0 0 138 22.5;" xml:space="preserve">
<style type="text/css">
	.st0{fill-rule:evenodd;clip-rule:evenodd;fill:#FFFFFF;}
	.st1{fill:#FFFFFF;}
	.st2{fill:none;stroke:#D1AE59;stroke-miterlimit:10;}
	.st3{fill:none;stroke:#FFFFFF;stroke-width:2;stroke-miterlimit:10;}
	.st4{fill:#D1AE59;}
</style>
<polygon class="st0" points="130,8.7 124,5.2 124,12.1 "/>
<path class="st1" d="M57.7,22.2v-1l3-3.1c0.3-0.3,0.6-0.6,0.8-0.9c0.2-0.2,0.4-0.5,0.5-0.7s0.2-0.5,0.2-0.7c0-0.3-0.1-0.5-0.2-0.8
	s-0.3-0.4-0.6-0.5s-0.5-0.2-0.8-0.2c-0.3,0-0.6,0.1-0.8,0.2c-0.2,0.1-0.4,0.3-0.5,0.5s-0.2,0.5-0.2,0.8h-1.3c0-0.5,0.1-1,0.4-1.4
	c0.2-0.4,0.6-0.7,1-0.9s0.9-0.3,1.5-0.3s1,0.1,1.5,0.3c0.4,0.2,0.8,0.5,1,0.9s0.3,0.8,0.3,1.3c0,0.3-0.1,0.6-0.2,1
	c-0.1,0.3-0.3,0.6-0.6,1c-0.3,0.4-0.7,0.8-1.2,1.4L59.5,21v0.1h3.9v1.1H57.7L57.7,22.2z"/>
<path class="st1" d="M133.4,12.9l1.4,2.6l1.5-2.6h1.4l-2,3.3l2.1,3.3h-1.4l-1.5-2.5l-1.5,2.5h-1.4l2-3.3l-2-3.3H133.4L133.4,12.9z"
	/>
<line class="st2" x1="60.1" y1="8.2" x2="55.9" y2="0.8"/>
<line class="st2" x1="50.1" y1="8.2" x2="45.9" y2="0.8"/>
<line class="st2" x1="40.1" y1="8.2" x2="35.9" y2="0.8"/>
<line class="st2" x1="30.1" y1="8.2" x2="25.9" y2="0.8"/>
<line class="st2" x1="20.1" y1="8.2" x2="15.9" y2="0.8"/>
<line class="st2" x1="10.1" y1="8.2" x2="5.9" y2="0.8"/>
<line class="st2" x1="5.1" y1="8.2" x2="0.9" y2="0.8"/>
<line class="st2" x1="15.1" y1="8.2" x2="10.9" y2="0.8"/>
<line class="st2" x1="25.1" y1="8.2" x2="20.9" y2="0.8"/>
<line class="st2" x1="35.1" y1="8.2" x2="30.9" y2="0.8"/>
<line class="st2" x1="45.1" y1="8.2" x2="40.9" y2="0.8"/>
<line class="st2" x1="55.1" y1="8.2" x2="50.9" y2="0.8"/>
<line class="st3" x1="1.2" y1="8.7" x2="124.8" y2="8.7"/>
<circle class="st4" cx="60.5" cy="8.7" r="2.5"/>
</svg>
