<?xml version="1.0" encoding="UTF-8"?>
<svg id="Layer_1" data-name="Layer 1" xmlns="http://www.w3.org/2000/svg" viewBox="0 0 418 232">
  <defs>
    <style>
      .cls-1 {
        fill: #fff;
      }

      .cls-2 {
        stroke: #fff;
      }

      .cls-2, .cls-3 {
        fill: none;
        stroke-miterlimit: 10;
        stroke-width: 2px;
      }

      .cls-3 {
        stroke: #d1ae59;
      }
    </style>
  </defs>
  <g>
    <path class="cls-1" d="m44.76,5.56l2.05,3.61,2.06-3.61h1.97l-2.89,4.64,2.92,4.64h-1.97l-2.09-3.47-2.08,3.47h-1.98l2.89-4.64-2.85-4.64h1.98Z"/>
    <path class="cls-1" d="m67.17,7.87v1.57h-5.48v-1.57h5.48Z"/>
    <path class="cls-1" d="m78.37,15c-.83,0-1.57-.14-2.22-.43-.65-.29-1.16-.68-1.54-1.19-.38-.51-.58-1.1-.61-1.77h1.9c.02.37.15.68.37.95.22.27.52.47.88.62.36.15.76.22,1.21.22.49,0,.92-.08,1.29-.25s.67-.41.88-.71c.21-.3.32-.65.32-1.05s-.11-.78-.32-1.1c-.21-.32-.52-.56-.92-.75s-.89-.27-1.46-.27h-1.04v-1.52h1.04c.46,0,.86-.08,1.21-.25s.62-.4.82-.69c.2-.3.3-.64.3-1.04s-.09-.72-.26-1c-.17-.28-.41-.51-.72-.67-.31-.16-.68-.24-1.1-.24s-.78.07-1.13.22c-.35.15-.63.36-.85.63-.22.27-.33.6-.35.98h-1.8c.02-.67.22-1.26.59-1.76.38-.51.87-.9,1.49-1.19.62-.29,1.31-.43,2.06-.43s1.48.15,2.06.46c.58.31,1.02.72,1.34,1.23s.47,1.07.47,1.68c0,.69-.19,1.28-.58,1.76-.39.48-.9.81-1.55.97v.1c.82.12,1.46.45,1.91.98.45.53.68,1.18.67,1.96,0,.68-.18,1.29-.56,1.83-.38.54-.9.96-1.55,1.27-.66.31-1.41.46-2.25.46Z"/>
    <path class="cls-1" d="m86.46,5.56l2.05,3.61,2.06-3.61h1.97l-2.89,4.64,2.92,4.64h-1.97l-2.09-3.47-2.08,3.47h-1.98l2.89-4.64-2.85-4.64h1.98Z"/>
    <path class="cls-1" d="m99.28,9.49v-1.62h8.16v1.62h-8.16Zm3.27,3.27V4.6h1.62v8.16h-1.62Z"/>
    <path class="cls-1" d="m114.71,14.83v-1.35l4.18-4.33c.45-.47.82-.88,1.11-1.24.29-.36.51-.7.66-1.02.15-.32.22-.66.22-1.03,0-.41-.1-.77-.29-1.07-.19-.3-.46-.53-.79-.69-.33-.16-.71-.24-1.13-.24-.44,0-.83.09-1.16.27s-.58.44-.76.77c-.18.33-.27.72-.27,1.16h-1.78c0-.75.17-1.41.52-1.97s.82-1,1.42-1.31c.6-.31,1.29-.47,2.06-.47s1.46.15,2.06.46c.59.31,1.06.73,1.39,1.26.33.53.5,1.13.5,1.79,0,.46-.09.91-.26,1.35-.17.44-.47.93-.89,1.46-.42.54-1.01,1.19-1.76,1.95l-2.46,2.57v.09h5.57v1.6h-8.14Z"/>
    <path class="cls-1" d="m138.12,9.49l-8.02,3.89v-1.85l5.92-2.69-.06.1v-.26l.06.11-5.92-2.7v-1.84l8.02,3.89v1.35Z"/>
    <path class="cls-1" d="m149.76,15.04c-.95,0-1.77-.26-2.44-.75-.68-.5-1.19-1.23-1.55-2.18-.36-.95-.54-2.1-.54-3.45s.18-2.49.54-3.44.88-1.67,1.56-2.17,1.49-.75,2.44-.75,1.76.25,2.43.75c.68.5,1.19,1.23,1.55,2.17.36.95.54,2.09.54,3.43s-.18,2.5-.54,3.45c-.36.95-.88,1.68-1.55,2.18s-1.49.75-2.44.75Zm0-1.61c.84,0,1.49-.41,1.97-1.23.47-.82.71-2,.71-3.54,0-1.03-.11-1.89-.32-2.6-.21-.71-.52-1.25-.92-1.62-.4-.37-.88-.55-1.43-.55-.83,0-1.49.41-1.96,1.23-.47.82-.71,2-.72,3.54,0,1.03.11,1.9.32,2.61.22.71.52,1.25.92,1.61s.88.55,1.44.55Z"/>
    <path class="cls-1" d="m158.81,13.14l-.09.66c-.06.48-.16.99-.31,1.51-.14.53-.29,1.01-.44,1.46-.15.45-.27.81-.37,1.07h-1.28c.05-.25.12-.59.22-1.01.09-.42.18-.9.27-1.42.09-.52.16-1.06.2-1.6l.06-.68h1.74Zm-.94-4.94c-.33,0-.61-.12-.85-.36s-.36-.52-.36-.85.12-.61.36-.85c.24-.24.52-.35.85-.35s.61.12.85.35c.24.24.36.52.36.85,0,.22-.05.42-.17.61-.11.18-.26.33-.44.44-.18.11-.38.16-.6.16Z"/>
    <path class="cls-1" d="m44.76,46.36l2.05,3.61,2.06-3.61h1.97l-2.89,4.64,2.92,4.64h-1.97l-2.09-3.47-2.08,3.47h-1.98l2.89-4.64-2.85-4.64h1.98Z"/>
    <path class="cls-1" d="m67.17,48.67v1.57h-5.48v-1.57h5.48Z"/>
    <path class="cls-1" d="m78.37,55.8c-.83,0-1.57-.14-2.22-.43-.65-.29-1.16-.68-1.54-1.19-.38-.51-.58-1.1-.61-1.77h1.9c.02.37.15.68.37.95.22.27.52.47.88.62.36.15.76.22,1.21.22.49,0,.92-.08,1.29-.25s.67-.41.88-.71c.21-.3.32-.65.32-1.05s-.11-.78-.32-1.1c-.21-.32-.52-.56-.92-.75s-.89-.27-1.46-.27h-1.04v-1.52h1.04c.46,0,.86-.08,1.21-.25s.62-.4.82-.69c.2-.3.3-.64.3-1.04s-.09-.72-.26-1c-.17-.28-.41-.51-.72-.67-.31-.16-.68-.24-1.1-.24s-.78.07-1.13.22c-.35.15-.63.36-.85.63-.22.27-.33.6-.35.98h-1.8c.02-.67.22-1.26.59-1.76.38-.51.87-.9,1.49-1.19.62-.29,1.31-.43,2.06-.43s1.48.15,2.06.46c.58.31,1.02.72,1.34,1.23s.47,1.07.47,1.68c0,.69-.19,1.28-.58,1.76-.39.48-.9.81-1.55.97v.1c.82.12,1.46.45,1.91.98.45.53.68,1.18.67,1.96,0,.68-.18,1.29-.56,1.83-.38.54-.9.96-1.55,1.27-.66.31-1.41.46-2.25.46Z"/>
    <path class="cls-1" d="m86.46,46.36l2.05,3.61,2.06-3.61h1.97l-2.89,4.64,2.92,4.64h-1.97l-2.09-3.47-2.08,3.47h-1.98l2.89-4.64-2.85-4.64h1.98Z"/>
    <path class="cls-1" d="m99.28,50.29v-1.62h8.16v1.62h-8.16Zm3.27,3.27v-8.16h1.62v8.16h-1.62Z"/>
    <path class="cls-1" d="m114.71,55.63v-1.35l4.18-4.33c.45-.47.82-.88,1.11-1.24.29-.36.51-.7.66-1.02.15-.32.22-.66.22-1.03,0-.41-.1-.77-.29-1.07-.19-.3-.46-.53-.79-.69-.33-.16-.71-.24-1.13-.24-.44,0-.83.09-1.16.27s-.58.44-.76.77c-.18.33-.27.72-.27,1.16h-1.78c0-.75.17-1.41.52-1.97s.82-1,1.42-1.31c.6-.31,1.29-.47,2.06-.47s1.46.15,2.06.46c.59.31,1.06.73,1.39,1.26.33.53.5,1.13.5,1.79,0,.46-.09.91-.26,1.35-.17.44-.47.93-.89,1.46-.42.54-1.01,1.19-1.76,1.95l-2.46,2.57v.09h5.57v1.6h-8.14Z"/>
    <path class="cls-1" d="m130.24,48.38v-1.58h7.73v1.58h-7.73Zm0,3.72v-1.58h7.73v1.58h-7.73Z"/>
    <path class="cls-1" d="m149.76,55.84c-.95,0-1.77-.26-2.44-.75-.68-.5-1.19-1.23-1.55-2.18-.36-.95-.54-2.1-.54-3.45s.18-2.49.54-3.44.88-1.67,1.56-2.17,1.49-.75,2.44-.75,1.76.25,2.43.75c.68.5,1.19,1.23,1.55,2.17.36.95.54,2.09.54,3.43s-.18,2.5-.54,3.45c-.36.95-.88,1.68-1.55,2.18s-1.49.75-2.44.75Zm0-1.61c.84,0,1.49-.41,1.97-1.23.47-.82.71-2,.71-3.54,0-1.03-.11-1.89-.32-2.6-.21-.71-.52-1.25-.92-1.62-.4-.37-.88-.55-1.43-.55-.83,0-1.49.41-1.96,1.23-.47.82-.71,2-.72,3.54,0,1.03.11,1.9.32,2.61.22.71.52,1.25.92,1.61s.88.55,1.44.55Z"/>
    <path class="cls-1" d="m44.76,66.76l2.05,3.61,2.06-3.61h1.97l-2.89,4.64,2.92,4.64h-1.97l-2.09-3.47-2.08,3.47h-1.98l2.89-4.64-2.85-4.64h1.98Z"/>
    <path class="cls-1" d="m62.29,68.78v-1.58h7.73v1.58h-7.73Zm0,3.72v-1.58h7.73v1.58h-7.73Z"/>
    <path class="cls-1" d="m82.2,63.67v12.36h-1.87v-10.49h-.07l-2.96,1.93v-1.79l3.08-2.02h1.82Z"/>
    <path class="cls-1" d="m44.76,87.16l2.05,3.61,2.06-3.61h1.97l-2.89,4.64,2.92,4.64h-1.97l-2.09-3.47-2.08,3.47h-1.98l2.89-4.64-2.85-4.64h1.98Z"/>
    <path class="cls-1" d="m62.29,89.18v-1.58h7.73v1.58h-7.73Zm0,3.72v-1.58h7.73v1.58h-7.73Z"/>
    <path class="cls-1" d="m77.51,96.44v-1.35l4.18-4.33c.45-.47.82-.88,1.11-1.24.29-.36.51-.7.66-1.02.15-.32.22-.66.22-1.03,0-.41-.1-.77-.29-1.07-.19-.3-.46-.53-.79-.69-.33-.16-.71-.24-1.13-.24-.44,0-.83.09-1.16.27s-.58.44-.76.77c-.18.33-.27.72-.27,1.16h-1.78c0-.75.17-1.41.52-1.97s.82-1,1.42-1.31c.6-.31,1.29-.47,2.06-.47s1.46.15,2.06.46c.59.31,1.06.73,1.39,1.26.33.53.5,1.13.5,1.79,0,.46-.09.91-.26,1.35-.17.44-.47.93-.89,1.46-.42.54-1.01,1.19-1.76,1.95l-2.46,2.57v.09h5.57v1.6h-8.14Z"/>
  </g>
  <g>
    <path class="cls-1" d="m9.63,21.48v12.36h-1.86v-10.77H1.95v10.77H.09v-12.36h9.54Z"/>
    <path class="cls-1" d="m12.33,37.32v-12.75h1.76v1.5h.15c.1-.19.26-.42.45-.67.2-.25.47-.48.82-.67.35-.19.81-.29,1.39-.29.75,0,1.42.19,2,.57.59.38,1.05.92,1.39,1.64s.5,1.57.5,2.57-.17,1.86-.5,2.57-.79,1.26-1.38,1.65-1.25.58-2,.58c-.56,0-1.02-.09-1.38-.28-.36-.19-.64-.41-.84-.66s-.36-.48-.46-.68h-.11v4.92h-1.81Zm1.77-8.11c0,.65.09,1.22.28,1.71.19.49.46.87.82,1.15.36.28.8.41,1.32.41s.99-.14,1.35-.43c.36-.29.64-.68.82-1.17.19-.49.28-1.05.28-1.67s-.09-1.16-.27-1.65c-.18-.49-.46-.87-.82-1.15s-.82-.42-1.36-.42-.96.13-1.32.4c-.36.27-.63.65-.82,1.13s-.28,1.05-.28,1.69Z"/>
    <path class="cls-1" d="m24.59,31.32l4.09-6.74h1.94v9.27h-1.77v-6.75l-4.07,6.75h-1.96v-9.27h1.77v6.74Z"/>
    <path class="cls-1" d="m33.05,37.32v-12.75h1.76v1.5h.15c.1-.19.26-.42.45-.67.2-.25.47-.48.82-.67.35-.19.81-.29,1.39-.29.75,0,1.42.19,2,.57.59.38,1.05.92,1.39,1.64s.5,1.57.5,2.57-.17,1.86-.5,2.57-.79,1.26-1.38,1.65-1.25.58-2,.58c-.56,0-1.02-.09-1.38-.28-.36-.19-.64-.41-.84-.66s-.36-.48-.46-.68h-.11v4.92h-1.81Zm1.77-8.11c0,.65.09,1.22.28,1.71.19.49.46.87.82,1.15.36.28.8.41,1.32.41s.99-.14,1.35-.43c.36-.29.64-.68.82-1.17.19-.49.28-1.05.28-1.67s-.09-1.16-.27-1.65c-.18-.49-.46-.87-.82-1.15s-.82-.42-1.36-.42-.96.13-1.32.4c-.36.27-.63.65-.82,1.13s-.28,1.05-.28,1.69Z"/>
    <path class="cls-1" d="m46.24,34.05c-.59,0-1.12-.11-1.59-.33-.48-.22-.85-.54-1.13-.96-.28-.42-.41-.93-.41-1.54,0-.52.1-.95.3-1.29.2-.34.47-.61.81-.8.34-.2.72-.35,1.15-.45.42-.1.85-.18,1.29-.23.56-.06,1.01-.12,1.35-.16.35-.04.6-.11.75-.21s.24-.25.24-.47v-.04c0-.53-.15-.94-.44-1.23-.3-.29-.74-.43-1.32-.43s-1.09.13-1.43.4c-.35.27-.59.56-.72.89l-1.7-.39c.2-.56.5-1.02.88-1.37.39-.35.84-.6,1.34-.76.51-.16,1.04-.24,1.6-.24.37,0,.76.04,1.18.13s.81.24,1.17.47c.36.23.66.56.9.98.23.42.35.97.35,1.65v6.16h-1.76v-1.27h-.07c-.12.23-.29.46-.53.69-.23.23-.53.41-.9.56s-.81.22-1.32.22Zm.39-1.45c.5,0,.93-.1,1.28-.3.36-.2.63-.46.81-.78.19-.32.28-.66.28-1.03v-1.2c-.06.06-.19.12-.37.18-.18.05-.39.1-.62.14-.23.04-.46.07-.68.1-.22.03-.41.06-.56.08-.35.04-.67.12-.96.22-.29.1-.52.25-.69.45-.17.2-.26.45-.26.78,0,.45.17.78.5,1.01.33.23.75.34,1.26.34Z"/>
    <path class="cls-1" d="m53.22,33.85v-9.27h3.85c1.05,0,1.88.22,2.49.67.61.44.92,1.05.92,1.81,0,.54-.17.97-.52,1.29-.35.32-.81.53-1.38.64.41.05.79.17,1.14.37s.62.47.84.8c.21.33.32.73.32,1.2,0,.49-.13.92-.38,1.3s-.62.67-1.1.88c-.48.21-1.06.32-1.74.32h-4.43Zm1.7-5.41h2.17c.34,0,.63-.05.87-.15.24-.1.43-.23.56-.41.13-.18.2-.39.2-.64,0-.36-.15-.64-.44-.84-.29-.2-.7-.3-1.21-.3h-2.15v2.34Zm0,3.9h2.73c.45,0,.8-.11,1.05-.32.25-.21.38-.5.38-.87,0-.43-.13-.77-.38-1.02-.25-.25-.6-.37-1.05-.37h-2.73v2.58Z"/>
    <path class="cls-1" d="m64.61,24.57v9.27h-1.77v-9.27h1.77Zm4.52,3.86v1.56h-5.02v-1.56h5.02Zm1.26-3.86v9.27h-1.76v-9.27h1.76Z"/>
    <path class="cls-1" d="m74.56,31.32l4.09-6.74h1.94v9.27h-1.77v-6.75l-4.07,6.75h-1.96v-9.27h1.77v6.74Z"/>
    <path class="cls-1" d="m83.02,33.85v-9.27h3.85c1.05,0,1.88.22,2.49.67.61.44.92,1.05.92,1.81,0,.54-.17.97-.52,1.29-.35.32-.81.53-1.38.64.41.05.79.17,1.14.37s.62.47.84.8c.21.33.32.73.32,1.2,0,.49-.13.92-.38,1.3s-.62.67-1.1.88c-.48.21-1.06.32-1.74.32h-4.43Zm1.7-5.41h2.17c.34,0,.63-.05.87-.15.24-.1.43-.23.56-.41.13-.18.2-.39.2-.64,0-.36-.15-.64-.44-.84-.29-.2-.7-.3-1.21-.3h-2.15v2.34Zm0,3.9h2.73c.45,0,.8-.11,1.05-.32.25-.21.38-.5.38-.87,0-.43-.13-.77-.38-1.02-.25-.25-.6-.37-1.05-.37h-2.73v2.58Z"/>
    <path class="cls-1" d="m95.34,34.05c-.59,0-1.12-.11-1.59-.33-.48-.22-.85-.54-1.13-.96-.28-.42-.41-.93-.41-1.54,0-.52.1-.95.3-1.29.2-.34.47-.61.81-.8.34-.2.72-.35,1.15-.45.42-.1.85-.18,1.29-.23.56-.06,1.01-.12,1.35-.16.35-.04.6-.11.75-.21s.24-.25.24-.47v-.04c0-.53-.15-.94-.44-1.23-.3-.29-.74-.43-1.32-.43s-1.09.13-1.43.4c-.35.27-.59.56-.72.89l-1.7-.39c.2-.56.5-1.02.88-1.37.39-.35.84-.6,1.34-.76.51-.16,1.04-.24,1.6-.24.37,0,.76.04,1.18.13s.81.24,1.17.47c.36.23.66.56.9.98.23.42.35.97.35,1.65v6.16h-1.76v-1.27h-.07c-.12.23-.29.46-.53.69-.23.23-.53.41-.9.56s-.81.22-1.32.22Zm.39-1.45c.5,0,.93-.1,1.28-.3.36-.2.63-.46.81-.78.19-.32.28-.66.28-1.03v-1.2c-.06.06-.19.12-.37.18-.18.05-.39.1-.62.14-.23.04-.46.07-.68.1-.22.03-.41.06-.56.08-.35.04-.67.12-.96.22-.29.1-.52.25-.69.45-.17.2-.26.45-.26.78,0,.45.17.78.5,1.01.33.23.75.34,1.26.34Z"/>
    <path class="cls-1" d="m106.32,34.03c-.91,0-1.7-.2-2.36-.59-.66-.39-1.17-.95-1.52-1.66-.36-.71-.53-1.55-.53-2.51s.18-1.79.53-2.51c.36-.72.86-1.29,1.5-1.7.64-.41,1.39-.61,2.25-.61.52,0,1.03.09,1.52.26.49.17.93.44,1.32.81.39.37.7.85.92,1.44.23.59.34,1.3.34,2.15v.64h-7.37v-1.35h5.6c0-.47-.1-.9-.29-1.26-.19-.37-.46-.66-.81-.87-.35-.21-.76-.32-1.22-.32-.51,0-.95.12-1.33.37s-.67.57-.87.97c-.2.4-.31.83-.31,1.29v1.06c0,.62.11,1.15.33,1.58s.53.77.92.99c.39.23.85.34,1.38.34.34,0,.65-.05.94-.15s.53-.25.73-.44c.21-.2.36-.44.47-.73l1.71.31c-.14.5-.38.94-.73,1.32-.35.38-.79.67-1.32.88-.53.21-1.13.31-1.81.31Z"/>
    <path class="cls-1" d="m114.08,24.57v9.27h-1.77v-9.27h1.77Zm3.44,7.04l2.99-7.04h1.56l-3.88,9.27h-1.34l-3.8-9.27h1.54l2.93,7.04Zm3.48,2.23v-9.27h1.76v9.27h-1.76Z"/>
    <path class="cls-1" d="m129.66,33.85v-9.27h1.81v3.89h.87l3.06-3.89h2.23l-3.59,4.51,3.63,4.76h-2.24l-2.79-3.71h-1.18v3.71h-1.81Z"/>
    <path class="cls-1" d="m145.34,24.57v9.27h-1.77v-9.27h1.77Zm4.52,3.86v1.56h-5.02v-1.56h5.02Zm1.26-3.86v9.27h-1.76v-9.27h1.76Z"/>
    <path class="cls-1" d="m154.67,37.32c-.27,0-.52-.02-.74-.06-.22-.04-.39-.09-.5-.14l.43-1.48c.33.09.62.13.88.11.26-.01.49-.11.69-.29s.38-.48.53-.89l.22-.62-3.39-9.39h1.93l2.35,7.2h.1l2.35-7.2h1.94l-3.82,10.51c-.18.48-.4.89-.68,1.23-.27.34-.6.59-.98.76-.38.17-.82.25-1.32.25Z"/>
    <path class="cls-1" d="m162.43,33.85v-1.56s.33,0,.33,0c.26,0,.47-.06.65-.17.17-.11.32-.3.43-.56.11-.27.2-.63.26-1.1.06-.47.1-1.06.13-1.77l.16-4.11h6.47v9.27h-1.77v-7.72h-3.03l-.15,3.15c-.04.76-.11,1.43-.23,2-.12.57-.29,1.05-.52,1.43s-.52.66-.87.85c-.35.19-.79.28-1.29.28h-.58Z"/>
    <path class="cls-1" d="m174.45,24.57v9.27h-1.81v-9.27h1.81Zm3.48,3.92v1.57h-4.94v-1.57h4.94Zm2.83,5.54c-.86,0-1.61-.2-2.26-.6s-1.14-.96-1.5-1.68c-.35-.72-.53-1.55-.53-2.5s.18-1.8.53-2.51c.35-.72.85-1.28,1.5-1.68.64-.4,1.4-.6,2.26-.6s1.62.2,2.26.6c.64.4,1.14.96,1.5,1.68.36.72.53,1.56.53,2.51s-.18,1.78-.53,2.5c-.36.72-.86,1.28-1.5,1.68-.64.4-1.4.6-2.26.6Zm0-1.55c.58,0,1.06-.15,1.43-.44.37-.3.65-.69.82-1.18.18-.49.27-1.03.27-1.62s-.09-1.13-.27-1.63-.45-.89-.82-1.19c-.37-.3-.85-.45-1.43-.45s-1.06.15-1.43.45c-.37.3-.65.69-.83,1.19s-.27,1.04-.27,1.63.09,1.13.27,1.62c.18.49.45.88.83,1.18.38.3.85.44,1.43.44Z"/>
    <path class="cls-1" d="m193.45,31.32l4.09-6.74h1.94v9.27h-1.77v-6.75l-4.07,6.75h-1.96v-9.27h1.77v6.74Z"/>
    <path class="cls-1" d="m208.18,24.57v9.27h-1.77v-9.27h1.77Zm4.52,3.86v1.56h-5.02v-1.56h5.02Zm1.26-3.86v9.27h-1.76v-9.27h1.76Z"/>
    <path class="cls-1" d="m219.06,34.05c-.59,0-1.12-.11-1.59-.33-.47-.22-.85-.54-1.12-.96s-.41-.93-.41-1.54c0-.52.1-.95.3-1.29.2-.34.47-.61.81-.8s.72-.35,1.15-.45.85-.18,1.29-.23c.55-.06,1.01-.12,1.35-.16.35-.04.6-.11.75-.21.16-.1.24-.25.24-.47v-.04c0-.53-.15-.94-.44-1.23-.3-.29-.74-.43-1.32-.43s-1.09.13-1.43.4c-.35.27-.59.56-.72.89l-1.7-.39c.2-.56.5-1.02.88-1.37.39-.35.84-.6,1.34-.76.51-.16,1.04-.24,1.6-.24.37,0,.76.04,1.18.13s.81.24,1.17.47c.36.23.66.56.9.98.23.42.35.97.35,1.65v6.16h-1.76v-1.27h-.07c-.12.23-.29.46-.52.69-.23.23-.54.41-.9.56-.37.15-.8.22-1.32.22Zm.39-1.45c.5,0,.93-.1,1.28-.3.36-.2.63-.46.81-.78.19-.32.28-.66.28-1.03v-1.2c-.06.06-.19.12-.37.18-.18.05-.39.1-.62.14-.23.04-.46.07-.68.1-.22.03-.41.06-.56.08-.35.04-.67.12-.96.22-.29.1-.52.25-.69.45s-.26.45-.26.78c0,.45.16.78.49,1.01.33.23.75.34,1.26.34Z"/>
    <path class="cls-1" d="m227.47,24.57l2.05,3.61,2.06-3.61h1.97l-2.89,4.64,2.92,4.64h-1.97l-2.09-3.47-2.08,3.47h-1.98l2.88-4.64-2.85-4.64h1.98Z"/>
    <path class="cls-1" d="m239.32,34.03c-.87,0-1.63-.2-2.28-.6s-1.15-.96-1.51-1.67c-.36-.72-.54-1.55-.54-2.51s.18-1.8.54-2.52c.36-.72.86-1.28,1.51-1.68s1.41-.6,2.28-.6,1.63.2,2.28.6c.65.4,1.15.96,1.51,1.68.36.72.54,1.56.54,2.52s-.18,1.8-.54,2.51c-.36.72-.86,1.27-1.51,1.67-.65.4-1.41.6-2.28.6Zm0-1.52c.56,0,1.03-.15,1.4-.45.37-.3.64-.69.82-1.19.18-.49.27-1.04.27-1.64s-.09-1.14-.27-1.63c-.18-.5-.45-.9-.82-1.2-.37-.3-.84-.45-1.4-.45s-1.04.15-1.41.45c-.37.3-.65.7-.83,1.2-.18.5-.27,1.04-.27,1.63s.09,1.14.27,1.64c.18.5.46.89.83,1.19.37.3.84.45,1.41.45Z"/>
    <path class="cls-1" d="m244.74,36.52v-4.24h.75c.19-.18.36-.39.49-.63.13-.25.25-.54.34-.88.1-.34.17-.73.24-1.19.06-.45.12-.97.17-1.55l.29-3.46h6.3v7.71h1.43v4.24h-1.76v-2.67h-6.46v2.67h-1.79Zm2.69-4.24h4.14v-6.16h-2.92l-.19,1.91c-.09.97-.21,1.82-.35,2.53-.14.71-.37,1.29-.68,1.72Z"/>
    <path class="cls-1" d="m258.29,31.32l4.09-6.74h1.94v9.27h-1.77v-6.75l-4.07,6.75h-1.96v-9.27h1.77v6.74Z"/>
    <path class="cls-1" d="m268.51,24.57v9.27h-1.77v-9.27h1.77Zm3.43,7.04l2.99-7.04h1.56l-3.88,9.27h-1.34l-3.8-9.27h1.54l2.93,7.04Zm3.48,2.23v-9.27h1.76v9.27h-1.76Z"/>
    <path class="cls-1" d="m284.1,33.85v-9.27h1.8v3.89h.87l3.06-3.89h2.23l-3.59,4.51,3.63,4.76h-2.24l-2.79-3.71h-1.18v3.71h-1.8Z"/>
    <path class="cls-1" d="m297.41,34.03c-.87,0-1.63-.2-2.28-.6s-1.15-.96-1.51-1.67c-.36-.72-.54-1.55-.54-2.51s.18-1.8.54-2.52c.36-.72.86-1.28,1.51-1.68s1.41-.6,2.28-.6,1.63.2,2.28.6c.65.4,1.15.96,1.51,1.68.36.72.54,1.56.54,2.52s-.18,1.8-.54,2.51c-.36.72-.86,1.27-1.51,1.67-.65.4-1.41.6-2.28.6Zm0-1.52c.56,0,1.03-.15,1.4-.45.37-.3.64-.69.82-1.19.18-.49.27-1.04.27-1.64s-.09-1.14-.27-1.63c-.18-.5-.45-.9-.82-1.2-.37-.3-.84-.45-1.4-.45s-1.04.15-1.41.45c-.37.3-.65.7-.83,1.2-.18.5-.27,1.04-.27,1.63s.09,1.14.27,1.64c.18.5.46.89.83,1.19.37.3.84.45,1.41.45Z"/>
    <path class="cls-1" d="m303.74,37.32v-12.75h1.76v1.5h.15c.1-.19.26-.42.45-.67.2-.25.47-.48.82-.67.35-.19.81-.29,1.39-.29.75,0,1.42.19,2,.57.59.38,1.05.92,1.38,1.64.34.71.51,1.57.51,2.57s-.17,1.86-.5,2.57-.79,1.26-1.38,1.65-1.25.58-2,.58c-.56,0-1.02-.09-1.38-.28-.36-.19-.63-.41-.84-.66s-.36-.48-.46-.68h-.11v4.92h-1.8Zm1.77-8.11c0,.65.09,1.22.28,1.71s.46.87.82,1.15c.36.28.8.41,1.32.41s.99-.14,1.35-.43c.36-.29.64-.68.82-1.17.19-.49.28-1.05.28-1.67s-.09-1.16-.28-1.65c-.18-.49-.46-.87-.82-1.15-.36-.28-.82-.42-1.36-.42s-.96.13-1.32.4c-.36.27-.63.65-.82,1.13s-.28,1.05-.28,1.69Z"/>
    <path class="cls-1" d="m316,24.57v9.27h-1.77v-9.27h1.77Zm4.52,3.86v1.56h-5.02v-1.56h5.02Zm1.26-3.86v9.27h-1.76v-9.27h1.76Z"/>
    <path class="cls-1" d="m325.96,31.32l4.09-6.74h1.94v9.27h-1.77v-6.75l-4.07,6.75h-1.96v-9.27h1.77v6.74Z"/>
  </g>
  <path class="cls-1" d="m52.64,100.63v-.95l2.95-3.06c.32-.33.58-.62.78-.88.21-.25.36-.49.46-.72s.15-.47.15-.72c0-.29-.07-.54-.21-.75-.14-.21-.32-.38-.56-.49-.24-.11-.5-.17-.8-.17-.31,0-.59.06-.82.19-.23.13-.41.31-.54.54s-.19.51-.19.82h-1.26c0-.53.12-1,.37-1.39.24-.4.58-.71,1.01-.93s.91-.33,1.45-.33,1.03.11,1.45.33.75.51.98.89c.24.37.35.79.35,1.26,0,.32-.06.64-.18.95-.12.31-.33.65-.63,1.03-.3.38-.71.84-1.24,1.38l-1.73,1.81v.06h3.93v1.13h-5.74Z"/>
  <path class="cls-1" d="m52.64,9.63v-.95l2.95-3.06c.32-.33.58-.62.78-.88.21-.25.36-.49.46-.72s.15-.47.15-.72c0-.29-.07-.54-.21-.75-.14-.21-.32-.38-.56-.49-.24-.11-.5-.17-.8-.17-.31,0-.59.06-.82.19-.23.13-.41.31-.54.54s-.19.51-.19.82h-1.26c0-.53.12-1,.37-1.39.24-.4.58-.71,1.01-.93s.91-.33,1.45-.33,1.03.11,1.45.33.75.51.98.89c.24.37.35.79.35,1.26,0,.32-.06.64-.18.95-.12.31-.33.65-.63,1.03-.3.38-.71.84-1.24,1.38l-1.73,1.81v.06h3.93v1.13h-5.74Z"/>
  <path class="cls-1" d="m52.64,50.63v-.95l2.95-3.06c.32-.33.58-.62.78-.88.21-.25.36-.49.46-.72s.15-.47.15-.72c0-.29-.07-.54-.21-.75-.14-.21-.32-.38-.56-.49-.24-.11-.5-.17-.8-.17-.31,0-.59.06-.82.19-.23.13-.41.31-.54.54s-.19.51-.19.82h-1.26c0-.53.12-1,.37-1.39.24-.4.58-.71,1.01-.93s.91-.33,1.45-.33,1.03.11,1.45.33.75.51.98.89c.24.37.35.79.35,1.26,0,.32-.06.64-.18.95-.12.31-.33.65-.63,1.03-.3.38-.71.84-1.24,1.38l-1.73,1.81v.06h3.93v1.13h-5.74Z"/>
  <path class="cls-1" d="m54.95,70.9v8.73h-1.32v-7.41h-.05l-2.09,1.36v-1.26l2.18-1.42h1.28Z"/>
  <g>
    <path class="cls-1" d="m11.73,112.53c0,1.32-.24,2.45-.72,3.4-.48.95-1.14,1.68-1.98,2.19-.84.51-1.79.76-2.86.76s-2.03-.25-2.86-.76c-.84-.51-1.5-1.24-1.98-2.19-.48-.95-.72-2.08-.72-3.4s.24-2.45.72-3.4c.48-.95,1.14-1.68,1.98-2.19.84-.51,1.79-.76,2.86-.76s2.02.25,2.86.76c.84.51,1.5,1.24,1.98,2.19s.72,2.08.72,3.4Zm-1.85,0c0-1.01-.16-1.85-.49-2.54-.32-.69-.77-1.21-1.33-1.57-.56-.36-1.2-.53-1.9-.53s-1.35.18-1.91.53c-.56.36-1,.88-1.33,1.57-.32.69-.49,1.54-.49,2.54s.16,1.85.49,2.54c.32.69.77,1.21,1.33,1.57.56.36,1.2.53,1.91.53s1.34-.18,1.9-.53c.56-.36,1-.88,1.33-1.57.32-.69.49-1.54.49-2.54Z"/>
    <path class="cls-1" d="m13.38,110.99v-1.56h7.82v1.56h-3.02v7.72h-1.76v-7.72h-3.04Z"/>
    <path class="cls-1" d="m24.88,109.44v9.27h-1.77v-9.27h1.77Zm3.44,7.04l2.99-7.04h1.56l-3.88,9.27h-1.34l-3.8-9.27h1.54l2.93,7.04Zm3.48,2.23v-9.27h1.76v9.27h-1.76Z"/>
    <path class="cls-1" d="m39.96,118.9c-.91,0-1.7-.2-2.36-.59-.66-.39-1.17-.95-1.52-1.66-.36-.71-.53-1.55-.53-2.51s.18-1.79.53-2.51c.36-.72.86-1.29,1.5-1.7.64-.41,1.39-.61,2.25-.61.52,0,1.03.09,1.52.26.49.17.93.44,1.32.81.39.37.7.85.92,1.44.23.59.34,1.3.34,2.15v.64h-7.37v-1.35h5.6c0-.47-.1-.9-.29-1.26-.19-.37-.46-.66-.81-.87-.35-.21-.76-.32-1.22-.32-.51,0-.95.12-1.33.37s-.67.57-.87.97c-.2.4-.31.83-.31,1.29v1.06c0,.62.11,1.15.33,1.58s.53.77.92.99c.39.23.85.34,1.38.34.34,0,.65-.05.94-.15s.53-.25.73-.44c.21-.2.36-.44.47-.73l1.71.31c-.14.5-.38.94-.73,1.32-.35.38-.79.67-1.32.88-.53.21-1.13.31-1.81.31Z"/>
    <path class="cls-1" d="m52.63,113.74v1.56c-.28.11-.57.21-.88.3-.31.09-.64.15-.98.2-.34.05-.7.07-1.07.07-1.15,0-2.06-.28-2.73-.84-.68-.56-1.01-1.42-1.01-2.58v-3.03h1.76v3.03c0,.44.08.79.24,1.07.16.27.39.48.69.6s.65.19,1.06.19c.54,0,1.05-.05,1.51-.15.46-.1.93-.24,1.42-.42Zm.77-4.3v9.27h-1.76v-9.27h1.76Z"/>
    <path class="cls-1" d="m58.5,118.91c-.59,0-1.12-.11-1.59-.33-.48-.22-.85-.54-1.13-.96-.28-.42-.41-.93-.41-1.54,0-.52.1-.95.3-1.29.2-.34.47-.61.81-.8.34-.2.72-.35,1.15-.45.42-.1.85-.18,1.29-.23.56-.06,1.01-.12,1.35-.16.35-.04.6-.11.75-.21s.24-.25.24-.47v-.04c0-.53-.15-.94-.44-1.23-.3-.29-.74-.43-1.32-.43s-1.09.13-1.43.4c-.35.27-.59.56-.72.89l-1.7-.39c.2-.56.5-1.02.88-1.37.39-.35.84-.6,1.34-.76.51-.16,1.04-.24,1.6-.24.37,0,.76.04,1.18.13s.81.24,1.17.47c.36.23.66.56.9.98.23.42.35.97.35,1.65v6.16h-1.76v-1.27h-.07c-.12.23-.29.46-.53.69-.23.23-.53.41-.9.56s-.81.22-1.32.22Zm.39-1.45c.5,0,.93-.1,1.28-.3.36-.2.63-.46.81-.78.19-.32.28-.66.28-1.03v-1.2c-.06.06-.19.12-.37.18-.18.05-.39.1-.62.14-.23.04-.46.07-.68.1-.22.03-.41.06-.56.08-.35.04-.67.12-.96.22-.29.1-.52.25-.69.45-.17.2-.26.45-.26.78,0,.45.17.78.5,1.01.33.23.75.34,1.26.34Z"/>
    <path class="cls-1" d="m69.48,118.9c-.91,0-1.7-.2-2.36-.59-.66-.39-1.17-.95-1.52-1.66-.36-.71-.53-1.55-.53-2.51s.18-1.79.53-2.51c.36-.72.86-1.29,1.5-1.7.64-.41,1.39-.61,2.25-.61.52,0,1.03.09,1.52.26.49.17.93.44,1.32.81.39.37.7.85.92,1.44.23.59.34,1.3.34,2.15v.64h-7.37v-1.35h5.6c0-.47-.1-.9-.29-1.26-.19-.37-.46-.66-.81-.87-.35-.21-.76-.32-1.22-.32-.51,0-.95.12-1.33.37s-.67.57-.87.97c-.2.4-.31.83-.31,1.29v1.06c0,.62.11,1.15.33,1.58s.53.77.92.99c.39.23.85.34,1.38.34.34,0,.65-.05.94-.15s.53-.25.73-.44c.21-.2.36-.44.47-.73l1.71.31c-.14.5-.38.94-.73,1.32-.35.38-.79.67-1.32.88-.53.21-1.13.31-1.81.31Z"/>
    <path class="cls-1" d="m77.23,109.44v9.27h-1.77v-9.27h1.77Zm3.44,7.04l2.99-7.04h1.56l-3.88,9.27h-1.34l-3.8-9.27h1.54l2.93,7.04Zm3.48,2.23v-9.27h1.76v9.27h-1.76Z"/>
    <path class="cls-1" d="m92.3,110.99v-1.56h7.82v1.56h-3.02v7.72h-1.76v-7.72h-3.04Z"/>
    <path class="cls-1" d="m105.94,118.9c-.87,0-1.63-.2-2.28-.6s-1.15-.96-1.51-1.67c-.36-.72-.54-1.55-.54-2.51s.18-1.8.54-2.52c.36-.72.86-1.28,1.51-1.68s1.41-.6,2.28-.6,1.63.2,2.28.6,1.15.96,1.51,1.68c.36.72.54,1.56.54,2.52s-.18,1.8-.54,2.51c-.36.72-.86,1.27-1.51,1.67s-1.41.6-2.28.6Zm0-1.52c.56,0,1.03-.15,1.4-.45s.65-.69.82-1.19c.18-.49.27-1.04.27-1.64s-.09-1.14-.27-1.63c-.18-.5-.45-.9-.82-1.2-.37-.3-.84-.45-1.4-.45s-1.04.15-1.41.45c-.37.3-.65.7-.83,1.2s-.27,1.04-.27,1.63.09,1.14.27,1.64c.18.5.45.89.83,1.19.37.3.84.45,1.41.45Z"/>
    <path class="cls-1" d="m118.95,113.74v1.56c-.28.11-.57.21-.88.3-.31.09-.64.15-.98.2-.34.05-.7.07-1.07.07-1.15,0-2.06-.28-2.73-.84-.68-.56-1.01-1.42-1.01-2.58v-3.03h1.76v3.03c0,.44.08.79.24,1.07.16.27.39.48.69.6s.65.19,1.06.19c.54,0,1.05-.05,1.51-.15.46-.1.93-.24,1.42-.42Zm.77-4.3v9.27h-1.76v-9.27h1.76Z"/>
    <path class="cls-1" d="m122.12,118.71v-9.27h1.81v3.89h.87l3.06-3.89h2.23l-3.59,4.51,3.63,4.76h-2.24l-2.79-3.71h-1.18v3.71h-1.81Z"/>
    <path class="cls-1" d="m133.3,116.18l4.09-6.74h1.94v9.27h-1.77v-6.75l-4.07,6.75h-1.96v-9.27h1.77v6.74Z"/>
    <path class="cls-1" d="m148.03,109.44v9.27h-1.77v-9.27h1.77Zm4.52,3.86v1.56h-5.02v-1.56h5.02Zm1.26-3.86v9.27h-1.76v-9.27h1.76Z"/>
    <path class="cls-1" d="m158.91,118.91c-.59,0-1.12-.11-1.59-.33-.48-.22-.85-.54-1.13-.96s-.41-.93-.41-1.54c0-.52.1-.95.3-1.29.2-.34.47-.61.81-.8s.72-.35,1.15-.45c.42-.1.85-.18,1.29-.23.55-.06,1.01-.12,1.35-.16.35-.04.6-.11.75-.21s.24-.25.24-.47v-.04c0-.53-.15-.94-.44-1.23-.3-.29-.74-.43-1.32-.43s-1.09.13-1.43.4c-.35.27-.59.56-.72.89l-1.7-.39c.2-.56.5-1.02.88-1.37.39-.35.84-.6,1.34-.76.51-.16,1.04-.24,1.6-.24.37,0,.76.04,1.18.13.42.09.81.24,1.17.47.36.23.66.56.9.98.23.42.35.97.35,1.65v6.16h-1.76v-1.27h-.07c-.12.23-.29.46-.52.69-.23.23-.53.41-.9.56s-.8.22-1.32.22Zm.39-1.45c.5,0,.93-.1,1.28-.3.36-.2.63-.46.82-.78.19-.32.28-.66.28-1.03v-1.2c-.06.06-.19.12-.37.18-.18.05-.39.1-.62.14-.23.04-.46.07-.68.1-.22.03-.41.06-.56.08-.35.04-.67.12-.96.22s-.52.25-.69.45c-.17.2-.26.45-.26.78,0,.45.17.78.5,1.01.33.23.75.34,1.26.34Z"/>
    <path class="cls-1" d="m170.39,118.71v-9.27h1.8v3.89h.87l3.06-3.89h2.23l-3.59,4.51,3.63,4.76h-2.24l-2.79-3.71h-1.18v3.71h-1.8Z"/>
    <path class="cls-1" d="m183.71,118.9c-.87,0-1.63-.2-2.28-.6-.65-.4-1.15-.96-1.51-1.67s-.54-1.55-.54-2.51.18-1.8.54-2.52c.36-.72.86-1.28,1.51-1.68.65-.4,1.41-.6,2.28-.6s1.63.2,2.28.6c.65.4,1.15.96,1.51,1.68.36.72.54,1.56.54,2.52s-.18,1.8-.54,2.51-.86,1.27-1.51,1.67c-.65.4-1.41.6-2.28.6Zm0-1.52c.56,0,1.03-.15,1.4-.45.37-.3.64-.69.82-1.19.18-.49.27-1.04.27-1.64s-.09-1.14-.27-1.63c-.18-.5-.45-.9-.82-1.2-.37-.3-.84-.45-1.4-.45s-1.04.15-1.41.45c-.37.3-.65.7-.83,1.2s-.27,1.04-.27,1.63.09,1.14.27,1.64c.18.5.46.89.83,1.19s.84.45,1.41.45Z"/>
    <path class="cls-1" d="m193.94,118.9c-.87,0-1.63-.2-2.28-.6-.65-.4-1.15-.96-1.51-1.67s-.54-1.55-.54-2.51.18-1.8.54-2.52c.36-.72.86-1.28,1.51-1.68.65-.4,1.41-.6,2.28-.6s1.63.2,2.28.6c.65.4,1.15.96,1.51,1.68.36.72.54,1.56.54,2.52s-.18,1.8-.54,2.51-.86,1.27-1.51,1.67c-.65.4-1.41.6-2.28.6Zm0-1.52c.56,0,1.03-.15,1.4-.45.37-.3.64-.69.82-1.19.18-.49.27-1.04.27-1.64s-.09-1.14-.27-1.63c-.18-.5-.45-.9-.82-1.2-.37-.3-.84-.45-1.4-.45s-1.04.15-1.41.45c-.37.3-.65.7-.83,1.2s-.27,1.04-.27,1.63.09,1.14.27,1.64c.18.5.46.89.83,1.19s.84.45,1.41.45Z"/>
    <path class="cls-1" d="m200.28,122.19v-12.75h1.76v1.5h.15c.1-.19.26-.42.45-.67.2-.25.47-.48.82-.67.35-.19.81-.29,1.39-.29.75,0,1.42.19,2,.57.59.38,1.05.92,1.38,1.64.34.71.5,1.57.5,2.57s-.17,1.86-.5,2.57c-.33.71-.79,1.26-1.38,1.65s-1.25.58-2,.58c-.56,0-1.02-.09-1.38-.28-.36-.19-.63-.41-.84-.66s-.36-.48-.46-.68h-.11v4.92h-1.8Zm1.77-8.11c0,.65.09,1.22.28,1.71.19.49.46.87.82,1.15.36.28.8.41,1.32.41s.99-.14,1.35-.43c.36-.29.64-.68.82-1.17.19-.49.28-1.05.28-1.67s-.09-1.16-.28-1.65c-.18-.49-.46-.87-.82-1.15s-.82-.42-1.36-.42-.96.13-1.33.4-.63.65-.82,1.13c-.18.48-.28,1.05-.28,1.69Z"/>
    <path class="cls-1" d="m209.86,121.38v-4.24h.75c.19-.18.36-.39.49-.63.13-.25.25-.54.34-.88s.17-.73.24-1.19c.06-.45.12-.97.17-1.55l.29-3.46h6.3v7.71h1.42v4.24h-1.76v-2.67h-6.47v2.67h-1.79Zm2.69-4.24h4.14v-6.16h-2.92l-.19,1.91c-.09.97-.21,1.82-.35,2.53-.14.71-.37,1.29-.68,1.72Z"/>
    <path class="cls-1" d="m223.4,116.18l4.09-6.74h1.94v9.27h-1.77v-6.75l-4.07,6.75h-1.96v-9.27h1.77v6.74Z"/>
    <path class="cls-1" d="m233.63,109.44v9.27h-1.77v-9.27h1.77Zm4.52,3.86v1.56h-5.02v-1.56h5.02Zm1.26-3.86v9.27h-1.76v-9.27h1.76Z"/>
    <path class="cls-1" d="m244.51,118.91c-.59,0-1.12-.11-1.59-.33-.48-.22-.85-.54-1.13-.96s-.41-.93-.41-1.54c0-.52.1-.95.3-1.29.2-.34.47-.61.81-.8s.72-.35,1.15-.45c.42-.1.85-.18,1.29-.23.55-.06,1.01-.12,1.35-.16.35-.04.6-.11.75-.21s.24-.25.24-.47v-.04c0-.53-.15-.94-.44-1.23-.3-.29-.74-.43-1.32-.43s-1.09.13-1.43.4c-.35.27-.59.56-.72.89l-1.7-.39c.2-.56.5-1.02.88-1.37.39-.35.84-.6,1.34-.76.51-.16,1.04-.24,1.6-.24.37,0,.76.04,1.18.13.42.09.81.24,1.17.47.36.23.66.56.9.98.23.42.35.97.35,1.65v6.16h-1.76v-1.27h-.07c-.12.23-.29.46-.52.69-.23.23-.53.41-.9.56s-.8.22-1.32.22Zm.39-1.45c.5,0,.93-.1,1.28-.3.36-.2.63-.46.82-.78.19-.32.28-.66.28-1.03v-1.2c-.06.06-.19.12-.37.18-.18.05-.39.1-.62.14-.23.04-.46.07-.68.1-.22.03-.41.06-.56.08-.35.04-.67.12-.96.22s-.52.25-.69.45c-.17.2-.26.45-.26.78,0,.45.17.78.5,1.01.33.23.75.34,1.26.34Z"/>
    <path class="cls-1" d="m250.97,110.99v-1.56h7.82v1.56h-3.03v7.72h-1.76v-7.72h-3.04Z"/>
    <path class="cls-1" d="m262.47,109.44v9.27h-1.77v-9.27h1.77Zm4.52,3.86v1.56h-5.02v-1.56h5.02Zm1.26-3.86v9.27h-1.76v-9.27h1.76Z"/>
    <path class="cls-1" d="m274.57,118.9c-.87,0-1.63-.2-2.28-.6-.65-.4-1.15-.96-1.51-1.67s-.54-1.55-.54-2.51.18-1.8.54-2.52c.36-.72.86-1.28,1.51-1.68.65-.4,1.41-.6,2.28-.6s1.63.2,2.28.6c.65.4,1.15.96,1.51,1.68.36.72.54,1.56.54,2.52s-.18,1.8-.54,2.51-.86,1.27-1.51,1.67c-.65.4-1.41.6-2.28.6Zm0-1.52c.56,0,1.03-.15,1.4-.45.37-.3.64-.69.82-1.19.18-.49.27-1.04.27-1.64s-.09-1.14-.27-1.63c-.18-.5-.45-.9-.82-1.2-.37-.3-.84-.45-1.4-.45s-1.04.15-1.41.45c-.37.3-.65.7-.83,1.2s-.27,1.04-.27,1.63.09,1.14.27,1.64c.18.5.46.89.83,1.19s.84.45,1.41.45Z"/>
    <path class="cls-1" d="m282.67,116.18l4.09-6.74h1.94v9.27h-1.77v-6.75l-4.07,6.75h-1.96v-9.27h1.77v6.74Zm3.31-9.88h1.48c0,.68-.24,1.23-.72,1.66-.48.42-1.13.64-1.95.64s-1.46-.21-1.94-.64c-.48-.42-.72-.98-.72-1.66h1.48c0,.3.09.57.27.8.18.23.48.35.91.35s.73-.11.91-.34c.18-.23.28-.5.28-.8Z"/>
    <path class="cls-1" d="m295.63,118.71v-9.27h7.56v9.27h-1.77v-7.72h-4.04v7.72h-1.76Z"/>
    <path class="cls-1" d="m305.61,122.19v-12.75h1.76v1.5h.15c.1-.19.26-.42.45-.67.2-.25.47-.48.82-.67.35-.19.81-.29,1.39-.29.75,0,1.42.19,2,.57.59.38,1.05.92,1.38,1.64.34.71.5,1.57.5,2.57s-.17,1.86-.5,2.57c-.33.71-.79,1.26-1.38,1.65s-1.25.58-2,.58c-.56,0-1.02-.09-1.38-.28-.36-.19-.63-.41-.84-.66s-.36-.48-.46-.68h-.11v4.92h-1.8Zm1.77-8.11c0,.65.09,1.22.28,1.71.19.49.46.87.82,1.15.36.28.8.41,1.32.41s.99-.14,1.35-.43c.36-.29.64-.68.82-1.17.19-.49.28-1.05.28-1.67s-.09-1.16-.28-1.65c-.18-.49-.46-.87-.82-1.15s-.82-.42-1.36-.42-.96.13-1.33.4-.63.65-.82,1.13c-.18.48-.28,1.05-.28,1.69Z"/>
    <path class="cls-1" d="m315.55,118.71l2.61-4.68h1.85l-2.61,4.68h-1.85Zm6.08,0v-7.73h-2.22c-.53,0-.94.12-1.23.37-.29.25-.44.57-.44.97s.14.71.41.95.65.36,1.14.36h2.87v1.46h-2.87c-.68,0-1.28-.11-1.77-.34s-.88-.55-1.15-.97c-.27-.42-.4-.91-.4-1.49s.14-1.09.41-1.51.67-.75,1.19-.99c.52-.23,1.13-.35,1.84-.35h3.92v9.27h-1.7Z"/>
    <path class="cls-1" d="m327.51,109.44v9.27h-1.77v-9.27h1.77Zm3.43,7.04l2.99-7.04h1.56l-3.88,9.27h-1.34l-3.8-9.27h1.54l2.93,7.04Zm3.48,2.23v-9.27h1.76v9.27h-1.76Z"/>
    <path class="cls-1" d="m342.5,118.9c-.87,0-1.63-.2-2.28-.6-.65-.4-1.15-.96-1.51-1.67s-.54-1.55-.54-2.51.18-1.8.54-2.52c.36-.72.86-1.28,1.51-1.68.65-.4,1.41-.6,2.28-.6s1.63.2,2.28.6c.65.4,1.15.96,1.51,1.68.36.72.54,1.56.54,2.52s-.18,1.8-.54,2.51-.86,1.27-1.51,1.67c-.65.4-1.41.6-2.28.6Zm0-1.52c.56,0,1.03-.15,1.4-.45.37-.3.64-.69.82-1.19.18-.49.27-1.04.27-1.64s-.09-1.14-.27-1.63c-.18-.5-.45-.9-.82-1.2-.37-.3-.84-.45-1.4-.45s-1.04.15-1.41.45c-.37.3-.65.7-.83,1.2s-.27,1.04-.27,1.63.09,1.14.27,1.64c.18.5.46.89.83,1.19s.84.45,1.41.45Z"/>
    <path class="cls-1" d="m350.6,116.18l4.09-6.74h1.94v9.27h-1.77v-6.75l-4.07,6.75h-1.96v-9.27h1.77v6.74Zm3.31-9.88h1.48c0,.68-.24,1.23-.72,1.66-.48.42-1.13.64-1.95.64s-1.46-.21-1.94-.64c-.48-.42-.72-.98-.72-1.66h1.48c0,.3.09.57.27.8.18.23.48.35.91.35s.73-.11.91-.34c.18-.23.28-.5.28-.8Z"/>
    <path class="cls-1" d="m360.25,118.82c-.33,0-.61-.12-.85-.35-.24-.24-.36-.52-.36-.85s.12-.61.36-.85.52-.35.85-.35.61.12.85.35.36.52.36.85c0,.22-.06.42-.17.61-.11.18-.26.33-.44.44-.18.11-.38.16-.6.16Z"/>
    <path class="cls-1" d="m.99,139.11v-12.36h4.41c.96,0,1.76.18,2.39.53s1.1.83,1.42,1.43c.31.61.47,1.29.47,2.04s-.16,1.44-.47,2.05c-.32.61-.79,1.08-1.42,1.44-.63.35-1.43.53-2.39.53h-3.03v-1.58h2.86c.61,0,1.1-.11,1.48-.32.38-.21.66-.5.83-.87s.27-.78.27-1.25-.09-.88-.27-1.24c-.18-.36-.46-.65-.84-.85-.38-.21-.88-.31-1.5-.31h-2.34v10.76H.99Z"/>
    <path class="cls-1" d="m14.41,139.31c-.59,0-1.12-.11-1.59-.33-.48-.22-.85-.54-1.13-.96-.28-.42-.41-.93-.41-1.54,0-.52.1-.95.3-1.29.2-.34.47-.61.81-.8.34-.2.72-.35,1.15-.45.42-.1.85-.18,1.29-.23.56-.06,1.01-.12,1.35-.16.35-.04.6-.11.75-.21s.24-.25.24-.47v-.04c0-.53-.15-.94-.44-1.23-.3-.29-.74-.43-1.32-.43s-1.09.13-1.43.4c-.35.27-.59.56-.72.89l-1.7-.39c.2-.56.5-1.02.88-1.37.39-.35.84-.6,1.34-.76.51-.16,1.04-.24,1.6-.24.37,0,.76.04,1.18.13s.81.24,1.17.47c.36.23.66.56.9.98.23.42.35.97.35,1.65v6.16h-1.76v-1.27h-.07c-.12.23-.29.46-.53.69-.23.23-.53.41-.9.56s-.81.22-1.32.22Zm.39-1.45c.5,0,.93-.1,1.28-.3.36-.2.63-.46.81-.78.19-.32.28-.66.28-1.03v-1.2c-.06.06-.19.12-.37.18-.18.05-.39.1-.62.14-.23.04-.46.07-.68.1-.22.03-.41.06-.56.08-.35.04-.67.12-.96.22-.29.1-.52.25-.69.45-.17.2-.26.45-.26.78,0,.45.17.78.5,1.01.33.23.75.34,1.26.34Z"/>
    <path class="cls-1" d="m21.39,139.11v-9.27h3.85c1.05,0,1.88.22,2.49.67.61.44.92,1.05.92,1.81,0,.54-.17.97-.52,1.29-.35.32-.81.53-1.38.64.41.05.79.17,1.14.37s.62.47.84.8c.21.33.32.73.32,1.2,0,.49-.13.92-.38,1.3s-.62.67-1.1.88c-.48.21-1.06.32-1.74.32h-4.43Zm1.7-5.41h2.17c.34,0,.63-.05.87-.15.24-.1.43-.23.56-.41.13-.18.2-.39.2-.64,0-.36-.15-.64-.44-.84-.29-.2-.7-.3-1.21-.3h-2.15v2.34Zm0,3.9h2.73c.45,0,.8-.11,1.05-.32.25-.21.38-.5.38-.87,0-.43-.13-.77-.38-1.02-.25-.25-.6-.37-1.05-.37h-2.73v2.58Z"/>
    <path class="cls-1" d="m35.01,139.29c-.91,0-1.7-.2-2.36-.59-.66-.39-1.17-.95-1.52-1.66-.36-.71-.53-1.55-.53-2.51s.18-1.79.53-2.51c.36-.72.86-1.29,1.5-1.7.64-.41,1.39-.61,2.25-.61.52,0,1.03.09,1.52.26.49.17.93.44,1.32.81.39.37.7.85.92,1.44.23.59.34,1.3.34,2.15v.64h-7.37v-1.35h5.6c0-.47-.1-.9-.29-1.26-.19-.37-.46-.66-.81-.87-.35-.21-.76-.32-1.22-.32-.51,0-.95.12-1.33.37s-.67.57-.87.97c-.2.4-.31.83-.31,1.29v1.06c0,.62.11,1.15.33,1.58s.53.77.92.99c.39.23.85.34,1.38.34.34,0,.65-.05.94-.15s.53-.25.73-.44c.21-.2.36-.44.47-.73l1.71.31c-.14.5-.38.94-.73,1.32-.35.38-.79.67-1.32.88-.53.21-1.13.31-1.81.31Z"/>
    <path class="cls-1" d="m42.76,129.83v9.27h-1.77v-9.27h1.77Zm4.52,3.86v1.56h-5.02v-1.56h5.02Zm1.26-3.86v9.27h-1.76v-9.27h1.76Z"/>
    <path class="cls-1" d="m54.85,139.29c-.9,0-1.67-.2-2.31-.61-.65-.41-1.14-.97-1.49-1.69-.35-.72-.52-1.55-.52-2.48s.18-1.77.53-2.5.85-1.29,1.5-1.69,1.4-.61,2.28-.61c.7,0,1.33.13,1.88.39.55.26,1,.62,1.34,1.09.34.47.54,1.01.61,1.64h-1.76c-.1-.43-.32-.81-.66-1.12s-.8-.47-1.38-.47c-.5,0-.94.13-1.32.4-.38.26-.67.64-.88,1.12-.21.49-.31,1.06-.31,1.72s.1,1.26.31,1.75c.21.49.5.87.87,1.14s.82.4,1.33.4c.34,0,.65-.06.93-.19.28-.13.52-.31.71-.55.19-.24.32-.52.4-.86h1.76c-.06.6-.26,1.14-.59,1.61-.33.47-.76.84-1.31,1.11s-1.18.4-1.92.4Z"/>
    <path class="cls-1" d="m60.08,131.39v-1.56h7.82v1.56h-3.02v7.72h-1.76v-7.72h-3.04Z"/>
    <path class="cls-1" d="m69.81,139.11v-9.27h3.85c1.05,0,1.88.22,2.49.67.61.44.92,1.05.92,1.81,0,.54-.17.97-.52,1.29-.35.32-.81.53-1.38.64.41.05.79.17,1.14.37s.62.47.84.8c.21.33.32.73.32,1.2,0,.49-.13.92-.38,1.3s-.62.67-1.1.88c-.48.21-1.06.32-1.74.32h-4.43Zm1.7-5.41h2.17c.34,0,.63-.05.87-.15.24-.1.43-.23.56-.41.13-.18.2-.39.2-.64,0-.36-.15-.64-.44-.84-.29-.2-.7-.3-1.21-.3h-2.15v2.34Zm0,3.9h2.73c.45,0,.8-.11,1.05-.32.25-.21.38-.5.38-.87,0-.43-.13-.77-.38-1.02-.25-.25-.6-.37-1.05-.37h-2.73v2.58Z"/>
    <path class="cls-1" d="m83.34,139.29c-.87,0-1.63-.2-2.28-.6s-1.15-.96-1.51-1.67c-.36-.72-.54-1.55-.54-2.51s.18-1.8.54-2.52c.36-.72.86-1.28,1.51-1.68s1.41-.6,2.28-.6,1.63.2,2.28.6,1.15.96,1.51,1.68c.36.72.54,1.56.54,2.52s-.18,1.8-.54,2.51c-.36.72-.86,1.27-1.51,1.67s-1.41.6-2.28.6Zm0-1.52c.56,0,1.03-.15,1.4-.45s.65-.69.82-1.19c.18-.49.27-1.04.27-1.64s-.09-1.14-.27-1.63c-.18-.5-.45-.9-.82-1.2-.37-.3-.84-.45-1.4-.45s-1.04.15-1.41.45c-.37.3-.65.7-.83,1.2s-.27,1.04-.27,1.63.09,1.14.27,1.64c.18.5.45.89.83,1.19.37.3.84.45,1.41.45Z"/>
    <path class="cls-1" d="m98.08,139.29c-.9,0-1.67-.2-2.31-.61-.65-.41-1.14-.97-1.49-1.69-.35-.72-.52-1.55-.52-2.48s.18-1.77.53-2.5.85-1.29,1.5-1.69,1.4-.61,2.28-.61c.7,0,1.33.13,1.88.39.55.26,1,.62,1.34,1.09.34.47.54,1.01.61,1.64h-1.76c-.1-.43-.32-.81-.66-1.12s-.8-.47-1.38-.47c-.5,0-.94.13-1.32.4-.38.26-.67.64-.88,1.12-.21.49-.31,1.06-.31,1.72s.1,1.26.31,1.75c.21.49.5.87.87,1.14s.82.4,1.33.4c.34,0,.65-.06.93-.19.28-.13.52-.31.71-.55.19-.24.32-.52.4-.86h1.76c-.06.6-.26,1.14-.59,1.61-.33.47-.76.84-1.31,1.11s-1.18.4-1.92.4Z"/>
    <path class="cls-1" d="m103.31,131.39v-1.56h7.82v1.56h-3.02v7.72h-1.76v-7.72h-3.04Z"/>
    <path class="cls-1" d="m113.04,142.58v-12.75h1.76v1.5h.15c.1-.19.26-.42.45-.67.2-.25.47-.48.82-.67.35-.19.81-.29,1.39-.29.75,0,1.42.19,2,.57.59.38,1.05.92,1.39,1.64s.5,1.57.5,2.57-.17,1.86-.5,2.57-.79,1.26-1.38,1.65-1.25.58-2,.58c-.56,0-1.02-.09-1.38-.28-.36-.19-.64-.41-.84-.66s-.36-.48-.46-.68h-.11v4.92h-1.81Zm1.77-8.11c0,.65.09,1.22.28,1.71.19.49.46.87.82,1.15.36.28.8.41,1.32.41s.99-.14,1.35-.43c.36-.29.64-.68.82-1.17.19-.49.28-1.05.28-1.67s-.09-1.16-.27-1.65c-.18-.49-.46-.87-.82-1.15s-.82-.42-1.36-.42-.96.13-1.32.4c-.36.27-.63.65-.82,1.13s-.28,1.05-.28,1.69Z"/>
    <path class="cls-1" d="m127.44,139.29c-.87,0-1.63-.2-2.28-.6s-1.15-.96-1.51-1.67c-.36-.72-.54-1.55-.54-2.51s.18-1.8.54-2.52c.36-.72.86-1.28,1.51-1.68s1.41-.6,2.28-.6,1.63.2,2.28.6,1.15.96,1.51,1.68c.36.72.54,1.56.54,2.52s-.18,1.8-.54,2.51c-.36.72-.86,1.27-1.51,1.67s-1.41.6-2.28.6Zm0-1.52c.56,0,1.03-.15,1.4-.45s.65-.69.82-1.19c.18-.49.27-1.04.27-1.64s-.09-1.14-.27-1.63c-.18-.5-.45-.9-.82-1.2-.37-.3-.84-.45-1.4-.45s-1.04.15-1.41.45c-.37.3-.65.7-.83,1.2s-.27,1.04-.27,1.63.09,1.14.27,1.64c.18.5.45.89.83,1.19.37.3.84.45,1.41.45Z"/>
    <path class="cls-1" d="m139.7,129.83v1.56h-4.15v7.72h-1.78v-9.27h5.93Z"/>
    <path class="cls-1" d="m145.52,139.29c-.87,0-1.63-.2-2.28-.6-.65-.4-1.15-.96-1.51-1.67-.36-.72-.54-1.55-.54-2.51s.18-1.8.54-2.52c.36-.72.86-1.28,1.51-1.68.65-.4,1.41-.6,2.28-.6s1.63.2,2.28.6c.65.4,1.15.96,1.51,1.68.36.72.54,1.56.54,2.52s-.18,1.8-.54,2.51c-.36.72-.86,1.27-1.51,1.67-.65.4-1.41.6-2.28.6Zm0-1.52c.56,0,1.03-.15,1.4-.45.37-.3.64-.69.82-1.19.18-.49.27-1.04.27-1.64s-.09-1.14-.27-1.63c-.18-.5-.45-.9-.82-1.2-.37-.3-.84-.45-1.4-.45s-1.04.15-1.41.45c-.37.3-.65.7-.83,1.2-.18.5-.27,1.04-.27,1.63s.09,1.14.27,1.64c.18.5.46.89.83,1.19.37.3.84.45,1.41.45Z"/>
    <path class="cls-1" d="m155.85,139.29c-.91,0-1.7-.2-2.36-.59-.66-.39-1.17-.95-1.52-1.66s-.53-1.55-.53-2.51.18-1.79.53-2.51.86-1.29,1.5-1.7,1.39-.61,2.25-.61c.52,0,1.03.09,1.52.26s.93.44,1.32.81c.39.37.7.85.92,1.44.22.59.34,1.3.34,2.15v.64h-7.37v-1.35h5.6c0-.47-.1-.9-.29-1.26s-.46-.66-.81-.87c-.35-.21-.76-.32-1.22-.32-.51,0-.95.12-1.32.37-.38.25-.67.57-.87.97-.2.4-.3.83-.3,1.29v1.06c0,.62.11,1.15.33,1.58s.53.77.92.99.86.34,1.38.34c.34,0,.65-.05.94-.15.28-.1.52-.25.73-.44.21-.2.36-.44.47-.73l1.71.31c-.14.5-.38.94-.73,1.32-.35.38-.79.67-1.32.88-.53.21-1.13.31-1.81.31Z"/>
    <path class="cls-1" d="m164.18,137.42l-.09.66c-.06.48-.16.99-.31,1.51-.14.53-.29,1.01-.44,1.46-.15.45-.27.81-.37,1.07h-1.28c.05-.25.12-.59.22-1.01.09-.42.18-.9.27-1.42.09-.52.16-1.06.2-1.6l.06-.68h1.74Z"/>
    <path class="cls-1" d="m171.04,139.11v-9.27h7.56v9.27h-1.77v-7.72h-4.04v7.72h-1.76Z"/>
    <path class="cls-1" d="m184.92,139.29c-.87,0-1.63-.2-2.28-.6-.65-.4-1.15-.96-1.51-1.67s-.54-1.55-.54-2.51.18-1.8.54-2.52c.36-.72.86-1.28,1.51-1.68.65-.4,1.41-.6,2.28-.6s1.63.2,2.28.6c.65.4,1.15.96,1.51,1.68.36.72.54,1.56.54,2.52s-.18,1.8-.54,2.51-.86,1.27-1.51,1.67c-.65.4-1.41.6-2.28.6Zm0-1.52c.56,0,1.03-.15,1.4-.45.37-.3.64-.69.82-1.19.18-.49.27-1.04.27-1.64s-.09-1.14-.27-1.63c-.18-.5-.45-.9-.82-1.2-.37-.3-.84-.45-1.4-.45s-1.04.15-1.41.45c-.37.3-.65.7-.83,1.2s-.27,1.04-.27,1.63.09,1.14.27,1.64c.18.5.46.89.83,1.19s.84.45,1.41.45Z"/>
    <path class="cls-1" d="m194.45,131.28c-.31,0-.62.08-.91.22-.29.15-.53.34-.71.58-.19.24-.28.52-.28.82h-1.7c0-.43.1-.85.29-1.23s.46-.73.79-1.02c.33-.29.72-.53,1.15-.69s.89-.25,1.37-.25c.87,0,1.61.21,2.22.64.61.42,1.07.99,1.38,1.69.31.7.47,1.47.47,2.31v.3c0,.84-.16,1.61-.47,2.31-.31.7-.77,1.27-1.38,1.69-.61.42-1.34.63-2.22.63-.7,0-1.32-.15-1.87-.45-.54-.3-.97-.71-1.28-1.22s-.46-1.11-.46-1.77h1.7c0,.33.09.64.26.92s.4.51.69.68c.29.17.6.26.95.26.52,0,.95-.16,1.29-.47.34-.31.59-.7.76-1.17s.25-.94.25-1.42v-.3c0-.5-.08-.98-.25-1.44s-.42-.85-.76-1.16c-.34-.3-.77-.46-1.29-.46Zm2.93,2.48v1.39h-3.8v-1.39h3.8Z"/>
    <path class="cls-1" d="m200,131.39v-1.56h7.82v1.56h-3.03v7.72h-1.76v-7.72h-3.04Z"/>
    <path class="cls-1" d="m213.64,139.29c-.87,0-1.63-.2-2.28-.6-.65-.4-1.15-.96-1.51-1.67s-.54-1.55-.54-2.51.18-1.8.54-2.52c.36-.72.86-1.28,1.51-1.68.65-.4,1.41-.6,2.28-.6s1.63.2,2.28.6c.65.4,1.15.96,1.51,1.68.36.72.54,1.56.54,2.52s-.18,1.8-.54,2.51-.86,1.27-1.51,1.67c-.65.4-1.41.6-2.28.6Zm0-1.52c.56,0,1.03-.15,1.4-.45.37-.3.64-.69.82-1.19.18-.49.27-1.04.27-1.64s-.09-1.14-.27-1.63c-.18-.5-.45-.9-.82-1.2-.37-.3-.84-.45-1.4-.45s-1.04.15-1.41.45c-.37.3-.65.7-.83,1.2s-.27,1.04-.27,1.63.09,1.14.27,1.64c.18.5.46.89.83,1.19s.84.45,1.41.45Z"/>
    <path class="cls-1" d="m221.74,129.83v9.27h-1.77v-9.27h1.77Zm3.43,7.04l2.99-7.04h1.56l-3.88,9.27h-1.34l-3.8-9.27h1.54l2.93,7.04Zm3.48,2.23v-9.27h1.76v9.27h-1.76Z"/>
    <path class="cls-1" d="m233.97,142.58c-.27,0-.52-.02-.74-.06-.22-.04-.39-.09-.5-.14l.43-1.48c.33.09.62.13.88.11.26-.01.49-.11.69-.29s.38-.48.53-.89l.22-.62-3.39-9.39h1.93l2.35,7.2h.1l2.35-7.2h1.94l-3.82,10.51c-.18.48-.4.89-.68,1.23-.27.34-.6.59-.98.76-.38.17-.82.25-1.32.25Z"/>
    <path class="cls-1" d="m246.44,131.39v-1.56h7.82v1.56h-3.03v7.72h-1.76v-7.72h-3.04Z"/>
    <path class="cls-1" d="m260.08,139.29c-.87,0-1.63-.2-2.28-.6-.65-.4-1.15-.96-1.51-1.67s-.54-1.55-.54-2.51.18-1.8.54-2.52c.36-.72.86-1.28,1.51-1.68.65-.4,1.41-.6,2.28-.6s1.63.2,2.28.6c.65.4,1.15.96,1.51,1.68.36.72.54,1.56.54,2.52s-.18,1.8-.54,2.51-.86,1.27-1.51,1.67c-.65.4-1.41.6-2.28.6Zm0-1.52c.56,0,1.03-.15,1.4-.45.37-.3.64-.69.82-1.19.18-.49.27-1.04.27-1.64s-.09-1.14-.27-1.63c-.18-.5-.45-.9-.82-1.2-.37-.3-.84-.45-1.4-.45s-1.04.15-1.41.45c-.37.3-.65.7-.83,1.2s-.27,1.04-.27,1.63.09,1.14.27,1.64c.18.5.46.89.83,1.19s.84.45,1.41.45Z"/>
    <path class="cls-1" d="m273.09,134.14v1.56c-.28.11-.57.21-.88.3-.31.09-.64.15-.98.2-.34.05-.7.07-1.07.07-1.15,0-2.06-.28-2.73-.84-.68-.56-1.01-1.42-1.01-2.58v-3.03h1.76v3.03c0,.44.08.79.24,1.07.16.27.39.48.69.6s.65.19,1.06.19c.54,0,1.05-.05,1.51-.15s.93-.24,1.42-.42Zm.77-4.3v9.27h-1.76v-9.27h1.76Z"/>
    <path class="cls-1" d="m276.26,139.11v-9.27h1.8v3.89h.87l3.06-3.89h2.23l-3.59,4.51,3.63,4.76h-2.24l-2.79-3.71h-1.18v3.71h-1.8Z"/>
    <path class="cls-1" d="m287.44,136.58l4.09-6.74h1.94v9.27h-1.77v-6.75l-4.07,6.75h-1.96v-9.27h1.77v6.74Z"/>
    <path class="cls-1" d="m302.17,129.83v9.27h-1.77v-9.27h1.77Zm4.52,3.86v1.56h-5.02v-1.56h5.02Zm1.26-3.86v9.27h-1.76v-9.27h1.76Z"/>
    <path class="cls-1" d="m314.35,139.29c-.91,0-1.7-.2-2.36-.59-.66-.39-1.17-.95-1.52-1.66s-.53-1.55-.53-2.51.18-1.79.53-2.51.86-1.29,1.5-1.7,1.39-.61,2.25-.61c.52,0,1.03.09,1.52.26s.93.44,1.32.81c.39.37.7.85.92,1.44.22.59.34,1.3.34,2.15v.64h-7.37v-1.35h5.6c0-.47-.1-.9-.29-1.26s-.46-.66-.81-.87c-.35-.21-.76-.32-1.22-.32-.51,0-.95.12-1.32.37-.38.25-.67.57-.87.97-.2.4-.3.83-.3,1.29v1.06c0,.62.11,1.15.33,1.58s.53.77.92.99.86.34,1.38.34c.34,0,.65-.05.94-.15.28-.1.52-.25.73-.44.21-.2.36-.44.47-.73l1.71.31c-.14.5-.38.94-.73,1.32-.35.38-.79.67-1.32.88-.53.21-1.13.31-1.81.31Z"/>
    <path class="cls-1" d="m324.29,136.66h1.85c.02.38.2.67.52.88.32.21.74.31,1.25.31s.96-.11,1.33-.34c.37-.22.55-.57.55-1.04,0-.28-.07-.53-.21-.74s-.33-.38-.59-.49c-.25-.12-.55-.18-.89-.18h-1.51v-1.42h1.51c.51,0,.89-.12,1.15-.35.25-.23.38-.52.38-.88,0-.38-.14-.68-.41-.91s-.65-.35-1.13-.35-.9.11-1.23.33c-.33.22-.5.5-.51.85h-1.82c.01-.52.17-.98.47-1.37.3-.39.71-.7,1.23-.92.52-.22,1.11-.33,1.77-.33s1.28.11,1.79.33c.5.22.89.53,1.17.92.28.39.41.84.41,1.35s-.15.93-.46,1.25c-.3.32-.7.56-1.19.7v.1c.36.02.68.13.95.33.28.19.5.45.65.77s.24.68.24,1.08c0,.57-.16,1.06-.47,1.47-.31.41-.74.73-1.29.96-.55.22-1.18.33-1.88.33s-1.3-.11-1.84-.32-.97-.52-1.29-.91c-.32-.39-.48-.86-.5-1.4Z"/>
    <path class="cls-1" d="m336.12,139.31c-.59,0-1.12-.11-1.59-.33-.48-.22-.85-.54-1.13-.96s-.41-.93-.41-1.54c0-.52.1-.95.3-1.29.2-.34.47-.61.81-.8s.72-.35,1.15-.45c.42-.1.85-.18,1.29-.23.55-.06,1.01-.12,1.35-.16.35-.04.6-.11.75-.21s.24-.25.24-.47v-.04c0-.53-.15-.94-.44-1.23-.3-.29-.74-.43-1.32-.43s-1.09.13-1.43.4c-.35.27-.59.56-.72.89l-1.7-.39c.2-.56.5-1.02.88-1.37.39-.35.84-.6,1.34-.76.51-.16,1.04-.24,1.6-.24.37,0,.76.04,1.18.13.42.09.81.24,1.17.47.36.23.66.56.9.98.23.42.35.97.35,1.65v6.16h-1.76v-1.27h-.07c-.12.23-.29.46-.52.69-.23.23-.53.41-.9.56s-.8.22-1.32.22Zm.39-1.45c.5,0,.93-.1,1.28-.3.36-.2.63-.46.82-.78.19-.32.28-.66.28-1.03v-1.2c-.06.06-.19.12-.37.18-.18.05-.39.1-.62.14-.23.04-.46.07-.68.1-.22.03-.41.06-.56.08-.35.04-.67.12-.96.22s-.52.25-.69.45c-.17.2-.26.45-.26.78,0,.45.17.78.5,1.01.33.23.75.34,1.26.34Z"/>
    <path class="cls-1" d="m343.1,139.11v-9.27h1.8v3.89h.87l3.06-3.89h2.23l-3.59,4.51,3.63,4.76h-2.24l-2.79-3.71h-1.18v3.71h-1.8Z"/>
    <path class="cls-1" d="m352.51,142.58v-12.75h1.76v1.5h.15c.1-.19.26-.42.45-.67.2-.25.47-.48.82-.67.35-.19.81-.29,1.39-.29.75,0,1.42.19,2,.57.59.38,1.05.92,1.38,1.64.34.71.5,1.57.5,2.57s-.17,1.86-.5,2.57c-.33.71-.79,1.26-1.38,1.65s-1.25.58-2,.58c-.56,0-1.02-.09-1.38-.28-.36-.19-.63-.41-.84-.66s-.36-.48-.46-.68h-.11v4.92h-1.8Zm1.77-8.11c0,.65.09,1.22.28,1.71.19.49.46.87.82,1.15.36.28.8.41,1.32.41s.99-.14,1.35-.43c.36-.29.64-.68.82-1.17.19-.49.28-1.05.28-1.67s-.09-1.16-.28-1.65c-.18-.49-.46-.87-.82-1.15s-.82-.42-1.36-.42-.96.13-1.33.4-.63.65-.82,1.13c-.18.48-.28,1.05-.28,1.69Z"/>
    <path class="cls-1" d="m365.7,139.31c-.59,0-1.12-.11-1.59-.33-.48-.22-.85-.54-1.13-.96s-.41-.93-.41-1.54c0-.52.1-.95.3-1.29.2-.34.47-.61.81-.8s.72-.35,1.15-.45c.42-.1.85-.18,1.29-.23.55-.06,1.01-.12,1.35-.16.35-.04.6-.11.75-.21s.24-.25.24-.47v-.04c0-.53-.15-.94-.44-1.23-.3-.29-.74-.43-1.32-.43s-1.09.13-1.43.4c-.35.27-.59.56-.72.89l-1.7-.39c.2-.56.5-1.02.88-1.37.39-.35.84-.6,1.34-.76.51-.16,1.04-.24,1.6-.24.37,0,.76.04,1.18.13.42.09.81.24,1.17.47.36.23.66.56.9.98.23.42.35.97.35,1.65v6.16h-1.76v-1.27h-.07c-.12.23-.29.46-.52.69-.23.23-.53.41-.9.56s-.8.22-1.32.22Zm.39-1.45c.5,0,.93-.1,1.28-.3.36-.2.63-.46.82-.78.19-.32.28-.66.28-1.03v-1.2c-.06.06-.19.12-.37.18-.18.05-.39.1-.62.14-.23.04-.46.07-.68.1-.22.03-.41.06-.56.08-.35.04-.67.12-.96.22s-.52.25-.69.45c-.17.2-.26.45-.26.78,0,.45.17.78.5,1.01.33.23.75.34,1.26.34Z"/>
    <path class="cls-1" d="m372.68,129.83h1.77v7.71h3.21v-7.71h1.77v7.71h3.21v-7.71h1.77v9.27h-11.72v-9.27Z"/>
    <path class="cls-1" d="m390.79,139.29c-.91,0-1.7-.2-2.36-.59-.66-.39-1.17-.95-1.52-1.66s-.53-1.55-.53-2.51.18-1.79.53-2.51.86-1.29,1.5-1.7,1.39-.61,2.25-.61c.52,0,1.03.09,1.52.26s.93.44,1.32.81c.39.37.7.85.92,1.44.22.59.34,1.3.34,2.15v.64h-7.37v-1.35h5.6c0-.47-.1-.9-.29-1.26s-.46-.66-.81-.87c-.35-.21-.76-.32-1.22-.32-.51,0-.95.12-1.32.37-.38.25-.67.57-.87.97-.2.4-.3.83-.3,1.29v1.06c0,.62.11,1.15.33,1.58s.53.77.92.99.86.34,1.38.34c.34,0,.65-.05.94-.15.28-.1.52-.25.73-.44.21-.2.36-.44.47-.73l1.71.31c-.14.5-.38.94-.73,1.32-.35.38-.79.67-1.32.88-.53.21-1.13.31-1.81.31Z"/>
    <path class="cls-1" d="m398.55,129.83v9.27h-1.77v-9.27h1.77Zm4.52,3.86v1.56h-5.02v-1.56h5.02Zm1.26-3.86v9.27h-1.76v-9.27h1.76Z"/>
    <path class="cls-1" d="m408.1,133.02h2.69c1.13,0,2.01.28,2.62.85.61.56.92,1.29.92,2.18,0,.58-.14,1.1-.41,1.56-.27.46-.67.83-1.2,1.1-.53.27-1.17.4-1.93.4h-4.05v-9.27h1.77v7.72h2.28c.52,0,.95-.14,1.28-.41.33-.27.5-.62.5-1.04,0-.45-.17-.81-.5-1.1s-.76-.43-1.28-.43h-2.69v-1.56Zm7.55,6.09v-9.27h1.8v9.27h-1.8Z"/>
  </g>
  <line class="cls-2" x1="44" y1="175" x2="84" y2="175"/>
  <line class="cls-2" x1="90" y1="175" x2="132" y2="175"/>
  <line class="cls-2" x1="138" y1="175" x2="172" y2="175"/>
  <polygon class="cls-1" points="179.25 175.06 171.75 170.73 171.75 179.39 179.25 175.06"/>
  <path class="cls-1" d="m132,192.55v-.95l2.95-3.06c.32-.33.58-.62.78-.88.21-.25.36-.49.46-.72.1-.23.15-.47.15-.72,0-.29-.07-.54-.2-.75-.14-.21-.32-.38-.56-.49-.24-.12-.5-.17-.8-.17-.31,0-.59.06-.82.19s-.41.31-.54.54c-.12.23-.19.51-.19.82h-1.26c0-.53.12-1,.37-1.39.24-.4.58-.71,1.01-.93.43-.22.91-.33,1.45-.33s1.03.11,1.45.33c.42.22.75.51.98.89.24.37.35.79.35,1.26,0,.32-.06.64-.18.95-.12.31-.33.65-.63,1.03-.3.38-.71.84-1.24,1.38l-1.73,1.82v.06h3.93v1.13h-5.74Z"/>
  <path class="cls-1" d="m86.66,183.82v8.73h-1.32v-7.41h-.05l-2.09,1.36v-1.26l2.18-1.42h1.28Z"/>
  <path class="cls-2" d="m86.98,172c-.57-12.07-18.98-20-42.98-20"/>
  <path class="cls-2" d="m134.98,172c.57-12.07,14.02-20.42,43.02-20"/>
  <path class="cls-2" d="m86.98,172c0-24,48.02-25,48.02,0"/>
  <circle class="cls-3" cx="135" cy="175.06" r="3"/>
  <circle class="cls-3" cx="87" cy="175.06" r="3"/>
  <path class="cls-1" d="m162.69,165.53v-1.15h5.76v1.15h-5.76Zm2.31,2.31v-5.76h1.15v5.76h-1.15Z"/>
  <path class="cls-1" d="m51.69,165.53v-1.15h5.76v1.15h-5.76Zm2.31,2.31v-5.76h1.15v5.76h-1.15Z"/>
  <path class="cls-1" d="m113.78,164.15v1.1h-3.87v-1.1h3.87Z"/>
  <g>
    <path class="cls-1" d="m1.93,211.54v-12.36h1.87v5.37h6.16v-5.37h1.87v12.36h-1.87v-5.39H3.8v5.39h-1.87Z"/>
    <path class="cls-1" d="m18.4,211.73c-.91,0-1.7-.2-2.36-.59-.66-.39-1.17-.95-1.52-1.66-.36-.71-.53-1.55-.53-2.51s.18-1.79.53-2.51c.36-.72.86-1.29,1.5-1.7.64-.41,1.39-.61,2.25-.61.52,0,1.03.09,1.52.26.49.17.93.44,1.32.81.39.37.7.85.92,1.44s.34,1.3.34,2.15v.64h-7.37v-1.35h5.6c0-.47-.1-.9-.29-1.26-.19-.37-.46-.66-.81-.87-.35-.21-.76-.32-1.22-.32-.51,0-.95.12-1.33.37-.38.25-.67.57-.87.97-.2.4-.31.83-.31,1.29v1.06c0,.62.11,1.15.33,1.58.22.43.53.77.92.99.39.23.85.34,1.38.34.34,0,.65-.05.94-.15s.53-.25.73-.44c.21-.2.36-.44.47-.73l1.71.31c-.14.5-.38.94-.73,1.32-.35.38-.79.67-1.32.88-.53.21-1.13.31-1.81.31Z"/>
    <path class="cls-1" d="m24.39,215.02v-12.75h1.76v1.5h.15c.1-.19.26-.42.45-.67.2-.25.47-.48.82-.67s.81-.29,1.39-.29c.75,0,1.42.19,2,.57.59.38,1.05.92,1.39,1.64.34.71.5,1.57.5,2.57s-.17,1.86-.5,2.57c-.33.71-.79,1.26-1.38,1.65-.58.38-1.25.58-2,.58-.56,0-1.02-.09-1.38-.28-.36-.19-.64-.41-.84-.66s-.36-.48-.46-.68h-.11v4.92h-1.81Zm1.77-8.11c0,.65.09,1.22.28,1.71.19.49.46.87.82,1.15.36.28.8.41,1.32.41s.99-.14,1.35-.43.64-.68.82-1.17c.19-.5.28-1.05.28-1.67s-.09-1.16-.27-1.65c-.18-.49-.46-.87-.82-1.15-.36-.28-.82-.42-1.36-.42s-.96.13-1.32.4c-.36.27-.63.65-.82,1.13-.19.48-.28,1.05-.28,1.69Z"/>
    <path class="cls-1" d="m37.58,211.74c-.59,0-1.12-.11-1.59-.33-.48-.22-.85-.54-1.13-.96-.28-.42-.41-.93-.41-1.54,0-.52.1-.95.3-1.29s.47-.61.81-.8c.34-.2.72-.35,1.15-.45.42-.1.85-.18,1.29-.23.56-.06,1.01-.12,1.35-.16.35-.04.6-.11.75-.21.16-.1.24-.25.24-.47v-.04c0-.53-.15-.94-.44-1.23-.3-.29-.74-.43-1.32-.43s-1.09.13-1.43.4c-.35.27-.59.56-.72.89l-1.7-.39c.2-.56.5-1.02.88-1.37.39-.35.84-.6,1.34-.76.51-.16,1.04-.24,1.6-.24.37,0,.76.04,1.18.13s.81.24,1.17.47.66.56.9.98.35.97.35,1.65v6.16h-1.76v-1.27h-.07c-.12.23-.29.46-.53.69-.23.22-.53.41-.9.56-.37.15-.81.22-1.32.22Zm.39-1.45c.5,0,.93-.1,1.28-.3.36-.2.63-.46.81-.78.19-.32.28-.66.28-1.03v-1.2c-.06.06-.19.12-.37.18-.18.05-.39.1-.62.14-.23.04-.46.07-.68.1-.22.03-.41.06-.56.08-.35.04-.67.12-.96.22-.29.1-.52.25-.69.45-.17.2-.26.45-.26.78,0,.45.17.78.5,1.01s.75.34,1.26.34Z"/>
    <path class="cls-1" d="m44.56,211.54v-9.27h3.85c1.05,0,1.88.22,2.49.67.61.44.92,1.05.92,1.81,0,.54-.17.97-.52,1.29-.35.32-.81.53-1.38.64.41.05.79.17,1.14.37s.62.47.84.8c.21.33.32.73.32,1.2,0,.49-.13.92-.38,1.3s-.62.67-1.1.88c-.48.21-1.06.32-1.74.32h-4.43Zm1.7-5.41h2.17c.34,0,.63-.05.87-.14.24-.1.43-.23.56-.41.13-.18.2-.39.2-.64,0-.36-.15-.64-.44-.84-.29-.2-.7-.3-1.21-.3h-2.15v2.34Zm0,3.9h2.73c.45,0,.8-.11,1.05-.32.25-.21.38-.5.38-.87,0-.43-.13-.77-.38-1.02-.25-.25-.6-.37-1.05-.37h-2.73v2.58Z"/>
    <path class="cls-1" d="m58.18,211.73c-.91,0-1.7-.2-2.36-.59-.66-.39-1.17-.95-1.52-1.66-.36-.71-.53-1.55-.53-2.51s.18-1.79.53-2.51c.36-.72.86-1.29,1.5-1.7.64-.41,1.39-.61,2.25-.61.52,0,1.03.09,1.52.26.49.17.93.44,1.32.81.39.37.7.85.92,1.44s.34,1.3.34,2.15v.64h-7.37v-1.35h5.6c0-.47-.1-.9-.29-1.26-.19-.37-.46-.66-.81-.87-.35-.21-.76-.32-1.22-.32-.51,0-.95.12-1.33.37-.38.25-.67.57-.87.97-.2.4-.31.83-.31,1.29v1.06c0,.62.11,1.15.33,1.58.22.43.53.77.92.99.39.23.85.34,1.38.34.34,0,.65-.05.94-.15s.53-.25.73-.44c.21-.2.36-.44.47-.73l1.71.31c-.14.5-.38.94-.73,1.32-.35.38-.79.67-1.32.88-.53.21-1.13.31-1.81.31Z"/>
    <path class="cls-1" d="m65.94,202.27v9.27h-1.77v-9.27h1.77Zm4.52,3.86v1.56h-5.02v-1.56h5.02Zm1.26-3.86v9.27h-1.76v-9.27h1.76Z"/>
    <path class="cls-1" d="m78.03,211.73c-.9,0-1.67-.2-2.31-.61-.65-.41-1.14-.97-1.49-1.69-.35-.72-.52-1.54-.52-2.47s.18-1.77.53-2.5c.35-.72.85-1.29,1.5-1.69.64-.41,1.4-.61,2.28-.61.7,0,1.33.13,1.88.39.55.26,1,.62,1.34,1.09.34.47.54,1.01.61,1.64h-1.76c-.1-.43-.32-.81-.66-1.12-.34-.31-.8-.47-1.38-.47-.5,0-.94.13-1.32.4-.38.26-.67.64-.88,1.12-.21.48-.31,1.06-.31,1.72s.1,1.26.31,1.75c.21.49.5.87.87,1.14.38.27.82.41,1.33.41.34,0,.65-.06.93-.19s.52-.31.71-.55c.19-.24.32-.52.4-.86h1.76c-.06.6-.26,1.13-.59,1.61-.33.47-.76.84-1.31,1.11-.55.27-1.18.41-1.92.41Z"/>
    <path class="cls-1" d="m83.25,203.82v-1.56h7.82v1.56h-3.02v7.71h-1.76v-7.71h-3.04Z"/>
    <path class="cls-1" d="m92.99,211.54v-9.27h3.85c1.05,0,1.88.22,2.49.67.61.44.92,1.05.92,1.81,0,.54-.17.97-.52,1.29-.35.32-.81.53-1.38.64.41.05.79.17,1.14.37s.62.47.84.8c.21.33.32.73.32,1.2,0,.49-.13.92-.38,1.3s-.62.67-1.1.88c-.48.21-1.06.32-1.74.32h-4.43Zm1.7-5.41h2.17c.34,0,.63-.05.87-.14.24-.1.43-.23.56-.41.13-.18.2-.39.2-.64,0-.36-.15-.64-.44-.84-.29-.2-.7-.3-1.21-.3h-2.15v2.34Zm0,3.9h2.73c.45,0,.8-.11,1.05-.32.25-.21.38-.5.38-.87,0-.43-.13-.77-.38-1.02-.25-.25-.6-.37-1.05-.37h-2.73v2.58Z"/>
    <path class="cls-1" d="m106.51,211.73c-.87,0-1.63-.2-2.28-.6s-1.15-.96-1.51-1.67-.54-1.55-.54-2.51.18-1.8.54-2.52c.36-.72.86-1.28,1.51-1.68s1.41-.6,2.28-.6,1.63.2,2.28.6,1.15.96,1.51,1.68c.36.72.54,1.56.54,2.52s-.18,1.79-.54,2.51c-.36.72-.86,1.27-1.51,1.67s-1.41.6-2.28.6Zm0-1.52c.56,0,1.03-.15,1.4-.45s.65-.69.82-1.19c.18-.5.27-1.04.27-1.64s-.09-1.14-.27-1.63c-.18-.5-.45-.9-.82-1.2s-.84-.45-1.4-.45-1.04.15-1.41.45c-.37.3-.65.7-.83,1.2s-.27,1.04-.27,1.63.09,1.14.27,1.64.45.89.83,1.19c.37.3.84.45,1.41.45Z"/>
    <path class="cls-1" d="m124.5,198.81l.75,1.14c-.28.25-.59.43-.94.54-.35.11-.76.17-1.22.2-.46.03-.98.05-1.58.07-.67.02-1.22.16-1.65.43-.43.27-.76.66-.99,1.18s-.38,1.17-.45,1.96h.11c.3-.58.72-1.01,1.26-1.29.54-.29,1.14-.43,1.81-.43.75,0,1.41.17,2,.51.58.34,1.04.84,1.38,1.5s.5,1.46.5,2.41-.18,1.79-.53,2.49c-.35.7-.85,1.24-1.49,1.62-.64.38-1.39.57-2.25.57s-1.62-.2-2.26-.59c-.64-.39-1.14-.97-1.49-1.75-.35-.77-.53-1.73-.53-2.86v-.92c0-2.12.38-3.72,1.13-4.79.76-1.07,1.89-1.62,3.39-1.65.49-.01.92-.02,1.3,0,.38,0,.72-.01,1.01-.05.29-.04.53-.14.72-.3Zm-3.27,11.4c.5,0,.94-.13,1.3-.38.36-.25.65-.62.84-1.09.2-.47.3-1.03.3-1.67s-.1-1.16-.3-1.6c-.2-.44-.48-.77-.85-1s-.81-.35-1.32-.35c-.38,0-.72.07-1.01.2-.3.13-.55.32-.76.58-.21.25-.37.56-.49.93s-.18.78-.18,1.25c0,.96.22,1.72.66,2.29s1.04.85,1.81.85Z"/>
    <path class="cls-1" d="m131.42,211.73c-.87,0-1.63-.2-2.28-.6s-1.15-.96-1.51-1.67-.54-1.55-.54-2.51.18-1.8.54-2.52c.36-.72.86-1.28,1.51-1.68s1.41-.6,2.28-.6,1.63.2,2.28.6c.65.4,1.15.96,1.51,1.68.36.72.54,1.56.54,2.52s-.18,1.79-.54,2.51c-.36.72-.86,1.27-1.51,1.67-.65.4-1.41.6-2.28.6Zm0-1.52c.56,0,1.03-.15,1.4-.45.37-.3.64-.69.82-1.19.18-.5.27-1.04.27-1.64s-.09-1.14-.27-1.63c-.18-.5-.45-.9-.82-1.2-.37-.3-.84-.45-1.4-.45s-1.04.15-1.41.45c-.37.3-.65.7-.83,1.2s-.27,1.04-.27,1.63.09,1.14.27,1.64.45.89.83,1.19c.37.3.84.45,1.41.45Z"/>
    <path class="cls-1" d="m137.02,211.54v-1.56s.33,0,.33,0c.26,0,.47-.06.65-.17s.32-.3.43-.56c.11-.27.2-.63.26-1.1s.1-1.06.13-1.77l.16-4.1h6.47v9.27h-1.77v-7.71h-3.03l-.14,3.15c-.04.76-.11,1.43-.23,2-.12.57-.29,1.05-.52,1.43-.23.38-.51.66-.87.85-.35.19-.79.28-1.29.28h-.58Z"/>
    <path class="cls-1" d="m149.21,205.45h2.69c1.13,0,2.01.28,2.62.84.61.56.92,1.29.92,2.18,0,.58-.14,1.1-.41,1.56-.27.46-.67.83-1.2,1.1-.53.27-1.17.4-1.93.4h-4.05v-9.27h1.77v7.71h2.28c.52,0,.95-.14,1.28-.41s.5-.62.5-1.04c0-.45-.17-.81-.5-1.1-.33-.28-.76-.42-1.28-.42h-2.69v-1.56Z"/>
    <path class="cls-1" d="m157.47,202.27h1.77v7.71h3.21v-7.71h1.77v7.71h3.21v-7.71h1.77v9.27h-11.72v-9.27Z"/>
    <path class="cls-1" d="m175.58,211.73c-.91,0-1.7-.2-2.36-.59s-1.17-.95-1.52-1.66c-.36-.71-.53-1.55-.53-2.51s.18-1.79.53-2.51c.36-.72.86-1.29,1.5-1.7.64-.41,1.39-.61,2.25-.61.52,0,1.03.09,1.52.26s.93.44,1.32.81c.39.37.7.85.92,1.44.22.59.34,1.3.34,2.15v.64h-7.37v-1.35h5.6c0-.47-.1-.9-.29-1.26s-.46-.66-.81-.87c-.35-.21-.76-.32-1.22-.32-.51,0-.95.12-1.32.37-.38.25-.67.57-.87.97s-.3.83-.3,1.29v1.06c0,.62.11,1.15.33,1.58.22.43.53.77.92.99.39.23.86.34,1.38.34.34,0,.65-.05.94-.15.28-.1.52-.25.73-.44.21-.2.36-.44.47-.73l1.71.31c-.14.5-.38.94-.73,1.32-.35.38-.79.67-1.32.88s-1.13.31-1.81.31Z"/>
    <path class="cls-1" d="m187.84,202.27v9.27h-1.77v-9.27h1.77Zm4.52,3.86v1.56h-5.02v-1.56h5.02Zm1.26-3.86v9.27h-1.76v-9.27h1.76Z"/>
    <path class="cls-1" d="m197.17,215.02c-.27,0-.52-.02-.74-.06-.22-.04-.39-.09-.5-.14l.43-1.48c.33.09.62.13.88.12.26-.01.49-.11.69-.29.2-.18.38-.48.53-.89l.22-.62-3.39-9.39h1.93l2.35,7.2h.1l2.35-7.2h1.94l-3.82,10.51c-.18.48-.4.89-.68,1.23s-.6.59-.98.76c-.38.17-.82.25-1.32.25Z"/>
    <path class="cls-1" d="m204.93,211.54v-1.56s.33,0,.33,0c.26,0,.47-.06.65-.17s.32-.3.43-.56c.11-.27.2-.63.26-1.1s.1-1.06.13-1.77l.16-4.1h6.47v9.27h-1.77v-7.71h-3.03l-.14,3.15c-.04.76-.11,1.43-.23,2-.12.57-.29,1.05-.52,1.43-.23.38-.51.66-.87.85-.35.19-.79.28-1.29.28h-.58Z"/>
    <path class="cls-1" d="m215.21,211.54l2.61-4.68h1.85l-2.61,4.68h-1.85Zm6.08,0v-7.73h-2.22c-.53,0-.94.12-1.23.37-.29.25-.44.57-.44.97s.14.71.41.95.65.36,1.14.36h2.87v1.46h-2.87c-.68,0-1.28-.11-1.77-.34-.5-.23-.88-.55-1.15-.97-.27-.42-.4-.91-.4-1.48s.14-1.09.41-1.51.67-.75,1.19-.99c.52-.23,1.13-.35,1.84-.35h3.92v9.27h-1.7Z"/>
    <path class="cls-1" d="m227.75,209.85l-.09.66c-.06.48-.16.99-.31,1.51-.14.53-.29,1.01-.44,1.46-.15.45-.27.81-.37,1.07h-1.28c.05-.25.12-.59.22-1.01.09-.42.18-.9.27-1.42.09-.52.16-1.06.2-1.6l.06-.68h1.74Z"/>
    <path class="cls-1" d="m234.05,209.09h1.85c.02.38.2.67.52.88.32.21.74.31,1.25.31s.96-.11,1.33-.33c.37-.22.55-.57.55-1.04,0-.28-.07-.53-.21-.74s-.33-.38-.59-.49c-.25-.12-.55-.17-.89-.17h-1.51v-1.42h1.51c.51,0,.89-.12,1.15-.35s.38-.53.38-.88c0-.38-.14-.68-.41-.91s-.65-.35-1.13-.35-.9.11-1.23.33c-.33.22-.5.5-.51.85h-1.82c.01-.52.17-.98.47-1.37.3-.39.71-.7,1.23-.92.52-.22,1.11-.33,1.77-.33s1.28.11,1.79.33.89.53,1.17.92c.28.39.41.84.41,1.35s-.15.93-.46,1.25-.7.56-1.19.7v.1c.36.02.68.13.95.33.28.19.5.45.65.77.16.32.24.68.24,1.08,0,.57-.16,1.06-.47,1.47-.31.41-.74.73-1.29.96-.55.22-1.18.33-1.88.33s-1.3-.11-1.84-.32c-.54-.22-.97-.52-1.29-.92-.32-.39-.48-.86-.5-1.4Z"/>
    <path class="cls-1" d="m244.95,202.27v9.27h-1.77v-9.27h1.77Zm4.52,3.86v1.56h-5.02v-1.56h5.02Zm1.26-3.86v9.27h-1.76v-9.27h1.76Z"/>
    <path class="cls-1" d="m255.84,211.74c-.59,0-1.12-.11-1.59-.33-.48-.22-.85-.54-1.13-.96-.28-.42-.41-.93-.41-1.54,0-.52.1-.95.3-1.29.2-.34.47-.61.81-.8s.72-.35,1.15-.45c.42-.1.85-.18,1.29-.23.55-.06,1.01-.12,1.35-.16.35-.04.6-.11.75-.21.16-.1.24-.25.24-.47v-.04c0-.53-.15-.94-.44-1.23s-.74-.43-1.32-.43-1.09.13-1.43.4c-.35.27-.59.56-.72.89l-1.7-.39c.2-.56.5-1.02.88-1.37.39-.35.84-.6,1.34-.76.51-.16,1.04-.24,1.6-.24.37,0,.76.04,1.18.13.42.09.81.24,1.17.47s.66.56.9.98.35.97.35,1.65v6.16h-1.76v-1.27h-.07c-.12.23-.29.46-.52.69-.23.22-.53.41-.9.56-.37.15-.8.22-1.32.22Zm.39-1.45c.5,0,.93-.1,1.28-.3.36-.2.63-.46.82-.78.19-.32.28-.66.28-1.03v-1.2c-.06.06-.19.12-.37.18-.18.05-.39.1-.62.14s-.46.07-.68.1c-.22.03-.41.06-.56.08-.35.04-.67.12-.96.22s-.52.25-.69.45c-.17.2-.26.45-.26.78,0,.45.17.78.5,1.01s.75.34,1.26.34Z"/>
    <path class="cls-1" d="m269.49,206.57v1.56c-.28.11-.57.21-.88.3-.31.09-.64.15-.98.2-.34.05-.7.07-1.07.07-1.15,0-2.06-.28-2.73-.84s-1.01-1.42-1.01-2.58v-3.03h1.76v3.03c0,.44.08.79.24,1.07.16.27.39.47.69.6s.65.19,1.06.19c.54,0,1.05-.05,1.51-.15s.93-.24,1.42-.42Zm.77-4.3v9.27h-1.76v-9.27h1.76Z"/>
    <path class="cls-1" d="m274.44,209.01l4.09-6.74h1.94v9.27h-1.77v-6.75l-4.07,6.75h-1.96v-9.27h1.77v6.74Z"/>
    <path class="cls-1" d="m282.38,203.82v-1.56h7.82v1.56h-3.03v7.71h-1.76v-7.71h-3.04Z"/>
    <path class="cls-1" d="m298.38,202.27v9.27h-1.77v-9.27h1.77Zm4.52,3.86v1.56h-5.02v-1.56h5.02Zm1.26-3.86v9.27h-1.76v-9.27h1.76Z"/>
    <path class="cls-1" d="m309.26,211.74c-.59,0-1.12-.11-1.59-.33-.48-.22-.85-.54-1.13-.96-.28-.42-.41-.93-.41-1.54,0-.52.1-.95.3-1.29.2-.34.47-.61.81-.8s.72-.35,1.15-.45c.42-.1.85-.18,1.29-.23.55-.06,1.01-.12,1.35-.16.35-.04.6-.11.75-.21.16-.1.24-.25.24-.47v-.04c0-.53-.15-.94-.44-1.23s-.74-.43-1.32-.43-1.09.13-1.43.4c-.35.27-.59.56-.72.89l-1.7-.39c.2-.56.5-1.02.88-1.37.39-.35.84-.6,1.34-.76.51-.16,1.04-.24,1.6-.24.37,0,.76.04,1.18.13.42.09.81.24,1.17.47s.66.56.9.98.35.97.35,1.65v6.16h-1.76v-1.27h-.07c-.12.23-.29.46-.52.69-.23.22-.53.41-.9.56-.37.15-.8.22-1.32.22Zm.39-1.45c.5,0,.93-.1,1.28-.3.36-.2.63-.46.82-.78.19-.32.28-.66.28-1.03v-1.2c-.06.06-.19.12-.37.18-.18.05-.39.1-.62.14s-.46.07-.68.1c-.22.03-.41.06-.56.08-.35.04-.67.12-.96.22s-.52.25-.69.45c-.17.2-.26.45-.26.78,0,.45.17.78.5,1.01s.75.34,1.26.34Z"/>
    <path class="cls-1" d="m318.01,202.27v9.27h-1.77v-9.27h1.77Zm3.43,7.04l2.99-7.04h1.56l-3.88,9.27h-1.34l-3.8-9.27h1.54l2.93,7.04Zm3.48,2.23v-9.27h1.76v9.27h-1.76Z"/>
    <path class="cls-1" d="m335.37,202.27v9.27h-1.77v-9.27h1.77Zm4.52,3.86v1.56h-5.02v-1.56h5.02Zm1.26-3.86v9.27h-1.76v-9.27h1.76Z"/>
    <path class="cls-1" d="m344.69,215.02c-.27,0-.52-.02-.74-.06-.22-.04-.39-.09-.5-.14l.43-1.48c.33.09.62.13.88.12.26-.01.49-.11.69-.29.2-.18.38-.48.53-.89l.22-.62-3.39-9.39h1.93l2.35,7.2h.1l2.35-7.2h1.94l-3.82,10.51c-.18.48-.4.89-.68,1.23s-.6.59-.98.76c-.38.17-.82.25-1.32.25Z"/>
    <path class="cls-1" d="m352.59,211.54l3.59-4.75-3.55-4.53h2.1l2.87,3.85h.65v-3.85h1.8v3.85h.63l2.87-3.85h2.1l-3.53,4.53,3.57,4.75h-2.14l-2.89-3.86h-.6v3.86h-1.8v-3.86h-.6l-2.91,3.86h-2.14Z"/>
    <path class="cls-1" d="m369.29,202.27v9.27h-1.77v-9.27h1.77Zm4.52,3.86v1.56h-5.02v-1.56h5.02Zm1.26-3.86v9.27h-1.76v-9.27h1.76Z"/>
    <path class="cls-1" d="m378.84,205.45h2.69c1.13,0,2.01.28,2.62.84.61.56.92,1.29.92,2.18,0,.58-.14,1.1-.41,1.56-.27.46-.67.83-1.2,1.1-.53.27-1.17.4-1.93.4h-4.05v-9.27h1.77v7.71h2.28c.52,0,.95-.14,1.28-.41s.5-.62.5-1.04c0-.45-.17-.81-.5-1.1-.33-.28-.76-.42-1.28-.42h-2.69v-1.56Zm7.55,6.08v-9.27h1.8v9.27h-1.8Z"/>
    <path class="cls-1" d="m1.79,231.54v-9.27h7.56v9.27h-1.77v-7.71H3.54v7.71h-1.76Z"/>
    <path class="cls-1" d="m15.68,231.73c-.87,0-1.63-.2-2.28-.6s-1.15-.96-1.51-1.67-.54-1.55-.54-2.51.18-1.8.54-2.52c.36-.72.86-1.28,1.51-1.68s1.41-.6,2.28-.6,1.63.2,2.28.6,1.15.96,1.51,1.68c.36.72.54,1.56.54,2.52s-.18,1.79-.54,2.51c-.36.72-.86,1.27-1.51,1.67s-1.41.6-2.28.6Zm0-1.52c.56,0,1.03-.15,1.4-.45s.65-.69.82-1.19c.18-.5.27-1.04.27-1.64s-.09-1.14-.27-1.63c-.18-.5-.45-.9-.82-1.2s-.84-.45-1.4-.45-1.04.15-1.41.45c-.37.3-.65.7-.83,1.2s-.27,1.04-.27,1.63.09,1.14.27,1.64.45.89.83,1.19c.37.3.84.45,1.41.45Z"/>
    <path class="cls-1" d="m21.28,231.54v-1.56s.33,0,.33,0c.26,0,.47-.06.65-.17.17-.11.32-.3.43-.56.11-.27.2-.63.26-1.1.06-.47.1-1.06.13-1.77l.16-4.1h6.47v9.27h-1.77v-7.71h-3.03l-.15,3.15c-.04.76-.11,1.43-.23,2s-.29,1.05-.52,1.43c-.23.38-.52.66-.87.85-.35.19-.78.28-1.29.28h-.58Z"/>
    <path class="cls-1" d="m36.02,231.73c-.87,0-1.63-.2-2.28-.6s-1.15-.96-1.51-1.67-.54-1.55-.54-2.51.18-1.8.54-2.52c.36-.72.86-1.28,1.51-1.68s1.41-.6,2.28-.6,1.63.2,2.28.6,1.15.96,1.51,1.68c.36.72.54,1.56.54,2.52s-.18,1.79-.54,2.51c-.36.72-.86,1.27-1.51,1.67s-1.41.6-2.28.6Zm0-1.52c.56,0,1.03-.15,1.4-.45s.65-.69.82-1.19c.18-.5.27-1.04.27-1.64s-.09-1.14-.27-1.63c-.18-.5-.45-.9-.82-1.2s-.84-.45-1.4-.45-1.04.15-1.41.45c-.37.3-.65.7-.83,1.2s-.27,1.04-.27,1.63.09,1.14.27,1.64.45.89.83,1.19c.37.3.84.45,1.41.45Z"/>
    <path class="cls-1" d="m41.76,231.54l3.59-4.75-3.55-4.53h2.1l2.87,3.85h.65v-3.85h1.81v3.85h.63l2.87-3.85h2.1l-3.53,4.53,3.57,4.75h-2.14l-2.89-3.86h-.6v3.86h-1.81v-3.86h-.6l-2.91,3.86h-2.14Z"/>
    <path class="cls-1" d="m58.47,229.01l4.09-6.74h1.94v9.27h-1.77v-6.75l-4.07,6.75h-1.96v-9.27h1.77v6.74Z"/>
    <path class="cls-1" d="m66.41,223.82v-1.56h7.82v1.56h-3.02v7.71h-1.76v-7.71h-3.04Z"/>
    <path class="cls-1" d="m80.13,231.73c-.91,0-1.7-.2-2.36-.59-.66-.39-1.17-.95-1.52-1.66-.36-.71-.53-1.55-.53-2.51s.18-1.79.53-2.51c.36-.72.86-1.29,1.5-1.7.64-.41,1.39-.61,2.25-.61.52,0,1.03.09,1.52.26.49.17.93.44,1.32.81.39.37.7.85.92,1.44s.34,1.3.34,2.15v.64h-7.37v-1.35h5.6c0-.47-.1-.9-.29-1.26-.19-.37-.46-.66-.81-.87-.35-.21-.76-.32-1.22-.32-.51,0-.95.12-1.33.37-.38.25-.67.57-.87.97-.2.4-.31.83-.31,1.29v1.06c0,.62.11,1.15.33,1.58.22.43.53.77.92.99.39.23.85.34,1.38.34.34,0,.65-.05.94-.15s.53-.25.73-.44c.21-.2.36-.44.47-.73l1.71.31c-.14.5-.38.94-.73,1.32-.35.38-.79.67-1.32.88-.53.21-1.13.31-1.81.31Z"/>
    <path class="cls-1" d="m85.39,231.54v-1.56s.33,0,.33,0c.26,0,.47-.06.65-.17.17-.11.32-.3.43-.56.11-.27.2-.63.26-1.1.06-.47.1-1.06.13-1.77l.16-4.1h6.47v9.27h-1.77v-7.71h-3.03l-.15,3.15c-.04.76-.11,1.43-.23,2s-.29,1.05-.52,1.43c-.23.38-.52.66-.87.85-.35.19-.78.28-1.29.28h-.58Z"/>
    <path class="cls-1" d="m97.59,225.45h2.69c1.13,0,2.01.28,2.62.84s.92,1.29.92,2.18c0,.58-.14,1.1-.41,1.56-.27.46-.67.83-1.2,1.1s-1.17.4-1.93.4h-4.05v-9.27h1.77v7.71h2.28c.52,0,.95-.14,1.28-.41s.5-.62.5-1.04c0-.45-.17-.81-.5-1.1-.33-.28-.76-.42-1.28-.42h-2.69v-1.56Z"/>
    <path class="cls-1" d="m107.61,222.27v9.27h-1.77v-9.27h1.77Zm4.52,3.86v1.56h-5.02v-1.56h5.02Zm1.26-3.86v9.27h-1.76v-9.27h1.76Z"/>
    <path class="cls-1" d="m117.15,225.45h2.69c1.13,0,2.01.28,2.62.84s.92,1.29.92,2.18c0,.58-.14,1.1-.41,1.56-.27.46-.67.83-1.2,1.1s-1.17.4-1.93.4h-4.05v-9.27h1.77v7.71h2.28c.52,0,.95-.14,1.28-.41s.5-.62.5-1.04c0-.45-.17-.81-.5-1.1-.33-.28-.76-.42-1.28-.42h-2.69v-1.56Zm7.55,6.08v-9.27h1.81v9.27h-1.81Z"/>
    <path class="cls-1" d="m132.93,231.73c-.91,0-1.7-.2-2.36-.59s-1.17-.95-1.52-1.66c-.36-.71-.53-1.55-.53-2.51s.18-1.79.53-2.51c.36-.72.86-1.29,1.5-1.7.64-.41,1.39-.61,2.25-.61.52,0,1.03.09,1.52.26s.93.44,1.32.81c.39.37.7.85.92,1.44.22.59.34,1.3.34,2.15v.64h-7.37v-1.35h5.6c0-.47-.1-.9-.29-1.26s-.46-.66-.81-.87c-.35-.21-.76-.32-1.22-.32-.51,0-.95.12-1.32.37-.38.25-.67.57-.87.97-.2.4-.31.83-.31,1.29v1.06c0,.62.11,1.15.33,1.58.22.43.53.77.92.99.39.23.86.34,1.38.34.34,0,.65-.05.94-.15.28-.1.52-.25.73-.44.21-.2.36-.44.47-.73l1.71.31c-.14.5-.38.94-.73,1.32-.35.38-.79.67-1.32.88s-1.13.31-1.81.31Z"/>
    <path class="cls-1" d="m142.87,229.09h1.85c.02.38.2.67.52.88.32.21.74.31,1.25.31s.96-.11,1.33-.33c.37-.22.55-.57.55-1.04,0-.28-.07-.53-.21-.74s-.33-.38-.59-.49c-.25-.12-.55-.17-.89-.17h-1.51v-1.42h1.51c.51,0,.89-.12,1.15-.35s.38-.53.38-.88c0-.38-.14-.68-.41-.91s-.65-.35-1.13-.35-.9.11-1.23.33c-.33.22-.5.5-.51.85h-1.82c.01-.52.17-.98.47-1.37.3-.39.71-.7,1.23-.92.52-.22,1.11-.33,1.77-.33s1.28.11,1.79.33.89.53,1.17.92c.28.39.41.84.41,1.35s-.15.93-.46,1.25-.7.56-1.19.7v.1c.36.02.68.13.95.33.28.19.5.45.65.77.16.32.24.68.24,1.08,0,.57-.16,1.06-.47,1.47-.31.41-.74.73-1.29.96-.55.22-1.18.33-1.88.33s-1.3-.11-1.84-.32c-.54-.22-.97-.52-1.29-.92-.32-.39-.48-.86-.5-1.4Z"/>
    <path class="cls-1" d="m153.77,222.27v9.27h-1.77v-9.27h1.77Zm4.52,3.86v1.56h-5.02v-1.56h5.02Zm1.26-3.86v9.27h-1.76v-9.27h1.76Z"/>
    <path class="cls-1" d="m164.66,231.74c-.59,0-1.12-.11-1.59-.33-.48-.22-.85-.54-1.13-.96-.28-.42-.41-.93-.41-1.54,0-.52.1-.95.3-1.29.2-.34.47-.61.81-.8s.72-.35,1.15-.45c.42-.1.85-.18,1.29-.23.55-.06,1.01-.12,1.35-.16.35-.04.6-.11.75-.21.16-.1.24-.25.24-.47v-.04c0-.53-.15-.94-.44-1.23s-.74-.43-1.32-.43-1.09.13-1.43.4c-.35.27-.59.56-.72.89l-1.7-.39c.2-.56.5-1.02.88-1.37.39-.35.84-.6,1.34-.76.51-.16,1.04-.24,1.6-.24.37,0,.76.04,1.18.13.42.09.81.24,1.17.47s.66.56.9.98.35.97.35,1.65v6.16h-1.76v-1.27h-.07c-.12.23-.29.46-.52.69-.23.22-.53.41-.9.56-.37.15-.8.22-1.32.22Zm.39-1.45c.5,0,.93-.1,1.28-.3.36-.2.63-.46.82-.78.19-.32.28-.66.28-1.03v-1.2c-.06.06-.19.12-.37.18-.18.05-.39.1-.62.14s-.46.07-.68.1c-.22.03-.41.06-.56.08-.35.04-.67.12-.96.22s-.52.25-.69.45c-.17.2-.26.45-.26.78,0,.45.17.78.5,1.01s.75.34,1.26.34Z"/>
    <path class="cls-1" d="m178.31,226.57v1.56c-.28.11-.57.21-.88.3-.31.09-.64.15-.98.2-.34.05-.7.07-1.07.07-1.15,0-2.06-.28-2.73-.84s-1.01-1.42-1.01-2.58v-3.03h1.76v3.03c0,.44.08.79.24,1.07.16.27.39.47.69.6s.65.19,1.06.19c.54,0,1.05-.05,1.51-.15s.93-.24,1.42-.42Zm.77-4.3v9.27h-1.76v-9.27h1.76Z"/>
    <path class="cls-1" d="m185.48,231.73c-.91,0-1.7-.2-2.36-.59s-1.17-.95-1.52-1.66c-.36-.71-.53-1.55-.53-2.51s.18-1.79.53-2.51c.36-.72.86-1.29,1.5-1.7.64-.41,1.39-.61,2.25-.61.52,0,1.03.09,1.52.26s.93.44,1.32.81c.39.37.7.85.92,1.44.22.59.34,1.3.34,2.15v.64h-7.37v-1.35h5.6c0-.47-.1-.9-.29-1.26s-.46-.66-.81-.87c-.35-.21-.76-.32-1.22-.32-.51,0-.95.12-1.32.37-.38.25-.67.57-.87.97s-.3.83-.3,1.29v1.06c0,.62.11,1.15.33,1.58.22.43.53.77.92.99.39.23.86.34,1.38.34.34,0,.65-.05.94-.15.28-.1.52-.25.73-.44.21-.2.36-.44.47-.73l1.71.31c-.14.5-.38.94-.73,1.32-.35.38-.79.67-1.32.88s-1.13.31-1.81.31Z"/>
    <path class="cls-1" d="m193.24,222.27v9.27h-1.77v-9.27h1.77Zm4.52,3.86v1.56h-5.02v-1.56h5.02Zm1.26-3.86v9.27h-1.76v-9.27h1.76Z"/>
    <path class="cls-1" d="m203.2,229.01l4.09-6.74h1.94v9.27h-1.77v-6.75l-4.07,6.75h-1.96v-9.27h1.77v6.74Z"/>
    <path class="cls-1" d="m211.1,231.54l2.61-4.68h1.85l-2.61,4.68h-1.85Zm6.08,0v-7.73h-2.22c-.53,0-.94.12-1.23.37-.29.25-.44.57-.44.97s.14.71.41.95.65.36,1.14.36h2.87v1.46h-2.87c-.68,0-1.28-.11-1.77-.34-.5-.23-.88-.55-1.15-.97-.27-.42-.4-.91-.4-1.48s.14-1.09.41-1.51.67-.75,1.19-.99c.52-.23,1.13-.35,1.84-.35h3.92v9.27h-1.7Z"/>
  </g>
</svg>