<?xml version="1.0" encoding="UTF-8"?>
<svg id="Layer_1" data-name="Layer 1" xmlns="http://www.w3.org/2000/svg" viewBox="0 0 400 87">
  <defs>
    <style>
      .cls-1 {
        fill: #fff;
      }

      .cls-2 {
        stroke: #c75c5c;
      }

      .cls-2, .cls-3, .cls-4, .cls-5 {
        fill: none;
        stroke-miterlimit: 10;
      }

      .cls-3, .cls-5 {
        stroke: #d1ae59;
      }

      .cls-4 {
        stroke: #fff;
      }

      .cls-4, .cls-5 {
        stroke-width: 2px;
      }

      .cls-6 {
        fill: #d1ae59;
      }
    </style>
  </defs>
  <g>
    <path class="cls-1" d="m15.94,15.48c0-1.51.2-2.91.6-4.18.4-1.27.98-2.44,1.74-3.52h1.65c-.3.4-.58.89-.83,1.47-.26.58-.48,1.21-.68,1.9-.19.69-.34,1.4-.45,2.14-.11.74-.16,1.47-.16,2.18,0,.96.09,1.93.28,2.91.19.98.44,1.89.77,2.73.32.84.68,1.53,1.07,2.06h-1.65c-.76-1.07-1.35-2.25-1.74-3.52-.4-1.27-.6-2.67-.6-4.18Z"/>
    <path class="cls-1" d="m23.26,11.34l2.05,3.61,2.06-3.61h1.97l-2.89,4.64,2.92,4.64h-1.97l-2.09-3.47-2.08,3.47h-1.98l2.89-4.64-2.85-4.64h1.98Z"/>
    <path class="cls-1" d="m41.17,13.65v1.57h-5.48v-1.57h5.48Z"/>
    <path class="cls-1" d="m52.14,20.78c-.76,0-1.44-.15-2.04-.44-.6-.29-1.08-.69-1.44-1.2-.36-.51-.55-1.09-.57-1.75h1.81c.04.53.28.97.71,1.31.43.34.94.51,1.53.51.48,0,.9-.11,1.27-.33.37-.22.66-.52.87-.91s.32-.83.32-1.32-.11-.95-.33-1.35c-.22-.39-.52-.7-.9-.93-.38-.23-.82-.34-1.31-.34-.37,0-.75.06-1.13.19-.38.13-.68.3-.92.51l-1.71-.25.69-6.23h6.8v1.6h-5.25l-.39,3.46h.07c.24-.23.56-.43.96-.59.4-.16.83-.24,1.29-.24.75,0,1.42.18,2.01.54.59.36,1.05.85,1.39,1.46.34.62.51,1.33.5,2.13,0,.8-.18,1.52-.54,2.14-.36.63-.87,1.12-1.51,1.48-.64.36-1.38.54-2.21.54Z"/>
    <path class="cls-1" d="m62.09,15.48c0,1.52-.2,2.91-.6,4.18-.4,1.27-.98,2.44-1.74,3.52h-1.65c.3-.4.58-.89.83-1.47.26-.58.48-1.21.68-1.9.19-.69.34-1.41.45-2.15.11-.74.16-1.47.16-2.19,0-.95-.09-1.92-.28-2.9-.19-.98-.44-1.89-.77-2.73-.32-.84-.68-1.53-1.07-2.06h1.65c.76,1.07,1.35,2.25,1.74,3.52.4,1.27.6,2.66.6,4.18Z"/>
    <path class="cls-1" d="m65.57,15.48c0-1.51.2-2.91.6-4.18.4-1.27.98-2.44,1.74-3.52h1.65c-.3.4-.58.89-.83,1.47-.26.58-.48,1.21-.68,1.9-.19.69-.34,1.4-.45,2.14-.11.74-.16,1.47-.16,2.18,0,.96.09,1.93.28,2.91.19.98.44,1.89.77,2.73.32.84.68,1.53,1.07,2.06h-1.65c-.76-1.07-1.35-2.25-1.74-3.52-.4-1.27-.6-2.67-.6-4.18Z"/>
    <path class="cls-1" d="m72.89,11.34l2.05,3.61,2.06-3.61h1.97l-2.89,4.64,2.92,4.64h-1.97l-2.09-3.47-2.08,3.47h-1.98l2.89-4.64-2.85-4.64h1.98Z"/>
    <path class="cls-1" d="m85.71,15.27v-1.62h8.16v1.62h-8.16Zm3.27,3.27v-8.16h1.62v8.16h-1.62Z"/>
    <path class="cls-1" d="m105.83,8.25v12.36h-1.87v-10.49h-.07l-2.96,1.93v-1.79l3.08-2.02h1.82Z"/>
    <path class="cls-1" d="m112.67,14.43c0,1.52-.2,2.91-.6,4.18-.4,1.27-.98,2.44-1.74,3.52h-1.65c.3-.4.58-.89.83-1.47s.48-1.21.68-1.9c.19-.69.34-1.41.45-2.15.11-.74.16-1.47.16-2.19,0-.95-.09-1.92-.28-2.9s-.44-1.89-.77-2.73-.68-1.53-1.07-2.06h1.65c.76,1.07,1.35,2.25,1.74,3.52.4,1.27.6,2.66.6,4.18Z"/>
    <path class="cls-1" d="m128.58,15.27l-8.02,3.89v-1.85l5.92-2.69-.06.1v-.26l.06.11-5.92-2.7v-1.84l8.02,3.89v1.35Z"/>
    <path class="cls-1" d="m140.23,20.82c-.95,0-1.77-.26-2.44-.75-.68-.5-1.19-1.23-1.55-2.18-.36-.95-.54-2.1-.54-3.45s.18-2.49.54-3.44.88-1.67,1.56-2.17,1.49-.75,2.44-.75,1.76.25,2.43.75c.68.5,1.19,1.23,1.55,2.17.36.95.54,2.09.54,3.43s-.18,2.5-.54,3.45c-.36.95-.88,1.68-1.55,2.18s-1.49.75-2.44.75Zm0-1.61c.84,0,1.49-.41,1.97-1.23.47-.82.71-2,.71-3.54,0-1.03-.11-1.89-.32-2.6-.21-.71-.52-1.25-.92-1.62-.4-.37-.88-.55-1.43-.55-.83,0-1.49.41-1.96,1.23-.47.82-.71,2-.72,3.54,0,1.03.11,1.9.32,2.61.22.71.52,1.25.92,1.61s.88.55,1.44.55Z"/>
    <path class="cls-1" d="m149.28,18.92l-.09.66c-.06.48-.16.99-.31,1.51-.14.53-.29,1.01-.44,1.46-.15.45-.27.81-.37,1.07h-1.28c.05-.25.12-.59.22-1.01.09-.42.18-.9.27-1.42.09-.52.16-1.06.2-1.6l.06-.68h1.74Z"/>
    <path class="cls-1" d="m15.94,45.48c0-1.51.2-2.91.6-4.18.4-1.27.98-2.44,1.74-3.52h1.65c-.3.4-.58.89-.83,1.47-.26.58-.48,1.21-.68,1.9-.19.69-.34,1.4-.45,2.14-.11.74-.16,1.47-.16,2.18,0,.96.09,1.93.28,2.91.19.98.44,1.89.77,2.73.32.84.68,1.53,1.07,2.06h-1.65c-.76-1.07-1.35-2.25-1.74-3.52-.4-1.27-.6-2.67-.6-4.18Z"/>
    <path class="cls-1" d="m23.26,41.34l2.05,3.61,2.06-3.61h1.97l-2.89,4.64,2.92,4.64h-1.97l-2.09-3.47-2.08,3.47h-1.98l2.89-4.64-2.85-4.64h1.98Z"/>
    <path class="cls-1" d="m41.17,43.65v1.57h-5.48v-1.57h5.48Z"/>
    <path class="cls-1" d="m52.75,38.25v12.36h-1.87v-10.49h-.07l-2.96,1.93v-1.79l3.08-2.02h1.82Z"/>
    <path class="cls-1" d="m60.4,50.82c-.95,0-1.77-.26-2.44-.75-.68-.5-1.19-1.23-1.55-2.18-.36-.95-.54-2.1-.54-3.45s.18-2.49.54-3.44c.36-.95.88-1.67,1.56-2.17s1.49-.75,2.44-.75,1.76.25,2.43.75c.68.5,1.19,1.23,1.55,2.17s.54,2.09.54,3.43-.18,2.5-.54,3.45c-.36.95-.88,1.68-1.55,2.18s-1.49.75-2.44.75Zm0-1.61c.84,0,1.49-.41,1.96-1.23.47-.82.71-2,.71-3.54,0-1.03-.11-1.89-.32-2.6-.22-.71-.52-1.25-.92-1.62-.4-.37-.88-.55-1.43-.55-.83,0-1.49.41-1.96,1.23-.48.82-.71,2-.72,3.54,0,1.03.11,1.9.32,2.61.22.71.52,1.25.92,1.61s.88.55,1.44.55Z"/>
    <path class="cls-1" d="m70.57,44.43c0,1.52-.2,2.91-.6,4.18-.4,1.27-.98,2.44-1.74,3.52h-1.65c.3-.4.58-.89.83-1.47.26-.58.48-1.21.68-1.9.19-.69.34-1.41.45-2.15.11-.74.16-1.47.16-2.19,0-.95-.09-1.92-.28-2.9-.19-.98-.44-1.89-.77-2.73-.32-.84-.68-1.53-1.07-2.06h1.65c.76,1.07,1.35,2.25,1.74,3.52.4,1.27.6,2.66.6,4.18Z"/>
    <path class="cls-1" d="m90.99,45.27l-8.02,3.89v-1.85l5.92-2.69-.06.1v-.26l.06.11-5.92-2.7v-1.84l8.02,3.89v1.35Z"/>
    <path class="cls-1" d="m102.63,50.82c-.95,0-1.77-.26-2.44-.75-.68-.5-1.19-1.23-1.55-2.18-.36-.95-.54-2.1-.54-3.45s.18-2.49.54-3.44.88-1.67,1.56-2.17,1.49-.75,2.44-.75,1.76.25,2.43.75c.68.5,1.19,1.23,1.55,2.17.36.95.54,2.09.54,3.43s-.18,2.5-.54,3.45c-.36.95-.88,1.68-1.55,2.18s-1.49.75-2.44.75Zm0-1.61c.84,0,1.49-.41,1.97-1.23.47-.82.71-2,.71-3.54,0-1.03-.11-1.89-.32-2.6-.21-.71-.52-1.25-.92-1.62-.4-.37-.88-.55-1.43-.55-.83,0-1.49.41-1.96,1.23-.47.82-.71,2-.72,3.54,0,1.03.11,1.9.32,2.61.22.71.52,1.25.92,1.61s.88.55,1.44.55Z"/>
    <path class="cls-1" d="m111.68,48.92l-.09.66c-.06.48-.16.99-.31,1.51-.14.53-.29,1.01-.44,1.46-.15.45-.27.81-.37,1.07h-1.28c.05-.25.12-.59.22-1.01.09-.42.18-.9.27-1.42.09-.52.16-1.06.2-1.6l.06-.68h1.74Zm-.94-4.94c-.33,0-.61-.12-.85-.36s-.36-.52-.36-.85.12-.61.36-.85c.24-.24.52-.35.85-.35s.61.12.85.35c.24.24.36.52.36.85,0,.22-.05.42-.17.61-.11.18-.26.33-.44.44-.18.11-.38.16-.6.16Z"/>
  </g>
  <path class="cls-6" d="m.51,29.39v-1.39c2.5-.01,4.19-.47,5.08-1.35.89-.89,1.33-2.57,1.33-5.06v-11.35c0-1.57.16-2.94.48-4.1.32-1.16.8-2.13,1.45-2.89s1.47-1.34,2.46-1.71,2.16-.56,3.5-.56v1.39c-1.5-.01-2.73.25-3.69.8-.96.55-1.67,1.4-2.12,2.57-.45,1.16-.68,2.67-.68,4.52v11.35c0,1.43-.14,2.64-.41,3.63-.27.99-.71,1.79-1.32,2.4s-1.41,1.06-2.4,1.34c-1,.28-2.22.42-3.66.42Zm14.3,27.03c-1.34,0-2.51-.19-3.5-.56-.99-.38-1.81-.95-2.46-1.71-.65-.77-1.13-1.73-1.45-2.89-.32-1.16-.48-2.53-.48-4.1v-11.35c0-2.48-.44-4.17-1.33-5.06s-2.58-1.34-5.08-1.35v-1.39c1.44.01,2.66.16,3.66.44,1,.28,1.8.73,2.4,1.33s1.05,1.4,1.32,2.39c.27.99.41,2.2.41,3.63v11.35c0,1.85.23,3.35.68,4.52.46,1.16,1.16,2.01,2.12,2.56.96.54,2.19.81,3.69.81v1.39ZM.51,29.39v-1.39h4.68v1.39H.51Z"/>
  <line class="cls-3" x1="334.22" y1="56.91" x2="329.35" y2="65.43"/>
  <line class="cls-3" x1="352.48" y1="56.91" x2="347.61" y2="65.43"/>
  <line class="cls-3" x1="358.57" y1="56.91" x2="353.7" y2="65.43"/>
  <line class="cls-3" x1="364.66" y1="56.91" x2="359.79" y2="65.43"/>
  <line class="cls-3" x1="370.74" y1="56.91" x2="365.87" y2="65.43"/>
  <line class="cls-3" x1="376.83" y1="56.91" x2="371.96" y2="65.43"/>
  <line class="cls-2" x1="260.57" y1="19.78" x2="260.57" y2="56.3"/>
  <line class="cls-2" x1="248.4" y1="15.52" x2="248.4" y2="56.3"/>
  <line class="cls-2" x1="242.31" y1="15.52" x2="242.31" y2="56.3"/>
  <line class="cls-2" x1="254.48" y1="15.52" x2="254.48" y2="56.3"/>
  <line class="cls-2" x1="236.22" y1="15.52" x2="236.22" y2="56.3"/>
  <line class="cls-2" x1="230.14" y1="15.52" x2="230.14" y2="56.3"/>
  <line class="cls-2" x1="224.05" y1="15.52" x2="224.05" y2="56.3"/>
  <line class="cls-2" x1="304.4" y1="20.39" x2="304.4" y2="56.91"/>
  <line class="cls-2" x1="316.57" y1="15.52" x2="316.57" y2="56.91"/>
  <line class="cls-2" x1="310.48" y1="15.52" x2="310.48" y2="56.91"/>
  <line class="cls-2" x1="328.74" y1="15.52" x2="328.74" y2="56.91"/>
  <line class="cls-2" x1="322.66" y1="15.52" x2="322.66" y2="56.91"/>
  <line class="cls-2" x1="334.83" y1="15.52" x2="334.83" y2="56.91"/>
  <line class="cls-2" x1="340.92" y1="15.52" x2="340.92" y2="56.91"/>
  <line class="cls-3" x1="322.05" y1="56.91" x2="317.18" y2="65.43"/>
  <line class="cls-3" x1="328.13" y1="56.91" x2="323.26" y2="65.43"/>
  <line class="cls-3" x1="309.87" y1="56.91" x2="305" y2="65.43"/>
  <line class="cls-3" x1="315.96" y1="56.91" x2="311.09" y2="65.43"/>
  <line class="cls-3" x1="297.7" y1="56.91" x2="292.83" y2="65.43"/>
  <line class="cls-3" x1="303.79" y1="56.91" x2="298.92" y2="65.43"/>
  <line class="cls-3" x1="291.61" y1="56.91" x2="286.74" y2="65.43"/>
  <line class="cls-3" x1="285.53" y1="56.91" x2="280.66" y2="65.43"/>
  <line class="cls-3" x1="279.44" y1="56.91" x2="274.57" y2="65.43"/>
  <line class="cls-3" x1="273.35" y1="56.91" x2="268.48" y2="65.43"/>
  <line class="cls-3" x1="267.27" y1="56.91" x2="262.4" y2="65.43"/>
  <line class="cls-3" x1="261.18" y1="56.91" x2="256.31" y2="65.43"/>
  <line class="cls-3" x1="249.01" y1="56.91" x2="244.14" y2="65.43"/>
  <line class="cls-3" x1="255.09" y1="56.91" x2="250.22" y2="65.43"/>
  <line class="cls-3" x1="236.83" y1="56.91" x2="231.96" y2="65.43"/>
  <line class="cls-3" x1="242.92" y1="56.91" x2="238.05" y2="65.43"/>
  <line class="cls-3" x1="230.75" y1="56.91" x2="225.88" y2="65.43"/>
  <line class="cls-3" x1="251.4" y1="7.02" x2="256.35" y2="15.5"/>
  <line class="cls-3" x1="307.4" y1="7.02" x2="312.34" y2="15.5"/>
  <line class="cls-3" x1="319.58" y1="7.02" x2="324.52" y2="15.5"/>
  <line class="cls-3" x1="313.49" y1="7.02" x2="318.43" y2="15.5"/>
  <line class="cls-3" x1="331.75" y1="7.02" x2="336.69" y2="15.5"/>
  <line class="cls-3" x1="325.66" y1="7.02" x2="330.6" y2="15.5"/>
  <line class="cls-3" x1="343.92" y1="7.02" x2="348.87" y2="15.5"/>
  <line class="cls-3" x1="337.84" y1="7.02" x2="342.78" y2="15.5"/>
  <line class="cls-3" x1="356.1" y1="7.02" x2="361.04" y2="15.5"/>
  <line class="cls-3" x1="350.01" y1="7.02" x2="354.95" y2="15.5"/>
  <line class="cls-3" x1="368.27" y1="7.02" x2="373.21" y2="15.5"/>
  <line class="cls-3" x1="362.18" y1="7.02" x2="367.13" y2="15.5"/>
  <line class="cls-3" x1="374.36" y1="7.02" x2="379.3" y2="15.5"/>
  <line class="cls-3" x1="239.23" y1="7.02" x2="244.17" y2="15.5"/>
  <line class="cls-3" x1="245.32" y1="7.02" x2="250.26" y2="15.5"/>
  <line class="cls-3" x1="227.06" y1="7.02" x2="232" y2="15.5"/>
  <line class="cls-3" x1="220.97" y1="7.02" x2="225.91" y2="15.5"/>
  <line class="cls-3" x1="233.14" y1="7.02" x2="238.09" y2="15.5"/>
  <line class="cls-4" x1="222.22" y1="15.37" x2="256.31" y2="15.37"/>
  <line class="cls-4" x1="266.05" y1="15.37" x2="298.92" y2="15.52"/>
  <line class="cls-4" x1="308.66" y1="15.37" x2="381.7" y2="15.37"/>
  <polygon class="cls-1" points="390.52 15.37 381.39 10.09 381.39 20.64 390.52 15.37"/>
  <circle class="cls-5" cx="261.18" cy="15.37" r="4.87"/>
  <circle class="cls-5" cx="303.79" cy="15.52" r="4.87"/>
  <line class="cls-4" x1="222.22" y1="56.76" x2="336.66" y2="56.76"/>
  <line class="cls-4" x1="346.39" y1="56.91" x2="381.7" y2="56.76"/>
  <polygon class="cls-1" points="390.52 56.76 381.39 51.48 381.39 62.03 390.52 56.76"/>
  <circle class="cls-5" cx="341.53" cy="56.91" r="4.87"/>
  <g>
    <path class="cls-1" d="m338.61,73.02v12.36h-1.87v-10.49h-.07l-2.96,1.93v-1.79l3.08-2.02h1.82Z"/>
    <path class="cls-1" d="m346.26,85.59c-.95,0-1.77-.26-2.44-.75-.68-.5-1.19-1.23-1.55-2.18-.36-.95-.54-2.1-.54-3.45s.18-2.49.54-3.44.88-1.67,1.56-2.17,1.49-.75,2.44-.75,1.76.25,2.43.75c.68.5,1.19,1.23,1.55,2.17.36.95.54,2.09.54,3.43s-.18,2.5-.54,3.45c-.36.95-.88,1.68-1.55,2.18s-1.49.75-2.44.75Zm0-1.61c.84,0,1.49-.41,1.97-1.23.47-.82.71-2,.71-3.54,0-1.03-.11-1.89-.32-2.6-.21-.71-.52-1.25-.92-1.62-.4-.37-.88-.55-1.43-.55-.83,0-1.49.41-1.96,1.23-.47.82-.71,2-.72,3.54,0,1.03.11,1.9.32,2.61.22.71.52,1.25.92,1.61s.88.55,1.44.55Z"/>
  </g>
  <path class="cls-1" d="m304,40.88c-.76,0-1.44-.15-2.04-.44-.6-.29-1.08-.69-1.44-1.2-.36-.51-.55-1.09-.57-1.75h1.81c.04.53.28.97.71,1.31.43.34.94.51,1.53.51.47,0,.9-.11,1.26-.33s.66-.52.87-.91.32-.83.32-1.32-.11-.95-.33-1.35c-.22-.39-.52-.7-.9-.93-.38-.23-.82-.34-1.31-.34-.37,0-.75.06-1.13.19-.38.13-.68.3-.92.51l-1.71-.25.69-6.23h6.8v1.6h-5.25l-.39,3.46h.07c.24-.23.56-.43.96-.59.4-.16.83-.24,1.29-.24.75,0,1.42.18,2.01.54.59.36,1.05.85,1.39,1.46.34.62.51,1.33.5,2.13,0,.8-.18,1.52-.54,2.14-.36.63-.87,1.12-1.51,1.48-.64.36-1.38.54-2.21.54Z"/>
  <g>
    <path class="cls-1" d="m253.3,34.1v1.57h-5.48v-1.57h5.48Z"/>
    <path class="cls-1" d="m260.38,28.71v12.36h-1.87v-10.49h-.07l-2.96,1.93v-1.79l3.08-2.02h1.82Z"/>
  </g>
  <path class="cls-1" d="m393.13,65.92l2.05,3.61,2.06-3.61h1.97l-2.89,4.64,2.92,4.64h-1.97l-2.09-3.47-2.08,3.47h-1.98l2.89-4.64-2.85-4.64h1.98Z"/>
  <path class="cls-1" d="m393.13,23.31l2.05,3.61,2.06-3.61h1.97l-2.89,4.64,2.92,4.64h-1.97l-2.09-3.47-2.08,3.47h-1.98l2.89-4.64-2.85-4.64h1.98Z"/>
  <path class="cls-1" d="m72.3,41.15v-.95l2.95-3.06c.32-.33.58-.62.78-.88.21-.25.36-.49.46-.72.1-.23.15-.47.15-.72,0-.29-.07-.54-.2-.75s-.32-.38-.56-.49c-.24-.11-.5-.17-.8-.17-.31,0-.59.06-.82.19-.23.13-.41.31-.54.54s-.19.51-.19.82h-1.26c0-.53.12-1,.37-1.39.24-.4.58-.71,1.01-.93s.91-.33,1.45-.33,1.03.11,1.45.33c.42.22.75.51.98.89s.35.79.35,1.26c0,.32-.06.64-.18.95-.12.31-.33.65-.63,1.03-.3.38-.71.84-1.24,1.38l-1.73,1.81v.06h3.93v1.13h-5.74Z"/>
</svg>