<?xml version="1.0" encoding="UTF-8"?>
<svg id="Layer_1" data-name="Layer 1" xmlns="http://www.w3.org/2000/svg" viewBox="0 0 388 155">
  <defs>
    <style>
      .cls-1 {
        fill: #fff;
      }

      .cls-2 {
        stroke: #d1ae59;
      }

      .cls-2, .cls-3 {
        fill: none;
        stroke-miterlimit: 10;
      }

      .cls-3 {
        stroke: #fff;
        stroke-width: 2px;
      }

      .cls-4 {
        fill: #d1ae59;
      }
    </style>
  </defs>
  <g>
    <path class="cls-1" d="m40.03.62v20.33h-1.62V.62h1.62Z"/>
    <path class="cls-1" d="m44.77,7.69l2.05,3.61,2.06-3.61h1.97l-2.89,4.64,2.92,4.64h-1.97l-2.09-3.47-2.08,3.47h-1.98l2.89-4.64-2.85-4.64h1.98Z"/>
    <path class="cls-1" d="m55.21.62v20.33h-1.62V.62h1.62Z"/>
    <path class="cls-1" d="m63.47,11.62v-1.35l8.02-3.89v1.84l-5.92,2.7.05-.11v.26l-.05-.1,5.92,2.69v1.85l-8.02-3.89Z"/>
    <path class="cls-1" d="m83.14,17.14c-.83,0-1.57-.14-2.22-.43-.65-.29-1.16-.68-1.54-1.19-.38-.51-.58-1.1-.61-1.77h1.9c.02.37.15.68.37.95.22.27.52.47.88.62.36.15.76.22,1.21.22.49,0,.92-.08,1.29-.25s.67-.41.88-.71c.21-.3.32-.65.32-1.05s-.11-.78-.32-1.1c-.21-.32-.52-.56-.92-.75s-.89-.27-1.46-.27h-1.04v-1.52h1.04c.46,0,.86-.08,1.21-.25s.62-.4.82-.69c.2-.3.3-.64.3-1.04s-.09-.72-.26-1c-.17-.28-.41-.51-.72-.67-.31-.16-.68-.24-1.1-.24s-.78.07-1.13.22c-.35.15-.63.36-.85.63-.22.27-.33.6-.35.98h-1.8c.02-.67.22-1.26.59-1.76.38-.51.87-.9,1.49-1.19.62-.29,1.31-.43,2.06-.43s1.48.15,2.06.46c.58.31,1.02.72,1.34,1.23s.47,1.07.47,1.68c0,.69-.19,1.28-.58,1.76-.39.48-.9.81-1.55.97v.1c.82.12,1.46.45,1.91.98.45.53.68,1.18.67,1.96,0,.68-.18,1.29-.56,1.83-.38.54-.9.96-1.55,1.27-.66.31-1.41.46-2.25.46Z"/>
  </g>
  <g>
    <path class="cls-1" d="m10.13,30.15v12.36h-1.86v-10.77H2.45v10.77H.59v-12.36h9.54Z"/>
    <path class="cls-1" d="m16.74,42.7c-.87,0-1.63-.2-2.28-.6s-1.15-.96-1.51-1.67c-.36-.72-.54-1.55-.54-2.51s.18-1.8.54-2.52c.36-.72.86-1.28,1.51-1.68s1.41-.6,2.28-.6,1.63.2,2.28.6,1.15.96,1.51,1.68c.36.72.54,1.56.54,2.52s-.18,1.8-.54,2.51c-.36.72-.86,1.27-1.51,1.67s-1.41.6-2.28.6Zm0-1.52c.56,0,1.03-.15,1.4-.45s.65-.69.82-1.19c.18-.49.27-1.04.27-1.64s-.09-1.14-.27-1.63c-.18-.5-.45-.9-.82-1.2-.37-.3-.84-.45-1.4-.45s-1.04.15-1.41.45c-.37.3-.65.7-.83,1.2s-.27,1.04-.27,1.63.09,1.14.27,1.64c.18.5.45.89.83,1.19.37.3.84.45,1.41.45Z"/>
    <path class="cls-1" d="m31.49,42.7c-.9,0-1.67-.2-2.31-.61-.65-.41-1.14-.97-1.49-1.69-.35-.72-.52-1.55-.52-2.48s.18-1.77.53-2.5.85-1.29,1.5-1.69,1.4-.61,2.28-.61c.7,0,1.33.13,1.88.39.55.26,1,.62,1.34,1.09.34.47.54,1.01.61,1.64h-1.76c-.1-.43-.32-.81-.66-1.12s-.8-.47-1.38-.47c-.5,0-.94.13-1.32.4-.38.26-.67.64-.88,1.12-.21.49-.31,1.06-.31,1.72s.1,1.26.31,1.75c.21.49.5.87.87,1.14s.82.4,1.33.4c.34,0,.65-.06.93-.19.28-.13.52-.31.71-.55.19-.24.32-.52.4-.86h1.76c-.06.6-.26,1.14-.59,1.61-.33.47-.76.84-1.31,1.11s-1.18.4-1.92.4Z"/>
    <path class="cls-1" d="m37.23,42.52v-9.27h3.85c1.05,0,1.88.22,2.49.67.61.44.92,1.05.92,1.81,0,.54-.17.97-.52,1.29-.35.32-.81.53-1.38.64.41.05.79.17,1.14.37s.62.47.84.8c.21.33.32.73.32,1.2,0,.49-.13.92-.38,1.3s-.62.67-1.1.88c-.48.21-1.06.32-1.74.32h-4.43Zm1.7-5.41h2.17c.34,0,.63-.05.87-.15.24-.1.43-.23.56-.41.13-.18.2-.39.2-.64,0-.36-.15-.64-.44-.84-.29-.2-.7-.3-1.21-.3h-2.15v2.34Zm0,3.9h2.73c.45,0,.8-.11,1.05-.32.25-.21.38-.5.38-.87,0-.43-.13-.77-.38-1.02-.25-.25-.6-.37-1.05-.37h-2.73v2.58Z"/>
    <path class="cls-1" d="m50.76,42.7c-.87,0-1.63-.2-2.28-.6s-1.15-.96-1.51-1.67c-.36-.72-.54-1.55-.54-2.51s.18-1.8.54-2.52c.36-.72.86-1.28,1.51-1.68s1.41-.6,2.28-.6,1.63.2,2.28.6,1.15.96,1.51,1.68c.36.72.54,1.56.54,2.52s-.18,1.8-.54,2.51c-.36.72-.86,1.27-1.51,1.67s-1.41.6-2.28.6Zm0-1.52c.56,0,1.03-.15,1.4-.45s.65-.69.82-1.19c.18-.49.27-1.04.27-1.64s-.09-1.14-.27-1.63c-.18-.5-.45-.9-.82-1.2-.37-.3-.84-.45-1.4-.45s-1.04.15-1.41.45c-.37.3-.65.7-.83,1.2s-.27,1.04-.27,1.63.09,1.14.27,1.64c.18.5.45.89.83,1.19.37.3.84.45,1.41.45Z"/>
    <path class="cls-1" d="m58.86,39.99l4.09-6.74h1.94v9.27h-1.77v-6.75l-4.07,6.75h-1.96v-9.27h1.77v6.74Zm3.31-9.88h1.49c0,.68-.24,1.23-.72,1.66-.48.42-1.13.64-1.95.64s-1.46-.21-1.94-.64c-.48-.42-.72-.98-.72-1.66h1.48c0,.3.09.57.27.8s.48.35.91.35.73-.11.91-.34.27-.5.27-.8Z"/>
    <path class="cls-1" d="m71.23,42.7c-.9,0-1.67-.2-2.31-.61-.65-.41-1.14-.97-1.49-1.69-.35-.72-.52-1.55-.52-2.48s.18-1.77.53-2.5.85-1.29,1.5-1.69,1.4-.61,2.28-.61c.7,0,1.33.13,1.88.39.55.26,1,.62,1.34,1.09.34.47.54,1.01.61,1.64h-1.76c-.1-.43-.32-.81-.66-1.12s-.8-.47-1.38-.47c-.5,0-.94.13-1.32.4-.38.26-.67.64-.88,1.12-.21.49-.31,1.06-.31,1.72s.1,1.26.31,1.75c.21.49.5.87.87,1.14s.82.4,1.33.4c.34,0,.65-.06.93-.19.28-.13.52-.31.71-.55.19-.24.32-.52.4-.86h1.76c-.06.6-.26,1.14-.59,1.61-.33.47-.76.84-1.31,1.11s-1.18.4-1.92.4Z"/>
    <path class="cls-1" d="m76.45,34.8v-1.56h7.82v1.56h-3.02v7.72h-1.76v-7.72h-3.04Z"/>
    <path class="cls-1" d="m86.19,42.52v-9.27h3.85c1.05,0,1.88.22,2.49.67.61.44.92,1.05.92,1.81,0,.54-.17.97-.52,1.29-.35.32-.81.53-1.38.64.41.05.79.17,1.14.37s.62.47.84.8c.21.33.32.73.32,1.2,0,.49-.13.92-.38,1.3s-.62.67-1.1.88c-.48.21-1.06.32-1.74.32h-4.43Zm1.7-5.41h2.17c.34,0,.63-.05.87-.15.24-.1.43-.23.56-.41.13-.18.2-.39.2-.64,0-.36-.15-.64-.44-.84-.29-.2-.7-.3-1.21-.3h-2.15v2.34Zm0,3.9h2.73c.45,0,.8-.11,1.05-.32.25-.21.38-.5.38-.87,0-.43-.13-.77-.38-1.02-.25-.25-.6-.37-1.05-.37h-2.73v2.58Z"/>
    <path class="cls-1" d="m96.95,45.99c-.27,0-.52-.02-.74-.06-.22-.04-.39-.09-.49-.14l.43-1.48c.33.09.62.13.88.11.26-.01.49-.11.69-.29s.38-.48.53-.89l.22-.62-3.39-9.39h1.93l2.35,7.2h.1l2.35-7.2h1.94l-3.82,10.51c-.18.48-.4.89-.68,1.23-.27.34-.6.59-.98.76s-.82.25-1.32.25Z"/>
    <path class="cls-1" d="m111.71,33.24v9.27h-1.77v-9.27h1.77Zm3.44,7.04l2.99-7.04h1.56l-3.88,9.27h-1.34l-3.8-9.27h1.54l2.93,7.04Zm3.48,2.23v-9.27h1.76v9.27h-1.76Z"/>
    <path class="cls-1" d="m126.7,42.7c-.87,0-1.63-.2-2.28-.6s-1.15-.96-1.51-1.67c-.36-.72-.54-1.55-.54-2.51s.18-1.8.54-2.52c.36-.72.86-1.28,1.51-1.68s1.41-.6,2.28-.6,1.63.2,2.28.6,1.15.96,1.51,1.68c.36.72.54,1.56.54,2.52s-.18,1.8-.54,2.51c-.36.72-.86,1.27-1.51,1.67s-1.41.6-2.28.6Zm0-1.52c.56,0,1.03-.15,1.4-.45s.65-.69.82-1.19c.18-.49.27-1.04.27-1.64s-.09-1.14-.27-1.63c-.18-.5-.45-.9-.82-1.2-.37-.3-.84-.45-1.4-.45s-1.04.15-1.41.45c-.37.3-.65.7-.83,1.2s-.27,1.04-.27,1.63.09,1.14.27,1.64c.18.5.45.89.83,1.19.37.3.84.45,1.41.45Z"/>
    <path class="cls-1" d="m132.13,45.19v-4.24h.75c.19-.18.36-.39.49-.63.13-.25.25-.54.34-.88.09-.34.17-.73.24-1.19.06-.45.12-.97.17-1.55l.29-3.46h6.3v7.71h1.42v4.24h-1.76v-2.67h-6.47v2.67h-1.79Zm2.69-4.24h4.14v-6.16h-2.92l-.19,1.91c-.09.97-.21,1.82-.35,2.53-.14.71-.37,1.29-.68,1.72Z"/>
    <path class="cls-1" d="m145.04,45.99c-.27,0-.52-.02-.74-.06-.22-.04-.39-.09-.49-.14l.43-1.48c.33.09.62.13.88.11.26-.01.49-.11.69-.29s.38-.48.53-.89l.22-.62-3.39-9.39h1.93l2.35,7.2h.1l2.35-7.2h1.94l-3.82,10.51c-.18.48-.4.89-.68,1.23-.27.34-.6.59-.98.76s-.82.25-1.32.25Z"/>
    <path class="cls-1" d="m152.8,42.52v-1.56s.33,0,.33,0c.26,0,.47-.06.65-.17.17-.11.32-.3.43-.56.11-.27.2-.63.26-1.1.06-.47.1-1.06.13-1.77l.16-4.11h6.47v9.27h-1.77v-7.72h-3.03l-.15,3.15c-.04.76-.11,1.43-.23,2s-.29,1.05-.52,1.43-.52.66-.87.85c-.35.19-.78.28-1.29.28h-.58Z"/>
    <path class="cls-1" d="m163.08,42.52l2.61-4.68h1.85l-2.61,4.68h-1.85Zm6.08,0v-7.73h-2.22c-.53,0-.94.12-1.23.37-.29.25-.44.57-.44.97s.14.71.41.95c.27.24.65.36,1.14.36h2.87v1.46h-2.87c-.68,0-1.27-.11-1.77-.34s-.88-.55-1.15-.97c-.27-.42-.4-.91-.4-1.49s.14-1.09.41-1.51c.28-.42.67-.75,1.19-.99.52-.23,1.13-.35,1.84-.35h3.92v9.27h-1.7Z"/>
    <path class="cls-1" d="m175.62,40.83l-.09.66c-.06.48-.16.99-.3,1.51-.14.53-.29,1.01-.44,1.46s-.27.81-.37,1.07h-1.28c.05-.25.12-.59.22-1.01.09-.42.18-.9.27-1.42.09-.52.15-1.06.2-1.6l.06-.68h1.74Z"/>
    <path class="cls-1" d="m184.24,33.24v9.27h-1.77v-9.27h1.77Zm4.52,3.86v1.56h-5.02v-1.56h5.02Zm1.26-3.86v9.27h-1.76v-9.27h1.76Z"/>
    <path class="cls-1" d="m196.42,42.7c-.91,0-1.7-.2-2.36-.59-.66-.39-1.17-.95-1.52-1.66s-.53-1.55-.53-2.51.18-1.79.53-2.51.86-1.29,1.5-1.7,1.39-.61,2.25-.61c.52,0,1.03.09,1.52.26s.93.44,1.32.81c.39.37.7.85.92,1.44.22.59.34,1.3.34,2.15v.64h-7.37v-1.35h5.6c0-.47-.1-.9-.29-1.26s-.46-.66-.81-.87c-.35-.21-.76-.32-1.22-.32-.51,0-.95.12-1.32.37-.38.25-.67.57-.87.97-.2.4-.3.83-.3,1.29v1.06c0,.62.11,1.15.33,1.58s.53.77.92.99.86.34,1.38.34c.34,0,.65-.05.94-.15.28-.1.52-.25.73-.44.21-.2.36-.44.47-.73l1.71.31c-.14.5-.38.94-.73,1.32-.35.38-.79.67-1.32.88-.53.21-1.13.31-1.81.31Z"/>
    <path class="cls-1" d="m202.41,45.99v-12.75h1.76v1.5h.15c.1-.19.26-.42.45-.67.2-.25.47-.48.82-.67.35-.19.81-.29,1.39-.29.75,0,1.42.19,2,.57.59.38,1.05.92,1.38,1.64.34.71.5,1.57.5,2.57s-.17,1.86-.5,2.57c-.33.71-.79,1.26-1.38,1.65s-1.25.58-2,.58c-.56,0-1.02-.09-1.38-.28-.36-.19-.63-.41-.84-.66s-.36-.48-.46-.68h-.11v4.92h-1.8Zm1.77-8.11c0,.65.09,1.22.28,1.71.19.49.46.87.82,1.15.36.28.8.41,1.32.41s.99-.14,1.35-.43c.36-.29.64-.68.82-1.17.19-.49.28-1.05.28-1.67s-.09-1.16-.28-1.65c-.18-.49-.46-.87-.82-1.15s-.82-.42-1.36-.42-.96.13-1.33.4-.63.65-.82,1.13c-.18.48-.28,1.05-.28,1.69Z"/>
    <path class="cls-1" d="m215.6,42.72c-.59,0-1.12-.11-1.59-.33-.48-.22-.85-.54-1.13-.96s-.41-.93-.41-1.54c0-.52.1-.95.3-1.29.2-.34.47-.61.81-.8s.72-.35,1.15-.45c.42-.1.85-.18,1.29-.23.55-.06,1.01-.12,1.35-.16.35-.04.6-.11.75-.21s.24-.25.24-.47v-.04c0-.53-.15-.94-.44-1.23-.3-.29-.74-.43-1.32-.43s-1.09.13-1.43.4c-.35.27-.59.56-.72.89l-1.7-.39c.2-.56.5-1.02.88-1.37.39-.35.84-.6,1.34-.76.51-.16,1.04-.24,1.6-.24.37,0,.76.04,1.18.13.42.09.81.24,1.17.47.36.23.66.56.9.98.23.42.35.97.35,1.65v6.16h-1.76v-1.27h-.07c-.12.23-.29.46-.52.69-.23.23-.53.41-.9.56s-.8.22-1.32.22Zm.39-1.45c.5,0,.93-.1,1.28-.3.36-.2.63-.46.82-.78.19-.32.28-.66.28-1.03v-1.2c-.06.06-.19.12-.37.18-.18.05-.39.1-.62.14-.23.04-.46.07-.68.1-.22.03-.41.06-.56.08-.35.04-.67.12-.96.22s-.52.25-.69.45c-.17.2-.26.45-.26.78,0,.45.17.78.5,1.01.33.23.75.34,1.26.34Z"/>
    <path class="cls-1" d="m222.58,42.52v-9.27h3.84c1.05,0,1.88.22,2.49.67.61.44.92,1.05.92,1.81,0,.54-.17.97-.52,1.29-.35.32-.8.53-1.38.64.41.05.79.17,1.14.37.35.2.62.47.84.8.21.33.32.73.32,1.2,0,.49-.13.92-.38,1.3-.25.38-.62.67-1.1.88-.48.21-1.06.32-1.74.32h-4.43Zm1.7-5.41h2.17c.34,0,.63-.05.87-.15.24-.1.43-.23.56-.41.13-.18.2-.39.2-.64,0-.36-.15-.64-.44-.84s-.7-.3-1.21-.3h-2.15v2.34Zm0,3.9h2.73c.45,0,.8-.11,1.05-.32.25-.21.38-.5.38-.87,0-.43-.13-.77-.38-1.02-.25-.25-.6-.37-1.05-.37h-2.73v2.58Z"/>
    <path class="cls-1" d="m236.2,42.7c-.91,0-1.7-.2-2.36-.59-.66-.39-1.17-.95-1.52-1.66s-.53-1.55-.53-2.51.18-1.79.53-2.51.86-1.29,1.5-1.7,1.39-.61,2.25-.61c.52,0,1.03.09,1.52.26s.93.44,1.32.81c.39.37.7.85.92,1.44.22.59.34,1.3.34,2.15v.64h-7.37v-1.35h5.6c0-.47-.1-.9-.29-1.26s-.46-.66-.81-.87c-.35-.21-.76-.32-1.22-.32-.51,0-.95.12-1.32.37-.38.25-.67.57-.87.97-.2.4-.3.83-.3,1.29v1.06c0,.62.11,1.15.33,1.58s.53.77.92.99.86.34,1.38.34c.34,0,.65-.05.94-.15.28-.1.52-.25.73-.44.21-.2.36-.44.47-.73l1.71.31c-.14.5-.38.94-.73,1.32-.35.38-.79.67-1.32.88-.53.21-1.13.31-1.81.31Z"/>
    <path class="cls-1" d="m243.95,33.24v9.27h-1.77v-9.27h1.77Zm4.52,3.86v1.56h-5.02v-1.56h5.02Zm1.26-3.86v9.27h-1.76v-9.27h1.76Z"/>
    <path class="cls-1" d="m256.04,42.7c-.9,0-1.67-.2-2.32-.61-.65-.41-1.14-.97-1.49-1.69-.35-.72-.52-1.55-.52-2.48s.18-1.77.53-2.5.85-1.29,1.5-1.69,1.4-.61,2.28-.61c.7,0,1.33.13,1.88.39.55.26,1,.62,1.34,1.09.34.47.54,1.01.61,1.64h-1.76c-.1-.43-.32-.81-.66-1.12s-.8-.47-1.38-.47c-.5,0-.94.13-1.32.4-.38.26-.67.64-.88,1.12-.21.49-.31,1.06-.31,1.72s.1,1.26.31,1.75c.21.49.5.87.87,1.14.38.27.82.4,1.33.4.34,0,.65-.06.93-.19.28-.13.51-.31.71-.55s.33-.52.4-.86h1.76c-.06.6-.26,1.14-.59,1.61s-.76.84-1.31,1.11c-.55.27-1.18.4-1.92.4Z"/>
    <path class="cls-1" d="m261.27,34.8v-1.56h7.82v1.56h-3.03v7.72h-1.76v-7.72h-3.04Z"/>
    <path class="cls-1" d="m271,42.52v-9.27h3.84c1.05,0,1.88.22,2.49.67.61.44.92,1.05.92,1.81,0,.54-.17.97-.52,1.29-.35.32-.8.53-1.38.64.41.05.79.17,1.14.37.35.2.62.47.84.8.21.33.32.73.32,1.2,0,.49-.13.92-.38,1.3-.25.38-.62.67-1.1.88-.48.21-1.06.32-1.74.32h-4.43Zm1.7-5.41h2.17c.34,0,.63-.05.87-.15.24-.1.43-.23.56-.41.13-.18.2-.39.2-.64,0-.36-.15-.64-.44-.84s-.7-.3-1.21-.3h-2.15v2.34Zm0,3.9h2.73c.45,0,.8-.11,1.05-.32.25-.21.38-.5.38-.87,0-.43-.13-.77-.38-1.02-.25-.25-.6-.37-1.05-.37h-2.73v2.58Z"/>
    <path class="cls-1" d="m284.53,42.7c-.87,0-1.63-.2-2.28-.6-.65-.4-1.15-.96-1.51-1.67s-.54-1.55-.54-2.51.18-1.8.54-2.52c.36-.72.86-1.28,1.51-1.68.65-.4,1.41-.6,2.28-.6s1.63.2,2.28.6c.65.4,1.15.96,1.51,1.68.36.72.54,1.56.54,2.52s-.18,1.8-.54,2.51-.86,1.27-1.51,1.67c-.65.4-1.41.6-2.28.6Zm0-1.52c.56,0,1.03-.15,1.4-.45.37-.3.64-.69.82-1.19.18-.49.27-1.04.27-1.64s-.09-1.14-.27-1.63c-.18-.5-.45-.9-.82-1.2-.37-.3-.84-.45-1.4-.45s-1.04.15-1.41.45c-.37.3-.65.7-.83,1.2s-.27,1.04-.27,1.63.09,1.14.27,1.64c.18.5.46.89.83,1.19s.84.45,1.41.45Z"/>
    <path class="cls-1" d="m295.37,42.52v-9.27h3.84c1.05,0,1.88.22,2.49.67.61.44.92,1.05.92,1.81,0,.54-.17.97-.52,1.29-.35.32-.8.53-1.38.64.41.05.79.17,1.14.37.35.2.62.47.84.8.21.33.32.73.32,1.2,0,.49-.13.92-.38,1.3-.25.38-.62.67-1.1.88-.48.21-1.06.32-1.74.32h-4.43Zm1.7-5.41h2.17c.34,0,.63-.05.87-.15.24-.1.43-.23.56-.41.13-.18.2-.39.2-.64,0-.36-.15-.64-.44-.84s-.7-.3-1.21-.3h-2.15v2.34Zm0,3.9h2.73c.45,0,.8-.11,1.05-.32.25-.21.38-.5.38-.87,0-.43-.13-.77-.38-1.02-.25-.25-.6-.37-1.05-.37h-2.73v2.58Z"/>
    <path class="cls-1" d="m308.99,42.7c-.91,0-1.7-.2-2.36-.59-.66-.39-1.17-.95-1.52-1.66s-.53-1.55-.53-2.51.18-1.79.53-2.51.86-1.29,1.5-1.7,1.39-.61,2.25-.61c.52,0,1.03.09,1.52.26s.93.44,1.32.81c.39.37.7.85.92,1.44.22.59.34,1.3.34,2.15v.64h-7.37v-1.35h5.6c0-.47-.1-.9-.29-1.26s-.46-.66-.81-.87c-.35-.21-.76-.32-1.22-.32-.51,0-.95.12-1.32.37-.38.25-.67.57-.87.97-.2.4-.3.83-.3,1.29v1.06c0,.62.11,1.15.33,1.58s.53.77.92.99.86.34,1.38.34c.34,0,.65-.05.94-.15.28-.1.52-.25.73-.44.21-.2.36-.44.47-.73l1.71.31c-.14.5-.38.94-.73,1.32-.35.38-.79.67-1.32.88-.53.21-1.13.31-1.81.31Z"/>
    <path class="cls-1" d="m314.98,45.99v-12.75h1.76v1.5h.15c.1-.19.26-.42.45-.67.2-.25.47-.48.82-.67.35-.19.81-.29,1.39-.29.75,0,1.42.19,2,.57.59.38,1.05.92,1.38,1.64.34.71.5,1.57.5,2.57s-.17,1.86-.5,2.57c-.33.71-.79,1.26-1.38,1.65s-1.25.58-2,.58c-.56,0-1.02-.09-1.38-.28-.36-.19-.63-.41-.84-.66s-.36-.48-.46-.68h-.11v4.92h-1.8Zm1.77-8.11c0,.65.09,1.22.28,1.71.19.49.46.87.82,1.15.36.28.8.41,1.32.41s.99-.14,1.35-.43c.36-.29.64-.68.82-1.17.19-.49.28-1.05.28-1.67s-.09-1.16-.28-1.65c-.18-.49-.46-.87-.82-1.15s-.82-.42-1.36-.42-.96.13-1.33.4-.63.65-.82,1.13c-.18.48-.28,1.05-.28,1.69Z"/>
    <path class="cls-1" d="m327.24,33.24v9.27h-1.77v-9.27h1.77Zm4.52,3.86v1.56h-5.02v-1.56h5.02Zm1.26-3.86v9.27h-1.76v-9.27h1.76Z"/>
    <path class="cls-1" d="m339.33,42.7c-.87,0-1.63-.2-2.28-.6-.65-.4-1.15-.96-1.51-1.67s-.54-1.55-.54-2.51.18-1.8.54-2.52c.36-.72.86-1.28,1.51-1.68.65-.4,1.41-.6,2.28-.6s1.63.2,2.28.6c.65.4,1.15.96,1.51,1.68.36.72.54,1.56.54,2.52s-.18,1.8-.54,2.51-.86,1.27-1.51,1.67c-.65.4-1.41.6-2.28.6Zm0-1.52c.56,0,1.03-.15,1.4-.45.37-.3.64-.69.82-1.19.18-.49.27-1.04.27-1.64s-.09-1.14-.27-1.63c-.18-.5-.45-.9-.82-1.2-.37-.3-.84-.45-1.4-.45s-1.04.15-1.41.45c-.37.3-.65.7-.83,1.2s-.27,1.04-.27,1.63.09,1.14.27,1.64c.18.5.46.89.83,1.19s.84.45,1.41.45Z"/>
    <path class="cls-1" d="m348.01,40.83l-.09.66c-.06.48-.16.99-.31,1.51-.14.53-.29,1.01-.44,1.46-.15.45-.27.81-.37,1.07h-1.28c.05-.25.12-.59.22-1.01.09-.42.18-.9.27-1.42.09-.52.16-1.06.2-1.6l.06-.68h1.74Z"/>
    <path class="cls-1" d="m353.96,45.19v-4.24h.75c.19-.18.36-.39.49-.63.13-.25.25-.54.34-.88s.17-.73.24-1.19c.06-.45.12-.97.17-1.55l.29-3.46h6.3v7.71h1.42v4.24h-1.76v-2.67h-6.47v2.67h-1.79Zm2.69-4.24h4.14v-6.16h-2.92l-.19,1.91c-.09.97-.21,1.82-.35,2.53-.14.71-.37,1.29-.68,1.72Z"/>
    <path class="cls-1" d="m365,42.52v-1.56s.33,0,.33,0c.26,0,.47-.06.65-.17s.32-.3.43-.56c.11-.27.2-.63.26-1.1.06-.47.1-1.06.13-1.77l.16-4.11h6.47v9.27h-1.77v-7.72h-3.03l-.14,3.15c-.04.76-.11,1.43-.23,2-.12.57-.29,1.05-.52,1.43s-.51.66-.87.85-.79.28-1.29.28h-.58Z"/>
    <path class="cls-1" d="m375.28,42.52l2.61-4.68h1.85l-2.61,4.68h-1.85Zm6.08,0v-7.73h-2.22c-.53,0-.94.12-1.23.37-.29.25-.44.57-.44.97s.14.71.41.95.65.36,1.14.36h2.87v1.46h-2.87c-.68,0-1.28-.11-1.77-.34s-.88-.55-1.15-.97c-.27-.42-.4-.91-.4-1.49s.14-1.09.41-1.51.67-.75,1.19-.99c.52-.23,1.13-.35,1.84-.35h3.92v9.27h-1.7Z"/>
    <path class="cls-1" d="m386.66,35.88c-.33,0-.61-.12-.85-.36s-.36-.52-.36-.85.12-.61.36-.85c.24-.24.52-.35.85-.35s.61.12.85.35c.24.24.36.52.36.85,0,.22-.06.42-.17.61-.11.18-.26.33-.44.44-.18.11-.38.16-.6.16Zm0,6.75c-.33,0-.61-.12-.85-.35-.24-.24-.36-.52-.36-.85s.12-.61.36-.85.52-.35.85-.35.61.12.85.35.36.52.36.85c0,.22-.06.42-.17.61-.11.18-.26.33-.44.44-.18.11-.38.16-.6.16Z"/>
    <path class="cls-1" d="m40.99,58.15v12.36h-1.87v-10.49h-.07l-2.96,1.93v-1.79l3.08-2.02h1.82Z"/>
    <path class="cls-1" d="m47.83,64.33c0,1.52-.2,2.91-.6,4.18-.4,1.27-.98,2.44-1.74,3.52h-1.65c.3-.4.58-.89.83-1.47.26-.58.48-1.21.68-1.9.19-.69.34-1.41.45-2.15.11-.74.16-1.47.16-2.19,0-.95-.09-1.92-.28-2.9-.19-.98-.44-1.89-.77-2.73-.32-.84-.68-1.53-1.07-2.06h1.65c.76,1.07,1.35,2.25,1.74,3.52.4,1.27.6,2.66.6,4.18Z"/>
    <path class="cls-1" d="m56.71,61.24l2.05,3.61,2.06-3.61h1.97l-2.89,4.64,2.92,4.64h-1.97l-2.09-3.47-2.08,3.47h-1.98l2.89-4.64-2.85-4.64h1.98Z"/>
    <path class="cls-1" d="m69.74,63.27v-1.58h7.73v1.58h-7.73Zm0,3.72v-1.58h7.73v1.58h-7.73Z"/>
    <path class="cls-1" d="m89.26,70.72c-.95,0-1.77-.26-2.44-.75-.68-.5-1.19-1.23-1.55-2.18-.36-.95-.54-2.1-.54-3.45s.18-2.49.54-3.44c.36-.95.88-1.67,1.56-2.17s1.49-.75,2.44-.75,1.76.25,2.43.75c.68.5,1.19,1.23,1.55,2.17s.54,2.09.54,3.43-.18,2.5-.54,3.45c-.36.95-.88,1.68-1.55,2.18s-1.49.75-2.44.75Zm0-1.61c.84,0,1.49-.41,1.96-1.23.47-.82.71-2,.71-3.54,0-1.03-.11-1.89-.32-2.6-.22-.71-.52-1.25-.92-1.62-.4-.37-.88-.55-1.43-.55-.83,0-1.49.41-1.96,1.23-.48.82-.71,2-.72,3.54,0,1.03.11,1.9.32,2.61.22.71.52,1.25.92,1.61s.88.55,1.44.55Z"/>
    <path class="cls-1" d="m36.3,90.52v-1.35l4.18-4.33c.45-.47.82-.88,1.11-1.24.29-.36.51-.7.66-1.02.15-.32.22-.66.22-1.03,0-.41-.1-.77-.29-1.07-.19-.3-.46-.53-.79-.69-.33-.16-.71-.24-1.13-.24-.44,0-.83.09-1.16.27s-.58.44-.76.77c-.18.33-.27.72-.27,1.16h-1.78c0-.75.17-1.41.52-1.97s.82-1,1.42-1.31c.6-.31,1.29-.47,2.06-.47s1.46.15,2.06.46c.59.31,1.06.73,1.39,1.26.33.53.5,1.13.5,1.79,0,.46-.09.91-.26,1.35-.17.44-.47.93-.89,1.46-.42.54-1.01,1.19-1.76,1.95l-2.46,2.57v.09h5.57v1.6h-8.14Z"/>
    <path class="cls-1" d="m50.22,84.33c0,1.52-.2,2.91-.6,4.18-.4,1.27-.98,2.44-1.74,3.52h-1.65c.3-.4.58-.89.83-1.47.26-.58.48-1.21.68-1.9.19-.69.34-1.41.45-2.15.11-.74.16-1.47.16-2.19,0-.95-.09-1.92-.28-2.9-.19-.98-.44-1.89-.77-2.73-.32-.84-.68-1.53-1.07-2.06h1.65c.76,1.07,1.35,2.25,1.74,3.52.4,1.27.6,2.66.6,4.18Z"/>
    <path class="cls-1" d="m73.75,81.24l2.05,3.61,2.06-3.61h1.97l-2.89,4.64,2.92,4.64h-1.97l-2.09-3.47-2.08,3.47h-1.98l2.89-4.64-2.85-4.64h1.98Z"/>
    <path class="cls-1" d="m94.65,85.17l-8.02,3.89v-1.85l5.92-2.69-.06.1v-.26l.06.11-5.92-2.7v-1.84l8.02,3.89v1.35Z"/>
    <path class="cls-1" d="m106.3,90.72c-.95,0-1.77-.26-2.44-.75-.68-.5-1.19-1.23-1.55-2.18-.36-.95-.54-2.1-.54-3.45s.18-2.49.54-3.44c.36-.95.88-1.67,1.56-2.17s1.49-.75,2.44-.75,1.76.25,2.43.75c.68.5,1.19,1.23,1.55,2.17s.54,2.09.54,3.43-.18,2.5-.54,3.45c-.36.95-.88,1.68-1.55,2.18s-1.49.75-2.44.75Zm0-1.61c.84,0,1.49-.41,1.96-1.23.47-.82.71-2,.71-3.54,0-1.03-.11-1.89-.32-2.6-.22-.71-.52-1.25-.92-1.62-.4-.37-.88-.55-1.43-.55-.83,0-1.49.41-1.96,1.23-.48.82-.71,2-.72,3.54,0,1.03.11,1.9.32,2.61.22.71.52,1.25.92,1.61s.88.55,1.44.55Z"/>
    <path class="cls-1" d="m73.75,101.24l2.05,3.61,2.06-3.61h1.97l-2.89,4.64,2.92,4.64h-1.97l-2.09-3.47-2.08,3.47h-1.98l2.89-4.64-2.85-4.64h1.98Z"/>
    <path class="cls-1" d="m86.64,105.17v-1.35l8.02-3.89v1.84l-5.92,2.7.05-.11v.26l-.05-.1,5.92,2.69v1.85l-8.02-3.89Z"/>
    <path class="cls-1" d="m106.3,110.69c-.83,0-1.57-.14-2.22-.43-.65-.29-1.16-.68-1.54-1.19-.38-.51-.58-1.1-.61-1.77h1.9c.02.37.15.68.37.95.22.27.52.47.88.62.36.15.76.22,1.21.22.49,0,.92-.08,1.29-.25s.67-.41.88-.71c.21-.3.32-.65.32-1.05s-.11-.78-.32-1.1c-.21-.32-.52-.56-.92-.75s-.89-.27-1.46-.27h-1.04v-1.52h1.04c.46,0,.86-.08,1.21-.25s.62-.4.82-.69c.2-.3.3-.64.3-1.04s-.09-.72-.26-1c-.17-.28-.41-.51-.72-.67-.31-.16-.68-.24-1.1-.24s-.78.07-1.13.22c-.35.15-.63.36-.85.63-.22.27-.33.6-.35.98h-1.8c.02-.67.22-1.26.59-1.76.38-.51.87-.9,1.49-1.19.62-.29,1.31-.43,2.06-.43s1.48.15,2.06.46c.58.31,1.02.72,1.34,1.23s.47,1.07.47,1.68c0,.69-.19,1.28-.58,1.76-.39.48-.9.81-1.55.97v.1c.82.12,1.46.45,1.91.98.45.53.68,1.18.67,1.96,0,.68-.18,1.29-.56,1.83-.38.54-.9.96-1.55,1.27-.66.31-1.41.46-2.25.46Z"/>
    <path class="cls-1" d="m40.6,130.69c-.83,0-1.57-.14-2.22-.43-.65-.29-1.16-.68-1.54-1.19-.38-.51-.58-1.1-.61-1.77h1.9c.02.37.15.68.37.95.22.27.52.47.88.62.36.15.76.22,1.21.22.49,0,.92-.08,1.29-.25s.67-.41.88-.71.32-.66.32-1.05-.11-.78-.32-1.1c-.21-.32-.52-.56-.92-.75-.4-.18-.89-.27-1.46-.27h-1.04v-1.52h1.04c.46,0,.86-.08,1.21-.25s.62-.4.82-.69c.2-.3.3-.64.3-1.04s-.09-.72-.26-1c-.17-.28-.41-.51-.72-.67-.31-.16-.68-.24-1.1-.24s-.78.07-1.13.22c-.35.15-.63.36-.85.63-.22.27-.33.6-.35.98h-1.8c.02-.67.22-1.26.59-1.76.38-.51.87-.9,1.49-1.19.62-.29,1.31-.43,2.06-.43s1.48.15,2.06.46c.58.31,1.02.72,1.34,1.23s.47,1.07.47,1.68c0,.69-.19,1.28-.58,1.76-.39.48-.9.81-1.55.97v.1c.82.12,1.46.45,1.91.98.45.53.68,1.18.67,1.96,0,.68-.18,1.29-.56,1.83s-.9.96-1.55,1.27c-.66.31-1.41.46-2.25.46Z"/>
    <path class="cls-1" d="m50.75,124.33c0,1.52-.2,2.91-.6,4.18s-.98,2.44-1.74,3.52h-1.65c.3-.4.58-.89.83-1.47.26-.58.48-1.21.68-1.91.19-.69.34-1.41.45-2.15.11-.74.16-1.47.16-2.19,0-.95-.09-1.92-.28-2.9-.19-.98-.44-1.89-.77-2.73-.32-.84-.68-1.53-1.07-2.06h1.65c.76,1.07,1.35,2.25,1.74,3.52.4,1.27.6,2.66.6,4.18Z"/>
    <path class="cls-1" d="m73.75,121.24l2.05,3.61,2.06-3.61h1.97l-2.89,4.64,2.92,4.64h-1.97l-2.09-3.46-2.08,3.46h-1.98l2.89-4.64-2.85-4.64h1.98Z"/>
    <path class="cls-1" d="m86.64,125.17v-1.35l8.02-3.89v1.84l-5.92,2.7.05-.11v.26l-.05-.1,5.92,2.69v1.85l-8.02-3.89Z"/>
    <path class="cls-1" d="m106.3,130.72c-.95,0-1.77-.25-2.44-.75-.68-.5-1.19-1.22-1.55-2.18s-.54-2.1-.54-3.45.18-2.49.54-3.44c.36-.95.88-1.67,1.56-2.17s1.49-.75,2.44-.75,1.76.25,2.43.75c.68.5,1.19,1.23,1.55,2.17s.54,2.09.54,3.43-.18,2.5-.54,3.45c-.36.95-.88,1.68-1.55,2.18-.68.5-1.49.75-2.44.75Zm0-1.61c.84,0,1.49-.41,1.96-1.23.47-.82.71-2,.71-3.54,0-1.03-.11-1.89-.32-2.6-.22-.71-.52-1.25-.92-1.62-.4-.37-.88-.55-1.43-.55-.83,0-1.49.41-1.96,1.23-.48.82-.71,2-.72,3.54,0,1.03.11,1.9.32,2.61.22.71.52,1.25.92,1.61s.88.55,1.44.55Z"/>
    <path class="cls-1" d="m73.75,141.24l2.05,3.61,2.06-3.61h1.97l-2.89,4.64,2.92,4.64h-1.97l-2.09-3.46-2.08,3.46h-1.98l2.89-4.64-2.85-4.64h1.98Z"/>
    <path class="cls-1" d="m94.65,146.33l-8.02,3.89v-1.85l5.92-2.69-.06.1v-.26l.06.11-5.92-2.7v-1.84l8.02,3.89v1.35Z"/>
    <path class="cls-1" d="m107.48,143.55v1.57h-5.48v-1.57h5.48Z"/>
    <path class="cls-1" d="m114.17,150.69c-.83,0-1.57-.14-2.22-.43-.65-.29-1.16-.68-1.54-1.19-.38-.51-.58-1.1-.61-1.77h1.9c.02.37.15.68.37.95.22.27.52.47.88.62.36.15.76.22,1.21.22.49,0,.92-.08,1.29-.25s.67-.41.88-.71.32-.66.32-1.05-.11-.78-.32-1.1c-.21-.32-.52-.56-.92-.75-.4-.18-.89-.27-1.46-.27h-1.04v-1.52h1.04c.46,0,.86-.08,1.21-.25s.62-.4.82-.69.3-.64.3-1.04-.09-.72-.26-1c-.17-.28-.41-.51-.72-.67-.31-.16-.68-.24-1.1-.24s-.78.07-1.13.22c-.35.15-.63.36-.85.63-.22.27-.33.6-.35.97h-1.8c.02-.67.22-1.25.59-1.76.38-.51.87-.9,1.49-1.19.62-.29,1.31-.43,2.06-.43s1.48.15,2.06.46c.58.31,1.02.72,1.34,1.23.32.51.47,1.07.47,1.68,0,.69-.19,1.28-.58,1.76-.39.48-.9.81-1.55.97v.1c.82.12,1.46.45,1.91.98.45.53.68,1.18.67,1.96,0,.68-.18,1.29-.56,1.83s-.9.96-1.55,1.27c-.66.31-1.41.46-2.25.46Z"/>
  </g>
  <path class="cls-4" d="m57.98,95.52v-1.19c1.62,0,2.73-.32,3.33-.93.6-.61.9-1.72.9-3.32v-6.48c0-1.13.11-2.1.33-2.93.22-.82.57-1.51,1.04-2.05s1.08-.95,1.83-1.21,1.65-.4,2.7-.4v1.53c-1.02,0-1.85.16-2.48.52-.63.35-1.09.91-1.38,1.65s-.43,1.71-.43,2.88v6.86c0,.87-.09,1.62-.28,2.26s-.5,1.16-.93,1.57-1.03.72-1.79.92c-.76.2-1.71.3-2.85.3Zm0,.54v-1.73h3.17v1.73h-3.17Zm10.14,17.32c-1.05,0-1.95-.13-2.7-.4-.75-.27-1.36-.67-1.83-1.21s-.82-1.23-1.04-2.05c-.22-.82-.33-1.8-.33-2.93v-6.48c0-1.6-.3-2.71-.9-3.32-.6-.61-1.71-.92-3.33-.93v-1.19c1.15,0,2.1.12,2.85.32.76.2,1.35.51,1.79.92s.75.93.93,1.56c.18.63.28,1.39.28,2.26v6.86c0,1.17.14,2.13.43,2.88.29.75.75,1.3,1.38,1.65.63.35,1.46.53,2.48.53v1.53Z"/>
  <path class="cls-4" d="m57.98,136.52v-1.19c1.62,0,2.73-.32,3.33-.93.6-.61.9-1.72.9-3.32v-6.48c0-1.13.11-2.1.33-2.93.22-.82.57-1.51,1.04-2.05s1.08-.95,1.83-1.21,1.65-.4,2.7-.4v1.53c-1.02,0-1.85.16-2.48.52-.63.35-1.09.91-1.38,1.65s-.43,1.71-.43,2.88v6.86c0,.87-.09,1.62-.28,2.26s-.5,1.16-.93,1.57-1.03.72-1.79.92c-.76.2-1.71.3-2.85.3Zm0,.54v-1.73h3.17v1.73h-3.17Zm10.14,17.32c-1.05,0-1.95-.13-2.7-.4-.75-.27-1.36-.67-1.83-1.21s-.82-1.23-1.04-2.05c-.22-.82-.33-1.8-.33-2.93v-6.48c0-1.6-.3-2.71-.9-3.32-.6-.61-1.71-.92-3.33-.93v-1.19c1.15,0,2.1.12,2.85.32.76.2,1.35.51,1.79.92s.75.93.93,1.56c.18.63.28,1.39.28,2.26v6.86c0,1.17.14,2.13.43,2.88.29.75.75,1.3,1.38,1.65.63.35,1.46.53,2.48.53v1.53Z"/>
  <polygon class="cls-1" points="276 94.75 270 91.29 270 98.21 276 94.75"/>
  <polygon class="cls-1" points="276 65.75 270 62.29 270 69.21 276 65.75"/>
  <polygon class="cls-1" points="276 137.62 270 134.16 270 141.09 276 137.62"/>
  <path class="cls-1" d="m283.45,98.47l2.05,3.61,2.06-3.61h1.97l-2.89,4.64,2.92,4.64h-1.97l-2.09-3.47-2.08,3.47h-1.98l2.89-4.64-2.85-4.64h1.98Z"/>
  <path class="cls-1" d="m283.45,67.47l2.05,3.61,2.06-3.61h1.97l-2.89,4.64,2.92,4.64h-1.97l-2.09-3.47-2.08,3.47h-1.98l2.89-4.64-2.85-4.64h1.98Z"/>
  <path class="cls-1" d="m283.45,142.47l2.05,3.61,2.06-3.61h1.97l-2.89,4.64,2.92,4.64h-1.97l-2.09-3.47-2.08,3.47h-1.98l2.89-4.64-2.85-4.64h1.98Z"/>
  <path class="cls-1" d="m212.65,107.28c-.67,0-1.25-.18-1.73-.53-.48-.35-.84-.87-1.1-1.54-.25-.67-.38-1.48-.38-2.43s.13-1.75.38-2.42c.25-.67.62-1.18,1.1-1.53.48-.35,1.05-.53,1.72-.53s1.24.18,1.72.53c.48.35.84.86,1.1,1.53.25.67.38,1.48.38,2.42s-.13,1.76-.38,2.44-.62,1.18-1.09,1.54c-.48.35-1.05.53-1.72.53Zm0-1.14c.59,0,1.05-.29,1.39-.87.33-.58.5-1.41.5-2.5,0-.72-.08-1.34-.23-1.84-.15-.5-.37-.88-.65-1.14-.28-.26-.62-.39-1.01-.39-.59,0-1.05.29-1.38.87-.34.58-.5,1.41-.51,2.5,0,.73.08,1.34.23,1.84.15.5.37.88.65,1.14.28.26.62.39,1.01.39Z"/>
  <path class="cls-1" d="m245.86,107.25c-.58,0-1.11-.1-1.57-.3-.46-.2-.82-.48-1.09-.84-.27-.36-.41-.78-.43-1.25h1.34c.02.26.1.48.26.67.16.19.36.33.62.44.26.1.54.15.85.15.34,0,.65-.06.91-.18.27-.12.47-.29.62-.5.15-.21.23-.46.23-.74s-.08-.55-.22-.77c-.15-.22-.37-.4-.65-.53s-.63-.19-1.03-.19h-.74v-1.07h.74c.32,0,.61-.06.85-.17.25-.12.44-.28.58-.49.14-.21.21-.45.21-.74s-.06-.5-.18-.71c-.12-.2-.29-.36-.51-.47-.22-.11-.48-.17-.78-.17s-.55.05-.79.16c-.25.1-.45.25-.6.44-.15.19-.24.42-.25.69h-1.27c.01-.47.15-.89.42-1.24.27-.36.62-.64,1.05-.84.44-.2.92-.3,1.46-.3s1.04.11,1.45.33c.41.22.72.51.95.87.22.36.33.76.33,1.18,0,.49-.13.9-.41,1.24-.27.34-.64.57-1.09.69v.07c.58.09,1.03.32,1.35.69.32.37.48.83.47,1.38,0,.48-.13.91-.4,1.29s-.63.68-1.1.9c-.46.22-.99.33-1.59.33Z"/>
  <path class="cls-1" d="m212.65,151.28c-.67,0-1.25-.18-1.73-.53-.48-.35-.84-.87-1.1-1.54-.25-.67-.38-1.48-.38-2.43s.13-1.75.38-2.42c.25-.67.62-1.18,1.1-1.53.48-.35,1.05-.53,1.72-.53s1.24.18,1.72.53c.48.35.84.86,1.1,1.53.25.67.38,1.48.38,2.42s-.13,1.76-.38,2.44-.62,1.18-1.09,1.54c-.48.35-1.05.53-1.72.53Zm0-1.14c.59,0,1.05-.29,1.39-.87.33-.58.5-1.41.5-2.5,0-.72-.08-1.34-.23-1.84-.15-.5-.37-.88-.65-1.14-.28-.26-.62-.39-1.01-.39-.59,0-1.05.29-1.38.87-.34.58-.5,1.41-.51,2.5,0,.73.08,1.34.23,1.84.15.5.37.88.65,1.14.28.26.62.39,1.01.39Z"/>
  <g>
    <path class="cls-1" d="m173.91,146.22v1.11h-3.87v-1.11h3.87Z"/>
    <path class="cls-1" d="m178.63,151.25c-.58,0-1.11-.1-1.57-.3-.46-.2-.82-.48-1.09-.84-.27-.36-.41-.78-.43-1.25h1.34c.02.26.1.48.26.67.16.19.36.33.62.44.26.1.54.15.85.15.34,0,.65-.06.91-.18.27-.12.47-.29.62-.5.15-.21.23-.46.23-.74s-.08-.55-.22-.77c-.15-.22-.37-.4-.65-.53s-.63-.19-1.03-.19h-.74v-1.07h.74c.32,0,.61-.06.85-.17.25-.12.44-.28.58-.49.14-.21.21-.45.21-.74s-.06-.5-.18-.71c-.12-.2-.29-.36-.51-.47-.22-.11-.48-.17-.78-.17s-.55.05-.79.16c-.25.1-.45.25-.6.44-.15.19-.24.42-.25.69h-1.27c.01-.47.15-.89.42-1.24.27-.36.62-.64,1.05-.84.44-.2.92-.3,1.46-.3s1.04.11,1.45.33c.41.22.72.51.95.87.22.36.33.76.33,1.18,0,.49-.13.9-.41,1.24-.27.34-.64.57-1.09.69v.07c.58.09,1.03.32,1.35.69.32.37.48.83.47,1.38,0,.48-.13.91-.4,1.29s-.63.68-1.1.9c-.46.22-.99.33-1.59.33Z"/>
  </g>
  <line class="cls-2" x1="244" y1="95" x2="239" y2="86"/>
  <line class="cls-2" x1="236" y1="95" x2="231" y2="86"/>
  <line class="cls-2" x1="241" y1="95" x2="236" y2="86"/>
  <line class="cls-2" x1="226" y1="95" x2="221" y2="86"/>
  <line class="cls-2" x1="231" y1="95" x2="226" y2="86"/>
  <line class="cls-2" x1="216" y1="95" x2="211" y2="86"/>
  <line class="cls-2" x1="211.5" y1="135.5" x2="208" y2="129"/>
  <line class="cls-2" x1="203" y1="138" x2="198" y2="129"/>
  <line class="cls-2" x1="208" y1="138" x2="203" y2="129"/>
  <line class="cls-2" x1="193" y1="138" x2="188" y2="129"/>
  <line class="cls-2" x1="198" y1="138" x2="193" y2="129"/>
  <line class="cls-2" x1="183" y1="138" x2="178" y2="129"/>
  <line class="cls-2" x1="188" y1="138" x2="183" y2="129"/>
  <line class="cls-2" x1="221" y1="95" x2="216" y2="86"/>
  <line class="cls-3" x1="163" y1="94.75" x2="210" y2="94.75"/>
  <line class="cls-3" x1="215" y1="94.75" x2="244" y2="94.75"/>
  <line class="cls-3" x1="249" y1="94.75" x2="270" y2="94.75"/>
  <line class="cls-3" x1="163" y1="65.75" x2="210" y2="65.75"/>
  <line class="cls-3" x1="215" y1="66" x2="270" y2="66"/>
  <line class="cls-3" x1="163" y1="137.62" x2="176" y2="137.62"/>
  <line class="cls-3" x1="181" y1="137.62" x2="210" y2="137.62"/>
  <line class="cls-3" x1="215" y1="137.62" x2="270" y2="137"/>
  <circle class="cls-2" cx="212.5" cy="94.75" r="2.5"/>
  <circle class="cls-2" cx="246.5" cy="94.75" r="2.5"/>
  <circle class="cls-4" cx="212.5" cy="65.75" r="2.5"/>
  <circle class="cls-2" cx="212.5" cy="137.62" r="2.5"/>
  <circle class="cls-2" cx="178.5" cy="137.5" r="2.5"/>
</svg>