<?xml version="1.0" encoding="UTF-8"?>
<svg id="Layer_1" data-name="Layer 1" xmlns="http://www.w3.org/2000/svg" viewBox="0 0 306 224">
  <defs>
    <style>
      .cls-1 {
        fill: #d1ae59;
      }
    </style>
  </defs>
  <path class="cls-1" d="m27.84,0H10.9C10.8,0,10.74.03,10.7.15c-.11.42-.24.84-.38,1.26-.24.8-.47,1.58-.72,2.38-.28.93-.57,1.86-.85,2.79-.26.82-.5,1.65-.76,2.47-.26.84-.51,1.67-.77,2.51-.23.74-.45,1.48-.69,2.27-.03-.05-.05-.07-.07-.11-.28-.82-.57-1.63-.85-2.46-.3-.86-.59-1.73-.89-2.59-.13-.38-.27-.77-.4-1.15-.04-.11-.09-.15-.22-.13H1.12v1.69h1.75c.08,0,.12.01.15.09.31.86.61,1.73.92,2.59.38,1.08.77,2.15,1.16,3.23.2.57.4,1.12.61,1.69.03.09.08.11.15.11h1.48c.09,0,.12-.03.15-.12.2-.67.42-1.35.62-2.02.13-.43.26-.86.39-1.3.24-.81.5-1.62.74-2.43.3-.97.59-1.93.89-2.9.2-.66.4-1.31.61-1.97.3-.97.59-1.94.9-2.92.15-.49.3-.96.45-1.46l58.99-.06V0H27.84Z"/>
  <g>
    <path class="cls-1" d="m18.81,16.15c-.83,0-1.57-.14-2.22-.43-.65-.29-1.16-.68-1.54-1.19-.38-.51-.58-1.1-.61-1.77h1.9c.02.37.15.68.37.95.22.27.52.47.88.62.36.15.76.22,1.21.22.49,0,.92-.08,1.29-.25s.67-.41.88-.71c.21-.3.32-.65.32-1.05s-.11-.78-.32-1.1c-.21-.32-.52-.56-.92-.75s-.89-.27-1.46-.27h-1.04v-1.52h1.04c.46,0,.86-.08,1.21-.25s.62-.4.82-.69c.2-.3.3-.64.3-1.04s-.09-.72-.26-1c-.17-.28-.41-.51-.72-.67-.31-.16-.68-.24-1.1-.24s-.78.07-1.13.22c-.35.15-.63.36-.85.63-.22.27-.33.6-.35.98h-1.8c.02-.67.22-1.26.59-1.76.38-.51.87-.9,1.49-1.19.62-.29,1.31-.43,2.06-.43s1.48.15,2.06.46c.58.31,1.02.72,1.34,1.23s.47,1.07.47,1.68c0,.69-.19,1.28-.58,1.76-.39.48-.9.81-1.55.97v.1c.82.12,1.46.45,1.91.98.45.53.68,1.18.67,1.96,0,.68-.18,1.29-.56,1.83-.38.54-.9.96-1.55,1.27-.66.31-1.41.46-2.25.46Z"/>
    <path class="cls-1" d="m26.91,6.7l2.05,3.61,2.06-3.61h1.97l-2.89,4.64,2.92,4.64h-1.97l-2.09-3.47-2.08,3.47h-1.98l2.89-4.64-2.85-4.64h1.98Z"/>
    <path class="cls-1" d="m39.72,10.63v-1.62h8.16v1.62h-8.16Zm3.27,3.27V5.74h1.62v8.16h-1.62Z"/>
    <path class="cls-1" d="m59.85,3.61v12.36h-1.87V5.49h-.07l-2.96,1.93v-1.79l3.08-2.02h1.82Z"/>
    <path class="cls-1" d="m67.49,16.15c-.83,0-1.57-.14-2.22-.43-.65-.29-1.16-.68-1.54-1.19-.38-.51-.58-1.1-.61-1.77h1.9c.02.37.15.68.37.95.22.27.52.47.88.62.36.15.76.22,1.21.22.49,0,.92-.08,1.29-.25s.67-.41.88-.71c.21-.3.32-.65.32-1.05s-.11-.78-.32-1.1c-.21-.32-.52-.56-.92-.75s-.89-.27-1.46-.27h-1.04v-1.52h1.04c.46,0,.86-.08,1.21-.25s.62-.4.82-.69c.2-.3.3-.64.3-1.04s-.09-.72-.26-1c-.17-.28-.41-.51-.72-.67-.31-.16-.68-.24-1.1-.24s-.78.07-1.13.22c-.35.15-.63.36-.85.63-.22.27-.33.6-.35.98h-1.8c.02-.67.22-1.26.59-1.76.38-.51.87-.9,1.49-1.19.62-.29,1.31-.43,2.06-.43s1.48.15,2.06.46c.58.31,1.02.72,1.34,1.23s.47,1.07.47,1.68c0,.69-.19,1.28-.58,1.76-.39.48-.9.81-1.55.97v.1c.82.12,1.46.45,1.91.98.45.53.68,1.18.67,1.96,0,.68-.18,1.29-.56,1.83-.38.54-.9.96-1.55,1.27-.66.31-1.41.46-2.25.46Z"/>
    <path class="cls-1" d="m79.25,8.73v-1.58h7.73v1.58h-7.73Zm0,3.72v-1.58h7.73v1.58h-7.73Z"/>
    <path class="cls-1" d="m95.92,6.7l2.05,3.61,2.06-3.61h1.97l-2.89,4.64,2.92,4.64h-1.97l-2.09-3.47-2.08,3.47h-1.98l2.89-4.64-2.85-4.64h1.98Z"/>
    <path class="cls-1" d="m108.73,10.63v-1.62h8.16v1.62h-8.16Zm3.27,3.27V5.74h1.62v8.16h-1.62Z"/>
    <path class="cls-1" d="m128.47,16.15c-.83,0-1.57-.14-2.22-.43-.65-.29-1.16-.68-1.54-1.19-.38-.51-.58-1.1-.61-1.77h1.9c.02.37.15.68.37.95.22.27.52.47.88.62.36.15.77.22,1.21.22.49,0,.92-.08,1.29-.25s.67-.41.88-.71c.21-.3.32-.65.32-1.05s-.11-.78-.32-1.1c-.21-.32-.52-.56-.92-.75s-.89-.27-1.46-.27h-1.04v-1.52h1.04c.46,0,.86-.08,1.21-.25.35-.17.62-.4.82-.69.2-.3.3-.64.3-1.04s-.09-.72-.26-1-.41-.51-.72-.67c-.31-.16-.68-.24-1.1-.24s-.78.07-1.12.22c-.35.15-.63.36-.85.63-.22.27-.33.6-.35.98h-1.8c.02-.67.22-1.26.59-1.76.38-.51.87-.9,1.49-1.19.62-.29,1.31-.43,2.06-.43s1.48.15,2.06.46c.58.31,1.02.72,1.34,1.23.32.51.47,1.07.47,1.68,0,.69-.19,1.28-.58,1.76s-.9.81-1.55.97v.1c.82.12,1.46.45,1.91.98.45.53.68,1.18.67,1.96,0,.68-.18,1.29-.56,1.83-.38.54-.9.96-1.55,1.27-.66.31-1.41.46-2.25.46Z"/>
    <path class="cls-1" d="m137.49,14.29l-.09.66c-.06.48-.16.99-.31,1.51-.14.53-.29,1.01-.44,1.46-.15.45-.27.81-.37,1.07h-1.28c.05-.25.12-.59.22-1.01.09-.42.18-.9.27-1.42.09-.52.16-1.06.2-1.6l.06-.68h1.74Z"/>
    <path class="cls-1" d="m5.3,57.15c-.83,0-1.57-.14-2.22-.43-.65-.29-1.16-.68-1.54-1.19-.38-.51-.58-1.1-.61-1.77h1.9c.02.37.15.68.37.95.22.27.52.47.88.62.36.15.76.22,1.21.22.49,0,.92-.08,1.29-.25s.67-.41.88-.71c.21-.3.32-.65.32-1.05s-.11-.78-.32-1.1c-.21-.32-.52-.56-.92-.75s-.89-.27-1.46-.27h-1.04v-1.52h1.04c.46,0,.86-.08,1.21-.25s.62-.4.82-.69c.2-.3.3-.64.3-1.04s-.09-.72-.26-1c-.17-.28-.41-.51-.72-.67-.31-.16-.68-.24-1.1-.24s-.78.07-1.13.22c-.35.15-.63.36-.85.63-.22.27-.33.6-.35.98h-1.8c.02-.67.22-1.26.59-1.76.38-.51.87-.9,1.49-1.19.62-.29,1.31-.43,2.06-.43s1.48.15,2.06.46c.58.31,1.02.72,1.34,1.23s.47,1.07.47,1.68c0,.69-.19,1.28-.58,1.76-.39.48-.9.81-1.55.97v.1c.82.12,1.46.45,1.91.98.45.53.68,1.18.67,1.96,0,.68-.18,1.29-.56,1.83-.38.54-.9.96-1.55,1.27-.66.31-1.41.46-2.25.46Z"/>
    <path class="cls-1" d="m13.4,47.7l2.05,3.61,2.06-3.61h1.97l-2.89,4.64,2.92,4.64h-1.97l-2.09-3.47-2.08,3.47h-1.98l2.89-4.64-2.85-4.64h1.98Z"/>
    <path class="cls-1" d="m26.21,51.63v-1.62h8.16v1.62h-8.16Zm3.27,3.27v-8.16h1.62v8.16h-1.62Z"/>
    <path class="cls-1" d="m46.33,44.61v12.36h-1.87v-10.49h-.07l-2.96,1.93v-1.79l3.08-2.02h1.82Z"/>
    <path class="cls-1" d="m53.98,57.15c-.83,0-1.57-.14-2.22-.43-.65-.29-1.16-.68-1.54-1.19-.38-.51-.58-1.1-.61-1.77h1.9c.02.37.15.68.37.95.22.27.52.47.88.62.36.15.76.22,1.21.22.49,0,.92-.08,1.29-.25s.67-.41.88-.71c.21-.3.32-.65.32-1.05s-.11-.78-.32-1.1c-.21-.32-.52-.56-.92-.75s-.89-.27-1.46-.27h-1.04v-1.52h1.04c.46,0,.86-.08,1.21-.25s.62-.4.82-.69c.2-.3.3-.64.3-1.04s-.09-.72-.26-1c-.17-.28-.41-.51-.72-.67-.31-.16-.68-.24-1.1-.24s-.78.07-1.13.22c-.35.15-.63.36-.85.63-.22.27-.33.6-.35.98h-1.8c.02-.67.22-1.26.59-1.76.38-.51.87-.9,1.49-1.19.62-.29,1.31-.43,2.06-.43s1.48.15,2.06.46c.58.31,1.02.72,1.34,1.23s.47,1.07.47,1.68c0,.69-.19,1.28-.58,1.76-.39.48-.9.81-1.55.97v.1c.82.12,1.46.45,1.91.98.45.53.68,1.18.67,1.96,0,.68-.18,1.29-.56,1.83-.38.54-.9.96-1.55,1.27-.66.31-1.41.46-2.25.46Z"/>
    <path class="cls-1" d="m65.74,49.73v-1.58h7.73v1.58h-7.73Zm0,3.72v-1.58h7.73v1.58h-7.73Z"/>
    <path class="cls-1" d="m82.41,47.7l2.05,3.61,2.06-3.61h1.97l-2.89,4.64,2.92,4.64h-1.97l-2.09-3.47-2.08,3.47h-1.98l2.89-4.64-2.85-4.64h1.98Z"/>
    <path class="cls-1" d="m99.72,51.63v-1.62h8.16v1.62h-8.16Zm3.27,3.27v-8.16h1.62v8.16h-1.62Z"/>
    <path class="cls-1" d="m119.47,57.15c-.55,0-1.09-.11-1.63-.3-.53-.19-1.02-.52-1.45-.97s-.78-1.06-1.04-1.82c-.26-.76-.39-1.71-.39-2.85,0-1.08.11-2.04.32-2.87.22-.84.53-1.54.93-2.12.41-.58.9-1.02,1.47-1.32.58-.3,1.22-.45,1.94-.45s1.39.15,1.96.43c.57.29,1.04.69,1.39,1.2.36.51.58,1.09.68,1.74h-1.84c-.12-.52-.37-.94-.74-1.26-.37-.33-.85-.49-1.45-.49-.91,0-1.61.39-2.12,1.18-.51.79-.76,1.89-.76,3.29h.09c.21-.35.48-.65.79-.9.31-.25.66-.44,1.05-.57.39-.13.8-.2,1.23-.2.72,0,1.37.17,1.95.52.58.35,1.05.83,1.39,1.44s.52,1.31.52,2.1-.18,1.5-.53,2.14c-.36.64-.86,1.15-1.5,1.52-.64.37-1.4.55-2.26.55Zm0-1.57c.48,0,.9-.12,1.27-.35s.67-.55.89-.94c.22-.39.33-.83.33-1.32s-.11-.91-.32-1.3c-.21-.39-.5-.7-.87-.93-.37-.23-.79-.34-1.26-.34-.36,0-.69.07-.99.21s-.57.33-.8.57c-.23.24-.41.52-.54.83s-.2.64-.2.99c0,.46.11.89.32,1.29s.51.71.89.95c.38.24.8.36,1.28.36Z"/>
    <path class="cls-1" d="m127.41,47.7l2.05,3.61,2.06-3.61h1.97l-2.89,4.64,2.92,4.64h-1.97l-2.09-3.47-2.08,3.47h-1.98l2.89-4.64-2.85-4.64h1.98Z"/>
    <path class="cls-1" d="m140.23,51.63v-1.62h8.16v1.62h-8.16Zm3.27,3.27v-8.16h1.62v8.16h-1.62Z"/>
    <path class="cls-1" d="m159.77,44.44c.55,0,1.09.1,1.63.3.54.2,1.02.52,1.45.97.43.45.78,1.05,1.04,1.81.26.76.39,1.7.4,2.83,0,1.08-.11,2.05-.33,2.89-.22.84-.53,1.55-.93,2.13s-.89,1.02-1.47,1.32c-.58.3-1.22.45-1.94.45s-1.39-.15-1.96-.43-1.04-.69-1.39-1.2c-.36-.51-.58-1.1-.67-1.77h1.84c.12.53.37.96.74,1.29.37.33.85.49,1.45.49.91,0,1.61-.4,2.12-1.19.51-.79.76-1.9.77-3.32h-.1c-.21.35-.47.64-.78.89-.31.25-.66.44-1.05.58-.39.14-.8.21-1.24.21-.71,0-1.36-.18-1.94-.53s-1.05-.83-1.39-1.44-.52-1.31-.52-2.09.18-1.49.53-2.12c.36-.64.86-1.14,1.5-1.51.64-.37,1.4-.55,2.26-.55Zm0,1.57c-.47,0-.89.12-1.27.35-.38.23-.67.54-.89.94-.22.39-.33.83-.33,1.31s.11.91.32,1.3c.21.39.5.7.87.92.37.23.79.34,1.26.34.35,0,.68-.07.99-.21.31-.14.57-.33.8-.57.23-.24.41-.52.54-.83.13-.31.19-.64.19-.98,0-.46-.11-.88-.32-1.27-.22-.39-.51-.71-.88-.94-.37-.24-.8-.36-1.28-.36Z"/>
    <path class="cls-1" d="m2.45,88.7l2.05,3.61,2.06-3.61h1.97l-2.89,4.64,2.92,4.64h-1.97l-2.09-3.47-2.08,3.47H.43l2.89-4.64-2.85-4.64h1.98Z"/>
    <path class="cls-1" d="m19.77,92.63v-1.62h8.16v1.62h-8.16Zm3.27,3.27v-8.16h1.62v8.16h-1.62Z"/>
    <path class="cls-1" d="m39.5,98.15c-.83,0-1.57-.14-2.22-.43-.65-.29-1.16-.68-1.54-1.19-.38-.51-.58-1.1-.61-1.77h1.9c.02.37.15.68.37.95.22.27.52.47.88.62.36.15.76.22,1.21.22.49,0,.92-.08,1.29-.25s.67-.41.88-.71c.21-.3.32-.65.32-1.05s-.11-.78-.32-1.1c-.21-.32-.52-.56-.92-.75s-.89-.27-1.46-.27h-1.04v-1.52h1.04c.46,0,.86-.08,1.21-.25s.62-.4.82-.69c.2-.3.3-.64.3-1.04s-.09-.72-.26-1c-.17-.28-.41-.51-.72-.67-.31-.16-.68-.24-1.1-.24s-.78.07-1.13.22c-.35.15-.63.36-.85.63-.22.27-.33.6-.35.98h-1.8c.02-.67.22-1.26.59-1.76.38-.51.87-.9,1.49-1.19.62-.29,1.31-.43,2.06-.43s1.48.15,2.06.46c.58.31,1.02.72,1.34,1.23s.47,1.07.47,1.68c0,.69-.19,1.28-.58,1.76-.39.48-.9.81-1.55.97v.1c.82.12,1.46.45,1.91.98.45.53.68,1.18.67,1.96,0,.68-.18,1.29-.56,1.83-.38.54-.9.96-1.55,1.27-.66.31-1.41.46-2.25.46Z"/>
    <path class="cls-1" d="m47.6,88.7l2.05,3.61,2.06-3.61h1.97l-2.89,4.64,2.92,4.64h-1.97l-2.09-3.47-2.08,3.47h-1.98l2.89-4.64-2.85-4.64h1.98Z"/>
    <path class="cls-1" d="m65.51,91.01v1.57h-5.48v-1.57h5.48Z"/>
    <path class="cls-1" d="m67.63,95.56v-1.51l5.34-8.44h1.19v2.22h-.75l-3.82,6.05v.1h7.32v1.58h-9.28Zm5.86,2.41v-3.56s.01-8.8.01-8.8h1.77v12.36h-1.78Z"/>
    <path class="cls-1" d="m84.12,90.73v-1.58h7.73v1.58h-7.73Zm0,3.72v-1.58h7.73v1.58h-7.73Z"/>
    <path class="cls-1" d="m103.64,98.18c-.95,0-1.77-.26-2.44-.75-.68-.5-1.19-1.23-1.55-2.18-.36-.95-.54-2.1-.54-3.45s.18-2.49.54-3.44c.36-.95.88-1.67,1.56-2.17s1.49-.75,2.44-.75,1.76.25,2.43.75c.68.5,1.19,1.23,1.55,2.17s.54,2.09.54,3.43-.18,2.5-.54,3.45c-.36.95-.88,1.68-1.55,2.18s-1.49.75-2.44.75Zm0-1.61c.84,0,1.49-.41,1.96-1.23.47-.82.71-2,.71-3.54,0-1.03-.11-1.89-.32-2.6-.22-.71-.52-1.25-.92-1.62-.4-.37-.88-.55-1.43-.55-.83,0-1.49.41-1.96,1.23-.48.82-.71,2-.72,3.54,0,1.03.11,1.9.32,2.61.22.71.52,1.25.92,1.61s.88.55,1.44.55Z"/>
    <path class="cls-1" d="m2.45,129.71l2.05,3.61,2.06-3.61h1.97l-2.89,4.64,2.92,4.64h-1.97l-2.09-3.46-2.08,3.46H.43l2.89-4.64-2.85-4.64h1.98Z"/>
    <path class="cls-1" d="m19.98,131.73v-1.58h7.73v1.58h-7.73Zm0,3.72v-1.58h7.73v1.58h-7.73Z"/>
    <path class="cls-1" d="m39.89,126.61v12.36h-1.87v-10.49h-.07l-2.96,1.93v-1.79l3.08-2.02h1.82Z"/>
    <path class="cls-1" d="m2.45,170.71l2.05,3.61,2.06-3.61h1.97l-2.89,4.64,2.92,4.64h-1.97l-2.09-3.46-2.08,3.46H.43l2.89-4.64-2.85-4.64h1.98Z"/>
    <path class="cls-1" d="m19.98,174.04v-1.59h7.73v1.59h-7.73Zm0,3.72v-1.59h7.73v1.59h-7.73Z"/>
    <path class="cls-1" d="m40.68,173.01v1.57h-5.48v-1.57h5.48Z"/>
    <path class="cls-1" d="m42.81,177.56v-1.51l5.34-8.44h1.19v2.22h-.75l-3.82,6.05v.1h7.32v1.58h-9.28Zm5.86,2.42v-3.56s.01-8.8.01-8.8h1.77v12.36h-1.78Z"/>
    <path class="cls-1" d="m11.91,214.8c0,1.32-.24,2.45-.72,3.4-.48.95-1.14,1.68-1.98,2.19-.84.51-1.79.76-2.86.76s-2.03-.25-2.86-.76c-.84-.51-1.5-1.24-1.98-2.19-.48-.95-.72-2.08-.72-3.4s.24-2.45.72-3.4c.48-.95,1.14-1.68,1.98-2.18.84-.51,1.79-.76,2.86-.76s2.02.25,2.86.76c.84.51,1.5,1.24,1.98,2.18.48.95.72,2.08.72,3.4Zm-1.85,0c0-1.01-.16-1.85-.49-2.54-.32-.69-.77-1.21-1.33-1.57s-1.2-.53-1.9-.53-1.35.18-1.91.53c-.56.36-1,.88-1.33,1.57-.32.69-.49,1.54-.49,2.54s.16,1.85.49,2.54c.32.69.77,1.21,1.33,1.57.56.36,1.2.53,1.91.53s1.34-.18,1.9-.53c.56-.36,1-.88,1.33-1.57.32-.69.49-1.54.49-2.54Z"/>
    <path class="cls-1" d="m13.56,213.26v-1.56h7.82v1.56h-3.02v7.71h-1.76v-7.71h-3.04Z"/>
    <path class="cls-1" d="m23.29,220.98v-9.27h3.85c1.05,0,1.88.22,2.49.67.61.44.92,1.05.92,1.81,0,.54-.17.97-.52,1.29-.35.32-.81.53-1.38.64.41.05.79.17,1.14.37s.62.47.84.8c.21.33.32.73.32,1.2,0,.49-.13.92-.38,1.3s-.62.67-1.1.88c-.48.21-1.06.32-1.74.32h-4.43Zm1.7-5.41h2.17c.34,0,.63-.05.87-.14.24-.1.43-.23.56-.41.13-.18.2-.39.2-.64,0-.36-.15-.64-.44-.84-.29-.2-.7-.3-1.21-.3h-2.15v2.34Zm0,3.9h2.73c.45,0,.8-.11,1.05-.32.25-.21.38-.5.38-.87,0-.43-.13-.77-.38-1.02-.25-.25-.6-.37-1.05-.37h-2.73v2.58Z"/>
    <path class="cls-1" d="m36.91,221.17c-.91,0-1.7-.2-2.36-.59-.66-.39-1.17-.95-1.52-1.66-.36-.71-.53-1.55-.53-2.51s.18-1.79.53-2.51c.36-.72.86-1.29,1.5-1.7.64-.41,1.39-.61,2.25-.61.52,0,1.03.09,1.52.26.49.17.93.44,1.32.81.39.37.7.85.92,1.44s.34,1.3.34,2.15v.64h-7.37v-1.35h5.6c0-.47-.1-.9-.29-1.26-.19-.37-.46-.66-.81-.87-.35-.21-.76-.32-1.22-.32-.51,0-.95.12-1.33.37-.38.25-.67.57-.87.97-.2.4-.31.83-.31,1.29v1.06c0,.62.11,1.15.33,1.58.22.43.53.77.92.99.39.23.85.34,1.38.34.34,0,.65-.05.94-.15s.53-.25.73-.44c.21-.2.36-.44.47-.73l1.71.31c-.14.5-.38.94-.73,1.32-.35.38-.79.67-1.32.88-.53.21-1.13.31-1.81.31Z"/>
    <path class="cls-1" d="m42.38,213.26v-1.56h7.82v1.56h-3.02v7.71h-1.76v-7.71h-3.04Z"/>
    <path class="cls-1" d="m53.3,214.34c-.33,0-.61-.12-.85-.36-.24-.24-.36-.52-.36-.85s.12-.61.36-.85c.24-.24.52-.35.85-.35s.61.12.85.35.36.52.36.85c0,.22-.06.42-.17.61-.11.18-.26.33-.44.44-.18.11-.38.16-.6.16Zm0,6.75c-.33,0-.61-.12-.85-.35-.24-.24-.36-.52-.36-.85s.12-.61.36-.85c.24-.24.52-.35.85-.35s.61.12.85.35c.24.24.36.52.36.85,0,.22-.06.42-.17.61-.11.18-.26.33-.44.44-.18.11-.38.16-.6.16Z"/>
    <path class="cls-1" d="m66.89,214.01v1.57h-5.48v-1.57h5.48Z"/>
    <path class="cls-1" d="m69.02,218.56v-1.51l5.34-8.44h1.19v2.22h-.75l-3.82,6.05v.1h7.32v1.58h-9.28Zm5.86,2.42v-3.56s.01-8.8.01-8.8h1.77v12.36h-1.78Z"/>
    <path class="cls-1" d="m82.77,219.29l-.09.66c-.06.48-.16.99-.3,1.51-.14.53-.29,1.01-.44,1.46-.15.45-.27.81-.37,1.07h-1.28c.05-.25.12-.59.22-1.01.09-.42.18-.9.27-1.42.09-.52.15-1.06.2-1.6l.06-.68h1.74Zm-.94-4.94c-.33,0-.61-.12-.85-.36-.24-.24-.36-.52-.36-.85s.12-.61.36-.85c.24-.24.52-.35.85-.35s.61.12.85.35.36.52.36.85c0,.22-.06.42-.17.61-.11.18-.26.33-.44.44-.18.11-.38.16-.6.16Z"/>
    <path class="cls-1" d="m94.48,208.61v12.36h-1.87v-10.49h-.07l-2.96,1.93v-1.79l3.08-2.02h1.82Z"/>
  </g>
  <path class="cls-1" d="m89.83,50.93v-.95l2.95-3.06c.32-.33.58-.62.78-.88.21-.25.36-.49.46-.72.1-.23.15-.47.15-.72,0-.29-.07-.54-.2-.75s-.32-.38-.56-.49c-.24-.11-.5-.17-.8-.17-.31,0-.59.06-.82.19-.23.13-.41.31-.54.54s-.19.51-.19.82h-1.26c0-.53.12-1,.37-1.39.24-.4.58-.71,1.01-.93s.91-.33,1.45-.33,1.03.11,1.45.33c.42.22.75.51.98.89s.35.79.35,1.26c0,.32-.06.64-.18.95-.12.31-.33.65-.63,1.03-.3.38-.71.84-1.24,1.38l-1.73,1.81v.06h3.93v1.13h-5.74Z"/>
  <path class="cls-1" d="m8.83,91.93v-.95l2.95-3.06c.32-.33.58-.62.78-.88.21-.25.36-.49.46-.72.1-.23.15-.47.15-.72,0-.29-.07-.54-.2-.75s-.32-.38-.56-.49c-.24-.11-.5-.17-.8-.17-.31,0-.59.06-.82.19-.23.13-.41.31-.54.54s-.19.51-.19.82h-1.26c0-.53.12-1,.37-1.39.24-.4.58-.71,1.01-.93s.91-.33,1.45-.33,1.03.11,1.45.33c.42.22.75.51.98.89s.35.79.35,1.26c0,.32-.06.64-.18.95-.12.31-.33.65-.63,1.03-.3.38-.71.84-1.24,1.38l-1.73,1.81v.06h3.93v1.13h-5.74Z"/>
  <path class="cls-1" d="m9.83,183.93v-.95l2.95-3.06c.32-.33.58-.62.78-.88.21-.25.36-.49.46-.72.1-.23.15-.47.15-.72,0-.29-.07-.54-.2-.75s-.32-.38-.56-.49c-.24-.11-.5-.17-.8-.17-.31,0-.59.06-.82.19-.23.13-.41.31-.54.54s-.19.51-.19.82h-1.26c0-.53.12-1,.37-1.39.24-.4.58-.71,1.01-.93s.91-.33,1.45-.33,1.03.11,1.45.33c.42.22.75.51.98.89s.35.79.35,1.26c0,.32-.06.64-.18.95-.12.31-.33.65-.63,1.03-.3.38-.71.84-1.24,1.38l-1.73,1.81v.06h3.93v1.13h-5.74Z"/>
  <path class="cls-1" d="m13.14,133.21v8.73h-1.32v-7.41h-.05l-2.09,1.36v-1.26l2.18-1.42h1.28Z"/>
  <g>
    <path class="cls-1" d="m221.17,18.02c-.83,0-1.57-.14-2.22-.43-.65-.29-1.16-.68-1.54-1.19-.38-.51-.58-1.1-.61-1.77h1.9c.02.37.15.68.37.95.22.27.52.47.88.62.36.15.76.22,1.21.22.49,0,.92-.08,1.29-.25s.67-.41.88-.71c.21-.3.32-.65.32-1.05s-.11-.78-.32-1.1c-.21-.32-.52-.56-.92-.75s-.89-.27-1.46-.27h-1.04v-1.52h1.04c.46,0,.86-.08,1.21-.25.35-.17.62-.4.82-.69.2-.3.3-.64.3-1.04s-.09-.72-.26-1-.41-.51-.72-.67c-.31-.16-.68-.24-1.1-.24s-.78.07-1.13.22c-.35.15-.63.36-.85.63-.22.27-.33.6-.35.98h-1.8c.02-.67.22-1.26.59-1.76.38-.51.87-.9,1.49-1.19.62-.29,1.31-.43,2.06-.43s1.48.15,2.06.46c.58.31,1.02.72,1.34,1.23.32.51.47,1.07.47,1.68,0,.69-.19,1.28-.58,1.76s-.9.81-1.55.97v.1c.82.12,1.46.45,1.91.98.45.53.68,1.18.67,1.96,0,.68-.18,1.29-.56,1.83-.38.54-.9.96-1.55,1.27-.66.31-1.41.46-2.25.46Z"/>
    <path class="cls-1" d="m229.26,8.58l2.05,3.61,2.06-3.61h1.97l-2.89,4.64,2.92,4.64h-1.97l-2.09-3.47-2.08,3.47h-1.98l2.89-4.64-2.85-4.64h1.98Z"/>
    <path class="cls-1" d="m242.08,12.51v-1.62h8.16v1.62h-8.16Zm3.27,3.27V7.62h1.62v8.16h-1.62Z"/>
    <path class="cls-1" d="m262.2,5.49v12.36h-1.87V7.36h-.07l-2.96,1.93v-1.79l3.08-2.02h1.82Z"/>
    <path class="cls-1" d="m269.85,18.02c-.83,0-1.57-.14-2.22-.43-.65-.29-1.16-.68-1.54-1.19-.38-.51-.58-1.1-.61-1.77h1.9c.02.37.15.68.37.95.22.27.52.47.88.62.36.15.76.22,1.21.22.49,0,.92-.08,1.29-.25s.67-.41.88-.71c.21-.3.32-.65.32-1.05s-.11-.78-.32-1.1c-.21-.32-.52-.56-.92-.75s-.89-.27-1.46-.27h-1.04v-1.52h1.04c.46,0,.86-.08,1.21-.25.35-.17.62-.4.82-.69.2-.3.3-.64.3-1.04s-.09-.72-.26-1-.41-.51-.72-.67c-.31-.16-.68-.24-1.1-.24s-.78.07-1.13.22c-.35.15-.63.36-.85.63-.22.27-.33.6-.35.98h-1.8c.02-.67.22-1.26.59-1.76.38-.51.87-.9,1.49-1.19.62-.29,1.31-.43,2.06-.43s1.48.15,2.06.46c.58.31,1.02.72,1.34,1.23.32.51.47,1.07.47,1.68,0,.69-.19,1.28-.58,1.76s-.9.81-1.55.97v.1c.82.12,1.46.45,1.91.98.45.53.68,1.18.67,1.96,0,.68-.18,1.29-.56,1.83-.38.54-.9.96-1.55,1.27-.66.31-1.41.46-2.25.46Z"/>
    <path class="cls-1" d="m289.48,11.13l-8.02,2.63v-1.64l5.49-1.64-.05.11v-.27l.05.11-5.49-1.64v-1.64l8.02,2.63v1.35Zm-8.02,5.06v-1.58h8.02v1.58h-8.02Z"/>
    <path class="cls-1" d="m301.12,18.06c-.95,0-1.77-.26-2.44-.75-.68-.5-1.19-1.23-1.55-2.18-.36-.95-.54-2.1-.54-3.45s.18-2.49.54-3.44.88-1.67,1.56-2.17,1.49-.75,2.44-.75,1.76.25,2.43.75c.68.5,1.19,1.23,1.55,2.17.36.95.54,2.09.54,3.43s-.18,2.5-.54,3.45c-.36.95-.88,1.68-1.55,2.18s-1.49.75-2.44.75Zm0-1.61c.84,0,1.49-.41,1.97-1.23.47-.82.71-2,.71-3.54,0-1.03-.11-1.89-.32-2.6-.21-.71-.52-1.25-.92-1.62-.4-.37-.88-.55-1.43-.55-.83,0-1.49.41-1.96,1.23-.47.82-.71,2-.72,3.54,0,1.03.11,1.9.32,2.61.22.71.52,1.25.92,1.61s.88.55,1.44.55Z"/>
    <path class="cls-1" d="m221.17,45.02c-.83,0-1.57-.14-2.22-.43-.65-.29-1.16-.68-1.54-1.19-.38-.51-.58-1.1-.61-1.77h1.9c.02.37.15.68.37.95.22.27.52.47.88.62.36.15.76.22,1.21.22.49,0,.92-.08,1.29-.25s.67-.41.88-.71c.21-.3.32-.65.32-1.05s-.11-.78-.32-1.1c-.21-.32-.52-.56-.92-.75s-.89-.27-1.46-.27h-1.04v-1.52h1.04c.46,0,.86-.08,1.21-.25.35-.17.62-.4.82-.69.2-.3.3-.64.3-1.04s-.09-.72-.26-1-.41-.51-.72-.67c-.31-.16-.68-.24-1.1-.24s-.78.07-1.13.22c-.35.15-.63.36-.85.63-.22.27-.33.6-.35.98h-1.8c.02-.67.22-1.26.59-1.76.38-.51.87-.9,1.49-1.19.62-.29,1.31-.43,2.06-.43s1.48.15,2.06.46c.58.31,1.02.72,1.34,1.23.32.51.47,1.07.47,1.68,0,.69-.19,1.28-.58,1.76s-.9.81-1.55.97v.1c.82.12,1.46.45,1.91.98.45.53.68,1.18.67,1.96,0,.68-.18,1.29-.56,1.83-.38.54-.9.96-1.55,1.27-.66.31-1.41.46-2.25.46Z"/>
    <path class="cls-1" d="m229.26,35.58l2.05,3.61,2.06-3.61h1.97l-2.89,4.64,2.92,4.64h-1.97l-2.09-3.47-2.08,3.47h-1.98l2.89-4.64-2.85-4.64h1.98Z"/>
    <path class="cls-1" d="m250.17,39.25l-8.02,2.63v-1.64l5.49-1.64-.05.11v-.27l.05.11-5.49-1.64v-1.64l8.02,2.63v1.35Zm-8.02,5.06v-1.58h8.02v1.58h-8.02Z"/>
    <path class="cls-1" d="m263,37.89v1.57h-5.48v-1.57h5.48Z"/>
    <path class="cls-1" d="m270.07,32.49v12.36h-1.87v-10.49h-.07l-2.96,1.93v-1.79l3.08-2.02h1.82Z"/>
    <path class="cls-1" d="m277.72,45.02c-.83,0-1.57-.14-2.22-.43-.65-.29-1.16-.68-1.54-1.19-.38-.51-.58-1.1-.61-1.77h1.9c.02.37.15.68.37.95.22.27.52.47.88.62.36.15.76.22,1.21.22.49,0,.92-.08,1.29-.25s.67-.41.88-.71c.21-.3.32-.65.32-1.05s-.11-.78-.32-1.1c-.21-.32-.52-.56-.92-.75s-.89-.27-1.46-.27h-1.04v-1.52h1.04c.46,0,.86-.08,1.21-.25.35-.17.62-.4.82-.69.2-.3.3-.64.3-1.04s-.09-.72-.26-1-.41-.51-.72-.67c-.31-.16-.68-.24-1.1-.24s-.78.07-1.13.22c-.35.15-.63.36-.85.63-.22.27-.33.6-.35.98h-1.8c.02-.67.22-1.26.59-1.76.38-.51.87-.9,1.49-1.19.62-.29,1.31-.43,2.06-.43s1.48.15,2.06.46c.58.31,1.02.72,1.34,1.23.32.51.47,1.07.47,1.68,0,.69-.19,1.28-.58,1.76s-.9.81-1.55.97v.1c.82.12,1.46.45,1.91.98.45.53.68,1.18.67,1.96,0,.68-.18,1.29-.56,1.83-.38.54-.9.96-1.55,1.27-.66.31-1.41.46-2.25.46Z"/>
    <path class="cls-1" d="m218.31,62.58l2.05,3.61,2.06-3.61h1.97l-2.89,4.64,2.92,4.64h-1.97l-2.09-3.47-2.08,3.47h-1.98l2.89-4.64-2.85-4.64h1.98Z"/>
    <path class="cls-1" d="m239.22,66.25l-8.02,2.63v-1.64l5.49-1.64-.05.11v-.27l.05.11-5.49-1.64v-1.64l8.02,2.63v1.35Zm-8.02,5.06v-1.58h8.02v1.58h-8.02Z"/>
    <path class="cls-1" d="m252.05,65.85v1.56h-5.48v-1.56h5.48Z"/>
    <path class="cls-1" d="m218.31,89.58l2.05,3.61,2.06-3.61h1.97l-2.89,4.64,2.92,4.64h-1.97l-2.09-3.47-2.08,3.47h-1.98l2.89-4.64-2.85-4.64h1.98Z"/>
    <path class="cls-1" d="m239.22,93.25l-8.02,2.63v-1.64l5.49-1.64-.05.11v-.27l.05.11-5.49-1.64v-1.64l8.02,2.63v1.35Zm-8.02,5.06v-1.58h8.02v1.58h-8.02Z"/>
    <path class="cls-1" d="m252.05,91.89v1.57h-5.48v-1.57h5.48Z"/>
    <path class="cls-1" d="m254.17,96.44v-1.51l5.34-8.44h1.19v2.22h-.75l-3.82,6.05v.1h7.32v1.58h-9.28Zm5.86,2.41v-3.56s.01-8.8.01-8.8h1.77v12.36h-1.78Z"/>
    <path class="cls-1" d="m267.46,97.16l-.09.66c-.06.48-.16.99-.31,1.51-.14.53-.29,1.01-.44,1.46-.15.45-.27.81-.37,1.07h-1.28c.05-.25.12-.59.22-1.01.09-.42.18-.9.27-1.42.09-.52.16-1.06.2-1.6l.06-.68h1.74Z"/>
    <path class="cls-1" d="m270.52,92.67c0-1.51.2-2.91.6-4.18.4-1.27.98-2.44,1.75-3.52h1.65c-.3.4-.58.89-.83,1.47-.26.58-.48,1.21-.68,1.9-.19.69-.34,1.4-.45,2.14-.11.74-.16,1.47-.16,2.18,0,.96.09,1.93.28,2.91.19.98.45,1.89.77,2.73.32.84.68,1.53,1.08,2.06h-1.65c-.76-1.07-1.35-2.25-1.75-3.52-.4-1.27-.6-2.67-.6-4.18Z"/>
    <path class="cls-1" d="m280.7,99.02c-.83,0-1.57-.14-2.22-.43-.65-.29-1.16-.68-1.54-1.19-.38-.51-.58-1.1-.61-1.77h1.9c.02.37.15.68.37.95.22.27.52.47.88.62.36.15.76.22,1.21.22.49,0,.92-.08,1.29-.25s.67-.41.88-.71c.21-.3.32-.65.32-1.05s-.11-.78-.32-1.1c-.21-.32-.52-.56-.92-.75s-.89-.27-1.46-.27h-1.04v-1.52h1.04c.46,0,.86-.08,1.21-.25.35-.17.62-.4.82-.69.2-.3.3-.64.3-1.04s-.09-.72-.26-1-.41-.51-.72-.67c-.31-.16-.68-.24-1.1-.24s-.78.07-1.13.22c-.35.15-.63.36-.85.63-.22.27-.33.6-.35.98h-1.8c.02-.67.22-1.26.59-1.76.38-.51.87-.9,1.49-1.19.62-.29,1.31-.43,2.06-.43s1.48.15,2.06.46c.58.31,1.02.72,1.34,1.23.32.51.47,1.07.47,1.68,0,.69-.19,1.28-.58,1.76s-.9.81-1.55.97v.1c.82.12,1.46.45,1.91.98.45.53.68,1.18.67,1.96,0,.68-.18,1.29-.56,1.83-.38.54-.9.96-1.55,1.27-.66.31-1.41.46-2.25.46Z"/>
    <path class="cls-1" d="m290.84,92.67c0,1.52-.2,2.91-.6,4.18-.4,1.27-.98,2.44-1.74,3.52h-1.65c.3-.4.58-.89.83-1.47s.48-1.21.68-1.9c.19-.69.34-1.41.45-2.15.11-.74.16-1.47.16-2.19,0-.95-.09-1.92-.28-2.9s-.44-1.89-.77-2.73-.68-1.53-1.07-2.06h1.65c.76,1.07,1.35,2.25,1.74,3.52.4,1.27.6,2.66.6,4.18Z"/>
  </g>
  <g>
    <path class="cls-1" d="m261.65,51.92v12.36h-1.87v-10.49h-.07l-2.96,1.93v-1.79l3.08-2.02h1.82Z"/>
    <path class="cls-1" d="m269.29,64.45c-.83,0-1.57-.14-2.22-.43-.65-.29-1.16-.68-1.54-1.19-.38-.51-.58-1.1-.61-1.77h1.9c.02.37.15.68.37.95.22.27.52.47.88.62.36.15.76.22,1.21.22.49,0,.92-.08,1.29-.25s.67-.41.88-.71c.21-.3.32-.65.32-1.05s-.11-.78-.32-1.1c-.21-.32-.52-.56-.92-.75s-.89-.27-1.46-.27h-1.04v-1.52h1.04c.46,0,.86-.08,1.21-.25.35-.17.62-.4.82-.69.2-.3.3-.64.3-1.04s-.09-.72-.26-1-.41-.51-.72-.67c-.31-.16-.68-.24-1.1-.24s-.78.07-1.13.22c-.35.15-.63.36-.85.63-.22.27-.33.6-.35.98h-1.8c.02-.67.22-1.26.59-1.76.38-.51.87-.9,1.49-1.19.62-.29,1.31-.43,2.06-.43s1.48.15,2.06.46c.58.31,1.02.72,1.34,1.23.32.51.47,1.07.47,1.68,0,.69-.19,1.28-.58,1.76s-.9.81-1.55.97v.1c.82.12,1.46.45,1.91.98.45.53.68,1.18.67,1.96,0,.68-.18,1.29-.56,1.83-.38.54-.9.96-1.55,1.27-.66.31-1.41.46-2.25.46Z"/>
    <path class="cls-1" d="m265.28,81.45c-.83,0-1.57-.14-2.22-.43-.65-.29-1.16-.68-1.54-1.19-.38-.51-.58-1.1-.61-1.77h1.9c.02.37.15.68.37.95.22.27.52.47.88.62.36.15.76.22,1.21.22.49,0,.92-.08,1.29-.25s.67-.41.88-.71c.21-.3.32-.65.32-1.05s-.11-.78-.32-1.1c-.21-.32-.52-.56-.92-.75s-.89-.27-1.46-.27h-1.04v-1.52h1.04c.46,0,.86-.08,1.21-.25.35-.17.62-.4.82-.69.2-.3.3-.64.3-1.04s-.09-.72-.26-1-.41-.51-.72-.67c-.31-.16-.68-.24-1.1-.24s-.78.07-1.13.22c-.35.15-.63.36-.85.63-.22.27-.33.6-.35.98h-1.8c.02-.67.22-1.26.59-1.76.38-.51.87-.9,1.49-1.19.62-.29,1.31-.43,2.06-.43s1.48.15,2.06.46c.58.31,1.02.72,1.34,1.23.32.51.47,1.07.47,1.68,0,.69-.19,1.28-.58,1.76s-.9.81-1.55.97v.1c.82.12,1.46.45,1.91.98.45.53.68,1.18.67,1.96,0,.68-.18,1.29-.56,1.83-.38.54-.9.96-1.55,1.27-.66.31-1.41.46-2.25.46Z"/>
  </g>
  <rect class="cls-1" x="257" y="65.75" width="18" height="1.5"/>
  <g>
    <path class="cls-1" d="m179.52,16.15V6.87h7.56v9.27h-1.77v-7.72h-4.04v7.72h-1.76Z"/>
    <path class="cls-1" d="m189.51,19.62V6.87h1.76v1.5h.15c.1-.19.26-.42.45-.67.2-.25.47-.48.82-.67.35-.19.81-.29,1.39-.29.75,0,1.42.19,2,.57.59.38,1.05.92,1.39,1.64s.5,1.57.5,2.57-.17,1.86-.5,2.57-.79,1.26-1.38,1.65-1.25.58-2,.58c-.56,0-1.02-.09-1.38-.28-.36-.19-.64-.41-.84-.66s-.36-.48-.46-.68h-.11v4.92h-1.81Zm1.77-8.11c0,.65.09,1.22.28,1.71.19.49.46.87.82,1.15.36.28.8.41,1.32.41s.99-.14,1.35-.43c.36-.29.64-.68.82-1.17.19-.49.28-1.05.28-1.67s-.09-1.16-.27-1.65c-.18-.49-.46-.87-.82-1.15s-.82-.42-1.36-.42-.96.13-1.32.4c-.36.27-.63.65-.82,1.13s-.28,1.05-.28,1.69Z"/>
    <path class="cls-1" d="m201.77,13.62l4.09-6.74h1.94v9.27h-1.77v-6.75l-4.07,6.75h-1.96V6.87h1.77v6.74Z"/>
  </g>
</svg>