<?xml version="1.0" encoding="UTF-8"?>
<svg id="Layer_1" data-name="Layer 1" xmlns="http://www.w3.org/2000/svg" viewBox="0 0 173 62.62">
  <defs>
    <style>
      .cls-1 {
        fill: #fff;
      }

      .cls-2 {
        opacity: .3;
      }

      .cls-2, .cls-3 {
        fill: #d1ae59;
      }

      .cls-4 {
        fill: none;
        stroke: #d1ae59;
        stroke-miterlimit: 10;
        stroke-width: 2px;
      }
    </style>
  </defs>
  <polygon class="cls-2" points="127.09 62.62 0 62.62 45.91 37.22 173 37.22 127.09 62.62"/>
  <path class="cls-3" d="m165.25,39.22l-38.68,21.4H7.75l38.68-21.4h118.83m7.75-2H45.91L0,62.62h127.09l45.91-25.4h0Z"/>
  <path class="cls-1" d="m85.57,6.78c-.41,0-.79-.08-1.12-.23-.33-.16-.6-.38-.79-.68-.2-.3-.29-.66-.29-1.09,0-.37.07-.67.21-.91.14-.24.33-.43.58-.57.24-.14.51-.24.81-.32s.6-.12.91-.16c.39-.04.71-.08.96-.11.24-.03.42-.08.53-.15.11-.07.17-.18.17-.33v-.03c0-.37-.1-.66-.31-.87-.21-.2-.52-.31-.93-.31s-.77.09-1.01.28c-.25.19-.42.4-.51.63l-1.2-.27c.14-.4.35-.72.62-.97.27-.25.59-.42.95-.54C85.48.06,85.86,0,86.26,0c.26,0,.54.03.83.09.29.06.57.17.83.33.26.16.47.39.63.69.17.3.25.69.25,1.17v4.35h-1.24v-.89h-.05c-.08.16-.21.33-.37.49-.17.16-.38.29-.63.4-.26.1-.57.16-.93.16Zm.28-1.02c.35,0,.65-.07.91-.21.25-.14.44-.32.58-.55.13-.23.2-.47.2-.73v-.84s-.13.09-.26.12c-.13.04-.28.07-.44.1-.17.03-.33.05-.48.07s-.29.04-.39.05c-.25.03-.47.08-.68.16s-.37.18-.49.32c-.12.14-.18.32-.18.55,0,.32.12.55.35.71.23.16.53.24.89.24Z"/>
  <line class="cls-4" x1="28.81" y1="12.61" x2="151.58" y2="12.61"/>
</svg>