<?xml version="1.0" encoding="UTF-8"?>
<svg id="Layer_1" data-name="Layer 1" xmlns="http://www.w3.org/2000/svg" viewBox="0 0 100 62">
  <defs>
    <style>
      .cls-1 {
        fill: #fff;
      }

      .cls-2 {
        fill: #d1ae59;
      }

      .cls-3 {
        fill: none;
        stroke: #d1ae59;
        stroke-miterlimit: 10;
        stroke-width: 2px;
      }
    </style>
  </defs>
  <line class="cls-3" x1="1" y1="54" x2="99" y2="5"/>
  <path class="cls-1" d="m10.45,40.01h-1.4l3.14-8.73h1.52l3.14,8.73h-1.4l-2.47-7.14h-.07l-2.47,7.14Zm.23-3.42h4.53v1.11h-4.53v-1.11Z"/>
  <path class="cls-1" d="m73.71,9.01V.28h3.2c.62,0,1.13.1,1.54.3s.71.48.91.82c.2.35.3.73.3,1.17,0,.36-.07.67-.2.92-.13.25-.31.45-.54.6s-.47.26-.74.33v.08c.29.01.57.11.85.28.28.17.51.42.69.73.18.32.27.7.27,1.15s-.11.85-.31,1.2c-.21.35-.53.63-.97.84-.43.21-.99.31-1.67.31h-3.34Zm1.32-4.95h1.76c.29,0,.56-.06.8-.17s.43-.27.57-.48.21-.45.21-.73c0-.36-.13-.66-.38-.91s-.64-.37-1.16-.37h-1.8v2.65Zm0,3.82h1.9c.63,0,1.08-.12,1.35-.37.27-.24.41-.55.41-.92,0-.28-.07-.53-.21-.76-.14-.23-.34-.41-.59-.55-.26-.14-.56-.21-.91-.21h-1.95v2.8Z"/>
  <circle class="cls-2" cx="15.5" cy="46.5" r="3.5"/>
  <circle class="cls-2" cx="79.5" cy="14.5" r="3.5"/>
</svg>