<?xml version="1.0" encoding="UTF-8"?>
<svg id="Layer_1" data-name="Layer 1" xmlns="http://www.w3.org/2000/svg" viewBox="0 0 173 60.22">
  <defs>
    <style>
      .cls-1 {
        fill: #fff;
      }

      .cls-2 {
        fill: #d1ae59;
        opacity: .3;
      }

      .cls-2, .cls-3 {
        stroke: #d1ae59;
        stroke-miterlimit: 10;
        stroke-width: 2px;
      }

      .cls-3 {
        fill: none;
      }
    </style>
  </defs>
  <polygon class="cls-2" points="125.71 59.17 2.59 59.17 46.62 1.62 169.74 1.62 125.71 59.17"/>
  <line class="cls-3" x1="32.21" y1="52.83" x2="64.8" y2="9.16"/>
  <line class="cls-3" x1="69.45" y1="53.69" x2="100.33" y2="12.33"/>
  <line class="cls-3" x1="107.66" y1="54.3" x2="136.67" y2="15.43"/>
  <path class="cls-1" d="m41.37,29.84c-.42,0-.79-.08-1.12-.23-.33-.16-.6-.38-.79-.68s-.29-.66-.29-1.09c0-.37.07-.67.21-.91.14-.24.33-.43.58-.57.24-.14.51-.24.81-.32.3-.07.6-.12.91-.16.39-.04.71-.08.96-.11.24-.03.42-.08.53-.15.11-.07.17-.18.17-.33v-.03c0-.37-.1-.66-.31-.87-.21-.2-.52-.31-.93-.31s-.77.09-1.01.28c-.25.19-.42.4-.51.63l-1.2-.27c.14-.4.35-.72.62-.97.27-.25.59-.42.95-.54.36-.11.73-.17,1.13-.17.26,0,.54.03.83.09.29.06.57.17.83.33.26.16.47.39.63.69.17.3.25.69.25,1.17v4.35h-1.24v-.89h-.05c-.08.16-.21.33-.37.49-.17.16-.38.29-.63.4-.26.1-.57.16-.93.16Zm.28-1.02c.35,0,.65-.07.91-.21.25-.14.44-.32.58-.55.13-.23.2-.47.2-.73v-.84s-.13.09-.26.12c-.13.04-.28.07-.44.1-.17.03-.33.05-.48.07s-.29.04-.39.05c-.25.03-.47.08-.67.16s-.37.18-.49.32-.18.32-.18.55c0,.32.12.55.35.71.23.16.53.24.89.24Z"/>
  <path class="cls-1" d="m75.19,30.39v-8.73h1.27v3.24h.08c.07-.14.18-.29.32-.47.14-.18.33-.34.58-.47.25-.13.57-.2.98-.2.53,0,1,.13,1.41.4.42.27.74.65.98,1.16s.36,1.11.36,1.82-.12,1.31-.35,1.82-.56.89-.97,1.16-.88.41-1.41.41c-.4,0-.72-.07-.97-.2-.25-.13-.45-.29-.59-.47-.14-.18-.25-.34-.33-.48h-.11v1.02h-1.24Zm1.25-3.27c0,.46.07.86.2,1.21s.33.62.58.81c.25.2.56.29.93.29s.7-.1.96-.3.45-.48.58-.83c.13-.35.2-.74.2-1.18s-.06-.82-.19-1.16c-.13-.34-.32-.61-.58-.81-.26-.2-.58-.3-.96-.3s-.68.09-.93.29-.45.46-.58.8-.2.74-.2,1.19Z"/>
  <path class="cls-1" d="m114.83,33.27c-.63,0-1.18-.14-1.63-.43-.46-.29-.81-.69-1.05-1.2-.24-.51-.37-1.09-.37-1.75s.12-1.25.38-1.76.6-.91,1.06-1.2.99-.43,1.61-.43c.5,0,.94.09,1.33.28.39.18.7.44.94.77.24.33.38.71.43,1.16h-1.24c-.07-.31-.22-.57-.47-.79-.24-.22-.57-.33-.97-.33-.36,0-.67.09-.93.28-.27.19-.47.45-.62.79-.15.34-.22.75-.22,1.21s.07.89.22,1.24c.14.35.35.62.62.81s.58.29.94.29c.24,0,.46-.04.66-.13.2-.09.36-.22.5-.39s.23-.37.28-.61h1.24c-.04.42-.18.8-.41,1.13-.23.33-.54.59-.92.78s-.84.29-1.35.29Z"/>
  <polygon class="cls-3" points="125.71 59.17 2.59 59.17 46.66 1.62 169.78 1.62 125.71 59.17"/>
</svg>