<?xml version="1.0" encoding="UTF-8"?>
<svg id="Layer_1" data-name="Layer 1" xmlns="http://www.w3.org/2000/svg" viewBox="0 0 173 112.04">
  <defs>
    <style>
      .cls-1 {
        fill: #fff;
      }

      .cls-2 {
        fill: #d1ae59;
        opacity: .3;
      }

      .cls-3 {
        stroke-dasharray: 0 3;
      }

      .cls-3, .cls-4 {
        fill: none;
        stroke: #d1ae59;
        stroke-miterlimit: 10;
        stroke-width: 2px;
      }
    </style>
  </defs>
  <polygon class="cls-2" points="125.33 85.12 3.9 85.12 47.77 59.88 169.2 59.88 125.33 85.12"/>
  <line class="cls-3" x1="58.86" y1="60.85" x2="92.01" y2="60.85"/>
  <path class="cls-1" d="m58.72,36.48c-.4,0-.75-.07-1.08-.22-.32-.15-.57-.36-.76-.65-.19-.28-.28-.63-.28-1.04,0-.35.07-.64.2-.87.14-.23.32-.41.55-.54.23-.13.49-.23.77-.3.29-.07.58-.12.87-.15.37-.04.68-.08.91-.11s.4-.08.51-.14c.11-.06.16-.17.16-.32v-.03c0-.36-.1-.63-.3-.83-.2-.2-.5-.29-.89-.29s-.73.09-.97.27c-.24.18-.4.38-.49.6l-1.14-.26c.14-.38.33-.69.6-.92.26-.23.56-.41.91-.51.34-.11.7-.16,1.08-.16.25,0,.52.03.8.09.28.06.54.17.79.32.25.16.45.38.6.66.16.29.24.66.24,1.11v4.15h-1.19v-.86h-.05c-.08.16-.2.31-.35.46-.16.15-.36.28-.61.38-.25.1-.54.15-.89.15Zm.26-.98c.34,0,.62-.07.87-.2s.42-.31.55-.52.19-.45.19-.69v-.81s-.13.08-.25.12c-.12.04-.26.07-.42.09-.16.03-.31.05-.46.07-.15.02-.27.04-.38.05-.24.03-.45.08-.65.15-.19.07-.35.17-.46.3-.12.13-.17.31-.17.52,0,.3.11.53.33.68.22.15.51.23.85.23Z"/>
  <path class="cls-1" d="m76.01,70.6v-8.34h1.22v3.1h.07c.07-.13.17-.28.31-.45.13-.17.32-.32.55-.45.24-.13.55-.19.94-.19.5,0,.96.13,1.35.38s.71.62.93,1.1.34,1.06.34,1.73-.11,1.25-.34,1.74c-.23.48-.54.85-.93,1.11-.39.26-.84.39-1.35.39-.38,0-.69-.06-.93-.19s-.43-.28-.56-.45c-.14-.17-.24-.32-.31-.46h-.1v.97h-1.19Zm1.19-3.13c0,.44.06.83.19,1.16.13.33.31.59.55.78.24.19.54.28.89.28s.67-.1.91-.29.43-.46.56-.79.19-.71.19-1.13-.06-.78-.19-1.11c-.12-.33-.31-.59-.55-.78-.25-.19-.55-.29-.92-.29s-.65.09-.89.27c-.24.18-.43.44-.55.76-.12.33-.19.71-.19,1.14Z"/>
  <polyline class="cls-4" points="94.83 84.28 87.3 108.93 72.87 84.61"/>
  <polyline class="cls-4" points="72.49 83.82 46.51 40.02 57.96 2.52 93.12 61.77"/>
  <polyline class="cls-3" points="94.76 84.04 98.66 71.26 92.93 61.6"/>
  <line class="cls-4" x1="93.69" y1="61.14" x2="72.23" y2="84.77"/>
  <line class="cls-4" x1="73.62" y1="28.37" x2="53.18" y2="50.87"/>
  <polyline class="cls-4" points="92.57 60.85 169.2 60.85 125.33 85.12 3.9 85.12 47.77 60.85 58.86 60.85"/>
</svg>