<?xml version="1.0" encoding="UTF-8"?>
<svg id="Layer_1" data-name="Layer 1" xmlns="http://www.w3.org/2000/svg" viewBox="0 0 173 88.79">
  <defs>
    <style>
      .cls-1 {
        fill: #fff;
      }

      .cls-2, .cls-3 {
        fill: #d1ae59;
      }

      .cls-4 {
        stroke-dasharray: 0 0 4 3;
      }

      .cls-4, .cls-3, .cls-5, .cls-6 {
        stroke: #d1ae59;
        stroke-miterlimit: 10;
        stroke-width: 2px;
      }

      .cls-4, .cls-5, .cls-6 {
        fill: none;
      }

      .cls-3 {
        opacity: .3;
      }

      .cls-5 {
        stroke-dasharray: 0 0 4.16 3.12;
      }
    </style>
  </defs>
  <polygon class="cls-3" points="125.71 71.36 2.59 71.36 46.41 30.19 169.53 30.19 125.71 71.36"/>
  <line class="cls-6" x1="113.5" y1="58.65" x2="120.28" y2="3.62"/>
  <line class="cls-6" x1="109.84" y1="88.45" x2="111.94" y2="71.36"/>
  <line class="cls-4" x1="111.94" y1="71.36" x2="113.39" y2="59.58"/>
  <polygon class="cls-3" points="35.59 56.96 98.71 41.52 104.12 2.52 41.01 17.96 35.59 56.96"/>
  <circle class="cls-2" cx="113.5" cy="58.65" r="3.34"/>
  <path class="cls-1" d="m115.96,43.79h-1.4l3.14-8.73h1.52l3.14,8.73h-1.4l-2.47-7.14h-.07l-2.47,7.14Zm.23-3.42h4.53v1.11h-4.53v-1.11Z"/>
  <g>
    <line class="cls-6" x1="38.25" y1="37.86" x2="39.7" y2="36.49"/>
    <polyline class="cls-5" points="41.98 34.35 46.41 30.19 97.01 30.19"/>
    <line class="cls-6" x1="98.57" y1="30.19" x2="100.57" y2="30.19"/>
  </g>
  <path class="cls-1" d="m70.22,58.78c-.4,0-.75-.07-1.08-.22-.32-.15-.57-.36-.76-.65-.19-.28-.28-.63-.28-1.04,0-.35.07-.64.2-.87.14-.23.32-.41.55-.54.23-.13.49-.23.77-.3.29-.07.58-.12.87-.15.37-.04.68-.08.91-.11s.4-.08.51-.14c.11-.06.16-.17.16-.32v-.03c0-.36-.1-.63-.3-.83-.2-.2-.5-.29-.89-.29s-.73.09-.97.27c-.24.18-.4.38-.49.6l-1.14-.26c.14-.38.33-.69.6-.92.26-.23.56-.41.91-.51.34-.11.7-.16,1.08-.16.25,0,.52.03.8.09.28.06.54.17.79.32.25.16.45.38.6.66.16.29.24.66.24,1.11v4.15h-1.19v-.86h-.05c-.08.16-.2.31-.35.46-.16.15-.36.28-.61.38-.25.1-.54.15-.89.15Zm.26-.98c.34,0,.62-.07.87-.2s.42-.31.55-.52.19-.45.19-.69v-.81s-.13.08-.25.12c-.12.04-.26.07-.42.09-.16.03-.31.05-.46.07-.15.02-.27.04-.38.05-.24.03-.45.08-.65.15-.19.07-.35.17-.46.3-.12.13-.17.31-.17.52,0,.3.11.53.33.68.22.15.51.23.85.23Z"/>
  <polyline class="cls-6" points="100.28 30.19 169.53 30.19 125.71 71.36 2.59 71.36 38.25 37.86"/>
  <polygon class="cls-6" points="35.59 56.96 98.71 41.52 104.12 2.52 41.01 17.96 35.59 56.96"/>
</svg>