<?xml version="1.0" encoding="UTF-8"?>
<svg xmlns="http://www.w3.org/2000/svg" viewBox="0 0 150.25 150.5">
  <defs>
    <style>
      .cls-1 {
        fill: #fff;
      }

      .cls-2, .cls-3, .cls-4, .cls-5 {
        fill: none;
        stroke-miterlimit: 10;
      }

      .cls-2, .cls-4 {
        stroke: #fff;
      }

      .cls-3 {
        stroke: #d1ae59;
      }

      .cls-4 {
        stroke-width: 2px;
      }

      .cls-5 {
        opacity: .3;
        stroke: #bdccd4;
        stroke-width: .5px;
      }
    </style>
  </defs>
  <g id="Layer_1" data-name="Layer 1">
    <rect class="cls-5" x=".25" y=".25" width="149.75" height="150"/>
    <line class="cls-5" x1="70" y1=".25" x2="70" y2="150.25"/>
    <line class="cls-5" x1="60" y1=".25" x2="60" y2="150.25"/>
    <line class="cls-5" x1="50" y1=".25" x2="50" y2="150.25"/>
    <line class="cls-5" x1="40" y1=".25" x2="40" y2="150.25"/>
    <line class="cls-5" x1="30" y1=".25" x2="30" y2="150.25"/>
    <line class="cls-5" x1="20" y1=".25" x2="20" y2="150.25"/>
    <line class="cls-5" x1="10" y1=".25" x2="10" y2="150.25"/>
    <line class="cls-5" x1="150" y1="80.25" x2=".5" y2="80.25"/>
    <line class="cls-5" x1="150" y1="90.25" x2=".5" y2="90.25"/>
    <line class="cls-5" x1="150" y1="100.25" x2=".5" y2="100.25"/>
    <line class="cls-5" x1="150" y1="110.25" x2=".5" y2="110.25"/>
    <line class="cls-5" x1="150" y1="120.25" x2=".5" y2="120.25"/>
    <line class="cls-5" x1="150" y1="130.25" x2=".5" y2="130.25"/>
    <line class="cls-5" x1="150" y1="140.25" x2=".5" y2="140.25"/>
    <line class="cls-5" x1="150" y1="70.25" x2=".5" y2="70.25"/>
    <line class="cls-5" x1="150" y1="60.25" x2=".5" y2="60.25"/>
    <line class="cls-5" x1="150" y1="50.25" x2=".5" y2="50.25"/>
    <line class="cls-5" x1="150" y1="40.25" x2=".5" y2="40.25"/>
    <line class="cls-5" x1="150" y1="30.25" x2=".5" y2="30.25"/>
    <line class="cls-5" x1="150" y1="20.25" x2=".5" y2="20.25"/>
    <line class="cls-5" x1="150" y1="10.25" x2=".5" y2="10.25"/>
    <line class="cls-5" x1="80" y1=".25" x2="80" y2="150.25"/>
    <line class="cls-5" x1="90" y1=".25" x2="90" y2="150.25"/>
    <line class="cls-5" x1="100" y1=".25" x2="100" y2="150.25"/>
    <line class="cls-5" x1="110" y1=".25" x2="110" y2="150.25"/>
    <line class="cls-5" x1="120" y1=".25" x2="120" y2="150.25"/>
    <line class="cls-5" x1="130" y1=".25" x2="130" y2="150.25"/>
    <line class="cls-5" x1="140" y1=".25" x2="140" y2="150.25"/>
  </g>
  <g id="Layer_2" data-name="Layer 2">
    <line class="cls-3" x1="40" y1="140.19" x2="105" y2="10.25"/>
    <line class="cls-4" x1="80" y1="10.25" x2="80" y2="140.19"/>
    <line class="cls-4" x1="10" y1="80.25" x2="140" y2="80.25"/>
    <polygon class="cls-1" points="145.82 80.25 139.91 76.84 139.91 83.66 145.82 80.25"/>
    <polygon class="cls-1" points="80 4.79 76.59 10.71 83.41 10.71 80 4.79"/>
    <line class="cls-2" x1="90" y1="76.84" x2="90" y2="83.66"/>
    <line class="cls-2" x1="83.41" y1="70.25" x2="76.59" y2="70.25"/>
    <path class="cls-1" d="m90.62,85.83v8.73h-1.32v-7.41h-.05l-2.09,1.36v-1.26l2.18-1.42h1.28Z"/>
    <path class="cls-1" d="m74.15,66.49v8.73h-1.32v-7.41h-.05l-2.09,1.36v-1.26l2.18-1.42h1.28Z"/>
    <path class="cls-1" d="m144.76,85.41l1.44,2.55,1.46-2.55h1.39l-2.04,3.27,2.06,3.27h-1.39l-1.47-2.45-1.47,2.45h-1.4l2.04-3.27-2.01-3.27h1.4Z"/>
    <path class="cls-1" d="m69.8,12.7c-.19,0-.36-.02-.52-.04s-.27-.06-.35-.1l.31-1.04c.23.06.44.09.62.08.18,0,.34-.08.48-.2.14-.13.27-.34.37-.63l.16-.43-2.4-6.63h1.36l1.66,5.08h.07l1.66-5.08h1.37l-2.7,7.42c-.12.34-.28.63-.48.87s-.42.42-.69.53c-.27.12-.58.18-.93.18Z"/>
    <path class="cls-1" d="m72.35,92.25c-.67,0-1.25-.18-1.73-.53s-.84-.87-1.1-1.54c-.25-.67-.38-1.48-.38-2.43s.13-1.75.38-2.42c.25-.67.62-1.18,1.1-1.53.48-.35,1.05-.53,1.72-.53s1.24.18,1.72.53c.48.35.84.87,1.1,1.53.25.67.38,1.48.38,2.42s-.13,1.76-.38,2.44c-.25.67-.62,1.18-1.1,1.54s-1.05.53-1.72.53Zm0-1.14c.59,0,1.05-.29,1.39-.87.33-.58.5-1.41.5-2.5,0-.72-.08-1.34-.23-1.84-.15-.5-.37-.88-.65-1.14-.28-.26-.62-.39-1.01-.39-.59,0-1.05.29-1.38.87-.33.58-.5,1.41-.51,2.5,0,.73.08,1.34.23,1.84.15.5.37.88.65,1.14.28.26.62.39,1.01.39Z"/>
    <g>
      <path class="cls-1" d="m11.66,19.31c-.19,0-.36-.02-.52-.04s-.27-.06-.35-.1l.31-1.04c.23.06.44.09.62.08.18,0,.34-.08.48-.2.14-.13.26-.34.37-.63l.16-.43-2.39-6.63h1.36l1.66,5.08h.07l1.66-5.08h1.37l-2.7,7.42c-.12.34-.28.63-.48.87s-.42.42-.69.53c-.27.12-.58.18-.93.18Z"/>
      <path class="cls-1" d="m21.24,12.66v-1.12h5.46v1.12h-5.46Zm0,2.62v-1.12h5.46v1.12h-5.46Z"/>
      <path class="cls-1" d="m33.01,10.31l1.44,2.55,1.46-2.55h1.39l-2.04,3.27,2.06,3.27h-1.39l-1.47-2.45-1.47,2.45h-1.4l2.04-3.27-2.01-3.27h1.4Z"/>
      <path class="cls-1" d="m42.05,13.99v-1.15h5.76v1.15h-5.76Zm2.31,2.31v-5.76h1.15v5.76h-1.15Z"/>
      <path class="cls-1" d="m52.95,16.85v-.95l2.95-3.06c.32-.33.58-.62.78-.88.21-.25.36-.49.46-.72s.15-.47.15-.72c0-.29-.07-.54-.21-.75-.14-.21-.32-.38-.56-.49-.24-.11-.5-.17-.8-.17-.31,0-.59.06-.82.19-.23.13-.41.31-.54.54s-.19.51-.19.82h-1.26c0-.53.12-1,.37-1.39.24-.4.58-.71,1.01-.93s.91-.33,1.45-.33,1.03.11,1.45.33.75.51.98.89c.24.37.35.79.35,1.26,0,.32-.06.64-.18.95-.12.31-.33.65-.63,1.03-.3.38-.71.84-1.24,1.38l-1.73,1.81v.06h3.93v1.13h-5.74Z"/>
    </g>
  </g>
</svg>