<?xml version="1.0" encoding="utf-8"?>
<!-- Generator: Adobe Illustrator 27.6.1, SVG Export Plug-In . SVG Version: 6.00 Build 0)  -->
<svg version="1.1" id="Layer_1" xmlns="http://www.w3.org/2000/svg" xmlns:xlink="http://www.w3.org/1999/xlink" x="0px" y="0px"
	 viewBox="0 0 150.2 150.5" style="enable-background:new 0 0 150.2 150.5;" xml:space="preserve">
<style type="text/css">
	.st0{opacity:0.3;fill:none;stroke:#BDCCD4;stroke-width:0.5;stroke-miterlimit:10;enable-background:new    ;}
	.st1{fill:none;stroke:#FFFFFF;stroke-width:2;stroke-miterlimit:10;}
	.st2{fill:#FFFFFF;}
	.st3{fill:none;stroke:#FFFFFF;stroke-miterlimit:10;}
	.st4{fill:none;stroke:#D1AE59;stroke-width:2;stroke-miterlimit:10;}
</style>
<g id="Layer_1_00000011729043320597802140000013390288548502085294_">
	<rect x="0.2" y="0.2" class="st0" width="149.8" height="150"/>
	<line class="st0" x1="70" y1="0.2" x2="70" y2="150.2"/>
	<line class="st0" x1="60" y1="0.2" x2="60" y2="150.2"/>
	<line class="st0" x1="50" y1="0.2" x2="50" y2="150.2"/>
	<line class="st0" x1="40" y1="0.2" x2="40" y2="150.2"/>
	<line class="st0" x1="30" y1="0.2" x2="30" y2="150.2"/>
	<line class="st0" x1="20" y1="0.2" x2="20" y2="150.2"/>
	<line class="st0" x1="10" y1="0.2" x2="10" y2="150.2"/>
	<line class="st0" x1="150" y1="80.2" x2="0.5" y2="80.2"/>
	<line class="st0" x1="150" y1="90.2" x2="0.5" y2="90.2"/>
	<line class="st0" x1="150" y1="100.2" x2="0.5" y2="100.2"/>
	<line class="st0" x1="150" y1="110.2" x2="0.5" y2="110.2"/>
	<line class="st0" x1="150" y1="120.2" x2="0.5" y2="120.2"/>
	<line class="st0" x1="150" y1="130.2" x2="0.5" y2="130.2"/>
	<line class="st0" x1="150" y1="140.2" x2="0.5" y2="140.2"/>
	<line class="st0" x1="150" y1="70.2" x2="0.5" y2="70.2"/>
	<line class="st0" x1="150" y1="60.2" x2="0.5" y2="60.2"/>
	<line class="st0" x1="150" y1="50.2" x2="0.5" y2="50.2"/>
	<line class="st0" x1="150" y1="40.2" x2="0.5" y2="40.2"/>
	<line class="st0" x1="150" y1="30.2" x2="0.5" y2="30.2"/>
	<line class="st0" x1="150" y1="20.2" x2="0.5" y2="20.2"/>
	<line class="st0" x1="150" y1="10.2" x2="0.5" y2="10.2"/>
	<line class="st0" x1="80" y1="0.2" x2="80" y2="150.2"/>
	<line class="st0" x1="90" y1="0.2" x2="90" y2="150.2"/>
	<line class="st0" x1="100" y1="0.2" x2="100" y2="150.2"/>
	<line class="st0" x1="110" y1="0.2" x2="110" y2="150.2"/>
	<line class="st0" x1="120" y1="0.2" x2="120" y2="150.2"/>
	<line class="st0" x1="130" y1="0.2" x2="130" y2="150.2"/>
	<line class="st0" x1="140" y1="0.2" x2="140" y2="150.2"/>
</g>
<line class="st1" x1="80" y1="10.2" x2="80" y2="140.2"/>
<line class="st1" x1="10" y1="80.2" x2="140" y2="80.2"/>
<polygon class="st2" points="145.8,80.2 139.9,76.8 139.9,83.7 "/>
<polygon class="st2" points="80,4.8 76.6,10.7 83.4,10.7 "/>
<line class="st3" x1="90" y1="76.8" x2="90" y2="83.7"/>
<line class="st3" x1="83.4" y1="70.2" x2="76.6" y2="70.2"/>
<path class="st2" d="M90.6,85.8v8.7h-1.3v-7.4h-0.1l-2.1,1.4v-1.3l2.2-1.4C89.3,85.8,90.6,85.8,90.6,85.8z"/>
<path class="st2" d="M74.2,66.5v8.7h-1.3v-7.4h-0.1l-2.1,1.4v-1.3l2.2-1.4H74.2z"/>
<path class="st2" d="M144.8,85.4l1.4,2.6l1.5-2.6h1.4l-2,3.3l2.1,3.3h-1.4l-1.5-2.4l-1.5,2.4h-1.4l2-3.3l-2-3.3H144.8L144.8,85.4z"
	/>
<path class="st2" d="M69.8,12.7c-0.2,0-0.4,0-0.5,0s-0.3-0.1-0.3-0.1l0.3-1c0.2,0.1,0.4,0.1,0.6,0.1c0.2,0,0.3-0.1,0.5-0.2
	c0.1-0.1,0.3-0.3,0.4-0.6l0.2-0.4l-2.4-6.6h1.4l1.7,5.1h0.1l1.7-5.1h1.4l-2.7,7.4c-0.1,0.3-0.3,0.6-0.5,0.9s-0.4,0.4-0.7,0.5
	C70.5,12.6,70.1,12.7,69.8,12.7L69.8,12.7z"/>
<line class="st4" x1="20" y1="140.2" x2="140" y2="20.2"/>
<path class="st2" d="M72.3,92.2c-0.7,0-1.2-0.2-1.7-0.5s-0.8-0.9-1.1-1.5c-0.2-0.7-0.4-1.5-0.4-2.4s0.1-1.8,0.4-2.4s0.6-1.2,1.1-1.5
	c0.5-0.3,1.1-0.5,1.7-0.5s1.2,0.2,1.7,0.5s0.8,0.9,1.1,1.5s0.4,1.5,0.4,2.4s-0.1,1.8-0.4,2.4c-0.2,0.7-0.6,1.2-1.1,1.5
	C73.6,92.1,73,92.3,72.3,92.2L72.3,92.2z M72.3,91.1c0.6,0,1.1-0.3,1.4-0.9c0.3-0.6,0.5-1.4,0.5-2.5c0-0.7-0.1-1.3-0.2-1.8
	s-0.4-0.9-0.7-1.1s-0.6-0.4-1-0.4c-0.6,0-1.1,0.3-1.4,0.9c-0.3,0.6-0.5,1.4-0.5,2.5c0,0.7,0.1,1.3,0.2,1.8s0.4,0.9,0.7,1.1
	S71.9,91.1,72.3,91.1L72.3,91.1z"/>
<g>
	<path class="st2" d="M11.7,19.3c-0.2,0-0.4,0-0.5,0s-0.3-0.1-0.4-0.1l0.3-1c0.2,0.1,0.4,0.1,0.6,0.1c0.2,0,0.3-0.1,0.5-0.2
		c0.1-0.1,0.3-0.3,0.4-0.6l0.2-0.4l-2.4-6.6h1.4l1.7,5.1h0.1l1.7-5.1h1.4l-2.7,7.4c-0.1,0.3-0.3,0.6-0.5,0.9s-0.4,0.4-0.7,0.5
		C12.3,19.3,12,19.3,11.7,19.3L11.7,19.3z"/>
	<path class="st2" d="M21.2,12.7v-1.1h5.5v1.1C26.7,12.7,21.2,12.7,21.2,12.7z M21.2,15.3v-1.1h5.5v1.1
		C26.7,15.3,21.2,15.3,21.2,15.3z"/>
	<path class="st2" d="M33,10.3l1.4,2.6l1.5-2.6h1.4l-2,3.3l2.1,3.3h-1.4l-1.5-2.4L33,16.9h-1.4l2-3.3l-2-3.3L33,10.3L33,10.3z"/>
</g>
</svg>
