<?xml version="1.0" encoding="UTF-8"?>
<svg id="Layer_1" data-name="Layer 1" xmlns="http://www.w3.org/2000/svg" viewBox="0 0 150.25 150.5">
  <defs>
    <style>
      .cls-1 {
        isolation: isolate;
        opacity: .3;
        stroke: #bdccd4;
        stroke-width: .5px;
      }

      .cls-1, .cls-2, .cls-3, .cls-4 {
        fill: none;
        stroke-miterlimit: 10;
      }

      .cls-5 {
        fill: #fff;
      }

      .cls-2, .cls-3 {
        stroke: #fff;
      }

      .cls-3, .cls-4 {
        stroke-width: 2px;
      }

      .cls-4 {
        stroke: #d1ae59;
      }
    </style>
  </defs>
  <g id="Layer_1-2" data-name="Layer 1">
    <rect class="cls-1" x=".25" y=".25" width="149.75" height="150"/>
    <line class="cls-1" x1="70" y1=".25" x2="70" y2="150.25"/>
    <line class="cls-1" x1="60" y1=".25" x2="60" y2="150.25"/>
    <line class="cls-1" x1="50" y1=".25" x2="50" y2="150.25"/>
    <line class="cls-1" x1="40" y1=".25" x2="40" y2="150.25"/>
    <line class="cls-1" x1="30" y1=".25" x2="30" y2="150.25"/>
    <line class="cls-1" x1="20" y1=".25" x2="20" y2="150.25"/>
    <line class="cls-1" x1="10" y1=".25" x2="10" y2="150.25"/>
    <line class="cls-1" x1="150" y1="80.25" x2=".5" y2="80.25"/>
    <line class="cls-1" x1="150" y1="90.25" x2=".5" y2="90.25"/>
    <line class="cls-1" x1="150" y1="100.25" x2=".5" y2="100.25"/>
    <line class="cls-1" x1="150" y1="110.25" x2=".5" y2="110.25"/>
    <line class="cls-1" x1="150" y1="120.25" x2=".5" y2="120.25"/>
    <line class="cls-1" x1="150" y1="130.25" x2=".5" y2="130.25"/>
    <line class="cls-1" x1="150" y1="140.25" x2=".5" y2="140.25"/>
    <line class="cls-1" x1="150" y1="70.25" x2=".5" y2="70.25"/>
    <line class="cls-1" x1="150" y1="60.25" x2=".5" y2="60.25"/>
    <line class="cls-1" x1="150" y1="50.25" x2=".5" y2="50.25"/>
    <line class="cls-1" x1="150" y1="40.25" x2=".5" y2="40.25"/>
    <line class="cls-1" x1="150" y1="30.25" x2=".5" y2="30.25"/>
    <line class="cls-1" x1="150" y1="20.25" x2=".5" y2="20.25"/>
    <line class="cls-1" x1="150" y1="10.25" x2=".5" y2="10.25"/>
    <line class="cls-1" x1="80" y1=".25" x2="80" y2="150.25"/>
    <line class="cls-1" x1="90" y1=".25" x2="90" y2="150.25"/>
    <line class="cls-1" x1="100" y1=".25" x2="100" y2="150.25"/>
    <line class="cls-1" x1="110" y1=".25" x2="110" y2="150.25"/>
    <line class="cls-1" x1="120" y1=".25" x2="120" y2="150.25"/>
    <line class="cls-1" x1="130" y1=".25" x2="130" y2="150.25"/>
    <line class="cls-1" x1="140" y1=".25" x2="140" y2="150.25"/>
  </g>
  <line class="cls-3" x1="80" y1="10.25" x2="80" y2="140.19"/>
  <line class="cls-3" x1="10" y1="80.25" x2="140" y2="80.25"/>
  <polygon class="cls-5" points="145.82 80.25 139.91 76.84 139.91 83.66 145.82 80.25"/>
  <polygon class="cls-5" points="80 4.79 76.59 10.71 83.41 10.71 80 4.79"/>
  <line class="cls-2" x1="90" y1="76.84" x2="90" y2="83.66"/>
  <line class="cls-2" x1="83.41" y1="70.25" x2="76.59" y2="70.25"/>
  <path class="cls-5" d="m144.76,85.41l1.44,2.55,1.46-2.55h1.39l-2.04,3.27,2.06,3.27h-1.39l-1.47-2.45-1.47,2.45h-1.4l2.04-3.27-2.01-3.27h1.4-.01Z"/>
  <path class="cls-5" d="m69.8,12.7c-.19,0-.36-.02-.52-.04s-.27-.06-.35-.1l.31-1.04c.23.06.44.09.62.08.18,0,.34-.08.48-.2.14-.13.26-.34.37-.63l.16-.43-2.39-6.63h1.36l1.66,5.08h.07l1.66-5.08h1.37l-2.7,7.42c-.12.34-.28.63-.48.87s-.42.42-.69.53c-.27.12-.58.18-.93.18h0Z"/>
  <path class="cls-5" d="m72.35,92.25c-.67,0-1.25-.18-1.73-.53s-.84-.87-1.09-1.54-.38-1.48-.38-2.43.13-1.75.38-2.42.62-1.18,1.1-1.53c.48-.35,1.05-.53,1.72-.53s1.24.18,1.72.53.84.87,1.1,1.53c.25.67.38,1.48.38,2.42s-.13,1.76-.38,2.44-.62,1.18-1.09,1.54c-.48.35-1.05.53-1.72.53h-.01Zm0-1.14c.59,0,1.05-.29,1.39-.87.33-.58.5-1.41.5-2.5,0-.72-.08-1.34-.23-1.84s-.37-.88-.65-1.14-.62-.39-1.01-.39c-.59,0-1.05.29-1.39.87-.33.58-.5,1.41-.51,2.5,0,.73.08,1.34.23,1.84s.37.88.65,1.14.62.39,1.01.39h.01Z"/>
  <path class="cls-5" d="m90.62,85.83v8.73h-1.32v-7.41h-.05l-2.09,1.36v-1.26l2.18-1.42s1.28,0,1.28,0Z"/>
  <path class="cls-5" d="m74.15,66.49v8.73h-1.32v-7.41h-.05l-2.09,1.36v-1.26l2.18-1.42h1.28Z"/>
  <g>
    <path class="cls-5" d="m11.66,19.42c-.19,0-.36-.02-.52-.04s-.27-.06-.35-.1l.31-1.04c.23.06.44.09.62.08.18,0,.34-.08.48-.2.14-.13.27-.34.37-.63l.16-.43-2.4-6.63h1.36l1.66,5.08h.07l1.66-5.08h1.37l-2.7,7.42c-.12.34-.28.63-.48.87s-.42.42-.69.53c-.27.12-.58.18-.93.18Z"/>
    <path class="cls-5" d="m21.24,12.78v-1.12h5.46v1.12h-5.46Zm0,2.62v-1.12h5.46v1.12h-5.46Z"/>
    <path class="cls-5" d="m33.28,8.24v8.73h-1.27v-8.73h1.27Z"/>
    <path class="cls-5" d="m37.75,17.1c-.61,0-1.15-.14-1.61-.42-.46-.28-.81-.67-1.07-1.18-.25-.51-.38-1.1-.38-1.77s.13-1.27.38-1.78c.25-.51.61-.9,1.07-1.19.46-.28.99-.42,1.61-.42s1.15.14,1.61.42c.46.28.81.68,1.07,1.19.25.51.38,1.1.38,1.78s-.13,1.27-.38,1.77c-.25.51-.61.9-1.07,1.18-.46.28-.99.42-1.61.42Zm0-1.07c.4,0,.73-.1.99-.32.26-.21.46-.49.58-.84.13-.35.19-.73.19-1.15s-.06-.8-.19-1.15c-.13-.35-.32-.63-.58-.85-.26-.21-.59-.32-.99-.32s-.73.11-1,.32c-.26.21-.46.5-.58.85-.13.35-.19.74-.19,1.15s.06.81.19,1.15c.13.35.32.63.58.84.26.21.59.32,1,.32Z"/>
    <path class="cls-5" d="m44.96,19.56c-.52,0-.97-.07-1.34-.2-.37-.14-.68-.32-.91-.54-.24-.22-.41-.47-.53-.74l1.09-.45c.08.12.18.26.31.4.13.14.31.26.53.36.22.1.51.15.86.15.48,0,.88-.12,1.2-.35s.47-.61.47-1.12v-1.29h-.08c-.08.14-.19.29-.33.46-.14.17-.34.32-.59.44s-.58.19-.98.19c-.52,0-.98-.12-1.4-.36-.41-.24-.74-.6-.98-1.08-.24-.48-.36-1.06-.36-1.76s.12-1.29.36-1.79.56-.88.98-1.14c.42-.27.88-.4,1.41-.4.41,0,.73.07.98.2s.45.29.59.47c.14.18.25.34.33.47h.09v-1.06h1.25v6.69c0,.56-.13,1.02-.39,1.38-.26.36-.62.63-1.06.8s-.95.26-1.5.26Zm-.01-3.75c.37,0,.68-.09.93-.26.25-.17.45-.42.58-.74.13-.32.2-.71.2-1.16s-.07-.83-.2-1.16c-.13-.34-.32-.6-.58-.79-.25-.19-.57-.28-.94-.28s-.7.1-.96.3c-.26.2-.45.46-.58.8-.13.34-.19.72-.19,1.13s.07.81.2,1.13.32.58.58.76c.26.18.57.27.95.27Z"/>
    <path class="cls-5" d="m56.99,10.42l1.44,2.55,1.46-2.55h1.39l-2.04,3.27,2.06,3.27h-1.39l-1.47-2.45-1.47,2.45h-1.4l2.04-3.27-2.01-3.27h1.4Z"/>
  </g>
  <path class="cls-5" d="m49.45,20.14v-.8l2.83-4.47h.63v1.18h-.4l-2.02,3.2v.05h3.88v.84h-4.91Zm3.1,1.28v-1.89s0-4.66,0-4.66h.94v6.55h-.94Z"/>
  <path class="cls-4" d="m82.49,140.19c.61-19.94-1.57-53.1,7.69-59.94,8.09-5.98,22.12-8.32,29.82-10,0,0,9.42-2.33,20-4.96"/>
</svg>