<?xml version="1.0" encoding="UTF-8"?>
<svg id="Layer_1" data-name="Layer 1" xmlns="http://www.w3.org/2000/svg" viewBox="0 0 150.2 150.5">
  <defs>
    <style>
      .cls-1 {
        isolation: isolate;
        opacity: .3;
        stroke: #bdccd4;
        stroke-width: .5px;
      }

      .cls-1, .cls-2, .cls-3, .cls-4 {
        fill: none;
        stroke-miterlimit: 10;
      }

      .cls-5 {
        fill: #fff;
      }

      .cls-2, .cls-3 {
        stroke: #fff;
      }

      .cls-3, .cls-4 {
        stroke-width: 2px;
      }

      .cls-4 {
        stroke: #d1ae59;
      }
    </style>
  </defs>
  <rect class="cls-1" x=".2" y=".2" width="149.8" height="150"/>
  <line class="cls-1" x1="70" y1=".2" x2="70" y2="150.2"/>
  <line class="cls-1" x1="60" y1=".2" x2="60" y2="150.2"/>
  <line class="cls-1" x1="50" y1=".2" x2="50" y2="150.2"/>
  <line class="cls-1" x1="40" y1=".2" x2="40" y2="150.2"/>
  <line class="cls-1" x1="30" y1=".2" x2="30" y2="150.2"/>
  <line class="cls-1" x1="20" y1=".2" x2="20" y2="150.2"/>
  <line class="cls-1" x1="10" y1=".2" x2="10" y2="150.2"/>
  <line class="cls-1" x1="150" y1="80.2" x2=".5" y2="80.2"/>
  <line class="cls-1" x1="150" y1="90.2" x2=".5" y2="90.2"/>
  <line class="cls-1" x1="150" y1="100.2" x2=".5" y2="100.2"/>
  <line class="cls-1" x1="150" y1="110.2" x2=".5" y2="110.2"/>
  <line class="cls-1" x1="150" y1="120.2" x2=".5" y2="120.2"/>
  <line class="cls-1" x1="150" y1="130.2" x2=".5" y2="130.2"/>
  <line class="cls-1" x1="150" y1="140.2" x2=".5" y2="140.2"/>
  <line class="cls-1" x1="150" y1="70.2" x2=".5" y2="70.2"/>
  <line class="cls-1" x1="150" y1="60.2" x2=".5" y2="60.2"/>
  <line class="cls-1" x1="150" y1="50.2" x2=".5" y2="50.2"/>
  <line class="cls-1" x1="150" y1="40.2" x2=".5" y2="40.2"/>
  <line class="cls-1" x1="150" y1="30.2" x2=".5" y2="30.2"/>
  <line class="cls-1" x1="150" y1="20.2" x2=".5" y2="20.2"/>
  <line class="cls-1" x1="150" y1="10.2" x2=".5" y2="10.2"/>
  <line class="cls-1" x1="80" y1=".2" x2="80" y2="150.2"/>
  <line class="cls-1" x1="90" y1=".2" x2="90" y2="150.2"/>
  <line class="cls-1" x1="100" y1=".2" x2="100" y2="150.2"/>
  <line class="cls-1" x1="110" y1=".2" x2="110" y2="150.2"/>
  <line class="cls-1" x1="120" y1=".2" x2="120" y2="150.2"/>
  <line class="cls-1" x1="130" y1=".2" x2="130" y2="150.2"/>
  <line class="cls-1" x1="140" y1=".2" x2="140" y2="150.2"/>
  <line class="cls-3" x1="80" y1="10.2" x2="80" y2="140.2"/>
  <line class="cls-3" x1="10" y1="80.2" x2="140" y2="80.2"/>
  <polygon class="cls-5" points="145.8 80.2 139.9 76.8 139.9 83.7 145.8 80.2"/>
  <polygon class="cls-5" points="80 4.8 76.6 10.7 83.4 10.7 80 4.8"/>
  <line class="cls-2" x1="90" y1="76.8" x2="90" y2="83.7"/>
  <line class="cls-2" x1="83.4" y1="70.2" x2="76.6" y2="70.2"/>
  <path class="cls-5" d="m144.8,85.4l1.4,2.6,1.5-2.6h1.4l-2,3.3,2.1,3.3h-1.4l-1.5-2.4-1.5,2.4h-1.4l2-3.3-2-3.3h1.4Z"/>
  <path class="cls-5" d="m69.8,12.7h-.5c-.1,0-.3-.1-.3-.1l.3-1c.2.1.4.1.6.1s.3-.1.5-.2c.1-.1.3-.3.4-.6l.2-.4-2.4-6.6h1.4l1.7,5.1h.1l1.7-5.1h1.4l-2.7,7.4c-.1.3-.3.6-.5.9s-.4.4-.7.5c-.5-.1-.8,0-1.2,0h0Z"/>
  <path class="cls-5" d="m72.3,92.2c-.7,0-1.2-.2-1.7-.5s-.8-.9-1.1-1.5-.4-1.5-.4-2.4.1-1.8.4-2.4.6-1.2,1.1-1.5,1.1-.5,1.7-.5,1.2.2,1.7.5.8.9,1.1,1.5c.2.7.4,1.5.4,2.4s-.1,1.8-.4,2.4-.6,1.2-1.1,1.5c-.4.4-1,.6-1.7.5h0Zm0-1.1c.6,0,1.1-.3,1.4-.9s.5-1.4.5-2.5c0-.7-.1-1.3-.2-1.8s-.4-.9-.7-1.1-.6-.4-1-.4c-.6,0-1.1.3-1.4.9s-.5,1.4-.5,2.5c0,.7.1,1.3.2,1.8s.4.9.7,1.1.6.4,1,.4h0Z"/>
  <polyline class="cls-4" points="10 50.22 70.03 110.2 140.03 40.33"/>
  <path class="cls-5" d="m90.6,85.8v8.7h-1.3v-7.4h-.1l-2.1,1.4v-1.3l2.2-1.4s1.3,0,1.3,0Z"/>
  <path class="cls-5" d="m74.2,66.5v8.7h-1.3v-7.4h-.1l-2.1,1.4v-1.3l2.2-1.4s1.3,0,1.3,0Z"/>
  <g>
    <path class="cls-5" d="m11.66,139.2c-.19,0-.36-.01-.52-.04-.16-.03-.27-.06-.35-.1l.31-1.04c.23.06.44.09.62.08.18,0,.34-.08.48-.2s.26-.34.37-.63l.16-.43-2.39-6.63h1.36l1.66,5.08h.07l1.66-5.08h1.37l-2.7,7.42c-.12.34-.28.63-.48.87-.19.24-.42.42-.69.53s-.58.18-.93.18Z"/>
    <path class="cls-5" d="m21.24,132.56v-1.12h5.46v1.12h-5.46Zm0,2.62v-1.12h5.46v1.12h-5.46Z"/>
    <path class="cls-5" d="m33.01,130.2l1.44,2.55,1.46-2.55h1.39l-2.04,3.27,2.06,3.27h-1.39l-1.47-2.45-1.47,2.45h-1.4l2.04-3.27-2.01-3.27h1.4Z"/>
    <path class="cls-5" d="m38.87,133.88v-1.15h5.76v1.15h-5.76Zm2.31,2.31v-5.76h1.15v5.76h-1.15Z"/>
    <path class="cls-5" d="m53.08,128.02v8.73h-1.32v-7.41h-.05l-2.09,1.36v-1.26l2.18-1.42h1.28Z"/>
    <path class="cls-5" d="m65.67,132.51v1.1h-3.87v-1.1h3.87Z"/>
    <path class="cls-5" d="m73.57,136.87c-.58,0-1.11-.1-1.57-.3-.46-.2-.82-.48-1.09-.84-.27-.36-.41-.78-.43-1.25h1.34c.02.26.1.48.26.67.16.19.36.33.62.44.26.1.54.15.85.15.34,0,.65-.06.91-.18s.47-.29.62-.5c.15-.21.23-.46.23-.74s-.08-.55-.22-.77c-.15-.22-.37-.4-.65-.53s-.63-.19-1.03-.19h-.74v-1.07h.74c.32,0,.61-.06.85-.17.25-.12.44-.28.58-.49.14-.21.21-.45.21-.74s-.06-.5-.18-.71c-.12-.2-.29-.36-.51-.47-.22-.11-.48-.17-.78-.17s-.55.05-.79.16c-.25.1-.45.25-.6.44-.15.19-.24.42-.25.69h-1.27c.01-.47.15-.89.42-1.24.27-.36.62-.64,1.05-.84s.92-.3,1.46-.3,1.04.11,1.45.33c.41.22.72.51.95.87.22.36.33.76.33,1.18,0,.49-.13.9-.41,1.24s-.64.57-1.09.69v.07c.58.09,1.03.32,1.35.69.32.37.48.83.47,1.39,0,.48-.13.91-.4,1.29s-.63.68-1.1.9c-.46.22-.99.33-1.59.33Z"/>
  </g>
  <rect class="cls-5" x="28.29" y="127.58" width=".95" height="9.94"/>
  <rect class="cls-5" x="55.71" y="127.58" width=".95" height="9.94"/>
</svg>