<?xml version="1.0" encoding="UTF-8"?>
<svg id="Layer_1" data-name="Layer 1" xmlns="http://www.w3.org/2000/svg" viewBox="0 0 150.2 150.5">
  <defs>
    <style>
      .cls-1 {
        isolation: isolate;
        opacity: .3;
        stroke: #bdccd4;
        stroke-width: .5px;
      }

      .cls-1, .cls-2, .cls-3, .cls-4 {
        fill: none;
        stroke-miterlimit: 10;
      }

      .cls-5 {
        fill: #fff;
      }

      .cls-2, .cls-3 {
        stroke: #fff;
      }

      .cls-3, .cls-4 {
        stroke-width: 2px;
      }

      .cls-4 {
        stroke: #d1ae59;
      }
    </style>
  </defs>
  <rect class="cls-1" x=".2" y=".2" width="149.8" height="150"/>
  <line class="cls-1" x1="70" y1=".2" x2="70" y2="150.2"/>
  <line class="cls-1" x1="60" y1=".2" x2="60" y2="150.2"/>
  <line class="cls-1" x1="50" y1=".2" x2="50" y2="150.2"/>
  <line class="cls-1" x1="40" y1=".2" x2="40" y2="150.2"/>
  <line class="cls-1" x1="30" y1=".2" x2="30" y2="150.2"/>
  <line class="cls-1" x1="20" y1=".2" x2="20" y2="150.2"/>
  <line class="cls-1" x1="10" y1=".2" x2="10" y2="150.2"/>
  <line class="cls-1" x1="150" y1="80.2" x2=".5" y2="80.2"/>
  <line class="cls-1" x1="150" y1="90.2" x2=".5" y2="90.2"/>
  <line class="cls-1" x1="150" y1="100.2" x2=".5" y2="100.2"/>
  <line class="cls-1" x1="150" y1="110.2" x2=".5" y2="110.2"/>
  <line class="cls-1" x1="150" y1="120.2" x2=".5" y2="120.2"/>
  <line class="cls-1" x1="150" y1="130.2" x2=".5" y2="130.2"/>
  <line class="cls-1" x1="150" y1="140.2" x2=".5" y2="140.2"/>
  <line class="cls-1" x1="150" y1="70.2" x2=".5" y2="70.2"/>
  <line class="cls-1" x1="150" y1="60.2" x2=".5" y2="60.2"/>
  <line class="cls-1" x1="150" y1="50.2" x2=".5" y2="50.2"/>
  <line class="cls-1" x1="150" y1="40.2" x2=".5" y2="40.2"/>
  <line class="cls-1" x1="150" y1="30.2" x2=".5" y2="30.2"/>
  <line class="cls-1" x1="150" y1="20.2" x2=".5" y2="20.2"/>
  <line class="cls-1" x1="150" y1="10.2" x2=".5" y2="10.2"/>
  <line class="cls-1" x1="80" y1=".2" x2="80" y2="150.2"/>
  <line class="cls-1" x1="90" y1=".2" x2="90" y2="150.2"/>
  <line class="cls-1" x1="100" y1=".2" x2="100" y2="150.2"/>
  <line class="cls-1" x1="110" y1=".2" x2="110" y2="150.2"/>
  <line class="cls-1" x1="120" y1=".2" x2="120" y2="150.2"/>
  <line class="cls-1" x1="130" y1=".2" x2="130" y2="150.2"/>
  <line class="cls-1" x1="140" y1=".2" x2="140" y2="150.2"/>
  <polygon class="cls-5" points="145.8 80.2 139.9 76.8 139.9 83.7 145.8 80.2"/>
  <polygon class="cls-5" points="80 4.8 76.6 10.7 83.4 10.7 80 4.8"/>
  <path class="cls-5" d="m144.8,85.4l1.4,2.6,1.5-2.6h1.4l-2,3.3,2.1,3.3h-1.4l-1.5-2.4-1.5,2.4h-1.4l2-3.3-2-3.3h1.4Z"/>
  <path class="cls-5" d="m69.8,12.7h-.5c-.1,0-.3-.1-.3-.1l.3-1c.2.1.4.1.6.1s.3-.1.5-.2c.1-.1.3-.3.4-.6l.2-.4-2.4-6.6h1.4l1.7,5.1h.1l1.7-5.1h1.4l-2.7,7.4c-.1.3-.3.6-.5.9s-.4.4-.7.5c-.5-.1-.8,0-1.2,0h0Z"/>
  <path class="cls-5" d="m72.3,92.2c-.7,0-1.2-.2-1.7-.5s-.8-.9-1.1-1.5-.4-1.5-.4-2.4.1-1.8.4-2.4.6-1.2,1.1-1.5,1.1-.5,1.7-.5,1.2.2,1.7.5.8.9,1.1,1.5c.2.7.4,1.5.4,2.4s-.1,1.8-.4,2.4-.6,1.2-1.1,1.5c-.4.4-1,.6-1.7.5h0Zm0-1.1c.6,0,1.1-.3,1.4-.9s.5-1.4.5-2.5c0-.7-.1-1.3-.2-1.8s-.4-.9-.7-1.1-.6-.4-1-.4c-.6,0-1.1.3-1.4.9s-.5,1.4-.5,2.5c0,.7.1,1.3.2,1.8s.4.9.7,1.1.6.4,1,.4h0Z"/>
  <path class="cls-5" d="m90.6,85.8v8.7h-1.3v-7.4h-.1l-2.1,1.4v-1.3l2.2-1.4s1.3,0,1.3,0Z"/>
  <g>
    <path class="cls-5" d="m11.66,140.55c-.19,0-.36-.01-.52-.04-.16-.03-.27-.06-.35-.1l.31-1.04c.23.06.44.09.62.08.18,0,.34-.08.48-.2s.26-.34.37-.63l.16-.43-2.39-6.63h1.36l1.66,5.08h.07l1.66-5.08h1.37l-2.7,7.42c-.12.34-.28.63-.48.87-.19.24-.42.42-.69.53s-.58.18-.93.18Z"/>
    <path class="cls-5" d="m21.24,133.91v-1.12h5.46v1.12h-5.46Zm0,2.62v-1.12h5.46v1.12h-5.46Z"/>
    <path class="cls-5" d="m31.56,134.5v-.64c.48,0,.82-.1,1-.3.19-.2.29-.52.29-.98v-1.22c0-.43.05-.8.15-1.1.1-.3.25-.53.45-.71.2-.18.46-.31.77-.39.31-.08.67-.12,1.1-.12v1.01c-.33,0-.59.05-.77.15s-.31.25-.39.45-.11.46-.11.78v1.55c0,.22-.03.42-.1.61-.07.19-.19.35-.36.48-.18.14-.43.24-.75.32-.33.08-.75.12-1.27.12Zm0,.59v-1.23h1.18v1.23h-1.18Zm3.75,4.82c-.42,0-.79-.04-1.1-.12-.31-.08-.57-.21-.77-.39-.2-.18-.35-.42-.45-.71-.1-.3-.15-.66-.15-1.1v-1.23c0-.45-.1-.78-.29-.98-.19-.2-.53-.3-1-.3v-.63c.52,0,.94.04,1.27.11.33.08.58.18.75.32.18.14.3.3.36.49.07.19.1.39.1.61v1.55c0,.31.04.57.11.77s.2.35.39.45c.18.1.44.15.77.15v1.01Z"/>
    <path class="cls-5" d="m37.54,131.55l1.44,2.55,1.46-2.55h1.39l-2.04,3.27,2.06,3.27h-1.39l-1.47-2.45-1.47,2.45h-1.4l2.04-3.27-2.01-3.27h1.4Z"/>
    <path class="cls-5" d="m42.66,129.04c.42,0,.79.04,1.1.12.31.08.57.21.77.39.2.18.35.42.45.71.1.3.15.66.15,1.1v1.22c0,.46.1.79.29.98.19.2.53.3,1.01.3v.64c-.52,0-.94-.04-1.27-.12-.33-.08-.58-.18-.75-.32-.18-.14-.3-.3-.36-.48-.07-.19-.1-.39-.1-.61v-1.55c0-.32-.04-.58-.11-.78s-.2-.35-.39-.45-.44-.15-.77-.15v-1.01Zm3.75,5.41v.63c-.48,0-.82.1-1.01.3-.19.2-.29.53-.29.98v1.23c0,.43-.05.8-.15,1.1-.1.3-.25.53-.45.71-.2.18-.46.31-.77.39-.31.08-.67.12-1.1.12v-1.01c.33,0,.59-.05.77-.15.18-.1.31-.25.39-.45s.11-.46.11-.77v-1.55c0-.22.03-.42.1-.61.07-.19.19-.35.36-.49.18-.14.43-.24.75-.32.33-.08.75-.11,1.27-.11Zm0-.59v1.23h-1.18v-1.23h1.18Z"/>
  </g>
  <g>
    <circle class="cls-4" cx="90.05" cy="70.2" r="2.25"/>
    <line class="cls-4" x1="80" y1="80.25" x2="88.61" y2="71.64"/>
  </g>
  <g>
    <circle class="cls-4" cx="80.05" cy="70.2" r="2.25"/>
    <line class="cls-4" x1="70" y1="80.25" x2="78.61" y2="71.64"/>
  </g>
  <g>
    <circle class="cls-4" cx="70.05" cy="70.2" r="2.25"/>
    <line class="cls-4" x1="60" y1="80.25" x2="68.61" y2="71.64"/>
  </g>
  <g>
    <circle class="cls-4" cx="60.05" cy="70.2" r="2.25"/>
    <line class="cls-4" x1="50" y1="80.25" x2="58.61" y2="71.64"/>
  </g>
  <g>
    <circle class="cls-4" cx="50.05" cy="70.2" r="2.25"/>
    <line class="cls-4" x1="40" y1="80.25" x2="48.61" y2="71.64"/>
  </g>
  <g>
    <circle class="cls-4" cx="40.05" cy="70.2" r="2.25"/>
    <line class="cls-4" x1="30" y1="80.25" x2="38.61" y2="71.64"/>
  </g>
  <g>
    <circle class="cls-4" cx="30.05" cy="70.2" r="2.25"/>
    <line class="cls-4" x1="20" y1="80.25" x2="28.61" y2="71.64"/>
  </g>
  <g>
    <circle class="cls-4" cx="20.05" cy="70.2" r="2.25"/>
    <line class="cls-4" x1="10" y1="80.25" x2="18.61" y2="71.64"/>
  </g>
  <g>
    <circle class="cls-4" cx="100.05" cy="70.2" r="2.25"/>
    <line class="cls-4" x1="90" y1="80.25" x2="98.61" y2="71.64"/>
  </g>
  <g>
    <circle class="cls-4" cx="110.05" cy="70.2" r="2.25"/>
    <line class="cls-4" x1="100" y1="80.25" x2="108.61" y2="71.64"/>
  </g>
  <g>
    <circle class="cls-4" cx="120.05" cy="70.2" r="2.25"/>
    <line class="cls-4" x1="110" y1="80.25" x2="118.61" y2="71.64"/>
  </g>
  <g>
    <circle class="cls-4" cx="130.05" cy="70.2" r="2.25"/>
    <line class="cls-4" x1="120" y1="80.25" x2="128.61" y2="71.64"/>
  </g>
  <g>
    <circle class="cls-4" cx="140.05" cy="70.2" r="2.25"/>
    <line class="cls-4" x1="130" y1="80.25" x2="138.61" y2="71.64"/>
  </g>
  <line class="cls-3" x1="80" y1="10.2" x2="80" y2="140.2"/>
  <line class="cls-3" x1="10" y1="80.2" x2="140" y2="80.2"/>
  <path class="cls-5" d="m74.2,66.5v8.7h-1.3v-7.4h-.1l-2.1,1.4v-1.3l2.2-1.4s1.3,0,1.3,0Z"/>
  <line class="cls-2" x1="90" y1="76.8" x2="90" y2="83.7"/>
  <line class="cls-2" x1="83.4" y1="70.2" x2="76.6" y2="70.2"/>
</svg>