<?xml version="1.0" encoding="UTF-8"?>
<svg id="Layer_1" data-name="Layer 1" xmlns="http://www.w3.org/2000/svg" viewBox="0 0 150.2 150.5">
  <defs>
    <style>
      .cls-1 {
        isolation: isolate;
        opacity: .3;
        stroke: #bdccd4;
        stroke-width: .5px;
      }

      .cls-1, .cls-2, .cls-3, .cls-4 {
        fill: none;
        stroke-miterlimit: 10;
      }

      .cls-5 {
        fill: #fff;
      }

      .cls-2, .cls-3 {
        stroke: #fff;
      }

      .cls-3, .cls-4 {
        stroke-width: 2px;
      }

      .cls-4 {
        stroke: #d1ae59;
      }
    </style>
  </defs>
  <rect class="cls-1" x=".2" y=".2" width="149.8" height="150"/>
  <line class="cls-1" x1="70" y1=".2" x2="70" y2="150.2"/>
  <line class="cls-1" x1="60" y1=".2" x2="60" y2="150.2"/>
  <line class="cls-1" x1="50" y1=".2" x2="50" y2="150.2"/>
  <line class="cls-1" x1="40" y1=".2" x2="40" y2="150.2"/>
  <line class="cls-1" x1="30" y1=".2" x2="30" y2="150.2"/>
  <line class="cls-1" x1="20" y1=".2" x2="20" y2="150.2"/>
  <line class="cls-1" x1="10" y1=".2" x2="10" y2="150.2"/>
  <line class="cls-1" x1="150" y1="80.2" x2=".5" y2="80.2"/>
  <line class="cls-1" x1="150" y1="90.2" x2=".5" y2="90.2"/>
  <line class="cls-1" x1="150" y1="100.2" x2=".5" y2="100.2"/>
  <line class="cls-1" x1="150" y1="110.2" x2=".5" y2="110.2"/>
  <line class="cls-1" x1="150" y1="120.2" x2=".5" y2="120.2"/>
  <line class="cls-1" x1="150" y1="130.2" x2=".5" y2="130.2"/>
  <line class="cls-1" x1="150" y1="140.2" x2=".5" y2="140.2"/>
  <line class="cls-1" x1="150" y1="70.2" x2=".5" y2="70.2"/>
  <line class="cls-1" x1="150" y1="60.2" x2=".5" y2="60.2"/>
  <line class="cls-1" x1="150" y1="50.2" x2=".5" y2="50.2"/>
  <line class="cls-1" x1="150" y1="40.2" x2=".5" y2="40.2"/>
  <line class="cls-1" x1="150" y1="30.2" x2=".5" y2="30.2"/>
  <line class="cls-1" x1="150" y1="20.2" x2=".5" y2="20.2"/>
  <line class="cls-1" x1="150" y1="10.2" x2=".5" y2="10.2"/>
  <line class="cls-1" x1="80" y1=".2" x2="80" y2="150.2"/>
  <line class="cls-1" x1="90" y1=".2" x2="90" y2="150.2"/>
  <line class="cls-1" x1="100" y1=".2" x2="100" y2="150.2"/>
  <line class="cls-1" x1="110" y1=".2" x2="110" y2="150.2"/>
  <line class="cls-1" x1="120" y1=".2" x2="120" y2="150.2"/>
  <line class="cls-1" x1="130" y1=".2" x2="130" y2="150.2"/>
  <line class="cls-1" x1="140" y1=".2" x2="140" y2="150.2"/>
  <line class="cls-3" x1="80" y1="10.2" x2="80" y2="140.2"/>
  <line class="cls-3" x1="10" y1="80.2" x2="140" y2="80.2"/>
  <polygon class="cls-5" points="145.8 80.2 139.9 76.8 139.9 83.7 145.8 80.2"/>
  <polygon class="cls-5" points="80 4.8 76.6 10.7 83.4 10.7 80 4.8"/>
  <line class="cls-2" x1="90" y1="76.8" x2="90" y2="83.7"/>
  <line class="cls-2" x1="83.4" y1="70.2" x2="76.6" y2="70.2"/>
  <path class="cls-5" d="m144.8,85.4l1.4,2.6,1.5-2.6h1.4l-2,3.3,2.1,3.3h-1.4l-1.5-2.4-1.5,2.4h-1.4l2-3.3-2-3.3h1.4Z"/>
  <path class="cls-5" d="m69.8,12.7h-.5c-.1,0-.3-.1-.3-.1l.3-1c.2.1.4.1.6.1s.3-.1.5-.2c.1-.1.3-.3.4-.6l.2-.4-2.4-6.6h1.4l1.7,5.1h.1l1.7-5.1h1.4l-2.7,7.4c-.1.3-.3.6-.5.9s-.4.4-.7.5c-.5-.1-.8,0-1.2,0h0Z"/>
  <path class="cls-5" d="m90.6,85.8v8.7h-1.3v-7.4h-.1l-2.1,1.4v-1.3l2.2-1.4s1.3,0,1.3,0Z"/>
  <path class="cls-5" d="m74.2,66.5v8.7h-1.3v-7.4h-.1l-2.1,1.4v-1.3l2.2-1.4s1.3,0,1.3,0Z"/>
  <g>
    <path class="cls-5" d="m12,20.82c-.19,0-.36-.01-.52-.04-.16-.03-.27-.06-.35-.1l.31-1.04c.23.06.44.09.62.08.18,0,.34-.08.48-.2s.26-.34.37-.63l.16-.43-2.39-6.63h1.36l1.66,5.08h.07l1.66-5.08h1.37l-2.7,7.42c-.12.34-.28.63-.48.87-.19.24-.42.42-.69.53s-.58.18-.93.18Z"/>
    <path class="cls-5" d="m21.58,14.18v-1.12h5.46v1.12h-5.46Zm0,2.62v-1.12h5.46v1.12h-5.46Z"/>
    <path class="cls-5" d="m32.85,20.18v-10.87h2.8v1.01h-1.58v8.85h1.58v1.01h-2.8Z"/>
    <path class="cls-5" d="m37.88,11.82l1.44,2.55,1.46-2.55h1.39l-2.04,3.27,2.06,3.27h-1.39l-1.47-2.45-1.47,2.45h-1.4l2.04-3.27-2.01-3.27h1.4Z"/>
    <path class="cls-5" d="m45.8,9.31v10.87h-2.8v-1.01h1.58v-8.85h-1.58v-1.01h2.8Z"/>
  </g>
  <g>
    <line class="cls-4" x1="89.75" y1="70.2" x2="98.34" y2="70.2"/>
    <circle class="cls-4" cx="100.07" cy="70.2" r="2.25"/>
  </g>
  <g>
    <line class="cls-4" x1="69.67" y1="90.43" x2="78.27" y2="90.43"/>
    <circle class="cls-4" cx="80" cy="90.43" r="2.25"/>
  </g>
  <g>
    <line class="cls-4" x1="59.72" y1="100.2" x2="68.31" y2="100.2"/>
    <circle class="cls-4" cx="70.05" cy="100.2" r="2.25"/>
  </g>
  <g>
    <line class="cls-4" x1="49.76" y1="110.2" x2="58.35" y2="110.2"/>
    <circle class="cls-4" cx="60.09" cy="110.2" r="2.25"/>
  </g>
  <g>
    <line class="cls-4" x1="39.71" y1="120.2" x2="48.3" y2="120.2"/>
    <circle class="cls-4" cx="50.03" cy="120.2" r="2.25"/>
  </g>
  <g>
    <line class="cls-4" x1="29.7" y1="130.2" x2="38.29" y2="130.2"/>
    <circle class="cls-4" cx="40.02" cy="130.2" r="2.25"/>
  </g>
  <g>
    <line class="cls-4" x1="19.74" y1="140.2" x2="28.33" y2="140.2"/>
    <circle class="cls-4" cx="30.06" cy="140.2" r="2.25"/>
  </g>
  <line class="cls-4" x1="80.99" y1="80.2" x2="88.32" y2="80.2"/>
  <circle class="cls-4" cx="90.06" cy="80.2" r="2.25"/>
  <g>
    <line class="cls-4" x1="99.71" y1="60.2" x2="108.3" y2="60.2"/>
    <circle class="cls-4" cx="110.03" cy="60.2" r="2.25"/>
  </g>
  <g>
    <line class="cls-4" x1="109.77" y1="50.2" x2="118.36" y2="50.2"/>
    <circle class="cls-4" cx="120.1" cy="50.2" r="2.25"/>
  </g>
  <g>
    <line class="cls-4" x1="119.76" y1="40.2" x2="128.36" y2="40.2"/>
    <circle class="cls-4" cx="130.09" cy="40.2" r="2.25"/>
  </g>
  <g>
    <line class="cls-4" x1="129.75" y1="30.2" x2="138.34" y2="30.2"/>
    <circle class="cls-4" cx="140.07" cy="30.2" r="2.25"/>
  </g>
  <path class="cls-5" d="m72.3,92.2c-.7,0-1.2-.2-1.7-.5s-.8-.9-1.1-1.5-.4-1.5-.4-2.4.1-1.8.4-2.4.6-1.2,1.1-1.5,1.1-.5,1.7-.5,1.2.2,1.7.5.8.9,1.1,1.5c.2.7.4,1.5.4,2.4s-.1,1.8-.4,2.4-.6,1.2-1.1,1.5c-.4.4-1,.6-1.7.5h0Zm0-1.1c.6,0,1.1-.3,1.4-.9s.5-1.4.5-2.5c0-.7-.1-1.3-.2-1.8s-.4-.9-.7-1.1-.6-.4-1-.4c-.6,0-1.1.3-1.4.9s-.5,1.4-.5,2.5c0,.7.1,1.3.2,1.8s.4.9.7,1.1.6.4,1,.4h0Z"/>
</svg>