<?xml version="1.0" encoding="UTF-8"?>
<svg id="Layer_1" data-name="Layer 1" xmlns="http://www.w3.org/2000/svg" viewBox="0 0 150.25 150.5">
  <defs>
    <style>
      .cls-1 {
        isolation: isolate;
        opacity: .3;
        stroke: #bdccd4;
        stroke-width: .5px;
      }

      .cls-1, .cls-2, .cls-3, .cls-4 {
        fill: none;
        stroke-miterlimit: 10;
      }

      .cls-5 {
        fill: #fff;
      }

      .cls-2, .cls-3 {
        stroke: #fff;
      }

      .cls-3, .cls-4 {
        stroke-width: 2px;
      }

      .cls-4 {
        stroke: #d1ae59;
      }
    </style>
  </defs>
  <rect class="cls-1" x=".25" y=".25" width="149.75" height="150"/>
  <line class="cls-1" x1="70" y1=".25" x2="70" y2="150.25"/>
  <path class="cls-4" d="m60.41,10.25c1.14,21.46,5.31,70,19.59,70"/>
  <path class="cls-4" d="m98.95,140.25c-1.81-23.7-6.59-60-18.95-60"/>
  <line class="cls-1" x1="60" y1=".25" x2="60" y2="150.25"/>
  <line class="cls-1" x1="50" y1=".25" x2="50" y2="150.25"/>
  <line class="cls-1" x1="40" y1=".25" x2="40" y2="150.25"/>
  <line class="cls-1" x1="30" y1=".25" x2="30" y2="150.25"/>
  <line class="cls-1" x1="20" y1=".25" x2="20" y2="150.25"/>
  <line class="cls-1" x1="10" y1=".25" x2="10" y2="150.25"/>
  <line class="cls-1" x1="150" y1="80.25" x2=".5" y2="80.25"/>
  <line class="cls-1" x1="150" y1="90.25" x2=".5" y2="90.25"/>
  <line class="cls-1" x1="150" y1="100.25" x2=".5" y2="100.25"/>
  <line class="cls-1" x1="150" y1="110.25" x2=".5" y2="110.25"/>
  <line class="cls-1" x1="150" y1="120.25" x2=".5" y2="120.25"/>
  <line class="cls-1" x1="150" y1="130.25" x2=".5" y2="130.25"/>
  <line class="cls-1" x1="150" y1="140.25" x2=".5" y2="140.25"/>
  <line class="cls-1" x1="150" y1="70.25" x2=".5" y2="70.25"/>
  <line class="cls-1" x1="150" y1="60.25" x2=".5" y2="60.25"/>
  <line class="cls-1" x1="150" y1="50.25" x2=".5" y2="50.25"/>
  <line class="cls-1" x1="150" y1="40.25" x2=".5" y2="40.25"/>
  <line class="cls-1" x1="150" y1="30.25" x2=".5" y2="30.25"/>
  <line class="cls-1" x1="150" y1="20.25" x2=".5" y2="20.25"/>
  <line class="cls-1" x1="150" y1="10.25" x2=".5" y2="10.25"/>
  <line class="cls-1" x1="80" y1=".25" x2="80" y2="150.25"/>
  <line class="cls-1" x1="90" y1=".25" x2="90" y2="150.25"/>
  <line class="cls-1" x1="100" y1=".25" x2="100" y2="150.25"/>
  <line class="cls-1" x1="110" y1=".25" x2="110" y2="150.25"/>
  <line class="cls-1" x1="120" y1=".25" x2="120" y2="150.25"/>
  <line class="cls-1" x1="130" y1=".25" x2="130" y2="150.25"/>
  <line class="cls-1" x1="140" y1=".25" x2="140" y2="150.25"/>
  <line class="cls-3" x1="80" y1="10.25" x2="80" y2="140.19"/>
  <line class="cls-3" x1="10" y1="80.25" x2="140" y2="80.25"/>
  <polygon class="cls-5" points="145.82 80.25 139.91 76.84 139.91 83.66 145.82 80.25"/>
  <polygon class="cls-5" points="80 4.79 76.59 10.71 83.41 10.71 80 4.79"/>
  <line class="cls-2" x1="90" y1="76.84" x2="90" y2="83.66"/>
  <line class="cls-2" x1="83.41" y1="70.25" x2="76.59" y2="70.25"/>
  <path class="cls-5" d="m90.62,85.83v8.73h-1.32v-7.41h-.05l-2.09,1.36v-1.26l2.18-1.42s1.28,0,1.28,0Z"/>
  <path class="cls-5" d="m144.76,85.41l1.44,2.55,1.46-2.55h1.39l-2.04,3.27,2.06,3.27h-1.39l-1.47-2.45-1.47,2.45h-1.4l2.04-3.27-2.01-3.27h1.4-.01Z"/>
  <path class="cls-5" d="m69.8,12.7c-.19,0-.36-.01-.52-.04-.16-.03-.27-.06-.35-.1l.31-1.04c.23.06.44.09.62.08.18,0,.34-.08.48-.2.14-.13.27-.34.37-.63l.16-.43-2.4-6.63h1.36l1.66,5.08h.07l1.66-5.08h1.37l-2.7,7.42c-.12.34-.28.63-.48.87s-.42.42-.69.54-.58.18-.93.18v-.02h0Z"/>
  <path class="cls-5" d="m72.35,92.25c-.67,0-1.25-.18-1.73-.53s-.84-.87-1.1-1.54c-.25-.67-.38-1.48-.38-2.43s.13-1.75.38-2.42.62-1.18,1.1-1.53c.48-.35,1.05-.53,1.72-.53s1.24.18,1.72.53.84.87,1.1,1.53.38,1.48.38,2.42-.13,1.76-.38,2.44c-.25.67-.62,1.18-1.1,1.54-.48.35-1.05.53-1.72.53h.01Zm0-1.14c.59,0,1.05-.29,1.39-.87.33-.58.5-1.41.5-2.5,0-.72-.08-1.34-.23-1.84s-.37-.88-.65-1.14-.62-.39-1.01-.39c-.59,0-1.05.29-1.39.87-.33.58-.5,1.41-.51,2.5,0,.73.08,1.34.23,1.84s.37.88.65,1.14.62.39,1.01.39h.01Z"/>
  <path class="cls-5" d="m74.15,66.49v8.73h-1.32v-7.41h-.05l-2.09,1.36v-1.26l2.18-1.42h1.28Z"/>
  <path class="cls-5" d="m46.12,14.11c-.44,0-.83-.08-1.17-.23-.34-.15-.62-.36-.82-.63s-.31-.58-.32-.94h1c.01.19.08.36.2.5.12.14.27.25.46.33.19.08.41.11.64.11.26,0,.49-.04.69-.13.2-.09.36-.21.47-.38.11-.16.17-.35.17-.56s-.06-.41-.17-.58-.27-.3-.49-.39c-.21-.1-.47-.14-.77-.14h-.55v-.81h.55c.24,0,.46-.04.64-.13.18-.09.33-.21.43-.37s.16-.34.16-.55-.05-.38-.14-.53c-.09-.15-.22-.27-.38-.35-.17-.08-.36-.13-.58-.13s-.41.04-.6.12c-.18.08-.33.19-.45.33-.11.14-.18.32-.18.52h-.96c.01-.35.12-.66.31-.93s.46-.48.79-.63c.33-.15.69-.23,1.09-.23s.78.08,1.09.24c.31.16.54.38.71.65.17.27.25.57.25.89,0,.37-.1.68-.3.93-.21.26-.48.43-.82.51v.05c.43.07.77.24,1.01.52.24.28.36.63.36,1.04,0,.36-.1.68-.3.97s-.48.51-.82.67c-.35.16-.74.24-1.19.24Z"/>
  <g>
    <path class="cls-5" d="m12,20.06c-.19,0-.36-.02-.52-.04s-.27-.06-.35-.1l.31-1.04c.23.06.44.09.62.08.18,0,.34-.08.48-.2.14-.13.26-.34.37-.63l.16-.43-2.39-6.63h1.36l1.66,5.08h.07l1.66-5.08h1.37l-2.7,7.42c-.12.34-.28.63-.48.87s-.42.42-.69.53c-.27.12-.58.18-.93.18Z"/>
    <path class="cls-5" d="m21.58,13.41v-1.12h5.46v1.12h-5.46Zm0,2.62v-1.12h5.46v1.12h-5.46Z"/>
    <path class="cls-5" d="m36.2,13.36v1.1h-3.87v-1.1h3.87Z"/>
    <path class="cls-5" d="m38.9,11.06l1.44,2.55,1.46-2.55h1.39l-2.04,3.27,2.06,3.27h-1.39l-1.47-2.45-1.47,2.45h-1.4l2.04-3.27-2.01-3.27h1.4Z"/>
  </g>
</svg>