<?xml version="1.0" encoding="UTF-8"?>
<svg xmlns="http://www.w3.org/2000/svg" viewBox="0 0 150.25 150.5">
  <defs>
    <style>
      .cls-1 {
        isolation: isolate;
        opacity: .3;
        stroke: #bdccd4;
        stroke-width: .5px;
      }

      .cls-1, .cls-2, .cls-3, .cls-4 {
        fill: none;
        stroke-miterlimit: 10;
      }

      .cls-5 {
        fill: #fff;
      }

      .cls-2, .cls-3 {
        stroke: #fff;
      }

      .cls-3, .cls-4 {
        stroke-width: 2px;
      }

      .cls-4 {
        stroke: #d1ae59;
      }
    </style>
  </defs>
  <g id="Layer_2" data-name="Layer 2">
    <g>
      <path class="cls-5" d="m5.66,139.15c-.17,0-.33-.01-.48-.04s-.25-.06-.32-.09l.28-.96c.21.06.4.08.57.07s.31-.07.44-.19.24-.31.34-.57l.14-.4-2.2-6.08h1.25l1.52,4.66h.06l1.52-4.66h1.25l-2.47,6.8c-.11.31-.26.58-.44.79s-.39.38-.63.49-.53.16-.85.16Z"/>
      <path class="cls-5" d="m14.44,133.06v-1.03h5v1.03h-5Zm0,2.41v-1.03h5v1.03h-5Z"/>
      <path class="cls-5" d="m25.23,130.9l1.32,2.34,1.34-2.34h1.28l-1.87,3,1.89,3h-1.28l-1.35-2.24-1.35,2.24h-1.28l1.87-3-1.84-3h1.28Z"/>
      <path class="cls-5" d="m39.73,133.01v1.01h-3.55v-1.01h3.55Z"/>
      <path class="cls-5" d="m44.19,136.9v-.88l2.71-2.8c.29-.3.53-.57.72-.8s.33-.45.42-.66.14-.43.14-.66c0-.27-.06-.5-.19-.69s-.3-.34-.51-.45-.46-.16-.73-.16c-.29,0-.54.06-.75.18s-.38.28-.49.5-.17.46-.17.75h-1.15c0-.49.11-.91.34-1.28s.53-.65.92-.85.83-.3,1.33-.3.95.1,1.33.3.68.47.9.81.32.73.32,1.16c0,.3-.06.59-.17.87s-.3.6-.58.95-.65.77-1.14,1.26l-1.59,1.66v.06h3.6v1.04h-5.27Z"/>
      <path class="cls-5" d="m51.87,130.9l1.32,2.34,1.34-2.34h1.28l-1.87,3,1.89,3h-1.28l-1.35-2.24-1.35,2.24h-1.28l1.87-3-1.84-3h1.28Z"/>
      <path class="cls-5" d="m60.17,134.27v-1.05h5.28v1.05h-5.28Zm2.11,2.12v-5.28h1.05v5.28h-1.05Z"/>
      <path class="cls-5" d="m72.94,137.01c-.54,0-1.01-.09-1.44-.28s-.75-.44-1-.77-.37-.71-.39-1.15h1.23c.02.24.1.44.24.62s.33.31.57.4.5.14.78.14c.32,0,.59-.05.84-.16s.43-.26.57-.46.21-.42.21-.68-.07-.5-.21-.71-.34-.37-.6-.48-.58-.18-.95-.18h-.68v-.98h.68c.3,0,.56-.05.78-.16s.4-.26.53-.45.19-.42.19-.67-.06-.46-.17-.65-.27-.33-.47-.43-.44-.16-.71-.16-.5.05-.73.14-.41.23-.55.41-.22.39-.23.63h-1.17c.01-.43.14-.81.38-1.14s.57-.58.97-.77.85-.28,1.34-.28.96.1,1.33.3.66.46.87.79.31.69.3,1.09c0,.45-.12.83-.37,1.14s-.58.52-1,.63v.06c.53.08.94.29,1.24.63s.44.76.44,1.27c0,.44-.12.83-.37,1.18s-.58.62-1.01.82-.91.3-1.46.3Z"/>
    </g>
  </g>
  <g id="Layer_1" data-name="Layer 1">
    <rect class="cls-1" x=".25" y=".25" width="149.75" height="150"/>
    <line class="cls-1" x1="70" y1=".25" x2="70" y2="150.25"/>
    <line class="cls-1" x1="60" y1=".25" x2="60" y2="150.25"/>
    <line class="cls-1" x1="50" y1=".25" x2="50" y2="150.25"/>
    <line class="cls-1" x1="40" y1=".25" x2="40" y2="150.25"/>
    <line class="cls-1" x1="30" y1=".25" x2="30" y2="150.25"/>
    <line class="cls-1" x1="20" y1=".25" x2="20" y2="150.25"/>
    <line class="cls-1" x1="10" y1=".25" x2="10" y2="150.25"/>
    <line class="cls-1" x1="150" y1="80.25" x2=".5" y2="80.25"/>
    <line class="cls-1" x1="150" y1="90.25" x2=".5" y2="90.25"/>
    <line class="cls-1" x1="150" y1="100.25" x2=".5" y2="100.25"/>
    <line class="cls-1" x1="150" y1="110.25" x2=".5" y2="110.25"/>
    <line class="cls-1" x1="150" y1="120.25" x2=".5" y2="120.25"/>
    <line class="cls-1" x1="150" y1="130.25" x2=".5" y2="130.25"/>
    <line class="cls-1" x1="150" y1="140.25" x2=".5" y2="140.25"/>
    <line class="cls-1" x1="150" y1="70.25" x2=".5" y2="70.25"/>
    <line class="cls-1" x1="150" y1="60.25" x2=".5" y2="60.25"/>
    <line class="cls-1" x1="150" y1="50.25" x2=".5" y2="50.25"/>
    <line class="cls-1" x1="150" y1="40.25" x2=".5" y2="40.25"/>
    <line class="cls-1" x1="150" y1="30.25" x2=".5" y2="30.25"/>
    <line class="cls-1" x1="150" y1="20.25" x2=".5" y2="20.25"/>
    <line class="cls-1" x1="150" y1="10.25" x2=".5" y2="10.25"/>
    <line class="cls-1" x1="80" y1=".25" x2="80" y2="150.25"/>
    <line class="cls-1" x1="90" y1=".25" x2="90" y2="150.25"/>
    <line class="cls-1" x1="100" y1=".25" x2="100" y2="150.25"/>
    <line class="cls-1" x1="110" y1=".25" x2="110" y2="150.25"/>
    <line class="cls-1" x1="120" y1=".25" x2="120" y2="150.25"/>
    <line class="cls-1" x1="130" y1=".25" x2="130" y2="150.25"/>
    <line class="cls-1" x1="140" y1=".25" x2="140" y2="150.25"/>
    <line class="cls-3" x1="80" y1="10.25" x2="80" y2="140.19"/>
    <line class="cls-3" x1="10" y1="80.25" x2="140" y2="80.25"/>
    <polygon class="cls-5" points="145.82 80.25 139.91 76.84 139.91 83.66 145.82 80.25"/>
    <polygon class="cls-5" points="80 4.79 76.59 10.71 83.41 10.71 80 4.79"/>
    <line class="cls-2" x1="90" y1="76.84" x2="90" y2="83.66"/>
    <line class="cls-2" x1="83.41" y1="70.25" x2="76.59" y2="70.25"/>
    <path class="cls-5" d="m90.62,85.83v8.73h-1.32v-7.41h-.05l-2.09,1.36v-1.26l2.18-1.42s1.28,0,1.28,0Z"/>
    <path class="cls-5" d="m144.76,85.41l1.44,2.55,1.46-2.55h1.39l-2.04,3.27,2.06,3.27h-1.39l-1.47-2.45-1.47,2.45h-1.4l2.04-3.27-2.01-3.27h1.4-.01Z"/>
    <path class="cls-5" d="m69.8,12.7c-.19,0-.36-.01-.52-.04-.16-.03-.27-.06-.35-.1l.31-1.04c.23.06.44.09.62.08.18,0,.34-.08.48-.2.14-.13.27-.34.37-.63l.16-.43-2.4-6.63h1.36l1.66,5.08h.07l1.66-5.08h1.37l-2.7,7.42c-.12.34-.28.63-.48.87s-.42.42-.69.54-.58.18-.93.18v-.02h0Z"/>
    <path class="cls-5" d="m72.35,92.25c-.67,0-1.25-.18-1.73-.53s-.84-.87-1.1-1.54c-.25-.67-.38-1.48-.38-2.43s.13-1.75.38-2.42.62-1.18,1.1-1.53c.48-.35,1.05-.53,1.72-.53s1.24.18,1.72.53.84.87,1.1,1.53.38,1.48.38,2.42-.13,1.76-.38,2.44c-.25.67-.62,1.18-1.1,1.54-.48.35-1.05.53-1.72.53h.01Zm0-1.14c.59,0,1.05-.29,1.39-.87.33-.58.5-1.41.5-2.5,0-.72-.08-1.34-.23-1.84s-.37-.88-.65-1.14-.62-.39-1.01-.39c-.59,0-1.05.29-1.39.87-.33.58-.5,1.41-.51,2.5,0,.73.08,1.34.23,1.84s.37.88.65,1.14.62.39,1.01.39h.01Z"/>
    <path class="cls-4" d="m67.4,10.71c4.13,20.44,11.89,49.54,22.6,49.54s18.59-29.54,22.69-50"/>
    <path class="cls-5" d="m74.15,66.49v8.73h-1.32v-7.41h-.05l-2.09,1.36v-1.26l2.18-1.42h1.28Z"/>
    <path class="cls-5" d="m30.56,133.66v-.64l1.97-2.04c.21-.22.38-.42.52-.58.14-.17.24-.33.31-.48.07-.15.1-.31.1-.48,0-.19-.05-.36-.14-.5-.09-.14-.21-.25-.37-.33-.16-.08-.33-.12-.53-.12-.21,0-.39.04-.55.13s-.27.21-.36.36-.12.34-.12.54h-.84c0-.35.08-.66.24-.93.16-.27.39-.47.67-.62s.61-.22.97-.22.69.07.97.22c.28.15.5.34.65.59s.24.53.24.84c0,.22-.04.43-.12.63-.08.21-.22.44-.42.69-.2.25-.48.56-.83.92l-1.16,1.21v.04h2.62v.75h-3.83Z"/>
  </g>
</svg>