<?xml version="1.0" encoding="UTF-8"?>
<svg id="Layer_1" data-name="Layer 1" xmlns="http://www.w3.org/2000/svg" viewBox="0 0 150.25 150.5">
  <defs>
    <style>
      .cls-1 {
        isolation: isolate;
        opacity: .3;
        stroke: #bdccd4;
        stroke-width: .5px;
      }

      .cls-1, .cls-2, .cls-3, .cls-4 {
        fill: none;
        stroke-miterlimit: 10;
      }

      .cls-5 {
        fill: #fff;
      }

      .cls-2, .cls-3 {
        stroke: #fff;
      }

      .cls-3, .cls-4 {
        stroke-width: 2px;
      }

      .cls-4 {
        stroke: #d1ae59;
      }
    </style>
  </defs>
  <rect class="cls-1" x=".25" y=".25" width="149.75" height="150"/>
  <line class="cls-1" x1="70" y1=".25" x2="70" y2="150.25"/>
  <line class="cls-1" x1="60" y1=".25" x2="60" y2="150.25"/>
  <line class="cls-1" x1="50" y1=".25" x2="50" y2="150.25"/>
  <line class="cls-1" x1="40" y1=".25" x2="40" y2="150.25"/>
  <line class="cls-1" x1="30" y1=".25" x2="30" y2="150.25"/>
  <line class="cls-1" x1="20" y1=".25" x2="20" y2="150.25"/>
  <line class="cls-1" x1="10" y1=".25" x2="10" y2="150.25"/>
  <line class="cls-1" x1="150" y1="80.25" x2=".5" y2="80.25"/>
  <line class="cls-1" x1="150" y1="90.25" x2=".5" y2="90.25"/>
  <line class="cls-1" x1="150" y1="100.25" x2=".5" y2="100.25"/>
  <line class="cls-1" x1="150" y1="110.25" x2=".5" y2="110.25"/>
  <line class="cls-1" x1="150" y1="120.25" x2=".5" y2="120.25"/>
  <line class="cls-1" x1="150" y1="130.25" x2=".5" y2="130.25"/>
  <line class="cls-1" x1="150" y1="140.25" x2=".5" y2="140.25"/>
  <line class="cls-1" x1="150" y1="70.25" x2=".5" y2="70.25"/>
  <line class="cls-1" x1="150" y1="60.25" x2=".5" y2="60.25"/>
  <line class="cls-1" x1="150" y1="50.25" x2=".5" y2="50.25"/>
  <line class="cls-1" x1="150" y1="40.25" x2=".5" y2="40.25"/>
  <line class="cls-1" x1="150" y1="30.25" x2=".5" y2="30.25"/>
  <line class="cls-1" x1="150" y1="20.25" x2=".5" y2="20.25"/>
  <line class="cls-1" x1="150" y1="10.25" x2=".5" y2="10.25"/>
  <line class="cls-1" x1="80" y1=".25" x2="80" y2="150.25"/>
  <line class="cls-1" x1="90" y1=".25" x2="90" y2="150.25"/>
  <line class="cls-1" x1="100" y1=".25" x2="100" y2="150.25"/>
  <line class="cls-1" x1="110" y1=".25" x2="110" y2="150.25"/>
  <line class="cls-1" x1="120" y1=".25" x2="120" y2="150.25"/>
  <line class="cls-1" x1="130" y1=".25" x2="130" y2="150.25"/>
  <line class="cls-1" x1="140" y1=".25" x2="140" y2="150.25"/>
  <line class="cls-3" x1="80" y1="10.25" x2="80" y2="140.19"/>
  <line class="cls-3" x1="10" y1="80.25" x2="140" y2="80.25"/>
  <polygon class="cls-5" points="145.82 80.25 139.91 76.84 139.91 83.66 145.82 80.25"/>
  <polygon class="cls-5" points="80 4.79 76.59 10.71 83.41 10.71 80 4.79"/>
  <line class="cls-2" x1="90" y1="76.84" x2="90" y2="83.66"/>
  <line class="cls-2" x1="83.41" y1="70.25" x2="76.59" y2="70.25"/>
  <path class="cls-5" d="m90.62,85.83v8.73h-1.32v-7.41h-.05l-2.09,1.36v-1.26l2.18-1.42s1.28,0,1.28,0Z"/>
  <path class="cls-5" d="m144.76,85.41l1.44,2.55,1.46-2.55h1.39l-2.04,3.27,2.06,3.27h-1.39l-1.47-2.45-1.47,2.45h-1.4l2.04-3.27-2.01-3.27h1.4-.01Z"/>
  <path class="cls-5" d="m69.8,12.7c-.19,0-.36-.01-.52-.04-.16-.03-.27-.06-.35-.1l.31-1.04c.23.06.44.09.62.08.18,0,.34-.08.48-.2.14-.13.27-.34.37-.63l.16-.43-2.4-6.63h1.36l1.66,5.08h.07l1.66-5.08h1.37l-2.7,7.42c-.12.34-.28.63-.48.87s-.42.42-.69.54-.58.18-.93.18v-.02Z"/>
  <path class="cls-5" d="m72.35,92.25c-.67,0-1.25-.18-1.73-.53s-.84-.87-1.1-1.54c-.25-.67-.38-1.48-.38-2.43s.13-1.75.38-2.42.62-1.18,1.1-1.53c.48-.35,1.05-.53,1.72-.53s1.24.18,1.72.53.84.87,1.1,1.53.38,1.48.38,2.42-.13,1.76-.38,2.44c-.25.67-.62,1.18-1.1,1.54-.48.35-1.05.53-1.72.53h.01Zm0-1.14c.59,0,1.05-.29,1.39-.87.33-.58.5-1.41.5-2.5,0-.72-.08-1.34-.23-1.84s-.37-.88-.65-1.14-.62-.39-1.01-.39c-.59,0-1.05.29-1.39.87-.33.58-.5,1.41-.51,2.5,0,.73.08,1.34.23,1.84s.37.88.65,1.14.62.39,1.01.39h.01Z"/>
  <path class="cls-4" d="m53.44,10.25s9.7,69.14,26.56,69.14S106.56,10.25,106.56,10.25"/>
  <path class="cls-5" d="m74.15,66.49v8.73h-1.32v-7.41h-.05l-2.09,1.36v-1.26l2.18-1.42h1.28Z"/>
  <g>
    <path class="cls-5" d="m16,24.61c-.19,0-.36-.01-.52-.04-.16-.03-.27-.06-.35-.1l.31-1.04c.23.06.44.09.62.08.18,0,.34-.08.48-.2s.27-.34.37-.63l.16-.43-2.4-6.63h1.36l1.66,5.08h.07l1.66-5.08h1.37l-2.7,7.42c-.12.34-.28.63-.48.87-.19.24-.42.42-.69.53s-.58.18-.93.18h.01Z"/>
    <path class="cls-5" d="m25.58,17.97v-1.12h5.46v1.12h-5.46Zm0,2.62v-1.12h5.46v1.12h-5.46Z"/>
    <path class="cls-5" d="m37.34,15.61l1.44,2.55,1.46-2.55h1.39l-2.04,3.27,2.06,3.27h-1.39l-1.47-2.45-1.47,2.45h-1.4l2.04-3.27-2.01-3.27h1.4,0Z"/>
  </g>
  <path class="cls-5" d="m42.29,18.51v-.72l2.21-2.29c.24-.25.43-.47.59-.66.15-.19.27-.37.35-.54.08-.17.11-.35.11-.54,0-.22-.05-.41-.15-.56-.1-.16-.24-.28-.42-.37-.18-.09-.38-.13-.6-.13s-.44.05-.61.14c-.17.1-.31.23-.4.41s-.14.38-.14.61h-.94c0-.4.09-.75.27-1.04.18-.3.43-.53.75-.7s.68-.25,1.09-.25.77.08,1.09.24c.31.16.56.38.74.67.18.28.27.6.27.95,0,.24-.05.48-.14.71-.09.23-.25.49-.47.78-.22.28-.53.63-.93,1.03l-1.3,1.36v.05h2.95v.85h-4.32Z"/>
</svg>