<?xml version="1.0" encoding="UTF-8"?>
<svg id="Layer_1" data-name="Layer 1" xmlns="http://www.w3.org/2000/svg" viewBox="0 0 173 116.19">
  <defs>
    <style>
      .cls-1, .cls-2 {
        fill: #d1ae59;
      }

      .cls-3 {
        stroke-dasharray: 0 0 4 3;
      }

      .cls-3, .cls-2, .cls-4 {
        stroke: #d1ae59;
        stroke-miterlimit: 10;
        stroke-width: 2px;
      }

      .cls-3, .cls-4 {
        fill: none;
      }

      .cls-2 {
        opacity: .3;
      }
    </style>
  </defs>
  <polygon class="cls-2" points="126.15 54.23 3.03 54.23 46.85 13.06 169.97 13.06 126.15 54.23"/>
  <circle class="cls-1" cx="60.43" cy="36.36" r="3.34"/>
  <circle class="cls-1" cx="54.76" cy="78.56" r="3.34"/>
  <circle class="cls-1" cx="97.67" cy="78.56" r="3.34"/>
  <circle class="cls-1" cx="103.34" cy="36.36" r="3.34"/>
  <polygon class="cls-4" points="125.71 54.23 2.59 54.23 46.41 13.06 169.53 13.06 125.71 54.23"/>
  <polygon class="cls-2" points="125.93 102.38 2.81 102.38 46.63 61.22 169.75 61.22 125.93 102.38"/>
  <polygon class="cls-4" points="125.49 102.38 2.37 102.38 46.19 61.22 169.31 61.22 125.49 102.38"/>
  <line class="cls-4" x1="58.03" y1="54.23" x2="54.77" y2="78.48"/>
  <line class="cls-4" x1="51.57" y1="102.26" x2="49.82" y2="115.27"/>
  <line class="cls-4" x1="94.39" y1="102.95" x2="92.64" y2="115.97"/>
  <line class="cls-4" x1="100.94" y1="54.23" x2="97.63" y2="78.86"/>
  <line class="cls-4" x1="108.04" y1="1.4" x2="103.15" y2="37.78"/>
  <line class="cls-4" x1="65.05" y1="2.07" x2="60.15" y2="38.45"/>
  <line class="cls-3" x1="102.74" y1="40.84" x2="100.95" y2="54.17"/>
  <line class="cls-3" x1="59.81" y1="41" x2="57.95" y2="54.87"/>
  <line class="cls-3" x1="54.09" y1="83.53" x2="51.56" y2="102.38"/>
  <line class="cls-3" x1="97.02" y1="83.4" x2="94.59" y2="101.46"/>
</svg>