<?xml version="1.0" encoding="UTF-8"?>
<svg id="Layer_1" data-name="Layer 1" xmlns="http://www.w3.org/2000/svg" viewBox="0 0 173 189.84">
  <defs>
    <style>
      .cls-1 {
        fill: #fff;
      }

      .cls-2, .cls-3 {
        fill: #d1ae59;
      }

      .cls-4 {
        stroke-dasharray: 0 0 4 3;
      }

      .cls-4, .cls-3, .cls-5 {
        stroke: #d1ae59;
        stroke-miterlimit: 10;
        stroke-width: 2px;
      }

      .cls-4, .cls-5 {
        fill: none;
      }

      .cls-3 {
        opacity: .3;
      }
    </style>
  </defs>
  <polygon class="cls-3" points="126.15 95.48 3.03 95.48 46.85 54.32 169.97 54.32 126.15 95.48"/>
  <circle class="cls-2" cx="79.43" cy="59.32" r="3.34"/>
  <circle class="cls-2" cx="102.47" cy="88.54" r="3.34"/>
  <circle class="cls-2" cx="64.35" cy="108" r="3.34"/>
  <circle class="cls-2" cx="87.45" cy="137.2" r="3.34"/>
  <polygon class="cls-5" points="125.71 95.48 2.59 95.48 46.41 54.32 169.53 54.32 125.71 95.48"/>
  <polygon class="cls-3" points="125.93 143.64 2.81 143.64 46.63 102.47 169.75 102.47 125.93 143.64"/>
  <polygon class="cls-5" points="125.49 143.64 2.37 143.64 46.19 102.47 169.31 102.47 125.49 143.64"/>
  <path class="cls-1" d="m93.59,68.9c-.4,0-.75-.07-1.08-.22-.32-.15-.57-.36-.76-.65-.19-.28-.28-.63-.28-1.04,0-.35.07-.64.2-.87.14-.23.32-.41.55-.54.23-.13.49-.23.77-.3.29-.07.58-.12.87-.15.37-.04.68-.08.91-.11s.4-.08.51-.14c.11-.06.16-.17.16-.32v-.03c0-.36-.1-.63-.3-.83-.2-.2-.5-.29-.89-.29s-.73.09-.97.27c-.24.18-.4.38-.49.6l-1.14-.26c.14-.38.33-.69.6-.92.26-.23.56-.41.91-.51.34-.11.7-.16,1.08-.16.25,0,.52.03.8.09.28.06.54.17.79.32.25.16.45.38.6.66.16.29.24.66.24,1.11v4.15h-1.19v-.86h-.05c-.08.16-.2.31-.35.46-.16.15-.36.28-.61.38-.25.1-.54.15-.89.15Zm.26-.98c.34,0,.62-.07.87-.2s.42-.31.55-.52.19-.45.19-.69v-.81s-.13.08-.25.12c-.12.04-.26.07-.42.09-.16.03-.31.05-.46.07-.15.02-.27.04-.38.05-.24.03-.45.08-.65.15-.19.07-.35.17-.46.3-.12.13-.17.31-.17.52,0,.3.11.53.33.68.22.15.51.23.85.23Z"/>
  <path class="cls-1" d="m77.07,116.51v-8.34h1.22v3.1h.07c.07-.13.17-.28.31-.45.13-.17.32-.32.55-.45.24-.13.55-.19.94-.19.5,0,.96.13,1.35.38s.71.62.93,1.1.34,1.06.34,1.73-.11,1.25-.34,1.74c-.23.48-.54.85-.93,1.11-.39.26-.84.39-1.35.39-.38,0-.69-.06-.93-.19s-.43-.28-.56-.45c-.14-.17-.24-.32-.31-.46h-.1v.97h-1.19Zm1.19-3.13c0,.44.06.83.19,1.16.13.33.31.59.55.78.24.19.54.28.89.28s.67-.1.91-.29.43-.46.56-.79.19-.71.19-1.13-.06-.78-.19-1.11c-.12-.33-.31-.59-.55-.78-.25-.19-.55-.29-.92-.29s-.65.09-.89.27c-.24.18-.43.44-.55.76-.12.33-.19.71-.19,1.14Z"/>
  <line class="cls-4" x1="70.13" y1="89.34" x2="79.43" y2="59.32"/>
  <line class="cls-4" x1="100.17" y1="96.77" x2="102.47" y2="89.34"/>
  <line class="cls-4" x1="55.21" y1="137.5" x2="64.63" y2="107.47"/>
  <g>
    <line class="cls-5" x1="85.48" y1="144.29" x2="86.08" y2="142.38"/>
    <line class="cls-5" x1="86.76" y1="140.22" x2="87.35" y2="138.31"/>
  </g>
  <line class="cls-5" x1="64.35" y1="108" x2="70.13" y2="89.34"/>
  <polyline class="cls-5" points="85.65 143.64 72.17 187.14 53.14 144.17 55.21 137.5"/>
  <line class="cls-5" x1="100.57" y1="95.48" x2="87.45" y2="137.83"/>
  <polyline class="cls-5" points="79.43 59.32 96.53 3.29 115.56 46.26 102.47 89.34"/>
  <line class="cls-5" x1="79.43" y1="59.32" x2="102.47" y2="89.34"/>
  <line class="cls-5" x1="64.63" y1="107.47" x2="87.67" y2="137.5"/>
</svg>