<?xml version="1.0" encoding="UTF-8"?>
<svg id="Layer_1" data-name="Layer 1" xmlns="http://www.w3.org/2000/svg" viewBox="0 0 173 91.72">
  <defs>
    <style>
      .cls-1 {
        fill: #fff;
      }

      .cls-2 {
        fill: #d1ae59;
        opacity: .3;
      }

      .cls-2, .cls-3 {
        stroke: #d1ae59;
        stroke-miterlimit: 10;
        stroke-width: 2px;
      }

      .cls-3 {
        fill: none;
      }
    </style>
  </defs>
  <polygon class="cls-2" points="126.15 42.33 3.03 42.33 46.85 1.17 169.97 1.17 126.15 42.33"/>
  <polygon class="cls-3" points="125.71 42.33 2.59 42.33 46.41 1.17 169.53 1.17 125.71 42.33"/>
  <polygon class="cls-2" points="125.93 90.49 2.81 90.49 46.63 49.32 169.75 49.32 125.93 90.49"/>
  <polygon class="cls-3" points="125.49 90.49 2.37 90.49 46.19 49.32 169.31 49.32 125.49 90.49"/>
  <path class="cls-1" d="m67.49,82.61c-.41,0-.79-.08-1.12-.23-.33-.16-.6-.38-.79-.68-.2-.3-.29-.66-.29-1.09,0-.37.07-.67.21-.91.14-.24.33-.43.58-.57.24-.14.51-.24.81-.32s.6-.12.91-.16c.39-.04.71-.08.96-.11.24-.03.42-.08.53-.15.11-.07.17-.18.17-.33v-.03c0-.37-.1-.66-.31-.87-.21-.2-.52-.31-.93-.31s-.77.09-1.01.28c-.25.19-.42.4-.51.63l-1.2-.27c.14-.4.35-.72.62-.97.27-.25.59-.42.95-.54.36-.11.73-.17,1.13-.17.26,0,.54.03.83.09.29.06.57.17.83.33.26.16.47.39.63.69.17.3.25.69.25,1.17v4.35h-1.24v-.89h-.05c-.08.16-.21.33-.37.49-.17.16-.38.29-.63.4-.26.1-.57.16-.93.16Zm.28-1.02c.35,0,.65-.07.91-.21.25-.14.44-.32.58-.55.13-.23.2-.47.2-.73v-.84s-.13.09-.26.12c-.13.04-.28.07-.44.1-.17.03-.33.05-.48.07s-.29.04-.39.05c-.25.03-.47.08-.68.16s-.37.18-.49.32c-.12.14-.18.32-.18.55,0,.32.12.55.35.71.23.16.53.24.89.24Z"/>
  <path class="cls-1" d="m67.78,37.85c-.63,0-1.18-.14-1.63-.43-.46-.29-.81-.69-1.05-1.2-.25-.51-.37-1.09-.37-1.75s.12-1.25.38-1.76.6-.91,1.06-1.2.99-.43,1.61-.43c.5,0,.94.09,1.33.28.39.18.7.44.94.77.24.33.38.71.43,1.16h-1.24c-.07-.31-.22-.57-.47-.79-.24-.22-.57-.33-.97-.33-.36,0-.67.09-.93.28-.27.19-.47.45-.62.79-.15.34-.22.75-.22,1.21s.07.89.22,1.24.35.62.62.81.58.29.94.29c.24,0,.46-.04.66-.13.2-.09.36-.22.5-.39s.23-.37.28-.61h1.24c-.04.42-.18.8-.41,1.13-.23.33-.54.59-.92.78s-.84.29-1.35.29Z"/>
  <path class="cls-1" d="m93.14,83.29v-8.73h1.27v3.24h.08c.07-.14.18-.29.32-.47.14-.18.33-.34.58-.47.25-.13.57-.2.98-.2.53,0,1,.13,1.41.4.42.27.74.65.98,1.16s.36,1.11.36,1.82-.12,1.31-.35,1.82-.56.89-.97,1.16-.88.41-1.41.41c-.4,0-.72-.07-.97-.2s-.45-.29-.59-.47c-.14-.18-.25-.34-.33-.48h-.11v1.02h-1.24Zm1.25-3.27c0,.46.07.86.2,1.21.13.35.33.62.58.81.25.2.56.29.93.29s.7-.1.96-.3.45-.48.58-.83c.13-.35.2-.74.2-1.18s-.06-.82-.19-1.16c-.13-.34-.32-.61-.58-.81-.26-.2-.58-.3-.96-.3s-.68.09-.93.29c-.25.19-.45.46-.58.8s-.2.74-.2,1.19Z"/>
  <path class="cls-1" d="m96.32,37.72c-.53,0-1-.14-1.41-.41s-.74-.66-.97-1.16-.35-1.11-.35-1.82.12-1.31.36-1.82.56-.89.98-1.16c.41-.27.88-.4,1.41-.4.41,0,.73.07.98.2.25.14.44.29.58.47.14.18.25.34.32.47h.08v-3.24h1.28v8.73h-1.24v-1.02h-.11c-.08.14-.19.3-.33.48s-.34.33-.59.47-.57.2-.97.2Zm.28-1.09c.37,0,.68-.1.93-.29.25-.19.45-.46.58-.81.13-.35.2-.75.2-1.21s-.06-.85-.2-1.19-.32-.61-.58-.8c-.25-.19-.56-.29-.94-.29s-.7.1-.96.3c-.26.2-.45.47-.58.81-.13.34-.19.73-.19,1.16s.07.83.2,1.18c.13.35.32.63.58.83s.57.3.95.3Z"/>
  <line class="cls-3" x1="55.86" y1="54.5" x2="120.37" y2="80.79"/>
  <line class="cls-3" x1="119.16" y1="54.7" x2="44.73" y2="77.96"/>
  <line class="cls-3" x1="58.31" y1="8.73" x2="122.83" y2="35.02"/>
  <line class="cls-3" x1="121.62" y1="8.93" x2="47.19" y2="32.19"/>
</svg>