<?xml version="1.0" encoding="utf-8"?>
<!-- Generator: Adobe Illustrator 27.6.1, SVG Export Plug-In . SVG Version: 6.00 Build 0)  -->
<svg version="1.1" xmlns="http://www.w3.org/2000/svg" xmlns:xlink="http://www.w3.org/1999/xlink" x="0px" y="0px"
	 viewBox="0 0 1890 440.17" style="enable-background:new 0 0 1890 440.17;" xml:space="preserve">
<style type="text/css">
	.st0{fill:none;stroke:#89E7FF;stroke-width:10;stroke-miterlimit:10;}
	.st1{enable-background:new    ;}
	.st2{fill:#CFFFFF;}
	.st3{font-family:'Lato-Thin';}
	.st4{font-size:354.59px;}
	.st5{fill:none;stroke:#CFFFFF;stroke-width:3;stroke-miterlimit:10;}
	.st6{font-family:'MyriadPro-Regular';}
	.st7{font-size:12px;}
</style>
<g id="Layer_1">
	<path class="st0" d="M369.56,118.57h366.89H369.56z"/>
	<path class="st0" d="M737.67,118.57h366.89H737.67L737.67,118.57z"/>
	<path class="st0" d="M1103.92,118.57h366.89H1103.92z"/>
	<path class="st0" d="M370.79,346.08h366.89H370.79L370.79,346.08z"/>
	<line class="st0" x1="369.56" y1="95" x2="369.56" y2="146.24"/>
	<line class="st0" x1="1472.28" y1="92.95" x2="1472.28" y2="144.19"/>
	<line class="st0" x1="1103.34" y1="92.95" x2="1103.34" y2="144.19"/>
	<line class="st0" x1="369.56" y1="320.46" x2="369.56" y2="371.7"/>
	<line class="st0" x1="738.5" y1="320.46" x2="738.5" y2="371.7"/>
	<g>
		<g class="st1">
			<path class="st2" d="M1618.15,257.76c-2.88,0-5.45-0.5-7.7-1.48c-2.25-0.99-4.03-2.37-5.35-4.14c-1.32-1.77-2.03-3.82-2.15-6.17
				h5.5c0.12,1.44,0.61,2.68,1.49,3.72c0.87,1.04,2.02,1.84,3.43,2.41c1.41,0.57,2.98,0.85,4.7,0.85c1.92,0,3.62-0.33,5.11-1
				c1.48-0.67,2.65-1.6,3.49-2.79c0.84-1.19,1.27-2.58,1.27-4.15c0-1.64-0.41-3.1-1.22-4.36c-0.82-1.26-2.01-2.25-3.58-2.96
				c-1.57-0.71-3.49-1.07-5.76-1.07h-3.58v-4.8h3.58c1.78,0,3.34-0.32,4.68-0.96s2.4-1.54,3.17-2.71c0.76-1.16,1.15-2.53,1.15-4.11
				c0-1.51-0.34-2.83-1-3.95c-0.67-1.12-1.61-1.99-2.83-2.62c-1.21-0.63-2.65-0.94-4.29-0.94c-1.54,0-3,0.28-4.36,0.84
				c-1.36,0.56-2.47,1.37-3.33,2.42c-0.86,1.06-1.33,2.33-1.4,3.81h-5.24c0.09-2.34,0.79-4.4,2.12-6.17
				c1.33-1.77,3.06-3.15,5.21-4.14c2.15-0.99,4.51-1.48,7.09-1.48c2.77,0,5.14,0.56,7.12,1.67c1.98,1.11,3.5,2.58,4.56,4.4
				c1.06,1.82,1.59,3.79,1.59,5.9c0,2.52-0.66,4.67-1.98,6.44c-1.32,1.78-3.1,3.01-5.36,3.69v0.35c2.82,0.47,5.03,1.66,6.62,3.59
				s2.38,4.31,2.38,7.15c0,2.43-0.66,4.61-1.98,6.54c-1.32,1.93-3.11,3.45-5.38,4.55C1623.63,257.21,1621.05,257.76,1618.15,257.76z
				"/>
			<path class="st2" d="M1656.75,257.76c-3.29,0-6.09-0.9-8.41-2.7c-2.31-1.8-4.08-4.41-5.31-7.84c-1.22-3.43-1.83-7.57-1.83-12.44
				c0-4.83,0.61-8.96,1.84-12.39c1.23-3.43,3.01-6.05,5.33-7.86c2.32-1.81,5.11-2.72,8.37-2.72s6.05,0.91,8.37,2.72
				c2.32,1.81,4.1,4.43,5.33,7.86c1.23,3.43,1.84,7.56,1.84,12.39c0,4.86-0.61,9.01-1.83,12.44c-1.22,3.43-2.99,6.04-5.31,7.84
				C1662.85,256.86,1660.04,257.76,1656.75,257.76z M1656.75,252.96c3.26,0,5.79-1.57,7.6-4.72c1.81-3.14,2.71-7.63,2.71-13.45
				c0-3.87-0.41-7.17-1.23-9.89c-0.82-2.72-2-4.8-3.54-6.22s-3.38-2.14-5.54-2.14c-3.23,0-5.76,1.59-7.58,4.77
				c-1.82,3.18-2.73,7.68-2.73,13.48c0,3.87,0.41,7.16,1.22,9.87s1.99,4.77,3.53,6.18C1652.73,252.25,1654.59,252.96,1656.75,252.96
				z"/>
			<path class="st2" d="M1697.98,257.15v-33.54h5.15v14.59h3.41l12.05-14.59h6.64l-13.54,16.16l13.71,17.38h-6.64l-11-14.15h-4.63
				v14.15H1697.98z"/>
			<path class="st2" d="M1740.87,257.94c-2.12,0-4.05-0.4-5.79-1.21s-3.11-1.98-4.13-3.52c-1.02-1.54-1.53-3.4-1.53-5.58
				c0-1.92,0.38-3.48,1.13-4.68s1.77-2.14,3.04-2.83c1.27-0.68,2.67-1.2,4.2-1.54c1.54-0.34,3.08-0.62,4.64-0.82
				c2.04-0.26,3.69-0.46,4.97-0.6c1.27-0.14,2.21-0.37,2.79-0.71s0.88-0.92,0.88-1.75v-0.17c0-2.15-0.59-3.83-1.76-5.02
				c-1.17-1.19-2.94-1.79-5.32-1.79c-2.46,0-4.39,0.54-5.79,1.62c-1.4,1.08-2.38,2.23-2.95,3.45l-4.89-1.75
				c0.87-2.04,2.04-3.63,3.5-4.77s3.06-1.94,4.8-2.4c1.74-0.46,3.45-0.69,5.14-0.69c1.08,0,2.32,0.13,3.72,0.38
				c1.4,0.25,2.77,0.78,4.08,1.56s2.41,1.97,3.29,3.56s1.31,3.71,1.31,6.38v22.1h-5.15v-4.54h-0.26c-0.35,0.73-0.93,1.51-1.75,2.34
				c-0.82,0.83-1.9,1.54-3.25,2.12S1742.82,257.94,1740.87,257.94z M1741.65,253.31c2.04,0,3.76-0.4,5.16-1.2
				c1.41-0.8,2.47-1.83,3.19-3.1s1.08-2.6,1.08-4v-4.72c-0.22,0.26-0.7,0.5-1.43,0.71s-1.58,0.39-2.53,0.55
				c-0.95,0.15-1.88,0.28-2.77,0.39c-0.9,0.11-1.62,0.2-2.17,0.27c-1.34,0.17-2.59,0.46-3.75,0.84s-2.09,0.96-2.79,1.72
				s-1.06,1.8-1.06,3.11c0,1.79,0.67,3.14,2,4.05C1737.91,252.85,1739.6,253.31,1741.65,253.31z"/>
			<path class="st2" d="M1765.67,269.73v-46.12h4.98v5.33h0.61c0.38-0.58,0.91-1.33,1.58-2.24c0.68-0.91,1.65-1.72,2.93-2.45
				c1.27-0.72,3-1.08,5.19-1.08c2.82,0,5.31,0.71,7.47,2.12s3.84,3.41,5.04,6s1.81,5.65,1.81,9.17c0,3.55-0.6,6.63-1.81,9.23
				s-2.88,4.61-5.02,6.03c-2.14,1.42-4.61,2.13-7.4,2.13c-2.15,0-3.88-0.36-5.17-1.08s-2.29-1.54-2.99-2.47
				c-0.7-0.92-1.24-1.69-1.62-2.3h-0.44v17.73H1765.67z M1770.74,240.38c0,2.53,0.37,4.76,1.11,6.69s1.83,3.44,3.25,4.52
				c1.43,1.08,3.17,1.63,5.24,1.63c2.15,0,3.96-0.57,5.4-1.71s2.54-2.69,3.28-4.63s1.1-4.11,1.1-6.5c0-2.36-0.36-4.49-1.08-6.39
				c-0.72-1.9-1.8-3.41-3.25-4.52c-1.45-1.11-3.26-1.67-5.45-1.67c-2.1,0-3.86,0.53-5.28,1.58c-1.43,1.06-2.5,2.53-3.23,4.41
				C1771.1,235.68,1770.74,237.88,1770.74,240.38z"/>
			<path class="st2" d="M1806.9,257.5c-1.08,0-2-0.39-2.77-1.16s-1.16-1.7-1.16-2.77s0.39-2,1.16-2.77c0.77-0.77,1.7-1.16,2.77-1.16
				s2,0.39,2.77,1.16c0.77,0.77,1.16,1.7,1.16,2.77c0,0.71-0.18,1.37-0.54,1.96c-0.36,0.6-0.83,1.07-1.42,1.43
				C1808.29,257.32,1807.63,257.5,1806.9,257.5z"/>
		</g>
	</g>
	<text transform="matrix(1 0 0 1 1493.41 346.83)" class="st2 st3 st4">}</text>
	<text transform="matrix(1 0 0 1 1493.41 346.83)" class="st5 st3 st4">}</text>
	<text transform="matrix(1 0 0 1 88.292 130.2134)" class="st6 st7">Lorem ipsum</text>
</g>
<g id="Layer_2">
</g>
</svg>
