<?xml version="1.0" encoding="UTF-8"?>
<svg id="Layer_1" data-name="Layer 1" xmlns="http://www.w3.org/2000/svg" viewBox="0 0 1890 440.17">
  <defs>
    <style>
      .cls-1, .cls-2 {
        fill: #fff;
      }

      .cls-1, .cls-2, .cls-3 {
        stroke: #fff;
        stroke-miterlimit: 10;
      }

      .cls-1, .cls-3 {
        stroke-width: 10px;
      }

      .cls-2 {
        font-family: Lato-Thin, Lato;
        font-size: 354.59px;
        font-weight: 200;
        stroke-width: 3px;
      }

      .cls-4, .cls-5 {
        font-family: Inter-Medium, Inter;
        font-variation-settings: 'wght' 500, 'slnt' 0;
        font-weight: 500;
      }

      .cls-4, .cls-6 {
        fill: #d1ae59;
        font-size: 61.49px;
      }

      .cls-3 {
        fill: none;
      }

      .cls-7 {
        font-family: SourceSerifRoman-Semibold, 'Source Serif Variable';
        font-variation-settings: 'wght' 600;
        font-weight: 600;
      }
    </style>
  </defs>
  <path class="cls-3" d="m369.56,118.57h366.89-366.89Z"/>
  <path class="cls-3" d="m737.67,118.57h366.89-366.89Z"/>
  <path class="cls-3" d="m1103.92,118.57h366.89-366.89Z"/>
  <path class="cls-3" d="m370.79,346.08h366.89-366.89Z"/>
  <line class="cls-3" x1="369.56" y1="95" x2="369.56" y2="146.24"/>
  <line class="cls-1" x1="1472.28" y1="92.95" x2="1472.28" y2="144.19"/>
  <line class="cls-3" x1="736.45" y1="95" x2="736.45" y2="146.24"/>
  <line class="cls-3" x1="1103.34" y1="92.95" x2="1103.34" y2="144.19"/>
  <line class="cls-3" x1="369.56" y1="320.46" x2="369.56" y2="371.7"/>
  <line class="cls-3" x1="738.5" y1="320.46" x2="738.5" y2="371.7"/>
  <text class="cls-4" transform="translate(805.23 60.1)"><tspan x="0" y="0">3 части</tspan></text>
  <text class="cls-4" transform="translate(444.74 313.41)"><tspan x="0" y="0">1 часть</tspan></text>
  <text class="cls-4" transform="translate(1598.41 257.15)"><tspan x="0" y="0">120 книг</tspan></text>
  <text class="cls-6" transform="translate(73.87 138.66)"><tspan class="cls-7" x="0" y="0">I</tspan><tspan class="cls-5" x="23.3" y="0" xml:space="preserve"> полка</tspan></text>
  <text class="cls-6" transform="translate(27.72 363.41)"><tspan class="cls-7" x="0" y="0">II</tspan><tspan class="cls-5" x="46.61" y="0" xml:space="preserve"> полка</tspan></text>
  <text class="cls-2" transform="translate(1493.41 346.83)"><tspan x="0" y="0">}</tspan></text>
</svg>