<?xml version="1.0" encoding="UTF-8"?>
<svg id="Layer_1" data-name="Layer 1" xmlns="http://www.w3.org/2000/svg" viewBox="0 0 106.72 77">
  <defs>
    <style>
      .cls-1 {
        fill: #fff;
      }

      .cls-2 {
        stroke-dasharray: 0 0 3.95 2.96;
      }

      .cls-2, .cls-3 {
        fill: none;
        stroke: #d1ae59;
        stroke-miterlimit: 10;
        stroke-width: 2px;
      }

      .cls-4 {
        fill: #d1ae59;
      }
    </style>
  </defs>
  <path class="cls-1" d="m1.5,76.72H0l3.63-10.03h1.75l3.63,10.03h-1.75l-2.76-8.27h-.13l-2.88,8.27Zm.38-3.89h5.26v1.25H1.88v-1.25Z"/>
  <path class="cls-1" d="m58.58,7.46h2.01l3.48,8.5h.13l3.48-8.5h2.01v10.94h-1.57v-7.92h-.1l-3.22,7.9h-1.3l-3.22-7.91h-.1v7.92h-1.57V7.44h-.03Z"/>
  <path class="cls-1" d="m50.7,76.71v-10.94h4.01c.78,0,1.42.13,1.93.38.51.25.89.6,1.14,1.03s.38.92.38,1.46c0,.46-.08.84-.25,1.15-.17.31-.39.56-.67.75-.28.19-.59.32-.92.41v.11c.36.02.72.13,1.07.35.35.21.63.52.86.92.23.39.34.88.34,1.44s-.13,1.06-.39,1.5-.67.79-1.21,1.05c-.54.26-1.24.39-2.09.39h-4.19Zm1.65-6.21h2.21c.37,0,.7-.07,1-.21.3-.14.53-.34.71-.6.18-.26.26-.56.26-.92,0-.45-.16-.83-.48-1.14-.32-.31-.8-.46-1.46-.46h-2.25v3.33Zm0,4.79h2.38c.79,0,1.36-.15,1.7-.46.34-.31.51-.69.51-1.15,0-.34-.09-.66-.26-.95s-.42-.52-.75-.69-.7-.26-1.15-.26h-2.44v3.5Z"/>
  <path class="cls-1" d="m106.72,69.09h-1.67c-.06-.36-.18-.67-.36-.94s-.39-.5-.64-.69c-.25-.19-.54-.33-.85-.43-.31-.1-.64-.14-.99-.14-.63,0-1.19.16-1.69.48-.5.32-.89.78-1.17,1.39-.29.61-.43,1.36-.43,2.24s.14,1.64.43,2.25c.29.61.68,1.08,1.18,1.39.5.31,1.06.47,1.68.47.34,0,.67-.05.99-.14s.59-.23.85-.42c.25-.19.47-.41.64-.68.18-.27.3-.58.37-.93h1.67c-.09.54-.26,1.04-.52,1.49-.25.45-.58.84-.98,1.17-.4.33-.85.58-1.36.76-.51.18-1.06.27-1.67.27-.95,0-1.79-.22-2.53-.68-.74-.45-1.32-1.1-1.75-1.94-.43-.84-.64-1.84-.64-3.01s.21-2.17.64-3.01c.43-.84,1.01-1.48,1.75-1.93.74-.45,1.58-.68,2.53-.68.58,0,1.12.08,1.63.25.5.17.96.41,1.36.73s.74.71,1,1.16c.26.46.44.98.53,1.57Z"/>
  <polyline class="cls-3" points="4.51 59.57 53.4 59.57 102.3 59.57"/>
  <line class="cls-3" x1="53.4" y1="59.57" x2="53.4"/>
  <circle class="cls-4" cx="4.51" cy="59.57" r="2.87"/>
  <circle class="cls-4" cx="102.3" cy="59.57" r="2.87"/>
  <circle class="cls-4" cx="53.4" cy="59.57" r="2.87"/>
  <circle class="cls-4" cx="53.4" cy="21.04" r="2.87"/>
  <g>
    <line class="cls-3" x1="53.4" y1="21.04" x2="54.98" y2="22.28"/>
    <line class="cls-2" x1="57.3" y1="24.11" x2="99.56" y2="57.42"/>
    <line class="cls-3" x1="100.73" y1="58.33" x2="102.3" y2="59.57"/>
  </g>
  <g>
    <line class="cls-3" x1="4.51" y1="59.57" x2="6.08" y2="58.33"/>
    <line class="cls-2" x1="8.41" y1="56.5" x2="50.67" y2="23.19"/>
    <line class="cls-3" x1="51.83" y1="22.28" x2="53.4" y2="21.04"/>
  </g>
  <line class="cls-3" x1="77.85" y1="56.7" x2="77.85" y2="63"/>
  <line class="cls-3" x1="28.96" y1="56.42" x2="28.96" y2="62.72"/>
</svg>