<?xml version="1.0" encoding="UTF-8"?>
<svg id="Layer_1" data-name="Layer 1" xmlns="http://www.w3.org/2000/svg" viewBox="0 0 232.71 117">
  <defs>
    <style>
      .cls-1 {
        fill: #fff;
      }

      .cls-2 {
        stroke-dasharray: 0 0 4 3;
      }

      .cls-2, .cls-3, .cls-4 {
        stroke: #d1ae59;
        stroke-miterlimit: 10;
        stroke-width: 2px;
      }

      .cls-2, .cls-4 {
        fill: none;
      }

      .cls-3 {
        fill: #d1ae59;
        opacity: .3;
      }
    </style>
  </defs>
  <polygon class="cls-3" points="175.95 104.03 2.91 104.26 56.8 53.5 229.84 53.27 175.95 104.03"/>
  <polygon class="cls-4" points="176.15 103.76 2.37 104.26 56.4 53.5 230.18 53 176.15 103.76"/>
  <path class="cls-1" d="m61.98,37.7c-.59,0-1.12-.11-1.59-.33-.48-.22-.85-.54-1.13-.96-.28-.42-.41-.93-.41-1.54,0-.52.1-.95.3-1.29.2-.34.47-.61.81-.8s.72-.35,1.15-.45c.42-.1.85-.18,1.29-.23.55-.06,1.01-.12,1.35-.16.35-.04.6-.11.75-.21.16-.1.24-.25.24-.47v-.04c0-.53-.15-.94-.44-1.23s-.74-.43-1.32-.43-1.09.13-1.43.4c-.35.27-.59.56-.72.89l-1.7-.39c.2-.56.5-1.02.88-1.37.39-.35.84-.6,1.34-.76.51-.16,1.04-.24,1.6-.24.37,0,.76.04,1.18.13.42.09.81.24,1.17.47s.66.56.9.98.35.97.35,1.65v6.16h-1.76v-1.27h-.07c-.12.23-.29.46-.52.69-.23.22-.53.41-.9.56-.37.15-.8.22-1.32.22Zm.39-1.45c.5,0,.93-.1,1.28-.3.36-.2.63-.46.82-.78.19-.32.28-.66.28-1.03v-1.2c-.06.06-.19.12-.37.18-.18.05-.39.1-.62.14s-.46.07-.68.1c-.22.03-.41.06-.56.08-.35.04-.67.12-.96.22s-.52.25-.69.45c-.17.2-.26.45-.26.78,0,.45.17.78.5,1.01s.75.34,1.26.34Z"/>
  <path class="cls-1" d="m104.39,35.16v-12.36h1.8v4.59h.11c.1-.19.25-.42.45-.67.2-.25.47-.48.82-.67.35-.19.81-.29,1.39-.29.75,0,1.42.19,2,.57.59.38,1.05.92,1.39,1.64.34.71.5,1.57.5,2.57s-.17,1.86-.5,2.57c-.33.71-.79,1.26-1.38,1.65-.58.38-1.25.58-2,.58-.56,0-1.02-.09-1.38-.28-.36-.19-.63-.41-.84-.66-.2-.25-.36-.48-.46-.68h-.15v1.44h-1.76Zm1.77-4.64c0,.65.09,1.22.28,1.71.19.49.46.87.82,1.15.36.28.8.41,1.32.41s.99-.14,1.35-.43.64-.68.82-1.17c.19-.5.28-1.05.28-1.67s-.09-1.16-.27-1.65c-.18-.49-.46-.87-.82-1.15-.36-.28-.82-.42-1.36-.42s-.96.13-1.33.4c-.36.27-.63.65-.82,1.13-.19.48-.28,1.05-.28,1.69Z"/>
  <polyline class="cls-4" points="52.44 9.37 54.26 74.3 54.68 81.83 113.06 100.47"/>
  <line class="cls-2" x1="54.68" y1="81.61" x2="55.31" y2="104.26"/>
  <line class="cls-2" x1="99.42" y1="70.88" x2="100.35" y2="104.26"/>
  <line class="cls-4" x1="55.31" y1="103.57" x2="55.69" y2="117"/>
  <line class="cls-4" x1="100.35" y1="103.98" x2="100.72" y2="117"/>
  <polyline class="cls-4" points="54.26 74.3 62.1 76.14 62.41 83.7"/>
  <polyline class="cls-4" points="97.18 0 98.96 63.54 99.38 71.07 157.76 85.65"/>
  <polyline class="cls-4" points="98.96 63.54 106.8 65.39 107.11 72.95"/>
</svg>