<?xml version="1.0" encoding="UTF-8"?>
<svg id="Layer_1" data-name="Layer 1" xmlns="http://www.w3.org/2000/svg" viewBox="0 0 267.22 117">
  <defs>
    <style>
      .cls-1 {
        fill: #fff;
      }

      .cls-2 {
        stroke-dasharray: 0 0 4 3;
      }

      .cls-2, .cls-3, .cls-4 {
        stroke: #d1ae59;
        stroke-miterlimit: 10;
        stroke-width: 2px;
      }

      .cls-2, .cls-4 {
        fill: none;
      }

      .cls-3 {
        fill: #d1ae59;
        opacity: .3;
      }
    </style>
  </defs>
  <polygon class="cls-3" points="195.5 100.81 3.06 100.81 71.55 36.3 263.99 36.3 195.5 100.81"/>
  <polygon class="cls-4" points="195.32 100.81 2.37 100.81 71.04 36.3 263.99 36.3 195.32 100.81"/>
  <path class="cls-1" d="m124.5,26.63c-.59,0-1.12-.11-1.59-.33-.48-.22-.85-.54-1.13-.96-.28-.42-.41-.93-.41-1.54,0-.52.1-.95.3-1.29.2-.34.47-.61.81-.8s.72-.35,1.15-.45c.42-.1.85-.18,1.29-.23.55-.06,1.01-.12,1.35-.16.35-.04.6-.11.75-.21.16-.1.24-.25.24-.47v-.04c0-.53-.15-.94-.44-1.23s-.74-.43-1.32-.43-1.09.13-1.43.4c-.35.27-.59.56-.72.89l-1.7-.39c.2-.56.5-1.02.88-1.37.39-.35.84-.6,1.34-.76.51-.16,1.04-.24,1.6-.24.37,0,.76.04,1.18.13.42.09.81.24,1.17.47s.66.56.9.98.35.97.35,1.65v6.16h-1.76v-1.27h-.07c-.12.23-.29.46-.52.69-.23.22-.53.41-.9.56-.37.15-.8.22-1.32.22Zm.39-1.45c.5,0,.93-.1,1.28-.3.36-.2.63-.46.82-.78.19-.32.28-.66.28-1.03v-1.2c-.06.06-.19.12-.37.18-.18.05-.39.1-.62.14s-.46.07-.68.1c-.22.03-.41.06-.56.08-.35.04-.67.12-.96.22s-.52.25-.69.45c-.17.2-.26.45-.26.78,0,.45.17.78.5,1.01s.75.34,1.26.34Z"/>
  <line class="cls-4" x1="82.36" y1="46.84" x2="183.63" y2="90.28"/>
  <line class="cls-4" x1="199.85" y1="46.07" x2="81.34" y2="89.25"/>
  <line class="cls-4" x1="133.18" y1=".32" x2="135.35" y2="69.57"/>
  <line class="cls-4" x1="136.37" y1="101.84" x2="136.84" y2="117"/>
  <line class="cls-2" x1="135.35" y1="69.57" x2="136.31" y2="99.95"/>
  <polyline class="cls-4" points="142.22 67.23 142.22 59 135.11 61.7 128.5 58.15 128.5 66.63"/>
</svg>