<?xml version="1.0" encoding="UTF-8"?>
<svg id="Layer_2" data-name="Layer 2" xmlns="http://www.w3.org/2000/svg" viewBox="0 0 155.5 114.5">
  <defs>
    <style>
      .cls-1 {
        fill: #fff;
      }
    </style>
  </defs>
  <g>
    <g>
      <path class="cls-1" d="m4.59,21.07c-.9,0-1.67-.2-2.32-.61-.64-.41-1.14-.97-1.49-1.69-.35-.72-.52-1.55-.52-2.48s.18-1.77.53-2.5c.35-.72.85-1.29,1.5-1.69.64-.41,1.4-.61,2.28-.61.7,0,1.33.13,1.88.39.55.26,1,.62,1.34,1.09.34.47.54,1.01.61,1.64h-1.76c-.1-.43-.32-.81-.66-1.12s-.8-.47-1.38-.47c-.5,0-.94.13-1.32.4-.38.26-.67.64-.88,1.12-.21.49-.31,1.06-.31,1.72s.1,1.26.31,1.75c.21.49.5.87.87,1.14.38.27.82.4,1.33.4.34,0,.65-.06.93-.19.28-.13.51-.31.71-.55s.33-.52.4-.86h1.76c-.06.6-.26,1.14-.59,1.61s-.76.84-1.31,1.11-1.18.4-1.92.4Z"/>
      <path class="cls-1" d="m14.24,21.07c-.87,0-1.63-.2-2.28-.6s-1.15-.96-1.51-1.67c-.36-.72-.54-1.55-.54-2.51s.18-1.8.54-2.52c.36-.72.86-1.28,1.51-1.68s1.41-.6,2.28-.6,1.63.2,2.28.6c.65.4,1.15.96,1.51,1.68.36.72.54,1.56.54,2.52s-.18,1.8-.54,2.51c-.36.72-.86,1.27-1.51,1.67-.65.4-1.41.6-2.28.6Zm0-1.52c.56,0,1.03-.15,1.4-.45.37-.3.64-.69.82-1.19.18-.49.27-1.04.27-1.64s-.09-1.14-.27-1.63c-.18-.5-.45-.9-.82-1.2-.37-.3-.84-.45-1.4-.45s-1.04.15-1.41.45c-.37.3-.65.7-.83,1.2-.18.5-.27,1.04-.27,1.63s.09,1.14.27,1.64c.18.5.46.89.83,1.19.37.3.84.45,1.41.45Z"/>
      <path class="cls-1" d="m27.52,13.88l-1.63.29c-.07-.21-.18-.41-.32-.6-.15-.19-.35-.34-.59-.46-.25-.12-.56-.18-.94-.18-.51,0-.94.11-1.28.34s-.51.52-.51.88c0,.31.11.56.34.75.23.19.6.34,1.11.46l1.47.34c.85.2,1.49.5,1.91.91.42.41.63.94.63,1.6,0,.56-.16,1.05-.48,1.48s-.76.77-1.33,1.02-1.23.37-1.98.37c-1.04,0-1.89-.22-2.54-.67-.66-.44-1.06-1.08-1.21-1.9l1.75-.27c.11.45.33.8.67,1.03s.78.35,1.32.35c.59,0,1.06-.12,1.42-.37s.53-.55.53-.91c0-.29-.11-.53-.32-.73-.22-.2-.54-.35-.99-.45l-1.57-.34c-.87-.2-1.51-.51-1.92-.94s-.62-.98-.62-1.64c0-.55.15-1.03.46-1.44.31-.41.73-.73,1.27-.96.54-.23,1.16-.35,1.85-.35,1,0,1.79.22,2.37.65s.96,1.01,1.14,1.74Z"/>
      <path class="cls-1" d="m30.21,15.76c0-1.51.2-2.91.6-4.18.4-1.27.98-2.44,1.75-3.52h1.65c-.3.4-.58.89-.83,1.47s-.48,1.21-.68,1.9c-.19.69-.34,1.4-.45,2.14-.11.74-.16,1.47-.16,2.18,0,.96.09,1.93.28,2.91s.45,1.89.77,2.73c.32.84.68,1.53,1.08,2.06h-1.65c-.77-1.07-1.35-2.25-1.75-3.52-.4-1.27-.6-2.67-.6-4.18Z"/>
      <path class="cls-1" d="m42.03,11.61l2.05,3.61,2.06-3.61h1.97l-2.89,4.64,2.91,4.64h-1.97l-2.09-3.47-2.08,3.47h-1.98l2.89-4.64-2.85-4.64h1.98Z"/>
      <path class="cls-1" d="m54.85,16.83v-1.62h8.16v1.62h-8.16Zm3.27,3.27v-8.16h1.62v8.16h-1.62Z"/>
      <path class="cls-1" d="m100.79,15.76c0,1.52-.2,2.91-.6,4.18-.4,1.27-.98,2.44-1.74,3.52h-1.65c.3-.4.57-.89.83-1.47.26-.58.48-1.21.68-1.9s.35-1.41.45-2.15c.11-.74.16-1.47.16-2.19,0-.95-.1-1.92-.29-2.9s-.44-1.89-.77-2.73c-.32-.84-.68-1.53-1.07-2.06h1.65c.76,1.07,1.35,2.25,1.74,3.52.4,1.27.6,2.66.6,4.18Z"/>
      <path class="cls-1" d="m108.83,14.95v-1.59h7.73v1.59h-7.73Zm0,3.72v-1.59h7.73v1.59h-7.73Z"/>
      <path class="cls-1" d="m131.02,13.88l-1.64.29c-.07-.21-.18-.41-.32-.6-.15-.19-.35-.34-.6-.46-.25-.12-.56-.18-.94-.18-.51,0-.94.11-1.28.34s-.51.52-.51.88c0,.31.12.56.34.75.23.19.6.34,1.11.46l1.47.34c.85.2,1.49.5,1.91.91s.63.94.63,1.6c0,.56-.16,1.05-.48,1.48-.32.43-.77.77-1.33,1.02-.57.25-1.23.37-1.98.37-1.04,0-1.88-.22-2.54-.67s-1.06-1.08-1.21-1.9l1.74-.27c.11.45.33.8.67,1.03s.78.35,1.32.35c.59,0,1.06-.12,1.42-.37.36-.25.53-.55.53-.91,0-.29-.11-.53-.32-.73-.21-.2-.54-.35-.99-.45l-1.57-.34c-.87-.2-1.5-.51-1.92-.94s-.62-.98-.62-1.64c0-.55.15-1.03.46-1.44.3-.41.73-.73,1.27-.96s1.16-.35,1.85-.35c1,0,1.79.22,2.37.65.58.43.96,1.01,1.14,1.74Z"/>
      <path class="cls-1" d="m134.09,10.18c-.31,0-.58-.11-.8-.32-.22-.21-.34-.46-.34-.76s.11-.55.34-.76c.22-.21.49-.32.8-.32s.58.11.81.32c.22.21.33.46.33.76s-.11.55-.33.76-.49.32-.81.32Zm-.91,10.7v-9.27h1.8v9.27h-1.8Z"/>
      <path class="cls-1" d="m139.22,15.38v5.51h-1.8v-9.27h1.73v1.51h.12c.21-.49.55-.89,1-1.18.46-.3,1.04-.45,1.73-.45.63,0,1.19.13,1.66.4s.84.65,1.11,1.17c.26.52.39,1.16.39,1.93v5.9h-1.81v-5.68c0-.67-.17-1.2-.53-1.58-.35-.38-.83-.57-1.44-.57-.42,0-.79.09-1.12.27-.32.18-.58.45-.77.79s-.28.77-.28,1.26Z"/>
      <path class="cls-1" d="m148.99,11.61l2.05,3.61,2.06-3.61h1.97l-2.89,4.64,2.91,4.64h-1.97l-2.09-3.47-2.08,3.47h-1.98l2.89-4.64-2.85-4.64h1.98Z"/>
    </g>
    <g>
      <path class="cls-1" d="m74.16,13.45c-.83,0-1.57-.14-2.22-.43-.65-.29-1.16-.68-1.54-1.19-.38-.51-.58-1.1-.61-1.77h1.89c.03.37.15.68.37.95.22.27.52.47.88.62.36.15.77.22,1.21.22.49,0,.92-.08,1.29-.25.38-.17.67-.41.88-.71s.32-.66.32-1.05-.11-.78-.32-1.1c-.21-.32-.52-.56-.92-.75-.4-.18-.89-.27-1.46-.27h-1.04v-1.52h1.04c.46,0,.86-.08,1.21-.25s.62-.4.82-.69.29-.64.29-1.04-.09-.72-.26-1c-.17-.28-.41-.51-.72-.67s-.68-.24-1.1-.24-.78.07-1.13.22c-.35.15-.63.36-.85.63s-.33.6-.35.97h-1.8c.02-.67.22-1.25.59-1.76.38-.51.88-.9,1.49-1.19.62-.29,1.31-.43,2.06-.43.79,0,1.48.15,2.06.46.58.31,1.02.72,1.34,1.23.32.51.47,1.07.47,1.68,0,.69-.19,1.28-.58,1.76-.39.48-.9.81-1.55.97v.1c.82.12,1.46.45,1.91.98.45.53.68,1.18.67,1.96,0,.68-.18,1.29-.56,1.83-.38.54-.9.96-1.55,1.27s-1.41.46-2.25.46Z"/>
      <path class="cls-1" d="m89.89,4.01v1.51h-9.51v-1.51h9.51Zm-6.31,0v9.27h-1.78V4.01h1.78Zm3.15,0h1.78v6.77c0,.28.05.49.14.63.1.14.22.24.38.29.15.05.32.08.5.08.13,0,.27-.01.4-.04.13-.02.24-.04.32-.06v1.51c-.15.04-.34.09-.56.14-.22.05-.48.07-.77.07-.65,0-1.17-.19-1.58-.57-.41-.38-.61-1.03-.61-1.94v-6.88Z"/>
      <path class="cls-1" d="m75.8,30.28v-1.35l4.18-4.33c.45-.47.81-.88,1.11-1.24.29-.36.51-.7.65-1.02.14-.32.22-.66.22-1.03,0-.41-.1-.77-.29-1.07s-.46-.53-.79-.69-.71-.25-1.13-.25c-.44,0-.83.09-1.16.27-.33.18-.58.44-.76.77-.18.33-.27.72-.27,1.16h-1.78c0-.75.17-1.41.52-1.97s.82-1,1.43-1.31c.6-.31,1.29-.47,2.06-.47s1.46.15,2.05.46c.59.31,1.06.73,1.39,1.26s.5,1.13.5,1.79c0,.46-.09.91-.26,1.35-.17.44-.47.93-.89,1.46s-1.01,1.19-1.76,1.95l-2.46,2.57v.09h5.57v1.6h-8.14Z"/>
    </g>
    <rect class="cls-1" x="69.38" y="14.75" width="22" height="1.5"/>
  </g>
  <g>
    <g>
      <path class="cls-1" d="m16.11,97.88l-1.64.29c-.07-.21-.18-.41-.32-.6-.15-.19-.35-.34-.6-.46-.25-.12-.56-.18-.94-.18-.51,0-.94.11-1.28.34-.34.23-.51.52-.51.88,0,.31.12.56.34.75.23.19.6.34,1.11.46l1.47.34c.85.2,1.49.5,1.91.91s.63.94.63,1.6c0,.56-.16,1.05-.48,1.48-.32.43-.77.77-1.33,1.02-.57.25-1.23.37-1.98.37-1.04,0-1.88-.22-2.54-.67-.66-.45-1.06-1.08-1.21-1.9l1.74-.27c.11.45.33.8.67,1.03.34.23.78.35,1.32.35.59,0,1.06-.12,1.42-.37.36-.25.53-.55.53-.91,0-.29-.11-.53-.32-.73s-.54-.35-.99-.45l-1.57-.34c-.87-.2-1.5-.51-1.92-.94s-.62-.98-.62-1.64c0-.55.15-1.03.46-1.44.3-.41.73-.73,1.27-.96.54-.23,1.16-.35,1.85-.35,1,0,1.79.22,2.37.65.58.43.96,1.01,1.14,1.74Z"/>
      <path class="cls-1" d="m19.18,94.18c-.31,0-.58-.11-.81-.32s-.33-.46-.33-.76.11-.55.33-.76.49-.32.81-.32.58.11.8.32c.22.21.34.46.34.76s-.11.55-.34.76c-.22.21-.49.32-.8.32Zm-.91,10.7v-9.27h1.8v9.27h-1.8Z"/>
      <path class="cls-1" d="m24.3,99.38v5.51h-1.8v-9.27h1.73v1.51h.12c.21-.49.55-.89,1-1.18.46-.3,1.04-.45,1.73-.45.63,0,1.19.13,1.66.4s.84.66,1.11,1.17c.26.52.39,1.16.39,1.93v5.9h-1.81v-5.68c0-.67-.17-1.2-.53-1.58-.35-.38-.83-.57-1.44-.57-.42,0-.79.09-1.12.27-.32.18-.58.45-.77.79-.19.35-.28.77-.28,1.26Z"/>
      <path class="cls-1" d="m33.18,99.76c0-1.51.2-2.91.6-4.18.4-1.27.98-2.44,1.75-3.52h1.65c-.3.4-.58.89-.83,1.47s-.48,1.21-.68,1.9-.34,1.41-.45,2.14-.16,1.47-.16,2.18c0,.96.09,1.93.28,2.91s.45,1.89.77,2.73c.32.84.68,1.53,1.08,2.06h-1.65c-.77-1.07-1.35-2.25-1.75-3.52s-.6-2.67-.6-4.18Z"/>
      <path class="cls-1" d="m62.55,98.88v1.56h-5.48v-1.56h5.48Z"/>
      <path class="cls-1" d="m70.89,95.62l2.05,3.61,2.06-3.61h1.97l-2.89,4.64,2.92,4.64h-1.97l-2.09-3.47-2.08,3.47h-1.98l2.88-4.64-2.85-4.64h1.98Z"/>
      <path class="cls-1" d="m86.81,99.76c0,1.52-.2,2.91-.6,4.18s-.98,2.45-1.74,3.52h-1.65c.3-.4.57-.89.83-1.47.26-.58.48-1.21.68-1.9s.35-1.41.45-2.15c.11-.74.16-1.47.16-2.19,0-.95-.1-1.92-.29-2.9s-.44-1.89-.77-2.74c-.32-.84-.68-1.53-1.07-2.06h1.65c.76,1.08,1.35,2.25,1.74,3.52.4,1.27.6,2.67.6,4.18Z"/>
      <path class="cls-1" d="m94.85,98.95v-1.59h7.73v1.59h-7.73Zm0,3.72v-1.59h7.73v1.59h-7.73Z"/>
      <path class="cls-1" d="m113.99,105.07c-.9,0-1.67-.2-2.32-.61-.64-.41-1.14-.97-1.49-1.69-.35-.72-.52-1.55-.52-2.48s.18-1.77.53-2.5c.35-.72.85-1.29,1.5-1.69.64-.41,1.4-.61,2.28-.61.7,0,1.33.13,1.88.39.55.26,1,.62,1.34,1.09.34.47.54,1.01.61,1.64h-1.76c-.1-.43-.32-.81-.66-1.12s-.8-.47-1.38-.47c-.5,0-.94.13-1.32.4-.38.26-.67.64-.88,1.12-.21.49-.31,1.06-.31,1.72s.1,1.26.31,1.75c.21.49.5.87.87,1.14.38.27.82.4,1.33.4.34,0,.65-.06.93-.19.28-.13.51-.31.71-.55.19-.24.33-.52.4-.86h1.76c-.06.6-.26,1.14-.59,1.61s-.76.84-1.31,1.11-1.18.4-1.92.4Z"/>
      <path class="cls-1" d="m123.65,105.07c-.87,0-1.63-.2-2.28-.6s-1.15-.96-1.51-1.67c-.36-.72-.54-1.55-.54-2.51s.18-1.8.54-2.52c.36-.72.86-1.28,1.51-1.68s1.41-.6,2.28-.6,1.63.2,2.28.6c.65.4,1.15.96,1.51,1.68.36.72.54,1.56.54,2.52s-.18,1.8-.54,2.51c-.36.72-.86,1.27-1.51,1.67-.65.4-1.41.6-2.28.6Zm0-1.51c.56,0,1.03-.15,1.4-.45.37-.3.64-.7.82-1.19.18-.5.27-1.04.27-1.64s-.09-1.13-.27-1.63c-.18-.5-.45-.9-.82-1.2-.37-.3-.84-.45-1.4-.45s-1.04.15-1.41.45c-.37.3-.65.7-.83,1.2-.18.5-.27,1.04-.27,1.63s.09,1.14.27,1.64c.18.49.46.89.83,1.19.37.3.84.45,1.41.45Z"/>
      <path class="cls-1" d="m136.93,97.88l-1.63.29c-.07-.21-.18-.41-.32-.6-.15-.19-.35-.34-.59-.46-.25-.12-.56-.18-.94-.18-.51,0-.94.11-1.28.34-.34.23-.51.52-.51.88,0,.31.11.56.34.75.23.19.6.34,1.11.46l1.47.34c.85.2,1.49.5,1.91.91.42.41.63.94.63,1.6,0,.56-.16,1.05-.48,1.48s-.76.77-1.33,1.02c-.57.25-1.23.37-1.98.37-1.04,0-1.89-.22-2.54-.67-.66-.45-1.06-1.08-1.21-1.9l1.75-.27c.11.45.33.8.67,1.03.34.23.78.35,1.32.35.59,0,1.06-.12,1.42-.37.35-.25.53-.55.53-.91,0-.29-.11-.53-.32-.73-.22-.2-.54-.35-.99-.45l-1.57-.34c-.87-.2-1.51-.51-1.92-.94s-.62-.98-.62-1.64c0-.55.15-1.03.46-1.44.31-.41.73-.73,1.27-.96.54-.23,1.16-.35,1.85-.35,1,0,1.79.22,2.37.65.58.43.96,1.01,1.14,1.74Z"/>
      <path class="cls-1" d="m140.51,95.62l2.05,3.61,2.06-3.61h1.97l-2.89,4.64,2.92,4.64h-1.97l-2.09-3.47-2.08,3.47h-1.98l2.88-4.64-2.85-4.64h1.98Z"/>
    </g>
    <g>
      <path class="cls-1" d="m50.89,88.01v1.51h-9.51v-1.51h9.51Zm-6.31,0v9.27h-1.78v-9.27h1.78Zm3.15,0h1.78v6.77c0,.28.05.49.14.63.09.14.22.24.37.29.16.05.32.08.51.08.13,0,.27-.01.4-.04.13-.02.24-.04.32-.06v1.51c-.15.04-.34.09-.56.14-.22.05-.48.07-.77.07-.65,0-1.17-.19-1.58-.57-.4-.38-.61-1.03-.61-1.94v-6.88Z"/>
      <path class="cls-1" d="m42.28,114.28v-1.35l4.18-4.33c.45-.47.81-.88,1.11-1.24.29-.36.51-.7.65-1.02.14-.32.22-.66.22-1.03,0-.41-.1-.77-.29-1.07s-.46-.53-.79-.69-.71-.25-1.13-.25c-.44,0-.83.09-1.16.27-.33.18-.58.44-.76.77-.18.33-.27.72-.27,1.16h-1.78c0-.75.17-1.41.52-1.97s.82-1,1.43-1.31c.6-.31,1.29-.47,2.06-.47s1.46.15,2.05.46c.59.31,1.06.73,1.39,1.26s.5,1.13.5,1.79c0,.46-.09.91-.26,1.35-.17.44-.47.93-.89,1.46s-1.01,1.19-1.76,1.95l-2.46,2.57v.09h5.57v1.6h-8.14Z"/>
    </g>
    <rect class="cls-1" x="40.85" y="98.75" width="11" height="1.5"/>
  </g>
  <g>
    <path class="cls-1" d="m16.52,54.25l-1.64.29c-.07-.21-.18-.41-.32-.6-.15-.19-.35-.34-.59-.46-.25-.12-.56-.18-.94-.18-.51,0-.94.11-1.28.34-.34.23-.51.52-.51.88,0,.31.11.56.34.75.23.19.6.34,1.11.46l1.47.34c.85.2,1.49.5,1.91.91.42.41.63.94.63,1.6,0,.56-.16,1.05-.48,1.48-.32.43-.76.77-1.33,1.02-.57.25-1.23.37-1.98.37-1.04,0-1.89-.22-2.54-.67-.66-.45-1.06-1.08-1.21-1.9l1.75-.27c.11.46.33.8.67,1.03s.78.35,1.32.35c.59,0,1.06-.12,1.42-.37.35-.25.53-.55.53-.91,0-.29-.11-.53-.32-.73-.22-.2-.54-.35-.99-.45l-1.57-.34c-.87-.2-1.5-.51-1.92-.94s-.62-.98-.62-1.64c0-.55.15-1.03.46-1.44.31-.41.73-.73,1.27-.96.54-.23,1.16-.35,1.85-.35,1,0,1.79.22,2.37.65.58.43.96,1.01,1.14,1.74Z"/>
    <path class="cls-1" d="m19.59,50.56c-.31,0-.58-.11-.81-.32-.22-.21-.33-.46-.33-.76s.11-.55.33-.76c.22-.21.49-.32.81-.32s.58.11.81.32c.22.21.33.46.33.76s-.11.55-.33.76c-.22.21-.49.32-.81.32Zm-.91,10.7v-9.27h1.8v9.27h-1.8Z"/>
    <path class="cls-1" d="m24.72,55.75v5.51h-1.8v-9.27h1.73v1.51h.11c.21-.49.55-.88,1-1.18.46-.3,1.03-.45,1.73-.45.63,0,1.18.13,1.66.4.47.26.84.66,1.1,1.17.26.52.39,1.16.39,1.93v5.9h-1.81v-5.68c0-.67-.17-1.2-.53-1.58-.35-.38-.83-.57-1.44-.57-.42,0-.79.09-1.11.27-.32.18-.58.45-.77.79-.19.35-.28.77-.28,1.26Z"/>
    <path class="cls-1" d="m33.59,56.13c0-1.51.2-2.91.6-4.18.4-1.27.98-2.45,1.75-3.52h1.65c-.3.4-.58.89-.83,1.47-.26.58-.48,1.21-.68,1.9s-.34,1.41-.45,2.14c-.11.74-.16,1.47-.16,2.18,0,.96.09,1.93.28,2.91.19.98.45,1.89.77,2.73.32.84.68,1.53,1.08,2.06h-1.65c-.76-1.07-1.35-2.25-1.75-3.52-.4-1.27-.6-2.67-.6-4.18Z"/>
    <path class="cls-1" d="m40.92,51.99l2.05,3.61,2.06-3.61h1.97l-2.89,4.64,2.92,4.64h-1.97l-2.09-3.46-2.08,3.46h-1.98l2.89-4.64-2.85-4.64h1.98Z"/>
    <path class="cls-1" d="m53.73,57.2v-1.62h8.16v1.62h-8.16Zm3.27,3.27v-8.16h1.62v8.16h-1.62Z"/>
    <path class="cls-1" d="m78.25,51.99v1.51h-9.51v-1.51h9.51Zm-6.31,0v9.27h-1.78v-9.27h1.78Zm3.15,0h1.78v6.77c0,.28.05.49.14.63.09.14.22.24.37.29.16.05.32.08.5.08.13,0,.27-.01.4-.04.13-.02.24-.04.32-.06v1.51c-.15.04-.34.09-.56.14-.22.05-.48.07-.77.07-.65,0-1.17-.19-1.58-.57-.41-.38-.61-1.03-.61-1.94v-6.88Z"/>
    <path class="cls-1" d="m84.03,56.13c0,1.52-.2,2.91-.6,4.18-.4,1.27-.98,2.45-1.74,3.52h-1.65c.3-.4.58-.89.83-1.47.26-.58.48-1.21.68-1.9s.34-1.41.45-2.15c.11-.74.16-1.47.16-2.19,0-.95-.09-1.92-.28-2.9s-.44-1.89-.77-2.73c-.32-.84-.68-1.53-1.07-2.06h1.65c.76,1.07,1.35,2.25,1.74,3.52.4,1.27.6,2.66.6,4.18Z"/>
    <path class="cls-1" d="m92.07,55.32v-1.59h7.73v1.59h-7.73Zm0,3.72v-1.59h7.73v1.59h-7.73Z"/>
    <path class="cls-1" d="m112.77,55.25v1.56h-5.48v-1.56h5.48Z"/>
    <path class="cls-1" d="m122.13,54.25l-1.64.29c-.07-.21-.18-.41-.32-.6-.15-.19-.35-.34-.59-.46-.25-.12-.56-.18-.94-.18-.51,0-.94.11-1.28.34-.34.23-.51.52-.51.88,0,.31.11.56.34.75.23.19.6.34,1.11.46l1.47.34c.85.2,1.49.5,1.91.91.42.41.63.94.63,1.6,0,.56-.16,1.05-.48,1.48-.32.43-.76.77-1.33,1.02-.57.25-1.23.37-1.98.37-1.04,0-1.89-.22-2.54-.67-.66-.45-1.06-1.08-1.21-1.9l1.75-.27c.11.46.33.8.67,1.03s.78.35,1.32.35c.59,0,1.06-.12,1.42-.37.35-.25.53-.55.53-.91,0-.29-.11-.53-.32-.73-.22-.2-.54-.35-.99-.45l-1.57-.34c-.87-.2-1.5-.51-1.92-.94s-.62-.98-.62-1.64c0-.55.15-1.03.46-1.44.31-.41.73-.73,1.27-.96.54-.23,1.16-.35,1.85-.35,1,0,1.79.22,2.37.65.58.43.96,1.01,1.14,1.74Z"/>
    <path class="cls-1" d="m125.2,50.56c-.31,0-.58-.11-.81-.32-.22-.21-.33-.46-.33-.76s.11-.55.33-.76c.22-.21.49-.32.81-.32s.58.11.81.32c.22.21.33.46.33.76s-.11.55-.33.76c-.22.21-.49.32-.81.32Zm-.91,10.7v-9.27h1.8v9.27h-1.8Z"/>
    <path class="cls-1" d="m130.33,55.75v5.51h-1.8v-9.27h1.73v1.51h.11c.21-.49.55-.88,1-1.18.46-.3,1.03-.45,1.73-.45.63,0,1.18.13,1.66.4.47.26.84.66,1.1,1.17.26.52.39,1.16.39,1.93v5.9h-1.81v-5.68c0-.67-.17-1.2-.53-1.58-.35-.38-.83-.57-1.44-.57-.42,0-.79.09-1.11.27-.32.18-.58.45-.77.79-.19.35-.28.77-.28,1.26Z"/>
    <path class="cls-1" d="m140.1,51.99l2.05,3.61,2.06-3.61h1.97l-2.89,4.64,2.92,4.64h-1.97l-2.09-3.46-2.08,3.46h-1.98l2.89-4.64-2.85-4.64h1.98Z"/>
  </g>
</svg>