<?xml version="1.0" encoding="UTF-8"?>
<svg id="Layer_2" data-name="Layer 2" xmlns="http://www.w3.org/2000/svg" viewBox="0 0 974 46">
  <defs>
    <style>
      .cls-1 {
        fill: #fff;
      }
    </style>
  </defs>
  <g>
    <path class="cls-1" d="m.28,16.79V4.42h7.75v1.61H2.15v3.77h5.48v1.6H2.15v3.79h5.96v1.61H.28Z"/>
    <path class="cls-1" d="m14.29,16.97c-.9,0-1.67-.2-2.31-.61-.65-.41-1.14-.97-1.49-1.69-.35-.72-.52-1.55-.52-2.48s.18-1.77.53-2.5.85-1.29,1.5-1.69,1.4-.61,2.28-.61c.7,0,1.33.13,1.88.39.55.26,1,.62,1.34,1.09.34.47.54,1.01.61,1.64h-1.76c-.1-.43-.32-.81-.66-1.12s-.8-.47-1.38-.47c-.5,0-.94.13-1.32.4-.38.26-.67.64-.88,1.12-.21.49-.31,1.06-.31,1.72s.1,1.26.31,1.75c.21.49.5.87.87,1.14s.82.4,1.33.4c.34,0,.65-.06.93-.19.28-.13.52-.31.71-.55.19-.24.32-.52.4-.86h1.76c-.06.6-.26,1.14-.59,1.61-.33.47-.76.84-1.31,1.11s-1.18.4-1.92.4Z"/>
    <path class="cls-1" d="m19.31,16.79v-1.56s.33,0,.33,0c.26,0,.47-.06.65-.17.17-.11.32-.3.43-.56.11-.27.2-.63.26-1.1.06-.47.1-1.06.13-1.77l.16-4.11h6.47v9.27h-1.77v-7.72h-3.03l-.15,3.15c-.04.76-.11,1.43-.23,2s-.29,1.05-.52,1.43-.52.66-.87.85c-.35.19-.78.28-1.29.28h-.58Z"/>
    <path class="cls-1" d="m31.91,14.26l4.09-6.74h1.94v9.27h-1.77v-6.75l-4.07,6.75h-1.96V7.51h1.77v6.74Z"/>
    <path class="cls-1" d="m44.87,16.79V7.51h1.81v3.89h.87l3.06-3.89h2.23l-3.59,4.51,3.63,4.76h-2.24l-2.79-3.71h-1.18v3.71h-1.81Z"/>
    <path class="cls-1" d="m61.48,16.99c-.59,0-1.12-.11-1.59-.33-.48-.22-.85-.54-1.13-.96-.28-.42-.41-.93-.41-1.54,0-.52.1-.95.3-1.29.2-.34.47-.61.81-.8.34-.2.72-.35,1.15-.45.42-.1.85-.18,1.29-.23.56-.06,1.01-.12,1.35-.16.35-.04.6-.11.75-.21s.24-.25.24-.47v-.04c0-.53-.15-.94-.44-1.23-.3-.29-.74-.43-1.32-.43s-1.09.13-1.43.4c-.35.27-.59.56-.72.89l-1.7-.39c.2-.56.5-1.02.88-1.37.39-.35.84-.6,1.34-.76.51-.16,1.04-.24,1.6-.24.37,0,.76.04,1.18.13s.81.24,1.17.47c.36.23.66.56.9.98.23.42.35.97.35,1.65v6.16h-1.76v-1.27h-.07c-.12.23-.29.46-.53.69-.23.23-.53.41-.9.56s-.81.22-1.32.22Zm.39-1.45c.5,0,.93-.1,1.28-.3.36-.2.63-.46.81-.78.19-.32.28-.66.28-1.03v-1.2c-.06.06-.19.12-.37.18-.18.05-.39.1-.62.14-.23.04-.46.07-.68.1-.22.03-.41.06-.56.08-.35.04-.67.12-.96.22-.29.1-.52.25-.69.45-.17.2-.26.45-.26.78,0,.45.17.78.5,1.01.33.23.75.34,1.26.34Z"/>
    <path class="cls-1" d="m68.46,20.26V7.51h1.76v1.5h.15c.1-.19.26-.42.45-.67.2-.25.47-.48.82-.67.35-.19.81-.29,1.39-.29.75,0,1.42.19,2,.57.59.38,1.05.92,1.39,1.64s.5,1.57.5,2.57-.17,1.86-.5,2.57-.79,1.26-1.38,1.65-1.25.58-2,.58c-.56,0-1.02-.09-1.38-.28-.36-.19-.64-.41-.84-.66s-.36-.48-.46-.68h-.11v4.92h-1.81Zm1.77-8.11c0,.65.09,1.22.28,1.71.19.49.46.87.82,1.15.36.28.8.41,1.32.41s.99-.14,1.35-.43c.36-.29.64-.68.82-1.17.19-.49.28-1.05.28-1.67s-.09-1.16-.27-1.65c-.18-.49-.46-.87-.82-1.15s-.82-.42-1.36-.42-.96.13-1.32.4c-.36.27-.63.65-.82,1.13s-.28,1.05-.28,1.69Z"/>
    <path class="cls-1" d="m84.88,7.51v1.56h-4.15v7.72h-1.78V7.51h5.93Z"/>
    <path class="cls-1" d="m87.93,20.26c-.27,0-.52-.02-.74-.06-.22-.04-.39-.09-.49-.14l.43-1.48c.33.09.62.13.88.11.26-.01.49-.11.69-.29s.38-.48.53-.89l.22-.62-3.39-9.39h1.93l2.35,7.2h.1l2.35-7.2h1.94l-3.82,10.51c-.18.48-.4.89-.68,1.23-.27.34-.6.59-.98.76s-.82.25-1.32.25Z"/>
    <path class="cls-1" d="m98.19,7.51v9.27h-1.77V7.51h1.77Zm3.44,7.04l2.99-7.04h1.56l-3.88,9.27h-1.34l-3.8-9.27h1.54l2.93,7.04Zm3.48,2.23V7.51h1.76v9.27h-1.76Z"/>
    <path class="cls-1" d="m113.27,16.97c-.91,0-1.7-.2-2.36-.59-.66-.39-1.17-.95-1.52-1.66-.36-.71-.53-1.55-.53-2.51s.18-1.79.53-2.51c.36-.72.86-1.29,1.5-1.7.64-.41,1.39-.61,2.25-.61.52,0,1.03.09,1.52.26.49.17.93.44,1.32.81.39.37.7.85.92,1.44.23.59.34,1.3.34,2.15v.64h-7.37v-1.35h5.6c0-.47-.1-.9-.29-1.26-.19-.37-.46-.66-.81-.87-.35-.21-.76-.32-1.22-.32-.51,0-.95.12-1.33.37s-.67.57-.87.97c-.2.4-.31.83-.31,1.29v1.06c0,.62.11,1.15.33,1.58s.53.77.92.99c.39.23.85.34,1.38.34.34,0,.65-.05.94-.15s.53-.25.73-.44c.21-.2.36-.44.47-.73l1.71.31c-.14.5-.38.94-.73,1.32-.35.38-.79.67-1.32.88-.53.21-1.13.31-1.81.31Z"/>
    <path class="cls-1" d="m121.02,7.51v9.27h-1.77V7.51h1.77Zm4.52,3.86v1.56h-5.02v-1.56h5.02Zm1.26-3.86v9.27h-1.76V7.51h1.76Z"/>
    <path class="cls-1" d="m128.69,9.07v-1.56h7.82v1.56h-3.03v7.72h-1.76v-7.72h-3.04Z"/>
    <path class="cls-1" d="m139.56,20.26c-.27,0-.52-.02-.74-.06-.22-.04-.39-.09-.5-.14l.43-1.48c.33.09.62.13.88.11.26-.01.49-.11.69-.29s.38-.48.53-.89l.22-.62-3.39-9.39h1.93l2.35,7.2h.1l2.35-7.2h1.94l-3.82,10.51c-.18.48-.4.89-.68,1.23-.27.34-.6.59-.98.76-.38.17-.82.25-1.32.25Z"/>
    <path class="cls-1" d="m152.55,16.79V7.51h7.56v9.27h-1.77v-7.72h-4.04v7.72h-1.76Z"/>
    <path class="cls-1" d="m162.54,20.26V7.51h1.76v1.5h.15c.1-.19.26-.42.45-.67.2-.25.47-.48.82-.67.35-.19.81-.29,1.39-.29.75,0,1.42.19,2,.57.59.38,1.05.92,1.38,1.64.34.71.5,1.57.5,2.57s-.17,1.86-.5,2.57c-.33.71-.79,1.26-1.38,1.65s-1.25.58-2,.58c-.56,0-1.02-.09-1.38-.28-.36-.19-.63-.41-.84-.66s-.36-.48-.46-.68h-.11v4.92h-1.8Zm1.77-8.11c0,.65.09,1.22.28,1.71.19.49.46.87.82,1.15.36.28.8.41,1.32.41s.99-.14,1.35-.43c.36-.29.64-.68.82-1.17.19-.49.28-1.05.28-1.67s-.09-1.16-.28-1.65c-.18-.49-.46-.87-.82-1.15s-.82-.42-1.36-.42-.96.13-1.33.4-.63.65-.82,1.13c-.18.48-.28,1.05-.28,1.69Z"/>
    <path class="cls-1" d="m174.8,14.26l4.09-6.74h1.94v9.27h-1.77v-6.75l-4.07,6.75h-1.96V7.51h1.77v6.74Z"/>
    <path class="cls-1" d="m190.41,4.06l.75,1.14c-.28.25-.59.43-.95.54-.35.11-.76.17-1.22.2-.46.03-.98.05-1.58.07-.67.02-1.22.16-1.65.43s-.76.66-.99,1.18c-.23.52-.38,1.17-.45,1.96h.11c.3-.58.72-1.01,1.26-1.29.54-.29,1.14-.43,1.81-.43.75,0,1.41.17,2,.51.58.34,1.04.84,1.38,1.5.34.66.5,1.46.5,2.41s-.18,1.79-.53,2.49c-.35.7-.85,1.24-1.49,1.62s-1.39.57-2.25.57-1.62-.2-2.26-.59c-.64-.39-1.14-.98-1.49-1.75-.35-.77-.53-1.73-.53-2.86v-.92c0-2.12.38-3.72,1.14-4.79.76-1.07,1.89-1.62,3.39-1.65.49-.01.92-.02,1.3,0,.38,0,.72-.01,1-.05.29-.04.53-.14.72-.3Zm-3.27,11.4c.5,0,.94-.13,1.3-.38s.64-.62.84-1.09c.2-.47.3-1.03.3-1.67s-.1-1.16-.3-1.6c-.2-.44-.48-.77-.84-1.01-.37-.23-.81-.35-1.32-.35-.38,0-.72.07-1.01.2s-.55.32-.76.58c-.21.25-.37.56-.49.93-.12.36-.18.78-.18,1.25,0,.96.22,1.72.66,2.29s1.04.85,1.81.85Z"/>
    <path class="cls-1" d="m196.12,16.99c-.59,0-1.12-.11-1.59-.33-.48-.22-.85-.54-1.13-.96s-.41-.93-.41-1.54c0-.52.1-.95.3-1.29.2-.34.47-.61.81-.8s.72-.35,1.15-.45c.42-.1.85-.18,1.29-.23.55-.06,1.01-.12,1.35-.16.35-.04.6-.11.75-.21s.24-.25.24-.47v-.04c0-.53-.15-.94-.44-1.23-.3-.29-.74-.43-1.32-.43s-1.09.13-1.43.4c-.35.27-.59.56-.72.89l-1.7-.39c.2-.56.5-1.02.88-1.37.39-.35.84-.6,1.34-.76.51-.16,1.04-.24,1.6-.24.37,0,.76.04,1.18.13.42.09.81.24,1.17.47.36.23.66.56.9.98.23.42.35.97.35,1.65v6.16h-1.76v-1.27h-.07c-.12.23-.29.46-.52.69-.23.23-.53.41-.9.56s-.8.22-1.32.22Zm.39-1.45c.5,0,.93-.1,1.28-.3.36-.2.63-.46.82-.78.19-.32.28-.66.28-1.03v-1.2c-.06.06-.19.12-.37.18-.18.05-.39.1-.62.14-.23.04-.46.07-.68.1-.22.03-.41.06-.56.08-.35.04-.67.12-.96.22s-.52.25-.69.45c-.17.2-.26.45-.26.78,0,.45.17.78.5,1.01.33.23.75.34,1.26.34Z"/>
    <path class="cls-1" d="m203.1,16.79V7.51h3.84c1.05,0,1.88.22,2.49.67.61.44.92,1.05.92,1.81,0,.54-.17.97-.52,1.29-.35.32-.8.53-1.38.64.41.05.79.17,1.14.37.35.2.62.47.84.8.21.33.32.73.32,1.2,0,.49-.13.92-.38,1.3-.25.38-.62.67-1.1.88-.48.21-1.06.32-1.74.32h-4.43Zm1.7-5.41h2.17c.34,0,.63-.05.87-.15.24-.1.43-.23.56-.41.13-.18.2-.39.2-.64,0-.36-.15-.64-.44-.84s-.7-.3-1.21-.3h-2.15v2.34Zm0,3.9h2.73c.45,0,.8-.11,1.05-.32.25-.21.38-.5.38-.87,0-.43-.13-.77-.38-1.02-.25-.25-.6-.37-1.05-.37h-2.73v2.58Z"/>
    <path class="cls-1" d="m211.99,16.79v-1.56s.33,0,.33,0c.26,0,.47-.06.65-.17s.32-.3.43-.56c.11-.27.2-.63.26-1.1.06-.47.1-1.06.13-1.77l.16-4.11h6.47v9.27h-1.77v-7.72h-3.03l-.14,3.15c-.04.76-.11,1.43-.23,2-.12.57-.29,1.05-.52,1.43s-.51.66-.87.85-.79.28-1.29.28h-.58Z"/>
    <path class="cls-1" d="m222.27,16.79l2.61-4.68h1.85l-2.61,4.68h-1.85Zm6.08,0v-7.73h-2.22c-.53,0-.94.12-1.23.37-.29.25-.44.57-.44.97s.14.71.41.95.65.36,1.14.36h2.87v1.46h-2.87c-.68,0-1.28-.11-1.77-.34s-.88-.55-1.15-.97c-.27-.42-.4-.91-.4-1.49s.14-1.09.41-1.51.67-.75,1.19-.99c.52-.23,1.13-.35,1.84-.35h3.92v9.27h-1.7Z"/>
    <path class="cls-1" d="m236.46,16.97c-.91,0-1.7-.2-2.36-.59-.66-.39-1.17-.95-1.52-1.66s-.53-1.55-.53-2.51.18-1.79.53-2.51.86-1.29,1.5-1.7,1.39-.61,2.25-.61c.52,0,1.03.09,1.52.26s.93.44,1.32.81c.39.37.7.85.92,1.44.22.59.34,1.3.34,2.15v.64h-7.37v-1.35h5.6c0-.47-.1-.9-.29-1.26s-.46-.66-.81-.87c-.35-.21-.76-.32-1.22-.32-.51,0-.95.12-1.32.37-.38.25-.67.57-.87.97-.2.4-.3.83-.3,1.29v1.06c0,.62.11,1.15.33,1.58s.53.77.92.99.86.34,1.38.34c.34,0,.65-.05.94-.15.28-.1.52-.25.73-.44.21-.2.36-.44.47-.73l1.71.31c-.14.5-.38.94-.73,1.32-.35.38-.79.67-1.32.88-.53.21-1.13.31-1.81.31Z"/>
    <path class="cls-1" d="m241.92,9.07v-1.56h7.82v1.56h-3.03v7.72h-1.76v-7.72h-3.04Z"/>
    <path class="cls-1" d="m255.56,16.97c-.9,0-1.67-.2-2.32-.61-.65-.41-1.14-.97-1.49-1.69-.35-.72-.52-1.55-.52-2.48s.18-1.77.53-2.5.85-1.29,1.5-1.69,1.4-.61,2.28-.61c.7,0,1.33.13,1.88.39.55.26,1,.62,1.34,1.09.34.47.54,1.01.61,1.64h-1.76c-.1-.43-.32-.81-.66-1.12s-.8-.47-1.38-.47c-.5,0-.94.13-1.32.4-.38.26-.67.64-.88,1.12-.21.49-.31,1.06-.31,1.72s.1,1.26.31,1.75c.21.49.5.87.87,1.14.38.27.82.4,1.33.4.34,0,.65-.06.93-.19.28-.13.51-.31.71-.55s.33-.52.4-.86h1.76c-.06.6-.26,1.14-.59,1.61s-.76.84-1.31,1.11c-.55.27-1.18.4-1.92.4Z"/>
    <path class="cls-1" d="m260.75,16.79l2.61-4.68h1.85l-2.61,4.68h-1.85Zm6.08,0v-7.73h-2.22c-.53,0-.94.12-1.23.37-.29.25-.44.57-.44.97s.14.71.41.95.65.36,1.14.36h2.87v1.46h-2.87c-.68,0-1.28-.11-1.77-.34s-.88-.55-1.15-.97c-.27-.42-.4-.91-.4-1.49s.14-1.09.41-1.51.67-.75,1.19-.99c.52-.23,1.13-.35,1.84-.35h3.92v9.27h-1.7Z"/>
    <path class="cls-1" d="m271.47,11.66c0-1.51.2-2.91.6-4.18.4-1.27.98-2.44,1.75-3.52h1.65c-.3.4-.58.89-.83,1.47-.26.58-.48,1.21-.68,1.9-.19.69-.34,1.4-.45,2.14-.11.74-.16,1.47-.16,2.18,0,.96.09,1.93.28,2.91.19.98.45,1.89.77,2.73.32.84.68,1.53,1.08,2.06h-1.65c-.76-1.07-1.35-2.25-1.75-3.52-.4-1.27-.6-2.67-.6-4.18Z"/>
    <path class="cls-1" d="m277.37,16.79V7.51h3.84c1.05,0,1.88.22,2.49.67.61.44.92,1.05.92,1.81,0,.54-.17.97-.52,1.29-.35.32-.8.53-1.38.64.41.05.79.17,1.14.37.35.2.62.47.84.8.21.33.32.73.32,1.2,0,.49-.13.92-.38,1.3-.25.38-.62.67-1.1.88-.48.21-1.06.32-1.74.32h-4.43Zm1.7-5.41h2.17c.34,0,.63-.05.87-.15.24-.1.43-.23.56-.41.13-.18.2-.39.2-.64,0-.36-.15-.64-.44-.84s-.7-.3-1.21-.3h-2.15v2.34Zm0,3.9h2.73c.45,0,.8-.11,1.05-.32.25-.21.38-.5.38-.87,0-.43-.13-.77-.38-1.02-.25-.25-.6-.37-1.05-.37h-2.73v2.58Z"/>
    <path class="cls-1" d="m288.35,10.7h2.69c1.13,0,2.01.28,2.62.85.61.56.92,1.29.92,2.18,0,.58-.14,1.1-.41,1.56-.27.46-.67.83-1.2,1.1-.53.27-1.17.4-1.93.4h-4.05V7.51h1.77v7.72h2.28c.52,0,.95-.14,1.28-.41.33-.27.5-.62.5-1.04,0-.45-.17-.81-.5-1.1s-.76-.43-1.28-.43h-2.69v-1.56Zm7.55,6.09V7.51h1.8v9.27h-1.8Z"/>
    <path class="cls-1" d="m306.8,11.82v1.56c-.28.11-.57.21-.88.3-.31.09-.64.15-.98.2-.34.05-.7.07-1.07.07-1.15,0-2.06-.28-2.73-.84-.68-.56-1.01-1.42-1.01-2.58v-3.03h1.76v3.03c0,.44.08.79.24,1.07.16.27.39.48.69.6s.65.19,1.06.19c.54,0,1.05-.05,1.51-.15s.93-.24,1.42-.42Zm.77-4.3v9.27h-1.76V7.51h1.76Z"/>
    <path class="cls-1" d="m311.75,14.26l4.09-6.74h1.94v9.27h-1.77v-6.75l-4.07,6.75h-1.96V7.51h1.77v6.74Z"/>
    <path class="cls-1" d="m319.69,9.07v-1.56h7.82v1.56h-3.03v7.72h-1.76v-7.72h-3.04Z"/>
    <path class="cls-1" d="m332.12,16.99c-.59,0-1.12-.11-1.59-.33-.48-.22-.85-.54-1.13-.96s-.41-.93-.41-1.54c0-.52.1-.95.3-1.29.2-.34.47-.61.81-.8s.72-.35,1.15-.45c.42-.1.85-.18,1.29-.23.55-.06,1.01-.12,1.35-.16.35-.04.6-.11.75-.21s.24-.25.24-.47v-.04c0-.53-.15-.94-.44-1.23-.3-.29-.74-.43-1.32-.43s-1.09.13-1.43.4c-.35.27-.59.56-.72.89l-1.7-.39c.2-.56.5-1.02.88-1.37.39-.35.84-.6,1.34-.76.51-.16,1.04-.24,1.6-.24.37,0,.76.04,1.18.13.42.09.81.24,1.17.47.36.23.66.56.9.98.23.42.35.97.35,1.65v6.16h-1.76v-1.27h-.07c-.12.23-.29.46-.52.69-.23.23-.53.41-.9.56s-.8.22-1.32.22Zm.39-1.45c.5,0,.93-.1,1.28-.3.36-.2.63-.46.82-.78.19-.32.28-.66.28-1.03v-1.2c-.06.06-.19.12-.37.18-.18.05-.39.1-.62.14-.23.04-.46.07-.68.1-.22.03-.41.06-.56.08-.35.04-.67.12-.96.22s-.52.25-.69.45c-.17.2-.26.45-.26.78,0,.45.17.78.5,1.01.33.23.75.34,1.26.34Z"/>
    <path class="cls-1" d="m343.09,16.97c-.91,0-1.7-.2-2.36-.59-.66-.39-1.17-.95-1.52-1.66s-.53-1.55-.53-2.51.18-1.79.53-2.51.86-1.29,1.5-1.7,1.39-.61,2.25-.61c.52,0,1.03.09,1.52.26s.93.44,1.32.81c.39.37.7.85.92,1.44.22.59.34,1.3.34,2.15v.64h-7.37v-1.35h5.6c0-.47-.1-.9-.29-1.26s-.46-.66-.81-.87c-.35-.21-.76-.32-1.22-.32-.51,0-.95.12-1.32.37-.38.25-.67.57-.87.97-.2.4-.3.83-.3,1.29v1.06c0,.62.11,1.15.33,1.58s.53.77.92.99.86.34,1.38.34c.34,0,.65-.05.94-.15.28-.1.52-.25.73-.44.21-.2.36-.44.47-.73l1.71.31c-.14.5-.38.94-.73,1.32-.35.38-.79.67-1.32.88-.53.21-1.13.31-1.81.31Z"/>
    <path class="cls-1" d="m348.56,9.07v-1.56h7.82v1.56h-3.03v7.72h-1.76v-7.72h-3.04Z"/>
    <path class="cls-1" d="m362.2,16.97c-.9,0-1.67-.2-2.32-.61-.65-.41-1.14-.97-1.49-1.69-.35-.72-.52-1.55-.52-2.48s.18-1.77.53-2.5.85-1.29,1.5-1.69,1.4-.61,2.28-.61c.7,0,1.33.13,1.88.39.55.26,1,.62,1.34,1.09.34.47.54,1.01.61,1.64h-1.76c-.1-.43-.32-.81-.66-1.12s-.8-.47-1.38-.47c-.5,0-.94.13-1.32.4-.38.26-.67.64-.88,1.12-.21.49-.31,1.06-.31,1.72s.1,1.26.31,1.75c.21.49.5.87.87,1.14.38.27.82.4,1.33.4.34,0,.65-.06.93-.19.28-.13.51-.31.71-.55s.33-.52.4-.86h1.76c-.06.6-.26,1.14-.59,1.61s-.76.84-1.31,1.11c-.55.27-1.18.4-1.92.4Z"/>
    <path class="cls-1" d="m367.39,16.79l2.61-4.68h1.85l-2.61,4.68h-1.85Zm6.08,0v-7.73h-2.22c-.53,0-.94.12-1.23.37-.29.25-.44.57-.44.97s.14.71.41.95.65.36,1.14.36h2.87v1.46h-2.87c-.68,0-1.28-.11-1.77-.34s-.88-.55-1.15-.97c-.27-.42-.4-.91-.4-1.49s.14-1.09.41-1.51.67-.75,1.19-.99c.52-.23,1.13-.35,1.84-.35h3.92v9.27h-1.7Z"/>
    <path class="cls-1" d="m381.05,11.66c0,1.52-.2,2.91-.6,4.18-.4,1.27-.98,2.44-1.74,3.52h-1.65c.3-.4.58-.89.83-1.47.26-.58.48-1.21.68-1.9s.34-1.41.45-2.15c.11-.74.16-1.47.16-2.19,0-.95-.09-1.92-.28-2.9s-.44-1.89-.77-2.73c-.32-.84-.68-1.53-1.07-2.06h1.65c.76,1.07,1.35,2.25,1.74,3.52.4,1.27.6,2.66.6,4.18Z"/>
    <path class="cls-1" d="m390.28,7.51v9.27h-1.77V7.51h1.77Zm4.52,3.86v1.56h-5.02v-1.56h5.02Zm1.26-3.86v9.27h-1.76V7.51h1.76Z"/>
    <path class="cls-1" d="m402.46,16.97c-.91,0-1.7-.2-2.36-.59-.66-.39-1.17-.95-1.52-1.66s-.53-1.55-.53-2.51.18-1.79.53-2.51.86-1.29,1.5-1.7,1.39-.61,2.25-.61c.52,0,1.03.09,1.52.26s.93.44,1.32.81c.39.37.7.85.92,1.44.22.59.34,1.3.34,2.15v.64h-7.37v-1.35h5.6c0-.47-.1-.9-.29-1.26s-.46-.66-.81-.87c-.35-.21-.76-.32-1.22-.32-.51,0-.95.12-1.32.37-.38.25-.67.57-.87.97-.2.4-.3.83-.3,1.29v1.06c0,.62.11,1.15.33,1.58s.53.77.92.99.86.34,1.38.34c.34,0,.65-.05.94-.15.28-.1.52-.25.73-.44.21-.2.36-.44.47-.73l1.71.31c-.14.5-.38.94-.73,1.32-.35.38-.79.67-1.32.88-.53.21-1.13.31-1.81.31Z"/>
    <path class="cls-1" d="m415.12,11.82v1.56c-.28.11-.57.21-.88.3-.31.09-.64.15-.98.2-.34.05-.7.07-1.07.07-1.15,0-2.06-.28-2.73-.84-.68-.56-1.01-1.42-1.01-2.58v-3.03h1.76v3.03c0,.44.08.79.24,1.07.16.27.39.48.69.6s.65.19,1.06.19c.54,0,1.05-.05,1.51-.15s.93-.24,1.42-.42Zm.77-4.3v9.27h-1.76V7.51h1.76Z"/>
    <path class="cls-1" d="m422.29,16.97c-.91,0-1.7-.2-2.36-.59-.66-.39-1.17-.95-1.52-1.66s-.53-1.55-.53-2.51.18-1.79.53-2.51.86-1.29,1.5-1.7,1.39-.61,2.25-.61c.52,0,1.03.09,1.52.26s.93.44,1.32.81c.39.37.7.85.92,1.44.22.59.34,1.3.34,2.15v.64h-7.37v-1.35h5.6c0-.47-.1-.9-.29-1.26s-.46-.66-.81-.87c-.35-.21-.76-.32-1.22-.32-.51,0-.95.12-1.32.37-.38.25-.67.57-.87.97-.2.4-.3.83-.3,1.29v1.06c0,.62.11,1.15.33,1.58s.53.77.92.99.86.34,1.38.34c.34,0,.65-.05.94-.15.28-.1.52-.25.73-.44.21-.2.36-.44.47-.73l1.71.31c-.14.5-.38.94-.73,1.32-.35.38-.79.67-1.32.88-.53.21-1.13.31-1.81.31Z"/>
    <path class="cls-1" d="m427.76,9.07v-1.56h7.82v1.56h-3.03v7.72h-1.76v-7.72h-3.04Z"/>
    <path class="cls-1" d="m439.26,7.51v9.27h-1.77V7.51h1.77Zm4.52,3.86v1.56h-5.02v-1.56h5.02Zm1.26-3.86v9.27h-1.76V7.51h1.76Z"/>
    <path class="cls-1" d="m451.36,16.97c-.87,0-1.63-.2-2.28-.6-.65-.4-1.15-.96-1.51-1.67s-.54-1.55-.54-2.51.18-1.8.54-2.52c.36-.72.86-1.28,1.51-1.68.65-.4,1.41-.6,2.28-.6s1.63.2,2.28.6c.65.4,1.15.96,1.51,1.68.36.72.54,1.56.54,2.52s-.18,1.8-.54,2.51-.86,1.27-1.51,1.67c-.65.4-1.41.6-2.28.6Zm0-1.52c.56,0,1.03-.15,1.4-.45.37-.3.64-.69.82-1.19.18-.49.27-1.04.27-1.64s-.09-1.14-.27-1.63c-.18-.5-.45-.9-.82-1.2-.37-.3-.84-.45-1.4-.45s-1.04.15-1.41.45c-.37.3-.65.7-.83,1.2s-.27,1.04-.27,1.63.09,1.14.27,1.64c.18.5.46.89.83,1.19s.84.45,1.41.45Z"/>
    <path class="cls-1" d="m461.69,16.97c-.91,0-1.7-.2-2.36-.59-.66-.39-1.17-.95-1.52-1.66s-.53-1.55-.53-2.51.18-1.79.53-2.51.86-1.29,1.5-1.7,1.39-.61,2.25-.61c.52,0,1.03.09,1.52.26s.93.44,1.32.81c.39.37.7.85.92,1.44.22.59.34,1.3.34,2.15v.64h-7.37v-1.35h5.6c0-.47-.1-.9-.29-1.26s-.46-.66-.81-.87c-.35-.21-.76-.32-1.22-.32-.51,0-.95.12-1.32.37-.38.25-.67.57-.87.97-.2.4-.3.83-.3,1.29v1.06c0,.62.11,1.15.33,1.58s.53.77.92.99.86.34,1.38.34c.34,0,.65-.05.94-.15.28-.1.52-.25.73-.44.21-.2.36-.44.47-.73l1.71.31c-.14.5-.38.94-.73,1.32-.35.38-.79.67-1.32.88-.53.21-1.13.31-1.81.31Z"/>
    <path class="cls-1" d="m478.85,11.82v1.56c-.28.11-.57.21-.88.3-.31.09-.64.15-.98.2-.34.05-.7.07-1.07.07-1.15,0-2.06-.28-2.73-.84-.68-.56-1.01-1.42-1.01-2.58v-3.03h1.76v3.03c0,.44.08.79.24,1.07.16.27.39.48.69.6s.65.19,1.06.19c.54,0,1.05-.05,1.51-.15s.93-.24,1.42-.42Zm.77-4.3v9.27h-1.76V7.51h1.76Z"/>
    <path class="cls-1" d="m483.8,14.26l4.09-6.74h1.94v9.27h-1.77v-6.75l-4.07,6.75h-1.96V7.51h1.77v6.74Z"/>
    <path class="cls-1" d="m496.16,16.97c-.9,0-1.67-.2-2.32-.61-.65-.41-1.14-.97-1.49-1.69-.35-.72-.52-1.55-.52-2.48s.18-1.77.53-2.5.85-1.29,1.5-1.69,1.4-.61,2.28-.61c.7,0,1.33.13,1.88.39.55.26,1,.62,1.34,1.09.34.47.54,1.01.61,1.64h-1.76c-.1-.43-.32-.81-.66-1.12s-.8-.47-1.38-.47c-.5,0-.94.13-1.32.4-.38.26-.67.64-.88,1.12-.21.49-.31,1.06-.31,1.72s.1,1.26.31,1.75c.21.49.5.87.87,1.14.38.27.82.4,1.33.4.34,0,.65-.06.93-.19.28-.13.51-.31.71-.55s.33-.52.4-.86h1.76c-.06.6-.26,1.14-.59,1.61s-.76.84-1.31,1.11c-.55.27-1.18.4-1.92.4Z"/>
    <path class="cls-1" d="m501.18,16.79v-1.56s.33,0,.33,0c.26,0,.47-.06.65-.17s.32-.3.43-.56c.11-.27.2-.63.26-1.1.06-.47.1-1.06.13-1.77l.16-4.11h6.47v9.27h-1.77v-7.72h-3.03l-.14,3.15c-.04.76-.11,1.43-.23,2-.12.57-.29,1.05-.52,1.43s-.51.66-.87.85-.79.28-1.29.28h-.58Z"/>
    <path class="cls-1" d="m515.92,16.97c-.87,0-1.63-.2-2.28-.6-.65-.4-1.15-.96-1.51-1.67s-.54-1.55-.54-2.51.18-1.8.54-2.52c.36-.72.86-1.28,1.51-1.68.65-.4,1.41-.6,2.28-.6s1.63.2,2.28.6c.65.4,1.15.96,1.51,1.68.36.72.54,1.56.54,2.52s-.18,1.8-.54,2.51-.86,1.27-1.51,1.67c-.65.4-1.41.6-2.28.6Zm0-1.52c.56,0,1.03-.15,1.4-.45.37-.3.64-.69.82-1.19.18-.49.27-1.04.27-1.64s-.09-1.14-.27-1.63c-.18-.5-.45-.9-.82-1.2-.37-.3-.84-.45-1.4-.45s-1.04.15-1.41.45c-.37.3-.65.7-.83,1.2s-.27,1.04-.27,1.63.09,1.14.27,1.64c.18.5.46.89.83,1.19s.84.45,1.41.45Z"/>
    <path class="cls-1" d="m524.6,15.1l-.09.66c-.06.48-.16.99-.31,1.51-.14.53-.29,1.01-.44,1.46-.15.45-.27.81-.37,1.07h-1.28c.05-.25.12-.59.22-1.01.09-.42.18-.9.27-1.42.09-.52.16-1.06.2-1.6l.06-.68h1.74Z"/>
    <path class="cls-1" d="m532.59,20.26c-.27,0-.52-.02-.74-.06-.22-.04-.39-.09-.5-.14l.43-1.48c.33.09.62.13.88.11.26-.01.49-.11.69-.29s.38-.48.53-.89l.22-.62-3.39-9.39h1.93l2.35,7.2h.1l2.35-7.2h1.94l-3.82,10.51c-.18.48-.4.89-.68,1.23-.27.34-.6.59-.98.76-.38.17-.82.25-1.32.25Z"/>
    <path class="cls-1" d="m542.85,7.51v9.27h-1.77V7.51h1.77Zm3.43,7.04l2.99-7.04h1.56l-3.88,9.27h-1.34l-3.8-9.27h1.54l2.93,7.04Zm3.48,2.23V7.51h1.76v9.27h-1.76Z"/>
    <path class="cls-1" d="m555.7,7.51v9.27h-1.77V7.51h1.77Zm4.52,3.86v1.56h-5.02v-1.56h5.02Zm1.26-3.86v9.27h-1.76V7.51h1.76Z"/>
    <path class="cls-1" d="m567.79,16.97c-.87,0-1.63-.2-2.28-.6-.65-.4-1.15-.96-1.51-1.67s-.54-1.55-.54-2.51.18-1.8.54-2.52c.36-.72.86-1.28,1.51-1.68.65-.4,1.41-.6,2.28-.6s1.63.2,2.28.6c.65.4,1.15.96,1.51,1.68.36.72.54,1.56.54,2.52s-.18,1.8-.54,2.51-.86,1.27-1.51,1.67c-.65.4-1.41.6-2.28.6Zm0-1.52c.56,0,1.03-.15,1.4-.45.37-.3.64-.69.82-1.19.18-.49.27-1.04.27-1.64s-.09-1.14-.27-1.63c-.18-.5-.45-.9-.82-1.2-.37-.3-.84-.45-1.4-.45s-1.04.15-1.41.45c-.37.3-.65.7-.83,1.2s-.27,1.04-.27,1.63.09,1.14.27,1.64c.18.5.46.89.83,1.19s.84.45,1.41.45Z"/>
    <path class="cls-1" d="m573.54,16.79l3.59-4.75-3.55-4.53h2.1l2.87,3.85h.65v-3.85h1.8v3.85h.63l2.87-3.85h2.1l-3.53,4.53,3.57,4.75h-2.14l-2.89-3.86h-.6v3.86h-1.8v-3.86h-.6l-2.91,3.86h-2.14Z"/>
    <path class="cls-1" d="m592.47,16.97c-.91,0-1.7-.2-2.36-.59-.66-.39-1.17-.95-1.52-1.66s-.53-1.55-.53-2.51.18-1.79.53-2.51.86-1.29,1.5-1.7,1.39-.61,2.25-.61c.52,0,1.03.09,1.52.26s.93.44,1.32.81c.39.37.7.85.92,1.44.22.59.34,1.3.34,2.15v.64h-7.37v-1.35h5.6c0-.47-.1-.9-.29-1.26s-.46-.66-.81-.87c-.35-.21-.76-.32-1.22-.32-.51,0-.95.12-1.32.37-.38.25-.67.57-.87.97-.2.4-.3.83-.3,1.29v1.06c0,.62.11,1.15.33,1.58s.53.77.92.99.86.34,1.38.34c.34,0,.65-.05.94-.15.28-.1.52-.25.73-.44.21-.2.36-.44.47-.73l1.71.31c-.14.5-.38.94-.73,1.32-.35.38-.79.67-1.32.88-.53.21-1.13.31-1.81.31Z"/>
    <path class="cls-1" d="m600.23,7.51v9.27h-1.77V7.51h1.77Zm4.52,3.86v1.56h-5.02v-1.56h5.02Zm1.26-3.86v9.27h-1.76V7.51h1.76Z"/>
    <path class="cls-1" d="m610.18,7.51v9.27h-1.77V7.51h1.77Zm4.52,3.86v1.56h-5.02v-1.56h5.02Zm1.26-3.86v9.27h-1.76V7.51h1.76Z"/>
    <path class="cls-1" d="m622.27,16.97c-.87,0-1.63-.2-2.28-.6-.65-.4-1.15-.96-1.51-1.67s-.54-1.55-.54-2.51.18-1.8.54-2.52c.36-.72.86-1.28,1.51-1.68.65-.4,1.41-.6,2.28-.6s1.63.2,2.28.6c.65.4,1.15.96,1.51,1.68.36.72.54,1.56.54,2.52s-.18,1.8-.54,2.51-.86,1.27-1.51,1.67c-.65.4-1.41.6-2.28.6Zm0-1.52c.56,0,1.03-.15,1.4-.45.37-.3.64-.69.82-1.19.18-.49.27-1.04.27-1.64s-.09-1.14-.27-1.63c-.18-.5-.45-.9-.82-1.2-.37-.3-.84-.45-1.4-.45s-1.04.15-1.41.45c-.37.3-.65.7-.83,1.2s-.27,1.04-.27,1.63.09,1.14.27,1.64c.18.5.46.89.83,1.19s.84.45,1.41.45Z"/>
    <path class="cls-1" d="m632.6,16.97c-.91,0-1.7-.2-2.36-.59-.66-.39-1.17-.95-1.52-1.66s-.53-1.55-.53-2.51.18-1.79.53-2.51.86-1.29,1.5-1.7,1.39-.61,2.25-.61c.52,0,1.03.09,1.52.26s.93.44,1.32.81c.39.37.7.85.92,1.44.22.59.34,1.3.34,2.15v.64h-7.37v-1.35h5.6c0-.47-.1-.9-.29-1.26s-.46-.66-.81-.87c-.35-.21-.76-.32-1.22-.32-.51,0-.95.12-1.32.37-.38.25-.67.57-.87.97-.2.4-.3.83-.3,1.29v1.06c0,.62.11,1.15.33,1.58s.53.77.92.99.86.34,1.38.34c.34,0,.65-.05.94-.15.28-.1.52-.25.73-.44.21-.2.36-.44.47-.73l1.71.31c-.14.5-.38.94-.73,1.32-.35.38-.79.67-1.32.88-.53.21-1.13.31-1.81.31Z"/>
    <path class="cls-1" d="m644.86,7.51v9.27h-1.77V7.51h1.77Zm4.52,3.86v1.56h-5.02v-1.56h5.02Zm1.26-3.86v9.27h-1.76V7.51h1.76Z"/>
    <path class="cls-1" d="m655.75,16.99c-.59,0-1.12-.11-1.59-.33-.48-.22-.85-.54-1.13-.96s-.41-.93-.41-1.54c0-.52.1-.95.3-1.29.2-.34.47-.61.81-.8s.72-.35,1.15-.45c.42-.1.85-.18,1.29-.23.55-.06,1.01-.12,1.35-.16.35-.04.6-.11.75-.21s.24-.25.24-.47v-.04c0-.53-.15-.94-.44-1.23-.3-.29-.74-.43-1.32-.43s-1.09.13-1.43.4c-.35.27-.59.56-.72.89l-1.7-.39c.2-.56.5-1.02.88-1.37.39-.35.84-.6,1.34-.76.51-.16,1.04-.24,1.6-.24.37,0,.76.04,1.18.13.42.09.81.24,1.17.47.36.23.66.56.9.98.23.42.35.97.35,1.65v6.16h-1.76v-1.27h-.07c-.12.23-.29.46-.52.69-.23.23-.53.41-.9.56s-.8.22-1.32.22Zm.39-1.45c.5,0,.93-.1,1.28-.3.36-.2.63-.46.82-.78.19-.32.28-.66.28-1.03v-1.2c-.06.06-.19.12-.37.18-.18.05-.39.1-.62.14-.23.04-.46.07-.68.1-.22.03-.41.06-.56.08-.35.04-.67.12-.96.22s-.52.25-.69.45c-.17.2-.26.45-.26.78,0,.45.17.78.5,1.01.33.23.75.34,1.26.34Z"/>
    <path class="cls-1" d="m687.59,15.1l-.09.66c-.06.48-.16.99-.31,1.51-.14.53-.29,1.01-.44,1.46-.15.45-.27.81-.37,1.07h-1.28c.05-.25.12-.59.22-1.01.09-.42.18-.9.27-1.42.09-.52.16-1.06.2-1.6l.06-.68h1.74Z"/>
    <path class="cls-1" d="m693.92,9.07v-1.56h7.82v1.56h-3.03v7.72h-1.76v-7.72h-3.04Z"/>
    <path class="cls-1" d="m707.56,16.97c-.87,0-1.63-.2-2.28-.6-.65-.4-1.15-.96-1.51-1.67s-.54-1.55-.54-2.51.18-1.8.54-2.52c.36-.72.86-1.28,1.51-1.68.65-.4,1.41-.6,2.28-.6s1.63.2,2.28.6c.65.4,1.15.96,1.51,1.68.36.72.54,1.56.54,2.52s-.18,1.8-.54,2.51-.86,1.27-1.51,1.67c-.65.4-1.41.6-2.28.6Zm0-1.52c.56,0,1.03-.15,1.4-.45.37-.3.64-.69.82-1.19.18-.49.27-1.04.27-1.64s-.09-1.14-.27-1.63c-.18-.5-.45-.9-.82-1.2-.37-.3-.84-.45-1.4-.45s-1.04.15-1.41.45c-.37.3-.65.7-.83,1.2s-.27,1.04-.27,1.63.09,1.14.27,1.64c.18.5.46.89.83,1.19s.84.45,1.41.45Z"/>
    <path class="cls-1" d="m722.39,16.97c-.66,0-1.25-.11-1.79-.34-.54-.23-1-.55-1.39-.98-.39-.42-.69-.93-.9-1.52-.21-.59-.32-1.24-.32-1.95s.11-1.37.32-1.96c.21-.59.51-1.09.9-1.52.39-.42.85-.75,1.39-.98.54-.23,1.14-.34,1.79-.34h.45v9.58h-.45Zm0-1.52h.25v-6.54h-.25c-.43,0-.81.09-1.13.26-.32.17-.59.41-.8.72-.21.3-.37.65-.48,1.05s-.16.81-.16,1.25c0,.59.09,1.13.28,1.62.19.49.47.89.86,1.19.38.3.86.45,1.44.45Zm0,4.49V4.42h1.8v15.52h-1.8Zm1.8-2.97h-.45V7.39h.45c.66,0,1.25.11,1.79.34s1,.56,1.39.98c.39.42.69.93.9,1.52.21.59.32,1.24.32,1.96s-.11,1.36-.32,1.95c-.21.59-.51,1.09-.9,1.52s-.85.75-1.39.98c-.54.23-1.14.34-1.79.34Zm0-1.52c.43,0,.81-.09,1.13-.26.32-.17.59-.41.8-.71.21-.3.37-.65.48-1.04.1-.39.16-.81.16-1.25,0-.58-.09-1.12-.28-1.62s-.47-.9-.85-1.2c-.38-.3-.86-.46-1.44-.46h-.26v6.54h.26Z"/>
    <path class="cls-1" d="m731.74,20.26c-.27,0-.52-.02-.74-.06-.22-.04-.39-.09-.5-.14l.43-1.48c.33.09.62.13.88.11.26-.01.49-.11.69-.29s.38-.48.53-.89l.22-.62-3.39-9.39h1.93l2.35,7.2h.1l2.35-7.2h1.94l-3.82,10.51c-.18.48-.4.89-.68,1.23-.27.34-.6.59-.98.76-.38.17-.82.25-1.32.25Z"/>
    <path class="cls-1" d="m742,7.51v9.27h-1.77V7.51h1.77Zm4.52,3.86v1.56h-5.02v-1.56h5.02Zm1.26-3.86v9.27h-1.76V7.51h1.76Z"/>
    <path class="cls-1" d="m750.19,16.79V7.51h1.8v3.89h.87l3.06-3.89h2.23l-3.59,4.51,3.63,4.76h-2.24l-2.79-3.71h-1.18v3.71h-1.8Z"/>
    <path class="cls-1" d="m767.16,7.51v7.79h1.36v4.47h-1.78v-2.99h-7.14V7.51h1.77v7.72h4.03v-7.72h1.76Z"/>
    <path class="cls-1" d="m772.28,14.26l4.09-6.74h1.94v9.27h-1.77v-6.75l-4.07,6.75h-1.96V7.51h1.77v6.74Z"/>
    <path class="cls-1" d="m780.18,16.79l2.61-4.68h1.85l-2.61,4.68h-1.85Zm6.08,0v-7.73h-2.22c-.53,0-.94.12-1.23.37-.29.25-.44.57-.44.97s.14.71.41.95.65.36,1.14.36h2.87v1.46h-2.87c-.68,0-1.28-.11-1.77-.34s-.88-.55-1.15-.97c-.27-.42-.4-.91-.4-1.49s.14-1.09.41-1.51.67-.75,1.19-.99c.52-.23,1.13-.35,1.84-.35h3.92v9.27h-1.7Z"/>
    <path class="cls-1" d="m796.65,7.51v9.27h-1.77V7.51h1.77Zm3.43,7.04l2.99-7.04h1.56l-3.88,9.27h-1.34l-3.8-9.27h1.54l2.93,7.04Zm3.48,2.23V7.51h1.76v9.27h-1.76Z"/>
    <path class="cls-1" d="m811.73,16.97c-.91,0-1.7-.2-2.36-.59-.66-.39-1.17-.95-1.52-1.66s-.53-1.55-.53-2.51.18-1.79.53-2.51.86-1.29,1.5-1.7,1.39-.61,2.25-.61c.52,0,1.03.09,1.52.26s.93.44,1.32.81c.39.37.7.85.92,1.44.22.59.34,1.3.34,2.15v.64h-7.37v-1.35h5.6c0-.47-.1-.9-.29-1.26s-.46-.66-.81-.87c-.35-.21-.76-.32-1.22-.32-.51,0-.95.12-1.32.37-.38.25-.67.57-.87.97-.2.4-.3.83-.3,1.29v1.06c0,.62.11,1.15.33,1.58s.53.77.92.99.86.34,1.38.34c.34,0,.65-.05.94-.15.28-.1.52-.25.73-.44.21-.2.36-.44.47-.73l1.71.31c-.14.5-.38.94-.73,1.32-.35.38-.79.67-1.32.88-.53.21-1.13.31-1.81.31Z"/>
    <path class="cls-1" d="m819.48,7.51v9.27h-1.77V7.51h1.77Zm4.52,3.86v1.56h-5.02v-1.56h5.02Zm1.26-3.86v9.27h-1.76V7.51h1.76Z"/>
    <path class="cls-1" d="m827.11,16.79l2.61-4.68h1.85l-2.61,4.68h-1.85Zm6.08,0v-7.73h-2.22c-.53,0-.94.12-1.23.37-.29.25-.44.57-.44.97s.14.71.41.95.65.36,1.14.36h2.87v1.46h-2.87c-.68,0-1.28-.11-1.77-.34s-.88-.55-1.15-.97c-.27-.42-.4-.91-.4-1.49s.14-1.09.41-1.51.67-.75,1.19-.99c.52-.23,1.13-.35,1.84-.35h3.92v9.27h-1.7Z"/>
    <path class="cls-1" d="m841.3,16.97c-.91,0-1.7-.2-2.36-.59-.66-.39-1.17-.95-1.52-1.66s-.53-1.55-.53-2.51.18-1.79.53-2.51.86-1.29,1.5-1.7,1.39-.61,2.25-.61c.52,0,1.03.09,1.52.26s.93.44,1.32.81c.39.37.7.85.92,1.44.22.59.34,1.3.34,2.15v.64h-7.37v-1.35h5.6c0-.47-.1-.9-.29-1.26s-.46-.66-.81-.87c-.35-.21-.76-.32-1.22-.32-.51,0-.95.12-1.32.37-.38.25-.67.57-.87.97-.2.4-.3.83-.3,1.29v1.06c0,.62.11,1.15.33,1.58s.53.77.92.99.86.34,1.38.34c.34,0,.65-.05.94-.15.28-.1.52-.25.73-.44.21-.2.36-.44.47-.73l1.71.31c-.14.5-.38.94-.73,1.32-.35.38-.79.67-1.32.88-.53.21-1.13.31-1.81.31Z"/>
    <path class="cls-1" d="m846.77,9.07v-1.56h7.82v1.56h-3.03v7.72h-1.76v-7.72h-3.04Z"/>
    <path class="cls-1" d="m860.41,16.97c-.9,0-1.67-.2-2.32-.61-.65-.41-1.14-.97-1.49-1.69-.35-.72-.52-1.55-.52-2.48s.18-1.77.53-2.5.85-1.29,1.5-1.69,1.4-.61,2.28-.61c.7,0,1.33.13,1.88.39.55.26,1,.62,1.34,1.09.34.47.54,1.01.61,1.64h-1.76c-.1-.43-.32-.81-.66-1.12s-.8-.47-1.38-.47c-.5,0-.94.13-1.32.4-.38.26-.67.64-.88,1.12-.21.49-.31,1.06-.31,1.72s.1,1.26.31,1.75c.21.49.5.87.87,1.14.38.27.82.4,1.33.4.34,0,.65-.06.93-.19.28-.13.51-.31.71-.55s.33-.52.4-.86h1.76c-.06.6-.26,1.14-.59,1.61s-.76.84-1.31,1.11c-.55.27-1.18.4-1.92.4Z"/>
    <path class="cls-1" d="m865.6,16.79l2.61-4.68h1.85l-2.61,4.68h-1.85Zm6.08,0v-7.73h-2.22c-.53,0-.94.12-1.23.37-.29.25-.44.57-.44.97s.14.71.41.95.65.36,1.14.36h2.87v1.46h-2.87c-.68,0-1.28-.11-1.77-.34s-.88-.55-1.15-.97c-.27-.42-.4-.91-.4-1.49s.14-1.09.41-1.51.67-.75,1.19-.99c.52-.23,1.13-.35,1.84-.35h3.92v9.27h-1.7Z"/>
    <path class="cls-1" d="m882.06,7.51v9.27h-1.77V7.51h1.77Zm4.52,3.86v1.56h-5.02v-1.56h5.02Zm1.26-3.86v9.27h-1.76V7.51h1.76Z"/>
    <path class="cls-1" d="m892.95,16.99c-.59,0-1.12-.11-1.59-.33-.48-.22-.85-.54-1.13-.96s-.41-.93-.41-1.54c0-.52.1-.95.3-1.29.2-.34.47-.61.81-.8s.72-.35,1.15-.45c.42-.1.85-.18,1.29-.23.55-.06,1.01-.12,1.35-.16.35-.04.6-.11.75-.21s.24-.25.24-.47v-.04c0-.53-.15-.94-.44-1.23-.3-.29-.74-.43-1.32-.43s-1.09.13-1.43.4c-.35.27-.59.56-.72.89l-1.7-.39c.2-.56.5-1.02.88-1.37.39-.35.84-.6,1.34-.76.51-.16,1.04-.24,1.6-.24.37,0,.76.04,1.18.13.42.09.81.24,1.17.47.36.23.66.56.9.98.23.42.35.97.35,1.65v6.16h-1.76v-1.27h-.07c-.12.23-.29.46-.52.69-.23.23-.53.41-.9.56s-.8.22-1.32.22Zm.39-1.45c.5,0,.93-.1,1.28-.3.36-.2.63-.46.82-.78.19-.32.28-.66.28-1.03v-1.2c-.06.06-.19.12-.37.18-.18.05-.39.1-.62.14-.23.04-.46.07-.68.1-.22.03-.41.06-.56.08-.35.04-.67.12-.96.22s-.52.25-.69.45c-.17.2-.26.45-.26.78,0,.45.17.78.5,1.01.33.23.75.34,1.26.34Z"/>
    <path class="cls-1" d="m.13,41.79v-9.27h1.81v3.89h.87l3.06-3.89h2.23l-3.59,4.51,3.63,4.76h-2.24l-2.79-3.71h-1.18v3.71H.13Z"/>
    <path class="cls-1" d="m13.45,41.97c-.87,0-1.63-.2-2.28-.6s-1.15-.96-1.51-1.67-.54-1.55-.54-2.51.18-1.8.54-2.52c.36-.72.86-1.28,1.51-1.68s1.41-.6,2.28-.6,1.63.2,2.28.6,1.15.96,1.51,1.68c.36.72.54,1.56.54,2.52s-.18,1.8-.54,2.51c-.36.72-.86,1.27-1.51,1.67s-1.41.6-2.28.6Zm0-1.52c.56,0,1.03-.15,1.4-.45s.65-.69.82-1.19c.18-.5.27-1.04.27-1.64s-.09-1.14-.27-1.63c-.18-.5-.45-.9-.82-1.2-.37-.3-.84-.45-1.4-.45s-1.04.15-1.41.45c-.37.3-.65.7-.83,1.2s-.27,1.04-.27,1.63.09,1.14.27,1.64.45.89.83,1.19c.37.3.84.45,1.41.45Z"/>
    <path class="cls-1" d="m23.77,41.97c-.66,0-1.25-.11-1.79-.34-.54-.23-1-.55-1.39-.97-.39-.42-.69-.93-.9-1.52s-.32-1.24-.32-1.95.11-1.37.32-1.96c.21-.59.51-1.09.9-1.52.39-.42.86-.75,1.39-.98.54-.23,1.14-.34,1.79-.34h.45v9.58h-.45Zm0-1.52h.25v-6.54h-.25c-.43,0-.81.09-1.13.26-.32.17-.59.41-.8.72s-.37.65-.48,1.05c-.11.39-.16.81-.16,1.25,0,.59.09,1.13.28,1.62.19.49.48.89.86,1.19s.86.45,1.44.45Zm0,4.49v-15.52h1.81v15.52h-1.81Zm1.81-2.97h-.45v-9.58h.45c.66,0,1.25.11,1.79.34.54.23,1,.56,1.39.98.39.42.69.93.9,1.52.21.59.32,1.24.32,1.96s-.11,1.36-.32,1.95-.51,1.09-.9,1.52c-.39.42-.85.75-1.39.97-.54.23-1.14.34-1.79.34Zm0-1.52c.43,0,.81-.09,1.14-.26.32-.17.59-.41.8-.71s.37-.65.48-1.04c.1-.39.16-.81.16-1.25,0-.58-.09-1.12-.28-1.62s-.47-.9-.85-1.2c-.38-.3-.86-.46-1.44-.46h-.26v6.54h.26Z"/>
    <path class="cls-1" d="m33.13,45.26c-.27,0-.52-.02-.74-.06-.22-.04-.39-.09-.49-.14l.43-1.48c.33.09.62.13.88.12.26-.01.49-.11.69-.29.2-.18.38-.48.53-.89l.22-.62-3.39-9.39h1.93l2.35,7.2h.1l2.35-7.2h1.94l-3.82,10.51c-.18.48-.4.89-.68,1.23-.27.34-.6.59-.98.76s-.82.25-1.32.25Z"/>
    <path class="cls-1" d="m43.38,32.51v9.27h-1.77v-9.27h1.77Zm4.52,3.86v1.56h-5.02v-1.56h5.02Zm1.26-3.86v9.27h-1.76v-9.27h1.76Z"/>
    <path class="cls-1" d="m51.57,41.79v-9.27h1.81v3.89h.87l3.06-3.89h2.23l-3.59,4.51,3.63,4.76h-2.24l-2.79-3.71h-1.18v3.71h-1.81Z"/>
    <path class="cls-1" d="m68.54,32.51v7.79h1.36v4.47h-1.78v-2.99h-7.14v-9.27h1.77v7.72h4.03v-7.72h1.76Z"/>
    <path class="cls-1" d="m73.66,39.26l4.09-6.74h1.94v9.27h-1.77v-6.75l-4.07,6.75h-1.96v-9.27h1.77v6.74Z"/>
    <path class="cls-1" d="m83.31,32.51v9.27h-1.81v-9.27h1.81Zm3.48,3.92v1.57h-4.94v-1.57h4.94Zm2.83,5.54c-.86,0-1.61-.2-2.26-.6-.64-.4-1.14-.96-1.5-1.68-.35-.72-.53-1.55-.53-2.5s.18-1.8.53-2.51c.35-.72.85-1.28,1.5-1.68.64-.4,1.4-.6,2.26-.6s1.62.2,2.26.6c.64.4,1.14.96,1.5,1.68.36.72.53,1.56.53,2.51s-.18,1.78-.53,2.5c-.36.72-.86,1.28-1.5,1.68-.64.4-1.4.6-2.26.6Zm0-1.55c.58,0,1.06-.15,1.43-.44.37-.3.65-.69.82-1.18.18-.49.27-1.03.27-1.62s-.09-1.13-.27-1.63c-.18-.49-.45-.89-.82-1.19-.37-.3-.85-.45-1.43-.45s-1.06.15-1.43.45c-.37.3-.65.69-.83,1.19-.18.49-.27,1.04-.27,1.63s.09,1.13.27,1.62c.18.49.45.88.83,1.18.37.3.85.44,1.43.44Z"/>
    <path class="cls-1" d="m101.06,36.66c0-1.51.2-2.91.6-4.18.4-1.27.98-2.44,1.74-3.52h1.65c-.3.4-.58.89-.83,1.47-.26.58-.48,1.21-.68,1.9-.19.69-.34,1.4-.45,2.14-.11.74-.16,1.47-.16,2.18,0,.96.09,1.93.28,2.91.19.98.44,1.89.77,2.73.32.84.68,1.53,1.07,2.06h-1.65c-.76-1.07-1.35-2.25-1.74-3.52-.4-1.27-.6-2.67-.6-4.18Z"/>
    <path class="cls-1" d="m113.91,34.78l-1.64.29c-.07-.21-.18-.41-.32-.6-.15-.19-.35-.34-.59-.46-.25-.12-.56-.18-.94-.18-.51,0-.94.11-1.28.34-.34.23-.51.52-.51.88,0,.31.11.56.34.75s.6.34,1.11.46l1.47.34c.85.2,1.49.5,1.91.91.42.41.63.94.63,1.6,0,.56-.16,1.05-.48,1.48-.32.43-.76.77-1.33,1.02-.57.25-1.23.37-1.98.37-1.04,0-1.89-.22-2.54-.67-.66-.45-1.06-1.08-1.21-1.9l1.74-.27c.11.46.33.8.67,1.03.34.23.78.35,1.32.35.59,0,1.06-.12,1.42-.37.35-.25.53-.55.53-.91,0-.29-.11-.53-.32-.73-.22-.2-.54-.35-.99-.45l-1.57-.34c-.87-.2-1.5-.51-1.92-.94s-.62-.98-.62-1.64c0-.55.15-1.03.46-1.44.31-.41.73-.73,1.27-.96.54-.23,1.16-.35,1.85-.35,1,0,1.79.22,2.37.65s.96,1.01,1.14,1.74Z"/>
    <path class="cls-1" d="m116.98,31.08c-.31,0-.58-.11-.81-.32-.22-.21-.33-.46-.33-.76s.11-.55.33-.76c.22-.21.49-.32.81-.32s.58.11.81.32c.22.21.33.46.33.76s-.11.55-.33.76c-.22.21-.49.32-.81.32Zm-.91,10.7v-9.27h1.81v9.27h-1.81Z"/>
    <path class="cls-1" d="m122.11,36.28v5.51h-1.81v-9.27h1.73v1.51h.11c.21-.49.55-.89,1.01-1.18.46-.3,1.03-.45,1.73-.45.63,0,1.19.13,1.66.4s.84.65,1.1,1.17c.26.52.39,1.16.39,1.93v5.9h-1.8v-5.68c0-.67-.18-1.2-.53-1.58s-.83-.57-1.44-.57c-.42,0-.79.09-1.11.27-.32.18-.58.45-.77.79-.19.35-.28.77-.28,1.26Z"/>
    <path class="cls-1" d="m142.25,35.78v1.56h-8.5v-1.56h8.5Z"/>
    <path class="cls-1" d="m151.87,41.97c-.9,0-1.67-.2-2.32-.61-.65-.41-1.14-.97-1.49-1.69-.35-.72-.52-1.54-.52-2.48s.18-1.77.53-2.5.85-1.29,1.5-1.69,1.4-.61,2.28-.61c.7,0,1.33.13,1.88.39.55.26,1,.62,1.34,1.09.34.47.54,1.01.61,1.64h-1.76c-.1-.43-.32-.81-.66-1.12s-.8-.47-1.38-.47c-.5,0-.94.13-1.32.4-.38.26-.67.64-.88,1.12-.21.49-.31,1.06-.31,1.72s.1,1.26.31,1.75.5.87.87,1.14c.38.27.82.41,1.33.41.34,0,.65-.06.93-.19.28-.13.51-.31.71-.55.19-.24.33-.52.4-.86h1.76c-.06.6-.26,1.13-.59,1.61s-.76.84-1.31,1.11c-.55.27-1.18.41-1.92.41Z"/>
    <path class="cls-1" d="m161.52,41.97c-.87,0-1.63-.2-2.28-.6-.65-.4-1.15-.96-1.51-1.67-.36-.72-.54-1.55-.54-2.51s.18-1.8.54-2.52c.36-.72.86-1.28,1.51-1.68.65-.4,1.41-.6,2.28-.6s1.63.2,2.28.6c.65.4,1.15.96,1.51,1.68.36.72.54,1.56.54,2.52s-.18,1.8-.54,2.51c-.36.72-.86,1.27-1.51,1.67-.65.4-1.41.6-2.28.6Zm0-1.52c.56,0,1.03-.15,1.4-.45.37-.3.64-.69.82-1.19.18-.5.27-1.04.27-1.64s-.09-1.14-.27-1.63c-.18-.5-.45-.9-.82-1.2-.37-.3-.84-.45-1.4-.45s-1.04.15-1.41.45c-.37.3-.65.7-.83,1.2s-.27,1.04-.27,1.63.09,1.14.27,1.64.46.89.83,1.19.84.45,1.41.45Z"/>
    <path class="cls-1" d="m174.81,34.78l-1.64.29c-.07-.21-.18-.41-.32-.6-.15-.19-.35-.34-.59-.46-.25-.12-.56-.18-.94-.18-.51,0-.94.11-1.28.34s-.51.52-.51.88c0,.31.11.56.34.75s.6.34,1.11.46l1.47.34c.85.2,1.49.5,1.91.91.42.41.63.94.63,1.6,0,.56-.16,1.05-.48,1.48-.32.43-.76.77-1.33,1.02-.57.25-1.23.37-1.98.37-1.04,0-1.89-.22-2.54-.67-.66-.45-1.06-1.08-1.21-1.9l1.75-.27c.11.46.33.8.67,1.03s.78.35,1.32.35c.59,0,1.06-.12,1.42-.37.35-.25.53-.55.53-.91,0-.29-.11-.53-.32-.73-.22-.2-.54-.35-.99-.45l-1.57-.34c-.87-.2-1.5-.51-1.92-.94s-.62-.98-.62-1.64c0-.55.15-1.03.46-1.44s.73-.73,1.27-.96c.54-.23,1.16-.35,1.85-.35,1,0,1.79.22,2.37.65.58.43.96,1.01,1.14,1.74Z"/>
    <path class="cls-1" d="m179.31,40.1l-.09.66c-.06.48-.16.99-.31,1.51-.14.53-.29,1.01-.44,1.46-.15.45-.27.81-.37,1.07h-1.28c.05-.25.12-.59.22-1.01.09-.42.18-.9.27-1.42.09-.52.16-1.06.2-1.6l.06-.68h1.74Z"/>
    <path class="cls-1" d="m190.5,32.51v1.45h-5.07v-1.45h5.07Zm-3.71-2.22h1.81v8.77c0,.35.05.61.16.79.1.17.24.29.41.36.17.06.35.09.55.09.14,0,.27,0,.38-.03.11-.02.19-.04.25-.05l.33,1.49c-.1.04-.25.08-.45.12-.19.04-.44.06-.72.07-.48,0-.92-.08-1.33-.25-.41-.18-.74-.45-1-.82-.25-.37-.38-.83-.38-1.39v-9.15Z"/>
    <path class="cls-1" d="m196.38,45.46c-.74,0-1.37-.1-1.9-.29s-.96-.45-1.29-.77c-.33-.32-.58-.67-.75-1.04l1.55-.64c.11.18.25.37.44.56.18.2.43.37.75.51.32.14.72.21,1.22.21.68,0,1.25-.17,1.7-.5.45-.33.67-.86.67-1.58v-1.82h-.11c-.11.2-.26.42-.47.66s-.48.45-.84.63c-.35.18-.82.27-1.38.27-.73,0-1.39-.17-1.98-.52-.59-.34-1.05-.85-1.39-1.53-.34-.67-.51-1.5-.51-2.49s.17-1.83.5-2.54c.34-.7.8-1.24,1.38-1.62.59-.38,1.25-.56,2-.56.58,0,1.04.1,1.39.29.35.19.63.41.83.67.2.25.35.48.46.67h.13v-1.5h1.77v9.48c0,.8-.19,1.45-.56,1.96-.37.51-.87.89-1.5,1.13-.63.25-1.34.37-2.13.37Zm-.02-5.31c.52,0,.96-.12,1.32-.37.36-.24.63-.59.82-1.05.19-.46.28-1,.28-1.65s-.09-1.17-.28-1.65c-.19-.48-.46-.85-.82-1.11s-.8-.4-1.33-.4-1,.14-1.36.42-.63.66-.82,1.14c-.18.48-.28,1.01-.28,1.61s.09,1.14.28,1.6c.18.46.46.82.82,1.08s.81.39,1.35.39Z"/>
    <path class="cls-1" d="m214.77,35.78v1.56h-8.5v-1.56h8.5Z"/>
    <path class="cls-1" d="m224.39,41.97c-.9,0-1.67-.2-2.32-.61-.65-.41-1.14-.97-1.49-1.69-.35-.72-.52-1.54-.52-2.48s.18-1.77.53-2.5.85-1.29,1.5-1.69,1.4-.61,2.28-.61c.7,0,1.33.13,1.88.39.55.26,1,.62,1.34,1.09.34.47.54,1.01.61,1.64h-1.76c-.1-.43-.32-.81-.66-1.12s-.8-.47-1.38-.47c-.5,0-.94.13-1.32.4-.38.26-.67.64-.88,1.12-.21.49-.31,1.06-.31,1.72s.1,1.26.31,1.75.5.87.87,1.14c.38.27.82.41,1.33.41.34,0,.65-.06.93-.19.28-.13.51-.31.71-.55.19-.24.33-.52.4-.86h1.76c-.06.6-.26,1.13-.59,1.61s-.76.84-1.31,1.11c-.55.27-1.18.41-1.92.41Z"/>
    <path class="cls-1" d="m234.47,32.51v1.45h-5.07v-1.45h5.07Zm-3.71-2.22h1.81v8.77c0,.35.05.61.16.79.1.17.24.29.41.36.17.06.35.09.55.09.14,0,.27,0,.38-.03.11-.02.19-.04.25-.05l.33,1.49c-.1.04-.25.08-.45.12-.19.04-.44.06-.72.07-.48,0-.92-.08-1.33-.25-.41-.18-.74-.45-1-.82-.25-.37-.38-.83-.38-1.39v-9.15Z"/>
    <path class="cls-1" d="m240.35,45.46c-.74,0-1.37-.1-1.9-.29s-.96-.45-1.29-.77c-.33-.32-.58-.67-.75-1.04l1.55-.64c.11.18.25.37.44.56.18.2.43.37.75.51.32.14.72.21,1.22.21.68,0,1.25-.17,1.7-.5.45-.33.67-.86.67-1.58v-1.82h-.11c-.11.2-.26.42-.47.66s-.48.45-.84.63c-.35.18-.82.27-1.38.27-.73,0-1.39-.17-1.98-.52-.59-.34-1.05-.85-1.39-1.53-.34-.67-.51-1.5-.51-2.49s.17-1.83.5-2.54c.34-.7.8-1.24,1.38-1.62.59-.38,1.25-.56,2-.56.58,0,1.04.1,1.39.29.35.19.63.41.83.67.2.25.35.48.46.67h.13v-1.5h1.77v9.48c0,.8-.19,1.45-.56,1.96-.37.51-.87.89-1.5,1.13-.63.25-1.34.37-2.13.37Zm-.02-5.31c.52,0,.96-.12,1.32-.37.36-.24.63-.59.82-1.05.19-.46.28-1,.28-1.65s-.09-1.17-.28-1.65c-.19-.48-.46-.85-.82-1.11s-.8-.4-1.33-.4-1,.14-1.36.42-.63.66-.82,1.14c-.18.48-.28,1.01-.28,1.61s.09,1.14.28,1.6c.18.46.46.82.82,1.08s.81.39,1.35.39Z"/>
    <path class="cls-1" d="m253.22,39.26l4.09-6.74h1.94v9.27h-1.77v-6.75l-4.07,6.75h-1.96v-9.27h1.77v6.74Z"/>
    <path class="cls-1" d="m267.95,32.51v9.27h-1.77v-9.27h1.77Zm4.52,3.86v1.56h-5.02v-1.56h5.02Zm1.26-3.86v9.27h-1.76v-9.27h1.76Z"/>
    <path class="cls-1" d="m278.84,41.99c-.59,0-1.12-.11-1.59-.33-.48-.22-.85-.54-1.13-.96-.28-.42-.41-.93-.41-1.54,0-.52.1-.95.3-1.29.2-.34.47-.61.81-.8s.72-.35,1.15-.45c.42-.1.85-.18,1.29-.23.55-.06,1.01-.12,1.35-.16.35-.04.6-.11.75-.21s.24-.25.24-.47v-.04c0-.53-.15-.94-.44-1.23-.3-.29-.74-.43-1.32-.43s-1.09.13-1.43.4c-.35.27-.59.56-.72.89l-1.7-.39c.2-.56.5-1.02.88-1.37.39-.35.84-.6,1.34-.76.51-.16,1.04-.24,1.6-.24.37,0,.76.04,1.18.13.42.09.81.24,1.17.47.36.23.66.56.9.98.23.42.35.97.35,1.65v6.16h-1.76v-1.27h-.07c-.12.23-.29.46-.52.69-.23.22-.53.41-.9.56-.37.15-.8.22-1.32.22Zm.39-1.45c.5,0,.93-.1,1.28-.3.36-.2.63-.46.82-.78.19-.32.28-.66.28-1.03v-1.2c-.06.06-.19.12-.37.18-.18.05-.39.1-.62.14-.23.04-.46.07-.68.1-.22.03-.41.06-.56.08-.35.04-.67.12-.96.22s-.52.25-.69.45c-.17.2-.26.45-.26.78,0,.45.17.78.5,1.01s.75.34,1.26.34Z"/>
    <path class="cls-1" d="m289.72,41.97c-.87,0-1.63-.2-2.28-.6-.65-.4-1.15-.96-1.51-1.67-.36-.72-.54-1.55-.54-2.51s.18-1.8.54-2.52c.36-.72.86-1.28,1.51-1.68.65-.4,1.41-.6,2.28-.6s1.63.2,2.28.6c.65.4,1.15.96,1.51,1.68.36.72.54,1.56.54,2.52s-.18,1.8-.54,2.51c-.36.72-.86,1.27-1.51,1.67-.65.4-1.41.6-2.28.6Zm0-1.52c.56,0,1.03-.15,1.4-.45.37-.3.64-.69.82-1.19.18-.5.27-1.04.27-1.64s-.09-1.14-.27-1.63c-.18-.5-.45-.9-.82-1.2-.37-.3-.84-.45-1.4-.45s-1.04.15-1.41.45c-.37.3-.65.7-.83,1.2s-.27,1.04-.27,1.63.09,1.14.27,1.64.46.89.83,1.19.84.45,1.41.45Z"/>
    <path class="cls-1" d="m303.21,29.06l.75,1.14c-.28.25-.59.43-.95.54-.35.11-.76.17-1.22.2-.46.03-.98.05-1.58.07-.67.02-1.22.16-1.65.43s-.76.66-.99,1.18c-.23.52-.38,1.17-.45,1.96h.11c.3-.58.72-1.01,1.26-1.29.54-.29,1.14-.43,1.81-.43.75,0,1.41.17,2,.51.58.34,1.04.84,1.38,1.5.34.66.5,1.46.5,2.41s-.18,1.79-.53,2.49c-.35.7-.85,1.24-1.49,1.62-.64.38-1.39.57-2.25.57s-1.62-.2-2.26-.59-1.14-.97-1.49-1.75c-.35-.77-.53-1.73-.53-2.86v-.92c0-2.12.38-3.72,1.14-4.79.76-1.07,1.89-1.62,3.39-1.65.49-.01.92-.02,1.3,0,.38,0,.72-.01,1-.05.29-.04.53-.14.72-.3Zm-3.27,11.4c.5,0,.94-.13,1.3-.38.36-.25.64-.62.84-1.09s.3-1.03.3-1.67-.1-1.16-.3-1.6c-.2-.44-.48-.77-.84-1.01-.37-.23-.81-.35-1.32-.35-.38,0-.72.07-1.01.2s-.55.32-.76.58c-.21.25-.37.56-.49.93-.12.36-.18.78-.18,1.25,0,.96.22,1.72.66,2.29s1.04.85,1.81.85Z"/>
    <path class="cls-1" d="m310.12,41.97c-.87,0-1.63-.2-2.28-.6-.65-.4-1.15-.96-1.51-1.67-.36-.72-.54-1.55-.54-2.51s.18-1.8.54-2.52c.36-.72.86-1.28,1.51-1.68.65-.4,1.41-.6,2.28-.6s1.63.2,2.28.6c.65.4,1.15.96,1.51,1.68.36.72.54,1.56.54,2.52s-.18,1.8-.54,2.51c-.36.72-.86,1.27-1.51,1.67-.65.4-1.41.6-2.28.6Zm0-1.52c.56,0,1.03-.15,1.4-.45.37-.3.64-.69.82-1.19.18-.5.27-1.04.27-1.64s-.09-1.14-.27-1.63c-.18-.5-.45-.9-.82-1.2-.37-.3-.84-.45-1.4-.45s-1.04.15-1.41.45c-.37.3-.65.7-.83,1.2s-.27,1.04-.27,1.63.09,1.14.27,1.64.46.89.83,1.19.84.45,1.41.45Z"/>
    <path class="cls-1" d="m316.46,45.26v-12.75h1.76v1.5h.15c.1-.19.26-.42.45-.67.2-.25.47-.48.82-.67.35-.19.81-.29,1.39-.29.75,0,1.42.19,2,.57.59.38,1.05.92,1.38,1.64.34.71.5,1.57.5,2.57s-.17,1.86-.5,2.57c-.33.71-.79,1.26-1.38,1.65-.58.38-1.25.58-2,.58-.56,0-1.02-.09-1.38-.28-.36-.19-.63-.41-.84-.66s-.36-.48-.46-.68h-.11v4.92h-1.8Zm1.77-8.11c0,.65.09,1.22.28,1.71.19.49.46.87.82,1.15.36.28.8.41,1.32.41s.99-.14,1.35-.43c.36-.29.64-.68.82-1.17.19-.5.28-1.05.28-1.67s-.09-1.16-.28-1.65c-.18-.49-.46-.87-.82-1.15s-.82-.42-1.36-.42-.96.13-1.33.4-.63.65-.82,1.13c-.18.48-.28,1.05-.28,1.69Z"/>
    <path class="cls-1" d="m330.85,41.97c-.87,0-1.63-.2-2.28-.6-.65-.4-1.15-.96-1.51-1.67-.36-.72-.54-1.55-.54-2.51s.18-1.8.54-2.52c.36-.72.86-1.28,1.51-1.68.65-.4,1.41-.6,2.28-.6s1.63.2,2.28.6c.65.4,1.15.96,1.51,1.68.36.72.54,1.56.54,2.52s-.18,1.8-.54,2.51c-.36.72-.86,1.27-1.51,1.67-.65.4-1.41.6-2.28.6Zm0-1.52c.56,0,1.03-.15,1.4-.45.37-.3.64-.69.82-1.19.18-.5.27-1.04.27-1.64s-.09-1.14-.27-1.63c-.18-.5-.45-.9-.82-1.2-.37-.3-.84-.45-1.4-.45s-1.04.15-1.41.45c-.37.3-.65.7-.83,1.2s-.27,1.04-.27,1.63.09,1.14.27,1.64.46.89.83,1.19.84.45,1.41.45Z"/>
    <path class="cls-1" d="m336.67,34.07v-1.56h7.82v1.56h-3.03v7.72h-1.76v-7.72h-3.04Z"/>
    <path class="cls-1" d="m349.87,36.66c0,1.52-.2,2.91-.6,4.18-.4,1.27-.98,2.45-1.74,3.52h-1.65c.3-.4.58-.89.83-1.47.26-.58.48-1.21.68-1.9s.34-1.41.45-2.15c.11-.74.16-1.47.16-2.19,0-.95-.09-1.92-.28-2.9s-.44-1.89-.77-2.73c-.32-.84-.68-1.53-1.07-2.06h1.65c.76,1.07,1.35,2.25,1.74,3.52.4,1.27.6,2.66.6,4.18Z"/>
  </g>
  <g>
    <path class="cls-1" d="m678.28.45v1.52h-9.51V.45h9.51Zm-6.31,0v9.27h-1.78V.45h1.78Zm3.15,0h1.78v6.77c0,.28.05.49.14.63.09.14.22.24.37.29.16.05.32.08.5.08.13,0,.27-.01.4-.04.13-.02.24-.04.32-.06v1.52c-.15.04-.34.09-.56.14-.22.05-.48.07-.77.07-.65,0-1.17-.19-1.58-.57-.41-.38-.61-1.03-.61-1.94V.45Z"/>
    <path class="cls-1" d="m669.67,26.72v-1.35l4.18-4.34c.45-.47.82-.88,1.11-1.24.29-.36.51-.7.66-1.02.14-.32.22-.66.22-1.03,0-.41-.1-.77-.29-1.07-.19-.3-.46-.53-.79-.69-.33-.16-.71-.24-1.13-.24-.44,0-.83.09-1.16.27s-.58.44-.76.77c-.18.33-.27.72-.27,1.16h-1.78c0-.75.17-1.41.52-1.97s.82-1,1.42-1.31c.6-.31,1.29-.47,2.06-.47s1.46.15,2.06.46c.59.31,1.06.73,1.39,1.26.33.53.5,1.13.5,1.79,0,.46-.09.91-.26,1.35-.17.44-.47.93-.89,1.46-.42.54-1.01,1.19-1.76,1.95l-2.46,2.57v.09h5.57v1.6h-8.14Z"/>
  </g>
  <rect class="cls-1" x="668" y="11.25" width="12" height="1.5"/>
</svg>