<?xml version="1.0" encoding="UTF-8"?>
<svg id="Layer_1" data-name="Layer 1" xmlns="http://www.w3.org/2000/svg" viewBox="0 0 160.26 80.13">
  <defs>
    <style>
      .cls-1 {
        fill: #fff;
      }
    </style>
  </defs>
  <g>
    <path class="cls-1" d="m15.15,9.39V.66h1.27v8.73h-1.27Zm1.17-2.22v-1.56s.21,0,.21,0l2.61-2.77h1.53l-2.97,3.15h-.2l-1.17,1.17Zm2.96,2.22l-2.34-3.11.88-.89,3.03,4h-1.56Z"/>
    <path class="cls-1" d="m16.42,19.9v3.89h-1.27v-6.55h1.22v1.07h.08c.15-.35.39-.62.71-.84.32-.21.73-.32,1.22-.32.45,0,.84.09,1.17.28.34.19.6.46.78.83.18.37.28.82.28,1.36v4.16h-1.27v-4.01c0-.47-.12-.85-.37-1.11-.25-.27-.59-.4-1.02-.4-.3,0-.56.06-.79.19-.23.13-.41.31-.54.56-.13.25-.2.54-.2.89Z"/>
    <path class="cls-1" d="m25.76,20.92v-1.15h5.76v1.15h-5.76Zm2.31,2.31v-5.76h1.15v5.76h-1.15Z"/>
    <path class="cls-1" d="m36.66,23.79v-8.73h1.27v8.73h-1.27Zm1.17-2.22v-1.56s.21,0,.21,0l2.61-2.77h1.53l-2.97,3.15h-.2l-1.17,1.17Zm2.96,2.22l-2.34-3.11.88-.89,3.03,4h-1.56Z"/>
    <path class="cls-1" d="m50.38,18.87v1.11h-3.87v-1.11h3.87Z"/>
    <path class="cls-1" d="m58.55,15.06v8.73h-1.32v-7.41h-.05l-2.09,1.36v-1.26l2.18-1.42h1.28Z"/>
  </g>
  <g>
    <path class="cls-1" d="m12.27,12.04h-1.88c-.07-.4-.21-.76-.4-1.06-.2-.31-.44-.56-.72-.78s-.6-.37-.96-.48c-.35-.11-.73-.16-1.12-.16-.71,0-1.35.18-1.91.54s-1,.88-1.33,1.58c-.32.69-.49,1.54-.49,2.54s.16,1.86.49,2.55c.32.69.77,1.22,1.33,1.57.56.35,1.2.53,1.9.53.39,0,.76-.05,1.11-.16.35-.11.67-.26.96-.47.29-.21.53-.47.73-.77.2-.3.34-.65.41-1.05h1.88c-.1.61-.29,1.17-.58,1.68-.29.51-.66.95-1.1,1.32-.45.37-.96.65-1.54.85s-1.2.3-1.88.3c-1.07,0-2.02-.25-2.86-.76-.84-.51-1.5-1.24-1.98-2.19-.48-.95-.72-2.08-.72-3.4s.24-2.45.72-3.4c.48-.95,1.14-1.68,1.98-2.19.84-.51,1.79-.76,2.86-.76.66,0,1.27.09,1.84.28.57.19,1.08.46,1.54.82.45.36.83.8,1.13,1.32s.5,1.11.6,1.77Z"/>
    <path class="cls-1" d="m64.47,13.14v-1.58h7.73v1.58h-7.73Zm0,3.72v-1.58h7.73v1.58h-7.73Z"/>
    <path class="cls-1" d="m90.13,12.04h-1.88c-.07-.4-.21-.76-.4-1.06-.2-.31-.44-.56-.72-.78-.29-.21-.6-.37-.96-.48-.35-.11-.73-.16-1.12-.16-.71,0-1.35.18-1.91.54s-1,.88-1.33,1.58c-.32.69-.49,1.54-.49,2.54s.16,1.86.49,2.55c.32.69.77,1.22,1.33,1.57.56.35,1.2.53,1.9.53.39,0,.76-.05,1.11-.16.35-.11.67-.26.96-.47.29-.21.53-.47.73-.77.2-.3.34-.65.41-1.05h1.88c-.1.61-.29,1.17-.58,1.68-.29.51-.66.95-1.11,1.32-.45.37-.96.65-1.54.85s-1.2.3-1.88.3c-1.07,0-2.02-.25-2.86-.76-.84-.51-1.5-1.24-1.98-2.19-.48-.95-.72-2.08-.72-3.4s.24-2.45.72-3.4c.48-.95,1.14-1.68,1.98-2.19.84-.51,1.79-.76,2.86-.76.66,0,1.27.09,1.84.28s1.08.46,1.54.82c.46.36.83.8,1.13,1.32s.5,1.11.6,1.77Z"/>
    <path class="cls-1" d="m142.34,14.45v-1.59h7.73v1.59h-7.73Zm0,3.72v-1.59h7.73v1.59h-7.73Z"/>
    <path class="cls-1" d="m2.43,54.45v-1.59h7.73v1.59H2.43Zm0,3.72v-1.59h7.73v1.59H2.43Z"/>
  </g>
  <g>
    <path class="cls-1" d="m93.62,6.76v3.89h-1.27v-6.55h1.22v1.07h.08c.15-.35.39-.62.71-.83s.73-.32,1.22-.32c.45,0,.84.09,1.17.28.33.19.59.46.78.83.18.37.28.82.28,1.36v4.16h-1.27v-4.01c0-.47-.12-.85-.37-1.11s-.59-.4-1.02-.4c-.3,0-.56.06-.79.19s-.41.31-.54.56c-.13.25-.2.54-.2.89Z"/>
    <path class="cls-1" d="m106.54,5.73v1.11h-3.87v-1.11h3.87Z"/>
    <path class="cls-1" d="m114.72,1.92v8.73h-1.32V3.24h-.05l-2.09,1.36v-1.26l2.18-1.42h1.28Z"/>
    <path class="cls-1" d="m93.62,21.16v3.89h-1.27v-6.55h1.22v1.07h.08c.15-.35.39-.62.71-.83s.73-.32,1.22-.32c.45,0,.84.09,1.17.28.33.19.59.46.78.83.18.37.28.82.28,1.36v4.16h-1.27v-4.01c0-.47-.12-.85-.37-1.11s-.59-.4-1.02-.4c-.3,0-.56.06-.79.19s-.41.31-.54.56c-.13.25-.2.54-.2.89Z"/>
    <path class="cls-1" d="m102.95,22.18v-1.15h5.76v1.15h-5.76Zm2.31,2.31v-5.76h1.15v5.76h-1.15Z"/>
    <path class="cls-1" d="m113.86,25.05v-8.73h1.27v8.73h-1.27Zm1.17-2.22v-1.56s.21,0,.21,0l2.61-2.77h1.53l-2.97,3.15h-.2l-1.17,1.17Zm2.96,2.22l-2.34-3.11.88-.89,3.03,4h-1.56Z"/>
    <path class="cls-1" d="m127.57,20.13v1.11h-3.87v-1.11h3.87Z"/>
    <path class="cls-1" d="m135.74,16.32v8.73h-1.32v-7.41h-.05l-2.09,1.36v-1.26l2.18-1.42h1.28Z"/>
  </g>
  <g>
    <path class="cls-1" d="m13.38,45.98c0-1.51.2-2.91.6-4.18.4-1.27.98-2.45,1.75-3.52h1.65c-.3.4-.58.89-.83,1.47-.26.58-.48,1.21-.68,1.9s-.34,1.41-.45,2.14c-.11.74-.16,1.47-.16,2.18,0,.96.09,1.93.28,2.91.19.98.45,1.89.77,2.73.32.84.68,1.53,1.08,2.06h-1.65c-.76-1.07-1.35-2.25-1.75-3.52-.4-1.27-.6-2.67-.6-4.18Z"/>
    <path class="cls-1" d="m21.08,45.6v5.51h-1.8v-9.27h1.73v1.51h.11c.21-.49.55-.88,1-1.18.46-.3,1.03-.45,1.73-.45.63,0,1.18.13,1.66.4.47.26.84.66,1.1,1.17.26.52.39,1.16.39,1.93v5.9h-1.81v-5.68c0-.67-.17-1.2-.53-1.58-.35-.38-.83-.57-1.44-.57-.42,0-.79.09-1.11.27-.32.18-.58.45-.77.79-.19.35-.28.77-.28,1.26Z"/>
    <path class="cls-1" d="m34.3,47.05v-1.62h8.16v1.62h-8.16Zm3.27,3.27v-8.16h1.62v8.16h-1.62Z"/>
    <path class="cls-1" d="m49.76,51.11v-12.36h1.8v12.36h-1.8Zm1.66-3.15v-2.2s.3,0,.3,0l3.69-3.92h2.16l-4.21,4.47h-.28l-1.66,1.66Zm4.2,3.15l-3.32-4.41,1.24-1.26,4.29,5.67h-2.22Z"/>
    <path class="cls-1" d="m69.18,44.14v1.57h-5.48v-1.57h5.48Z"/>
    <path class="cls-1" d="m80.76,38.74v12.36h-1.87v-10.49h-.07l-2.96,1.93v-1.79l3.08-2.02h1.82Z"/>
    <path class="cls-1" d="m87.6,44.93c0,1.52-.2,2.91-.6,4.18s-.98,2.44-1.74,3.52h-1.65c.3-.4.58-.89.83-1.47.26-.58.48-1.21.68-1.91.19-.69.34-1.41.45-2.15.11-.74.16-1.47.16-2.19,0-.95-.09-1.92-.28-2.9-.19-.98-.44-1.89-.77-2.73s-.68-1.53-1.07-2.06h1.65c.76,1.07,1.35,2.25,1.74,3.52s.6,2.66.6,4.18Z"/>
    <path class="cls-1" d="m13.38,65.98c0-1.51.2-2.91.6-4.18.4-1.27.98-2.45,1.75-3.52h1.65c-.3.4-.58.89-.83,1.47-.26.58-.48,1.21-.68,1.9s-.34,1.41-.45,2.14c-.11.74-.16,1.47-.16,2.18,0,.96.09,1.93.28,2.91.19.98.45,1.89.77,2.73.32.84.68,1.53,1.08,2.06h-1.65c-.76-1.07-1.35-2.25-1.75-3.52-.4-1.27-.6-2.67-.6-4.18Z"/>
    <path class="cls-1" d="m21.08,65.6v5.51h-1.8v-9.27h1.73v1.51h.11c.21-.49.55-.88,1-1.18.46-.3,1.03-.45,1.73-.45.63,0,1.18.13,1.66.4.47.26.84.66,1.1,1.17.26.52.39,1.16.39,1.93v5.9h-1.81v-5.68c0-.67-.17-1.2-.53-1.58-.35-.38-.83-.57-1.44-.57-.42,0-.79.09-1.11.27-.32.18-.58.45-.77.79-.19.35-.28.77-.28,1.26Z"/>
    <path class="cls-1" d="m39.4,64.14v1.57h-5.48v-1.57h5.48Z"/>
    <path class="cls-1" d="m50.98,58.74v12.36h-1.87v-10.49h-.07l-2.96,1.93v-1.79l3.08-2.02h1.82Z"/>
    <path class="cls-1" d="m57.82,64.93c0,1.52-.2,2.91-.6,4.18s-.98,2.44-1.74,3.52h-1.65c.3-.4.58-.89.83-1.47.26-.58.48-1.21.68-1.91.19-.69.34-1.41.45-2.15.11-.74.16-1.47.16-2.19,0-.95-.09-1.92-.28-2.9-.19-.98-.44-1.89-.77-2.73s-.68-1.53-1.07-2.06h1.65c.76,1.07,1.35,2.25,1.74,3.52s.6,2.66.6,4.18Z"/>
    <path class="cls-1" d="m62.05,71.22c-.33,0-.62-.12-.86-.35-.24-.24-.35-.52-.35-.85,0-.33.11-.61.35-.85.24-.24.52-.35.86-.35s.61.12.85.35c.24.24.36.52.36.85,0,.22-.06.42-.17.61-.11.18-.26.33-.44.44-.18.11-.38.16-.6.16Zm.99-12.48l-.16,8.81h-1.67l-.16-8.81h1.99Z"/>
    <path class="cls-1" d="m70.27,71.11v-12.36h1.8v12.36h-1.8Zm1.66-3.15v-2.2s.3,0,.3,0l3.69-3.92h2.16l-4.21,4.47h-.28l-1.66,1.66Zm4.2,3.15l-3.32-4.41,1.24-1.26,4.29,5.67h-2.22Z"/>
    <path class="cls-1" d="m81.01,71.22c-.33,0-.62-.12-.86-.35-.24-.24-.35-.52-.35-.85,0-.33.11-.61.35-.85.24-.24.52-.35.86-.35s.61.12.85.35c.24.24.36.52.36.85,0,.22-.06.42-.17.61-.11.18-.26.33-.44.44-.18.11-.38.16-.6.16Zm.99-12.48l-.16,8.81h-1.67l-.16-8.81h1.99Z"/>
  </g>
  <rect class="cls-1" x="13" y="54.75" width="75" height="1.5"/>
</svg>