<?xml version="1.0" encoding="UTF-8"?>
<svg id="Layer_1" data-name="Layer 1" xmlns="http://www.w3.org/2000/svg" viewBox="0 0 160 80">
  <defs>
    <style>
      .cls-1 {
        fill: #fff;
      }
    </style>
  </defs>
  <g>
    <path class="cls-1" d="m14.15,9.89V1.16h1.27v8.73h-1.27Zm1.17-2.22v-1.56s.21,0,.21,0l2.61-2.77h1.53l-2.97,3.15h-.2l-1.17,1.17Zm2.96,2.22l-2.34-3.11.88-.89,3.03,4h-1.56Z"/>
    <path class="cls-1" d="m15.42,20.4v3.89h-1.27v-6.54h1.22v1.07h.08c.15-.35.39-.62.71-.83.32-.21.73-.32,1.22-.32.45,0,.84.09,1.17.28.34.19.6.46.78.83s.28.82.28,1.36v4.16h-1.27v-4.01c0-.47-.12-.85-.37-1.11s-.59-.4-1.02-.4c-.3,0-.56.06-.79.19-.23.13-.41.32-.54.56-.13.25-.2.54-.2.89Z"/>
  </g>
  <g>
    <path class="cls-1" d="m2.04,20.89H.06l4.45-12.36h2.16l4.45,12.36h-1.98l-3.5-10.12h-.1l-3.5,10.12Zm.33-4.84h6.42v1.57H2.38v-1.57Z"/>
    <path class="cls-1" d="m26.84,14.95v-1.59h7.73v1.59h-7.73Zm0,3.72v-1.59h7.73v1.59h-7.73Z"/>
  </g>
  <g>
    <path class="cls-1" d="m61.09,7.1v5.51h-1.81V3.33h1.73v1.51h.11c.21-.49.55-.88,1.01-1.18.46-.3,1.03-.45,1.73-.45.63,0,1.19.13,1.66.4.47.26.84.66,1.1,1.17.26.52.39,1.16.39,1.93v5.9h-1.81v-5.68c0-.67-.17-1.2-.53-1.58-.35-.38-.83-.57-1.44-.57-.42,0-.79.09-1.11.27-.32.18-.58.45-.77.79-.19.35-.28.77-.28,1.26Z"/>
    <path class="cls-1" d="m70.72,12.72c-.33,0-.62-.12-.86-.35-.24-.24-.35-.52-.35-.85,0-.33.11-.61.35-.85.24-.24.52-.35.86-.35s.61.12.85.35c.24.24.36.52.36.85,0,.22-.06.42-.17.61-.11.18-.26.33-.44.44-.18.11-.38.16-.6.16Zm.99-12.48l-.16,8.81h-1.67l-.16-8.81h1.99Z"/>
    <path class="cls-1" d="m40.21,27.47c0-1.51.2-2.91.6-4.18.4-1.27.98-2.45,1.74-3.52h1.65c-.3.4-.58.89-.83,1.47-.26.58-.48,1.21-.68,1.9-.19.69-.34,1.41-.45,2.14-.11.74-.16,1.47-.16,2.18,0,.96.09,1.93.28,2.91.19.98.44,1.89.77,2.73.32.84.68,1.53,1.07,2.06h-1.65c-.76-1.07-1.35-2.25-1.74-3.52-.4-1.27-.6-2.67-.6-4.18Z"/>
    <path class="cls-1" d="m47.92,27.1v5.51h-1.81v-9.27h1.73v1.51h.11c.21-.49.55-.88,1.01-1.18.46-.3,1.03-.45,1.73-.45.63,0,1.19.13,1.66.4s.84.66,1.1,1.17c.26.52.39,1.16.39,1.93v5.9h-1.8v-5.68c0-.67-.18-1.2-.53-1.58-.35-.38-.83-.57-1.44-.57-.42,0-.79.09-1.11.27-.32.18-.58.45-.77.79-.19.35-.28.77-.28,1.26Z"/>
    <path class="cls-1" d="m66.23,26.6v1.56h-5.48v-1.56h5.48Z"/>
    <path class="cls-1" d="m73.14,32.61v-12.36h1.8v12.36h-1.8Zm1.66-3.15v-2.2s.3,0,.3,0l3.69-3.92h2.16l-4.21,4.47h-.28l-1.66,1.66Zm4.2,3.15l-3.32-4.41,1.24-1.26,4.29,5.67h-2.22Z"/>
    <path class="cls-1" d="m86.08,27.47c0,1.52-.2,2.91-.6,4.18-.4,1.27-.98,2.45-1.74,3.52h-1.65c.3-.4.58-.89.83-1.47.26-.58.48-1.21.68-1.9s.34-1.41.45-2.15c.11-.74.16-1.47.16-2.19,0-.95-.09-1.92-.28-2.9s-.44-1.89-.77-2.73c-.32-.84-.68-1.53-1.07-2.06h1.65c.76,1.07,1.35,2.25,1.74,3.52.4,1.27.6,2.66.6,4.18Z"/>
    <path class="cls-1" d="m90.31,32.72c-.33,0-.62-.12-.86-.35-.24-.24-.35-.52-.35-.85,0-.33.11-.61.35-.85.24-.24.52-.35.86-.35s.61.12.85.35c.24.24.36.52.36.85,0,.22-.06.42-.17.61-.11.18-.26.33-.44.44-.18.11-.38.16-.6.16Zm.99-12.48l-.16,8.81h-1.67l-.16-8.81h1.99Z"/>
  </g>
  <rect class="cls-1" x="38" y="15.25" width="56" height="1.5"/>
</svg>