<?xml version="1.0" encoding="UTF-8"?>
<svg id="Layer_1" data-name="Layer 1" xmlns="http://www.w3.org/2000/svg" viewBox="0 0 160.26 80.13">
  <defs>
    <style>
      .cls-1 {
        fill: #fff;
      }
    </style>
  </defs>
  <g>
    <path class="cls-1" d="m14.28,11.45V2.73h1.27v8.73h-1.27Zm1.17-2.22v-1.56s.21,0,.21,0l2.61-2.77h1.53l-2.97,3.15h-.2l-1.17,1.17Zm2.96,2.22l-2.34-3.11.88-.89,3.03,4h-1.56Z"/>
    <path class="cls-1" d="m15.55,21.97v3.89h-1.27v-6.54h1.22v1.07h.08c.15-.35.39-.62.71-.83.32-.21.73-.32,1.22-.32.45,0,.84.09,1.17.28.34.19.6.46.78.83.19.37.28.82.28,1.36v4.16h-1.27v-4.01c0-.47-.12-.85-.37-1.11s-.59-.4-1.02-.4c-.3,0-.56.06-.79.19s-.41.32-.54.56c-.13.25-.2.54-.2.89Z"/>
  </g>
  <g>
    <path class="cls-1" d="m11.4,14.11h-1.88c-.07-.4-.21-.76-.4-1.06-.2-.31-.44-.57-.72-.78-.29-.21-.61-.37-.96-.48-.35-.11-.73-.16-1.12-.16-.71,0-1.35.18-1.91.54-.56.36-1,.88-1.33,1.58-.32.69-.49,1.54-.49,2.54s.16,1.86.49,2.55c.32.69.77,1.21,1.33,1.57.56.35,1.2.53,1.9.53.39,0,.76-.05,1.12-.16.35-.11.67-.26.96-.47s.53-.47.73-.77c.2-.3.34-.65.41-1.05h1.88c-.1.61-.29,1.17-.58,1.68-.29.51-.66.95-1.11,1.32-.45.37-.96.65-1.54.85s-1.2.3-1.88.3c-1.07,0-2.02-.25-2.86-.76-.84-.51-1.5-1.24-1.98-2.19-.48-.95-.72-2.08-.72-3.4s.24-2.45.72-3.4c.48-.95,1.14-1.68,1.98-2.19.84-.51,1.79-.76,2.86-.76.66,0,1.27.09,1.84.28.57.19,1.08.46,1.54.82.46.36.83.8,1.13,1.32.3.52.5,1.11.6,1.77Z"/>
    <path class="cls-1" d="m32.08,16.52v-1.59h7.73v1.59h-7.73Zm0,3.72v-1.59h7.73v1.59h-7.73Z"/>
  </g>
  <g>
    <path class="cls-1" d="m77.22,7.67v5.51h-1.8V3.9h1.73v1.51h.11c.21-.49.55-.88,1-1.18s1.03-.45,1.73-.45c.63,0,1.18.13,1.66.4.47.26.84.66,1.1,1.17.26.52.39,1.16.39,1.93v5.9h-1.81v-5.68c0-.67-.17-1.2-.53-1.58-.35-.38-.83-.57-1.44-.57-.42,0-.79.09-1.11.27-.32.18-.58.45-.77.79-.19.35-.28.77-.28,1.26Z"/>
    <path class="cls-1" d="m86.85,13.29c-.33,0-.62-.12-.86-.35-.24-.24-.35-.52-.35-.85,0-.33.11-.61.35-.85.24-.24.52-.35.86-.35s.61.12.85.35c.24.24.36.52.36.85,0,.22-.06.42-.17.61-.11.18-.26.33-.44.44-.18.11-.38.16-.6.16Zm.99-12.48l-.16,8.81h-1.67l-.16-8.81h1.99Z"/>
    <path class="cls-1" d="m46.34,33.17v-12.36h1.8v12.36h-1.8Zm1.66-3.15v-2.2s.3,0,.3,0l3.7-3.92h2.16l-4.21,4.47h-.28l-1.66,1.66Zm4.2,3.15l-3.32-4.41,1.24-1.26,4.29,5.67h-2.21Z"/>
    <path class="cls-1" d="m57.09,33.29c-.33,0-.62-.12-.86-.35-.24-.24-.35-.52-.35-.85,0-.33.11-.61.35-.85.24-.24.52-.35.86-.35s.61.12.84.35c.24.24.36.52.36.85,0,.22-.06.42-.17.61-.11.18-.26.33-.44.44-.18.11-.38.16-.6.16Zm.99-12.48l-.16,8.81h-1.67l-.16-8.81h1.99Z"/>
    <path class="cls-1" d="m65.82,28.04c0-1.51.2-2.91.6-4.18.4-1.27.98-2.45,1.74-3.52h1.65c-.3.4-.58.89-.83,1.47-.26.58-.48,1.21-.68,1.9-.19.69-.34,1.41-.45,2.14s-.16,1.47-.16,2.18c0,.96.09,1.93.28,2.91.19.98.44,1.89.77,2.73.32.84.68,1.53,1.07,2.06h-1.65c-.76-1.07-1.35-2.25-1.74-3.52-.4-1.27-.6-2.67-.6-4.18Z"/>
    <path class="cls-1" d="m73.52,27.67v5.51h-1.8v-9.27h1.73v1.51h.11c.21-.49.55-.88,1-1.18s1.03-.45,1.73-.45c.63,0,1.18.13,1.66.4.47.26.84.66,1.1,1.17.26.52.39,1.16.39,1.93v5.9h-1.8v-5.68c0-.67-.17-1.2-.53-1.58-.35-.38-.83-.57-1.44-.57-.42,0-.79.09-1.11.27-.32.18-.58.45-.77.79-.19.35-.28.77-.28,1.26Z"/>
    <path class="cls-1" d="m91.84,27.16v1.56h-5.48v-1.56h5.48Z"/>
    <path class="cls-1" d="m98.75,33.17v-12.36h1.8v12.36h-1.8Zm1.66-3.15v-2.2s.3,0,.3,0l3.69-3.92h2.16l-4.21,4.47h-.28l-1.66,1.66Zm4.2,3.15l-3.32-4.41,1.24-1.26,4.29,5.67h-2.22Z"/>
    <path class="cls-1" d="m111.68,28.04c0,1.52-.2,2.91-.6,4.18-.4,1.27-.98,2.45-1.74,3.52h-1.65c.3-.4.58-.89.83-1.47.26-.58.48-1.21.68-1.9s.34-1.41.45-2.15c.11-.74.16-1.47.16-2.19,0-.95-.09-1.92-.28-2.9s-.44-1.89-.77-2.73c-.32-.84-.68-1.53-1.07-2.06h1.65c.76,1.07,1.35,2.25,1.74,3.52.4,1.27.6,2.66.6,4.18Z"/>
    <path class="cls-1" d="m115.92,33.29c-.33,0-.62-.12-.86-.35-.24-.24-.35-.52-.35-.85,0-.33.11-.61.35-.85.24-.24.52-.35.86-.35s.61.12.85.35c.24.24.36.52.36.85,0,.22-.06.42-.17.61-.11.18-.26.33-.44.44-.18.11-.38.16-.6.16Zm.99-12.48l-.16,8.81h-1.67l-.16-8.81h1.99Z"/>
  </g>
  <rect class="cls-1" x="44.13" y="16.82" width="75" height="1.5"/>
</svg>