<?xml version="1.0" encoding="UTF-8"?>
<svg id="Layer_1" data-name="Layer 1" xmlns="http://www.w3.org/2000/svg" viewBox="0 0 130 75">
  <defs>
    <style>
      .cls-1 {
        fill: #fff;
      }

      .cls-2 {
        fill: #d1ae59;
      }
    </style>
  </defs>
  <g>
    <path class="cls-1" d="m24.75,42.31c-.59,0-1.12-.11-1.59-.33-.48-.22-.85-.54-1.13-.96-.28-.42-.41-.93-.41-1.54,0-.52.1-.95.3-1.29.2-.34.47-.61.81-.8.34-.2.72-.35,1.15-.45.42-.1.85-.18,1.29-.23.56-.06,1.01-.12,1.35-.16.35-.04.6-.11.75-.21s.24-.25.24-.47v-.04c0-.53-.15-.94-.44-1.23-.3-.29-.74-.43-1.32-.43s-1.09.13-1.43.4c-.35.27-.59.56-.72.89l-1.7-.39c.2-.56.5-1.02.88-1.37.39-.35.84-.6,1.34-.76.51-.16,1.04-.24,1.6-.24.37,0,.76.04,1.18.13s.81.24,1.17.47c.36.23.66.56.9.98.23.42.35.97.35,1.65v6.16h-1.76v-1.27h-.07c-.12.23-.29.46-.53.69-.23.23-.53.41-.9.56s-.81.22-1.32.22Zm.39-1.45c.5,0,.93-.1,1.28-.3.36-.2.63-.46.81-.78.19-.32.28-.66.28-1.03v-1.2c-.06.06-.19.12-.37.18-.18.05-.39.1-.62.14-.23.04-.46.07-.68.1-.22.03-.41.06-.56.08-.35.04-.67.12-.96.22-.29.1-.52.25-.69.45-.17.2-.26.45-.26.78,0,.45.17.78.5,1.01.33.23.75.34,1.26.34Z"/>
    <path class="cls-1" d="m37.43,35.47c-.33,0-.61-.12-.85-.36-.24-.24-.36-.52-.36-.85s.12-.61.36-.85c.24-.24.52-.35.85-.35s.61.12.85.35c.24.24.36.52.36.85,0,.22-.05.42-.17.61-.11.18-.26.33-.44.44-.18.11-.38.16-.6.16Zm0,6.75c-.33,0-.61-.12-.85-.35-.24-.24-.36-.52-.36-.85s.12-.61.36-.85c.24-.24.52-.35.85-.35s.61.12.85.35.36.52.36.85c0,.22-.05.42-.17.61-.11.18-.26.33-.44.44-.18.11-.38.16-.6.16Z"/>
    <path class="cls-1" d="m45.7,42.11v-12.36h1.8v4.59h.11c.1-.19.26-.42.45-.67.2-.25.47-.48.82-.67.35-.19.81-.29,1.39-.29.75,0,1.42.19,2,.57.59.38,1.05.92,1.39,1.64.34.71.5,1.57.5,2.57s-.17,1.86-.5,2.57-.79,1.26-1.38,1.65c-.58.38-1.25.58-2,.58-.56,0-1.02-.09-1.38-.28-.36-.19-.63-.41-.84-.66s-.36-.48-.46-.68h-.15v1.44h-1.76Zm1.77-4.64c0,.65.09,1.22.28,1.71.19.49.46.87.82,1.15.36.28.8.41,1.32.41s.99-.14,1.35-.43c.36-.29.64-.68.82-1.17.19-.49.28-1.05.28-1.67s-.09-1.16-.27-1.65c-.18-.49-.46-.87-.82-1.15s-.82-.42-1.36-.42-.96.13-1.33.4-.63.65-.82,1.13c-.18.48-.28,1.05-.28,1.69Z"/>
    <path class="cls-1" d="m61.27,36.17v-1.59h7.73v1.59h-7.73Zm0,3.72v-1.59h7.73v1.59h-7.73Z"/>
    <path class="cls-1" d="m80.42,42.29c-.9,0-1.67-.2-2.32-.61-.65-.41-1.14-.97-1.49-1.69-.35-.72-.52-1.55-.52-2.48s.18-1.77.53-2.5.85-1.29,1.5-1.69,1.4-.61,2.28-.61c.7,0,1.33.13,1.88.39.55.26,1,.62,1.34,1.09.34.47.54,1.01.61,1.64h-1.76c-.1-.43-.32-.81-.66-1.12s-.8-.47-1.38-.47c-.5,0-.94.13-1.32.4-.38.26-.67.64-.88,1.12-.21.49-.31,1.06-.31,1.72s.1,1.26.31,1.75c.21.49.5.87.87,1.14.38.27.82.4,1.33.4.34,0,.65-.06.93-.19.28-.13.51-.31.71-.55s.33-.52.4-.86h1.76c-.06.6-.26,1.14-.59,1.61s-.76.84-1.31,1.11c-.55.27-1.18.4-1.92.4Z"/>
    <path class="cls-1" d="m91.86,35.47c-.33,0-.61-.12-.85-.36s-.36-.52-.36-.85.12-.61.36-.85c.24-.24.52-.35.85-.35s.61.12.85.35c.24.24.36.52.36.85,0,.22-.06.42-.17.61-.11.18-.26.33-.44.44-.18.11-.38.16-.6.16Zm0,6.75c-.33,0-.61-.12-.85-.35-.24-.24-.36-.52-.36-.85s.12-.61.36-.85.52-.35.85-.35.61.12.85.35.36.52.36.85c0,.22-.06.42-.17.61-.11.18-.26.33-.44.44-.18.11-.38.16-.6.16Z"/>
    <path class="cls-1" d="m103.46,42.29c-.75,0-1.42-.19-2-.58-.59-.38-1.04-.93-1.38-1.65s-.5-1.57-.5-2.57.17-1.86.5-2.57c.34-.71.8-1.26,1.38-1.64.59-.38,1.25-.57,2-.57.58,0,1.04.1,1.39.29.35.19.63.41.82.67.2.25.35.48.46.67h.11v-4.59h1.8v12.36h-1.76v-1.44h-.15c-.11.2-.26.42-.47.68s-.48.47-.84.66c-.35.19-.81.28-1.38.28Zm.4-1.54c.52,0,.96-.14,1.32-.41.36-.28.63-.66.82-1.15.19-.49.28-1.06.28-1.71s-.09-1.21-.28-1.69c-.19-.48-.46-.86-.82-1.13s-.8-.4-1.33-.4-1,.14-1.36.42-.63.67-.82,1.15c-.18.49-.28,1.04-.28,1.65s.09,1.18.28,1.67c.18.5.46.89.82,1.17.36.29.81.43,1.35.43Z"/>
  </g>
  <polyline class="cls-1" points="76.15 17.25 79.68 27.04 78.43 27.49 73.99 15.18 75.24 14.73 76.15 17.25"/>
  <polyline class="cls-1" points="27.42 53.55 24.47 45.37 25.93 44.84 30.37 57.15 28.91 57.68 27.42 53.55"/>
  <polyline class="cls-1" points="51.61 19.05 48.57 27.49 47.32 27.04 51.76 14.73 53.01 15.18 51.61 19.05"/>
  <polyline class="cls-1" points="100.42 52.19 103.07 44.84 104.53 45.37 100.09 57.68 98.63 57.15 100.42 52.19"/>
  <g>
    <path class="cls-2" d="m4.69,9.87c-.95,0-1.77-.2-2.45-.61-.68-.4-1.21-.97-1.57-1.69-.36-.72-.55-1.55-.55-2.49s.18-1.78.55-2.5c.37-.72.89-1.28,1.57-1.68.68-.4,1.49-.61,2.43-.61.81,0,1.52.15,2.12.44.61.29,1.09.71,1.44,1.24.35.53.55,1.16.59,1.87h-2.43c-.07-.46-.25-.84-.54-1.12-.29-.28-.67-.43-1.14-.43-.4,0-.75.11-1.04.32-.3.22-.53.53-.69.94s-.25.91-.25,1.49.08,1.09.24,1.51c.16.41.39.73.69.95s.65.33,1.04.33c.29,0,.56-.06.79-.18.24-.12.43-.3.59-.53s.26-.51.3-.84h2.43c-.04.71-.23,1.33-.58,1.87-.34.54-.82.96-1.42,1.26-.6.3-1.32.45-2.14.45Z"/>
    <path class="cls-2" d="m10.49,13.16V.41h2.54v1.56h.11c.11-.25.28-.5.49-.76.22-.26.5-.48.85-.65s.78-.26,1.3-.26c.68,0,1.3.18,1.87.53s1.03.88,1.37,1.59c.34.71.51,1.59.51,2.65s-.17,1.91-.5,2.62-.78,1.25-1.35,1.61-1.21.55-1.91.55c-.5,0-.92-.08-1.27-.25s-.63-.37-.85-.62-.39-.51-.51-.76h-.08v4.96h-2.57Zm2.52-8.11c0,.55.08,1.03.23,1.44.15.41.37.73.66.96.29.23.64.34,1.06.34s.77-.12,1.06-.35c.29-.23.51-.55.66-.97s.23-.89.23-1.43-.07-1.01-.22-1.41c-.15-.41-.37-.72-.66-.95-.29-.23-.65-.34-1.07-.34s-.77.11-1.06.33c-.29.22-.51.54-.66.94-.15.41-.23.89-.23,1.44Z"/>
    <path class="cls-2" d="m25.47,9.87c-.95,0-1.77-.19-2.46-.58-.69-.39-1.21-.94-1.58-1.65-.37-.71-.56-1.56-.56-2.54s.19-1.79.56-2.51c.37-.72.89-1.28,1.57-1.68.67-.4,1.47-.6,2.38-.6.61,0,1.18.1,1.71.29s.99.49,1.39.88c.4.39.71.88.93,1.47.22.59.33,1.28.33,2.07v.71h-7.83v-1.59h5.41c0-.37-.08-.7-.24-.98-.16-.29-.38-.51-.67-.67-.28-.16-.61-.24-.99-.24s-.73.09-1.04.27c-.3.18-.53.42-.7.72-.17.3-.26.63-.26,1v1.52c0,.46.09.85.26,1.19.17.33.41.59.73.77s.69.27,1.12.27c.29,0,.55-.04.79-.12.24-.08.44-.2.61-.36.17-.16.3-.36.39-.59l2.38.16c-.12.57-.37,1.07-.74,1.49s-.85.75-1.44.99c-.58.24-1.26.35-2.03.35Z"/>
    <path class="cls-2" d="m30.68,12.4v-4.76h.71c.21-.13.37-.33.5-.62.13-.28.23-.61.31-1,.08-.38.15-.8.19-1.24.05-.44.09-.89.12-1.35l.24-3.03h7.11v7.23h1.44v4.76h-2.45v-2.72h-5.67v2.72h-2.51Zm3.27-4.76h3.5V2.39h-2.5l-.1,1.05c-.07.99-.17,1.83-.3,2.52s-.33,1.25-.6,1.68Z"/>
    <path class="cls-2" d="m45.25.41v9.27h-2.46V.41h2.46Zm4,3.61v2.02h-4.84v-2.02h4.84Zm1.61-3.61v9.27h-2.44V.41h2.44Z"/>
    <path class="cls-2" d="m55.31,6.29l3.34-5.88h2.54v9.27h-2.45V3.79l-3.33,5.9h-2.55V.41h2.46v5.88Z"/>
    <path class="cls-2" d="m67.47,9.87c-.95,0-1.77-.19-2.46-.58-.69-.39-1.21-.94-1.58-1.65s-.55-1.56-.55-2.54.18-1.79.55-2.51c.37-.72.89-1.28,1.57-1.68.67-.4,1.47-.6,2.38-.6.61,0,1.18.1,1.71.29s.99.49,1.39.88c.4.39.71.88.93,1.47.22.59.33,1.28.33,2.07v.71h-7.83v-1.59h5.41c0-.37-.08-.7-.24-.98s-.38-.51-.67-.67c-.28-.16-.61-.24-.99-.24s-.74.09-1.04.27-.53.42-.7.72-.26.63-.26,1v1.52c0,.46.09.85.26,1.19.17.33.41.59.73.77.31.18.69.27,1.12.27.29,0,.55-.04.79-.12s.44-.2.61-.36c.17-.16.3-.36.39-.59l2.38.16c-.12.57-.37,1.07-.74,1.49-.37.42-.85.75-1.44.99-.58.24-1.26.35-2.03.35Z"/>
    <path class="cls-2" d="m84.21,4.48v2.03c-.2.09-.44.17-.74.25s-.6.14-.92.19c-.32.05-.62.07-.91.07-1.33,0-2.38-.27-3.15-.82s-1.15-1.43-1.15-2.64V.4h2.43v3.16c0,.36.06.64.18.85.12.21.32.36.59.45.27.09.63.14,1.09.14.42,0,.84-.04,1.24-.13.41-.09.85-.22,1.32-.39Zm1.19-4.07v9.27h-2.44V.41h2.44Z"/>
    <path class="cls-2" d="m86.85,9.69v-2.04s.29,0,.29,0c.22,0,.41-.05.56-.16.16-.11.29-.28.4-.52s.19-.56.25-.96.1-.89.12-1.48l.15-4.11h7.05v9.27h-2.45V2.44h-2.29l-.15,2.83c-.04.78-.13,1.44-.28,2-.15.56-.36,1.02-.62,1.37-.27.36-.59.62-.96.79s-.81.25-1.3.25h-.77Z"/>
    <path class="cls-2" d="m101.9,9.87c-.95,0-1.77-.19-2.46-.58-.69-.39-1.21-.94-1.58-1.65s-.55-1.56-.55-2.54.18-1.79.55-2.51c.37-.72.89-1.28,1.57-1.68.67-.4,1.47-.6,2.38-.6.61,0,1.18.1,1.71.29s.99.49,1.39.88c.4.39.71.88.93,1.47.22.59.33,1.28.33,2.07v.71h-7.83v-1.59h5.41c0-.37-.08-.7-.24-.98s-.38-.51-.67-.67c-.28-.16-.61-.24-.99-.24s-.74.09-1.04.27-.53.42-.7.72-.26.63-.26,1v1.52c0,.46.09.85.26,1.19.17.33.41.59.73.77.31.18.69.27,1.12.27.29,0,.55-.04.79-.12s.44-.2.61-.36c.17-.16.3-.36.39-.59l2.38.16c-.12.57-.37,1.07-.74,1.49-.37.42-.85.75-1.44.99-.58.24-1.26.35-2.03.35Z"/>
    <path class="cls-2" d="m110.29.41v9.27h-2.46V.41h2.46Zm4,3.61v2.02h-4.84v-2.02h4.84Zm1.61-3.61v9.27h-2.44V.41h2.44Z"/>
    <path class="cls-2" d="m119.5,3.26h2.77c1.23,0,2.19.29,2.87.88.69.59,1.03,1.37,1.03,2.35,0,.64-.16,1.19-.46,1.68-.31.48-.76.86-1.34,1.12-.58.27-1.28.4-2.1.4h-4.38V.41h2.46v7.25h1.93c.43,0,.79-.11,1.06-.33.28-.22.42-.5.42-.83,0-.36-.15-.65-.42-.88-.28-.23-.63-.34-1.06-.34h-2.77v-2.02Zm7.67,6.42V.41h2.57v9.27h-2.57Z"/>
  </g>
  <g>
    <path class="cls-2" d="m1.17,71.3v-9.27h2.57v3.6h.72l2.52-3.6h3.02l-3.28,4.6,3.31,4.67h-3.05l-2.29-3.29h-.96v3.29H1.17Z"/>
    <path class="cls-2" d="m11.13,74.78v-12.75h2.54v1.56h.12c.11-.25.28-.5.49-.76.21-.26.5-.48.84-.65.35-.17.78-.26,1.3-.26.68,0,1.3.18,1.87.53.57.35,1.03.88,1.37,1.59.34.71.51,1.59.51,2.65s-.17,1.91-.5,2.62c-.33.71-.78,1.25-1.35,1.61-.57.36-1.21.55-1.91.55-.5,0-.92-.08-1.27-.25-.35-.17-.63-.37-.85-.62-.22-.25-.39-.51-.51-.76h-.08v4.96h-2.57Zm2.52-8.11c0,.55.08,1.03.23,1.44.15.41.37.73.66.96.29.23.64.34,1.06.34s.77-.12,1.06-.35c.29-.23.51-.55.66-.97.15-.41.23-.89.23-1.43s-.07-1.01-.22-1.41c-.15-.41-.37-.72-.66-.95-.29-.23-.65-.34-1.07-.34s-.77.11-1.06.33c-.29.22-.51.54-.66.94-.15.41-.23.89-.23,1.44Z"/>
    <path class="cls-2" d="m24.52,71.48c-.59,0-1.12-.1-1.58-.31s-.83-.52-1.1-.92-.4-.92-.4-1.53c0-.51.09-.95.28-1.3.19-.35.45-.63.77-.85.33-.21.7-.37,1.11-.48.42-.11.85-.19,1.31-.23.54-.06.97-.11,1.3-.16.33-.05.57-.13.72-.23.15-.1.22-.25.22-.45v-.04c0-.38-.12-.68-.36-.89-.24-.21-.58-.31-1.02-.31-.46,0-.83.1-1.1.3-.27.2-.46.46-.54.76l-2.38-.19c.12-.56.36-1.05.71-1.46s.81-.73,1.37-.95c.56-.22,1.21-.33,1.95-.33.52,0,1.01.06,1.48.18.47.12.89.31,1.26.56.37.25.66.58.87.98.21.4.32.87.32,1.42v6.25h-2.44v-1.29h-.07c-.15.29-.35.54-.6.76-.25.22-.55.39-.9.51-.35.12-.75.18-1.21.18Zm.74-1.77c.38,0,.71-.08,1-.23s.52-.36.68-.61c.17-.26.25-.55.25-.88v-.98c-.08.05-.19.1-.33.14s-.29.08-.47.11-.35.06-.52.09-.33.05-.47.07c-.3.04-.57.12-.79.21-.23.1-.4.23-.53.39-.12.16-.19.37-.19.61,0,.35.13.62.38.8.26.18.58.27.98.27Z"/>
    <path class="cls-2" d="m34.2,67.91l3.34-5.88h2.54v9.27h-2.45v-5.9l-3.33,5.9h-2.55v-9.27h2.46v5.88Zm2.9-9.12h1.79c0,.73-.27,1.32-.81,1.77-.54.45-1.26.67-2.18.67s-1.64-.22-2.18-.67c-.54-.45-.8-1.04-.8-1.77h1.78c0,.28.09.53.27.75.18.22.49.33.93.33s.73-.11.92-.33c.18-.22.28-.47.28-.75Z"/>
    <path class="cls-2" d="m44.59,62.03v9.27h-2.46v-9.27h2.46Zm4,3.61v2.02h-4.84v-2.02h4.84Zm1.61-3.61v9.27h-2.44v-9.27h2.44Z"/>
    <path class="cls-2" d="m54.65,67.91l3.34-5.88h2.54v9.27h-2.45v-5.9l-3.33,5.9h-2.55v-9.27h2.46v5.88Z"/>
    <path class="cls-2" d="m66.8,71.48c-.95,0-1.77-.19-2.46-.58s-1.21-.94-1.58-1.65c-.37-.71-.55-1.56-.55-2.54s.18-1.79.55-2.51.89-1.28,1.57-1.68c.67-.4,1.47-.6,2.38-.6.61,0,1.18.1,1.71.29s.99.49,1.39.88c.4.39.71.88.93,1.47.22.59.33,1.28.33,2.07v.71h-7.83v-1.59h5.41c0-.37-.08-.7-.24-.98-.16-.29-.38-.51-.67-.67-.28-.16-.61-.24-.99-.24s-.74.09-1.04.27-.53.42-.7.72-.26.63-.26,1v1.51c0,.46.09.86.26,1.19s.41.59.73.77c.31.18.69.27,1.12.27.29,0,.55-.04.79-.12s.44-.2.61-.36c.17-.16.3-.36.39-.59l2.38.16c-.12.57-.37,1.07-.74,1.49-.37.42-.85.75-1.44.99-.58.24-1.26.35-2.03.35Z"/>
    <path class="cls-2" d="m83.54,66.1v2.03c-.2.09-.44.17-.74.25s-.6.14-.92.19c-.32.05-.62.07-.91.07-1.33,0-2.38-.27-3.15-.82s-1.15-1.43-1.15-2.63v-3.16h2.43v3.16c0,.36.06.64.18.85.12.21.32.36.59.45.27.09.63.14,1.09.14.42,0,.84-.04,1.24-.13.41-.09.85-.22,1.32-.39Zm1.19-4.07v9.27h-2.44v-9.27h2.44Z"/>
    <path class="cls-2" d="m86.18,71.3v-2.04s.29,0,.29,0c.22,0,.41-.05.56-.16.16-.11.29-.28.4-.52s.19-.56.25-.96.1-.89.12-1.48l.15-4.1h7.05v9.27h-2.45v-7.25h-2.29l-.15,2.83c-.04.78-.13,1.44-.28,2-.15.56-.36,1.02-.62,1.37-.27.36-.59.62-.96.79s-.81.25-1.3.25h-.77Z"/>
    <path class="cls-2" d="m101.23,71.48c-.95,0-1.77-.19-2.46-.58s-1.21-.94-1.58-1.65c-.37-.71-.55-1.56-.55-2.54s.18-1.79.55-2.51.89-1.28,1.57-1.68c.67-.4,1.47-.6,2.38-.6.61,0,1.18.1,1.71.29s.99.49,1.39.88c.4.39.71.88.93,1.47.22.59.33,1.28.33,2.07v.71h-7.83v-1.59h5.41c0-.37-.08-.7-.24-.98-.16-.29-.38-.51-.67-.67-.28-.16-.61-.24-.99-.24s-.74.09-1.04.27-.53.42-.7.72-.26.63-.26,1v1.51c0,.46.09.86.26,1.19s.41.59.73.77c.31.18.69.27,1.12.27.29,0,.55-.04.79-.12s.44-.2.61-.36c.17-.16.3-.36.39-.59l2.38.16c-.12.57-.37,1.07-.74,1.49-.37.42-.85.75-1.44.99-.58.24-1.26.35-2.03.35Z"/>
    <path class="cls-2" d="m109.62,62.03v9.27h-2.46v-9.27h2.46Zm4,3.61v2.02h-4.84v-2.02h4.84Zm1.61-3.61v9.27h-2.44v-9.27h2.44Z"/>
    <path class="cls-2" d="m118.83,64.88h2.77c1.23,0,2.19.29,2.87.88.69.59,1.03,1.37,1.03,2.35,0,.64-.16,1.19-.46,1.67-.31.48-.76.86-1.34,1.12-.58.27-1.28.4-2.1.4h-4.38v-9.27h2.46v7.25h1.93c.43,0,.79-.11,1.06-.33.28-.22.42-.5.42-.83,0-.36-.15-.65-.42-.88s-.63-.34-1.06-.34h-2.77v-2.02Zm7.67,6.42v-9.27h2.57v9.27h-2.57Z"/>
  </g>
</svg>