<?xml version="1.0" encoding="UTF-8"?>
<svg id="Layer_1" data-name="Layer 1" xmlns="http://www.w3.org/2000/svg" viewBox="0 0 150.25 150.5">
  <defs>
    <style>
      .cls-1 {
        isolation: isolate;
        opacity: .3;
        stroke: #bdccd4;
        stroke-width: .5px;
      }

      .cls-1, .cls-2, .cls-3, .cls-4 {
        fill: none;
        stroke-miterlimit: 10;
      }

      .cls-5 {
        fill: #fff;
      }

      .cls-2, .cls-3 {
        stroke: #fff;
      }

      .cls-3, .cls-4 {
        stroke-width: 2px;
      }

      .cls-4 {
        stroke: #d1ae59;
      }
    </style>
  </defs>
  <rect class="cls-1" x=".25" y=".25" width="149.75" height="150"/>
  <line class="cls-1" x1="70" y1=".25" x2="70" y2="150.25"/>
  <line class="cls-1" x1="60" y1=".25" x2="60" y2="150.25"/>
  <line class="cls-1" x1="50" y1=".25" x2="50" y2="150.25"/>
  <line class="cls-1" x1="40" y1=".25" x2="40" y2="150.25"/>
  <line class="cls-1" x1="30" y1=".25" x2="30" y2="150.25"/>
  <line class="cls-1" x1="20" y1=".25" x2="20" y2="150.25"/>
  <line class="cls-1" x1="10" y1=".25" x2="10" y2="150.25"/>
  <line class="cls-1" x1="150" y1="80.25" x2=".5" y2="80.25"/>
  <line class="cls-1" x1="150" y1="90.25" x2=".5" y2="90.25"/>
  <line class="cls-1" x1="150" y1="100.25" x2=".5" y2="100.25"/>
  <line class="cls-1" x1="150" y1="110.25" x2=".5" y2="110.25"/>
  <line class="cls-1" x1="150" y1="120.25" x2=".5" y2="120.25"/>
  <line class="cls-1" x1="150" y1="130.25" x2=".5" y2="130.25"/>
  <line class="cls-1" x1="150" y1="140.25" x2=".5" y2="140.25"/>
  <line class="cls-1" x1="150" y1="70.25" x2=".5" y2="70.25"/>
  <line class="cls-1" x1="150" y1="60.25" x2=".5" y2="60.25"/>
  <line class="cls-1" x1="150" y1="50.25" x2=".5" y2="50.25"/>
  <line class="cls-1" x1="150" y1="40.25" x2=".5" y2="40.25"/>
  <line class="cls-1" x1="150" y1="30.25" x2=".5" y2="30.25"/>
  <line class="cls-1" x1="150" y1="20.25" x2=".5" y2="20.25"/>
  <line class="cls-1" x1="150" y1="10.25" x2=".5" y2="10.25"/>
  <line class="cls-1" x1="80" y1=".25" x2="80" y2="150.25"/>
  <line class="cls-1" x1="90" y1=".25" x2="90" y2="150.25"/>
  <line class="cls-1" x1="100" y1=".25" x2="100" y2="150.25"/>
  <line class="cls-1" x1="110" y1=".25" x2="110" y2="150.25"/>
  <line class="cls-1" x1="120" y1=".25" x2="120" y2="150.25"/>
  <line class="cls-1" x1="130" y1=".25" x2="130" y2="150.25"/>
  <line class="cls-1" x1="140" y1=".25" x2="140" y2="150.25"/>
  <line class="cls-3" x1="80" y1="10.25" x2="80" y2="140.19"/>
  <line class="cls-3" x1="10" y1="80.25" x2="140" y2="80.25"/>
  <polygon class="cls-5" points="145.82 80.25 139.91 76.84 139.91 83.66 145.82 80.25"/>
  <polygon class="cls-5" points="80 4.79 76.59 10.71 83.41 10.71 80 4.79"/>
  <line class="cls-2" x1="90" y1="76.84" x2="90" y2="83.66"/>
  <line class="cls-2" x1="83.41" y1="70.25" x2="76.59" y2="70.25"/>
  <path class="cls-5" d="m90.62,85.83v8.73h-1.32v-7.41h-.05l-2.09,1.36v-1.26l2.18-1.42s1.28,0,1.28,0Z"/>
  <path class="cls-5" d="m144.76,85.41l1.44,2.55,1.46-2.55h1.39l-2.04,3.27,2.06,3.27h-1.39l-1.47-2.45-1.47,2.45h-1.4l2.04-3.27-2.01-3.27h1.4-.01Z"/>
  <path class="cls-5" d="m69.8,12.7c-.19,0-.36-.01-.52-.04-.16-.03-.27-.06-.35-.1l.31-1.04c.23.06.44.09.62.08.18,0,.34-.08.48-.2.14-.13.27-.34.37-.63l.16-.43-2.4-6.63h1.36l1.66,5.08h.07l1.66-5.08h1.37l-2.7,7.42c-.12.34-.28.63-.48.87s-.42.42-.69.54-.58.18-.93.18v-.02h0Z"/>
  <path class="cls-5" d="m74.15,66.49v8.73h-1.32v-7.41h-.05l-2.09,1.36v-1.26l2.18-1.42h1.28Z"/>
  <path class="cls-5" d="m72.35,92.25c-.67,0-1.25-.18-1.73-.53s-.84-.87-1.1-1.54c-.25-.67-.38-1.48-.38-2.43s.13-1.75.38-2.42.62-1.18,1.1-1.53c.48-.35,1.05-.53,1.72-.53s1.24.18,1.72.53.84.87,1.1,1.53.38,1.48.38,2.42-.13,1.76-.38,2.44c-.25.67-.62,1.18-1.1,1.54-.48.35-1.05.53-1.72.53h.01Zm0-1.14c.59,0,1.05-.29,1.39-.87.33-.58.5-1.41.5-2.5,0-.72-.08-1.34-.23-1.84s-.37-.88-.65-1.14-.62-.39-1.01-.39c-.59,0-1.05.29-1.39.87-.33.58-.5,1.41-.51,2.5,0,.73.08,1.34.23,1.84s.37.88.65,1.14.62.39,1.01.39h.01Z"/>
  <g>
    <path class="cls-5" d="m11.66,29.46c-.19,0-.36-.02-.52-.04s-.27-.06-.35-.1l.31-1.04c.23.06.44.09.62.08.18,0,.34-.08.48-.2.14-.13.27-.34.37-.63l.16-.43-2.4-6.63h1.36l1.66,5.08h.07l1.66-5.08h1.37l-2.7,7.42c-.12.34-.28.63-.48.87s-.42.42-.69.53c-.27.12-.58.18-.93.18Z"/>
    <path class="cls-5" d="m21.24,22.81v-1.12h5.46v1.12h-5.46Zm0,2.62v-1.12h5.46v1.12h-5.46Z"/>
  </g>
  <g>
    <path class="cls-5" d="m34.51,21.48c-.59,0-1.11-.1-1.57-.3s-.82-.48-1.09-.84-.41-.78-.43-1.25h1.34c.02.26.1.48.26.67.16.19.36.33.62.44.26.1.54.15.85.15.34,0,.65-.06.91-.18.27-.12.47-.29.62-.5s.23-.46.23-.74-.07-.55-.22-.77c-.15-.22-.37-.4-.65-.53-.29-.13-.63-.19-1.03-.19h-.74v-1.07h.74c.32,0,.61-.06.85-.17.25-.12.44-.28.58-.49.14-.21.21-.45.21-.73s-.06-.51-.18-.71-.29-.36-.51-.47c-.22-.11-.48-.17-.78-.17s-.55.05-.79.16c-.25.1-.45.25-.6.44s-.24.42-.25.69h-1.27c.01-.47.15-.89.42-1.24s.62-.64,1.05-.84.92-.3,1.46-.3,1.04.11,1.45.33c.41.22.72.51.95.87s.33.76.33,1.18c0,.49-.13.9-.41,1.24-.27.34-.64.57-1.09.69v.07c.58.09,1.03.32,1.35.69.32.37.48.83.48,1.38,0,.48-.13.91-.4,1.29-.27.38-.63.68-1.1.9s-.99.33-1.59.33Z"/>
    <path class="cls-5" d="m32.49,26.81l1.44,2.55,1.46-2.55h1.39l-2.04,3.27,2.06,3.27h-1.39l-1.47-2.45-1.47,2.45h-1.4l2.04-3.27-2.01-3.27h1.4Z"/>
  </g>
  <rect class="cls-5" x="29.72" y="22.64" width="8.43" height="1.01"/>
  <path class="cls-4" d="m84.72,10.71c0,41.25,7.44,64.51,55.19,64.51"/>
  <path class="cls-4" d="m74.11,140.19c-.44-35.64-5.53-55.82-64.11-55.82"/>
</svg>