<?xml version="1.0" encoding="UTF-8"?>
<svg id="Layer_1" data-name="Layer 1" xmlns="http://www.w3.org/2000/svg" viewBox="0 0 62.62 77">
  <defs>
    <style>
      .cls-1 {
        fill: #fff;
      }

      .cls-2 {
        fill: none;
        stroke: #d1ae59;
        stroke-miterlimit: 10;
        stroke-width: 2px;
      }
    </style>
  </defs>
  <path class="cls-1" d="m1.7,44.24H.3l3.14-8.73h1.52l3.14,8.73h-1.4l-2.47-7.14h-.07l-2.47,7.14Zm.23-3.42h4.53v1.11H1.93v-1.11Z"/>
  <path class="cls-1" d="m29.09,8.95V.22h3.2c.62,0,1.13.1,1.54.3s.71.48.91.82c.2.35.3.73.3,1.17,0,.36-.07.67-.2.92-.13.25-.31.45-.53.6-.22.15-.47.26-.74.33v.08c.29.01.57.11.85.28.28.17.51.42.69.73s.27.7.27,1.15-.1.85-.31,1.2-.53.63-.97.84c-.43.21-.99.31-1.67.31h-3.34Zm1.32-4.95h1.76c.29,0,.56-.06.8-.17.24-.11.43-.27.57-.48s.21-.45.21-.73c0-.36-.13-.66-.38-.91s-.64-.37-1.16-.37h-1.8v2.65Zm0,3.82h1.9c.63,0,1.08-.12,1.36-.37s.41-.55.41-.92c0-.28-.07-.53-.21-.76-.14-.23-.34-.41-.59-.55-.26-.14-.56-.2-.91-.2h-1.95v2.79Z"/>
  <path class="cls-1" d="m62.62,38.36h-1.33c-.05-.28-.15-.53-.29-.75-.14-.22-.31-.4-.51-.55-.2-.15-.43-.26-.68-.34-.25-.08-.51-.12-.79-.12-.5,0-.95.13-1.35.38s-.71.62-.94,1.11c-.23.49-.34,1.08-.34,1.79s.12,1.31.34,1.8c.23.49.54.86.94,1.11s.84.38,1.34.38c.28,0,.54-.04.79-.11.25-.08.47-.19.67-.33.2-.15.37-.33.51-.54.14-.21.24-.46.29-.74h1.33c-.07.43-.21.83-.41,1.19s-.46.67-.78.93c-.32.26-.68.46-1.08.6-.41.14-.85.21-1.33.21-.76,0-1.43-.18-2.02-.54s-1.06-.87-1.4-1.54c-.34-.67-.51-1.47-.51-2.4s.17-1.73.51-2.4c.34-.67.81-1.18,1.4-1.54s1.26-.54,2.02-.54c.46,0,.9.07,1.3.2.4.13.76.33,1.08.58.32.25.59.56.8.93s.35.78.43,1.25Z"/>
  <path class="cls-1" d="m31.37,77h-2.82v-8.73h2.91c.85,0,1.59.17,2.2.52.61.35,1.08.85,1.41,1.5.33.65.49,1.43.49,2.33s-.17,1.69-.5,2.34-.81,1.16-1.43,1.51c-.62.35-1.38.53-2.27.53Zm-1.51-1.15h1.44c.66,0,1.22-.13,1.66-.38.44-.25.77-.62.99-1.1.22-.48.33-1.06.33-1.75s-.11-1.27-.33-1.74c-.22-.48-.54-.84-.97-1.09s-.96-.37-1.6-.37h-1.52v6.43Z"/>
  <line class="cls-2" x1="30.98" y1="64.17" x2="30.98" y2="13.4"/>
  <line class="cls-2" x1="50.86" y1="38.79" x2="11.1" y2="38.79"/>
  <polygon class="cls-2" points="30.98 13.4 50.86 38.79 30.98 64.17 11.1 38.79 30.98 13.4"/>
</svg>