<?xml version="1.0" encoding="utf-8"?>
<!-- Generator: Adobe Illustrator 27.6.1, SVG Export Plug-In . SVG Version: 6.00 Build 0)  -->
<svg version="1.1" id="Layer_1" xmlns="http://www.w3.org/2000/svg" xmlns:xlink="http://www.w3.org/1999/xlink" x="0px" y="0px"
	 viewBox="0 0 58.8 77" style="enable-background:new 0 0 58.8 77;" xml:space="preserve">
<style type="text/css">
	.st0{display:none;}
	.st1{display:inline;fill:#191919;stroke:#000000;stroke-miterlimit:10;}
	.st2{fill:none;stroke:#D1AE59;stroke-width:2;stroke-miterlimit:10;}
	.st3{fill:#FFFFFF;}
</style>
<g id="Layer_2_00000129886131158732422380000003041607166221312924_" class="st0">
	<rect x="-18.3" y="-1.6" class="st1" width="102" height="86.2"/>
</g>
<g id="Layer_1_00000096758662906592635730000008070906264620610741_">
	<line class="st2" x1="28.6" y1="42.2" x2="9.3" y2="69.4"/>
	<path class="st3" d="M1.2,77H0l2.9-8h1.4l2.9,8H5.8l-2.2-6.6H3.5L1.2,77z M1.5,73.9h4.2v1H1.5V73.9z"/>
	<polygon class="st2" points="9.3,15 9.3,69.4 47.9,69.4 	"/>
	<path class="st3" d="M31.5,31.4h1.6l2.8,6.8H36l2.8-6.8h1.6v8.7h-1.2v-6.3H39l-2.6,6.3h-1l-2.6-6.3h-0.1v6.3h-1.2L31.5,31.4
		L31.5,31.4z"/>
	<line class="st2" x1="18.6" y1="33.3" x2="23.3" y2="29.5"/>
	<line class="st2" x1="35.6" y1="57.3" x2="40.3" y2="53.6"/>
	<line class="st2" x1="21.6" y1="57.1" x2="16.9" y2="53.4"/>
	<g>
		<g>
			<path class="st3" d="M7.8,8.8V0H11c0.6,0,1.1,0.1,1.5,0.3s0.7,0.5,0.9,0.8s0.3,0.7,0.3,1.2c0,0.4-0.1,0.7-0.2,0.9
				c-0.1,0.2-0.3,0.4-0.5,0.6c-0.2,0.1-0.5,0.3-0.7,0.3v0.1c0.3,0,0.6,0.1,0.9,0.3c0.3,0.2,0.5,0.4,0.7,0.7s0.3,0.7,0.3,1.2
				c0,0.4-0.1,0.8-0.3,1.2s-0.5,0.6-1,0.8c-0.4,0.2-1,0.3-1.7,0.3L7.8,8.8L7.8,8.8z M9.2,3.8H11c0.3,0,0.6-0.1,0.8-0.2
				c0.2-0.1,0.4-0.3,0.6-0.5s0.2-0.4,0.2-0.7c0-0.4-0.1-0.7-0.4-0.9c-0.3-0.2-0.6-0.4-1.2-0.4H9.2V3.8z M9.2,7.6h1.9
				c0.6,0,1.1-0.1,1.4-0.4c0.3-0.2,0.4-0.5,0.4-0.9c0-0.3-0.1-0.5-0.2-0.8S12.3,5.2,12,5c-0.3-0.1-0.6-0.2-0.9-0.2H9.2V7.6z"/>
		</g>
	</g>
	<g>
		<g>
			<path class="st3" d="M58.8,70.9h-1.3c-0.1-0.3-0.1-0.5-0.3-0.8c-0.1-0.2-0.3-0.4-0.5-0.5c-0.2-0.2-0.4-0.3-0.7-0.3
				c-0.2-0.1-0.5-0.1-0.8-0.1c-0.5,0-1,0.1-1.3,0.4s-0.7,0.6-0.9,1.1s-0.3,1.1-0.3,1.8c0,0.7,0.1,1.3,0.3,1.8s0.5,0.9,0.9,1.1
				s0.8,0.4,1.3,0.4c0.3,0,0.5,0,0.8-0.1c0.2-0.1,0.5-0.2,0.7-0.3c0.2-0.1,0.4-0.3,0.5-0.5s0.2-0.5,0.3-0.7h1.3
				c-0.1,0.4-0.2,0.8-0.4,1.2s-0.5,0.7-0.8,0.9c-0.3,0.3-0.7,0.5-1.1,0.6c-0.4,0.1-0.8,0.2-1.3,0.2c-0.8,0-1.4-0.2-2-0.5
				s-1.1-0.9-1.4-1.5c-0.3-0.7-0.5-1.5-0.5-2.4s0.2-1.7,0.5-2.4c0.3-0.7,0.8-1.2,1.4-1.5s1.3-0.5,2-0.5c0.5,0,0.9,0.1,1.3,0.2
				c0.4,0.1,0.8,0.3,1.1,0.6c0.3,0.3,0.6,0.6,0.8,0.9C58.6,70,58.7,70.4,58.8,70.9z"/>
		</g>
	</g>
</g>
</svg>
