<?xml version="1.0" encoding="UTF-8"?>
<svg id="Layer_1" data-name="Layer 1" xmlns="http://www.w3.org/2000/svg" viewBox="0 0 150.25 150.5">
  <defs>
    <style>
      .cls-1 {
        isolation: isolate;
        opacity: .3;
        stroke: #bdccd4;
        stroke-width: .5px;
      }

      .cls-1, .cls-2, .cls-3, .cls-4 {
        fill: none;
        stroke-miterlimit: 10;
      }

      .cls-5 {
        fill: #fff;
      }

      .cls-2, .cls-3 {
        stroke: #fff;
      }

      .cls-3, .cls-4 {
        stroke-width: 2px;
      }

      .cls-4 {
        stroke: #d1ae59;
      }
    </style>
  </defs>
  <rect class="cls-1" x=".25" y=".25" width="149.75" height="150"/>
  <line class="cls-1" x1="70" y1=".25" x2="70" y2="150.25"/>
  <line class="cls-1" x1="60" y1=".25" x2="60" y2="150.25"/>
  <line class="cls-1" x1="50" y1=".25" x2="50" y2="150.25"/>
  <line class="cls-1" x1="40" y1=".25" x2="40" y2="150.25"/>
  <line class="cls-1" x1="30" y1=".25" x2="30" y2="150.25"/>
  <line class="cls-1" x1="20" y1=".25" x2="20" y2="150.25"/>
  <line class="cls-1" x1="10" y1=".25" x2="10" y2="150.25"/>
  <line class="cls-1" x1="150" y1="80.25" x2=".5" y2="80.25"/>
  <line class="cls-1" x1="150" y1="90.25" x2=".5" y2="90.25"/>
  <line class="cls-1" x1="150" y1="100.25" x2=".5" y2="100.25"/>
  <line class="cls-1" x1="150" y1="110.25" x2=".5" y2="110.25"/>
  <line class="cls-1" x1="150" y1="120.25" x2=".5" y2="120.25"/>
  <line class="cls-1" x1="150" y1="130.25" x2=".5" y2="130.25"/>
  <line class="cls-1" x1="150" y1="140.25" x2=".5" y2="140.25"/>
  <line class="cls-1" x1="150" y1="70.25" x2=".5" y2="70.25"/>
  <line class="cls-1" x1="150" y1="60.25" x2=".5" y2="60.25"/>
  <line class="cls-1" x1="150" y1="50.25" x2=".5" y2="50.25"/>
  <line class="cls-1" x1="150" y1="40.25" x2=".5" y2="40.25"/>
  <line class="cls-1" x1="150" y1="30.25" x2=".5" y2="30.25"/>
  <line class="cls-1" x1="150" y1="20.25" x2=".5" y2="20.25"/>
  <line class="cls-1" x1="150" y1="10.25" x2=".5" y2="10.25"/>
  <line class="cls-1" x1="80" y1=".25" x2="80" y2="150.25"/>
  <line class="cls-1" x1="90" y1=".25" x2="90" y2="150.25"/>
  <line class="cls-1" x1="100" y1=".25" x2="100" y2="150.25"/>
  <line class="cls-1" x1="110" y1=".25" x2="110" y2="150.25"/>
  <line class="cls-1" x1="120" y1=".25" x2="120" y2="150.25"/>
  <line class="cls-1" x1="130" y1=".25" x2="130" y2="150.25"/>
  <line class="cls-1" x1="140" y1=".25" x2="140" y2="150.25"/>
  <line class="cls-3" x1="80" y1="10.25" x2="80" y2="140.19"/>
  <line class="cls-3" x1="10" y1="80.25" x2="140" y2="80.25"/>
  <polygon class="cls-5" points="145.82 80.25 139.91 76.84 139.91 83.66 145.82 80.25"/>
  <polygon class="cls-5" points="80 4.79 76.59 10.71 83.41 10.71 80 4.79"/>
  <line class="cls-2" x1="90" y1="76.84" x2="90" y2="83.66"/>
  <line class="cls-2" x1="83.41" y1="70.25" x2="76.59" y2="70.25"/>
  <path class="cls-5" d="m90.62,85.83v8.73h-1.32v-7.41h-.05l-2.09,1.36v-1.26l2.18-1.42s1.28,0,1.28,0Z"/>
  <path class="cls-5" d="m144.76,85.41l1.44,2.55,1.46-2.55h1.39l-2.04,3.27,2.06,3.27h-1.39l-1.47-2.45-1.47,2.45h-1.4l2.04-3.27-2.01-3.27h1.4-.01Z"/>
  <path class="cls-5" d="m69.8,12.7c-.19,0-.36-.01-.52-.04-.16-.03-.27-.06-.35-.1l.31-1.04c.23.06.44.09.62.08.18,0,.34-.08.48-.2.14-.13.27-.34.37-.63l.16-.43-2.4-6.63h1.36l1.66,5.08h.07l1.66-5.08h1.37l-2.7,7.42c-.12.34-.28.63-.48.87s-.42.42-.69.54-.58.18-.93.18v-.02h0Z"/>
  <path class="cls-5" d="m74.15,66.49v8.73h-1.32v-7.41h-.05l-2.09,1.36v-1.26l2.18-1.42h1.28Z"/>
  <g>
    <path class="cls-5" d="m11.66,29.46c-.19,0-.36-.02-.52-.04s-.27-.06-.35-.1l.31-1.04c.23.06.44.09.62.08.18,0,.34-.08.48-.2.14-.13.27-.34.37-.63l.16-.43-2.4-6.63h1.36l1.66,5.08h.07l1.66-5.08h1.37l-2.7,7.42c-.12.34-.28.63-.48.87s-.42.42-.69.53c-.27.12-.58.18-.93.18Z"/>
    <path class="cls-5" d="m21.24,22.81v-1.12h5.46v1.12h-5.46Zm0,2.62v-1.12h5.46v1.12h-5.46Z"/>
    <path class="cls-5" d="m36.19,20.46l1.44,2.55,1.46-2.55h1.39l-2.04,3.27,2.06,3.27h-1.39l-1.47-2.45-1.47,2.45h-1.4l2.04-3.27-2.01-3.27h1.4Z"/>
  </g>
  <path class="cls-5" d="m29.04,20.54c-.39,0-.74-.07-1.04-.2-.31-.13-.55-.32-.72-.56-.18-.24-.27-.52-.29-.83h.89c.01.17.07.32.17.45.11.13.24.22.41.29.17.07.36.1.57.1.23,0,.43-.04.61-.12.18-.08.32-.19.42-.33.1-.14.15-.31.15-.5s-.05-.37-.15-.52c-.1-.15-.24-.27-.43-.35-.19-.08-.42-.13-.69-.13h-.49v-.72h.49c.22,0,.41-.04.57-.12s.29-.19.38-.33.14-.3.14-.49-.04-.34-.12-.47c-.08-.13-.19-.24-.34-.31s-.32-.11-.52-.11-.37.03-.53.1c-.16.07-.3.17-.4.3-.1.13-.16.28-.17.46h-.85c0-.31.1-.59.28-.83.18-.24.41-.43.7-.56.29-.13.62-.2.97-.2s.7.07.97.22c.27.14.48.34.63.58.15.24.22.5.22.79,0,.33-.09.6-.27.83-.18.23-.43.38-.73.46v.05c.39.06.69.21.9.46s.32.56.32.92c0,.32-.09.61-.27.86-.18.25-.42.45-.73.6s-.66.22-1.06.22Z"/>
  <path class="cls-5" d="m47.5,18.31v.95h-12.73c-.09.28-.17.56-.26.84-.17.56-.35,1.12-.52,1.68-.12.38-.23.76-.35,1.13-.17.56-.34,1.11-.52,1.67-.14.47-.29.93-.43,1.4-.08.25-.15.5-.22.75-.12.39-.24.78-.36,1.16-.02.05-.03.07-.09.07-.28,0-.57,0-.85,0-.04,0-.07,0-.09-.06-.11-.32-.23-.65-.35-.97-.22-.62-.45-1.23-.67-1.85-.18-.5-.35-.99-.53-1.49-.02-.04-.04-.05-.08-.05-.31,0-.61,0-.92,0h-.09v-.97h.13c.53,0,1.07,0,1.6,0,.07,0,.1.02.12.08.07.22.15.44.23.66.17.5.34.99.51,1.49.16.47.32.94.49,1.41,0,.02.02.03.04.06.13-.44.26-.87.39-1.3.15-.48.29-.96.44-1.45.14-.47.29-.95.43-1.42.16-.53.33-1.07.49-1.6.14-.45.28-.91.41-1.37.07-.24.15-.48.21-.72.02-.07.05-.08.11-.08,2.08,0,4.16,0,6.25,0h7.2Z"/>
  <path class="cls-4" d="m140,62.34c-24.44.77-60,5.66-60,17.91"/>
  <path class="cls-4" d="m10,98.42c22.97-1.22,70-4.09,70-18.17"/>
  <path class="cls-5" d="m72.35,92.25c-.67,0-1.25-.18-1.73-.53s-.84-.87-1.1-1.54c-.25-.67-.38-1.48-.38-2.43s.13-1.75.38-2.42.62-1.18,1.1-1.53c.48-.35,1.05-.53,1.72-.53s1.24.18,1.72.53.84.87,1.1,1.53.38,1.48.38,2.42-.13,1.76-.38,2.44c-.25.67-.62,1.18-1.1,1.54-.48.35-1.05.53-1.72.53h.01Zm0-1.14c.59,0,1.05-.29,1.39-.87.33-.58.5-1.41.5-2.5,0-.72-.08-1.34-.23-1.84s-.37-.88-.65-1.14-.62-.39-1.01-.39c-.59,0-1.05.29-1.39.87-.33.58-.5,1.41-.51,2.5,0,.73.08,1.34.23,1.84s.37.88.65,1.14.62.39,1.01.39h.01Z"/>
</svg>