<?xml version="1.0" encoding="UTF-8"?>
<svg id="Layer_1" data-name="Layer 1" xmlns="http://www.w3.org/2000/svg" viewBox="0 0 61 31">
  <defs>
    <style>
      .cls-1 {
        fill: #fff;
      }
    </style>
  </defs>
  <path class="cls-1" d="m17.35,29.13c-.59,0-1.12-.11-1.59-.33-.48-.22-.85-.54-1.13-.96s-.41-.93-.41-1.54c0-.52.1-.95.3-1.29.2-.34.47-.61.81-.8.34-.2.72-.35,1.15-.45s.85-.18,1.29-.23c.56-.06,1.01-.12,1.35-.16.35-.04.6-.11.75-.21.16-.1.23-.25.23-.47v-.04c0-.53-.15-.94-.44-1.23-.29-.29-.74-.43-1.32-.43s-1.09.13-1.43.4c-.35.27-.59.56-.72.89l-1.7-.39c.2-.56.5-1.02.88-1.37.39-.35.84-.6,1.34-.76.51-.16,1.04-.24,1.6-.24.37,0,.76.04,1.18.13.42.09.81.24,1.17.47.37.23.66.56.9.98.23.42.35.97.35,1.65v6.16h-1.76v-1.27h-.07c-.12.23-.29.46-.53.69-.23.23-.53.41-.9.56s-.81.22-1.32.22Zm.39-1.45c.5,0,.93-.1,1.28-.3.36-.2.63-.46.82-.78.19-.32.28-.66.28-1.03v-1.2c-.06.06-.19.12-.37.18-.18.05-.39.1-.62.14-.23.04-.46.07-.68.1-.22.03-.41.06-.55.08-.35.04-.67.12-.96.22-.29.1-.52.25-.69.45s-.26.45-.26.78c0,.45.17.78.5,1.01.33.23.75.34,1.26.34Z"/>
  <path class="cls-1" d="m25.25,17h-4.5c-2.68,0-5.36,0-8.05,0-.08,0-.12.02-.15.11-.08.31-.18.62-.28.93-.18.59-.35,1.17-.53,1.76-.21.69-.42,1.38-.63,2.07-.19.61-.37,1.22-.56,1.83-.19.62-.38,1.24-.57,1.86-.17.55-.33,1.1-.51,1.68-.02-.04-.04-.05-.05-.08-.21-.61-.42-1.21-.63-1.82-.22-.64-.44-1.28-.66-1.92-.1-.28-.2-.57-.3-.85-.03-.08-.07-.11-.16-.1-.69,0-1.37,0-2.06,0h-.16v1.25h.12c.39,0,.79,0,1.18,0,.06,0,.09.01.11.07.23.64.45,1.28.68,1.92.28.8.57,1.59.86,2.39.15.42.3.83.45,1.25.02.07.06.08.11.08.37,0,.73,0,1.1,0,.07,0,.09-.02.11-.09.15-.5.31-1,.46-1.5.1-.32.19-.64.29-.96.18-.6.37-1.2.55-1.8.22-.72.44-1.43.66-2.15.15-.49.3-.97.45-1.46.22-.72.44-1.44.67-2.16.11-.36.22-.71.33-1.08h11.63v-1.22Z"/>
  <g>
    <path class="cls-1" d="m.15,22.7c0-1.51.2-2.91.6-4.18s.98-2.45,1.75-3.52h1.65c-.3.4-.58.89-.83,1.47-.26.58-.48,1.21-.68,1.9-.19.69-.34,1.41-.45,2.14-.11.74-.16,1.47-.16,2.18,0,.96.09,1.93.28,2.91.19.98.44,1.89.77,2.74.32.84.68,1.53,1.07,2.06h-1.65c-.77-1.08-1.35-2.25-1.75-3.52-.4-1.27-.6-2.67-.6-4.18Z"/>
    <path class="cls-1" d="m32.04,22.7c0,1.52-.2,2.91-.6,4.18-.4,1.27-.98,2.44-1.74,3.52h-1.65c.3-.4.58-.89.83-1.47.26-.58.48-1.21.68-1.91s.34-1.41.45-2.15c.11-.74.16-1.47.16-2.19,0-.95-.09-1.92-.28-2.9-.19-.98-.45-1.89-.77-2.73-.32-.84-.68-1.53-1.07-2.06h1.65c.76,1.07,1.35,2.25,1.74,3.52s.6,2.66.6,4.18Z"/>
  </g>
  <path class="cls-1" d="m33.06,18.01v-.95l2.95-3.06c.32-.33.58-.62.78-.88.21-.25.36-.49.46-.72s.15-.47.15-.72c0-.29-.07-.54-.21-.75-.14-.21-.32-.38-.56-.49-.24-.11-.5-.17-.8-.17-.31,0-.58.06-.82.19-.23.13-.41.31-.54.54s-.19.51-.19.82h-1.26c0-.53.12-1,.37-1.39.25-.4.58-.71,1.01-.93s.91-.33,1.45-.33,1.03.11,1.45.33.75.51.98.89c.24.37.35.79.35,1.26,0,.32-.06.64-.18.95-.12.31-.33.65-.63,1.03-.3.38-.71.84-1.24,1.38l-1.73,1.81v.06h3.93v1.13h-5.75Z"/>
  <g>
    <path class="cls-1" d="m38.16,22.9v-1.59h7.73v1.59h-7.73Zm0,3.72v-1.59h7.73v1.59h-7.73Z"/>
    <path class="cls-1" d="m56.1,29.04c-.59,0-1.12-.11-1.59-.33-.47-.22-.85-.54-1.12-.96-.28-.42-.41-.93-.41-1.54,0-.52.1-.95.3-1.29.2-.34.47-.61.81-.8s.72-.35,1.15-.45.85-.18,1.29-.23c.55-.06,1.01-.12,1.35-.16s.6-.11.75-.21c.16-.1.24-.25.24-.47v-.04c0-.53-.15-.94-.44-1.23-.3-.29-.74-.43-1.32-.43s-1.09.13-1.43.4c-.35.27-.59.56-.72.89l-1.7-.39c.2-.56.5-1.02.88-1.37.39-.35.84-.6,1.34-.76.51-.16,1.04-.24,1.6-.24.37,0,.76.04,1.18.13.42.09.81.25,1.17.47.36.23.66.56.9.98.23.42.35.97.35,1.65v6.16h-1.76v-1.27h-.07c-.12.23-.29.46-.52.69-.23.23-.54.41-.9.56-.37.15-.8.22-1.32.22Zm.39-1.45c.5,0,.93-.1,1.28-.3s.63-.46.81-.78c.19-.32.28-.66.28-1.03v-1.2c-.06.06-.19.12-.37.18s-.39.1-.62.14c-.23.04-.46.07-.68.1-.22.03-.41.06-.56.08-.35.04-.67.12-.96.22-.29.1-.52.25-.69.45s-.26.45-.26.78c0,.45.16.78.49,1.01.33.23.75.34,1.26.34Z"/>
  </g>
</svg>