<?xml version="1.0" encoding="UTF-8"?>
<svg id="Layer_1" data-name="Layer 1" xmlns="http://www.w3.org/2000/svg" viewBox="0 0 139 31">
  <defs>
    <style>
      .cls-1 {
        fill: #fff;
      }
    </style>
  </defs>
  <rect class="cls-1" x="8.62" y="13.25" width="7.1" height="1.5"/>
  <path class="cls-1" d="m13.38,3.03v8.73h-1.32v-7.41h-.05l-2.09,1.36v-1.26l2.18-1.42h1.28Z"/>
  <path class="cls-1" d="m48.52,13h-4.86c-2.9,0-5.8,0-8.69,0-.09,0-.13.02-.16.12-.09.34-.2.67-.3,1-.19.63-.38,1.27-.57,1.9-.23.74-.45,1.49-.68,2.23-.2.66-.4,1.32-.6,1.98-.2.67-.41,1.34-.61,2.01-.18.6-.36,1.19-.55,1.81-.03-.04-.04-.06-.05-.08-.23-.66-.45-1.31-.68-1.97-.24-.69-.47-1.38-.71-2.07-.11-.31-.22-.61-.32-.92-.03-.09-.07-.11-.17-.11-.74,0-1.48,0-2.23,0h-.17v1.35h.13c.43,0,.85,0,1.28,0,.06,0,.1.01.12.07.24.69.49,1.38.74,2.07.31.86.62,1.72.93,2.58.16.45.33.9.48,1.35.03.08.06.08.12.08.4,0,.79,0,1.19,0,.08,0,.1-.02.12-.1.16-.54.33-1.08.5-1.62.11-.35.21-.69.31-1.04.2-.65.4-1.3.6-1.94.24-.77.48-1.55.72-2.32.16-.53.32-1.05.48-1.58.24-.78.48-1.56.72-2.33.12-.39.24-.77.36-1.16h12.57v-1.32Z"/>
  <path class="cls-1" d="m3.32,26.25c-.59,0-1.12-.11-1.59-.33-.47-.22-.85-.54-1.13-.96s-.41-.93-.41-1.54c0-.52.1-.95.3-1.29.2-.34.47-.61.81-.8.34-.2.72-.35,1.15-.45s.85-.18,1.29-.23c.56-.06,1.01-.12,1.35-.16.35-.04.6-.11.75-.21.16-.1.24-.25.24-.47v-.04c0-.53-.15-.94-.44-1.23-.3-.29-.74-.43-1.32-.43s-1.09.13-1.43.4c-.35.27-.59.56-.72.89l-1.7-.39c.2-.56.5-1.02.88-1.37.39-.35.84-.6,1.34-.76.51-.16,1.04-.24,1.6-.24.37,0,.76.04,1.18.13.42.09.81.24,1.17.47.36.23.66.56.9.98.23.42.35.97.35,1.65v6.16h-1.76v-1.27h-.07c-.12.23-.29.46-.53.69-.23.23-.53.41-.9.56s-.81.22-1.32.22Zm.39-1.45c.5,0,.93-.1,1.28-.3.36-.2.63-.46.81-.78.19-.32.28-.66.28-1.03v-1.2c-.06.06-.19.12-.37.18-.18.05-.39.1-.62.14-.23.04-.46.07-.68.1s-.41.06-.56.08c-.35.04-.67.12-.96.22-.29.1-.52.25-.69.45-.17.2-.26.45-.26.78,0,.45.17.78.5,1.01.33.23.75.34,1.26.34Z"/>
  <path class="cls-1" d="m10.57,18.73v3.89h-1.27v-6.55h1.22v1.07h.08c.15-.35.39-.62.71-.84.32-.21.73-.32,1.22-.32.45,0,.84.09,1.17.28s.59.46.78.83c.18.37.28.82.28,1.36v4.16h-1.27v-4.01c0-.47-.12-.85-.37-1.11-.25-.27-.59-.4-1.02-.4-.3,0-.56.06-.79.19-.23.13-.41.31-.54.56-.13.25-.2.54-.2.89Z"/>
  <path class="cls-1" d="m27.12,12.73v3.89h-1.27v-6.55h1.22v1.07h.08c.15-.35.39-.62.71-.84.32-.21.73-.32,1.22-.32.45,0,.84.09,1.17.28s.59.46.78.83c.18.37.28.82.28,1.36v4.16h-1.27v-4.01c0-.47-.12-.85-.37-1.11-.25-.27-.59-.4-1.02-.4-.3,0-.56.06-.79.19-.23.13-.41.31-.54.56-.13.25-.2.54-.2.89Z"/>
  <g>
    <path class="cls-1" d="m18.03,20.8v-1.59h7.73v1.59h-7.73Zm0,3.72v-1.59h7.73v1.59h-7.73Z"/>
    <path class="cls-1" d="m40.48,26.94c-.59,0-1.12-.11-1.59-.33-.48-.22-.85-.54-1.13-.96-.28-.42-.41-.93-.41-1.54,0-.52.1-.95.3-1.29.2-.34.47-.61.82-.8s.72-.35,1.15-.45c.42-.1.85-.18,1.29-.23.56-.06,1.01-.12,1.35-.16.35-.04.6-.11.75-.21.16-.1.24-.25.24-.47v-.04c0-.53-.15-.94-.44-1.23-.29-.29-.74-.43-1.32-.43s-1.09.13-1.43.4c-.35.27-.59.56-.72.89l-1.7-.39c.2-.56.5-1.02.88-1.37.39-.35.84-.6,1.34-.76.51-.16,1.04-.24,1.6-.24.37,0,.76.04,1.18.13.42.09.81.24,1.17.47.36.23.66.56.9.98.23.42.35.97.35,1.65v6.16h-1.76v-1.27h-.07c-.12.23-.29.46-.53.69-.23.23-.53.41-.9.56s-.8.22-1.32.22Zm.39-1.45c.5,0,.93-.1,1.28-.3.36-.2.63-.46.82-.78.19-.32.28-.66.28-1.03v-1.2c-.06.06-.19.12-.37.18-.18.05-.39.1-.62.14-.23.04-.46.07-.68.1-.22.03-.41.06-.55.08-.35.04-.67.12-.96.22s-.52.25-.69.45-.26.45-.26.78c0,.45.17.78.5,1.01.33.23.75.34,1.26.34Z"/>
  </g>
  <g>
    <path class="cls-1" d="m64.33,26.94v-9.27h7.56v9.27h-1.77v-7.72h-4.04v7.72h-1.76Z"/>
    <path class="cls-1" d="m74.32,30.42v-12.75h1.76v1.5h.15c.1-.19.26-.42.45-.67.2-.25.47-.48.82-.67.35-.19.81-.29,1.39-.29.75,0,1.42.19,2,.57.59.38,1.05.92,1.38,1.64.34.71.5,1.57.5,2.57s-.17,1.86-.5,2.57c-.33.71-.79,1.26-1.38,1.65s-1.25.58-2,.58c-.56,0-1.02-.09-1.38-.28-.36-.19-.63-.41-.84-.66s-.36-.48-.46-.68h-.11v4.92h-1.8Zm1.77-8.11c0,.65.09,1.22.28,1.71.19.49.46.87.82,1.15.36.28.8.41,1.32.41s.99-.14,1.35-.43c.36-.29.64-.68.82-1.17.19-.49.28-1.05.28-1.67s-.09-1.16-.28-1.65c-.18-.49-.46-.87-.82-1.15s-.82-.42-1.36-.42-.96.13-1.33.4-.63.65-.82,1.13c-.18.48-.28,1.05-.28,1.69Z"/>
    <path class="cls-1" d="m86.58,24.41l4.09-6.74h1.94v9.27h-1.77v-6.75l-4.07,6.75h-1.96v-9.27h1.77v6.74Z"/>
    <path class="cls-1" d="m102.24,27.15c-.59,0-1.12-.11-1.59-.33-.48-.22-.85-.54-1.13-.96s-.41-.93-.41-1.54c0-.52.1-.95.3-1.29.2-.34.47-.61.81-.8s.72-.35,1.15-.45c.42-.1.85-.18,1.29-.23.55-.06,1.01-.12,1.35-.16.35-.04.6-.11.75-.21s.24-.25.24-.47v-.04c0-.53-.15-.94-.44-1.23-.3-.29-.74-.43-1.32-.43s-1.09.13-1.43.4c-.35.27-.59.56-.72.89l-1.7-.39c.2-.56.5-1.02.88-1.37.39-.35.84-.6,1.34-.76.51-.16,1.04-.24,1.6-.24.37,0,.76.04,1.18.13.42.09.81.24,1.17.47.36.23.66.56.9.98.23.42.35.97.35,1.65v6.16h-1.76v-1.27h-.07c-.12.23-.29.46-.52.69-.23.23-.53.41-.9.56s-.8.22-1.32.22Zm.39-1.45c.5,0,.93-.1,1.28-.3.36-.2.63-.46.82-.78.19-.32.28-.66.28-1.03v-1.2c-.06.06-.19.12-.37.18-.18.05-.39.1-.62.14-.23.04-.46.07-.68.1-.22.03-.41.06-.56.08-.35.04-.67.12-.96.22s-.52.25-.69.45c-.17.2-.26.45-.26.78,0,.45.17.78.5,1.01.33.23.75.34,1.26.34Z"/>
    <path class="cls-1" d="m122.18,21.6l-8.02,3.89v-1.85l5.92-2.69-.06.1v-.26l.06.11-5.92-2.7v-1.84l8.02,3.89v1.35Z"/>
    <path class="cls-1" d="m133.82,27.15c-.95,0-1.77-.26-2.44-.75-.68-.5-1.19-1.23-1.55-2.18-.36-.95-.54-2.1-.54-3.45s.18-2.49.54-3.44.88-1.67,1.56-2.17,1.49-.75,2.44-.75,1.76.25,2.43.75c.68.5,1.19,1.23,1.55,2.17.36.95.54,2.09.54,3.43s-.18,2.5-.54,3.45c-.36.95-.88,1.68-1.55,2.18s-1.49.75-2.44.75Zm0-1.61c.84,0,1.49-.41,1.97-1.23.47-.82.71-2,.71-3.54,0-1.03-.11-1.89-.32-2.6-.21-.71-.52-1.25-.92-1.62-.4-.37-.88-.55-1.43-.55-.83,0-1.49.41-1.96,1.23-.47.82-.71,2-.72,3.54,0,1.03.11,1.9.32,2.61.22.71.52,1.25.92,1.61s.88.55,1.44.55Z"/>
  </g>
</svg>