<?xml version="1.0" encoding="UTF-8"?>
<svg id="Layer_1" data-name="Layer 1" xmlns="http://www.w3.org/2000/svg" viewBox="0 0 103 31">
  <defs>
    <style>
      .cls-1 {
        fill: #fff;
      }
    </style>
  </defs>
  <path class="cls-1" d="m29.25,15.82v1.44H9.97c-.13.43-.26.85-.39,1.27-.26.85-.52,1.69-.78,2.54-.18.57-.35,1.14-.52,1.72-.26.84-.52,1.68-.78,2.53-.22.7-.43,1.41-.65,2.12-.11.38-.22.75-.34,1.13-.18.59-.36,1.17-.54,1.76-.02.08-.05.11-.13.1-.43,0-.86,0-1.29,0-.07,0-.1,0-.13-.09-.17-.49-.35-.98-.53-1.47-.34-.94-.67-1.87-1.01-2.81-.27-.75-.53-1.5-.8-2.26-.02-.07-.06-.08-.13-.08-.46,0-.93,0-1.39,0h-.14v-1.47h.19c.81,0,1.61,0,2.42,0,.1,0,.15.03.18.12.11.33.23.67.35,1,.26.75.51,1.5.77,2.25.24.71.49,1.43.74,2.14,0,.03.03.05.06.09.2-.67.4-1.32.6-1.97.22-.73.45-1.46.67-2.19.22-.72.44-1.43.65-2.15.25-.81.49-1.62.74-2.43.21-.69.42-1.38.63-2.07.11-.36.22-.73.32-1.09.03-.1.07-.13.17-.13,3.15,0,6.31,0,9.46,0h10.9Z"/>
  <path class="cls-1" d="m102.25,16.21h-5.15c-3.07,0-6.14,0-9.21,0-.1,0-.14.02-.17.12-.1.36-.21.71-.32,1.06-.2.67-.41,1.34-.61,2.01-.24.79-.48,1.58-.72,2.37-.21.7-.42,1.4-.64,2.09-.22.71-.43,1.42-.65,2.13-.19.63-.38,1.26-.58,1.92-.03-.04-.05-.06-.06-.09-.24-.69-.48-1.39-.72-2.08-.25-.73-.5-1.46-.75-2.19-.11-.32-.23-.65-.34-.97-.03-.09-.08-.12-.18-.12-.79,0-1.57,0-2.36,0h-.18v1.43h.14c.45,0,.9,0,1.35,0,.06,0,.1.01.12.08.26.73.52,1.47.78,2.2.33.91.65,1.82.98,2.73.17.48.35.95.51,1.43.03.08.07.09.13.09.42,0,.84,0,1.26,0,.08,0,.11-.03.13-.1.17-.57.35-1.14.53-1.72.11-.37.22-.73.33-1.1.21-.69.42-1.37.63-2.06.25-.82.51-1.64.76-2.46.17-.56.34-1.11.51-1.67.25-.82.51-1.65.76-2.47.13-.41.25-.82.38-1.23h13.31v-1.4Z"/>
  <path class="cls-1" d="m67.58,16h-5.22c-3.11,0-6.23,0-9.34,0-.1,0-.14.02-.17.13-.1.36-.21.72-.32,1.08-.21.68-.41,1.36-.62,2.04-.24.8-.49,1.6-.73,2.4-.22.71-.43,1.42-.65,2.13-.22.72-.44,1.44-.66,2.16-.19.64-.39,1.28-.59,1.95-.03-.04-.05-.06-.06-.09-.24-.7-.49-1.41-.73-2.11-.25-.74-.51-1.48-.76-2.23-.11-.33-.23-.66-.34-.99-.03-.09-.08-.12-.18-.12-.8,0-1.6,0-2.39,0h-.19v1.45h.14c.46,0,.91,0,1.37,0,.07,0,.1.01.13.08.26.74.52,1.49.79,2.23.33.92.66,1.85,1,2.77.17.48.35.96.52,1.45.03.08.07.09.13.09.43,0,.85,0,1.28,0,.08,0,.11-.03.13-.1.18-.58.36-1.16.53-1.74.11-.37.22-.74.34-1.11.21-.7.43-1.39.64-2.09.26-.83.52-1.66.77-2.5.17-.56.34-1.13.52-1.69.26-.84.52-1.67.77-2.51.13-.41.26-.83.39-1.25h13.5v-1.42Z"/>
  <g>
    <path class="cls-1" d="m11.91,30.94c-.59,0-1.12-.11-1.59-.33-.48-.22-.85-.54-1.13-.96s-.41-.93-.41-1.54c0-.52.1-.95.3-1.29.2-.34.47-.61.81-.8.34-.2.72-.35,1.15-.45s.85-.18,1.29-.23c.56-.06,1.01-.12,1.35-.16.35-.04.6-.11.75-.21.16-.1.23-.25.23-.47v-.04c0-.53-.15-.94-.44-1.23-.29-.29-.74-.43-1.32-.43s-1.09.13-1.43.4c-.35.27-.59.56-.72.89l-1.7-.39c.2-.56.5-1.02.88-1.37.39-.35.84-.6,1.34-.76.51-.16,1.04-.24,1.6-.24.37,0,.76.04,1.18.13.42.09.81.24,1.17.47.37.23.66.56.9.98.23.42.35.97.35,1.65v6.16h-1.76v-1.27h-.07c-.12.23-.29.46-.53.69-.23.23-.53.41-.9.56s-.81.22-1.32.22Zm.39-1.45c.5,0,.93-.1,1.28-.3.36-.2.63-.46.82-.78.19-.32.28-.66.28-1.03v-1.2c-.06.06-.19.12-.37.18-.18.05-.39.1-.62.14-.23.04-.46.07-.68.1-.22.03-.41.06-.55.08-.35.04-.67.12-.96.22-.29.1-.52.25-.69.45s-.26.45-.26.78c0,.45.17.78.5,1.01.33.23.75.34,1.26.34Z"/>
    <path class="cls-1" d="m19.03,30.73v-12.36h1.8v4.59h.11c.1-.19.25-.42.45-.67.2-.25.47-.48.82-.67.35-.19.81-.29,1.39-.29.75,0,1.42.19,2,.57.59.38,1.05.92,1.39,1.64.34.71.5,1.57.5,2.57s-.17,1.86-.5,2.57-.79,1.26-1.38,1.65c-.58.38-1.25.58-2,.58-.56,0-1.02-.09-1.38-.28-.36-.19-.63-.41-.84-.66s-.36-.48-.46-.68h-.15v1.44h-1.76Zm1.77-4.64c0,.65.09,1.22.28,1.71s.46.87.82,1.15c.36.28.8.41,1.32.41s.99-.14,1.35-.43c.36-.29.64-.68.82-1.17.19-.49.28-1.05.28-1.67s-.09-1.16-.27-1.65c-.18-.49-.46-.87-.82-1.15s-.82-.42-1.36-.42-.96.13-1.33.4-.63.65-.82,1.13c-.19.48-.28,1.05-.28,1.69Z"/>
    <path class="cls-1" d="m34.61,24.8v-1.59h7.73v1.59h-7.73Zm0,3.72v-1.59h7.73v1.59h-7.73Z"/>
    <path class="cls-1" d="m57.05,30.94c-.59,0-1.12-.11-1.59-.33-.47-.22-.85-.54-1.12-.96s-.41-.93-.41-1.54c0-.52.1-.95.3-1.29.2-.34.47-.61.81-.8s.72-.35,1.15-.45.85-.18,1.29-.23c.55-.06,1.01-.12,1.35-.16.35-.04.6-.11.75-.21.16-.1.24-.25.24-.47v-.04c0-.53-.15-.94-.44-1.23-.3-.29-.74-.43-1.32-.43s-1.09.13-1.43.4c-.35.27-.59.56-.72.89l-1.7-.39c.2-.56.5-1.02.88-1.37.39-.35.84-.6,1.34-.76.51-.16,1.04-.24,1.6-.24.37,0,.76.04,1.18.13s.81.24,1.17.47c.36.23.66.56.9.98.23.42.35.97.35,1.65v6.16h-1.76v-1.27h-.07c-.12.23-.29.46-.52.69-.23.23-.54.41-.9.56-.37.15-.8.22-1.32.22Zm.39-1.45c.5,0,.93-.1,1.28-.3.36-.2.63-.46.81-.78.19-.32.28-.66.28-1.03v-1.2c-.06.06-.19.12-.37.18-.18.05-.39.1-.62.14-.23.04-.46.07-.68.1-.22.03-.41.06-.56.08-.35.04-.67.12-.96.22-.29.1-.52.25-.69.45s-.26.45-.26.78c0,.45.16.78.49,1.01.33.23.75.34,1.26.34Z"/>
    <path class="cls-1" d="m74.22,26.52c-.33,0-.61-.12-.85-.35-.24-.24-.36-.52-.36-.85s.12-.61.36-.85c.24-.24.52-.35.85-.35s.62.12.85.35c.24.24.36.52.36.85,0,.22-.06.42-.17.61-.11.18-.26.33-.44.44-.18.11-.38.16-.61.16Z"/>
    <path class="cls-1" d="m91.5,30.73v-12.36h1.8v4.59h.11c.1-.19.25-.42.45-.67.2-.25.47-.48.82-.67.35-.19.81-.29,1.39-.29.75,0,1.42.19,2,.57.59.38,1.05.92,1.38,1.64s.5,1.57.5,2.57-.17,1.86-.5,2.57-.79,1.26-1.38,1.65-1.25.58-2,.58c-.56,0-1.02-.09-1.38-.28-.36-.19-.63-.41-.84-.66-.2-.25-.36-.48-.46-.68h-.15v1.44h-1.76Zm1.77-4.64c0,.65.1,1.22.29,1.71.19.49.46.87.82,1.15.36.28.8.41,1.32.41s.99-.14,1.35-.43c.36-.29.64-.68.82-1.17.19-.49.28-1.05.28-1.67s-.09-1.16-.28-1.65c-.18-.49-.46-.87-.82-1.15-.37-.28-.82-.42-1.36-.42s-.96.13-1.33.4c-.36.27-.63.65-.82,1.13-.19.48-.28,1.05-.28,1.69Z"/>
  </g>
</svg>