<?xml version="1.0" encoding="UTF-8"?>
<svg id="Layer_1" data-name="Layer 1" xmlns="http://www.w3.org/2000/svg" viewBox="0 0 50 31">
  <defs>
    <style>
      .cls-1 {
        fill: #fff;
      }
    </style>
  </defs>
  <path class="cls-1" d="m21.77,17h-4.86c-2.9,0-5.8,0-8.69,0-.09,0-.13.02-.16.12-.09.34-.2.67-.3,1-.19.63-.38,1.27-.57,1.9-.23.74-.45,1.49-.68,2.23-.2.66-.4,1.32-.6,1.98-.2.67-.41,1.34-.61,2.01-.18.6-.36,1.19-.55,1.81-.03-.04-.04-.06-.05-.08-.23-.66-.45-1.31-.68-1.97-.24-.69-.47-1.38-.71-2.07-.11-.31-.22-.61-.32-.92-.03-.09-.07-.11-.17-.11-.74,0-1.48,0-2.23,0h-.17v1.35h.13c.43,0,.85,0,1.28,0,.06,0,.1.01.12.07.24.69.49,1.38.74,2.07.31.86.62,1.72.93,2.58.16.45.33.9.48,1.35.03.08.06.08.12.08.4,0,.79,0,1.19,0,.08,0,.1-.02.12-.1.16-.54.33-1.08.5-1.62.11-.35.21-.69.31-1.04.2-.65.4-1.3.6-1.94.24-.77.48-1.55.72-2.32.16-.53.32-1.05.48-1.58.24-.78.48-1.56.72-2.33.12-.39.24-.77.36-1.16h12.57v-1.32Z"/>
  <g>
    <path class="cls-1" d="m13.21,30.1c-.59,0-1.12-.11-1.59-.33-.48-.22-.85-.54-1.13-.96-.28-.42-.41-.93-.41-1.54,0-.52.1-.95.3-1.29.2-.34.47-.61.82-.8s.72-.35,1.15-.45c.42-.1.85-.18,1.29-.23.56-.06,1.01-.12,1.35-.16.35-.04.6-.11.75-.21.16-.1.24-.25.24-.47v-.04c0-.53-.15-.94-.44-1.23-.29-.29-.74-.43-1.32-.43s-1.09.13-1.43.4c-.35.27-.59.56-.72.89l-1.7-.39c.2-.56.5-1.02.88-1.37.39-.35.84-.6,1.34-.76.51-.16,1.04-.24,1.6-.24.37,0,.76.04,1.18.13.42.09.81.25,1.17.47.36.23.66.56.9.98.23.42.35.97.35,1.65v6.16h-1.76v-1.27h-.07c-.12.23-.29.46-.53.69s-.53.41-.9.56-.8.22-1.32.22Zm.39-1.45c.5,0,.93-.1,1.28-.3s.63-.46.82-.78c.19-.32.28-.66.28-1.03v-1.2c-.06.06-.19.12-.37.18-.18.05-.39.1-.62.14-.23.04-.46.07-.68.1-.22.03-.41.05-.55.07-.35.04-.67.12-.96.22-.29.1-.52.25-.69.45s-.26.45-.26.78c0,.45.17.78.5,1.01.33.23.75.34,1.26.34Z"/>
    <path class="cls-1" d="m33.15,23.18l-8.02,2.63v-1.64l5.49-1.64-.05.11v-.27l.05.11-5.49-1.64v-1.64l8.02,2.63v1.35Zm-8.02,5.06v-1.58h8.02v1.58h-8.02Z"/>
    <path class="cls-1" d="m44.8,30.1c-.95,0-1.77-.25-2.45-.75s-1.19-1.23-1.55-2.18c-.36-.95-.54-2.1-.54-3.45s.18-2.48.54-3.43c.36-.95.88-1.67,1.56-2.17.68-.5,1.49-.75,2.44-.75s1.76.25,2.43.75c.68.5,1.19,1.23,1.55,2.17.36.95.54,2.09.54,3.43s-.18,2.5-.54,3.45c-.36.95-.88,1.68-1.55,2.18s-1.49.75-2.44.75Zm0-1.61c.84,0,1.49-.41,1.96-1.23.47-.82.71-2,.71-3.54,0-1.03-.11-1.89-.32-2.6-.21-.71-.52-1.25-.92-1.62-.4-.37-.88-.55-1.43-.55-.83,0-1.49.41-1.96,1.23-.48.82-.71,2-.72,3.54,0,1.03.11,1.9.32,2.61.21.71.52,1.25.92,1.61.4.37.88.55,1.44.55Z"/>
  </g>
</svg>