<?xml version="1.0" encoding="UTF-8"?>
<svg id="Layer_1" data-name="Layer 1" xmlns="http://www.w3.org/2000/svg" viewBox="0 0 56 31">
  <defs>
    <style>
      .cls-1 {
        fill: #fff;
      }
    </style>
  </defs>
  <path class="cls-1" d="m56.5,1h-5.22c-3.11,0-6.23,0-9.34,0-.1,0-.14.02-.17.13-.1.36-.21.72-.32,1.08-.21.68-.41,1.36-.62,2.04-.24.8-.49,1.6-.73,2.4-.22.71-.43,1.42-.65,2.13-.22.72-.44,1.44-.66,2.16-.19.64-.39,1.28-.59,1.95-.03-.04-.05-.06-.06-.09-.24-.7-.49-1.41-.73-2.11-.25-.74-.51-1.48-.76-2.23-.11-.33-.23-.66-.34-.99-.03-.09-.08-.12-.18-.12-.8,0-1.6,0-2.39,0h-.19v1.45h.14c.46,0,.91,0,1.37,0,.07,0,.1.01.13.08.26.74.52,1.49.79,2.23.33.92.66,1.85,1,2.77.17.48.35.96.52,1.45.03.08.07.09.13.09.43,0,.85,0,1.28,0,.08,0,.11-.03.13-.1.18-.58.36-1.16.53-1.74.11-.37.22-.74.34-1.11.21-.7.43-1.39.64-2.09.26-.83.52-1.66.77-2.5.17-.56.34-1.13.52-1.69.26-.84.52-1.67.77-2.51.13-.41.26-.83.39-1.25h13.5v-1.42Z"/>
  <path class="cls-1" d="m56.16,17h-5.07c-3.02,0-6.05,0-9.07,0-.09,0-.14.02-.17.12-.1.35-.21.7-.31,1.05-.2.66-.4,1.32-.6,1.98-.24.78-.47,1.55-.71,2.33-.21.69-.42,1.38-.63,2.06-.21.7-.43,1.4-.64,2.1-.19.62-.38,1.25-.57,1.89-.03-.04-.05-.06-.06-.09-.24-.68-.47-1.37-.71-2.05-.25-.72-.49-1.44-.74-2.16-.11-.32-.23-.64-.33-.96-.03-.09-.08-.12-.17-.12-.77,0-1.55,0-2.32,0h-.18v1.41h.13c.44,0,.89,0,1.33,0,.06,0,.1.01.12.08.25.72.51,1.44.77,2.16.32.9.64,1.79.97,2.69.17.47.34.93.5,1.41.03.08.06.09.13.09.41,0,.83,0,1.24,0,.08,0,.11-.03.13-.1.17-.56.35-1.13.52-1.69.11-.36.22-.72.33-1.08.21-.68.41-1.35.62-2.03.25-.81.5-1.62.75-2.42.17-.55.33-1.1.5-1.65.25-.81.5-1.62.75-2.43.12-.4.25-.8.38-1.21h13.11v-1.38Z"/>
  <path class="cls-1" d="m7.91,0c-.1,0-.14.02-.17.13l-.3,5.57s-.59,12.23-.6,12.24c-.07.83-.13,1.66-.2,2.5-.06.74-.12,1.47-.17,2.21-.06.75-.12,1.5-.18,2.25-.05.67-.1,1.33-.15,2.03-.04-.04-.06-.05-.07-.08-.39-.63-.78-1.27-1.16-1.91-.41-.67-.81-1.34-1.22-2.01-.18-.3-.37-.59-.55-.89-.05-.09-.1-.1-.2-.08-.78.18-1.55.35-2.33.52-.06.01-.12.03-.18.04.1.48.21.94.31,1.42.05-.01.09-.02.13-.03.45-.1.89-.19,1.34-.3.06-.01.1,0,.14.05.41.67.83,1.34,1.25,2,.52.83,1.04,1.66,1.57,2.49.27.43.55.86.82,1.3.05.07.08.07.15.06.41-.09.83-.19,1.25-.27.08-.02.1-.05.11-.13.05-.6.1-1.21.15-1.81.03-.39.06-.77.09-1.16.06-.72.12-1.45.18-2.17.07-.87.15-1.73.22-2.6.05-.59.09-1.18.14-1.76.04-.49.91-11.65,1.42-18.18h12.8V0h-5.21"/>
  <path class="cls-1" d="m14.97,13c-.59,0-1.12-.11-1.59-.33-.47-.22-.85-.54-1.13-.96-.28-.42-.41-.93-.41-1.54,0-.52.1-.95.3-1.29.2-.34.47-.61.81-.8.34-.2.72-.35,1.15-.45.42-.1.85-.18,1.29-.23.56-.06,1.01-.12,1.35-.16.35-.04.6-.11.75-.21.16-.1.24-.25.24-.47v-.04c0-.53-.15-.94-.44-1.23s-.74-.43-1.32-.43-1.09.13-1.43.4c-.35.27-.59.56-.72.89l-1.7-.39c.2-.56.5-1.02.88-1.37.39-.35.84-.6,1.34-.76.51-.16,1.04-.24,1.6-.24.37,0,.76.04,1.18.13.42.09.81.25,1.17.47.36.23.66.56.9.98s.35.97.35,1.65v6.16h-1.76v-1.27h-.07c-.12.23-.29.46-.53.69-.23.22-.53.41-.9.56-.37.15-.81.22-1.32.22Zm.39-1.45c.5,0,.93-.1,1.28-.3.36-.2.63-.46.81-.78s.28-.66.28-1.03v-1.2c-.06.06-.19.12-.37.18-.18.05-.39.1-.62.14-.23.04-.46.07-.68.1s-.41.05-.56.08c-.35.04-.67.12-.96.22-.29.1-.52.25-.69.45-.17.2-.26.45-.26.78,0,.45.17.78.5,1.01.33.23.75.34,1.26.34Z"/>
  <path class="cls-1" d="m11.69,28.98v-12.36h1.81v4.59h.11c.1-.19.25-.42.45-.67.2-.25.47-.48.82-.67.35-.19.81-.29,1.39-.29.75,0,1.42.19,2,.57.59.38,1.05.92,1.39,1.64.34.71.5,1.57.5,2.57s-.17,1.86-.5,2.57c-.33.71-.79,1.26-1.38,1.65-.58.38-1.25.58-2,.58-.56,0-1.02-.09-1.38-.28s-.63-.41-.84-.66-.36-.48-.46-.68h-.15v1.44h-1.76Zm1.77-4.64c0,.65.09,1.22.28,1.71s.46.87.82,1.15c.36.28.8.41,1.32.41s.99-.14,1.35-.43c.36-.29.64-.68.82-1.17.19-.5.28-1.05.28-1.67s-.09-1.16-.27-1.65c-.18-.49-.46-.87-.82-1.15s-.82-.42-1.36-.42-.96.13-1.33.4c-.36.27-.63.65-.82,1.13-.19.48-.28,1.05-.28,1.69Z"/>
  <rect class="cls-1" x="10.11" y="14.75" width="11" height="1.5"/>
  <path class="cls-1" d="m46.97,13c-.59,0-1.12-.11-1.59-.33-.47-.22-.85-.54-1.13-.96-.28-.42-.41-.93-.41-1.54,0-.52.1-.95.3-1.29.2-.34.47-.61.81-.8.34-.2.72-.35,1.15-.45.42-.1.85-.18,1.29-.23.56-.06,1.01-.12,1.35-.16.35-.04.6-.11.75-.21.16-.1.24-.25.24-.47v-.04c0-.53-.15-.94-.44-1.23s-.74-.43-1.32-.43-1.09.13-1.43.4c-.35.27-.59.56-.72.89l-1.7-.39c.2-.56.5-1.02.88-1.37.39-.35.84-.6,1.34-.76.51-.16,1.04-.24,1.6-.24.37,0,.76.04,1.18.13.42.09.81.25,1.17.47.36.23.66.56.9.98s.35.97.35,1.65v6.16h-1.76v-1.27h-.07c-.12.23-.29.46-.53.69-.23.22-.53.41-.9.56-.37.15-.81.22-1.32.22Zm.39-1.45c.5,0,.93-.1,1.28-.3.36-.2.63-.46.81-.78s.28-.66.28-1.03v-1.2c-.06.06-.19.12-.37.18-.18.05-.39.1-.62.14-.23.04-.46.07-.68.1s-.41.05-.56.08c-.35.04-.67.12-.96.22-.29.1-.52.25-.69.45-.17.2-.26.45-.26.78,0,.45.17.78.5,1.01.33.23.75.34,1.26.34Z"/>
  <path class="cls-1" d="m43.69,30.98v-12.36h1.81v4.59h.11c.1-.19.25-.42.45-.67.2-.25.47-.48.82-.67.35-.19.81-.29,1.39-.29.75,0,1.42.19,2,.57.59.38,1.05.92,1.39,1.64.34.71.5,1.57.5,2.57s-.17,1.86-.5,2.57c-.33.71-.79,1.26-1.38,1.65-.58.38-1.25.58-2,.58-.56,0-1.02-.09-1.38-.28s-.63-.41-.84-.66-.36-.48-.46-.68h-.15v1.44h-1.76Zm1.77-4.64c0,.65.09,1.22.28,1.71s.46.87.82,1.15c.36.28.8.41,1.32.41s.99-.14,1.35-.43c.36-.29.64-.68.82-1.17.19-.5.28-1.05.28-1.67s-.09-1.16-.27-1.65c-.18-.49-.46-.87-.82-1.15s-.82-.42-1.36-.42-.96.13-1.33.4c-.36.27-.63.65-.82,1.13-.19.48-.28,1.05-.28,1.69Z"/>
  <rect class="cls-1" x="42.11" y="14.75" width="11" height="1.5"/>
  <path class="cls-1" d="m24.58,14.09v-1.59h7.73v1.59h-7.73Zm0,3.72v-1.59h7.73v1.59h-7.73Z"/>
</svg>