<?xml version="1.0" encoding="utf-8"?>
<!-- Generator: Adobe Illustrator 27.6.1, SVG Export Plug-In . SVG Version: 6.00 Build 0)  -->
<svg version="1.1" xmlns="http://www.w3.org/2000/svg" xmlns:xlink="http://www.w3.org/1999/xlink" x="0px" y="0px"
	 viewBox="0 0 150.2 150.5" style="enable-background:new 0 0 150.2 150.5;" xml:space="preserve">
<style type="text/css">
	.st0{fill:#191919;stroke:#000000;stroke-miterlimit:10;}
	.st1{opacity:0.3;fill:none;stroke:#BDCCD4;stroke-width:0.5;stroke-miterlimit:10;enable-background:new    ;}
	.st2{fill:none;stroke:#FFFFFF;stroke-width:2;stroke-miterlimit:10;}
	.st3{fill:#FFFFFF;}
	.st4{fill:none;stroke:#FFFFFF;stroke-miterlimit:10;}
	.st5{fill:none;stroke:#D1AE59;stroke-width:2;stroke-miterlimit:10;}
	.st6{fill:#D1AE59;}
</style>
<g id="Layer_2">
	<rect x="-8" y="-2.9" class="st0" width="789" height="627"/>
</g>
<g id="Layer_1">
	<rect x="0.2" y="0.2" class="st1" width="149.8" height="150"/>
	<line class="st1" x1="70" y1="0" x2="70" y2="150.5"/>
	<line class="st1" x1="60" y1="0" x2="60" y2="150.5"/>
	<line class="st1" x1="50" y1="0" x2="50" y2="150.5"/>
	<line class="st1" x1="40" y1="0" x2="40" y2="150.5"/>
	<line class="st1" x1="30" y1="0" x2="30" y2="150.5"/>
	<line class="st1" x1="20" y1="0" x2="20" y2="150.5"/>
	<line class="st1" x1="10" y1="0" x2="10" y2="150.5"/>
	<line class="st1" x1="150.2" y1="80.2" x2="0" y2="80.2"/>
	<line class="st1" x1="150.2" y1="90.2" x2="0" y2="90.2"/>
	<line class="st1" x1="150.2" y1="100.2" x2="0" y2="100.2"/>
	<line class="st1" x1="150.2" y1="110.3" x2="0" y2="110.3"/>
	<line class="st1" x1="150.2" y1="120.2" x2="0" y2="120.2"/>
	<line class="st1" x1="150.2" y1="130.2" x2="0" y2="130.2"/>
	<line class="st1" x1="150.2" y1="140.2" x2="0" y2="140.2"/>
	<line class="st1" x1="150.2" y1="70.2" x2="0" y2="70.2"/>
	<line class="st1" x1="150.2" y1="60.2" x2="0" y2="60.2"/>
	<line class="st1" x1="150.2" y1="50.2" x2="0" y2="50.2"/>
	<line class="st1" x1="150.2" y1="40.2" x2="0" y2="40.2"/>
	<line class="st1" x1="150.2" y1="30.2" x2="0" y2="30.2"/>
	<line class="st1" x1="150.2" y1="20.2" x2="0" y2="20.2"/>
	<line class="st1" x1="150.2" y1="10.2" x2="0" y2="10.2"/>
	<line class="st1" x1="80" y1="0" x2="80" y2="150.5"/>
	<line class="st1" x1="90" y1="0" x2="90" y2="150.5"/>
	<line class="st1" x1="100" y1="0" x2="100" y2="150.5"/>
	<line class="st1" x1="110" y1="0" x2="110" y2="150.5"/>
	<line class="st1" x1="120" y1="0" x2="120" y2="150.5"/>
	<line class="st1" x1="130" y1="0" x2="130" y2="150.5"/>
	<line class="st1" x1="140" y1="0" x2="140" y2="150.5"/>
	<line class="st2" x1="30" y1="10.3" x2="30" y2="140.2"/>
	<line class="st2" x1="10" y1="119.8" x2="140" y2="119.8"/>
	<polygon class="st3" points="145.8,119.8 139.9,116.4 139.9,123.2 	"/>
	<polygon class="st3" points="30,4.8 26.6,10.8 33.4,10.8 	"/>
	<line class="st4" x1="40" y1="116.4" x2="40" y2="123.3"/>
	<line class="st4" x1="33.4" y1="110.3" x2="26.6" y2="110.3"/>
	<path class="st3" d="M40.6,125.4v8.7h-1.3v-7.4h-0.1l-2.1,1.4v-1.3l2.2-1.4C39.3,125.4,40.6,125.4,40.6,125.4z"/>
	<path class="st3" d="M141.4,126.5l1.4,2.6l1.5-2.6h1.4l-2,3.3l2.1,3.3h-1.4l-1.5-2.4l-1.5,2.4H140l2-3.3l-2-3.3H141.4L141.4,126.5
		L141.4,126.5z"/>
	<path class="st3" d="M19.8,12.8c-0.2,0-0.4,0-0.5,0c-0.2,0-0.3-0.1-0.3-0.1l0.3-1c0.2,0.1,0.4,0.1,0.6,0.1c0.2,0,0.3-0.1,0.5-0.2
		c0.1-0.1,0.3-0.3,0.4-0.6l0.2-0.4l-2.4-6.6h1.4l1.7,5.1h0.1l1.7-5.1h1.4l-2.7,7.4c-0.1,0.3-0.3,0.6-0.5,0.9s-0.4,0.4-0.7,0.5
		S20.1,12.8,19.8,12.8L19.8,12.8L19.8,12.8L19.8,12.8z"/>
	<path class="st3" d="M24.2,106.5v8.7h-1.3v-7.4h-0.1l-2.1,1.4v-1.3l2.2-1.4H24.2z"/>
	<path class="st3" d="M22.3,131.9c-0.7,0-1.2-0.2-1.7-0.5s-0.8-0.9-1.1-1.5c-0.2-0.7-0.4-1.5-0.4-2.4s0.1-1.8,0.4-2.4
		s0.6-1.2,1.1-1.5c0.5-0.3,1.1-0.5,1.7-0.5s1.2,0.2,1.7,0.5s0.8,0.9,1.1,1.5s0.4,1.5,0.4,2.4c0,0.9-0.1,1.8-0.4,2.4
		c-0.2,0.7-0.6,1.2-1.1,1.5C23.6,131.7,23,131.9,22.3,131.9L22.3,131.9L22.3,131.9z M22.3,130.7c0.6,0,1.1-0.3,1.4-0.9
		c0.3-0.6,0.5-1.4,0.5-2.5c0-0.7-0.1-1.3-0.2-1.8s-0.4-0.9-0.7-1.1s-0.6-0.4-1-0.4c-0.6,0-1.1,0.3-1.4,0.9c-0.3,0.6-0.5,1.4-0.5,2.5
		c0,0.7,0.1,1.3,0.2,1.8s0.4,0.9,0.7,1.1S21.9,130.7,22.3,130.7L22.3,130.7z"/>
	<line class="st5" x1="50" y1="80.2" x2="120" y2="40.2"/>
	<polygon class="st6" points="126.2,36.6 117.8,36.7 122.1,43.9 	"/>
	<g>
		<g>
			<path class="st3" d="M46,75.2h-1.4l3.1-8.7h1.5l3.1,8.7H51l-2.5-7.1h-0.1L46,75.2z M46.2,71.8h4.5v1.1h-4.5V71.8z"/>
		</g>
	</g>
	<g>
		<g>
			<path class="st3" d="M113.9,32.2v-8.7h3.2c0.6,0,1.1,0.1,1.5,0.3s0.7,0.5,0.9,0.8c0.2,0.3,0.3,0.7,0.3,1.2c0,0.4-0.1,0.7-0.2,0.9
				s-0.3,0.4-0.5,0.6c-0.2,0.1-0.5,0.3-0.7,0.3v0.1c0.3,0,0.6,0.1,0.8,0.3c0.3,0.2,0.5,0.4,0.7,0.7s0.3,0.7,0.3,1.2
				c0,0.4-0.1,0.8-0.3,1.2c-0.2,0.4-0.5,0.6-1,0.8c-0.4,0.2-1,0.3-1.7,0.3H113.9z M115.2,27.3h1.8c0.3,0,0.6-0.1,0.8-0.2
				s0.4-0.3,0.6-0.5s0.2-0.4,0.2-0.7c0-0.4-0.1-0.7-0.4-0.9c-0.3-0.2-0.6-0.4-1.2-0.4h-1.8V27.3z M115.2,31.1h1.9
				c0.6,0,1.1-0.1,1.4-0.4c0.3-0.2,0.4-0.5,0.4-0.9c0-0.3-0.1-0.5-0.2-0.8c-0.1-0.2-0.3-0.4-0.6-0.5s-0.6-0.2-0.9-0.2h-1.9V31.1z"/>
		</g>
	</g>
	<g>
		<g>
			<path class="st3" d="M193.9,57.7h-2l4.4-12.4h2.2l4.4,12.4h-2l-3.5-10.1h-0.1L193.9,57.7z M194.3,52.9h6.4v1.6h-6.4V52.9z"/>
			<path class="st3" d="M204.8,57.7V45.3h4.5c0.9,0,1.6,0.1,2.2,0.4c0.6,0.3,1,0.7,1.3,1.2c0.3,0.5,0.4,1,0.4,1.7
				c0,0.5-0.1,0.9-0.3,1.3c-0.2,0.4-0.4,0.6-0.8,0.8c-0.3,0.2-0.7,0.4-1,0.5v0.1c0.4,0,0.8,0.2,1.2,0.4s0.7,0.6,1,1
				c0.3,0.4,0.4,1,0.4,1.6c0,0.6-0.1,1.2-0.4,1.7s-0.8,0.9-1.4,1.2c-0.6,0.3-1.4,0.4-2.4,0.4H204.8z M206.7,50.7h2.5
				c0.4,0,0.8-0.1,1.1-0.2c0.3-0.2,0.6-0.4,0.8-0.7s0.3-0.6,0.3-1c0-0.5-0.2-0.9-0.5-1.3c-0.4-0.3-0.9-0.5-1.6-0.5h-2.5V50.7z
				 M206.7,56.1h2.7c0.9,0,1.5-0.2,1.9-0.5c0.4-0.3,0.6-0.8,0.6-1.3c0-0.4-0.1-0.7-0.3-1.1c-0.2-0.3-0.5-0.6-0.8-0.8
				c-0.4-0.2-0.8-0.3-1.3-0.3h-2.8V56.1z"/>
			<path class="st3" d="M220.8,52.6c0-1.5,0.2-2.9,0.6-4.2c0.4-1.3,1-2.4,1.7-3.5h1.7c-0.3,0.4-0.6,0.9-0.8,1.5
				c-0.3,0.6-0.5,1.2-0.7,1.9c-0.2,0.7-0.3,1.4-0.5,2.1c-0.1,0.7-0.2,1.5-0.2,2.2c0,1,0.1,1.9,0.3,2.9c0.2,1,0.4,1.9,0.8,2.7
				c0.3,0.8,0.7,1.5,1.1,2.1h-1.7c-0.8-1.1-1.3-2.2-1.7-3.5C221,55.5,220.8,54.1,220.8,52.6z"/>
			<path class="st3" d="M228.1,48.4l2,3.6l2.1-3.6h2l-2.9,4.6l2.9,4.6h-2l-2.1-3.5l-2.1,3.5h-2l2.9-4.6l-2.8-4.6H228.1z"/>
			<path class="st3" d="M250.5,51.7v1.6h-5.5v-1.6H250.5z"/>
			<path class="st3" d="M258.9,48.4l2,3.6l2.1-3.6h2l-2.9,4.6l2.9,4.6h-2l-2.1-3.5l-2.1,3.5h-2l2.9-4.6l-2.8-4.6H258.9z"/>
			<path class="st3" d="M278.2,56l-0.1,0.7c-0.1,0.5-0.2,1-0.3,1.5c-0.1,0.5-0.3,1-0.4,1.5c-0.2,0.5-0.3,0.8-0.4,1.1h-1.3
				c0.1-0.2,0.1-0.6,0.2-1c0.1-0.4,0.2-0.9,0.3-1.4c0.1-0.5,0.2-1.1,0.2-1.6l0.1-0.7H278.2z M277.2,51.1c-0.3,0-0.6-0.1-0.9-0.4
				s-0.4-0.5-0.4-0.9s0.1-0.6,0.4-0.8c0.2-0.2,0.5-0.4,0.9-0.4s0.6,0.1,0.9,0.4c0.2,0.2,0.4,0.5,0.4,0.8c0,0.2-0.1,0.4-0.2,0.6
				c-0.1,0.2-0.3,0.3-0.4,0.4C277.7,51,277.4,51.1,277.2,51.1z"/>
			<path class="st3" d="M286.4,61.2c-0.3,0-0.5,0-0.7-0.1c-0.2,0-0.4-0.1-0.5-0.1l0.4-1.5c0.3,0.1,0.6,0.1,0.9,0.1
				c0.3,0,0.5-0.1,0.7-0.3s0.4-0.5,0.5-0.9l0.2-0.6l-3.4-9.4h1.9l2.3,7.2h0.1l2.3-7.2h1.9l-3.8,10.5c-0.2,0.5-0.4,0.9-0.7,1.2
				s-0.6,0.6-1,0.8C287.3,61.1,286.9,61.2,286.4,61.2z"/>
			<path class="st3" d="M309.3,51.7v1.6h-5.5v-1.6H309.3z"/>
			<path class="st3" d="M317.4,61.2c-0.3,0-0.5,0-0.7-0.1c-0.2,0-0.4-0.1-0.5-0.1l0.4-1.5c0.3,0.1,0.6,0.1,0.9,0.1
				c0.3,0,0.5-0.1,0.7-0.3s0.4-0.5,0.5-0.9l0.2-0.6l-3.4-9.4h1.9l2.3,7.2h0.1l2.3-7.2h1.9l-3.8,10.5c-0.2,0.5-0.4,0.9-0.7,1.2
				s-0.6,0.6-1,0.8C318.3,61.1,317.9,61.2,317.4,61.2z"/>
			<path class="st3" d="M338.3,52.6c0,1.5-0.2,2.9-0.6,4.2c-0.4,1.3-1,2.4-1.7,3.5h-1.7c0.3-0.4,0.6-0.9,0.8-1.5
				c0.3-0.6,0.5-1.2,0.7-1.9s0.3-1.4,0.5-2.1c0.1-0.7,0.2-1.5,0.2-2.2c0-1-0.1-1.9-0.3-2.9s-0.4-1.9-0.8-2.7
				c-0.3-0.8-0.7-1.5-1.1-2.1h1.7c0.8,1.1,1.3,2.2,1.7,3.5C338.1,49.7,338.3,51.1,338.3,52.6z"/>
		</g>
	</g>
	<g>
		<g>
			<path class="st3" d="M236.3,62.6v-8.7h3.2c0.6,0,1.1,0.1,1.5,0.3s0.7,0.5,0.9,0.8c0.2,0.3,0.3,0.7,0.3,1.2c0,0.4-0.1,0.7-0.2,0.9
				c-0.1,0.2-0.3,0.4-0.5,0.6c-0.2,0.1-0.5,0.3-0.7,0.3v0.1c0.3,0,0.6,0.1,0.9,0.3c0.3,0.2,0.5,0.4,0.7,0.7c0.2,0.3,0.3,0.7,0.3,1.2
				c0,0.4-0.1,0.8-0.3,1.2s-0.5,0.6-1,0.8c-0.4,0.2-1,0.3-1.7,0.3H236.3z M237.6,57.6h1.8c0.3,0,0.6-0.1,0.8-0.2s0.4-0.3,0.6-0.5
				s0.2-0.4,0.2-0.7c0-0.4-0.1-0.7-0.4-0.9s-0.6-0.4-1.2-0.4h-1.8V57.6z M237.6,61.4h1.9c0.6,0,1.1-0.1,1.4-0.4
				c0.3-0.2,0.4-0.5,0.4-0.9c0-0.3-0.1-0.5-0.2-0.8c-0.1-0.2-0.3-0.4-0.6-0.5c-0.3-0.1-0.6-0.2-0.9-0.2h-1.9V61.4z"/>
		</g>
	</g>
	<g>
		<g>
			<path class="st3" d="M294.3,62.6v-8.7h3.2c0.6,0,1.1,0.1,1.5,0.3s0.7,0.5,0.9,0.8c0.2,0.3,0.3,0.7,0.3,1.2c0,0.4-0.1,0.7-0.2,0.9
				c-0.1,0.2-0.3,0.4-0.5,0.6c-0.2,0.1-0.5,0.3-0.7,0.3v0.1c0.3,0,0.6,0.1,0.9,0.3c0.3,0.2,0.5,0.4,0.7,0.7c0.2,0.3,0.3,0.7,0.3,1.2
				c0,0.4-0.1,0.8-0.3,1.2s-0.5,0.6-1,0.8c-0.4,0.2-1,0.3-1.7,0.3H294.3z M295.7,57.6h1.8c0.3,0,0.6-0.1,0.8-0.2s0.4-0.3,0.6-0.5
				s0.2-0.4,0.2-0.7c0-0.4-0.1-0.7-0.4-0.9S298,55,297.5,55h-1.8V57.6z M295.7,61.4h1.9c0.6,0,1.1-0.1,1.4-0.4
				c0.3-0.2,0.4-0.5,0.4-0.9c0-0.3-0.1-0.5-0.2-0.8c-0.1-0.2-0.3-0.4-0.6-0.5c-0.3-0.1-0.6-0.2-0.9-0.2h-1.9V61.4z"/>
		</g>
	</g>
	<g>
		<g>
			<path class="st3" d="M267,62.6h-1.4l3.1-8.7h1.5l3.1,8.7H272l-2.5-7.1h-0.1L267,62.6z M267.2,59.2h4.5v1.1h-4.5V59.2z"/>
		</g>
	</g>
	<g>
		<g>
			<path class="st3" d="M324.2,62.6h-1.4l3.1-8.7h1.5l3.1,8.7h-1.4l-2.5-7.1h-0.1L324.2,62.6z M324.4,59.2h4.5v1.1h-4.5V59.2z"/>
		</g>
	</g>
	<g>
		<g>
			<path class="st3" d="M117.1,122.7l1.4,2.5l1.5-2.5h1.4l-2,3.3l2.1,3.3H120l-1.5-2.4l-1.5,2.4h-1.4l2-3.3l-2-3.3H117.1z"/>
		</g>
	</g>
	<g>
		<g>
			<path class="st3" d="M47.5,123.2l1.4,2.5l1.5-2.5h1.4l-2,3.3l2.1,3.3h-1.4l-1.5-2.4l-1.5,2.4h-1.4l2-3.3l-2-3.3H47.5z"/>
		</g>
	</g>
	<g>
		<g>
			<path class="st3" d="M17.8,85c-0.2,0-0.4,0-0.5,0c-0.2,0-0.3-0.1-0.3-0.1l0.3-1c0.2,0.1,0.4,0.1,0.6,0.1c0.2,0,0.3-0.1,0.5-0.2
				s0.3-0.3,0.4-0.6l0.2-0.4L16.5,76h1.4l1.7,5.1h0.1l1.7-5.1h1.4l-2.7,7.4c-0.1,0.3-0.3,0.6-0.5,0.9c-0.2,0.2-0.4,0.4-0.7,0.5
				S18.2,85,17.8,85z"/>
		</g>
	</g>
	<g>
		<g>
			<path class="st3" d="M17.5,45.6c-0.2,0-0.4,0-0.5,0c-0.2,0-0.3-0.1-0.3-0.1l0.3-1c0.2,0.1,0.4,0.1,0.6,0.1c0.2,0,0.3-0.1,0.5-0.2
				s0.3-0.3,0.4-0.6l0.2-0.4l-2.4-6.6h1.4l1.7,5.1h0.1l1.7-5.1h1.4L19.6,44c-0.1,0.3-0.3,0.6-0.5,0.9c-0.2,0.2-0.4,0.4-0.7,0.5
				S17.8,45.6,17.5,45.6z"/>
		</g>
	</g>
	<g>
		<g>
			<path d="M196.9,117.3v-8.7h3.2c0.6,0,1.1,0.1,1.5,0.3s0.7,0.5,0.9,0.8c0.2,0.3,0.3,0.7,0.3,1.2c0,0.4-0.1,0.7-0.2,0.9
				c-0.1,0.2-0.3,0.4-0.5,0.6c-0.2,0.1-0.5,0.3-0.7,0.3v0.1c0.3,0,0.6,0.1,0.9,0.3c0.3,0.2,0.5,0.4,0.7,0.7c0.2,0.3,0.3,0.7,0.3,1.2
				c0,0.4-0.1,0.8-0.3,1.2s-0.5,0.6-1,0.8c-0.4,0.2-1,0.3-1.7,0.3H196.9z M198.2,112.3h1.8c0.3,0,0.6-0.1,0.8-0.2s0.4-0.3,0.6-0.5
				s0.2-0.4,0.2-0.7c0-0.4-0.1-0.7-0.4-0.9s-0.6-0.4-1.2-0.4h-1.8V112.3z M198.2,116.2h1.9c0.6,0,1.1-0.1,1.4-0.4
				c0.3-0.2,0.4-0.5,0.4-0.9c0-0.3-0.1-0.5-0.2-0.8c-0.1-0.2-0.3-0.4-0.6-0.5c-0.3-0.1-0.6-0.2-0.9-0.2h-1.9V116.2z"/>
		</g>
	</g>
</g>
</svg>
