<?xml version="1.0" encoding="UTF-8"?>
<svg id="Layer_1" data-name="Layer 1" xmlns="http://www.w3.org/2000/svg" viewBox="0 0 76 30.5">
  <defs>
    <style>
      .cls-1 {
        fill: #fff;
      }
    </style>
  </defs>
  <g>
    <path class="cls-1" d="m2.75,14.06l2.05,3.61,2.06-3.61h1.97l-2.89,4.64,2.92,4.64h-1.97l-2.09-3.47-2.08,3.47H.73l2.89-4.64L.77,14.06h1.98Z"/>
    <path class="cls-1" d="m24.78,17.4v-1.59h7.73v1.59h-7.73Zm0,3.72v-1.59h7.73v1.59h-7.73Z"/>
    <path class="cls-1" d="m40.47,17.87v-1.56h8.02v1.56h-8.02Zm0,4.93v-1.58h8.02v1.58h-8.02Zm3.19-2.58v-6.24h1.62v6.24h-1.62Z"/>
  </g>
  <path class="cls-1" d="m57.62.86c-.1,0-.14.02-.17.13l-.3,5.57s-.59,12.23-.6,12.24c-.07.83-.13,1.66-.2,2.5-.06.74-.12,1.47-.17,2.21l-.18,2.25c-.05.67-.1,1.33-.15,2.03-.04-.04-.06-.05-.07-.08-.39-.63-.78-1.27-1.16-1.91-.41-.67-.81-1.34-1.22-2.01-.18-.3-.37-.59-.55-.89-.05-.09-.1-.1-.2-.08-.78.18-1.55.35-2.33.52-.06.01-.12.03-.18.04.1.48.21.94.31,1.42.05-.01.09-.02.13-.03.45-.1.89-.19,1.34-.3.06-.01.1,0,.14.05.41.67.83,1.34,1.25,2,.52.83,1.04,1.66,1.57,2.49.27.43.55.86.82,1.3.05.07.08.07.15.06.41-.09.83-.19,1.25-.27.08-.02.1-.05.11-.13.05-.6.1-1.21.15-1.81.03-.39.06-.77.09-1.16.06-.72.12-1.45.18-2.17.07-.87.15-1.73.22-2.6.05-.59.09-1.18.14-1.76.04-.49.91-11.65,1.42-18.18h12.8V.86h-5.21"/>
  <path class="cls-1" d="m65.06,17.46v1.56h-5.48v-1.56h5.48Z"/>
  <path class="cls-1" d="m71.94,15.41c-.9,0-1.67-.2-2.32-.61-.65-.41-1.14-.97-1.49-1.69-.35-.72-.52-1.55-.52-2.48s.18-1.77.53-2.5c.35-.72.85-1.29,1.5-1.69s1.4-.61,2.28-.61c.7,0,1.33.13,1.88.39.55.26,1,.62,1.34,1.09.34.47.54,1.01.61,1.64h-1.76c-.1-.43-.32-.81-.66-1.12s-.8-.47-1.38-.47c-.5,0-.94.13-1.32.4-.38.26-.67.64-.88,1.12-.21.49-.31,1.06-.31,1.72s.1,1.26.31,1.75c.21.49.5.87.87,1.14.38.27.82.4,1.33.4.34,0,.65-.06.93-.19.28-.13.51-.31.71-.55s.33-.52.4-.86h1.76c-.06.6-.26,1.14-.59,1.61s-.76.84-1.31,1.11c-.55.27-1.18.4-1.92.4Z"/>
  <path class="cls-1" d="m71.22,30.19c-.59,0-1.12-.11-1.59-.33-.48-.22-.85-.54-1.13-.96s-.41-.93-.41-1.54c0-.52.1-.95.3-1.29.2-.34.47-.61.81-.8s.72-.35,1.15-.45c.42-.1.85-.18,1.29-.23.55-.06,1.01-.12,1.35-.16.35-.04.6-.11.75-.21s.24-.25.24-.47v-.04c0-.53-.15-.94-.44-1.23-.3-.29-.74-.43-1.32-.43s-1.09.13-1.43.4c-.35.27-.59.56-.72.89l-1.7-.39c.2-.56.5-1.02.88-1.37.39-.35.84-.6,1.34-.76.51-.16,1.04-.24,1.6-.24.37,0,.76.04,1.18.13.42.09.81.24,1.17.47.36.23.66.56.9.98.23.42.35.97.35,1.65v6.16h-1.76v-1.27h-.07c-.12.23-.29.46-.52.69-.23.23-.53.41-.9.56s-.8.22-1.32.22Zm.39-1.45c.5,0,.93-.1,1.28-.3.36-.2.63-.46.82-.78.19-.32.28-.66.28-1.03v-1.2c-.06.06-.19.12-.37.18-.18.05-.39.1-.62.14-.23.04-.46.07-.68.1-.22.03-.41.06-.56.08-.35.04-.67.12-.96.22s-.52.25-.69.45c-.17.2-.26.45-.26.78,0,.45.17.78.5,1.01.33.23.75.34,1.26.34Z"/>
  <path class="cls-1" d="m76.05,17.51v1.56h-8.5v-1.56h8.5Z"/>
  <g>
    <path class="cls-1" d="m11.98,18v8h-1.21v-6.79h-.05l-1.91,1.25v-1.16l2-1.3h1.18Z"/>
    <path class="cls-1" d="m15.68,24.91l-.06.43c-.04.31-.1.64-.2.98s-.19.66-.29.95-.18.52-.24.7h-.83c.03-.16.08-.38.14-.65s.12-.58.18-.92.1-.68.13-1.04l.04-.44h1.12Z"/>
    <path class="cls-1" d="m17.31,26v-.88l2.71-2.8c.29-.3.53-.57.72-.8s.33-.45.42-.66.14-.43.14-.66c0-.27-.06-.5-.19-.69s-.3-.34-.51-.45-.46-.16-.73-.16c-.29,0-.54.06-.75.18s-.38.28-.49.5-.17.46-.17.75h-1.15c0-.49.11-.91.34-1.28s.53-.65.92-.85.83-.3,1.33-.3.95.1,1.33.3.68.47.9.81.32.73.32,1.16c0,.3-.06.59-.17.87s-.3.6-.58.95-.65.77-1.14,1.26l-1.59,1.66v.06h3.6v1.04h-5.27Z"/>
  </g>
</svg>