<?xml version="1.0" encoding="UTF-8"?>
<svg id="Layer_1" data-name="Layer 1" xmlns="http://www.w3.org/2000/svg" viewBox="0 0 135 31">
  <defs>
    <style>
      .cls-1 {
        fill: #fff;
      }
    </style>
  </defs>
  <rect class="cls-1" x="8.3" y="18.25" width="7.1" height="1.5"/>
  <path class="cls-1" d="m54.93,16.26v1.39h-18.71c-.13.41-.26.82-.38,1.23-.25.82-.51,1.64-.76,2.46-.17.55-.34,1.11-.51,1.66-.25.82-.51,1.63-.76,2.45-.21.68-.42,1.37-.63,2.05-.11.36-.22.73-.33,1.09-.17.57-.35,1.14-.53,1.71-.02.08-.05.1-.13.1-.42,0-.84,0-1.25,0-.06,0-.1,0-.13-.09-.16-.48-.34-.95-.51-1.42-.33-.91-.65-1.81-.98-2.72-.26-.73-.52-1.46-.78-2.19-.02-.06-.06-.08-.12-.08-.45,0-.9,0-1.35,0h-.13v-1.43h.18c.78,0,1.57,0,2.35,0,.1,0,.15.03.18.12.11.32.23.65.34.97.25.73.5,1.46.75,2.19.24.69.48,1.38.71,2.08,0,.03.03.05.06.09.2-.65.39-1.28.58-1.91.22-.71.43-1.42.65-2.13.21-.7.42-1.39.63-2.09.24-.79.48-1.57.72-2.36.2-.67.4-1.34.61-2.01.11-.35.22-.7.31-1.06.03-.1.07-.12.17-.12,3.06,0,6.12,0,9.18,0h10.58Z"/>
  <path class="cls-1" d="m3.32,31.25c-.59,0-1.12-.11-1.59-.33-.47-.22-.85-.54-1.13-.96-.28-.42-.41-.93-.41-1.54,0-.52.1-.95.3-1.29s.47-.61.81-.8c.34-.2.72-.35,1.15-.45.42-.1.85-.18,1.29-.23.56-.06,1.01-.12,1.35-.16.35-.04.6-.11.75-.21.16-.1.24-.25.24-.47v-.04c0-.53-.15-.94-.44-1.23-.3-.29-.74-.43-1.32-.43s-1.09.13-1.43.4-.59.56-.72.89l-1.7-.39c.2-.56.5-1.02.88-1.37s.84-.6,1.34-.76c.51-.16,1.04-.24,1.6-.24.37,0,.76.04,1.18.13.42.09.81.24,1.17.47.36.23.66.56.9.98.23.42.35.97.35,1.65v6.16h-1.76v-1.27h-.07c-.12.23-.29.46-.53.69-.23.23-.53.41-.9.56-.37.15-.81.22-1.32.22Zm.39-1.45c.5,0,.93-.1,1.28-.29.36-.2.63-.46.81-.78.19-.32.28-.66.28-1.03v-1.2c-.06.06-.19.12-.37.18-.18.05-.39.1-.62.14-.23.04-.46.07-.68.1s-.41.06-.56.08c-.35.04-.67.12-.96.22-.29.1-.52.25-.69.45-.17.2-.26.45-.26.78,0,.45.17.78.5,1.01.33.23.75.34,1.26.34Z"/>
  <path class="cls-1" d="m7.4,16.75v-6.55h1.22v1.07h.08c.14-.36.36-.64.67-.85s.68-.3,1.11-.3.8.1,1.1.31c.3.2.52.49.66.84h.07c.16-.35.41-.63.75-.84s.75-.31,1.22-.31c.59,0,1.08.19,1.46.56.38.37.56.93.56,1.68v4.39h-1.27v-4.27c0-.44-.12-.76-.36-.96-.24-.2-.53-.3-.86-.3-.42,0-.74.13-.97.38-.23.25-.34.58-.34.98v4.17h-1.27v-4.35c0-.36-.11-.64-.33-.86-.22-.21-.51-.32-.87-.32-.24,0-.46.06-.67.19s-.37.3-.49.53c-.12.22-.18.48-.18.78v4.04h-1.27Z"/>
  <path class="cls-1" d="m45.27,25.75v-6.55h1.22v1.07h.08c.14-.36.36-.64.67-.85s.68-.3,1.11-.3.8.1,1.1.31c.3.2.52.49.66.84h.07c.16-.35.41-.63.75-.84s.75-.31,1.22-.31c.59,0,1.08.19,1.46.56.38.37.56.93.56,1.68v4.39h-1.27v-4.27c0-.44-.12-.76-.36-.96-.24-.2-.53-.3-.86-.3-.42,0-.74.13-.97.38-.23.25-.34.58-.34.98v4.17h-1.27v-4.35c0-.36-.11-.64-.33-.86-.22-.21-.51-.32-.87-.32-.24,0-.46.06-.67.19s-.37.3-.49.53c-.12.22-.18.48-.18.78v4.04h-1.27Z"/>
  <path class="cls-1" d="m10.4,23.73v3.89h-1.27v-6.54h1.22v1.07h.08c.15-.35.39-.62.71-.84.32-.21.73-.32,1.22-.32.45,0,.84.09,1.17.28.33.19.59.46.78.83s.28.82.28,1.36v4.16h-1.27v-4.01c0-.47-.12-.85-.37-1.11s-.59-.4-1.02-.4c-.3,0-.56.06-.79.19-.23.13-.41.31-.54.56-.13.25-.2.54-.2.89Z"/>
  <path class="cls-1" d="m27.12,16.73v3.89h-1.27v-6.54h1.22v1.07h.08c.15-.35.39-.62.71-.84.32-.21.73-.32,1.22-.32.45,0,.84.09,1.17.28.33.19.59.46.78.83s.28.82.28,1.36v4.16h-1.27v-4.01c0-.47-.12-.85-.37-1.11s-.59-.4-1.02-.4c-.3,0-.56.06-.79.19-.23.13-.41.31-.54.56-.13.25-.2.54-.2.89Z"/>
  <g>
    <path class="cls-1" d="m17.03,24.8v-1.59h7.73v1.59h-7.73Zm0,3.72v-1.59h7.73v1.59h-7.73Z"/>
    <path class="cls-1" d="m39.48,30.94c-.59,0-1.12-.11-1.59-.33-.48-.22-.85-.54-1.13-.96-.28-.42-.41-.93-.41-1.54,0-.52.1-.95.3-1.29s.47-.61.82-.8.72-.35,1.15-.45c.42-.1.85-.18,1.29-.23.56-.06,1.01-.12,1.35-.16.35-.04.6-.11.75-.21.16-.1.24-.25.24-.47v-.04c0-.53-.15-.94-.44-1.23-.29-.29-.74-.43-1.32-.43s-1.09.13-1.43.4c-.35.27-.59.56-.72.89l-1.7-.39c.2-.56.5-1.02.88-1.37.39-.35.84-.6,1.34-.76.51-.16,1.04-.24,1.6-.24.37,0,.76.04,1.18.13.42.09.81.24,1.17.47.36.23.66.56.9.98.23.42.35.97.35,1.65v6.16h-1.76v-1.27h-.07c-.12.23-.29.46-.53.69-.23.23-.53.41-.9.56-.37.15-.8.22-1.32.22Zm.39-1.45c.5,0,.93-.1,1.28-.29s.63-.46.82-.78c.19-.32.28-.66.28-1.03v-1.2c-.06.06-.19.12-.37.18-.18.05-.39.1-.62.14-.23.04-.46.07-.68.1-.22.03-.41.06-.55.08-.35.04-.67.12-.96.22s-.52.25-.69.45-.26.45-.26.78c0,.45.17.78.5,1.01.33.23.75.34,1.26.34Z"/>
  </g>
  <g>
    <path class="cls-1" d="m61.33,27.94v-9.27h7.56v9.27h-1.77v-7.71h-4.04v7.71h-1.76Z"/>
    <path class="cls-1" d="m71.32,31.42v-12.75h1.76v1.5h.15c.1-.19.26-.42.45-.67s.47-.48.82-.67c.35-.19.81-.29,1.39-.29.75,0,1.42.19,2,.57.59.38,1.05.92,1.38,1.64.34.71.5,1.57.5,2.57s-.17,1.86-.5,2.57c-.33.71-.79,1.26-1.38,1.65-.58.38-1.25.58-2,.58-.56,0-1.02-.09-1.38-.28-.36-.19-.63-.41-.84-.66-.2-.25-.36-.48-.46-.68h-.11v4.92h-1.8Zm1.77-8.11c0,.65.09,1.22.28,1.71.19.49.46.88.82,1.15s.8.41,1.32.41.99-.14,1.35-.43c.36-.29.64-.68.82-1.17.19-.5.28-1.05.28-1.67s-.09-1.16-.28-1.65c-.18-.49-.46-.87-.82-1.15-.36-.28-.82-.42-1.36-.42s-.96.13-1.33.4-.63.65-.82,1.13c-.18.48-.28,1.05-.28,1.69Z"/>
    <path class="cls-1" d="m83.58,25.41l4.09-6.74h1.94v9.27h-1.77v-6.75l-4.07,6.75h-1.96v-9.27h1.77v6.74Z"/>
    <path class="cls-1" d="m99.24,28.15c-.59,0-1.12-.11-1.59-.33-.48-.22-.85-.54-1.13-.96s-.41-.93-.41-1.54c0-.52.1-.95.3-1.29.2-.34.47-.61.81-.8s.72-.35,1.15-.45c.42-.1.85-.18,1.29-.23.55-.06,1.01-.12,1.35-.16.35-.04.6-.11.75-.21s.24-.25.24-.47v-.04c0-.53-.15-.94-.44-1.23-.3-.29-.74-.43-1.32-.43s-1.09.13-1.43.4c-.35.27-.59.56-.72.89l-1.7-.39c.2-.56.5-1.02.88-1.37.39-.35.84-.6,1.34-.76.51-.16,1.04-.24,1.6-.24.37,0,.76.04,1.18.13.42.09.81.25,1.17.47.36.23.66.56.9.98.23.42.35.97.35,1.65v6.16h-1.76v-1.27h-.07c-.12.23-.29.46-.52.69-.23.23-.53.41-.9.56s-.8.22-1.32.22Zm.39-1.45c.5,0,.93-.1,1.28-.3.36-.2.63-.46.82-.78.19-.32.28-.66.28-1.03v-1.2c-.06.06-.19.12-.37.18-.18.05-.39.1-.62.14-.23.04-.46.07-.68.1-.22.03-.41.05-.56.07-.35.04-.67.12-.96.22-.29.1-.52.25-.69.45-.17.2-.26.45-.26.78,0,.45.17.78.5,1.01.33.23.75.34,1.26.34Z"/>
    <path class="cls-1" d="m119.18,22.6l-8.02,3.89v-1.85l5.92-2.69-.06.1v-.26l.06.11-5.92-2.7v-1.84l8.02,3.89v1.35Z"/>
    <path class="cls-1" d="m130.82,28.15c-.95,0-1.77-.25-2.44-.75-.68-.5-1.19-1.23-1.55-2.18-.36-.95-.54-2.1-.54-3.45s.18-2.48.54-3.43.88-1.67,1.56-2.17c.68-.5,1.49-.75,2.44-.75s1.76.25,2.43.75c.68.5,1.19,1.23,1.55,2.17.36.95.54,2.09.54,3.43s-.18,2.5-.54,3.45c-.36.95-.88,1.68-1.55,2.18s-1.49.75-2.44.75Zm0-1.61c.84,0,1.49-.41,1.97-1.23.47-.82.71-2,.71-3.54,0-1.03-.11-1.89-.32-2.6-.21-.71-.52-1.25-.92-1.62-.4-.37-.88-.55-1.43-.55-.83,0-1.49.41-1.96,1.23-.47.82-.71,2-.72,3.54,0,1.03.11,1.9.32,2.61.22.71.52,1.25.92,1.61.4.37.88.55,1.44.55Z"/>
  </g>
</svg>