<?xml version="1.0" encoding="UTF-8"?>
<svg id="Layer_1" data-name="Layer 1" xmlns="http://www.w3.org/2000/svg" viewBox="0 0 48 31">
  <defs>
    <style>
      .cls-1 {
        fill: #fff;
      }
    </style>
  </defs>
  <path class="cls-1" d="m47.52,17h-4.86c-2.9,0-5.8,0-8.69,0-.09,0-.13.02-.16.12-.09.34-.2.67-.3,1-.19.63-.38,1.27-.57,1.9-.23.74-.45,1.49-.68,2.23-.2.66-.4,1.32-.6,1.98-.2.67-.41,1.34-.61,2.01-.18.6-.36,1.19-.55,1.81-.03-.04-.04-.06-.05-.08-.23-.66-.45-1.31-.68-1.97-.24-.69-.47-1.38-.71-2.07-.11-.31-.22-.61-.32-.92-.03-.09-.07-.11-.17-.11-.74,0-1.48,0-2.23,0h-.17v1.35h.13c.43,0,.85,0,1.28,0,.06,0,.1.01.12.07.24.69.49,1.38.74,2.07.31.86.62,1.72.93,2.58.16.45.33.9.48,1.35.03.08.06.08.12.08.4,0,.79,0,1.19,0,.08,0,.1-.02.12-.1.16-.54.33-1.08.5-1.62.11-.35.21-.69.31-1.04.2-.65.4-1.3.6-1.94.24-.77.48-1.55.72-2.32.16-.53.32-1.05.48-1.58.24-.78.48-1.56.72-2.33.12-.39.24-.77.36-1.16h12.57v-1.32Z"/>
  <path class="cls-1" d="m3.32,30.25c-.59,0-1.12-.11-1.59-.33-.47-.22-.85-.54-1.13-.96s-.41-.93-.41-1.54c0-.52.1-.95.3-1.29.2-.34.47-.61.81-.8.34-.2.72-.35,1.15-.45s.85-.18,1.29-.23c.56-.06,1.01-.12,1.35-.16.35-.04.6-.11.75-.21.16-.1.24-.25.24-.47v-.04c0-.53-.15-.94-.44-1.23-.3-.29-.74-.43-1.32-.43s-1.09.13-1.43.4c-.35.27-.59.56-.72.89l-1.7-.39c.2-.56.5-1.02.88-1.37.39-.35.84-.6,1.34-.76.51-.16,1.04-.24,1.6-.24.37,0,.76.04,1.18.13.42.09.81.24,1.17.47.36.23.66.56.9.98.23.42.35.97.35,1.65v6.16h-1.76v-1.27h-.07c-.12.23-.29.46-.53.69-.23.23-.53.41-.9.56s-.81.22-1.32.22Zm.39-1.45c.5,0,.93-.1,1.28-.3.36-.2.63-.46.81-.78.19-.32.28-.66.28-1.03v-1.2c-.06.06-.19.12-.37.18-.18.05-.39.1-.62.14-.23.04-.46.07-.68.1s-.41.06-.56.08c-.35.04-.67.12-.96.22-.29.1-.52.25-.69.45-.17.2-.26.45-.26.78,0,.45.17.78.5,1.01.33.23.75.34,1.26.34Z"/>
  <path class="cls-1" d="m13.2,6.03v8.73h-1.32v-7.41h-.05l-2.09,1.36v-1.26l2.18-1.42h1.28Z"/>
  <path class="cls-1" d="m9.05,26.61v-.95l2.95-3.06c.32-.33.58-.62.78-.88.21-.25.36-.49.46-.72.1-.23.15-.47.15-.72,0-.29-.07-.54-.21-.75-.14-.21-.32-.38-.56-.49-.24-.11-.5-.17-.8-.17-.31,0-.59.06-.82.19-.23.13-.41.31-.54.54s-.19.51-.19.82h-1.26c0-.53.12-1,.37-1.39.24-.4.58-.71,1.01-.93.43-.22.91-.33,1.45-.33s1.03.11,1.45.33c.42.22.75.51.98.89.24.37.35.79.35,1.26,0,.32-.06.64-.18.95s-.33.65-.63,1.03c-.3.38-.71.84-1.24,1.38l-1.73,1.81v.06h3.93v1.13h-5.75Z"/>
  <g>
    <path class="cls-1" d="m16.44,24.11v-1.59h7.73v1.59h-7.73Zm0,3.72v-1.59h7.73v1.59h-7.73Z"/>
    <path class="cls-1" d="m38.89,30.25c-.59,0-1.12-.11-1.59-.33-.47-.22-.85-.54-1.13-.96s-.41-.93-.41-1.54c0-.52.1-.95.3-1.29.2-.34.47-.61.81-.8.34-.2.72-.35,1.15-.45s.85-.18,1.29-.23c.56-.06,1.01-.12,1.35-.16.35-.04.6-.11.75-.21.16-.1.24-.25.24-.47v-.04c0-.53-.15-.94-.44-1.23-.3-.29-.74-.43-1.32-.43s-1.09.13-1.43.4c-.35.27-.59.56-.72.89l-1.7-.39c.2-.56.5-1.02.88-1.37.39-.35.84-.6,1.34-.76.51-.16,1.04-.24,1.6-.24.37,0,.76.04,1.18.13.42.09.81.24,1.17.47.36.23.66.56.9.98.23.42.35.97.35,1.65v6.16h-1.76v-1.27h-.07c-.12.23-.29.46-.53.69-.23.23-.53.41-.9.56s-.81.22-1.32.22Zm.39-1.45c.5,0,.93-.1,1.28-.3.36-.2.63-.46.81-.78.19-.32.28-.66.28-1.03v-1.2c-.06.06-.19.12-.37.18-.18.05-.39.1-.62.14-.23.04-.46.07-.68.1s-.41.06-.56.08c-.35.04-.67.12-.96.22-.29.1-.52.25-.69.45-.17.2-.26.45-.26.78,0,.45.17.78.5,1.01.33.23.75.34,1.26.34Z"/>
  </g>
  <rect class="cls-1" x="8.34" y="15.25" width="7.1" height="1.5"/>
</svg>