<?xml version="1.0" encoding="UTF-8"?>
<svg id="Layer_1" data-name="Layer 1" xmlns="http://www.w3.org/2000/svg" viewBox="0 0 116.58 78.95">
  <defs>
    <style>
      .cls-1 {
        fill: #fff;
      }

      .cls-2 {
        fill: none;
        stroke: #d1ae59;
        stroke-miterlimit: 10;
        stroke-width: 2px;
      }
    </style>
  </defs>
  <path class="cls-1" d="m1.45,78.84H.05l3.14-8.73h1.52l3.14,8.73h-1.4l-2.47-7.14h-.07l-2.47,7.14h0Zm.23-3.42h4.53v1.11H1.68s0-1.11,0-1.11Z"/>
  <path class="cls-1" d="m54.28,9.05V.32h3.2c.62,0,1.13.1,1.54.3s.71.48.91.82c.2.35.3.73.3,1.17,0,.36-.07.67-.2.92s-.31.45-.54.6c-.23.15-.47.26-.74.33v.08c.29.01.57.11.85.28s.51.42.69.73c.18.32.27.7.27,1.15s-.11.85-.31,1.2c-.21.35-.53.63-.97.84-.43.21-.99.31-1.67.31h-3.34.01Zm1.32-4.95h1.76c.29,0,.56-.06.8-.17s.43-.27.57-.48.21-.45.21-.73c0-.36-.13-.66-.38-.91s-.64-.37-1.16-.37h-1.8v2.65h0Zm0,3.82h1.9c.63,0,1.08-.12,1.35-.37.27-.24.41-.55.41-.92,0-.28-.07-.53-.21-.76-.14-.23-.34-.41-.59-.55-.26-.14-.56-.21-.91-.21h-1.95v2.8h0Z"/>
  <path class="cls-1" d="m116.58,72.8h-1.33c-.05-.28-.15-.53-.29-.75s-.31-.4-.51-.55c-.2-.15-.43-.26-.68-.34-.25-.08-.51-.11-.79-.11-.5,0-.95.13-1.35.38s-.71.62-.94,1.11-.34,1.08-.34,1.79.12,1.31.34,1.8.54.86.94,1.11.85.38,1.34.38c.28,0,.54-.04.79-.11.25-.08.47-.19.67-.33.2-.15.37-.33.51-.54s.24-.46.29-.74h1.33c-.07.43-.21.83-.41,1.19s-.46.67-.78.93-.68.46-1.08.6-.85.21-1.33.21c-.76,0-1.43-.18-2.02-.54s-1.06-.87-1.4-1.54c-.34-.67-.51-1.47-.51-2.4s.17-1.73.51-2.4c.34-.67.81-1.18,1.4-1.54.59-.36,1.26-.54,2.02-.54.46,0,.9.07,1.3.2s.76.33,1.08.58.59.56.8.93.35.78.43,1.25v-.03Z"/>
  <polygon class="cls-2" points="105.24 68.57 4.62 68.57 58.16 13.62 105.24 68.57"/>
  <line class="cls-2" x1="58.16" y1="13.62" x2="58.16" y2="68.57"/>
  <polyline class="cls-2" points="63.4 68.57 63.4 63.33 58.16 63.33"/>
  <path class="cls-1" d="m48.33,46.63v3.89h-1.27v-8.73h1.26v3.25h.08c.15-.35.39-.63.7-.84.32-.21.73-.31,1.24-.31.45,0,.84.09,1.18.28.34.18.6.46.78.82.19.37.28.82.28,1.37v4.16h-1.27v-4.01c0-.48-.12-.85-.37-1.12s-.59-.4-1.03-.4c-.3,0-.57.06-.81.19s-.42.31-.56.56c-.13.25-.2.54-.2.89Z"/>
  <line class="cls-2" x1="55.23" y1="47.12" x2="61.09" y2="47.12"/>
</svg>