<?xml version="1.0" encoding="UTF-8"?>
<svg id="Layer_1" data-name="Layer 1" xmlns="http://www.w3.org/2000/svg" viewBox="0 0 43.95 24.98">
  <defs>
    <style>
      .cls-1 {
        fill: #c7c7c7;
      }
    </style>
  </defs>
  <g>
    <path class="cls-1" d="m24.22,8.85h-1.4L25.96.12h1.52l3.14,8.73h-1.4l-2.47-7.14h-.07l-2.47,7.14Zm.23-3.42h4.53v1.11h-4.53v-1.11Z"/>
    <path class="cls-1" d="m39.13,2.96h-1.33c-.05-.28-.15-.53-.29-.75-.14-.22-.31-.4-.51-.55-.2-.15-.43-.26-.68-.34-.25-.08-.51-.11-.79-.11-.5,0-.95.13-1.35.38s-.71.62-.94,1.11-.34,1.08-.34,1.79.12,1.31.34,1.8.54.86.94,1.11.84.38,1.34.38c.28,0,.54-.04.79-.11.25-.08.47-.19.67-.33.2-.15.37-.33.51-.54s.24-.46.29-.74h1.33c-.07.43-.21.83-.41,1.19s-.46.67-.78.93c-.32.26-.68.46-1.08.6s-.85.21-1.33.21c-.76,0-1.43-.18-2.02-.54s-1.06-.87-1.4-1.54c-.34-.67-.51-1.47-.51-2.4s.17-1.73.51-2.4c.34-.67.81-1.18,1.4-1.54s1.26-.54,2.02-.54c.46,0,.9.07,1.3.2.4.13.76.33,1.08.58.32.25.59.56.8.93s.35.78.43,1.25Z"/>
    <path class="cls-1" d="m21.04,21.85h-1.4l3.14-8.73h1.52l3.14,8.73h-1.4l-2.47-7.14h-.07l-2.47,7.14Zm.23-3.42h4.53v1.11h-4.53v-1.11Z"/>
    <path class="cls-1" d="m39.13,15.96h-1.33c-.05-.28-.15-.53-.29-.75-.14-.22-.31-.4-.51-.55-.2-.15-.43-.26-.68-.34-.25-.08-.51-.11-.79-.11-.5,0-.95.13-1.35.38s-.71.62-.94,1.11-.34,1.08-.34,1.79.12,1.31.34,1.8.54.86.94,1.11.84.38,1.34.38c.28,0,.54-.04.79-.11.25-.08.47-.19.67-.33.2-.15.37-.33.51-.54s.24-.46.29-.74h1.33c-.07.43-.21.83-.41,1.19s-.46.67-.78.93c-.32.26-.68.46-1.08.6s-.85.21-1.33.21c-.76,0-1.43-.18-2.02-.54s-1.06-.87-1.4-1.54c-.34-.67-.51-1.47-.51-2.4s.17-1.73.51-2.4c.34-.67.81-1.18,1.4-1.54s1.26-.54,2.02-.54c.46,0,.9.07,1.3.2.4.13.76.33,1.08.58.32.25.59.56.8.93s.35.78.43,1.25Z"/>
  </g>
  <path class="cls-1" d="m30.32,18.44v6.55h-.99v-5.55h-.04l-1.57,1.02v-.95l1.63-1.07h.96Z"/>
  <path class="cls-1" d="m10.14,17.88v6.55h-.99v-5.55h-.04l-1.57,1.02v-.95l1.63-1.07h.96Z"/>
  <path class="cls-1" d="m42.32,18.44v6.55h-.99v-5.55h-.04l-1.57,1.02v-.95l1.63-1.07h.96Z"/>
  <g>
    <path class="cls-1" d="m5.38,2.53c-.05-.4-.23-.72-.56-.94-.33-.22-.74-.33-1.24-.33-.36,0-.67.06-.93.17-.26.11-.46.27-.61.46s-.22.42-.22.66c0,.21.05.39.15.54s.23.28.39.38c.16.1.33.19.52.25s.36.12.53.16l.85.22c.28.07.56.16.86.28.29.12.56.27.81.46s.45.43.61.71c.15.28.23.62.23,1.01,0,.49-.13.93-.38,1.32-.25.38-.62.69-1.1.91s-1.06.33-1.75.33-1.22-.1-1.7-.31-.85-.5-1.12-.88c-.27-.38-.42-.84-.45-1.36h1.32c.03.32.13.58.31.79.18.21.41.36.7.46.28.1.59.15.93.15.37,0,.7-.06,1-.18.29-.12.52-.28.69-.49.17-.21.25-.46.25-.74,0-.26-.07-.47-.22-.63-.15-.17-.34-.3-.59-.41s-.53-.2-.84-.29l-1.03-.28c-.7-.19-1.25-.47-1.66-.84-.41-.37-.61-.86-.61-1.47,0-.5.14-.94.41-1.32.27-.38.64-.67,1.11-.88S3.02.12,3.6.12s1.11.1,1.57.31c.45.21.81.49,1.07.85.26.36.4.78.41,1.25h-1.27Z"/>
    <path class="cls-1" d="m5.38,15.53c-.05-.4-.23-.72-.56-.94-.33-.22-.74-.33-1.24-.33-.36,0-.67.06-.93.17-.26.11-.46.27-.61.46s-.22.42-.22.66c0,.21.05.39.15.54s.23.28.39.38c.16.1.33.19.52.25s.36.12.53.16l.85.22c.28.07.56.16.86.28.29.12.56.27.81.46s.45.43.61.71c.15.28.23.62.23,1.01,0,.49-.13.93-.38,1.32-.25.38-.62.69-1.1.91s-1.06.33-1.75.33-1.22-.1-1.7-.31-.85-.5-1.12-.88c-.27-.38-.42-.84-.45-1.36h1.32c.03.32.13.58.31.79.18.21.41.36.7.46.28.1.59.15.93.15.37,0,.7-.06,1-.18.29-.12.52-.28.69-.49.17-.21.25-.46.25-.74,0-.26-.07-.47-.22-.63-.15-.17-.34-.3-.59-.41s-.53-.2-.84-.29l-1.03-.28c-.7-.19-1.25-.47-1.66-.84-.41-.37-.61-.86-.61-1.47,0-.5.14-.94.41-1.32.27-.38.64-.67,1.11-.88s.99-.31,1.58-.31,1.11.1,1.57.31c.45.21.81.49,1.07.85.26.36.4.78.41,1.25h-1.27Z"/>
  </g>
  <path class="cls-1" d="m10.58,9.87v-1.12h5.46v1.12h-5.46Zm0,2.62v-1.12h5.46v1.12h-5.46Z"/>
  <rect class="cls-1" y="10.59" width="7.03" height="1.06"/>
  <rect class="cls-1" x="18.86" y="10.59" width="25.09" height="1.06"/>
</svg>