<?xml version="1.0" encoding="utf-8"?>
<!-- Generator: Adobe Illustrator 27.6.1, SVG Export Plug-In . SVG Version: 6.00 Build 0)  -->
<svg version="1.1" xmlns="http://www.w3.org/2000/svg" xmlns:xlink="http://www.w3.org/1999/xlink" x="0px" y="0px"
	 viewBox="0 0 250 299.7" style="enable-background:new 0 0 250 299.7;" xml:space="preserve">
<style type="text/css">
	.st0{display:none;}
	.st1{display:inline;fill:#191919;stroke:#000000;stroke-miterlimit:10;}
	.st2{fill:none;stroke:#FFFFFF;stroke-width:2;stroke-miterlimit:10;}
	.st3{fill-rule:evenodd;clip-rule:evenodd;fill:#FFFFFF;stroke:#FFFFFF;stroke-width:2;stroke-miterlimit:10;}
	.st4{fill:#D1AE59;stroke:#D1AE59;stroke-width:2;stroke-miterlimit:10;}
	.st5{fill:#D1AE59;}
	.st6{fill:#FFFFFF;}
</style>
<g id="Layer_3" class="st0">
	<rect x="-12" y="-7" class="st1" width="282" height="432"/>
</g>
<g id="Layer_2_00000085243400956996268800000010642199414675670658_">
	<line class="st2" x1="50" y1="154.6" x2="195.8" y2="154.6"/>
	<line class="st2" x1="125" y1="228.9" x2="125" y2="83.2"/>
	<polygon class="st3" points="125,79 122.6,83.2 127.4,83.2 	"/>
	<polygon class="st3" points="200,154.6 195.8,152.1 195.8,157 	"/>
	<path class="st4" d="M125.3,95.8c32.2,0,58.5,26.2,58.5,58.5s-26.2,58.5-58.5,58.5s-58.5-26.2-58.5-58.5S93.1,95.8,125.3,95.8
		 M125.3,94.6c-33,0-59.7,26.7-59.7,59.7s26.7,59.7,59.7,59.7s59.7-26.7,59.7-59.7S158.3,94.6,125.3,94.6L125.3,94.6z"/>
	<line class="st2" x1="54.8" y1="118" x2="195.8" y2="118"/>
	<circle class="st5" cx="78.8" cy="118" r="5.4"/>
	<circle class="st5" cx="172.4" cy="118" r="5.4"/>
	<g>
		<g>
			<path class="st6" d="M101.9,13.6l-1.6,0.3c-0.1-0.2-0.2-0.4-0.3-0.6c-0.2-0.2-0.3-0.3-0.6-0.5s-0.6-0.2-0.9-0.2
				c-0.5,0-0.9,0.1-1.3,0.3c-0.3,0.2-0.5,0.5-0.5,0.9c0,0.3,0.1,0.6,0.3,0.8s0.6,0.3,1.1,0.5l1.5,0.3c0.8,0.2,1.5,0.5,1.9,0.9
				c0.4,0.4,0.6,0.9,0.6,1.6c0,0.6-0.2,1-0.5,1.5s-0.8,0.8-1.3,1s-1.2,0.4-2,0.4c-1,0-1.9-0.2-2.5-0.7c-0.7-0.5-1.1-1.1-1.2-1.9
				l1.8-0.3c0.1,0.5,0.3,0.8,0.7,1s0.8,0.4,1.3,0.4c0.6,0,1.1-0.1,1.4-0.4c0.3-0.2,0.5-0.5,0.5-0.9c0-0.3-0.1-0.5-0.3-0.7
				c-0.2-0.2-0.5-0.4-1-0.5l-1.6-0.3c-0.9-0.2-1.5-0.5-1.9-0.9c-0.4-0.4-0.6-1-0.6-1.6c0-0.6,0.2-1,0.5-1.4c0.3-0.4,0.7-0.7,1.3-1
				c0.5-0.2,1.2-0.4,1.8-0.4c1,0,1.8,0.2,2.4,0.6C101.3,12.3,101.7,12.8,101.9,13.6L101.9,13.6z"/>
			<path class="st6" d="M105,9.9c-0.3,0-0.6-0.1-0.8-0.3c-0.2-0.2-0.3-0.5-0.3-0.8s0.1-0.6,0.3-0.8s0.5-0.3,0.8-0.3s0.6,0.1,0.8,0.3
				c0.2,0.2,0.3,0.5,0.3,0.8s-0.1,0.6-0.3,0.8S105.3,9.9,105,9.9z M104,20.6v-9.3h1.8v9.3H104z"/>
			<path class="st6" d="M110.1,15.1v5.5h-1.8v-9.3h1.7v1.5h0.1c0.2-0.5,0.6-0.9,1-1.2s1-0.4,1.7-0.4c0.6,0,1.2,0.1,1.7,0.4
				c0.5,0.3,0.8,0.6,1.1,1.2c0.3,0.5,0.4,1.2,0.4,1.9v5.9h-1.8v-5.7c0-0.7-0.2-1.2-0.5-1.6c-0.3-0.4-0.8-0.6-1.4-0.6
				c-0.4,0-0.8,0.1-1.1,0.3s-0.6,0.4-0.8,0.8S110.1,14.6,110.1,15.1L110.1,15.1z"/>
			<path class="st6" d="M121.9,20.8c-0.8,0-1.4-0.2-2-0.6s-1-1-1.4-1.7c-0.3-0.7-0.5-1.6-0.5-2.5s0.2-1.8,0.5-2.5
				c0.3-0.7,0.8-1.3,1.4-1.7s1.3-0.6,2-0.6c0.5,0,1,0.1,1.4,0.3c0.4,0.2,0.8,0.5,1.1,0.9c0.3,0.4,0.5,0.8,0.7,1.3h0.6l0.4,2.3
				l1.2,4.7h-1.5l-1.1-4.7c-0.1-0.3-0.2-0.6-0.3-1c-0.1-0.4-0.3-0.7-0.5-1.1s-0.4-0.6-0.8-0.8s-0.7-0.3-1.1-0.3
				c-0.5,0-0.9,0.1-1.2,0.4s-0.6,0.7-0.8,1.1c-0.2,0.5-0.3,1.1-0.3,1.7c0,0.6,0.1,1.2,0.3,1.7c0.2,0.5,0.4,0.9,0.8,1.2
				s0.7,0.4,1.2,0.4c0.4,0,0.8-0.1,1.1-0.3s0.6-0.5,0.8-0.8s0.4-0.7,0.5-1.1c0.1-0.4,0.2-0.7,0.3-1l1-4.7h1.5l-1.1,4.7l-0.4,2.4
				h-0.6c-0.2,0.5-0.4,0.9-0.8,1.3s-0.7,0.7-1.1,0.9S122.5,20.8,121.9,20.8L121.9,20.8z"/>
			<path class="st6" d="M134.5,14.6V13h7.7v1.6H134.5z M134.5,18.4v-1.6h7.7v1.6H134.5z"/>
		</g>
		<g>
			<path class="st6" d="M152.6,1v12.4h-1.9V2.9h-0.1l-3,1.9V3l3.1-2L152.6,1L152.6,1z"/>
			<path class="st6" d="M146.1,27.9v-1.5l5.3-8.4h1.2v2.2h-0.8l-3.8,6.1v0.1h7.3v1.6C155.4,27.9,146.1,27.9,146.1,27.9z M151.9,30.4
				v-3.6l0-8.8h1.8v12.4H151.9z"/>
		</g>
		<rect x="145.7" y="14.8" class="st6" width="10" height="1.5"/>
	</g>
	<g>
		<g>
			<path class="st6" d="M108.6,33v12.4h-1.9V34.9h-0.1l-3,1.9V35l3.1-2L108.6,33L108.6,33z"/>
			<path class="st6" d="M102.2,59.9v-1.5l5.3-8.4h1.2v2.2h-0.8l-3.8,6v0.1h7.3v1.6C111.4,59.9,102.2,59.9,102.2,59.9z M108,62.4
				v-3.6l0-8.8h1.8v12.4H108z"/>
		</g>
		<rect x="101.8" y="46.8" class="st6" width="10" height="1.5"/>
		<g>
			<path class="st6" d="M129.5,48.8l-8,3.9v-1.8l5.9-2.7l-0.1,0.1v-0.3l0.1,0.1l-5.9-2.7v-1.8l8,3.9V48.8z"/>
			<path class="st6" d="M143.3,53.2c-0.9,0-1.8-0.2-2.4-0.8c-0.7-0.5-1.2-1.2-1.6-2.2s-0.5-2.1-0.5-3.5s0.2-2.5,0.5-3.4
				c0.4-1,0.9-1.7,1.6-2.2s1.5-0.8,2.4-0.8s1.8,0.2,2.4,0.8c0.7,0.5,1.2,1.2,1.6,2.2c0.4,1,0.5,2.1,0.5,3.4s-0.2,2.5-0.5,3.5
				s-0.9,1.7-1.6,2.2C145,52.9,144.2,53.1,143.3,53.2L143.3,53.2z M143.3,51.5c0.8,0,1.5-0.4,2-1.2c0.5-0.8,0.7-2,0.7-3.5
				c0-1-0.1-1.9-0.3-2.6s-0.5-1.2-0.9-1.6s-0.9-0.5-1.4-0.5c-0.8,0-1.5,0.4-2,1.2s-0.7,2-0.7,3.5c0,1,0.1,1.9,0.3,2.6
				c0.2,0.7,0.5,1.2,0.9,1.6S142.7,51.5,143.3,51.5L143.3,51.5z"/>
		</g>
	</g>
	<g>
		<g>
			<g>
				<path class="st6" d="M27.2,254.4c-0.8,0-1.5-0.2-2-0.6s-1-1-1.4-1.7c-0.3-0.7-0.5-1.6-0.5-2.5s0.2-1.8,0.5-2.5s0.8-1.3,1.4-1.7
					c0.6-0.4,1.3-0.6,2-0.6c0.5,0,1,0.1,1.4,0.3s0.8,0.5,1,0.9c0.3,0.4,0.5,0.8,0.7,1.3h0.6l0.4,2.3l1.2,4.7h-1.5l-1.1-4.7
					c-0.1-0.3-0.2-0.6-0.3-1s-0.3-0.7-0.5-1s-0.5-0.6-0.8-0.8s-0.7-0.3-1.1-0.3c-0.5,0-0.9,0.1-1.2,0.4c-0.4,0.3-0.6,0.7-0.8,1.1
					c-0.2,0.5-0.3,1-0.3,1.7s0.1,1.2,0.3,1.7s0.5,0.9,0.8,1.2c0.3,0.3,0.7,0.4,1.2,0.4c0.4,0,0.8-0.1,1.1-0.3s0.6-0.5,0.8-0.8
					s0.4-0.7,0.5-1.1s0.2-0.7,0.3-1l1-4.7h1.5l-1.1,4.7l-0.4,2.4h-0.6c-0.2,0.5-0.4,0.9-0.8,1.3c-0.3,0.4-0.7,0.7-1.1,0.9
					S27.8,254.4,27.2,254.4L27.2,254.4z"/>
				<path class="st6" d="M39.7,248.3v-1.6h7.7v1.6H39.7z M39.7,252v-1.6h7.7v1.6H39.7z"/>
				<path class="st6" d="M57.7,254.4c-0.6,0-1.1-0.1-1.6-0.3c-0.5-0.2-0.8-0.5-1.1-1c-0.3-0.4-0.4-0.9-0.4-1.5c0-0.5,0.1-1,0.3-1.3
					s0.5-0.6,0.8-0.8c0.3-0.2,0.7-0.4,1.2-0.5c0.4-0.1,0.8-0.2,1.3-0.2c0.6-0.1,1-0.1,1.3-0.2c0.3,0,0.6-0.1,0.7-0.2
					c0.2-0.1,0.2-0.2,0.2-0.5v0c0-0.5-0.2-0.9-0.4-1.2c-0.3-0.3-0.7-0.4-1.3-0.4s-1.1,0.1-1.4,0.4c-0.3,0.3-0.6,0.6-0.7,0.9
					l-1.7-0.4c0.2-0.6,0.5-1,0.9-1.4c0.4-0.4,0.8-0.6,1.3-0.8c0.5-0.2,1-0.2,1.6-0.2c0.4,0,0.8,0,1.2,0.1s0.8,0.2,1.2,0.5
					s0.7,0.6,0.9,1s0.3,1,0.3,1.6v6.2h-1.8v-1.3h-0.1c-0.1,0.2-0.3,0.5-0.5,0.7c-0.2,0.2-0.5,0.4-0.9,0.6
					C58.6,254.3,58.2,254.4,57.7,254.4L57.7,254.4z M58.1,252.9c0.5,0,0.9-0.1,1.3-0.3c0.4-0.2,0.6-0.5,0.8-0.8
					c0.2-0.3,0.3-0.7,0.3-1v-1.2c-0.1,0.1-0.2,0.1-0.4,0.2c-0.2,0-0.4,0.1-0.6,0.1s-0.5,0.1-0.7,0.1s-0.4,0.1-0.6,0.1
					c-0.3,0-0.7,0.1-1,0.2s-0.5,0.2-0.7,0.5s-0.3,0.5-0.3,0.8c0,0.5,0.2,0.8,0.5,1S57.6,252.9,58.1,252.9L58.1,252.9z"/>
				<path class="st6" d="M64.7,254.2v-9.3h1.7v1.5h0.1c0.2-0.5,0.5-0.9,0.9-1.2c0.4-0.3,0.9-0.4,1.5-0.4c0.1,0,0.2,0,0.4,0
					s0.3,0,0.4,0v1.7c-0.1,0-0.2,0-0.4-0.1s-0.4,0-0.6,0c-0.4,0-0.8,0.1-1.1,0.3s-0.6,0.4-0.8,0.7c-0.2,0.3-0.3,0.7-0.3,1.1v5.7
					H64.7L64.7,254.2z"/>
				<path class="st6" d="M75.1,254.4c-0.9,0-1.7-0.2-2.3-0.6c-0.7-0.4-1.1-1-1.5-1.7s-0.5-1.5-0.5-2.5s0.2-1.8,0.5-2.5
					c0.3-0.7,0.8-1.3,1.5-1.7c0.6-0.4,1.4-0.6,2.3-0.6c0.7,0,1.3,0.1,1.9,0.4c0.6,0.3,1,0.6,1.3,1.1s0.5,1,0.6,1.6h-1.8
					c-0.1-0.4-0.3-0.8-0.7-1.1c-0.3-0.3-0.8-0.5-1.4-0.5c-0.5,0-0.9,0.1-1.3,0.4c-0.4,0.3-0.7,0.6-0.9,1.1c-0.2,0.5-0.3,1.1-0.3,1.7
					s0.1,1.3,0.3,1.8s0.5,0.9,0.9,1.1c0.4,0.3,0.8,0.4,1.3,0.4c0.3,0,0.7-0.1,0.9-0.2s0.5-0.3,0.7-0.5s0.3-0.5,0.4-0.9h1.8
					c-0.1,0.6-0.3,1.1-0.6,1.6c-0.3,0.5-0.8,0.8-1.3,1.1C76.5,254.3,75.9,254.4,75.1,254.4L75.1,254.4z"/>
				<path class="st6" d="M87.8,247.2l-1.6,0.3c-0.1-0.2-0.2-0.4-0.3-0.6c-0.2-0.2-0.3-0.3-0.6-0.5c-0.2-0.1-0.6-0.2-0.9-0.2
					c-0.5,0-0.9,0.1-1.3,0.3s-0.5,0.5-0.5,0.9c0,0.3,0.1,0.6,0.3,0.8c0.2,0.2,0.6,0.3,1.1,0.5l1.5,0.3c0.8,0.2,1.5,0.5,1.9,0.9
					c0.4,0.4,0.6,0.9,0.6,1.6c0,0.6-0.2,1-0.5,1.5c-0.3,0.4-0.8,0.8-1.3,1s-1.2,0.4-2,0.4c-1,0-1.9-0.2-2.5-0.7
					c-0.7-0.5-1.1-1.1-1.2-1.9l1.7-0.3c0.1,0.5,0.3,0.8,0.7,1s0.8,0.4,1.3,0.4c0.6,0,1.1-0.1,1.4-0.4c0.3-0.2,0.5-0.5,0.5-0.9
					c0-0.3-0.1-0.5-0.3-0.7s-0.5-0.4-1-0.5l-1.6-0.3c-0.9-0.2-1.5-0.5-1.9-0.9s-0.6-1-0.6-1.6c0-0.5,0.2-1,0.5-1.4s0.7-0.7,1.3-1
					c0.5-0.2,1.2-0.4,1.8-0.4c1,0,1.8,0.2,2.4,0.6S87.6,246.5,87.8,247.2L87.8,247.2z"/>
				<path class="st6" d="M90.9,243.5c-0.3,0-0.6-0.1-0.8-0.3c-0.2-0.2-0.3-0.5-0.3-0.8s0.1-0.5,0.3-0.8c0.2-0.2,0.5-0.3,0.8-0.3
					s0.6,0.1,0.8,0.3c0.2,0.2,0.3,0.5,0.3,0.8s-0.1,0.5-0.3,0.8C91.5,243.4,91.2,243.5,90.9,243.5z M90,254.2v-9.3h1.8v9.3H90z"/>
				<path class="st6" d="M96,248.7v5.5h-1.8v-9.3h1.7v1.5H96c0.2-0.5,0.6-0.9,1-1.2s1-0.5,1.7-0.5c0.6,0,1.2,0.1,1.7,0.4
					s0.8,0.7,1.1,1.2c0.3,0.5,0.4,1.2,0.4,1.9v5.9h-1.8v-5.7c0-0.7-0.2-1.2-0.5-1.6c-0.3-0.4-0.8-0.6-1.4-0.6
					c-0.4,0-0.8,0.1-1.1,0.3s-0.6,0.5-0.8,0.8C96.1,247.8,96,248.2,96,248.7L96,248.7z"/>
				<path class="st6" d="M122.7,248.8v-1.6h8.2v1.6H122.7z M126,252.1V244h1.6v8.2H126z"/>
				<path class="st6" d="M138.2,254.2v-1.4l4.2-4.3c0.4-0.5,0.8-0.9,1.1-1.2s0.5-0.7,0.7-1c0.1-0.3,0.2-0.7,0.2-1
					c0-0.4-0.1-0.8-0.3-1.1c-0.2-0.3-0.5-0.5-0.8-0.7s-0.7-0.2-1.1-0.2c-0.4,0-0.8,0.1-1.2,0.3s-0.6,0.4-0.8,0.8s-0.3,0.7-0.3,1.2
					h-1.8c0-0.8,0.2-1.4,0.5-2s0.8-1,1.4-1.3c0.6-0.3,1.3-0.5,2.1-0.5s1.5,0.1,2.1,0.5c0.6,0.3,1.1,0.7,1.4,1.3s0.5,1.1,0.5,1.8
					c0,0.5-0.1,0.9-0.3,1.4s-0.5,0.9-0.9,1.5c-0.4,0.5-1,1.2-1.8,2l-2.5,2.6v0.1h5.6v1.6L138.2,254.2L138.2,254.2z"/>
				<path class="st6" d="M157.7,244.9v1.5h-9.5v-1.5H157.7z M151.4,244.9v9.3h-1.8v-9.3H151.4z M154.5,244.9h1.8v6.8
					c0,0.3,0.1,0.5,0.1,0.6s0.2,0.2,0.4,0.3c0.2,0,0.3,0.1,0.5,0.1c0.1,0,0.3,0,0.4,0c0.1,0,0.2,0,0.3-0.1v1.5
					c-0.1,0-0.3,0.1-0.6,0.1c-0.2,0-0.5,0.1-0.8,0.1c-0.6,0-1.2-0.2-1.6-0.6c-0.4-0.4-0.6-1-0.6-1.9L154.5,244.9L154.5,244.9z"/>
				<path class="st6" d="M160,254.2v-12.4h1.8v12.4H160z M161.7,251v-2.2h0.3l3.7-3.9h2.2l-4.2,4.5h-0.3L161.7,251L161.7,251z
					 M165.9,254.2l-3.3-4.4l1.2-1.3l4.3,5.7H165.9L165.9,254.2z"/>
				<path class="st6" d="M171.8,252.5l-0.1,0.7c-0.1,0.5-0.2,1-0.3,1.5c-0.1,0.5-0.3,1-0.4,1.5c-0.1,0.5-0.3,0.8-0.4,1.1h-1.3
					c0.1-0.2,0.1-0.6,0.2-1c0.1-0.4,0.2-0.9,0.3-1.4c0.1-0.5,0.1-1.1,0.2-1.6l0.1-0.7L171.8,252.5L171.8,252.5z"/>
				<path class="st6" d="M178.7,254.2v-12.4h1.8v12.4H178.7z M180.3,251v-2.2h0.3l3.7-3.9h2.2l-4.2,4.5H182L180.3,251L180.3,251z
					 M184.5,254.2l-3.3-4.4l1.2-1.3l4.3,5.7H184.5L184.5,254.2z"/>
				<path class="st6" d="M201.5,254.2V253l6.5-9.5h-6.6v-1.6h8.8v1.2l-6.5,9.5h6.6v1.6H201.5L201.5,254.2z"/>
			</g>
			<path class="st6" d="M198.1,248.5v1.1h-6.9c0,0.5,0.1,1,0.2,1.4s0.3,0.7,0.6,1s0.6,0.5,1,0.6c0.4,0.1,0.9,0.2,1.6,0.2h3.5v1.1
				h-3.5c-0.5,0-1,0-1.4-0.1s-0.8-0.2-1.1-0.3s-0.6-0.4-0.9-0.7s-0.5-0.6-0.7-1c-0.2-0.4-0.3-0.8-0.4-1.2s-0.1-1-0.1-1.5
				c0-0.9,0.1-1.6,0.3-2.2s0.5-1.1,0.9-1.5s0.9-0.8,1.4-1c0.6-0.2,1.3-0.3,2.2-0.3h3.4v1.1h-3.4c-0.6,0-1,0-1.3,0.1
				s-0.6,0.2-0.9,0.3c-0.2,0.1-0.4,0.3-0.6,0.6s-0.3,0.6-0.4,0.9s-0.2,0.8-0.2,1.2L198.1,248.5L198.1,248.5z"/>
			<g>
				<path class="st6" d="M113.8,234.3v12.4h-1.9v-10.5h-0.1l-3,1.9v-1.8l3.1-2L113.8,234.3L113.8,234.3z"/>
				<path class="st6" d="M107.3,261.3v-1.5l5.3-8.4h1.2v2.2h-0.8l-3.8,6v0.1h7.3v1.6L107.3,261.3L107.3,261.3z M113.2,263.7v-3.6
					l0-8.8h1.8v12.4H113.2z"/>
			</g>
			<rect x="106.9" y="248.3" class="st6" width="10" height="1.5"/>
		</g>
		<g>
			<path class="st6" d="M27.2,290.4c-0.8,0-1.5-0.2-2-0.6s-1-1-1.4-1.7c-0.3-0.7-0.5-1.6-0.5-2.5s0.2-1.8,0.5-2.5s0.8-1.3,1.4-1.7
				c0.6-0.4,1.3-0.6,2-0.6c0.5,0,1,0.1,1.4,0.3s0.8,0.5,1,0.9c0.3,0.4,0.5,0.8,0.7,1.3h0.6l0.4,2.3l1.2,4.7h-1.5l-1.1-4.7
				c-0.1-0.3-0.2-0.6-0.3-1s-0.3-0.7-0.5-1s-0.5-0.6-0.8-0.8s-0.7-0.3-1.1-0.3c-0.5,0-0.9,0.1-1.2,0.4c-0.4,0.3-0.6,0.7-0.8,1.1
				c-0.2,0.5-0.3,1-0.3,1.7s0.1,1.2,0.3,1.7s0.5,0.9,0.8,1.2c0.3,0.3,0.7,0.4,1.2,0.4c0.4,0,0.8-0.1,1.1-0.3s0.6-0.5,0.8-0.8
				s0.4-0.7,0.5-1.1s0.2-0.7,0.3-1l1-4.7h1.5l-1.1,4.7l-0.4,2.4h-0.6c-0.2,0.5-0.4,0.9-0.8,1.3c-0.3,0.4-0.7,0.7-1.1,0.9
				S27.8,290.4,27.2,290.4L27.2,290.4z"/>
			<path class="st6" d="M39.7,284.3v-1.6h7.7v1.6H39.7z M39.7,288v-1.6h7.7v1.6H39.7z"/>
			<path class="st6" d="M64.1,280.9v1.5h-9.5v-1.5H64.1z M57.7,280.9v9.3H56v-9.3H57.7z M60.9,280.9h1.8v6.8c0,0.3,0.1,0.5,0.1,0.6
				s0.2,0.2,0.4,0.3c0.2,0,0.3,0.1,0.5,0.1c0.1,0,0.3,0,0.4,0c0.1,0,0.2,0,0.3-0.1v1.5c-0.2,0-0.3,0.1-0.6,0.1
				c-0.2,0-0.5,0.1-0.8,0.1c-0.7,0-1.2-0.2-1.6-0.6c-0.4-0.4-0.6-1-0.6-1.9L60.9,280.9L60.9,280.9z"/>
			<path class="st6" d="M76.3,284.2v1.6h-5.5v-1.6H76.3z"/>
			<path class="st6" d="M85.9,290.4c-0.6,0-1.1-0.1-1.6-0.3c-0.5-0.2-0.8-0.5-1.1-1c-0.3-0.4-0.4-0.9-0.4-1.5c0-0.5,0.1-1,0.3-1.3
				s0.5-0.6,0.8-0.8c0.3-0.2,0.7-0.4,1.2-0.5c0.4-0.1,0.8-0.2,1.3-0.2c0.6-0.1,1-0.1,1.3-0.2c0.3,0,0.6-0.1,0.8-0.2
				c0.2-0.1,0.2-0.2,0.2-0.5v0c0-0.5-0.2-0.9-0.4-1.2c-0.3-0.3-0.7-0.4-1.3-0.4s-1.1,0.1-1.4,0.4c-0.3,0.3-0.6,0.6-0.7,0.9l-1.7-0.4
				c0.2-0.6,0.5-1,0.9-1.4c0.4-0.4,0.8-0.6,1.3-0.8c0.5-0.2,1-0.2,1.6-0.2c0.4,0,0.8,0,1.2,0.1s0.8,0.2,1.2,0.5s0.7,0.6,0.9,1
				s0.3,1,0.3,1.6v6.2h-1.8v-1.3h-0.1c-0.1,0.2-0.3,0.5-0.5,0.7c-0.2,0.2-0.5,0.4-0.9,0.6S86.4,290.4,85.9,290.4L85.9,290.4z
				 M86.3,288.9c0.5,0,0.9-0.1,1.3-0.3c0.4-0.2,0.6-0.5,0.8-0.8c0.2-0.3,0.3-0.7,0.3-1v-1.2c-0.1,0.1-0.2,0.1-0.4,0.2
				c-0.2,0-0.4,0.1-0.6,0.1s-0.5,0.1-0.7,0.1s-0.4,0.1-0.6,0.1c-0.3,0-0.7,0.1-1,0.2s-0.5,0.2-0.7,0.5c-0.2,0.2-0.3,0.5-0.3,0.8
				c0,0.5,0.2,0.8,0.5,1S85.8,288.9,86.3,288.9L86.3,288.9z"/>
			<path class="st6" d="M92.9,290.2v-9.3h1.7v1.5h0.1c0.2-0.5,0.5-0.9,0.9-1.2c0.4-0.3,0.9-0.4,1.5-0.4c0.1,0,0.2,0,0.4,0
				s0.3,0,0.4,0v1.7c-0.1,0-0.2,0-0.4-0.1s-0.4,0-0.6,0c-0.4,0-0.8,0.1-1.1,0.3s-0.6,0.4-0.8,0.7c-0.2,0.3-0.3,0.7-0.3,1.1v5.7H92.9
				L92.9,290.2z"/>
			<path class="st6" d="M103.4,290.4c-0.9,0-1.7-0.2-2.3-0.6c-0.7-0.4-1.1-1-1.5-1.7s-0.5-1.5-0.5-2.5s0.2-1.8,0.5-2.5
				c0.3-0.7,0.8-1.3,1.5-1.7c0.6-0.4,1.4-0.6,2.3-0.6c0.7,0,1.3,0.1,1.9,0.4c0.6,0.3,1,0.6,1.3,1.1s0.5,1,0.6,1.6h-1.8
				c-0.1-0.4-0.3-0.8-0.7-1.1c-0.3-0.3-0.8-0.5-1.4-0.5c-0.5,0-0.9,0.1-1.3,0.4c-0.4,0.3-0.7,0.6-0.9,1.1c-0.2,0.5-0.3,1.1-0.3,1.7
				s0.1,1.3,0.3,1.8s0.5,0.9,0.9,1.1c0.4,0.3,0.8,0.4,1.3,0.4c0.3,0,0.7-0.1,0.9-0.2s0.5-0.3,0.7-0.5s0.3-0.5,0.4-0.9h1.8
				c-0.1,0.6-0.3,1.1-0.6,1.6c-0.3,0.5-0.8,0.8-1.3,1.1C104.7,290.3,104.1,290.4,103.4,290.4L103.4,290.4z"/>
			<path class="st6" d="M116.1,283.2l-1.6,0.3c-0.1-0.2-0.2-0.4-0.3-0.6c-0.2-0.2-0.3-0.3-0.6-0.5c-0.2-0.1-0.6-0.2-0.9-0.2
				c-0.5,0-0.9,0.1-1.3,0.3s-0.5,0.5-0.5,0.9c0,0.3,0.1,0.6,0.3,0.8c0.2,0.2,0.6,0.3,1.1,0.5l1.5,0.3c0.8,0.2,1.5,0.5,1.9,0.9
				c0.4,0.4,0.6,0.9,0.6,1.6c0,0.6-0.2,1-0.5,1.5c-0.3,0.4-0.8,0.8-1.3,1s-1.2,0.4-2,0.4c-1,0-1.9-0.2-2.5-0.7
				c-0.7-0.5-1.1-1.1-1.2-1.9l1.7-0.3c0.1,0.5,0.3,0.8,0.7,1s0.8,0.4,1.3,0.4c0.6,0,1.1-0.1,1.4-0.4c0.3-0.2,0.5-0.5,0.5-0.9
				c0-0.3-0.1-0.5-0.3-0.7s-0.5-0.4-1-0.5l-1.6-0.3c-0.9-0.2-1.5-0.5-1.9-0.9s-0.6-1-0.6-1.6c0-0.5,0.2-1,0.5-1.4s0.7-0.7,1.3-1
				c0.5-0.2,1.2-0.4,1.8-0.4c1,0,1.8,0.2,2.4,0.6S115.9,282.5,116.1,283.2L116.1,283.2z"/>
			<path class="st6" d="M119.1,279.5c-0.3,0-0.6-0.1-0.8-0.3c-0.2-0.2-0.3-0.5-0.3-0.8s0.1-0.5,0.3-0.8c0.2-0.2,0.5-0.3,0.8-0.3
				s0.6,0.1,0.8,0.3c0.2,0.2,0.3,0.5,0.3,0.8s-0.1,0.5-0.3,0.8C119.7,279.4,119.4,279.5,119.1,279.5z M118.2,290.2v-9.3h1.8v9.3
				H118.2z"/>
			<path class="st6" d="M124.3,284.7v5.5h-1.8v-9.3h1.7v1.5h0.1c0.2-0.5,0.6-0.9,1-1.2c0.5-0.3,1-0.5,1.7-0.5c0.6,0,1.2,0.1,1.7,0.4
				s0.8,0.7,1.1,1.2c0.3,0.5,0.4,1.2,0.4,1.9v5.9h-1.8v-5.7c0-0.7-0.2-1.2-0.5-1.6c-0.4-0.4-0.8-0.6-1.4-0.6c-0.4,0-0.8,0.1-1.1,0.3
				s-0.6,0.5-0.8,0.8C124.3,283.8,124.2,284.2,124.3,284.7L124.3,284.7z"/>
			<path class="st6" d="M151,284.8v-1.6h8.2v1.6H151z M154.3,288.1V280h1.6v8.2H154.3z"/>
			<path class="st6" d="M166.4,290.2v-1.4l4.2-4.3c0.4-0.5,0.8-0.9,1.1-1.2s0.5-0.7,0.7-1c0.1-0.3,0.2-0.7,0.2-1
				c0-0.4-0.1-0.8-0.3-1.1c-0.2-0.3-0.5-0.5-0.8-0.7s-0.7-0.2-1.1-0.2c-0.4,0-0.8,0.1-1.2,0.3s-0.6,0.4-0.8,0.8s-0.3,0.7-0.3,1.2
				h-1.8c0-0.8,0.2-1.4,0.5-2s0.8-1,1.4-1.3c0.6-0.3,1.3-0.5,2.1-0.5s1.5,0.1,2.1,0.5c0.6,0.3,1.1,0.7,1.4,1.3s0.5,1.1,0.5,1.8
				c0,0.5-0.1,0.9-0.3,1.4c-0.2,0.4-0.5,0.9-0.9,1.5c-0.4,0.5-1,1.2-1.8,2l-2.5,2.6v0.1h5.6v1.6L166.4,290.2L166.4,290.2z"/>
			<path class="st6" d="M185.9,280.9v1.5h-9.5v-1.5H185.9z M179.6,280.9v9.3h-1.8v-9.3H179.6z M182.8,280.9h1.8v6.8
				c0,0.3,0.1,0.5,0.1,0.6s0.2,0.2,0.4,0.3c0.2,0,0.3,0.1,0.5,0.1c0.1,0,0.3,0,0.4,0c0.1,0,0.2,0,0.3-0.1v1.5
				c-0.1,0-0.3,0.1-0.6,0.1c-0.2,0-0.5,0.1-0.8,0.1c-0.6,0-1.2-0.2-1.6-0.6c-0.4-0.4-0.6-1-0.6-1.9L182.8,280.9L182.8,280.9z"/>
			<path class="st6" d="M188.2,290.2v-12.4h1.8v12.4H188.2z M189.9,287v-2.2h0.3l3.7-3.9h2.2l-4.2,4.5h-0.3L189.9,287L189.9,287z
				 M194.1,290.2l-3.3-4.4l1.2-1.3l4.3,5.7H194.1L194.1,290.2z"/>
			<path class="st6" d="M200.1,288.5l-0.1,0.7c-0.1,0.5-0.2,1-0.3,1.5c-0.1,0.5-0.3,1-0.4,1.5c-0.1,0.5-0.3,0.8-0.4,1.1h-1.3
				c0.1-0.2,0.1-0.6,0.2-1c0.1-0.4,0.2-0.9,0.3-1.4c0.1-0.5,0.2-1.1,0.2-1.6l0.1-0.7L200.1,288.5L200.1,288.5z"/>
			<path class="st6" d="M206.9,290.2v-12.4h1.8v12.4H206.9z M208.6,287v-2.2h0.3l3.7-3.9h2.2l-4.2,4.5h-0.3L208.6,287L208.6,287z
				 M212.8,290.2l-3.3-4.4l1.2-1.3l4.3,5.7H212.8L212.8,290.2z"/>
			<path class="st6" d="M229.7,290.2V289l6.5-9.5h-6.6v-1.6h8.8v1.2l-6.5,9.5h6.6v1.6H229.7z"/>
		</g>
		<path class="st6" d="M225.2,284.5v1.1h-6.9c0,0.5,0.1,1,0.2,1.4s0.3,0.7,0.6,1s0.6,0.5,1,0.6c0.4,0.1,0.9,0.2,1.6,0.2h3.5v1.1
			h-3.5c-0.5,0-1,0-1.4-0.1s-0.8-0.2-1.1-0.3s-0.6-0.4-0.9-0.7s-0.5-0.6-0.7-1c-0.2-0.4-0.3-0.8-0.4-1.2s-0.1-1-0.1-1.5
			c0-0.9,0.1-1.6,0.3-2.2s0.5-1.1,0.9-1.5s0.9-0.8,1.4-1c0.6-0.2,1.3-0.3,2.2-0.3h3.4v1.1h-3.4c-0.6,0-1,0-1.3,0.1s-0.6,0.2-0.9,0.3
			c-0.2,0.1-0.4,0.3-0.6,0.6s-0.3,0.6-0.4,0.9s-0.2,0.8-0.2,1.2L225.2,284.5L225.2,284.5z"/>
		<g>
			<path class="st6" d="M141.9,270.3v12.4H140v-10.5H140l-3,1.9v-1.8l3.1-2L141.9,270.3L141.9,270.3z"/>
			<path class="st6" d="M135.4,297.3v-1.5l5.3-8.4h1.2v2.2h-0.8l-3.8,6v0.1h7.3v1.6L135.4,297.3L135.4,297.3z M141.3,299.7v-3.6
				l0-8.8h1.8v12.4H141.3z"/>
		</g>
		<rect x="135" y="284.3" class="st6" width="10" height="1.5"/>
		<path class="st6" d="M11.5,299.7v-65.5h9v1.6h-7.4V298h7.4v1.6L11.5,299.7L11.5,299.7z"/>
	</g>
</g>
</svg>
