<?xml version="1.0" encoding="utf-8"?>
<!-- Generator: Adobe Illustrator 27.6.1, SVG Export Plug-In . SVG Version: 6.00 Build 0)  -->
<svg version="1.1" id="Layer_2_00000099629638242528608450000015980561541436464012_"
	 xmlns="http://www.w3.org/2000/svg" xmlns:xlink="http://www.w3.org/1999/xlink" x="0px" y="0px" viewBox="0 0 250 211.4"
	 style="enable-background:new 0 0 250 211.4;" xml:space="preserve">
<style type="text/css">
	.st0{display:none;fill:#191919;stroke:#000000;stroke-miterlimit:10;}
	.st1{fill:none;stroke:#FFFFFF;stroke-width:2;stroke-miterlimit:10;}
	.st2{fill-rule:evenodd;clip-rule:evenodd;fill:#FFFFFF;stroke:#FFFFFF;stroke-width:2;stroke-miterlimit:10;}
	.st3{fill:#FFFFFF;}
	.st4{fill:#D1AE59;stroke:#D1AE59;stroke-width:2;stroke-miterlimit:10;}
	.st5{fill:#D1AE59;}
</style>
<rect x="-13.5" y="-56.5" class="st0" width="282" height="432"/>
<line class="st1" x1="50" y1="101.6" x2="195.8" y2="101.6"/>
<line class="st1" x1="125" y1="176" x2="125" y2="30.2"/>
<polygon class="st2" points="125,26 122.6,30.2 127.4,30.2 "/>
<polygon class="st2" points="200,101.6 195.8,99.2 195.8,104 "/>
<g>
	<path class="st3" d="M100.3,6.6l-1.6,0.3c-0.1-0.2-0.2-0.4-0.3-0.6c-0.2-0.2-0.3-0.3-0.6-0.5c-0.2-0.1-0.6-0.2-0.9-0.2
		c-0.5,0-0.9,0.1-1.3,0.3S95,6.5,95,6.8c0,0.3,0.1,0.6,0.3,0.8s0.6,0.3,1.1,0.5l1.5,0.3c0.8,0.2,1.5,0.5,1.9,0.9s0.6,0.9,0.6,1.6
		c0,0.6-0.2,1.1-0.5,1.5c-0.3,0.4-0.8,0.8-1.3,1s-1.2,0.4-2,0.4c-1,0-1.9-0.2-2.5-0.7c-0.7-0.4-1.1-1.1-1.2-1.9l1.7-0.3
		c0.1,0.4,0.3,0.8,0.7,1s0.8,0.4,1.3,0.4c0.6,0,1.1-0.1,1.4-0.4s0.5-0.6,0.5-0.9c0-0.3-0.1-0.5-0.3-0.7c-0.2-0.2-0.5-0.4-1-0.4
		l-1.6-0.3c-0.9-0.2-1.5-0.5-1.9-0.9c-0.4-0.4-0.6-1-0.6-1.6c0-0.6,0.2-1,0.5-1.4s0.7-0.7,1.3-1s1.2-0.3,1.8-0.3
		c1,0,1.8,0.2,2.4,0.7C99.7,5.2,100.1,5.8,100.3,6.6L100.3,6.6z"/>
	<path class="st3" d="M103.4,2.9c-0.3,0-0.6-0.1-0.8-0.3c-0.2-0.2-0.3-0.5-0.3-0.8s0.1-0.5,0.3-0.8s0.5-0.3,0.8-0.3s0.6,0.1,0.8,0.3
		c0.2,0.2,0.3,0.5,0.3,0.8s-0.1,0.5-0.3,0.8S103.7,2.9,103.4,2.9z M102.4,13.6V4.3h1.8v9.3C104.3,13.6,102.4,13.6,102.4,13.6z"/>
	<path class="st3" d="M108.5,8.1v5.5h-1.8V4.3h1.7v1.5h0.1c0.2-0.5,0.6-0.9,1-1.2c0.5-0.3,1-0.4,1.7-0.4c0.6,0,1.2,0.1,1.7,0.4
		c0.5,0.3,0.8,0.7,1.1,1.2s0.4,1.2,0.4,1.9v5.9h-1.8V7.9c0-0.7-0.2-1.2-0.5-1.6c-0.3-0.4-0.8-0.6-1.4-0.6c-0.4,0-0.8,0.1-1.1,0.3
		s-0.6,0.4-0.8,0.8C108.6,7.2,108.5,7.6,108.5,8.1z"/>
	<path class="st3" d="M120.3,13.8c-0.8,0-1.4-0.2-2-0.6c-0.6-0.4-1-1-1.4-1.7c-0.3-0.7-0.5-1.6-0.5-2.5s0.2-1.8,0.5-2.5
		s0.8-1.3,1.4-1.7c0.6-0.4,1.3-0.6,2-0.6c0.5,0,1,0.1,1.4,0.3c0.4,0.2,0.8,0.5,1.1,0.8c0.3,0.4,0.5,0.8,0.7,1.3h0.6l0.4,2.3l1.2,4.7
		h-1.6l-1.1-4.7c-0.1-0.3-0.2-0.6-0.3-1c-0.1-0.4-0.3-0.7-0.5-1.1s-0.4-0.6-0.8-0.8s-0.7-0.3-1.1-0.3c-0.5,0-0.9,0.1-1.2,0.4
		c-0.3,0.3-0.6,0.7-0.8,1.1c-0.2,0.5-0.3,1-0.3,1.7s0.1,1.2,0.3,1.7c0.2,0.5,0.4,0.9,0.8,1.2c0.3,0.3,0.7,0.4,1.2,0.4
		c0.4,0,0.8-0.1,1.1-0.3s0.6-0.5,0.8-0.9c0.2-0.3,0.4-0.7,0.5-1.1s0.2-0.7,0.3-1l1-4.7h1.5l-1.1,4.7l-0.4,2.3h-0.6
		c-0.2,0.5-0.4,0.9-0.8,1.3c-0.3,0.4-0.7,0.7-1.1,0.9S120.9,13.7,120.3,13.8L120.3,13.8z"/>
	<path class="st3" d="M132.9,6.3V4.7h7.7v1.6H132.9z M132.9,10V8.4h7.7V10H132.9z"/>
	<path class="st3" d="M152.4,13.8c-0.9,0-1.8-0.3-2.4-0.8s-1.2-1.2-1.6-2.2c-0.4-0.9-0.5-2.1-0.5-3.4s0.2-2.5,0.5-3.4
		s0.9-1.7,1.6-2.2s1.5-0.8,2.4-0.8s1.8,0.2,2.4,0.8c0.7,0.5,1.2,1.2,1.6,2.2s0.5,2.1,0.5,3.4s-0.2,2.5-0.5,3.4s-0.9,1.7-1.6,2.2
		C154.1,13.5,153.3,13.8,152.4,13.8L152.4,13.8z M152.4,12.2c0.8,0,1.5-0.4,2-1.2c0.5-0.8,0.7-2,0.7-3.5c0-1-0.1-1.9-0.3-2.6
		c-0.2-0.7-0.5-1.2-0.9-1.6s-0.9-0.5-1.4-0.5c-0.8,0-1.5,0.4-2,1.2c-0.5,0.8-0.7,2-0.7,3.5c0,1,0.1,1.9,0.3,2.6s0.5,1.2,0.9,1.6
		S151.8,12.2,152.4,12.2L152.4,12.2z"/>
</g>
<path class="st4" d="M125.3,42.8c32.3,0,58.5,26.2,58.5,58.5s-26.2,58.5-58.5,58.5s-58.5-26.2-58.5-58.5S93,42.8,125.3,42.8
	 M125.3,41.6c-33,0-59.7,26.7-59.7,59.7S92.3,161,125.3,161s59.7-26.7,59.7-59.7S158.3,41.6,125.3,41.6L125.3,41.6z"/>
<g>
	<g>
		<path class="st3" d="M82.2,208.4c-0.8,0-1.4-0.2-2-0.6s-1-1-1.4-1.7c-0.3-0.7-0.5-1.6-0.5-2.5s0.2-1.8,0.5-2.5
			c0.3-0.7,0.8-1.3,1.4-1.7c0.6-0.4,1.3-0.6,2-0.6c0.5,0,1,0.1,1.4,0.3c0.4,0.2,0.8,0.5,1.1,0.9c0.3,0.4,0.5,0.8,0.7,1.3h0.6
			l0.4,2.3l1.2,4.7h-1.5l-1.1-4.7c-0.1-0.3-0.2-0.6-0.3-1c-0.1-0.4-0.3-0.7-0.5-1s-0.4-0.6-0.8-0.8s-0.7-0.3-1.1-0.3
			c-0.5,0-0.9,0.1-1.2,0.4c-0.3,0.3-0.6,0.7-0.8,1.1c-0.2,0.5-0.3,1-0.3,1.7s0.1,1.2,0.3,1.7c0.2,0.5,0.4,0.9,0.8,1.2
			c0.3,0.3,0.7,0.4,1.2,0.4c0.4,0,0.8-0.1,1.1-0.3s0.6-0.5,0.8-0.8s0.4-0.7,0.5-1.1s0.2-0.7,0.3-1l1-4.7h1.5l-1.1,4.7l-0.4,2.4h-0.6
			c-0.2,0.5-0.4,0.9-0.8,1.3c-0.3,0.4-0.7,0.7-1.1,0.9S82.8,208.4,82.2,208.4L82.2,208.4z"/>
		<path class="st3" d="M94.8,202.3v-1.6h7.7v1.6H94.8z M94.8,206v-1.6h7.7v1.6H94.8z"/>
		<path class="st3" d="M119.1,198.9v1.5h-9.5v-1.5H119.1z M112.8,198.9v9.3H111v-9.3H112.8z M115.9,198.9h1.8v6.8
			c0,0.3,0.1,0.5,0.1,0.6s0.2,0.2,0.4,0.3c0.2,0,0.3,0.1,0.5,0.1c0.1,0,0.3,0,0.4,0c0.1,0,0.2,0,0.3-0.1v1.5c-0.2,0-0.3,0.1-0.6,0.1
			c-0.2,0-0.5,0.1-0.8,0.1c-0.7,0-1.2-0.2-1.6-0.6c-0.4-0.4-0.6-1-0.6-1.9V198.9z"/>
		<path class="st3" d="M121.4,208.2v-12.4h1.8v12.4H121.4z M123,205.1v-2.2h0.3l3.7-3.9h2.2l-4.2,4.5h-0.3L123,205.1L123,205.1z
			 M127.2,208.2l-3.3-4.4l1.2-1.3l4.3,5.7H127.2z"/>
		<path class="st3" d="M133.2,206.5l-0.1,0.7c-0.1,0.5-0.2,1-0.3,1.5c-0.1,0.5-0.3,1-0.4,1.5c-0.1,0.5-0.3,0.8-0.4,1.1h-1.3
			c0.1-0.2,0.1-0.6,0.2-1c0.1-0.4,0.2-0.9,0.3-1.4c0.1-0.5,0.2-1.1,0.2-1.6l0.1-0.7L133.2,206.5L133.2,206.5z"/>
		<path class="st3" d="M140,208.2v-12.4h1.8v12.4H140z M141.7,205.1v-2.2h0.3l3.7-3.9h2.2l-4.2,4.5h-0.3L141.7,205.1L141.7,205.1z
			 M145.9,208.2l-3.3-4.4l1.2-1.3l4.3,5.7H145.9L145.9,208.2z"/>
		<path class="st3" d="M162.8,208.2V207l6.5-9.5h-6.6v-1.6h8.8v1.2l-6.5,9.5h6.6v1.6H162.8z"/>
	</g>
	<path class="st3" d="M158.3,202.5v1.1h-6.9c0,0.5,0.1,1,0.2,1.4s0.3,0.7,0.6,1s0.6,0.5,1,0.6s0.9,0.2,1.6,0.2h3.5v1.1h-3.5
		c-0.5,0-1,0-1.4-0.1s-0.8-0.2-1.1-0.3s-0.6-0.4-0.9-0.7s-0.5-0.6-0.7-1c-0.2-0.4-0.3-0.8-0.4-1.2s-0.1-1-0.1-1.5
		c0-0.9,0.1-1.6,0.3-2.2s0.5-1.1,0.9-1.5s0.9-0.8,1.4-1c0.6-0.2,1.3-0.3,2.2-0.3h3.4v1.1h-3.4c-0.6,0-1,0-1.3,0.1s-0.6,0.2-0.9,0.3
		s-0.4,0.3-0.6,0.6s-0.3,0.6-0.4,0.9s-0.2,0.8-0.2,1.2L158.3,202.5L158.3,202.5z"/>
</g>
<circle class="st5" cx="66.2" cy="101.6" r="5.4"/>
<circle class="st5" cx="184.4" cy="101.6" r="5.4"/>
</svg>
