<?xml version="1.0" encoding="UTF-8"?>
<svg id="Layer_2" data-name="Layer 2" xmlns="http://www.w3.org/2000/svg" viewBox="0 0 250 404">
  <defs>
    <style>
      .cls-1, .cls-2 {
        fill: #fff;
      }

      .cls-2 {
        fill-rule: evenodd;
      }

      .cls-3 {
        fill: none;
        stroke: #fff;
        stroke-miterlimit: 10;
        stroke-width: 2px;
      }

      .cls-4 {
        fill: #d1ae59;
      }
    </style>
  </defs>
  <line class="cls-3" y1="205" x2="243" y2="205"/>
  <line class="cls-3" x1="125" y1="329" x2="125" y2="86"/>
  <polygon class="cls-2" points="125 79 120.96 86 129.04 86 125 79"/>
  <polygon class="cls-2" points="250 205 243 200.96 243 209.04 250 205"/>
  <path class="cls-4" d="m125.5,107c53.76,0,97.5,43.74,97.5,97.5s-43.74,97.5-97.5,97.5-97.5-43.74-97.5-97.5,43.74-97.5,97.5-97.5m0-2c-54.95,0-99.5,44.55-99.5,99.5s44.55,99.5,99.5,99.5,99.5-44.55,99.5-99.5-44.55-99.5-99.5-99.5h0Z"/>
  <line class="cls-3" x1="8" y1="269" x2="243" y2="269"/>
  <circle class="cls-4" cx="51" cy="269" r="9"/>
  <circle class="cls-4" cx="200" cy="269" r="9"/>
  <g>
    <g>
      <path class="cls-1" d="m95.3,13.55l-1.64.29c-.07-.21-.18-.41-.32-.6-.15-.19-.35-.34-.59-.46-.25-.12-.56-.18-.94-.18-.51,0-.94.11-1.28.34s-.51.52-.51.88c0,.31.12.56.34.75s.6.34,1.11.46l1.47.34c.85.2,1.49.5,1.91.91.42.41.63.94.63,1.6,0,.56-.16,1.05-.48,1.48-.32.43-.76.77-1.33,1.02-.57.25-1.23.37-1.98.37-1.04,0-1.89-.22-2.54-.67-.66-.45-1.06-1.08-1.21-1.9l1.74-.27c.11.46.33.8.67,1.03.34.23.78.35,1.32.35.59,0,1.07-.12,1.42-.37.35-.25.53-.55.53-.91,0-.29-.11-.53-.32-.73-.21-.2-.54-.35-.99-.45l-1.57-.34c-.87-.2-1.5-.51-1.92-.94-.41-.43-.62-.97-.62-1.63,0-.55.15-1.03.46-1.44s.73-.73,1.27-.96,1.16-.35,1.85-.35c1,0,1.79.22,2.37.65.58.43.96,1.01,1.14,1.74Z"/>
      <path class="cls-1" d="m98.37,9.86c-.31,0-.58-.11-.81-.32-.22-.21-.33-.46-.33-.76s.11-.55.33-.76c.22-.21.49-.32.81-.32s.58.11.81.32c.22.21.33.46.33.76s-.11.55-.33.76c-.22.21-.49.32-.81.32Zm-.91,10.7v-9.27h1.81v9.27h-1.81Z"/>
      <path class="cls-1" d="m103.49,15.06v5.51h-1.8v-9.27h1.73v1.51h.11c.21-.49.55-.89,1.01-1.18.46-.3,1.03-.45,1.73-.45.63,0,1.18.13,1.66.4.47.26.84.65,1.1,1.17s.39,1.16.39,1.93v5.9h-1.8v-5.68c0-.67-.18-1.2-.53-1.58-.35-.38-.83-.57-1.44-.57-.42,0-.79.09-1.11.27-.32.18-.58.45-.77.79-.19.35-.28.77-.28,1.26Z"/>
      <path class="cls-1" d="m115.33,20.76c-.77,0-1.45-.22-2.03-.63-.58-.41-1.04-.98-1.36-1.7-.33-.72-.49-1.56-.49-2.5s.17-1.76.51-2.47c.34-.71.81-1.27,1.41-1.68s1.28-.61,2.04-.61c.54,0,1.02.1,1.43.31.41.2.76.49,1.05.85.29.36.53.78.72,1.26h.63l.36,2.32,1.18,4.66h-1.54l-1.11-4.66c-.06-.3-.15-.63-.27-1-.12-.37-.28-.72-.48-1.05s-.45-.61-.75-.83c-.3-.22-.66-.33-1.08-.33-.46,0-.87.14-1.22.41s-.62.66-.82,1.14c-.19.49-.29,1.05-.29,1.68s.09,1.18.28,1.67c.19.5.45.88.78,1.17s.72.42,1.17.42c.41,0,.76-.11,1.07-.33.31-.22.57-.5.78-.84.21-.34.39-.7.52-1.07.13-.37.23-.71.3-1.01l1-4.66h1.54l-1.06,4.66-.36,2.35h-.57c-.19.48-.44.9-.75,1.28s-.67.66-1.1.87-.93.31-1.49.31Z"/>
      <path class="cls-1" d="m127.88,14.63v-1.59h7.73v1.59h-7.73Zm0,3.72v-1.59h7.73v1.59h-7.73Z"/>
      <path class="cls-1" d="m148.58,14.55v1.56h-5.48v-1.56h5.48Z"/>
    </g>
    <g>
      <path class="cls-1" d="m159.17,1v12.36h-1.87V2.87h-.07l-2.96,1.93v-1.79l3.08-2.02h1.82Z"/>
      <path class="cls-1" d="m152.67,27.94v-1.51l5.34-8.44h1.19v2.22h-.75l-3.82,6.05v.1h7.32v1.58h-9.28Zm5.86,2.42v-3.56s.01-8.8.01-8.8h1.77v12.36h-1.78Z"/>
    </g>
    <rect class="cls-1" x="152.3" y="14.75" width="10" height="1.5"/>
  </g>
  <g>
    <g>
      <path class="cls-1" d="m117.58,31v12.36h-1.87v-10.49h-.07l-2.96,1.93v-1.79l3.08-2.02h1.82Z"/>
      <path class="cls-1" d="m111.09,57.94v-1.51l5.34-8.44h1.19v2.22h-.75l-3.82,6.05v.1h7.32v1.58h-9.28Zm5.86,2.42v-3.56s.01-8.8.01-8.8h1.77v12.36h-1.78Z"/>
    </g>
    <rect class="cls-1" x="110.72" y="44.75" width="10" height="1.5"/>
    <g>
      <path class="cls-1" d="m104.77,45.18v1.56h-5.48v-1.56h5.48Z"/>
      <path class="cls-1" d="m126.76,45.84v-1.35l8.02-3.89v1.84l-5.92,2.7.05-.11v.26l-.05-.1,5.92,2.69v1.85l-8.02-3.89Z"/>
      <path class="cls-1" d="m146.42,51.4c-.95,0-1.77-.25-2.44-.75-.68-.5-1.19-1.22-1.55-2.18s-.54-2.1-.54-3.45.18-2.49.54-3.43c.36-.95.88-1.67,1.56-2.17s1.49-.75,2.44-.75,1.76.25,2.43.75c.68.5,1.19,1.23,1.55,2.17.36.95.54,2.09.54,3.43s-.18,2.5-.54,3.45c-.36.95-.88,1.68-1.55,2.18-.68.5-1.49.75-2.44.75Zm0-1.61c.84,0,1.49-.41,1.97-1.23.47-.82.71-2,.71-3.54,0-1.03-.11-1.89-.32-2.6-.21-.71-.52-1.25-.92-1.62s-.88-.55-1.43-.55c-.83,0-1.49.41-1.96,1.23-.47.82-.71,2-.72,3.54,0,1.03.11,1.9.32,2.61.22.71.52,1.25.92,1.61s.88.55,1.44.55Z"/>
    </g>
  </g>
  <g>
    <g>
      <g>
        <path class="cls-1" d="m22.72,358.35c-.77,0-1.45-.22-2.03-.63s-1.04-.98-1.36-1.7c-.33-.72-.49-1.56-.49-2.5s.17-1.76.51-2.47c.34-.71.81-1.27,1.41-1.68.6-.4,1.28-.61,2.04-.61.54,0,1.02.1,1.43.3s.76.49,1.05.85c.29.36.53.78.72,1.26h.63l.36,2.32,1.18,4.66h-1.54l-1.11-4.66c-.06-.3-.15-.63-.27-1-.12-.37-.28-.72-.48-1.05s-.45-.61-.75-.83c-.3-.22-.66-.33-1.08-.33-.46,0-.87.14-1.22.41-.35.28-.62.66-.81,1.14-.19.49-.29,1.05-.29,1.68s.09,1.18.28,1.67c.19.5.45.88.78,1.17.33.28.72.43,1.17.43.41,0,.76-.11,1.07-.33.31-.22.57-.5.78-.84.21-.34.39-.7.52-1.07.13-.37.23-.71.3-1l1-4.66h1.54l-1.06,4.66-.36,2.35h-.57c-.19.48-.44.9-.75,1.28-.3.37-.67.66-1.1.87-.43.21-.93.31-1.49.31Z"/>
        <path class="cls-1" d="m35.28,352.22v-1.59h7.73v1.59h-7.73Zm0,3.72v-1.59h7.73v1.59h-7.73Z"/>
        <path class="cls-1" d="m55.98,352.15v1.56h-5.48v-1.56h5.48Z"/>
        <path class="cls-1" d="m61.09,358.36c-.59,0-1.12-.11-1.59-.33-.48-.22-.85-.54-1.13-.96-.28-.42-.41-.93-.41-1.54,0-.52.1-.95.3-1.29s.47-.61.81-.8c.34-.2.72-.35,1.15-.45s.85-.18,1.29-.23c.56-.06,1.01-.12,1.35-.16.35-.04.6-.11.75-.21.16-.1.23-.25.23-.47v-.04c0-.53-.15-.94-.44-1.23-.29-.29-.74-.43-1.32-.43s-1.09.13-1.43.4c-.35.27-.59.56-.72.89l-1.7-.39c.2-.56.5-1.02.88-1.37.39-.35.84-.6,1.34-.76.51-.16,1.04-.24,1.6-.24.37,0,.76.04,1.18.13.42.09.81.24,1.17.47.37.23.66.56.9.98.23.42.35.97.35,1.65v6.16h-1.76v-1.27h-.07c-.12.23-.29.46-.53.69-.23.22-.53.41-.9.56-.37.15-.81.22-1.32.22Zm.39-1.45c.5,0,.93-.1,1.28-.3s.63-.46.82-.78c.19-.32.28-.66.28-1.03v-1.2c-.06.06-.19.12-.37.18-.18.05-.39.1-.62.14s-.46.07-.68.1c-.22.03-.41.06-.55.08-.35.04-.67.12-.96.22-.29.1-.52.25-.69.45-.17.2-.26.45-.26.78,0,.45.17.78.5,1.01s.75.34,1.26.34Z"/>
        <path class="cls-1" d="m68.07,358.16v-9.27h1.74v1.47h.1c.17-.5.47-.89.9-1.18.43-.29.92-.43,1.46-.43.11,0,.25,0,.4.01s.28.02.37.03v1.73c-.07-.02-.2-.04-.39-.07-.19-.03-.37-.04-.56-.04-.43,0-.8.09-1.14.27-.33.18-.6.43-.79.74-.19.32-.29.67-.29,1.08v5.66h-1.8Z"/>
        <path class="cls-1" d="m78.51,358.34c-.9,0-1.67-.2-2.32-.61-.65-.41-1.14-.97-1.49-1.69-.35-.72-.52-1.54-.52-2.47s.18-1.77.53-2.5c.35-.72.85-1.29,1.5-1.69.64-.41,1.4-.61,2.28-.61.7,0,1.33.13,1.88.39.55.26,1,.62,1.34,1.09.34.47.54,1.01.61,1.64h-1.76c-.1-.43-.32-.81-.66-1.12-.34-.31-.8-.47-1.38-.47-.5,0-.94.13-1.32.4-.38.26-.67.64-.88,1.12-.21.48-.31,1.06-.31,1.72s.1,1.26.31,1.75.5.87.87,1.14c.38.27.82.41,1.33.41.34,0,.65-.06.93-.19s.51-.31.71-.55c.19-.24.33-.52.4-.86h1.76c-.06.6-.26,1.13-.58,1.61-.33.47-.76.84-1.31,1.11-.54.27-1.18.41-1.92.41Z"/>
        <path class="cls-1" d="m91.2,351.15l-1.64.29c-.07-.21-.18-.41-.32-.6-.15-.19-.35-.34-.59-.46-.25-.12-.56-.18-.94-.18-.51,0-.94.11-1.28.34-.34.23-.51.52-.51.88,0,.31.12.56.34.75.23.19.6.34,1.11.46l1.47.34c.85.2,1.49.5,1.91.91.42.41.63.94.63,1.6,0,.56-.16,1.05-.48,1.48s-.76.77-1.33,1.02c-.57.25-1.23.37-1.98.37-1.04,0-1.89-.22-2.54-.67-.66-.45-1.06-1.08-1.21-1.9l1.74-.27c.11.46.33.8.67,1.03.34.23.78.35,1.32.35.59,0,1.07-.12,1.42-.37.35-.25.53-.55.53-.91,0-.29-.11-.53-.32-.73-.21-.2-.54-.35-.99-.45l-1.57-.34c-.87-.2-1.5-.51-1.92-.94s-.62-.98-.62-1.64c0-.55.15-1.03.46-1.44.31-.41.73-.73,1.27-.96s1.16-.35,1.85-.35c1,0,1.79.22,2.37.65.58.43.96,1.01,1.14,1.74Z"/>
        <path class="cls-1" d="m94.27,347.45c-.31,0-.58-.11-.81-.32s-.33-.46-.33-.76.11-.55.33-.76c.22-.21.49-.32.81-.32s.58.11.81.32c.22.21.33.46.33.76s-.11.55-.33.76c-.22.21-.49.32-.81.32Zm-.91,10.7v-9.27h1.81v9.27h-1.81Z"/>
        <path class="cls-1" d="m99.4,352.65v5.51h-1.81v-9.27h1.73v1.51h.12c.21-.49.55-.88,1.01-1.18.46-.3,1.03-.45,1.73-.45.63,0,1.19.13,1.66.4.48.26.84.66,1.11,1.17.26.52.39,1.16.39,1.93v5.9h-1.8v-5.68c0-.67-.18-1.2-.53-1.58-.35-.38-.83-.57-1.44-.57-.42,0-.79.09-1.11.27-.32.18-.58.45-.77.79-.19.35-.28.77-.28,1.26Z"/>
        <path class="cls-1" d="m126.13,352.81v-1.62h8.16v1.62h-8.16Zm3.27,3.27v-8.16h1.62v8.16h-1.62Z"/>
        <path class="cls-1" d="m141.56,358.16v-1.35l4.18-4.33c.45-.47.82-.88,1.11-1.24.29-.36.51-.7.66-1.02.15-.32.22-.66.22-1.03,0-.41-.1-.77-.29-1.07-.19-.3-.46-.53-.79-.69s-.71-.25-1.13-.25c-.44,0-.83.09-1.16.27-.33.18-.58.44-.76.77s-.27.72-.27,1.16h-1.78c0-.75.17-1.41.52-1.97s.82-1,1.42-1.31c.6-.31,1.29-.47,2.06-.47s1.46.15,2.06.46c.59.31,1.06.73,1.39,1.26s.5,1.13.5,1.79c0,.46-.08.91-.26,1.35-.17.44-.47.93-.89,1.46-.42.54-1.01,1.19-1.76,1.95l-2.46,2.57v.09h5.57v1.6h-8.14Z"/>
        <path class="cls-1" d="m161.07,348.88v1.51h-9.51v-1.51h9.51Zm-6.31,0v9.27h-1.78v-9.27h1.78Zm3.15,0h1.78v6.77c0,.28.05.49.14.63.09.14.22.24.37.29.16.05.32.08.5.08.13,0,.27-.01.4-.04.13-.02.24-.04.32-.06v1.51c-.15.04-.34.09-.56.14-.22.05-.48.07-.77.07-.65,0-1.17-.19-1.58-.57-.4-.38-.61-1.03-.61-1.94v-6.88Z"/>
        <path class="cls-1" d="m163.38,358.16v-12.36h1.81v12.36h-1.81Zm1.66-3.15v-2.2s.3,0,.3,0l3.69-3.92h2.16l-4.21,4.47h-.28l-1.66,1.66Zm4.2,3.15l-3.32-4.41,1.24-1.26,4.29,5.67h-2.22Z"/>
        <path class="cls-1" d="m175.19,356.47l-.09.66c-.06.48-.16.99-.3,1.51-.14.53-.29,1.01-.44,1.46-.15.45-.27.81-.37,1.07h-1.28c.05-.25.12-.59.22-1.01.09-.42.18-.9.27-1.42.09-.52.15-1.06.2-1.6l.06-.68h1.74Z"/>
        <path class="cls-1" d="m182.04,358.16v-12.36h1.81v12.36h-1.81Zm1.66-3.15v-2.2s.3,0,.3,0l3.69-3.92h2.16l-4.21,4.47h-.28l-1.66,1.66Zm4.2,3.15l-3.32-4.41,1.24-1.26,4.29,5.67h-2.22Z"/>
        <path class="cls-1" d="m204.84,358.16v-1.24l6.5-9.51h-6.56v-1.61h8.84v1.24l-6.5,9.51h6.56v1.61h-8.84Z"/>
      </g>
      <path class="cls-1" d="m200.55,352.49v1.15h-6.86c.03.51.1.97.22,1.37s.31.74.55,1.02.56.49.96.62c.39.13.93.2,1.61.2h3.51v1.15h-3.54c-.54,0-1.01-.03-1.41-.1s-.76-.17-1.08-.32c-.32-.15-.62-.37-.91-.68s-.52-.63-.69-1c-.18-.37-.31-.78-.4-1.24-.09-.46-.13-.96-.13-1.49,0-.87.09-1.6.26-2.17.17-.57.46-1.08.86-1.53s.89-.76,1.45-.96c.56-.19,1.29-.29,2.19-.29h3.4v1.15h-3.41c-.55,0-.99.03-1.33.09-.34.06-.62.16-.85.29-.23.14-.43.33-.62.58-.19.25-.33.56-.44.92s-.17.77-.2,1.23h6.85Z"/>
      <g>
        <path class="cls-1" d="m118.24,339.31v12.36h-1.87v-10.49h-.07l-2.96,1.93v-1.79l3.08-2.02h1.82Z"/>
        <path class="cls-1" d="m111.75,366.26v-1.51l5.34-8.44h1.19v2.22h-.75l-3.82,6.05v.1h7.32v1.58h-9.28Zm5.86,2.42v-3.56s.01-8.8.01-8.8h1.77v12.36h-1.78Z"/>
      </g>
      <rect class="cls-1" x="111.34" y="353.25" width="10" height="1.5"/>
    </g>
    <path class="cls-1" d="m233.4,388.49v1.15h-6.86c.03.51.1.97.22,1.37s.31.74.55,1.02.56.49.96.62c.39.13.93.2,1.61.2h3.51v1.15h-3.54c-.54,0-1.01-.03-1.41-.1s-.76-.17-1.08-.32c-.32-.15-.62-.37-.91-.68s-.52-.63-.69-1c-.18-.37-.31-.78-.4-1.24-.09-.46-.13-.96-.13-1.49,0-.87.09-1.6.26-2.17.17-.57.46-1.08.86-1.53s.89-.76,1.45-.96c.56-.19,1.29-.29,2.19-.29h3.4v1.15h-3.41c-.55,0-.99.03-1.33.09-.34.06-.62.16-.85.29-.23.14-.43.33-.62.58-.19.25-.33.56-.44.92s-.17.77-.2,1.23h6.85Z"/>
    <g>
      <g>
        <path class="cls-1" d="m22.73,394.35c-.77,0-1.45-.22-2.03-.63-.58-.41-1.04-.98-1.37-1.7-.33-.72-.49-1.56-.49-2.5s.17-1.76.51-2.47c.34-.71.81-1.27,1.41-1.68.6-.4,1.28-.61,2.04-.61.54,0,1.02.1,1.43.3.41.2.76.49,1.05.85s.53.78.72,1.26h.63l.36,2.32,1.18,4.66h-1.55l-1.11-4.66c-.06-.3-.15-.63-.27-1s-.28-.72-.48-1.05-.45-.61-.75-.83c-.3-.22-.66-.33-1.08-.33-.46,0-.87.14-1.22.41-.35.28-.62.66-.82,1.14-.19.49-.29,1.05-.29,1.68s.09,1.18.28,1.67.45.88.78,1.17c.33.28.72.43,1.17.43.41,0,.76-.11,1.07-.33s.57-.5.78-.84c.21-.34.39-.7.52-1.07.13-.37.23-.71.3-1l1-4.66h1.54l-1.06,4.66-.36,2.35h-.57c-.19.48-.44.9-.75,1.28-.3.37-.67.66-1.1.87-.43.21-.93.31-1.49.31Z"/>
        <path class="cls-1" d="m35.28,388.22v-1.59h7.73v1.59h-7.73Zm0,3.72v-1.59h7.73v1.59h-7.73Z"/>
        <path class="cls-1" d="m55.98,388.15v1.56h-5.48v-1.56h5.48Z"/>
        <path class="cls-1" d="m67.45,384.88v1.51h-9.51v-1.51h9.51Zm-6.31,0v9.27h-1.78v-9.27h1.78Zm3.15,0h1.78v6.77c0,.28.05.49.14.63.09.14.22.24.37.29.16.05.32.08.5.08.13,0,.27-.01.4-.04.13-.02.24-.04.32-.06v1.51c-.15.04-.34.09-.56.14-.22.05-.48.07-.77.07-.65,0-1.17-.19-1.58-.57-.4-.38-.61-1.03-.61-1.94v-6.88Z"/>
        <path class="cls-1" d="m74.64,390.1v-1.62h8.16v1.62h-8.16Zm3.27,3.27v-8.16h1.62v8.16h-1.62Z"/>
        <path class="cls-1" d="m92.79,394.36c-.59,0-1.12-.11-1.59-.33-.47-.22-.85-.54-1.13-.96-.28-.42-.41-.93-.41-1.54,0-.52.1-.95.3-1.29s.47-.61.82-.8c.34-.2.72-.35,1.15-.45.42-.1.85-.18,1.29-.23.56-.06,1.01-.12,1.35-.16.35-.04.6-.11.75-.21.16-.1.24-.25.24-.47v-.04c0-.53-.15-.94-.44-1.23-.29-.29-.73-.43-1.32-.43s-1.09.13-1.43.4-.59.56-.72.89l-1.7-.39c.2-.56.5-1.02.88-1.37.39-.35.84-.6,1.34-.76.51-.16,1.04-.24,1.6-.24.37,0,.76.04,1.18.13s.81.24,1.17.47.66.56.9.98.35.97.35,1.65v6.16h-1.76v-1.27h-.07c-.12.23-.29.46-.53.69-.23.22-.53.41-.9.56-.37.15-.81.22-1.32.22Zm.39-1.45c.5,0,.93-.1,1.28-.3.36-.2.63-.46.81-.78.19-.32.28-.66.28-1.03v-1.2c-.06.06-.19.12-.37.18-.18.05-.39.1-.62.14-.23.04-.46.07-.68.1-.22.03-.41.06-.55.08-.35.04-.67.12-.96.22-.29.1-.52.25-.69.45-.17.2-.26.45-.26.78,0,.45.17.78.5,1.01s.75.34,1.26.34Z"/>
        <path class="cls-1" d="m99.77,394.16v-9.27h1.74v1.47h.1c.17-.5.47-.89.9-1.18.43-.29.91-.43,1.46-.43.11,0,.25,0,.4.01.15,0,.28.02.37.03v1.73c-.07-.02-.2-.04-.39-.07s-.37-.04-.56-.04c-.43,0-.81.09-1.14.27-.33.18-.59.43-.79.74-.19.32-.29.67-.29,1.08v5.66h-1.8Z"/>
        <path class="cls-1" d="m110.21,394.34c-.9,0-1.67-.2-2.31-.61-.65-.41-1.14-.97-1.49-1.69-.35-.72-.52-1.54-.52-2.47s.18-1.77.53-2.5c.35-.72.85-1.29,1.5-1.69.64-.41,1.4-.61,2.28-.61.7,0,1.33.13,1.88.39.55.26,1,.62,1.34,1.09s.54,1.01.61,1.64h-1.76c-.1-.43-.32-.81-.66-1.12-.34-.31-.8-.47-1.38-.47-.5,0-.94.13-1.32.4-.38.26-.67.64-.88,1.12-.21.48-.31,1.06-.31,1.72s.1,1.26.31,1.75.5.87.87,1.14c.38.27.82.41,1.33.41.34,0,.65-.06.93-.19.28-.13.51-.31.71-.55.19-.24.33-.52.4-.86h1.76c-.06.6-.26,1.13-.58,1.61-.33.47-.76.84-1.31,1.11-.55.27-1.18.41-1.92.41Z"/>
        <path class="cls-1" d="m122.9,387.15l-1.64.29c-.07-.21-.18-.41-.32-.6-.15-.19-.34-.34-.59-.46-.25-.12-.56-.18-.94-.18-.51,0-.94.11-1.28.34-.34.23-.51.52-.51.88,0,.31.11.56.34.75.23.19.6.34,1.11.46l1.47.34c.85.2,1.49.5,1.91.91.42.41.63.94.63,1.6,0,.56-.16,1.05-.48,1.48-.32.43-.76.77-1.33,1.02-.57.25-1.23.37-1.98.37-1.04,0-1.89-.22-2.54-.67-.66-.45-1.06-1.08-1.21-1.9l1.75-.27c.11.46.33.8.67,1.03s.78.35,1.32.35c.59,0,1.06-.12,1.42-.37.35-.25.53-.55.53-.91,0-.29-.11-.53-.32-.73-.22-.2-.54-.35-.99-.45l-1.57-.34c-.87-.2-1.5-.51-1.92-.94s-.62-.98-.62-1.64c0-.55.15-1.03.46-1.44.31-.41.73-.73,1.27-.96.54-.23,1.16-.35,1.85-.35,1,0,1.79.22,2.37.65.58.43.96,1.01,1.14,1.74Z"/>
        <path class="cls-1" d="m125.97,383.45c-.31,0-.58-.11-.81-.32-.22-.21-.34-.46-.34-.76s.11-.55.34-.76c.22-.21.49-.32.81-.32s.58.11.81.32c.22.21.34.46.34.76s-.11.55-.34.76c-.22.21-.49.32-.81.32Zm-.91,10.7v-9.27h1.8v9.27h-1.8Z"/>
        <path class="cls-1" d="m131.1,388.65v5.51h-1.81v-9.27h1.73v1.51h.11c.21-.49.55-.88,1.01-1.18s1.03-.45,1.73-.45c.63,0,1.18.13,1.66.4s.84.66,1.1,1.17c.26.52.39,1.16.39,1.93v5.9h-1.8v-5.68c0-.67-.18-1.2-.53-1.58-.35-.38-.83-.57-1.44-.57-.42,0-.79.09-1.11.27-.32.18-.58.45-.77.79-.19.35-.28.77-.28,1.26Z"/>
        <path class="cls-1" d="m157.83,388.81v-1.62h8.16v1.62h-8.16Zm3.27,3.27v-8.16h1.62v8.16h-1.62Z"/>
        <path class="cls-1" d="m173.26,394.16v-1.35l4.18-4.33c.45-.47.82-.88,1.11-1.24.29-.36.51-.7.66-1.02.14-.32.22-.66.22-1.03,0-.41-.1-.77-.29-1.07-.19-.3-.46-.53-.79-.69s-.71-.25-1.13-.25c-.44,0-.83.09-1.16.27-.33.18-.58.44-.76.77-.18.33-.27.72-.27,1.16h-1.78c0-.75.17-1.41.52-1.97.35-.56.82-1,1.42-1.31.6-.31,1.29-.47,2.06-.47s1.46.15,2.06.46c.59.31,1.06.73,1.39,1.26s.5,1.13.5,1.79c0,.46-.09.91-.26,1.35-.17.44-.47.93-.89,1.46s-1.01,1.19-1.76,1.95l-2.46,2.57v.09h5.57v1.6h-8.14Z"/>
        <path class="cls-1" d="m192.77,384.88v1.51h-9.51v-1.51h9.51Zm-6.31,0v9.27h-1.78v-9.27h1.78Zm3.15,0h1.78v6.77c0,.28.05.49.14.63.09.14.22.24.37.29.16.05.32.08.5.08.13,0,.27-.01.4-.04.13-.02.24-.04.32-.06v1.51c-.15.04-.34.09-.56.14-.22.05-.48.07-.77.07-.65,0-1.17-.19-1.58-.57-.4-.38-.61-1.03-.61-1.94v-6.88Z"/>
        <path class="cls-1" d="m195.08,394.16v-12.36h1.8v12.36h-1.8Zm1.66-3.15v-2.2s.3,0,.3,0l3.7-3.92h2.16l-4.21,4.47h-.28l-1.66,1.66Zm4.2,3.15l-3.32-4.41,1.24-1.26,4.29,5.67h-2.21Z"/>
        <path class="cls-1" d="m206.89,392.47l-.09.66c-.06.48-.16.99-.3,1.51-.14.53-.29,1.01-.44,1.46-.15.45-.27.81-.37,1.07h-1.28c.05-.25.12-.59.22-1.01.09-.42.18-.9.27-1.42.09-.52.16-1.06.2-1.6l.06-.68h1.74Z"/>
        <path class="cls-1" d="m213.74,394.16v-12.36h1.81v12.36h-1.81Zm1.66-3.15v-2.2s.3,0,.3,0l3.7-3.92h2.16l-4.21,4.47h-.28l-1.66,1.66Zm4.2,3.15l-3.32-4.41,1.24-1.26,4.29,5.67h-2.21Z"/>
        <path class="cls-1" d="m236.54,394.16v-1.24l6.5-9.51h-6.55v-1.61h8.84v1.24l-6.5,9.51h6.55v1.61h-8.84Z"/>
      </g>
      <g>
        <path class="cls-1" d="m150.09,374.31v12.36h-1.87v-10.49h-.07l-2.96,1.93v-1.79l3.08-2.02h1.82Z"/>
        <path class="cls-1" d="m143.6,401.26v-1.51l5.34-8.44h1.19v2.22h-.75l-3.82,6.05v.1h7.32v1.58h-9.28Zm5.86,2.42v-3.56s.01-8.8.01-8.8h1.77v12.36h-1.78Z"/>
      </g>
      <rect class="cls-1" x="143.2" y="388.25" width="10" height="1.5"/>
    </g>
    <path class="cls-1" d="m6.64,403.64v-65.46h9v1.64h-7.36v62.18h7.36v1.64H6.64Z"/>
  </g>
</svg>