<?xml version="1.0" encoding="utf-8"?>
<!-- Generator: Adobe Illustrator 27.6.1, SVG Export Plug-In . SVG Version: 6.00 Build 0)  -->
<svg version="1.1" id="Layer_2_00000156557386730838778540000000155802177434833852_"
	 xmlns="http://www.w3.org/2000/svg" xmlns:xlink="http://www.w3.org/1999/xlink" x="0px" y="0px" viewBox="0 0 250 212"
	 style="enable-background:new 0 0 250 212;" xml:space="preserve">
<style type="text/css">
	.st0{display:none;fill:#191919;stroke:#000000;stroke-miterlimit:10;}
	.st1{fill:none;stroke:#FFFFFF;stroke-width:2;stroke-miterlimit:10;}
	.st2{fill-rule:evenodd;clip-rule:evenodd;fill:#FFFFFF;stroke:#FFFFFF;stroke-width:2;stroke-miterlimit:10;}
	.st3{fill:#FFFFFF;}
	.st4{fill:#D1AE59;stroke:#D1AE59;stroke-width:2;stroke-miterlimit:10;}
	.st5{fill:#D1AE59;}
</style>
<rect x="-13.5" y="-56.5" class="st0" width="282" height="432"/>
<line class="st1" x1="49.7" y1="101.9" x2="196.1" y2="101.9"/>
<line class="st1" x1="125" y1="176.5" x2="125" y2="30.2"/>
<polygon class="st2" points="125,26 122.6,30.2 127.4,30.2 "/>
<polygon class="st2" points="200.3,101.9 196.1,99.4 196.1,104.3 "/>
<g>
	<path class="st3" d="M97.8,6.6l-1.6,0.3c-0.1-0.2-0.2-0.4-0.3-0.6c-0.2-0.2-0.3-0.3-0.6-0.5s-0.6-0.2-0.9-0.2
		c-0.5,0-0.9,0.1-1.3,0.3s-0.5,0.5-0.5,0.9c0,0.3,0.1,0.6,0.3,0.8S93.5,7.9,94,8l1.5,0.3c0.8,0.2,1.5,0.5,1.9,0.9
		c0.4,0.4,0.6,0.9,0.6,1.6c0,0.6-0.2,1.1-0.5,1.5s-0.8,0.8-1.3,1s-1.2,0.4-2,0.4c-1,0-1.9-0.2-2.5-0.7c-0.7-0.4-1.1-1.1-1.2-1.9
		l1.8-0.3c0.1,0.4,0.3,0.8,0.7,1s0.8,0.4,1.3,0.4c0.6,0,1.1-0.1,1.4-0.4c0.3-0.2,0.5-0.6,0.5-0.9c0-0.3-0.1-0.5-0.3-0.7
		c-0.2-0.2-0.5-0.4-1-0.4l-1.6-0.3c-0.9-0.2-1.5-0.5-1.9-0.9c-0.4-0.4-0.6-1-0.6-1.6c0-0.6,0.2-1,0.5-1.4s0.7-0.7,1.3-1
		c0.5-0.2,1.2-0.3,1.8-0.3c1,0,1.8,0.2,2.4,0.7C97.3,5.2,97.6,5.8,97.8,6.6L97.8,6.6z"/>
	<path class="st3" d="M100.9,2.9c-0.3,0-0.6-0.1-0.8-0.3s-0.3-0.5-0.3-0.8s0.1-0.5,0.3-0.8s0.5-0.3,0.8-0.3s0.6,0.1,0.8,0.3
		c0.2,0.2,0.3,0.5,0.3,0.8s-0.1,0.5-0.3,0.8S101.2,2.9,100.9,2.9z M100,13.6V4.3h1.8v9.3C101.8,13.6,100,13.6,100,13.6z"/>
	<path class="st3" d="M106,8.1v5.5h-1.8V4.3h1.7v1.5h0.1c0.2-0.5,0.6-0.9,1-1.2s1-0.4,1.7-0.4c0.6,0,1.2,0.1,1.7,0.4
		c0.5,0.3,0.8,0.7,1.1,1.2c0.3,0.5,0.4,1.2,0.4,1.9v5.9h-1.8V7.9c0-0.7-0.2-1.2-0.5-1.6c-0.3-0.4-0.8-0.6-1.4-0.6
		c-0.4,0-0.8,0.1-1.1,0.3s-0.6,0.4-0.8,0.8S106,7.6,106,8.1L106,8.1z"/>
	<path class="st3" d="M117.8,13.8c-0.8,0-1.4-0.2-2-0.6c-0.6-0.4-1-1-1.4-1.7c-0.3-0.7-0.5-1.6-0.5-2.5s0.2-1.8,0.5-2.5
		s0.8-1.3,1.4-1.7c0.6-0.4,1.3-0.6,2-0.6c0.5,0,1,0.1,1.4,0.3c0.4,0.2,0.8,0.5,1.1,0.8c0.3,0.4,0.5,0.8,0.7,1.3h0.6l0.4,2.3l1.2,4.7
		h-1.6l-1.1-4.7c-0.1-0.3-0.2-0.6-0.3-1c-0.1-0.4-0.3-0.7-0.5-1.1s-0.4-0.6-0.8-0.8s-0.7-0.3-1.1-0.3c-0.5,0-0.9,0.1-1.2,0.4
		c-0.3,0.3-0.6,0.7-0.8,1.1c-0.2,0.5-0.3,1-0.3,1.7s0.1,1.2,0.3,1.7c0.2,0.5,0.4,0.9,0.8,1.2c0.3,0.3,0.7,0.4,1.2,0.4
		c0.4,0,0.8-0.1,1.1-0.3s0.6-0.5,0.8-0.9c0.2-0.3,0.4-0.7,0.5-1.1s0.2-0.7,0.3-1l1-4.7h1.5l-1.1,4.7l-0.4,2.3h-0.6
		c-0.2,0.5-0.4,0.9-0.8,1.3c-0.3,0.4-0.7,0.7-1.1,0.9S118.4,13.7,117.8,13.8L117.8,13.8z"/>
	<path class="st3" d="M130.4,7.6V6h7.7v1.6H130.4z M130.4,11.4V9.8h7.7v1.6H130.4z"/>
	<path class="st3" d="M151.1,6.6v1.6h-5.5V6.6H151.1z"/>
	<path class="st3" d="M158.2,1.2v12.4h-1.9V3.1h-0.1l-3,1.9V3.2l3.1-2L158.2,1.2L158.2,1.2z"/>
</g>
<path class="st4" d="M125.3,42.9c32.4,0,58.7,26.3,58.7,58.7s-26.3,58.7-58.7,58.7s-58.7-26.3-58.7-58.7S92.9,42.9,125.3,42.9
	 M125.3,41.7c-33.1,0-59.9,26.8-59.9,59.9s26.8,59.9,59.9,59.9s59.9-26.8,59.9-59.9S158.4,41.7,125.3,41.7L125.3,41.7z"/>
<g>
	<g>
		<path class="st3" d="M56.1,202.7c-0.8,0-1.5-0.2-2-0.6c-0.6-0.4-1-1-1.4-1.7c-0.3-0.7-0.5-1.6-0.5-2.5s0.2-1.8,0.5-2.5
			s0.8-1.3,1.4-1.7c0.6-0.4,1.3-0.6,2-0.6c0.5,0,1,0.1,1.4,0.3c0.4,0.2,0.8,0.5,1,0.9s0.5,0.8,0.7,1.3H60l0.4,2.3l1.2,4.7H60
			l-1.1-4.7c-0.1-0.3-0.2-0.6-0.3-1s-0.3-0.7-0.5-1s-0.5-0.6-0.8-0.8s-0.7-0.3-1.1-0.3c-0.5,0-0.9,0.1-1.2,0.4
			c-0.3,0.3-0.6,0.7-0.8,1.1c-0.2,0.5-0.3,1-0.3,1.7s0.1,1.2,0.3,1.7c0.2,0.5,0.5,0.9,0.8,1.2c0.3,0.3,0.7,0.4,1.2,0.4
			c0.4,0,0.8-0.1,1.1-0.3s0.6-0.5,0.8-0.8s0.4-0.7,0.5-1.1s0.2-0.7,0.3-1l1-4.7h1.5l-1.1,4.7l-0.4,2.4h-0.6
			c-0.2,0.5-0.4,0.9-0.8,1.3c-0.3,0.4-0.7,0.7-1.1,0.9S56.7,202.7,56.1,202.7L56.1,202.7z"/>
		<path class="st3" d="M68.7,196.5v-1.6h7.7v1.6H68.7z M68.7,200.3v-1.6h7.7v1.6H68.7z"/>
		<path class="st3" d="M89.4,196.5v1.6h-5.5v-1.6H89.4z"/>
		<path class="st3" d="M110.2,197.1v-1.6h8.2v1.6H110.2z M113.5,200.4v-8.2h1.6v8.2H113.5z"/>
		<path class="st3" d="M125.6,202.5v-1.4l4.2-4.3c0.5-0.5,0.8-0.9,1.1-1.2c0.3-0.4,0.5-0.7,0.7-1c0.1-0.3,0.2-0.7,0.2-1
			c0-0.4-0.1-0.8-0.3-1.1c-0.2-0.3-0.5-0.5-0.8-0.7s-0.7-0.2-1.1-0.2c-0.4,0-0.8,0.1-1.2,0.3c-0.3,0.2-0.6,0.4-0.8,0.8
			s-0.3,0.7-0.3,1.2h-1.8c0-0.8,0.2-1.4,0.5-2s0.8-1,1.4-1.3c0.6-0.3,1.3-0.5,2.1-0.5c0.8,0,1.5,0.1,2.1,0.5
			c0.6,0.3,1.1,0.7,1.4,1.3c0.3,0.5,0.5,1.1,0.5,1.8c0,0.5-0.1,0.9-0.3,1.4c-0.2,0.4-0.5,0.9-0.9,1.5c-0.4,0.5-1,1.2-1.8,2l-2.5,2.6
			v0.1h5.6v1.6L125.6,202.5L125.6,202.5z"/>
		<path class="st3" d="M145.1,193.2v1.5h-9.5v-1.5H145.1z M138.8,193.2v9.3H137v-9.3H138.8z M142,193.2h1.8v6.8c0,0.3,0,0.5,0.1,0.6
			s0.2,0.2,0.4,0.3c0.1,0,0.3,0.1,0.5,0.1c0.1,0,0.3,0,0.4,0c0.1,0,0.2,0,0.3-0.1v1.5c-0.1,0-0.3,0.1-0.6,0.1
			c-0.2,0-0.5,0.1-0.8,0.1c-0.6,0-1.2-0.2-1.6-0.6c-0.4-0.4-0.6-1-0.6-1.9V193.2z"/>
		<path class="st3" d="M147.4,202.5v-12.4h1.8v12.4H147.4z M149.1,199.3v-2.2h0.3l3.7-3.9h2.2l-4.2,4.5h-0.3L149.1,199.3
			L149.1,199.3z M153.3,202.5l-3.3-4.4l1.2-1.3l4.3,5.7H153.3L153.3,202.5z"/>
		<path class="st3" d="M159.3,200.8l-0.1,0.7c-0.1,0.5-0.2,1-0.3,1.5c-0.1,0.5-0.3,1-0.4,1.5c-0.1,0.5-0.3,0.8-0.4,1.1h-1.3
			c0.1-0.2,0.1-0.6,0.2-1c0.1-0.4,0.2-0.9,0.3-1.4c0.1-0.5,0.2-1.1,0.2-1.6l0.1-0.7L159.3,200.8L159.3,200.8z"/>
		<path class="st3" d="M166.1,202.5v-12.4h1.8v12.4H166.1z M167.8,199.3v-2.2h0.3l3.7-3.9h2.2l-4.2,4.5h-0.3L167.8,199.3
			L167.8,199.3z M172,202.5l-3.3-4.4l1.2-1.3l4.3,5.7H172L172,202.5z"/>
		<path class="st3" d="M188.9,202.5v-1.2l6.5-9.5h-6.6v-1.6h8.8v1.2l-6.5,9.5h6.6v1.6H188.9z"/>
	</g>
	<path class="st3" d="M184.3,196.8v1.1h-6.9c0,0.5,0.1,1,0.2,1.4s0.3,0.7,0.6,1s0.6,0.5,1,0.6c0.4,0.1,0.9,0.2,1.6,0.2h3.5v1.1h-3.5
		c-0.5,0-1,0-1.4-0.1c-0.4-0.1-0.8-0.2-1.1-0.3s-0.6-0.4-0.9-0.7s-0.5-0.6-0.7-1c-0.2-0.4-0.3-0.8-0.4-1.2s-0.1-1-0.1-1.5
		c0-0.9,0.1-1.6,0.3-2.2c0.2-0.6,0.5-1.1,0.9-1.5s0.9-0.8,1.4-1c0.6-0.2,1.3-0.3,2.2-0.3h3.4v1.1h-3.4c-0.5,0-1,0-1.3,0.1
		s-0.6,0.2-0.9,0.3s-0.4,0.3-0.6,0.6s-0.3,0.6-0.4,0.9c-0.1,0.4-0.2,0.8-0.2,1.2L184.3,196.8L184.3,196.8z"/>
	<g>
		<path class="st3" d="M104.7,185.7v1.5h-9.5v-1.5H104.7z M98.4,185.7v9.3h-1.8v-9.3H98.4z M101.5,185.7h1.8v6.8
			c0,0.3,0.1,0.5,0.1,0.6s0.2,0.2,0.4,0.3c0.2,0,0.3,0.1,0.5,0.1c0.1,0,0.3,0,0.4,0c0.1,0,0.2,0,0.3-0.1v1.5c-0.2,0-0.3,0.1-0.6,0.1
			c-0.2,0-0.5,0.1-0.8,0.1c-0.7,0-1.2-0.2-1.6-0.6c-0.4-0.4-0.6-1-0.6-1.9L101.5,185.7L101.5,185.7z"/>
		<path class="st3" d="M96.1,212v-1.4l4.2-4.3c0.4-0.5,0.8-0.9,1.1-1.2s0.5-0.7,0.7-1c0.2-0.3,0.2-0.7,0.2-1c0-0.4-0.1-0.8-0.3-1.1
			c-0.2-0.3-0.5-0.5-0.8-0.7s-0.7-0.2-1.1-0.2c-0.4,0-0.8,0.1-1.2,0.3s-0.6,0.4-0.8,0.8s-0.3,0.7-0.3,1.2h-1.8c0-0.8,0.2-1.4,0.5-2
			s0.8-1,1.4-1.3s1.3-0.5,2.1-0.5s1.5,0.1,2.1,0.5c0.6,0.3,1.1,0.7,1.4,1.3s0.5,1.1,0.5,1.8c0,0.5-0.1,0.9-0.3,1.4
			c-0.2,0.4-0.5,0.9-0.9,1.5c-0.4,0.5-1,1.2-1.8,2l-2.5,2.6v0.1h5.6v1.6L96.1,212L96.1,212z"/>
	</g>
	<rect x="95.1" y="196.6" class="st3" width="10" height="1.5"/>
</g>
<circle class="st5" cx="125" cy="160.9" r="5.4"/>
</svg>
