<?xml version="1.0" encoding="UTF-8"?>
<svg id="Layer_2" data-name="Layer 2" xmlns="http://www.w3.org/2000/svg" viewBox="0 0 250 320">
  <defs>
    <style>
      .cls-1, .cls-2 {
        fill: #fff;
      }

      .cls-2 {
        fill-rule: evenodd;
      }

      .cls-3 {
        fill: none;
        stroke: #fff;
        stroke-miterlimit: 10;
        stroke-width: 2px;
      }

      .cls-4 {
        fill: #d1ae59;
      }
    </style>
  </defs>
  <line class="cls-3" y1="152" x2="243" y2="152"/>
  <line class="cls-3" x1="125" y1="276" x2="125" y2="33"/>
  <polygon class="cls-2" points="125 26 120.96 33 129.04 33 125 26"/>
  <polygon class="cls-2" points="250 152 243 147.96 243 156.04 250 152"/>
  <g>
    <path class="cls-1" d="m100.29,6.55l-1.64.29c-.07-.21-.18-.41-.32-.6-.15-.19-.35-.34-.59-.46-.25-.12-.56-.18-.94-.18-.51,0-.94.11-1.28.34s-.51.52-.51.88c0,.31.12.56.34.75s.6.34,1.11.46l1.47.34c.85.2,1.49.5,1.91.91s.63.94.63,1.6c0,.56-.16,1.05-.48,1.48-.32.43-.76.77-1.33,1.02-.57.25-1.23.37-1.98.37-1.04,0-1.89-.22-2.54-.67-.66-.44-1.06-1.08-1.21-1.9l1.74-.27c.11.45.33.8.67,1.03.34.23.78.35,1.32.35.59,0,1.07-.12,1.42-.37.35-.25.53-.55.53-.91,0-.29-.11-.53-.32-.73-.21-.2-.54-.35-.99-.45l-1.57-.34c-.87-.2-1.5-.51-1.92-.94-.41-.43-.62-.98-.62-1.64,0-.55.15-1.03.46-1.44s.73-.73,1.27-.96,1.16-.35,1.85-.35c1,0,1.79.22,2.37.65.58.43.96,1.01,1.14,1.74Z"/>
    <path class="cls-1" d="m103.36,2.86c-.31,0-.58-.11-.81-.32-.22-.21-.33-.46-.33-.76s.11-.55.33-.76c.22-.21.49-.32.81-.32s.58.11.81.32c.22.21.33.46.33.76s-.11.55-.33.76-.49.32-.81.32Zm-.91,10.7V4.29h1.81v9.27h-1.81Z"/>
    <path class="cls-1" d="m108.48,8.06v5.51h-1.8V4.29h1.73v1.51h.11c.21-.49.55-.89,1.01-1.18.46-.3,1.03-.45,1.73-.45.63,0,1.18.13,1.66.4.47.26.84.65,1.1,1.17.26.52.39,1.16.39,1.93v5.9h-1.8v-5.68c0-.67-.18-1.2-.53-1.58-.35-.38-.83-.57-1.44-.57-.42,0-.79.09-1.11.27-.32.18-.58.45-.77.79-.19.35-.28.77-.28,1.26Z"/>
    <path class="cls-1" d="m120.32,13.76c-.77,0-1.45-.22-2.04-.63-.58-.41-1.04-.98-1.36-1.7-.33-.72-.49-1.56-.49-2.5s.17-1.76.51-2.47.81-1.27,1.41-1.68c.6-.4,1.28-.61,2.04-.61.54,0,1.02.1,1.43.31.41.2.76.49,1.05.85.29.36.53.78.72,1.26h.63l.36,2.32,1.18,4.66h-1.55l-1.11-4.66c-.06-.3-.15-.63-.27-1-.12-.37-.28-.72-.48-1.05s-.45-.61-.75-.83-.66-.33-1.08-.33c-.46,0-.87.14-1.22.41-.35.28-.62.66-.82,1.14-.19.49-.29,1.05-.29,1.68s.09,1.18.28,1.67c.19.5.45.88.78,1.17.33.28.72.43,1.17.43.41,0,.76-.11,1.07-.33.31-.22.57-.5.78-.85.21-.34.39-.7.52-1.07.13-.37.23-.71.3-1.01l1-4.66h1.54l-1.06,4.66-.36,2.35h-.57c-.19.48-.44.9-.75,1.28-.3.37-.67.66-1.1.87-.43.21-.93.31-1.49.31Z"/>
    <path class="cls-1" d="m132.87,6.31v-1.58h7.73v1.58h-7.73Zm0,3.72v-1.58h7.73v1.58h-7.73Z"/>
    <path class="cls-1" d="m152.39,13.77c-.95,0-1.77-.26-2.45-.75s-1.19-1.23-1.55-2.18c-.36-.95-.54-2.1-.54-3.45s.18-2.49.54-3.44c.36-.95.88-1.67,1.56-2.17.68-.5,1.49-.75,2.44-.75s1.76.25,2.43.75c.68.5,1.19,1.23,1.55,2.17s.54,2.09.54,3.43-.18,2.5-.54,3.45-.88,1.68-1.55,2.18c-.68.5-1.49.75-2.44.75Zm0-1.61c.84,0,1.49-.41,1.96-1.23.47-.82.71-2,.71-3.54,0-1.03-.11-1.89-.32-2.6-.22-.71-.52-1.25-.92-1.62-.4-.37-.88-.55-1.43-.55-.83,0-1.49.41-1.96,1.23-.48.82-.71,2-.72,3.54,0,1.03.11,1.9.32,2.61.21.71.52,1.25.92,1.61s.88.55,1.44.55Z"/>
  </g>
  <path class="cls-4" d="m125.5,54c53.76,0,97.5,43.74,97.5,97.5s-43.74,97.5-97.5,97.5S28,205.26,28,151.5,71.74,54,125.5,54m0-2c-54.95,0-99.5,44.55-99.5,99.5s44.55,99.5,99.5,99.5,99.5-44.55,99.5-99.5-44.55-99.5-99.5-99.5h0Z"/>
  <g>
    <path class="cls-1" d="m82.13,310.35c-.77,0-1.45-.22-2.03-.63-.58-.41-1.04-.98-1.36-1.7-.33-.72-.49-1.56-.49-2.5s.17-1.76.51-2.47c.34-.71.81-1.27,1.41-1.68.6-.4,1.28-.61,2.04-.61.54,0,1.02.1,1.43.3.41.2.76.49,1.05.85.29.36.53.78.72,1.26h.63l.36,2.32,1.18,4.66h-1.54l-1.11-4.66c-.06-.3-.15-.63-.27-1-.12-.37-.28-.72-.48-1.05s-.45-.61-.75-.83c-.3-.22-.66-.33-1.08-.33-.46,0-.87.14-1.22.41-.35.28-.62.66-.82,1.14-.19.49-.29,1.05-.29,1.68s.09,1.18.28,1.67c.19.5.45.88.78,1.17.33.28.72.43,1.17.43.41,0,.76-.11,1.07-.33s.57-.5.78-.84c.21-.34.39-.7.52-1.07.13-.37.23-.71.3-1l1-4.66h1.54l-1.06,4.66-.36,2.35h-.57c-.19.48-.44.9-.75,1.28-.3.37-.67.66-1.1.87-.43.21-.93.31-1.49.31Z"/>
    <path class="cls-1" d="m94.68,304.22v-1.59h7.73v1.59h-7.73Zm0,3.72v-1.59h7.73v1.59h-7.73Z"/>
    <path class="cls-1" d="m118.98,300.88v1.51h-9.51v-1.51h9.51Zm-6.31,0v9.27h-1.78v-9.27h1.78Zm3.15,0h1.78v6.77c0,.28.05.49.14.63.09.14.22.24.38.29.15.05.32.08.5.08.13,0,.27-.01.4-.04.13-.02.24-.04.32-.06v1.51c-.15.04-.34.09-.56.14-.22.05-.48.07-.77.07-.65,0-1.17-.19-1.58-.57-.4-.38-.61-1.03-.61-1.94v-6.88Z"/>
    <path class="cls-1" d="m121.29,310.16v-12.36h1.81v12.36h-1.81Zm1.66-3.15v-2.2s.3,0,.3,0l3.7-3.92h2.16l-4.21,4.47h-.28l-1.66,1.66Zm4.2,3.15l-3.32-4.41,1.24-1.26,4.29,5.67h-2.21Z"/>
    <path class="cls-1" d="m133.1,308.47l-.09.66c-.06.48-.16.99-.3,1.51-.14.53-.29,1.01-.44,1.46-.15.45-.27.81-.37,1.07h-1.28c.05-.25.12-.59.22-1.01.09-.42.18-.9.27-1.42.09-.52.16-1.06.2-1.6l.06-.68h1.74Z"/>
    <path class="cls-1" d="m139.95,310.16v-12.36h1.8v12.36h-1.8Zm1.66-3.15v-2.2s.3,0,.3,0l3.69-3.92h2.16l-4.21,4.47h-.28l-1.66,1.66Zm4.2,3.15l-3.32-4.41,1.24-1.26,4.29,5.67h-2.22Z"/>
    <path class="cls-1" d="m162.75,310.16v-1.24l6.5-9.51h-6.56v-1.61h8.84v1.24l-6.5,9.51h6.56v1.61h-8.84Z"/>
  </g>
  <path class="cls-1" d="m158.21,304.49v1.15h-6.86c.03.51.1.97.22,1.37.12.4.3.74.55,1.02s.56.49.96.62.93.2,1.62.2h3.51v1.15h-3.54c-.54,0-1.01-.03-1.41-.1s-.76-.17-1.08-.32c-.32-.15-.62-.37-.91-.68s-.52-.63-.69-1c-.18-.37-.31-.78-.4-1.24-.09-.46-.13-.96-.13-1.49,0-.87.09-1.6.26-2.17.17-.57.46-1.08.86-1.53s.89-.76,1.45-.96c.56-.19,1.29-.29,2.19-.29h3.4v1.15h-3.41c-.55,0-.99.03-1.33.09-.34.06-.62.16-.85.29s-.43.33-.62.58c-.19.25-.33.56-.44.92s-.17.77-.2,1.23h6.85Z"/>
  <circle class="cls-4" cx="27" cy="152" r="9"/>
  <circle class="cls-4" cx="224" cy="152" r="9"/>
</svg>