<?xml version="1.0" encoding="UTF-8"?>
<svg id="Layer_2" data-name="Layer 2" xmlns="http://www.w3.org/2000/svg" viewBox="0 0 250 400">
  <defs>
    <style>
      .cls-1, .cls-2 {
        fill: #fff;
      }

      .cls-2 {
        fill-rule: evenodd;
      }

      .cls-3 {
        fill: none;
        stroke: #fff;
        stroke-miterlimit: 10;
        stroke-width: 2px;
      }

      .cls-4 {
        fill: #d1ae59;
      }
    </style>
  </defs>
  <line class="cls-3" y1="197" x2="243" y2="197"/>
  <line class="cls-3" x1="125" y1="321" x2="125" y2="78"/>
  <polygon class="cls-2" points="125 71 120.96 78 129.04 78 125 71"/>
  <polygon class="cls-2" points="250 197 243 192.96 243 201.04 250 197"/>
  <path class="cls-4" d="m125.5,99c53.76,0,97.5,43.74,97.5,97.5s-43.74,97.5-97.5,97.5S28,250.26,28,196.5s43.74-97.5,97.5-97.5m0-2c-54.95,0-99.5,44.55-99.5,99.5s44.55,99.5,99.5,99.5,99.5-44.55,99.5-99.5-44.55-99.5-99.5-99.5h0Z"/>
  <line class="cls-3" x1="8" y1="241" x2="243" y2="241"/>
  <circle class="cls-4" cx="38" cy="241" r="9"/>
  <circle class="cls-4" cx="213" cy="241" r="9"/>
  <g>
    <path class="cls-1" d="m94.7,13.55l-1.64.29c-.07-.21-.18-.41-.32-.6-.15-.19-.35-.34-.59-.46-.25-.12-.56-.18-.94-.18-.51,0-.94.11-1.28.34s-.51.52-.51.88c0,.31.12.56.34.75s.6.34,1.11.46l1.47.34c.85.2,1.49.5,1.91.91.42.41.63.94.63,1.6,0,.56-.16,1.05-.48,1.48-.32.43-.76.77-1.33,1.02-.57.25-1.23.37-1.98.37-1.04,0-1.89-.22-2.54-.67-.66-.45-1.06-1.08-1.21-1.9l1.74-.27c.11.46.33.8.67,1.03.34.23.78.35,1.32.35.59,0,1.07-.12,1.42-.37.35-.25.53-.55.53-.91,0-.29-.11-.53-.32-.73-.21-.2-.54-.35-.99-.45l-1.57-.34c-.87-.2-1.5-.51-1.92-.94-.41-.43-.62-.97-.62-1.63,0-.55.15-1.03.46-1.44s.73-.73,1.27-.96,1.16-.35,1.85-.35c1,0,1.79.22,2.37.65.58.43.96,1.01,1.14,1.74Z"/>
    <path class="cls-1" d="m97.78,9.86c-.31,0-.58-.11-.81-.32-.22-.21-.33-.46-.33-.76s.11-.55.33-.76c.22-.21.49-.32.81-.32s.58.11.81.32c.22.21.33.46.33.76s-.11.55-.33.76c-.22.21-.49.32-.81.32Zm-.91,10.7v-9.27h1.81v9.27h-1.81Z"/>
    <path class="cls-1" d="m102.9,15.06v5.51h-1.8v-9.27h1.73v1.51h.11c.21-.49.55-.89,1.01-1.18.46-.3,1.03-.45,1.73-.45.63,0,1.18.13,1.66.4.47.26.84.65,1.1,1.17s.39,1.16.39,1.93v5.9h-1.8v-5.68c0-.67-.18-1.2-.53-1.58-.35-.38-.83-.57-1.44-.57-.42,0-.79.09-1.11.27-.32.18-.58.45-.77.79-.19.35-.28.77-.28,1.26Z"/>
    <path class="cls-1" d="m114.73,20.76c-.77,0-1.45-.22-2.03-.63-.58-.41-1.04-.98-1.36-1.7-.33-.72-.49-1.56-.49-2.5s.17-1.76.51-2.47c.34-.71.81-1.27,1.41-1.68s1.28-.61,2.04-.61c.54,0,1.02.1,1.43.31.41.2.76.49,1.05.85.29.36.53.78.72,1.26h.63l.36,2.32,1.18,4.66h-1.54l-1.11-4.66c-.06-.3-.15-.63-.27-1-.12-.37-.28-.72-.48-1.05s-.45-.61-.75-.83c-.3-.22-.66-.33-1.08-.33-.46,0-.87.14-1.22.41s-.62.66-.82,1.14c-.19.49-.29,1.05-.29,1.68s.09,1.18.28,1.67c.19.5.45.88.78,1.17s.72.42,1.17.42c.41,0,.76-.11,1.07-.33.31-.22.57-.5.78-.84.21-.34.39-.7.52-1.07.13-.37.23-.71.3-1.01l1-4.66h1.54l-1.06,4.66-.36,2.35h-.57c-.19.48-.44.9-.75,1.28s-.67.66-1.1.87-.93.31-1.49.31Z"/>
    <path class="cls-1" d="m127.28,14.63v-1.59h7.73v1.59h-7.73Zm0,3.72v-1.59h7.73v1.59h-7.73Z"/>
    <path class="cls-1" d="m147.99,14.55v1.56h-5.48v-1.56h5.48Z"/>
  </g>
  <g>
    <path class="cls-1" d="m159.57,1v12.36h-1.87V2.87h-.07l-2.96,1.93v-1.79l3.08-2.02h1.82Z"/>
    <path class="cls-1" d="m153.69,30.36v-1.35l4.18-4.33c.45-.47.82-.88,1.11-1.24.29-.36.51-.7.66-1.02.14-.32.22-.66.22-1.03,0-.41-.1-.77-.29-1.07s-.46-.53-.79-.69-.71-.25-1.13-.25c-.44,0-.83.09-1.16.27-.33.18-.58.44-.76.77s-.27.72-.27,1.16h-1.78c0-.75.17-1.41.52-1.97s.82-1,1.42-1.31c.6-.31,1.29-.47,2.06-.47s1.46.15,2.06.46c.59.31,1.06.73,1.39,1.26s.5,1.13.5,1.79c0,.46-.09.91-.26,1.35s-.47.93-.89,1.46c-.42.54-1.01,1.19-1.76,1.95l-2.46,2.57v.09h5.57v1.6h-8.14Z"/>
  </g>
  <rect class="cls-1" x="152.71" y="14.75" width="10" height="1.5"/>
  <g>
    <g>
      <g>
        <path class="cls-1" d="m60.91,355.35c-.77,0-1.45-.22-2.04-.63-.58-.41-1.04-.98-1.36-1.7-.33-.72-.49-1.56-.49-2.5s.17-1.76.51-2.47c.34-.71.81-1.27,1.41-1.68.6-.4,1.28-.61,2.04-.61.54,0,1.02.1,1.43.3.41.2.76.49,1.05.85s.53.78.72,1.26h.63l.36,2.32,1.18,4.66h-1.55l-1.11-4.66c-.06-.3-.15-.63-.27-1-.12-.37-.28-.72-.48-1.05s-.45-.61-.75-.83c-.3-.22-.66-.33-1.08-.33-.46,0-.87.14-1.22.41-.35.28-.62.66-.82,1.14-.19.49-.29,1.05-.29,1.68s.09,1.18.28,1.67c.19.5.45.88.78,1.17.33.28.72.43,1.17.43.41,0,.76-.11,1.07-.33.31-.22.57-.5.78-.84.21-.34.39-.7.52-1.07.13-.37.23-.71.3-1l1-4.66h1.54l-1.06,4.66-.36,2.35h-.57c-.19.48-.44.9-.75,1.28-.3.37-.67.66-1.1.87-.43.21-.93.31-1.49.31Z"/>
        <path class="cls-1" d="m73.46,349.22v-1.59h7.73v1.59h-7.73Zm0,3.72v-1.59h7.73v1.59h-7.73Z"/>
        <path class="cls-1" d="m94.17,349.15v1.56h-5.48v-1.56h5.48Z"/>
        <path class="cls-1" d="m114.96,349.81v-1.62h8.16v1.62h-8.16Zm3.27,3.27v-8.16h1.62v8.16h-1.62Z"/>
        <path class="cls-1" d="m130.39,355.16v-1.35l4.18-4.33c.45-.47.82-.88,1.11-1.24.29-.36.51-.7.66-1.02.15-.32.22-.66.22-1.03,0-.41-.1-.77-.29-1.07s-.46-.53-.79-.69-.71-.25-1.13-.25c-.44,0-.83.09-1.16.27-.33.18-.58.44-.76.77-.18.33-.27.72-.27,1.16h-1.78c0-.75.17-1.41.52-1.97.35-.56.82-1,1.42-1.31.6-.31,1.29-.47,2.06-.47s1.46.15,2.06.46c.59.31,1.06.73,1.39,1.26s.5,1.13.5,1.79c0,.46-.08.91-.26,1.35-.17.44-.47.93-.89,1.46-.42.54-1.01,1.19-1.76,1.95l-2.46,2.57v.09h5.57v1.6h-8.14Z"/>
        <path class="cls-1" d="m149.9,345.88v1.51h-9.51v-1.51h9.51Zm-6.31,0v9.27h-1.78v-9.27h1.78Zm3.15,0h1.78v6.77c0,.28.05.49.14.63.09.14.22.24.38.29.15.05.32.08.5.08.13,0,.27-.01.4-.04.13-.02.24-.04.32-.06v1.51c-.15.04-.34.09-.56.14-.22.05-.48.07-.77.07-.65,0-1.17-.19-1.58-.57-.4-.38-.61-1.03-.61-1.94v-6.88Z"/>
        <path class="cls-1" d="m152.21,355.16v-12.36h1.8v12.36h-1.8Zm1.66-3.15v-2.2s.3,0,.3,0l3.69-3.92h2.16l-4.21,4.47h-.28l-1.66,1.66Zm4.2,3.15l-3.32-4.41,1.24-1.26,4.29,5.67h-2.22Z"/>
        <path class="cls-1" d="m164.02,353.47l-.09.66c-.06.48-.16.99-.3,1.51-.14.53-.29,1.01-.44,1.46-.15.45-.27.81-.37,1.07h-1.28c.05-.25.12-.59.22-1.01.09-.42.18-.9.27-1.42.09-.52.16-1.06.2-1.6l.06-.68h1.74Z"/>
        <path class="cls-1" d="m170.87,355.16v-12.36h1.8v12.36h-1.8Zm1.66-3.15v-2.2s.3,0,.3,0l3.69-3.92h2.16l-4.21,4.47h-.28l-1.66,1.66Zm4.2,3.15l-3.32-4.41,1.24-1.26,4.29,5.67h-2.22Z"/>
        <path class="cls-1" d="m193.67,355.16v-1.24l6.5-9.51h-6.56v-1.61h8.84v1.24l-6.5,9.51h6.56v1.61h-8.84Z"/>
      </g>
      <path class="cls-1" d="m190.06,349.49v1.15h-6.86c.03.51.1.97.22,1.37.12.4.3.74.55,1.02s.56.49.96.62.93.2,1.62.2h3.51v1.15h-3.54c-.54,0-1.01-.03-1.41-.1s-.76-.17-1.08-.32c-.32-.15-.62-.37-.91-.68s-.52-.63-.69-1c-.18-.37-.31-.78-.4-1.24-.09-.46-.13-.96-.13-1.49,0-.87.09-1.6.26-2.17.17-.57.46-1.08.86-1.53s.89-.76,1.45-.96c.56-.19,1.29-.29,2.19-.29h3.4v1.15h-3.41c-.55,0-.99.03-1.33.09-.34.06-.62.16-.85.29s-.43.33-.62.58c-.19.25-.33.56-.44.92s-.17.77-.2,1.23h6.85Z"/>
      <g>
        <path class="cls-1" d="m108.47,338.4v1.51h-9.51v-1.51h9.51Zm-6.31,0v9.27h-1.78v-9.27h1.78Zm3.15,0h1.78v6.77c0,.28.05.49.14.63.09.14.22.24.38.29.15.05.32.08.5.08.13,0,.27-.01.4-.04.13-.02.24-.04.32-.06v1.51c-.15.04-.34.09-.56.14-.22.05-.48.07-.77.07-.65,0-1.17-.19-1.58-.57-.4-.38-.61-1.03-.61-1.94v-6.88Z"/>
        <path class="cls-1" d="m103.99,364.84c-.55,0-1.09-.11-1.63-.3-.53-.19-1.02-.51-1.45-.97-.43-.45-.78-1.06-1.04-1.82s-.39-1.71-.39-2.85c0-1.08.11-2.04.32-2.87s.53-1.54.93-2.12c.41-.58.9-1.02,1.47-1.32.58-.3,1.22-.45,1.94-.45s1.39.14,1.96.43c.57.29,1.04.69,1.39,1.2.36.51.58,1.09.68,1.74h-1.84c-.12-.51-.37-.94-.74-1.26-.37-.33-.85-.49-1.45-.49-.91,0-1.61.39-2.12,1.18-.51.79-.76,1.89-.76,3.29h.09c.21-.35.48-.65.79-.9.31-.25.66-.44,1.05-.57s.8-.2,1.23-.2c.72,0,1.37.17,1.95.52.58.35,1.04.83,1.39,1.44.35.61.52,1.31.52,2.1s-.18,1.5-.53,2.14c-.36.64-.86,1.15-1.5,1.52-.64.37-1.4.55-2.26.55Zm0-1.57c.48,0,.9-.12,1.27-.35.37-.23.67-.55.89-.94.22-.39.33-.83.33-1.32s-.11-.91-.32-1.3c-.21-.39-.5-.7-.87-.93-.37-.23-.79-.34-1.26-.34-.36,0-.69.07-.99.21-.3.14-.57.33-.8.57-.23.24-.41.52-.54.83s-.2.64-.2.99c0,.46.11.89.32,1.29.22.39.51.71.89.95.38.24.8.36,1.28.36Z"/>
      </g>
      <rect class="cls-1" x="98.85" y="349.25" width="10" height="1.5"/>
    </g>
    <g>
      <g>
        <path class="cls-1" d="m60.91,389.35c-.77,0-1.45-.22-2.03-.63-.58-.41-1.04-.98-1.36-1.7-.33-.72-.49-1.56-.49-2.5s.17-1.76.51-2.47c.34-.71.81-1.27,1.41-1.68.6-.4,1.28-.61,2.04-.61.54,0,1.02.1,1.43.3.41.2.76.49,1.05.85.29.36.53.78.72,1.26h.63l.36,2.32,1.18,4.66h-1.54l-1.11-4.66c-.06-.3-.15-.63-.27-1-.12-.37-.28-.72-.48-1.05s-.45-.61-.75-.83c-.3-.22-.66-.33-1.08-.33-.46,0-.87.14-1.22.41-.35.28-.62.66-.82,1.14-.19.49-.29,1.05-.29,1.68s.09,1.18.28,1.67c.19.5.45.88.78,1.17.33.28.72.43,1.17.43.41,0,.76-.11,1.07-.33s.57-.5.78-.84c.21-.34.39-.7.52-1.07.13-.37.23-.71.3-1l1-4.66h1.54l-1.06,4.66-.36,2.35h-.57c-.19.48-.44.9-.75,1.28-.3.37-.67.66-1.1.87-.43.21-.93.31-1.49.31Z"/>
        <path class="cls-1" d="m73.46,383.22v-1.59h7.73v1.59h-7.73Zm0,3.72v-1.59h7.73v1.59h-7.73Z"/>
        <path class="cls-1" d="m94.17,383.15v1.56h-5.48v-1.56h5.48Z"/>
        <path class="cls-1" d="m123.96,383.81v-1.62h8.16v1.62h-8.16Zm3.27,3.27v-8.16h1.62v8.16h-1.62Z"/>
        <path class="cls-1" d="m139.39,389.16v-1.35l4.18-4.33c.45-.47.82-.88,1.11-1.24.29-.36.51-.7.66-1.02.14-.32.22-.66.22-1.03,0-.41-.1-.77-.29-1.07-.19-.3-.46-.53-.79-.69s-.71-.25-1.13-.25c-.44,0-.83.09-1.16.27-.33.18-.58.44-.76.77-.18.33-.27.72-.27,1.16h-1.78c0-.75.17-1.41.52-1.97.35-.56.82-1,1.42-1.31.6-.31,1.29-.47,2.06-.47s1.46.15,2.06.46c.59.31,1.06.73,1.39,1.26.33.53.5,1.13.5,1.79,0,.46-.09.91-.26,1.35s-.47.93-.89,1.46-1.01,1.19-1.76,1.95l-2.46,2.57v.09h5.57v1.6h-8.14Z"/>
        <path class="cls-1" d="m158.9,379.88v1.51h-9.51v-1.51h9.51Zm-6.31,0v9.27h-1.78v-9.27h1.78Zm3.15,0h1.78v6.77c0,.28.05.49.14.63.09.14.22.24.37.29.16.05.32.08.5.08.13,0,.27-.01.4-.04.13-.02.24-.04.32-.06v1.51c-.15.04-.34.09-.56.14-.22.05-.48.07-.77.07-.65,0-1.17-.19-1.58-.57-.4-.38-.61-1.03-.61-1.94v-6.88Z"/>
        <path class="cls-1" d="m161.22,389.16v-12.36h1.81v12.36h-1.81Zm1.66-3.15v-2.2s.3,0,.3,0l3.7-3.92h2.16l-4.21,4.47h-.28l-1.66,1.66Zm4.2,3.15l-3.32-4.41,1.24-1.26,4.29,5.67h-2.21Z"/>
        <path class="cls-1" d="m173.02,387.47l-.09.66c-.06.48-.16.99-.3,1.51-.14.53-.29,1.01-.44,1.46-.15.45-.27.81-.37,1.07h-1.28c.05-.25.12-.59.22-1.01.09-.42.18-.9.27-1.42.09-.52.15-1.06.2-1.6l.06-.68h1.74Z"/>
        <path class="cls-1" d="m179.88,389.16v-12.36h1.81v12.36h-1.81Zm1.66-3.15v-2.2s.3,0,.3,0l3.7-3.92h2.16l-4.21,4.47h-.28l-1.66,1.66Zm4.2,3.15l-3.32-4.41,1.24-1.26,4.29,5.67h-2.21Z"/>
        <path class="cls-1" d="m202.67,389.16v-1.24l6.5-9.51h-6.56v-1.61h8.84v1.24l-6.5,9.51h6.56v1.61h-8.84Z"/>
      </g>
      <path class="cls-1" d="m198.56,383.49v1.15h-6.86c.03.51.1.97.22,1.37.12.4.31.74.55,1.02s.56.49.96.62c.39.13.93.2,1.61.2h3.51v1.15h-3.54c-.54,0-1.01-.03-1.41-.1s-.76-.17-1.08-.32c-.32-.15-.62-.37-.91-.68s-.52-.63-.69-1-.31-.78-.4-1.24-.13-.96-.13-1.49c0-.87.09-1.6.26-2.17.17-.57.46-1.08.86-1.53s.89-.76,1.45-.96c.56-.19,1.29-.29,2.19-.29h3.4v1.15h-3.41c-.55,0-.99.03-1.33.09s-.62.16-.85.29c-.23.14-.43.33-.62.58-.19.25-.33.56-.44.92s-.17.77-.2,1.23h6.85Z"/>
      <g>
        <path class="cls-1" d="m103.7,381.84c-.76,0-1.44-.15-2.04-.44-.6-.29-1.08-.69-1.44-1.2-.36-.51-.55-1.09-.57-1.75h1.81c.04.53.28.97.71,1.31.43.34.94.51,1.53.51.47,0,.9-.11,1.26-.33s.66-.52.87-.91c.21-.39.32-.83.32-1.32s-.11-.95-.33-1.35c-.22-.39-.52-.7-.9-.93-.38-.23-.82-.34-1.31-.34-.38,0-.75.06-1.13.19-.38.13-.69.3-.92.51l-1.71-.25.69-6.23h6.8v1.6h-5.25l-.39,3.46h.07c.24-.23.56-.43.96-.59.4-.16.83-.24,1.29-.24.75,0,1.42.18,2.01.54.59.36,1.05.85,1.39,1.46.34.62.51,1.33.5,2.13,0,.8-.18,1.51-.54,2.14-.36.63-.87,1.12-1.51,1.48s-1.38.54-2.21.54Z"/>
        <path class="cls-1" d="m119.24,372.4v1.51h-9.51v-1.51h9.51Zm-6.31,0v9.27h-1.78v-9.27h1.78Zm3.15,0h1.78v6.77c0,.28.05.49.14.63.09.14.22.24.37.29.16.05.32.08.5.08.13,0,.27-.01.4-.04.13-.02.24-.04.32-.06v1.51c-.15.04-.34.09-.56.14-.22.05-.48.07-.77.07-.65,0-1.17-.19-1.58-.57-.4-.38-.61-1.03-.61-1.94v-6.88Z"/>
        <path class="cls-1" d="m109.49,398.84c-.55,0-1.09-.11-1.63-.3s-1.02-.51-1.45-.97c-.44-.45-.78-1.06-1.04-1.82-.26-.76-.39-1.71-.39-2.85,0-1.08.11-2.04.32-2.87s.53-1.54.93-2.12.9-1.02,1.47-1.32c.58-.3,1.22-.45,1.94-.45s1.39.14,1.96.43c.57.29,1.04.69,1.39,1.2.36.51.58,1.09.68,1.74h-1.84c-.12-.51-.37-.94-.74-1.26-.37-.33-.85-.49-1.45-.49-.91,0-1.61.39-2.12,1.18-.5.79-.76,1.89-.76,3.29h.09c.21-.35.48-.65.79-.9.31-.25.66-.44,1.05-.57.39-.13.8-.2,1.23-.2.72,0,1.37.17,1.95.52.58.35,1.05.83,1.39,1.44.35.61.52,1.31.52,2.1s-.18,1.5-.54,2.14c-.36.64-.86,1.15-1.5,1.52-.64.37-1.4.55-2.26.55Zm0-1.57c.47,0,.9-.12,1.27-.35.38-.23.67-.55.89-.94s.33-.83.33-1.32-.11-.91-.32-1.3c-.21-.39-.5-.7-.87-.93-.37-.23-.79-.34-1.26-.34-.36,0-.69.07-.99.21-.3.14-.57.33-.8.57-.23.24-.41.52-.54.83s-.2.64-.2.99c0,.46.11.89.32,1.29.21.39.51.71.89.95.38.24.8.36,1.28.36Z"/>
      </g>
      <rect class="cls-1" x="98.35" y="383.25" width="22" height="1.5"/>
    </g>
    <path class="cls-1" d="m46.51,399.64v-65.46h9v1.64h-7.36v62.18h7.36v1.64h-9Z"/>
  </g>
  <g>
    <g>
      <path class="cls-1" d="m117.6,35v12.36h-1.87v-10.49h-.07l-2.96,1.93v-1.79l3.08-2.02h1.82Z"/>
      <path class="cls-1" d="m111.71,64.36v-1.35l4.18-4.33c.45-.47.82-.88,1.11-1.24.29-.36.51-.7.66-1.02.14-.32.22-.66.22-1.03,0-.41-.1-.77-.29-1.07s-.46-.53-.79-.69-.71-.25-1.13-.25c-.44,0-.83.09-1.16.27-.33.18-.58.44-.76.77s-.27.72-.27,1.16h-1.78c0-.75.17-1.41.52-1.97s.82-1,1.42-1.31c.6-.31,1.29-.47,2.06-.47s1.46.15,2.06.46c.59.31,1.06.73,1.39,1.26s.5,1.13.5,1.79c0,.46-.09.91-.26,1.35s-.47.93-.89,1.46c-.42.54-1.01,1.19-1.76,1.95l-2.46,2.57v.09h5.57v1.6h-8.14Z"/>
    </g>
    <rect class="cls-1" x="110.73" y="48.75" width="10" height="1.5"/>
    <g>
      <path class="cls-1" d="m107.02,48.75v1.56h-5.48v-1.56h5.48Z"/>
      <path class="cls-1" d="m124.5,49.4v-1.35l8.02-3.89v1.84l-5.92,2.7.05-.11v.26l-.05-.1,5.92,2.69v1.85l-8.02-3.89Z"/>
      <path class="cls-1" d="m144.17,54.96c-.95,0-1.77-.25-2.45-.75-.68-.5-1.19-1.22-1.55-2.18-.36-.95-.54-2.1-.54-3.45s.18-2.49.54-3.43c.36-.95.88-1.67,1.56-2.17s1.49-.75,2.44-.75,1.76.25,2.43.75c.68.5,1.19,1.23,1.55,2.17.36.95.54,2.09.54,3.43s-.18,2.5-.54,3.45-.88,1.68-1.55,2.18c-.68.5-1.49.75-2.44.75Zm0-1.61c.84,0,1.49-.41,1.96-1.23.47-.82.71-2,.71-3.54,0-1.03-.11-1.89-.32-2.6-.21-.71-.52-1.25-.92-1.62s-.88-.55-1.43-.55c-.83,0-1.49.41-1.96,1.23-.47.82-.71,2-.72,3.54,0,1.03.11,1.9.32,2.61.21.71.52,1.25.92,1.61s.88.55,1.44.55Z"/>
    </g>
  </g>
</svg>