<?xml version="1.0" encoding="utf-8"?>
<!-- Generator: Adobe Illustrator 27.6.1, SVG Export Plug-In . SVG Version: 6.00 Build 0)  -->
<svg version="1.1" id="Layer_2_00000018233516864276025820000002366247673373484430_"
	 xmlns="http://www.w3.org/2000/svg" xmlns:xlink="http://www.w3.org/1999/xlink" x="0px" y="0px" viewBox="0 0 250 211.3"
	 style="enable-background:new 0 0 250 211.3;" xml:space="preserve">
<style type="text/css">
	.st0{display:none;fill:#191919;stroke:#000000;stroke-miterlimit:10;}
	.st1{fill:none;stroke:#FFFFFF;stroke-width:2;stroke-miterlimit:10;}
	.st2{fill-rule:evenodd;clip-rule:evenodd;fill:#FFFFFF;stroke:#FFFFFF;stroke-width:2;stroke-miterlimit:10;}
	.st3{fill:#FFFFFF;}
	.st4{fill:#D1AE59;stroke:#D1AE59;stroke-width:2;stroke-miterlimit:10;}
	.st5{fill:#D1AE59;}
</style>
<rect x="-13.5" y="-56.5" class="st0" width="282" height="432"/>
<line class="st1" x1="50" y1="101.6" x2="195.8" y2="101.6"/>
<line class="st1" x1="125" y1="176" x2="125" y2="30.2"/>
<polygon class="st2" points="125,26 122.6,30.2 127.4,30.2 "/>
<polygon class="st2" points="200,101.6 195.8,99.2 195.8,104 "/>
<g>
	<path class="st3" d="M101.8,6.6l-1.6,0.3c-0.1-0.2-0.2-0.4-0.3-0.6c-0.2-0.2-0.3-0.3-0.6-0.5c-0.2-0.1-0.6-0.2-0.9-0.2
		c-0.5,0-0.9,0.1-1.3,0.3s-0.5,0.5-0.5,0.9c0,0.3,0.1,0.6,0.3,0.8s0.6,0.3,1.1,0.5l1.5,0.3c0.8,0.2,1.5,0.5,1.9,0.9s0.6,0.9,0.6,1.6
		c0,0.6-0.2,1.1-0.5,1.5c-0.3,0.4-0.8,0.8-1.3,1s-1.2,0.4-2,0.4c-1,0-1.9-0.2-2.5-0.7c-0.7-0.4-1.1-1.1-1.2-1.9l1.7-0.3
		c0.1,0.4,0.3,0.8,0.7,1s0.8,0.4,1.3,0.4c0.6,0,1.1-0.1,1.4-0.4s0.5-0.6,0.5-0.9c0-0.3-0.1-0.5-0.3-0.7c-0.2-0.2-0.5-0.4-1-0.4
		l-1.6-0.3c-0.9-0.2-1.5-0.5-1.9-0.9c-0.4-0.4-0.6-1-0.6-1.6c0-0.6,0.2-1,0.5-1.4s0.7-0.7,1.3-1s1.2-0.3,1.8-0.3
		c1,0,1.8,0.2,2.4,0.7C101.2,5.2,101.6,5.8,101.8,6.6L101.8,6.6z"/>
	<path class="st3" d="M104.8,2.9c-0.3,0-0.6-0.1-0.8-0.3c-0.2-0.2-0.3-0.5-0.3-0.8s0.1-0.5,0.3-0.8s0.5-0.3,0.8-0.3s0.6,0.1,0.8,0.3
		c0.2,0.2,0.3,0.5,0.3,0.8s-0.1,0.5-0.3,0.8S105.2,2.9,104.8,2.9z M103.9,13.6V4.3h1.8v9.3C105.7,13.6,103.9,13.6,103.9,13.6z"/>
	<path class="st3" d="M110,8.1v5.5h-1.8V4.3h1.7v1.5h0.1c0.2-0.5,0.6-0.9,1-1.2c0.5-0.3,1-0.4,1.7-0.4c0.6,0,1.2,0.1,1.7,0.4
		c0.5,0.3,0.8,0.7,1.1,1.2s0.4,1.2,0.4,1.9v5.9h-1.8V7.9c0-0.7-0.2-1.2-0.5-1.6c-0.3-0.4-0.8-0.6-1.4-0.6c-0.4,0-0.8,0.1-1.1,0.3
		s-0.6,0.4-0.8,0.8C110.1,7.2,110,7.6,110,8.1z"/>
	<path class="st3" d="M121.8,13.8c-0.8,0-1.4-0.2-2-0.6c-0.6-0.4-1-1-1.4-1.7c-0.3-0.7-0.5-1.6-0.5-2.5s0.2-1.8,0.5-2.5
		s0.8-1.3,1.4-1.7c0.6-0.4,1.3-0.6,2-0.6c0.5,0,1,0.1,1.4,0.3c0.4,0.2,0.8,0.5,1.1,0.8c0.3,0.4,0.5,0.8,0.7,1.3h0.6l0.4,2.3l1.2,4.7
		h-1.6l-1.1-4.7c-0.1-0.3-0.2-0.6-0.3-1c-0.1-0.4-0.3-0.7-0.5-1.1s-0.4-0.6-0.8-0.8s-0.7-0.3-1.1-0.3c-0.5,0-0.9,0.1-1.2,0.4
		c-0.3,0.3-0.6,0.7-0.8,1.1c-0.2,0.5-0.3,1-0.3,1.7s0.1,1.2,0.3,1.7c0.2,0.5,0.4,0.9,0.8,1.2c0.3,0.3,0.7,0.4,1.2,0.4
		c0.4,0,0.8-0.1,1.1-0.3s0.6-0.5,0.8-0.9c0.2-0.3,0.4-0.7,0.5-1.1s0.2-0.7,0.3-1l1-4.7h1.5L126,8.9l-0.4,2.3h-0.6
		c-0.2,0.5-0.4,0.9-0.8,1.3c-0.3,0.4-0.7,0.7-1.1,0.9S122.3,13.7,121.8,13.8L121.8,13.8z"/>
	<path class="st3" d="M134.3,6.3V4.7h7.7v1.6H134.3z M134.3,10V8.4h7.7V10H134.3z"/>
	<path class="st3" d="M154.2,1.2v12.4h-1.9V3.1h-0.1l-3,1.9V3.2l3.1-2L154.2,1.2L154.2,1.2z"/>
</g>
<path class="st4" d="M125.3,42.8c32.3,0,58.5,26.2,58.5,58.5s-26.2,58.5-58.5,58.5s-58.5-26.2-58.5-58.5S93,42.8,125.3,42.8
	 M125.3,41.6c-33,0-59.7,26.7-59.7,59.7S92.3,161,125.3,161s59.7-26.7,59.7-59.7S158.3,41.6,125.3,41.6L125.3,41.6z"/>
<g>
	<g>
		<path class="st3" d="M62.3,203c-0.8,0-1.5-0.2-2-0.6c-0.6-0.4-1-1-1.4-1.7c-0.3-0.7-0.5-1.6-0.5-2.5s0.2-1.8,0.5-2.5
			c0.3-0.7,0.8-1.3,1.4-1.7c0.6-0.4,1.3-0.6,2-0.6c0.5,0,1,0.1,1.4,0.3c0.4,0.2,0.8,0.5,1.1,0.9c0.3,0.4,0.5,0.8,0.7,1.3h0.6
			l0.4,2.3l1.2,4.7h-1.5l-1.1-4.7c-0.1-0.3-0.2-0.6-0.3-1c-0.1-0.4-0.3-0.7-0.5-1s-0.5-0.6-0.8-0.8c-0.3-0.2-0.7-0.3-1.1-0.3
			c-0.5,0-0.9,0.1-1.2,0.4c-0.3,0.3-0.6,0.7-0.8,1.1c-0.2,0.5-0.3,1-0.3,1.7s0.1,1.2,0.3,1.7c0.2,0.5,0.4,0.9,0.8,1.2
			c0.3,0.3,0.7,0.4,1.2,0.4c0.4,0,0.8-0.1,1.1-0.3c0.3-0.2,0.6-0.5,0.8-0.8s0.4-0.7,0.5-1.1s0.2-0.7,0.3-1l1-4.7h1.5l-1.1,4.7
			l-0.4,2.4h-0.6c-0.2,0.5-0.4,0.9-0.8,1.3c-0.3,0.4-0.7,0.7-1.1,0.9S62.9,203,62.3,203L62.3,203z"/>
		<path class="st3" d="M74.9,196.9v-1.6h7.7v1.6H74.9z M74.9,200.6V199h7.7v1.6H74.9z"/>
		<path class="st3" d="M104,197.5v-1.6h8.2v1.6H104z M107.3,200.8v-8.2h1.6v8.2H107.3z"/>
		<path class="st3" d="M119.4,202.8v-1.4l4.2-4.3c0.4-0.5,0.8-0.9,1.1-1.2s0.5-0.7,0.7-1c0.2-0.3,0.2-0.7,0.2-1
			c0-0.4-0.1-0.8-0.3-1.1s-0.5-0.5-0.8-0.7s-0.7-0.2-1.1-0.2c-0.4,0-0.8,0.1-1.2,0.3s-0.6,0.4-0.8,0.8s-0.3,0.7-0.3,1.2h-1.8
			c0-0.8,0.2-1.4,0.5-2s0.8-1,1.4-1.3s1.3-0.5,2.1-0.5s1.5,0.1,2.1,0.5c0.6,0.3,1.1,0.7,1.4,1.3s0.5,1.1,0.5,1.8
			c0,0.5-0.1,0.9-0.3,1.4c-0.2,0.4-0.5,0.9-0.9,1.5c-0.4,0.5-1,1.2-1.8,2l-2.5,2.6v0.1h5.6v1.6L119.4,202.8L119.4,202.8z"/>
		<path class="st3" d="M138.9,193.6v1.5h-9.5v-1.5H138.9z M132.6,193.6v9.3h-1.8v-9.3H132.6z M135.8,193.6h1.8v6.8
			c0,0.3,0.1,0.5,0.1,0.6s0.2,0.2,0.4,0.3c0.1,0,0.3,0.1,0.5,0.1c0.1,0,0.3,0,0.4,0c0.1,0,0.2,0,0.3-0.1v1.5c-0.1,0-0.3,0.1-0.6,0.1
			c-0.2,0-0.5,0.1-0.8,0.1c-0.6,0-1.2-0.2-1.6-0.6c-0.4-0.4-0.6-1-0.6-1.9V193.6z"/>
		<path class="st3" d="M141.2,202.8v-12.4h1.8v12.4H141.2z M142.9,199.7v-2.2h0.3l3.7-3.9h2.2l-4.2,4.5h-0.3L142.9,199.7
			L142.9,199.7z M147.1,202.8l-3.3-4.4l1.2-1.3l4.3,5.7H147.1L147.1,202.8z"/>
		<path class="st3" d="M153.1,201.1l-0.1,0.7c-0.1,0.5-0.2,1-0.3,1.5c-0.1,0.5-0.3,1-0.4,1.5c-0.1,0.5-0.3,0.8-0.4,1.1h-1.3
			c0.1-0.2,0.1-0.6,0.2-1c0.1-0.4,0.2-0.9,0.3-1.4c0.1-0.5,0.2-1.1,0.2-1.6l0.1-0.7L153.1,201.1L153.1,201.1z"/>
		<path class="st3" d="M159.9,202.8v-12.4h1.8v12.4H159.9z M161.6,199.7v-2.2h0.3l3.7-3.9h2.2l-4.2,4.5h-0.3L161.6,199.7
			L161.6,199.7z M165.8,202.8l-3.3-4.4l1.2-1.3l4.3,5.7H165.8L165.8,202.8z"/>
		<path class="st3" d="M182.7,202.8v-1.2l6.5-9.5h-6.6v-1.6h8.8v1.2l-6.5,9.5h6.6v1.6H182.7z"/>
	</g>
	<path class="st3" d="M182.3,197.2v1.1h-6.9c0,0.5,0.1,1,0.2,1.4s0.3,0.7,0.6,1s0.6,0.5,1,0.6s0.9,0.2,1.6,0.2h3.5v1.1h-3.5
		c-0.5,0-1,0-1.4-0.1s-0.8-0.2-1.1-0.3s-0.6-0.4-0.9-0.7s-0.5-0.6-0.7-1c-0.2-0.4-0.3-0.8-0.4-1.2s-0.1-1-0.1-1.5
		c0-0.9,0.1-1.6,0.3-2.2s0.5-1.1,0.9-1.5s0.9-0.8,1.4-1c0.6-0.2,1.3-0.3,2.2-0.3h3.4v1.1h-3.4c-0.6,0-1,0-1.3,0.1s-0.6,0.2-0.9,0.3
		s-0.4,0.3-0.6,0.6s-0.3,0.6-0.4,0.9s-0.2,0.8-0.2,1.2L182.3,197.2L182.3,197.2z"/>
	<g>
		<path class="st3" d="M97.7,185.1v1.5h-9.5v-1.5H97.7z M91.4,185.1v9.3h-1.8v-9.3H91.4z M94.5,185.1h1.8v6.8c0,0.3,0.1,0.5,0.1,0.6
			s0.2,0.2,0.4,0.3c0.2,0,0.3,0.1,0.5,0.1c0.1,0,0.3,0,0.4,0c0.1,0,0.2,0,0.3-0.1v1.5c-0.2,0-0.3,0.1-0.6,0.1
			c-0.2,0-0.5,0.1-0.8,0.1c-0.7,0-1.2-0.2-1.6-0.6c-0.4-0.4-0.6-1-0.6-1.9V185.1z"/>
		<path class="st3" d="M89.1,211.3V210l4.2-4.3c0.4-0.5,0.8-0.9,1.1-1.2s0.5-0.7,0.7-1c0.2-0.3,0.2-0.7,0.2-1c0-0.4-0.1-0.8-0.3-1.1
			c-0.2-0.3-0.5-0.5-0.8-0.7s-0.7-0.2-1.1-0.2c-0.4,0-0.8,0.1-1.2,0.3s-0.6,0.4-0.8,0.8s-0.3,0.7-0.3,1.2h-1.8c0-0.8,0.2-1.4,0.5-2
			s0.8-1,1.4-1.3s1.3-0.5,2.1-0.5s1.5,0.1,2.1,0.5c0.6,0.3,1.1,0.7,1.4,1.3s0.5,1.1,0.5,1.8c0,0.5-0.1,0.9-0.3,1.4
			c-0.2,0.4-0.5,0.9-0.9,1.5c-0.4,0.5-1,1.2-1.8,2l-2.5,2.6v0.1h5.6v1.6L89.1,211.3L89.1,211.3z"/>
	</g>
	<rect x="88.1" y="195.9" class="st3" width="10" height="1.5"/>
</g>
<circle class="st5" cx="125" cy="42.2" r="5.4"/>
</svg>
