<?xml version="1.0" encoding="utf-8"?>
<!-- Generator: Adobe Illustrator 27.6.1, SVG Export Plug-In . SVG Version: 6.00 Build 0)  -->
<svg version="1.1" id="Layer_2_00000150803949524597454090000008489873744860850338_"
	 xmlns="http://www.w3.org/2000/svg" xmlns:xlink="http://www.w3.org/1999/xlink" x="0px" y="0px" viewBox="0 0 250 304.1"
	 style="enable-background:new 0 0 250 304.1;" xml:space="preserve">
<style type="text/css">
	.st0{display:none;fill:#191919;stroke:#000000;stroke-miterlimit:10;}
	.st1{fill:none;stroke:#FFFFFF;stroke-width:2;stroke-miterlimit:10;}
	.st2{fill-rule:evenodd;clip-rule:evenodd;fill:#FFFFFF;stroke:#FFFFFF;stroke-width:2;stroke-miterlimit:10;}
	.st3{fill:#D1AE59;stroke:#D1AE59;stroke-width:2;stroke-miterlimit:10;}
	.st4{fill:#D1AE59;}
	.st5{fill:#FFFFFF;}
</style>
<rect x="-14.2" y="-8.5" class="st0" width="282" height="432"/>
<line class="st1" x1="49.6" y1="155" x2="196.2" y2="155"/>
<line class="st1" x1="125" y1="229.9" x2="125" y2="83.2"/>
<polygon class="st2" points="125,79 122.6,83.2 127.4,83.2 "/>
<polygon class="st2" points="200.4,155 196.2,152.6 196.2,157.5 "/>
<path class="st3" d="M125.3,95.9c32.4,0,58.8,26.4,58.8,58.8s-26.4,58.8-58.8,58.8s-58.8-26.4-58.8-58.8S92.9,95.9,125.3,95.9
	 M125.3,94.7c-33.2,0-60,26.9-60,60s26.9,60,60,60s60-26.9,60-60S158.5,94.7,125.3,94.7L125.3,94.7z"/>
<line class="st1" x1="54.4" y1="193.7" x2="196.2" y2="193.7"/>
<circle class="st4" cx="80.3" cy="193.7" r="5.4"/>
<circle class="st4" cx="170.3" cy="193.7" r="5.4"/>
<g>
	<g>
		<path class="st5" d="M95.3,13.6l-1.6,0.3c-0.1-0.2-0.2-0.4-0.3-0.6c-0.2-0.2-0.3-0.3-0.6-0.5c-0.2-0.1-0.6-0.2-0.9-0.2
			c-0.5,0-0.9,0.1-1.3,0.3S90,13.5,90,13.8c0,0.3,0.1,0.6,0.3,0.8s0.6,0.3,1.1,0.5l1.5,0.3c0.8,0.2,1.5,0.5,1.9,0.9
			c0.4,0.4,0.6,0.9,0.6,1.6c0,0.6-0.2,1-0.5,1.5s-0.8,0.8-1.3,1s-1.2,0.4-2,0.4c-1,0-1.9-0.2-2.5-0.7c-0.7-0.5-1.1-1.1-1.2-1.9
			l1.7-0.3c0.1,0.5,0.3,0.8,0.7,1c0.3,0.2,0.8,0.4,1.3,0.4c0.6,0,1.1-0.1,1.4-0.4s0.5-0.5,0.5-0.9c0-0.3-0.1-0.5-0.3-0.7
			c-0.2-0.2-0.5-0.4-1-0.5l-1.6-0.3c-0.9-0.2-1.5-0.5-1.9-0.9c-0.4-0.4-0.6-1-0.6-1.6c0-0.6,0.2-1,0.5-1.4s0.7-0.7,1.3-1
			s1.2-0.4,1.8-0.4c1,0,1.8,0.2,2.4,0.6C94.7,12.3,95.1,12.8,95.3,13.6L95.3,13.6z"/>
		<path class="st5" d="M98.4,9.9c-0.3,0-0.6-0.1-0.8-0.3c-0.2-0.2-0.3-0.5-0.3-0.8s0.1-0.6,0.3-0.8s0.5-0.3,0.8-0.3S99,7.8,99.2,8
			c0.2,0.2,0.3,0.5,0.3,0.8s-0.1,0.6-0.3,0.8S98.7,9.9,98.4,9.9z M97.5,20.6v-9.3h1.8v9.3H97.5z"/>
		<path class="st5" d="M103.5,15.1v5.5h-1.8v-9.3h1.7v1.5h0.1c0.2-0.5,0.6-0.9,1-1.2c0.5-0.3,1-0.4,1.7-0.4c0.6,0,1.2,0.1,1.7,0.4
			c0.5,0.3,0.8,0.6,1.1,1.2s0.4,1.2,0.4,1.9v5.9h-1.8v-5.7c0-0.7-0.2-1.2-0.5-1.6s-0.8-0.6-1.4-0.6c-0.4,0-0.8,0.1-1.1,0.3
			s-0.6,0.4-0.8,0.8C103.6,14.2,103.5,14.6,103.5,15.1L103.5,15.1z"/>
		<path class="st5" d="M115.3,20.8c-0.8,0-1.4-0.2-2-0.6s-1-1-1.4-1.7c-0.3-0.7-0.5-1.6-0.5-2.5s0.2-1.8,0.5-2.5
			c0.3-0.7,0.8-1.3,1.4-1.7s1.3-0.6,2-0.6c0.5,0,1,0.1,1.4,0.3c0.4,0.2,0.8,0.5,1.1,0.9c0.3,0.4,0.5,0.8,0.7,1.3h0.6l0.4,2.3
			l1.2,4.7h-1.5l-1.1-4.7c-0.1-0.3-0.2-0.6-0.3-1c-0.1-0.4-0.3-0.7-0.5-1.1s-0.4-0.6-0.8-0.8s-0.7-0.3-1.1-0.3
			c-0.5,0-0.9,0.1-1.2,0.4s-0.6,0.7-0.8,1.1c-0.2,0.5-0.3,1.1-0.3,1.7c0,0.6,0.1,1.2,0.3,1.7c0.2,0.5,0.4,0.9,0.8,1.2
			s0.7,0.4,1.2,0.4c0.4,0,0.8-0.1,1.1-0.3s0.6-0.5,0.8-0.8s0.4-0.7,0.5-1.1c0.1-0.4,0.2-0.7,0.3-1l1-4.7h1.5l-1.1,4.7l-0.4,2.4h-0.6
			c-0.2,0.5-0.4,0.9-0.8,1.3s-0.7,0.7-1.1,0.9S115.9,20.8,115.3,20.8L115.3,20.8z"/>
		<path class="st5" d="M127.9,14.6V13h7.7v1.6H127.9z M127.9,18.4v-1.6h7.7v1.6H127.9z"/>
		<path class="st5" d="M148.6,14.6v1.6h-5.5v-1.6C143.1,14.6,148.6,14.6,148.6,14.6z"/>
	</g>
	<g>
		<path class="st5" d="M159.2,1v12.4h-1.9V2.9h-0.1l-3,1.9V3l3.1-2L159.2,1L159.2,1z"/>
		<path class="st5" d="M152.7,27.9v-1.5L158,18h1.2v2.2h-0.8l-3.8,6.1v0.1h7.3v1.6C161.9,27.9,152.7,27.9,152.7,27.9z M158.5,30.4
			v-3.6l0-8.8h1.8v12.4H158.5z"/>
	</g>
	<rect x="152.3" y="14.8" class="st5" width="10" height="1.5"/>
</g>
<g>
	<g>
		<path class="st5" d="M117.6,31v12.4h-1.9V32.9h-0.1l-3,1.9V33l3.1-2L117.6,31L117.6,31z"/>
		<path class="st5" d="M111.1,57.9v-1.5l5.3-8.4h1.2v2.2h-0.8l-3.8,6v0.1h7.3v1.6C120.4,57.9,111.1,57.9,111.1,57.9z M116.9,60.4
			v-3.6l0-8.8h1.8v12.4H116.9z"/>
	</g>
	<rect x="110.7" y="44.8" class="st5" width="10" height="1.5"/>
	<g>
		<path class="st5" d="M104.8,45.2v1.6h-5.5v-1.6H104.8z"/>
		<path class="st5" d="M126.8,45.8v-1.3l8-3.9v1.8l-5.9,2.7l0.1-0.1v0.3l-0.1-0.1l5.9,2.7v1.8C134.8,49.7,126.8,45.8,126.8,45.8z"/>
		<path class="st5" d="M146.4,51.4c-0.9,0-1.8-0.2-2.4-0.8c-0.7-0.5-1.2-1.2-1.6-2.2s-0.5-2.1-0.5-3.5s0.2-2.5,0.5-3.4
			c0.4-1,0.9-1.7,1.6-2.2s1.5-0.8,2.4-0.8s1.8,0.2,2.4,0.8c0.7,0.5,1.2,1.2,1.6,2.2c0.4,1,0.5,2.1,0.5,3.4s-0.2,2.5-0.5,3.5
			s-0.9,1.7-1.6,2.2C148.2,51.1,147.4,51.4,146.4,51.4L146.4,51.4z M146.4,49.8c0.8,0,1.5-0.4,2-1.2c0.5-0.8,0.7-2,0.7-3.5
			c0-1-0.1-1.9-0.3-2.6s-0.5-1.2-0.9-1.6s-0.9-0.5-1.4-0.5c-0.8,0-1.5,0.4-2,1.2s-0.7,2-0.7,3.5c0,1,0.1,1.9,0.3,2.6
			c0.2,0.7,0.5,1.2,0.9,1.6S145.9,49.8,146.4,49.8L146.4,49.8z"/>
	</g>
</g>
<g>
	<g>
		<g>
			<path class="st5" d="M23.5,258.8c-0.8,0-1.5-0.2-2-0.6s-1-1-1.4-1.7c-0.3-0.7-0.5-1.6-0.5-2.5s0.2-1.8,0.5-2.5s0.8-1.3,1.4-1.7
				c0.6-0.4,1.3-0.6,2-0.6c0.5,0,1,0.1,1.4,0.3s0.8,0.5,1,0.9c0.3,0.4,0.5,0.8,0.7,1.3h0.6l0.4,2.3l1.2,4.7h-1.5l-1.1-4.7
				c-0.1-0.3-0.1-0.6-0.3-1s-0.3-0.7-0.5-1s-0.5-0.6-0.8-0.8s-0.7-0.3-1.1-0.3c-0.5,0-0.9,0.1-1.2,0.4c-0.4,0.3-0.6,0.7-0.8,1.1
				c-0.2,0.5-0.3,1-0.3,1.7s0.1,1.2,0.3,1.7c0.2,0.5,0.5,0.9,0.8,1.2c0.3,0.3,0.7,0.4,1.2,0.4c0.4,0,0.8-0.1,1.1-0.3
				s0.6-0.5,0.8-0.8c0.2-0.3,0.4-0.7,0.5-1.1c0.1-0.4,0.2-0.7,0.3-1l1-4.7h1.5l-1.1,4.7l-0.4,2.4h-0.6c-0.2,0.5-0.4,0.9-0.8,1.3
				c-0.3,0.4-0.7,0.7-1.1,0.9S24,258.8,23.5,258.8L23.5,258.8z"/>
			<path class="st5" d="M36,252.7v-1.6h7.7v1.6H36z M36,256.4v-1.6h7.7v1.6H36z"/>
			<path class="st5" d="M56.7,252.6v1.6h-5.5v-1.6H56.7z"/>
			<path class="st5" d="M61.8,258.8c-0.6,0-1.1-0.1-1.6-0.3c-0.5-0.2-0.8-0.5-1.1-1c-0.3-0.4-0.4-0.9-0.4-1.5c0-0.5,0.1-1,0.3-1.3
				s0.5-0.6,0.8-0.8c0.3-0.2,0.7-0.4,1.2-0.5s0.8-0.2,1.3-0.2c0.6-0.1,1-0.1,1.3-0.2c0.3,0,0.6-0.1,0.8-0.2c0.2-0.1,0.2-0.2,0.2-0.5
				v0c0-0.5-0.2-0.9-0.4-1.2c-0.3-0.3-0.7-0.4-1.3-0.4s-1.1,0.1-1.4,0.4c-0.3,0.3-0.6,0.6-0.7,0.9l-1.7-0.4c0.2-0.6,0.5-1,0.9-1.4
				c0.4-0.4,0.8-0.6,1.3-0.8c0.5-0.2,1-0.2,1.6-0.2c0.4,0,0.8,0,1.2,0.1c0.4,0.1,0.8,0.2,1.2,0.5c0.4,0.2,0.7,0.6,0.9,1
				c0.2,0.4,0.3,1,0.3,1.6v6.2h-1.8v-1.3h-0.1c-0.1,0.2-0.3,0.5-0.5,0.7c-0.2,0.2-0.5,0.4-0.9,0.6C62.8,258.7,62.3,258.8,61.8,258.8
				L61.8,258.8z M62.2,257.4c0.5,0,0.9-0.1,1.3-0.3s0.6-0.5,0.8-0.8c0.2-0.3,0.3-0.7,0.3-1v-1.2c-0.1,0.1-0.2,0.1-0.4,0.2
				c-0.2,0-0.4,0.1-0.6,0.1s-0.5,0.1-0.7,0.1s-0.4,0.1-0.5,0.1c-0.3,0-0.7,0.1-1,0.2s-0.5,0.2-0.7,0.5s-0.3,0.5-0.3,0.8
				c0,0.5,0.2,0.8,0.5,1S61.7,257.4,62.2,257.4L62.2,257.4z"/>
			<path class="st5" d="M68.8,258.6v-9.3h1.7v1.5h0.1c0.2-0.5,0.5-0.9,0.9-1.2c0.4-0.3,0.9-0.4,1.5-0.4c0.1,0,0.2,0,0.4,0
				s0.3,0,0.4,0v1.7c-0.1,0-0.2,0-0.4-0.1s-0.4,0-0.6,0c-0.4,0-0.8,0.1-1.1,0.3c-0.3,0.2-0.6,0.4-0.8,0.7c-0.2,0.3-0.3,0.7-0.3,1.1
				v5.7H68.8z"/>
			<path class="st5" d="M79.3,258.8c-0.9,0-1.7-0.2-2.3-0.6c-0.7-0.4-1.1-1-1.5-1.7s-0.5-1.5-0.5-2.5s0.2-1.8,0.5-2.5
				c0.3-0.7,0.8-1.3,1.5-1.7c0.6-0.4,1.4-0.6,2.3-0.6c0.7,0,1.3,0.1,1.9,0.4c0.6,0.3,1,0.6,1.3,1.1s0.5,1,0.6,1.6h-1.8
				c-0.1-0.4-0.3-0.8-0.7-1.1c-0.3-0.3-0.8-0.5-1.4-0.5c-0.5,0-0.9,0.1-1.3,0.4c-0.4,0.3-0.7,0.6-0.9,1.1c-0.2,0.5-0.3,1.1-0.3,1.7
				s0.1,1.3,0.3,1.8s0.5,0.9,0.9,1.1c0.4,0.3,0.8,0.4,1.3,0.4c0.3,0,0.7-0.1,0.9-0.2s0.5-0.3,0.7-0.5c0.2-0.2,0.3-0.5,0.4-0.9h1.8
				c-0.1,0.6-0.3,1.1-0.6,1.6c-0.3,0.5-0.8,0.8-1.3,1.1C80.6,258.7,80,258.8,79.3,258.8L79.3,258.8z"/>
			<path class="st5" d="M92,251.6l-1.6,0.3c-0.1-0.2-0.2-0.4-0.3-0.6c-0.2-0.2-0.3-0.3-0.6-0.5c-0.2-0.1-0.6-0.2-0.9-0.2
				c-0.5,0-0.9,0.1-1.3,0.3s-0.5,0.5-0.5,0.9c0,0.3,0.1,0.6,0.3,0.8c0.2,0.2,0.6,0.3,1.1,0.5l1.5,0.3c0.8,0.2,1.5,0.5,1.9,0.9
				c0.4,0.4,0.6,0.9,0.6,1.6c0,0.6-0.2,1-0.5,1.5s-0.8,0.8-1.3,1s-1.2,0.4-2,0.4c-1,0-1.9-0.2-2.5-0.7c-0.7-0.5-1.1-1.1-1.2-1.9
				l1.7-0.3c0.1,0.5,0.3,0.8,0.7,1s0.8,0.4,1.3,0.4c0.6,0,1.1-0.1,1.4-0.4s0.5-0.5,0.5-0.9c0-0.3-0.1-0.5-0.3-0.7s-0.5-0.4-1-0.5
				l-1.6-0.3c-0.9-0.2-1.5-0.5-1.9-0.9s-0.6-1-0.6-1.6c0-0.5,0.2-1,0.5-1.4s0.7-0.7,1.3-1s1.2-0.4,1.8-0.4c1,0,1.8,0.2,2.4,0.6
				S91.8,250.9,92,251.6L92,251.6z"/>
			<path class="st5" d="M95,247.9c-0.3,0-0.6-0.1-0.8-0.3s-0.3-0.5-0.3-0.8s0.1-0.5,0.3-0.8c0.2-0.2,0.5-0.3,0.8-0.3
				s0.6,0.1,0.8,0.3c0.2,0.2,0.3,0.5,0.3,0.8s-0.1,0.5-0.3,0.8C95.6,247.8,95.3,247.9,95,247.9z M94.1,258.6v-9.3h1.8v9.3H94.1z"/>
			<path class="st5" d="M100.2,253.1v5.5h-1.8v-9.3h1.7v1.5h0.1c0.2-0.5,0.6-0.9,1-1.2s1-0.5,1.7-0.5c0.6,0,1.2,0.1,1.7,0.4
				c0.5,0.3,0.8,0.7,1.1,1.2c0.3,0.5,0.4,1.2,0.4,1.9v5.9h-1.8v-5.7c0-0.7-0.2-1.2-0.5-1.6c-0.3-0.4-0.8-0.6-1.4-0.6
				c-0.4,0-0.8,0.1-1.1,0.3s-0.6,0.5-0.8,0.8C100.3,252.2,100.2,252.6,100.2,253.1L100.2,253.1z"/>
			<path class="st5" d="M126.9,253.3v-1.6h8.2v1.6C135,253.3,126.9,253.3,126.9,253.3z M130.1,256.5v-8.2h1.6v8.2H130.1z"/>
			<path class="st5" d="M142.3,258.6v-1.4l4.2-4.3c0.4-0.5,0.8-0.9,1.1-1.2s0.5-0.7,0.7-1c0.1-0.3,0.2-0.7,0.2-1
				c0-0.4-0.1-0.8-0.3-1.1c-0.2-0.3-0.5-0.5-0.8-0.7s-0.7-0.2-1.1-0.2c-0.4,0-0.8,0.1-1.2,0.3s-0.6,0.4-0.8,0.8s-0.3,0.7-0.3,1.2
				h-1.8c0-0.8,0.2-1.4,0.5-2s0.8-1,1.4-1.3c0.6-0.3,1.3-0.5,2.1-0.5s1.5,0.1,2.1,0.5c0.6,0.3,1.1,0.7,1.4,1.3s0.5,1.1,0.5,1.8
				c0,0.5-0.1,0.9-0.3,1.4c-0.2,0.4-0.5,0.9-0.9,1.5c-0.4,0.5-1,1.2-1.8,2l-2.5,2.6v0.1h5.6v1.6L142.3,258.6L142.3,258.6z"/>
			<path class="st5" d="M161.8,249.3v1.5h-9.5v-1.5H161.8z M155.5,249.3v9.3h-1.8v-9.3H155.5z M158.7,249.3h1.8v6.8
				c0,0.3,0.1,0.5,0.1,0.6s0.2,0.2,0.4,0.3c0.2,0,0.3,0.1,0.5,0.1c0.1,0,0.3,0,0.4,0c0.1,0,0.2,0,0.3-0.1v1.5
				c-0.1,0-0.3,0.1-0.6,0.1c-0.2,0-0.5,0.1-0.8,0.1c-0.6,0-1.2-0.2-1.6-0.6c-0.4-0.4-0.6-1-0.6-1.9L158.7,249.3L158.7,249.3z"/>
			<path class="st5" d="M164.1,258.6v-12.4h1.8v12.4H164.1z M165.8,255.5v-2.2h0.3l3.7-3.9h2.2l-4.2,4.5h-0.3L165.8,255.5
				L165.8,255.5z M170,258.6l-3.3-4.4l1.2-1.3l4.3,5.7H170L170,258.6z"/>
			<path class="st5" d="M175.9,256.9l-0.1,0.7c-0.1,0.5-0.2,1-0.3,1.5c-0.1,0.5-0.3,1-0.4,1.5c-0.1,0.5-0.3,0.8-0.4,1.1h-1.3
				c0.1-0.2,0.1-0.6,0.2-1c0.1-0.4,0.2-0.9,0.3-1.4c0.1-0.5,0.1-1.1,0.2-1.6l0.1-0.7L175.9,256.9L175.9,256.9z"/>
			<path class="st5" d="M182.8,258.6v-12.4h1.8v12.4H182.8z M184.4,255.5v-2.2h0.3l3.7-3.9h2.2l-4.2,4.5h-0.3L184.4,255.5
				L184.4,255.5z M188.6,258.6l-3.3-4.4l1.2-1.3l4.3,5.7H188.6L188.6,258.6z"/>
			<path class="st5" d="M205.6,258.6v-1.2l6.5-9.5h-6.6v-1.6h8.8v1.2l-6.5,9.5h6.6v1.6H205.6z"/>
		</g>
		<path class="st5" d="M201.3,252.9v1.1h-6.9c0,0.5,0.1,1,0.2,1.4s0.3,0.7,0.6,1s0.6,0.5,1,0.6c0.4,0.1,0.9,0.2,1.6,0.2h3.5v1.1
			h-3.5c-0.5,0-1,0-1.4-0.1s-0.8-0.2-1.1-0.3s-0.6-0.4-0.9-0.7s-0.5-0.6-0.7-1c-0.2-0.4-0.3-0.8-0.4-1.2s-0.1-1-0.1-1.5
			c0-0.9,0.1-1.6,0.3-2.2s0.5-1.1,0.9-1.5s0.9-0.8,1.4-1c0.6-0.2,1.3-0.3,2.2-0.3h3.4v1.1h-3.4c-0.6,0-1,0-1.3,0.1s-0.6,0.2-0.9,0.3
			c-0.2,0.1-0.4,0.3-0.6,0.6s-0.3,0.6-0.4,0.9s-0.2,0.8-0.2,1.2L201.3,252.9L201.3,252.9z"/>
		<g>
			<path class="st5" d="M119,239.8v12.4h-1.9v-10.5h-0.1l-3,1.9v-1.8l3.1-2L119,239.8L119,239.8z"/>
			<path class="st5" d="M112.5,266.7v-1.5l5.3-8.4h1.2v2.2h-0.8l-3.8,6v0.1h7.3v1.6L112.5,266.7L112.5,266.7z M118.4,269.1v-3.6
				l0-8.8h1.8v12.4H118.4z"/>
		</g>
		<rect x="112.1" y="253.7" class="st5" width="10" height="1.5"/>
	</g>
	<path class="st5" d="M234.1,288.9v1.1h-6.9c0,0.5,0.1,1,0.2,1.4s0.3,0.7,0.6,1s0.6,0.5,1,0.6c0.4,0.1,0.9,0.2,1.6,0.2h3.5v1.1h-3.5
		c-0.5,0-1,0-1.4-0.1s-0.8-0.2-1.1-0.3s-0.6-0.4-0.9-0.7s-0.5-0.6-0.7-1c-0.2-0.4-0.3-0.8-0.4-1.2s-0.1-1-0.1-1.5
		c0-0.9,0.1-1.6,0.3-2.2s0.5-1.1,0.9-1.5s0.9-0.8,1.4-1c0.6-0.2,1.3-0.3,2.2-0.3h3.4v1.1h-3.4c-0.6,0-1,0-1.3,0.1s-0.6,0.2-0.9,0.3
		c-0.2,0.1-0.4,0.3-0.6,0.6s-0.3,0.6-0.4,0.9s-0.2,0.8-0.2,1.2L234.1,288.9L234.1,288.9z"/>
	<g>
		<g>
			<path class="st5" d="M23.5,294.8c-0.8,0-1.5-0.2-2-0.6s-1-1-1.4-1.7c-0.3-0.7-0.5-1.6-0.5-2.5s0.2-1.8,0.5-2.5s0.8-1.3,1.4-1.7
				c0.6-0.4,1.3-0.6,2-0.6c0.5,0,1,0.1,1.4,0.3c0.4,0.2,0.8,0.5,1,0.9s0.5,0.8,0.7,1.3h0.6l0.4,2.3l1.2,4.7h-1.5l-1.1-4.7
				c-0.1-0.3-0.1-0.6-0.3-1s-0.3-0.7-0.5-1s-0.5-0.6-0.8-0.8s-0.7-0.3-1.1-0.3c-0.5,0-0.9,0.1-1.2,0.4c-0.4,0.3-0.6,0.7-0.8,1.1
				c-0.2,0.5-0.3,1-0.3,1.7s0.1,1.2,0.3,1.7s0.5,0.9,0.8,1.2c0.3,0.3,0.7,0.4,1.2,0.4c0.4,0,0.8-0.1,1.1-0.3s0.6-0.5,0.8-0.8
				c0.2-0.3,0.4-0.7,0.5-1.1c0.1-0.4,0.2-0.7,0.3-1l1-4.7h1.5l-1.1,4.7l-0.4,2.4h-0.6c-0.2,0.5-0.4,0.9-0.8,1.3
				c-0.3,0.4-0.7,0.7-1.1,0.9S24,294.8,23.5,294.8L23.5,294.8z"/>
			<path class="st5" d="M36,288.7v-1.6h7.7v1.6H36z M36,292.4v-1.6h7.7v1.6H36z"/>
			<path class="st5" d="M56.7,288.6v1.6h-5.5v-1.6H56.7z"/>
			<path class="st5" d="M68.2,285.3v1.5h-9.5v-1.5H68.2z M61.9,285.3v9.3h-1.8v-9.3H61.9z M65,285.3h1.8v6.8c0,0.3,0.1,0.5,0.1,0.6
				s0.2,0.2,0.4,0.3c0.2,0,0.3,0.1,0.5,0.1c0.1,0,0.3,0,0.4,0c0.1,0,0.2,0,0.3-0.1v1.5c-0.2,0-0.3,0.1-0.6,0.1
				c-0.2,0-0.5,0.1-0.8,0.1c-0.7,0-1.2-0.2-1.6-0.6c-0.4-0.4-0.6-1-0.6-1.9L65,285.3L65,285.3z"/>
			<path class="st5" d="M75.4,290.6v-1.6h8.2v1.6H75.4z M78.7,293.8v-8.2h1.6v8.2H78.7z"/>
			<path class="st5" d="M93.5,294.8c-0.6,0-1.1-0.1-1.6-0.3c-0.5-0.2-0.8-0.5-1.1-1c-0.3-0.4-0.4-0.9-0.4-1.5c0-0.5,0.1-1,0.3-1.3
				s0.5-0.6,0.8-0.8c0.3-0.2,0.7-0.4,1.2-0.5c0.4-0.1,0.8-0.2,1.3-0.2c0.6-0.1,1-0.1,1.3-0.2c0.3,0,0.6-0.1,0.8-0.2
				c0.2-0.1,0.2-0.2,0.2-0.5v0c0-0.5-0.2-0.9-0.4-1.2s-0.7-0.4-1.3-0.4s-1.1,0.1-1.4,0.4s-0.6,0.6-0.7,0.9l-1.7-0.4
				c0.2-0.6,0.5-1,0.9-1.4c0.4-0.4,0.8-0.6,1.3-0.8c0.5-0.2,1-0.2,1.6-0.2c0.4,0,0.8,0,1.2,0.1s0.8,0.2,1.2,0.5s0.7,0.6,0.9,1
				s0.3,1,0.3,1.6v6.2h-1.8v-1.3h-0.1c-0.1,0.2-0.3,0.5-0.5,0.7c-0.2,0.2-0.5,0.4-0.9,0.6S94.1,294.8,93.5,294.8L93.5,294.8z
				 M93.9,293.4c0.5,0,0.9-0.1,1.3-0.3c0.4-0.2,0.6-0.5,0.8-0.8c0.2-0.3,0.3-0.7,0.3-1v-1.2c-0.1,0.1-0.2,0.1-0.4,0.2
				c-0.2,0-0.4,0.1-0.6,0.1s-0.5,0.1-0.7,0.1s-0.4,0.1-0.6,0.1c-0.3,0-0.7,0.1-1,0.2s-0.5,0.2-0.7,0.5c-0.2,0.2-0.3,0.5-0.3,0.8
				c0,0.5,0.2,0.8,0.5,1S93.4,293.4,93.9,293.4L93.9,293.4z"/>
			<path class="st5" d="M100.5,294.6v-9.3h1.7v1.5h0.1c0.2-0.5,0.5-0.9,0.9-1.2c0.4-0.3,0.9-0.4,1.5-0.4c0.1,0,0.2,0,0.4,0
				c0.2,0,0.3,0,0.4,0v1.7c-0.1,0-0.2,0-0.4-0.1s-0.4,0-0.6,0c-0.4,0-0.8,0.1-1.1,0.3s-0.6,0.4-0.8,0.7c-0.2,0.3-0.3,0.7-0.3,1.1
				v5.7H100.5z"/>
			<path class="st5" d="M111,294.8c-0.9,0-1.7-0.2-2.3-0.6c-0.7-0.4-1.1-1-1.5-1.7s-0.5-1.5-0.5-2.5s0.2-1.8,0.5-2.5
				c0.3-0.7,0.8-1.3,1.5-1.7c0.6-0.4,1.4-0.6,2.3-0.6c0.7,0,1.3,0.1,1.9,0.4c0.6,0.3,1,0.6,1.3,1.1s0.5,1,0.6,1.6H113
				c-0.1-0.4-0.3-0.8-0.7-1.1c-0.3-0.3-0.8-0.5-1.4-0.5c-0.5,0-0.9,0.1-1.3,0.4c-0.4,0.3-0.7,0.6-0.9,1.1c-0.2,0.5-0.3,1.1-0.3,1.7
				s0.1,1.3,0.3,1.8s0.5,0.9,0.9,1.1c0.4,0.3,0.8,0.4,1.3,0.4c0.3,0,0.7-0.1,0.9-0.2s0.5-0.3,0.7-0.5c0.2-0.2,0.3-0.5,0.4-0.9h1.8
				c-0.1,0.6-0.3,1.1-0.6,1.6c-0.3,0.5-0.8,0.8-1.3,1.1C112.3,294.7,111.7,294.8,111,294.8L111,294.8z"/>
			<path class="st5" d="M123.7,287.6l-1.6,0.3c-0.1-0.2-0.2-0.4-0.3-0.6c-0.2-0.2-0.3-0.3-0.6-0.5s-0.6-0.2-0.9-0.2
				c-0.5,0-0.9,0.1-1.3,0.3s-0.5,0.5-0.5,0.9c0,0.3,0.1,0.6,0.3,0.8c0.2,0.2,0.6,0.3,1.1,0.5l1.5,0.3c0.8,0.2,1.5,0.5,1.9,0.9
				c0.4,0.4,0.6,0.9,0.6,1.6c0,0.6-0.2,1-0.5,1.5c-0.3,0.4-0.8,0.8-1.3,1s-1.2,0.4-2,0.4c-1,0-1.9-0.2-2.5-0.7
				c-0.7-0.5-1.1-1.1-1.2-1.9l1.8-0.3c0.1,0.5,0.3,0.8,0.7,1s0.8,0.4,1.3,0.4c0.6,0,1.1-0.1,1.4-0.4c0.3-0.2,0.5-0.5,0.5-0.9
				c0-0.3-0.1-0.5-0.3-0.7c-0.2-0.2-0.5-0.4-1-0.5l-1.6-0.3c-0.9-0.2-1.5-0.5-1.9-0.9s-0.6-1-0.6-1.6c0-0.5,0.2-1,0.5-1.4
				s0.7-0.7,1.3-1c0.5-0.2,1.2-0.4,1.8-0.4c1,0,1.8,0.2,2.4,0.6S123.5,286.9,123.7,287.6L123.7,287.6z"/>
			<path class="st5" d="M126.7,283.9c-0.3,0-0.6-0.1-0.8-0.3c-0.2-0.2-0.3-0.5-0.3-0.8s0.1-0.5,0.3-0.8c0.2-0.2,0.5-0.3,0.8-0.3
				s0.6,0.1,0.8,0.3c0.2,0.2,0.3,0.5,0.3,0.8s-0.1,0.5-0.3,0.8C127.3,283.8,127,283.9,126.7,283.9z M125.8,294.6v-9.3h1.8v9.3H125.8
				z"/>
			<path class="st5" d="M131.9,289.1v5.5H130v-9.3h1.7v1.5h0.1c0.2-0.5,0.6-0.9,1-1.2s1-0.5,1.7-0.5c0.6,0,1.2,0.1,1.7,0.4
				s0.8,0.7,1.1,1.2c0.3,0.5,0.4,1.2,0.4,1.9v5.9H136v-5.7c0-0.7-0.2-1.2-0.5-1.6c-0.4-0.4-0.8-0.6-1.4-0.6c-0.4,0-0.8,0.1-1.1,0.3
				s-0.6,0.5-0.8,0.8C131.9,288.2,131.8,288.6,131.9,289.1L131.9,289.1z"/>
			<path class="st5" d="M158.6,289.3v-1.6h8.2v1.6H158.6z M161.9,292.5v-8.2h1.6v8.2H161.9z"/>
			<path class="st5" d="M174,294.6v-1.4l4.2-4.3c0.4-0.5,0.8-0.9,1.1-1.2s0.5-0.7,0.7-1c0.1-0.3,0.2-0.7,0.2-1
				c0-0.4-0.1-0.8-0.3-1.1c-0.2-0.3-0.5-0.5-0.8-0.7s-0.7-0.2-1.1-0.2c-0.4,0-0.8,0.1-1.2,0.3s-0.6,0.4-0.8,0.8s-0.3,0.7-0.3,1.2
				H174c0-0.8,0.2-1.4,0.5-2s0.8-1,1.4-1.3c0.6-0.3,1.3-0.5,2.1-0.5s1.5,0.1,2.1,0.5c0.6,0.3,1.1,0.7,1.4,1.3s0.5,1.1,0.5,1.8
				c0,0.5-0.1,0.9-0.3,1.4s-0.5,0.9-0.9,1.5s-1,1.2-1.8,2l-2.5,2.6v0.1h5.6v1.6L174,294.6L174,294.6z"/>
			<path class="st5" d="M193.5,285.3v1.5H184v-1.5H193.5z M187.2,285.3v9.3h-1.8v-9.3H187.2z M190.4,285.3h1.8v6.8
				c0,0.3,0.1,0.5,0.1,0.6s0.2,0.2,0.4,0.3c0.2,0,0.3,0.1,0.5,0.1c0.1,0,0.3,0,0.4,0c0.1,0,0.2,0,0.3-0.1v1.5
				c-0.1,0-0.3,0.1-0.6,0.1c-0.2,0-0.5,0.1-0.8,0.1c-0.6,0-1.2-0.2-1.6-0.6c-0.4-0.4-0.6-1-0.6-1.9L190.4,285.3L190.4,285.3z"/>
			<path class="st5" d="M195.8,294.6v-12.4h1.8v12.4H195.8z M197.5,291.5v-2.2h0.3l3.7-3.9h2.2l-4.2,4.5h-0.3L197.5,291.5
				L197.5,291.5z M201.7,294.6l-3.3-4.4l1.2-1.3l4.3,5.7H201.7L201.7,294.6z"/>
			<path class="st5" d="M207.6,292.9l-0.1,0.7c-0.1,0.5-0.2,1-0.3,1.5c-0.1,0.5-0.3,1-0.4,1.5c-0.1,0.5-0.3,0.8-0.4,1.1h-1.3
				c0.1-0.2,0.1-0.6,0.2-1c0.1-0.4,0.2-0.9,0.3-1.4c0.1-0.5,0.2-1.1,0.2-1.6l0.1-0.7L207.6,292.9L207.6,292.9z"/>
			<path class="st5" d="M214.5,294.6v-12.4h1.8v12.4H214.5z M216.2,291.5v-2.2h0.3l3.7-3.9h2.2l-4.2,4.5h-0.3L216.2,291.5
				L216.2,291.5z M220.4,294.6l-3.3-4.4l1.2-1.3l4.3,5.7H220.4L220.4,294.6z"/>
			<path class="st5" d="M237.3,294.6v-1.2l6.5-9.5h-6.6v-1.6h8.8v1.2l-6.5,9.5h6.6v1.6H237.3z"/>
		</g>
		<g>
			<path class="st5" d="M150.8,274.8v12.4H149v-10.5h-0.1l-3,1.9v-1.8l3.1-2L150.8,274.8L150.8,274.8z"/>
			<path class="st5" d="M144.4,301.7v-1.5l5.3-8.4h1.2v2.2h-0.8l-3.8,6v0.1h7.3v1.6L144.4,301.7L144.4,301.7z M150.2,304.1v-3.6
				l0-8.8h1.8v12.4H150.2z"/>
		</g>
		<rect x="143.9" y="288.7" class="st5" width="10" height="1.5"/>
	</g>
	<path class="st5" d="M7.4,304.1v-65.5h9v1.6H9v62.2h7.4v1.6L7.4,304.1L7.4,304.1z"/>
</g>
</svg>
