<?xml version="1.0" encoding="utf-8"?>
<!-- Generator: Adobe Illustrator 27.6.1, SVG Export Plug-In . SVG Version: 6.00 Build 0)  -->
<svg version="1.1" xmlns="http://www.w3.org/2000/svg" xmlns:xlink="http://www.w3.org/1999/xlink" x="0px" y="0px"
	 viewBox="0 0 250 299.7" style="enable-background:new 0 0 250 299.7;" xml:space="preserve">
<style type="text/css">
	.st0{display:none;}
	.st1{display:inline;fill:#191919;stroke:#000000;stroke-miterlimit:10;}
	.st2{fill:none;stroke:#FFFFFF;stroke-width:2;stroke-miterlimit:10;}
	.st3{fill-rule:evenodd;clip-rule:evenodd;fill:#FFFFFF;stroke:#FFFFFF;stroke-width:2;stroke-miterlimit:10;}
	.st4{fill:#D1AE59;stroke:#D1AE59;stroke-width:2;stroke-miterlimit:10;}
	.st5{fill:#D1AE59;}
	.st6{fill:#FFFFFF;}
</style>
<g id="Layer_3" class="st0">
	<rect x="-13.5" y="-16.5" class="st1" width="282" height="432"/>
</g>
<g id="Layer_2_00000181778422145561258250000011030805151402747559_">
	<line class="st2" x1="49.5" y1="147.1" x2="196.2" y2="147.1"/>
	<line class="st2" x1="125" y1="221.9" x2="125" y2="75.2"/>
	<polygon class="st3" points="125,71 122.6,75.2 127.4,75.2 	"/>
	<polygon class="st3" points="200.5,147.1 196.2,144.6 196.2,149.5 	"/>
	<path class="st4" d="M125.3,87.9c32.5,0,58.9,26.4,58.9,58.9s-26.4,58.9-58.9,58.9s-58.9-26.4-58.9-58.9S92.8,87.9,125.3,87.9
		 M125.3,86.7c-33.2,0-60.1,26.9-60.1,60.1s26.9,60.1,60.1,60.1s60.1-26.9,60.1-60.1S158.5,86.7,125.3,86.7L125.3,86.7z"/>
	<line class="st2" x1="54.4" y1="173.6" x2="196.2" y2="173.6"/>
	<circle class="st5" cx="72.5" cy="173.6" r="5.4"/>
	<circle class="st5" cx="178.1" cy="173.6" r="5.4"/>
	<g>
		<path class="st6" d="M94.7,13.6l-1.6,0.3c-0.1-0.2-0.2-0.4-0.3-0.6c-0.2-0.2-0.3-0.3-0.6-0.5c-0.2-0.1-0.6-0.2-0.9-0.2
			c-0.5,0-0.9,0.1-1.3,0.3s-0.5,0.5-0.5,0.9c0,0.3,0.1,0.6,0.3,0.8s0.6,0.3,1.1,0.5l1.5,0.3c0.8,0.2,1.5,0.5,1.9,0.9
			c0.4,0.4,0.6,0.9,0.6,1.6c0,0.6-0.2,1-0.5,1.5s-0.8,0.8-1.3,1s-1.2,0.4-2,0.4c-1,0-1.9-0.2-2.5-0.7c-0.7-0.5-1.1-1.1-1.2-1.9
			l1.7-0.3c0.1,0.5,0.3,0.8,0.7,1c0.3,0.2,0.8,0.4,1.3,0.4c0.6,0,1.1-0.1,1.4-0.4S93,18.4,93,18c0-0.3-0.1-0.5-0.3-0.7
			c-0.2-0.2-0.5-0.4-1-0.5l-1.6-0.3c-0.9-0.2-1.5-0.5-1.9-0.9c-0.4-0.4-0.6-1-0.6-1.6c0-0.6,0.2-1,0.5-1.4s0.7-0.7,1.3-1
			s1.2-0.4,1.8-0.4c1,0,1.8,0.2,2.4,0.6C94.1,12.3,94.5,12.8,94.7,13.6L94.7,13.6z"/>
		<path class="st6" d="M97.8,9.9c-0.3,0-0.6-0.1-0.8-0.3c-0.2-0.2-0.3-0.5-0.3-0.8S96.8,8.2,97,8s0.5-0.3,0.8-0.3s0.6,0.1,0.8,0.3
			c0.2,0.2,0.3,0.5,0.3,0.8s-0.1,0.6-0.3,0.8S98.1,9.9,97.8,9.9z M96.9,20.6v-9.3h1.8v9.3H96.9z"/>
		<path class="st6" d="M102.9,15.1v5.5h-1.8v-9.3h1.7v1.5h0.1c0.2-0.5,0.6-0.9,1-1.2c0.5-0.3,1-0.4,1.7-0.4c0.6,0,1.2,0.1,1.7,0.4
			c0.5,0.3,0.8,0.6,1.1,1.2s0.4,1.2,0.4,1.9v5.9H107v-5.7c0-0.7-0.2-1.2-0.5-1.6s-0.8-0.6-1.4-0.6c-0.4,0-0.8,0.1-1.1,0.3
			s-0.6,0.4-0.8,0.8C103,14.2,102.9,14.6,102.9,15.1L102.9,15.1z"/>
		<path class="st6" d="M114.7,20.8c-0.8,0-1.4-0.2-2-0.6s-1-1-1.4-1.7c-0.3-0.7-0.5-1.6-0.5-2.5s0.2-1.8,0.5-2.5
			c0.3-0.7,0.8-1.3,1.4-1.7s1.3-0.6,2-0.6c0.5,0,1,0.1,1.4,0.3c0.4,0.2,0.8,0.5,1.1,0.9c0.3,0.4,0.5,0.8,0.7,1.3h0.6l0.4,2.3
			l1.2,4.7h-1.5l-1.1-4.7c-0.1-0.3-0.2-0.6-0.3-1c-0.1-0.4-0.3-0.7-0.5-1.1s-0.4-0.6-0.8-0.8s-0.7-0.3-1.1-0.3
			c-0.5,0-0.9,0.1-1.2,0.4s-0.6,0.7-0.8,1.1c-0.2,0.5-0.3,1.1-0.3,1.7c0,0.6,0.1,1.2,0.3,1.7c0.2,0.5,0.4,0.9,0.8,1.2
			s0.7,0.4,1.2,0.4c0.4,0,0.8-0.1,1.1-0.3s0.6-0.5,0.8-0.8s0.4-0.7,0.5-1.1c0.1-0.4,0.2-0.7,0.3-1l1-4.7h1.5l-1.1,4.7l-0.4,2.4h-0.6
			c-0.2,0.5-0.4,0.9-0.8,1.3s-0.7,0.7-1.1,0.9S115.3,20.8,114.7,20.8L114.7,20.8z"/>
		<path class="st6" d="M127.3,14.6V13h7.7v1.6C135,14.6,127.3,14.6,127.3,14.6z M127.3,18.4v-1.6h7.7v1.6
			C135,18.4,127.3,18.4,127.3,18.4z"/>
		<path class="st6" d="M148,14.6v1.6h-5.5v-1.6C142.5,14.6,148,14.6,148,14.6z"/>
	</g>
	<g>
		<path class="st6" d="M159.6,1v12.4h-1.9V2.9h-0.1l-3,1.9V3l3.1-2L159.6,1L159.6,1z"/>
		<path class="st6" d="M153.7,30.4V29l4.2-4.3c0.4-0.5,0.8-0.9,1.1-1.2s0.5-0.7,0.7-1c0.1-0.3,0.2-0.7,0.2-1c0-0.4-0.1-0.8-0.3-1.1
			s-0.5-0.5-0.8-0.7s-0.7-0.2-1.1-0.2c-0.4,0-0.8,0.1-1.2,0.3s-0.6,0.4-0.8,0.8s-0.3,0.7-0.3,1.2h-1.8c0-0.8,0.2-1.4,0.5-2
			s0.8-1,1.4-1.3c0.6-0.3,1.3-0.5,2.1-0.5s1.5,0.1,2.1,0.5c0.6,0.3,1.1,0.7,1.4,1.3s0.5,1.1,0.5,1.8c0,0.5-0.1,0.9-0.3,1.4
			s-0.5,0.9-0.9,1.5c-0.4,0.5-1,1.2-1.8,2l-2.5,2.6v0.1h5.6v1.6L153.7,30.4L153.7,30.4z"/>
	</g>
	<rect x="152.7" y="14.8" class="st6" width="10" height="1.5"/>
	<g>
		<g>
			<g>
				<path class="st6" d="M56.9,255.4c-0.8,0-1.5-0.2-2-0.6c-0.6-0.4-1-1-1.4-1.7c-0.3-0.7-0.5-1.6-0.5-2.5s0.2-1.8,0.5-2.5
					s0.8-1.3,1.4-1.7c0.6-0.4,1.3-0.6,2-0.6c0.5,0,1,0.1,1.4,0.3c0.4,0.2,0.8,0.5,1,0.9s0.5,0.8,0.7,1.3h0.6l0.4,2.3l1.2,4.7h-1.6
					l-1.1-4.7c-0.1-0.3-0.2-0.6-0.3-1s-0.3-0.7-0.5-1s-0.5-0.6-0.8-0.8s-0.7-0.3-1.1-0.3c-0.5,0-0.9,0.1-1.2,0.4
					c-0.3,0.3-0.6,0.7-0.8,1.1c-0.2,0.5-0.3,1-0.3,1.7s0.1,1.2,0.3,1.7c0.2,0.5,0.5,0.9,0.8,1.2c0.3,0.3,0.7,0.4,1.2,0.4
					c0.4,0,0.8-0.1,1.1-0.3s0.6-0.5,0.8-0.8s0.4-0.7,0.5-1.1s0.2-0.7,0.3-1l1-4.7h1.5l-1.1,4.7l-0.4,2.4h-0.6
					c-0.2,0.5-0.4,0.9-0.8,1.3c-0.3,0.4-0.7,0.7-1.1,0.9S57.4,255.4,56.9,255.4L56.9,255.4z"/>
				<path class="st6" d="M69.5,249.3v-1.6h7.7v1.6H69.5z M69.5,253v-1.6h7.7v1.6H69.5z"/>
				<path class="st6" d="M90.2,249.2v1.6h-5.5v-1.6H90.2z"/>
				<path class="st6" d="M111,249.9v-1.6h8.2v1.6C119.1,249.9,110.9,249.9,111,249.9z M114.2,253.2V245h1.6v8.2H114.2z"/>
				<path class="st6" d="M126.4,255.3v-1.4l4.2-4.3c0.4-0.5,0.8-0.9,1.1-1.2s0.5-0.7,0.7-1c0.1-0.3,0.2-0.7,0.2-1
					c0-0.4-0.1-0.8-0.3-1.1s-0.5-0.5-0.8-0.7s-0.7-0.2-1.1-0.2c-0.4,0-0.8,0.1-1.2,0.3s-0.6,0.4-0.8,0.8s-0.3,0.7-0.3,1.2h-1.8
					c0-0.8,0.2-1.4,0.5-2s0.8-1,1.4-1.3c0.6-0.3,1.3-0.5,2.1-0.5s1.5,0.1,2.1,0.5c0.6,0.3,1.1,0.7,1.4,1.3s0.5,1.1,0.5,1.8
					c0,0.5-0.1,0.9-0.3,1.4c-0.2,0.4-0.5,0.9-0.9,1.5c-0.4,0.5-1,1.2-1.8,2l-2.5,2.6v0.1h5.6v1.6L126.4,255.3L126.4,255.3z"/>
				<path class="st6" d="M145.9,246v1.5h-9.5V246H145.9z M139.6,246v9.3h-1.8V246H139.6z M142.7,246h1.8v6.8c0,0.3,0.1,0.5,0.1,0.6
					s0.2,0.2,0.4,0.3c0.1,0,0.3,0.1,0.5,0.1c0.1,0,0.3,0,0.4,0c0.1,0,0.2,0,0.3-0.1v1.5c-0.1,0-0.3,0.1-0.6,0.1
					c-0.2,0-0.5,0.1-0.8,0.1c-0.6,0-1.2-0.2-1.6-0.6c-0.4-0.4-0.6-1-0.6-1.9V246z"/>
				<path class="st6" d="M148.2,255.3v-12.4h1.8v12.4H148.2z M149.9,252.1v-2.2h0.3l3.7-3.9h2.2l-4.2,4.5h-0.3L149.9,252.1
					L149.9,252.1z M154.1,255.3l-3.3-4.4l1.2-1.3l4.3,5.7H154.1L154.1,255.3z"/>
				<path class="st6" d="M160,253.6l-0.1,0.7c-0.1,0.5-0.2,1-0.3,1.5c-0.1,0.5-0.3,1-0.4,1.5c-0.1,0.5-0.3,0.8-0.4,1.1h-1.3
					c0.1-0.2,0.1-0.6,0.2-1c0.1-0.4,0.2-0.9,0.3-1.4c0.1-0.5,0.2-1.1,0.2-1.6l0.1-0.7L160,253.6L160,253.6z"/>
				<path class="st6" d="M166.9,255.3v-12.4h1.8v12.4H166.9z M168.5,252.1v-2.2h0.3l3.7-3.9h2.2l-4.2,4.5h-0.3L168.5,252.1
					L168.5,252.1z M172.7,255.3l-3.3-4.4l1.2-1.3l4.3,5.7H172.7L172.7,255.3z"/>
				<path class="st6" d="M189.7,255.3V254l6.5-9.5h-6.6v-1.6h8.8v1.2l-6.5,9.5h6.6v1.6H189.7z"/>
			</g>
			<path class="st6" d="M186.1,249.6v1.1h-6.9c0,0.5,0.1,1,0.2,1.4s0.3,0.7,0.6,1s0.6,0.5,1,0.6s0.9,0.2,1.6,0.2h3.5v1.1h-3.5
				c-0.5,0-1,0-1.4-0.1s-0.8-0.2-1.1-0.3s-0.6-0.4-0.9-0.7s-0.5-0.6-0.7-1c-0.2-0.4-0.3-0.8-0.4-1.2s-0.1-1-0.1-1.5
				c0-0.9,0.1-1.6,0.3-2.2s0.5-1.1,0.9-1.5s0.9-0.8,1.4-1c0.6-0.2,1.3-0.3,2.2-0.3h3.4v1.1h-3.4c-0.6,0-1,0-1.3,0.1
				s-0.6,0.2-0.9,0.3s-0.4,0.3-0.6,0.6s-0.3,0.6-0.4,0.9s-0.2,0.8-0.2,1.2L186.1,249.6L186.1,249.6z"/>
			<g>
				<path class="st6" d="M104.5,238.5v1.5H95v-1.5H104.5z M98.2,238.5v9.3h-1.8v-9.3H98.2z M101.3,238.5h1.8v6.8
					c0,0.3,0.1,0.5,0.1,0.6s0.2,0.2,0.4,0.3c0.2,0,0.3,0.1,0.5,0.1c0.1,0,0.3,0,0.4,0c0.1,0,0.2,0,0.3-0.1v1.5
					c-0.2,0-0.3,0.1-0.6,0.1c-0.2,0-0.5,0.1-0.8,0.1c-0.7,0-1.2-0.2-1.6-0.6c-0.4-0.4-0.6-1-0.6-1.9V238.5z"/>
				<path class="st6" d="M100,264.9c-0.6,0-1.1-0.1-1.6-0.3c-0.5-0.2-1-0.5-1.4-1c-0.4-0.5-0.8-1.1-1-1.8s-0.4-1.7-0.4-2.9
					c0-1.1,0.1-2,0.3-2.9c0.2-0.8,0.5-1.5,0.9-2.1c0.4-0.6,0.9-1,1.5-1.3c0.6-0.3,1.2-0.5,1.9-0.5s1.4,0.1,2,0.4
					c0.6,0.3,1,0.7,1.4,1.2c0.4,0.5,0.6,1.1,0.7,1.7h-1.8c-0.1-0.5-0.4-0.9-0.7-1.3c-0.4-0.3-0.8-0.5-1.4-0.5
					c-0.9,0-1.6,0.4-2.1,1.2c-0.5,0.8-0.8,1.9-0.8,3.3h0.1c0.2-0.4,0.5-0.6,0.8-0.9s0.7-0.4,1.1-0.6s0.8-0.2,1.2-0.2
					c0.7,0,1.4,0.2,1.9,0.5c0.6,0.4,1,0.8,1.4,1.4c0.3,0.6,0.5,1.3,0.5,2.1s-0.2,1.5-0.5,2.1c-0.4,0.6-0.9,1.1-1.5,1.5
					S100.8,264.9,100,264.9L100,264.9z M100,263.4c0.5,0,0.9-0.1,1.3-0.4c0.4-0.2,0.7-0.5,0.9-0.9s0.3-0.8,0.3-1.3s-0.1-0.9-0.3-1.3
					c-0.2-0.4-0.5-0.7-0.9-0.9c-0.4-0.2-0.8-0.3-1.3-0.3c-0.4,0-0.7,0.1-1,0.2c-0.3,0.1-0.6,0.3-0.8,0.6c-0.2,0.2-0.4,0.5-0.5,0.8
					s-0.2,0.6-0.2,1c0,0.5,0.1,0.9,0.3,1.3c0.2,0.4,0.5,0.7,0.9,1C99.1,263.3,99.5,263.4,100,263.4L100,263.4z"/>
			</g>
			<rect x="94.8" y="249.3" class="st6" width="10" height="1.5"/>
		</g>
		<g>
			<g>
				<path class="st6" d="M56.9,289.4c-0.8,0-1.5-0.2-2-0.6c-0.6-0.4-1-1-1.4-1.7c-0.3-0.7-0.5-1.6-0.5-2.5s0.2-1.8,0.5-2.5
					s0.8-1.3,1.4-1.7c0.6-0.4,1.3-0.6,2-0.6c0.5,0,1,0.1,1.4,0.3c0.4,0.2,0.8,0.5,1,0.9c0.3,0.4,0.5,0.8,0.7,1.3h0.6l0.4,2.3
					l1.2,4.7h-1.5l-1.1-4.7c-0.1-0.3-0.2-0.6-0.3-1s-0.3-0.7-0.5-1s-0.5-0.6-0.8-0.8s-0.7-0.3-1.1-0.3c-0.5,0-0.9,0.1-1.2,0.4
					c-0.3,0.3-0.6,0.7-0.8,1.1c-0.2,0.5-0.3,1-0.3,1.7s0.1,1.2,0.3,1.7c0.2,0.5,0.5,0.9,0.8,1.2c0.3,0.3,0.7,0.4,1.2,0.4
					c0.4,0,0.8-0.1,1.1-0.3s0.6-0.5,0.8-0.8s0.4-0.7,0.5-1.1s0.2-0.7,0.3-1l1-4.7h1.5l-1.1,4.7l-0.4,2.4h-0.6
					c-0.2,0.5-0.4,0.9-0.8,1.3c-0.3,0.4-0.7,0.7-1.1,0.9S57.5,289.4,56.9,289.4L56.9,289.4z"/>
				<path class="st6" d="M69.5,283.3v-1.6h7.7v1.6H69.5z M69.5,287v-1.6h7.7v1.6H69.5z"/>
				<path class="st6" d="M90.2,283.2v1.6h-5.5v-1.6H90.2z"/>
				<path class="st6" d="M120,283.9v-1.6h8.2v1.6C128.1,283.9,119.9,283.9,120,283.9z M123.2,287.2V279h1.6v8.2
					C124.8,287.2,123.2,287.2,123.2,287.2z"/>
				<path class="st6" d="M135.4,289.3v-1.4l4.2-4.3c0.4-0.5,0.8-0.9,1.1-1.2s0.5-0.7,0.7-1c0.1-0.3,0.2-0.7,0.2-1
					c0-0.4-0.1-0.8-0.3-1.1c-0.2-0.3-0.5-0.5-0.8-0.7s-0.7-0.2-1.1-0.2c-0.4,0-0.8,0.1-1.2,0.3s-0.6,0.4-0.8,0.8s-0.3,0.7-0.3,1.2
					h-1.8c0-0.8,0.2-1.4,0.5-2s0.8-1,1.4-1.3c0.6-0.3,1.3-0.5,2.1-0.5s1.5,0.1,2.1,0.5c0.6,0.3,1.1,0.7,1.4,1.3s0.5,1.1,0.5,1.8
					c0,0.5-0.1,0.9-0.3,1.4s-0.5,0.9-0.9,1.5s-1,1.2-1.8,2l-2.5,2.6v0.1h5.6v1.6L135.4,289.3L135.4,289.3z"/>
				<path class="st6" d="M154.9,280v1.5h-9.5V280H154.9z M148.6,280v9.3h-1.8V280H148.6z M151.7,280h1.8v6.8c0,0.3,0.1,0.5,0.1,0.6
					s0.2,0.2,0.4,0.3c0.2,0,0.3,0.1,0.5,0.1c0.1,0,0.3,0,0.4,0c0.1,0,0.2,0,0.3-0.1v1.5c-0.1,0-0.3,0.1-0.6,0.1
					c-0.2,0-0.5,0.1-0.8,0.1c-0.6,0-1.2-0.2-1.6-0.6c-0.4-0.4-0.6-1-0.6-1.9L151.7,280L151.7,280z"/>
				<path class="st6" d="M157.2,289.3v-12.4h1.8v12.4H157.2z M158.9,286.1v-2.2h0.3l3.7-3.9h2.2l-4.2,4.5h-0.3L158.9,286.1
					L158.9,286.1z M163.1,289.3l-3.3-4.4l1.2-1.3l4.3,5.7H163.1L163.1,289.3z"/>
				<path class="st6" d="M169,287.6l-0.1,0.7c-0.1,0.5-0.2,1-0.3,1.5c-0.1,0.5-0.3,1-0.4,1.5c-0.1,0.5-0.3,0.8-0.4,1.1h-1.3
					c0.1-0.2,0.1-0.6,0.2-1c0.1-0.4,0.2-0.9,0.3-1.4c0.1-0.5,0.1-1.1,0.2-1.6l0.1-0.7L169,287.6L169,287.6z"/>
				<path class="st6" d="M175.9,289.3v-12.4h1.8v12.4H175.9z M177.5,286.1v-2.2h0.3l3.7-3.9h2.2l-4.2,4.5h-0.3L177.5,286.1
					L177.5,286.1z M181.7,289.3l-3.3-4.4l1.2-1.3l4.3,5.7H181.7L181.7,289.3z"/>
				<path class="st6" d="M198.7,289.3V288l6.5-9.5h-6.6v-1.6h8.8v1.2l-6.5,9.5h6.6v1.6H198.7z"/>
			</g>
			<path class="st6" d="M194.6,283.6v1.1h-6.9c0,0.5,0.1,1,0.2,1.4s0.3,0.7,0.6,1s0.6,0.5,1,0.6c0.4,0.1,0.9,0.2,1.6,0.2h3.5v1.1
				H191c-0.5,0-1,0-1.4-0.1s-0.8-0.2-1.1-0.3s-0.6-0.4-0.9-0.7s-0.5-0.6-0.7-1s-0.3-0.8-0.4-1.2s-0.1-1-0.1-1.5
				c0-0.9,0.1-1.6,0.3-2.2s0.5-1.1,0.9-1.5s0.9-0.8,1.4-1c0.6-0.2,1.3-0.3,2.2-0.3h3.4v1.1h-3.4c-0.6,0-1,0-1.3,0.1
				s-0.6,0.2-0.9,0.3c-0.2,0.1-0.4,0.3-0.6,0.6s-0.3,0.6-0.4,0.9s-0.2,0.8-0.2,1.2L194.6,283.6L194.6,283.6z"/>
			<g>
				<path class="st6" d="M99.7,281.9c-0.8,0-1.4-0.1-2-0.4s-1.1-0.7-1.4-1.2s-0.6-1.1-0.6-1.8h1.8c0,0.5,0.3,1,0.7,1.3
					s0.9,0.5,1.5,0.5c0.5,0,0.9-0.1,1.3-0.3s0.7-0.5,0.9-0.9s0.3-0.8,0.3-1.3s-0.1-1-0.3-1.4c-0.2-0.4-0.5-0.7-0.9-0.9
					c-0.4-0.2-0.8-0.3-1.3-0.3c-0.4,0-0.8,0.1-1.1,0.2s-0.7,0.3-0.9,0.5l-1.7-0.2l0.7-6.2h6.8v1.6h-5.2l-0.4,3.5h0.1
					c0.2-0.2,0.6-0.4,1-0.6s0.8-0.2,1.3-0.2c0.8,0,1.4,0.2,2,0.5c0.6,0.4,1.1,0.9,1.4,1.5c0.3,0.6,0.5,1.3,0.5,2.1
					c0,0.8-0.2,1.5-0.5,2.1s-0.9,1.1-1.5,1.5S100.5,281.9,99.7,281.9L99.7,281.9z"/>
				<path class="st6" d="M115.2,272.5v1.5h-9.5v-1.5H115.2z M108.9,272.5v9.3h-1.8v-9.3H108.9z M112.1,272.5h1.8v6.8
					c0,0.3,0.1,0.5,0.1,0.6s0.2,0.2,0.4,0.3c0.2,0,0.3,0.1,0.5,0.1c0.1,0,0.3,0,0.4,0c0.1,0,0.2,0,0.3-0.1v1.5
					c-0.2,0-0.3,0.1-0.6,0.1c-0.2,0-0.5,0.1-0.8,0.1c-0.7,0-1.2-0.2-1.6-0.6c-0.4-0.4-0.6-1-0.6-1.9L112.1,272.5L112.1,272.5z"/>
				<path class="st6" d="M105.5,298.9c-0.6,0-1.1-0.1-1.6-0.3s-1-0.5-1.4-1c-0.4-0.5-0.8-1.1-1-1.8s-0.4-1.7-0.4-2.9
					c0-1.1,0.1-2,0.3-2.9s0.5-1.5,0.9-2.1s0.9-1,1.5-1.3c0.6-0.3,1.2-0.5,1.9-0.5s1.4,0.1,2,0.4c0.6,0.3,1,0.7,1.4,1.2
					c0.4,0.5,0.6,1.1,0.7,1.7h-1.8c-0.1-0.5-0.4-0.9-0.7-1.3c-0.4-0.3-0.8-0.5-1.4-0.5c-0.9,0-1.6,0.4-2.1,1.2
					c-0.5,0.8-0.8,1.9-0.8,3.3h0.1c0.2-0.4,0.5-0.6,0.8-0.9s0.7-0.4,1.1-0.6s0.8-0.2,1.2-0.2c0.7,0,1.4,0.2,1.9,0.5
					c0.6,0.4,1.1,0.8,1.4,1.4c0.3,0.6,0.5,1.3,0.5,2.1s-0.2,1.5-0.5,2.1s-0.9,1.1-1.5,1.5S106.3,298.9,105.5,298.9L105.5,298.9z
					 M105.5,297.4c0.5,0,0.9-0.1,1.3-0.4c0.4-0.2,0.7-0.5,0.9-0.9s0.3-0.8,0.3-1.3s-0.1-0.9-0.3-1.3c-0.2-0.4-0.5-0.7-0.9-0.9
					c-0.4-0.2-0.8-0.3-1.3-0.3c-0.4,0-0.7,0.1-1,0.2c-0.3,0.1-0.6,0.3-0.8,0.6c-0.2,0.2-0.4,0.5-0.5,0.8s-0.2,0.6-0.2,1
					c0,0.5,0.1,0.9,0.3,1.3c0.2,0.4,0.5,0.7,0.9,1C104.6,297.3,105,297.4,105.5,297.4L105.5,297.4z"/>
			</g>
			<rect x="94.3" y="283.3" class="st6" width="22" height="1.5"/>
		</g>
		<path class="st6" d="M42.5,299.7v-65.5h9v1.6h-7.4v62.2h7.4v1.6L42.5,299.7L42.5,299.7z"/>
	</g>
	<g>
		<g>
			<path class="st6" d="M117.6,35v12.4h-1.9V36.9h-0.1l-3,1.9V37l3.1-2L117.6,35L117.6,35z"/>
			<path class="st6" d="M111.7,64.4V63l4.2-4.3c0.4-0.5,0.8-0.9,1.1-1.2s0.5-0.7,0.7-1c0.1-0.3,0.2-0.7,0.2-1c0-0.4-0.1-0.8-0.3-1.1
				s-0.5-0.5-0.8-0.7s-0.7-0.2-1.1-0.2c-0.4,0-0.8,0.1-1.2,0.3s-0.6,0.4-0.8,0.8s-0.3,0.7-0.3,1.2h-1.8c0-0.8,0.2-1.4,0.5-2
				s0.8-1,1.4-1.3s1.3-0.5,2.1-0.5s1.5,0.2,2.1,0.5c0.6,0.3,1.1,0.7,1.4,1.3s0.5,1.1,0.5,1.8c0,0.5-0.1,0.9-0.3,1.3
				s-0.5,0.9-0.9,1.5c-0.4,0.5-1,1.2-1.8,2l-2.5,2.6v0.1h5.6v1.6C119.8,64.4,111.7,64.4,111.7,64.4z"/>
		</g>
		<rect x="110.7" y="48.8" class="st6" width="10" height="1.5"/>
		<g>
			<path class="st6" d="M107,48.8v1.6h-5.5v-1.6H107z"/>
			<path class="st6" d="M124.5,49.4v-1.3l8-3.9V46l-5.9,2.7l0.1-0.1v0.3l-0.1-0.1l5.9,2.7v1.8L124.5,49.4z"/>
			<path class="st6" d="M144.2,55c-0.9,0-1.8-0.2-2.4-0.8s-1.2-1.2-1.6-2.2c-0.4-1-0.5-2.1-0.5-3.5s0.2-2.5,0.5-3.4
				c0.4-1,0.9-1.7,1.6-2.2s1.5-0.8,2.4-0.8s1.8,0.2,2.4,0.8c0.7,0.5,1.2,1.2,1.6,2.2c0.4,1,0.5,2.1,0.5,3.4s-0.2,2.5-0.5,3.5
				s-0.9,1.7-1.6,2.2C145.9,54.7,145.1,55,144.2,55L144.2,55z M144.2,53.3c0.8,0,1.5-0.4,2-1.2s0.7-2,0.7-3.5c0-1-0.1-1.9-0.3-2.6
				s-0.5-1.2-0.9-1.6s-0.9-0.5-1.4-0.5c-0.8,0-1.5,0.4-2,1.2s-0.7,2-0.7,3.5c0,1,0.1,1.9,0.3,2.6s0.5,1.2,0.9,1.6
				S143.6,53.4,144.2,53.3L144.2,53.3z"/>
		</g>
	</g>
</g>
</svg>
