<?xml version="1.0" encoding="utf-8"?>
<!-- Generator: Adobe Illustrator 27.6.1, SVG Export Plug-In . SVG Version: 6.00 Build 0)  -->
<svg version="1.1" xmlns="http://www.w3.org/2000/svg" xmlns:xlink="http://www.w3.org/1999/xlink" x="0px" y="0px"
	 viewBox="0 0 250 299.7" style="enable-background:new 0 0 250 299.7;" xml:space="preserve">
<style type="text/css">
	.st0{display:none;fill:#191919;stroke:#000000;stroke-miterlimit:10;}
	.st1{fill:none;stroke:#FFFFFF;stroke-width:2;stroke-miterlimit:10;}
	.st2{fill-rule:evenodd;clip-rule:evenodd;fill:#FFFFFF;stroke:#FFFFFF;stroke-width:2;stroke-miterlimit:10;}
	.st3{fill:#D1AE59;stroke:#D1AE59;stroke-width:2;stroke-miterlimit:10;}
	.st4{fill:#D1AE59;}
	.st5{fill:#FFFFFF;}
</style>
<g id="Layer_3">
</g>
<g id="Layer_2_00000009579867817369780440000011745934628853236912_">
	<rect x="-13.5" y="-16.5" class="st0" width="282" height="432"/>
	<line class="st1" x1="49.8" y1="146.8" x2="196" y2="146.8"/>
	<line class="st1" x1="125" y1="221.4" x2="125" y2="75.2"/>
	<polygon class="st2" points="125,71 122.6,75.2 127.4,75.2 	"/>
	<polygon class="st2" points="200.2,146.8 196,144.4 196,149.2 	"/>
	<path class="st3" d="M125.3,87.8c32.3,0,58.7,26.3,58.7,58.7s-26.3,58.7-58.7,58.7s-58.7-26.3-58.7-58.7S93,87.8,125.3,87.8
		 M125.3,86.6c-33.1,0-59.9,26.8-59.9,59.9s26.8,59.9,59.9,59.9s59.9-26.8,59.9-59.9S158.4,86.6,125.3,86.6L125.3,86.6z"/>
	<line class="st1" x1="54.6" y1="123.3" x2="196" y2="123.3"/>
	<circle class="st4" cx="70.9" cy="123.3" r="5.4"/>
	<circle class="st4" cx="179.7" cy="123.3" r="5.4"/>
	<g>
		<path class="st5" d="M101.9,13.6l-1.6,0.3c-0.1-0.2-0.2-0.4-0.3-0.6c-0.2-0.2-0.3-0.3-0.6-0.5s-0.6-0.2-0.9-0.2
			c-0.5,0-0.9,0.1-1.3,0.3c-0.3,0.2-0.5,0.5-0.5,0.9c0,0.3,0.1,0.6,0.3,0.8s0.6,0.3,1.1,0.5l1.5,0.3c0.8,0.2,1.5,0.5,1.9,0.9
			c0.4,0.4,0.6,0.9,0.6,1.6c0,0.6-0.2,1-0.5,1.5s-0.8,0.8-1.3,1s-1.2,0.4-2,0.4c-1,0-1.9-0.2-2.5-0.7c-0.7-0.5-1.1-1.1-1.2-1.9
			l1.8-0.3c0.1,0.5,0.3,0.8,0.7,1s0.8,0.4,1.3,0.4c0.6,0,1.1-0.1,1.4-0.4c0.3-0.2,0.5-0.5,0.5-0.9c0-0.3-0.1-0.5-0.3-0.7
			c-0.2-0.2-0.5-0.4-1-0.5l-1.6-0.3c-0.9-0.2-1.5-0.5-1.9-0.9c-0.4-0.4-0.6-1-0.6-1.6c0-0.6,0.2-1,0.5-1.4c0.3-0.4,0.7-0.7,1.3-1
			c0.5-0.2,1.2-0.4,1.8-0.4c1,0,1.8,0.2,2.4,0.6C101.3,12.3,101.7,12.8,101.9,13.6L101.9,13.6z"/>
		<path class="st5" d="M105,9.9c-0.3,0-0.6-0.1-0.8-0.3c-0.2-0.2-0.3-0.5-0.3-0.8s0.1-0.6,0.3-0.8s0.5-0.3,0.8-0.3s0.6,0.1,0.8,0.3
			c0.2,0.2,0.3,0.5,0.3,0.8s-0.1,0.6-0.3,0.8S105.3,9.9,105,9.9z M104,20.6v-9.3h1.8v9.3H104z"/>
		<path class="st5" d="M110.1,15.1v5.5h-1.8v-9.3h1.7v1.5h0.1c0.2-0.5,0.6-0.9,1-1.2s1-0.4,1.7-0.4c0.6,0,1.2,0.1,1.7,0.4
			c0.5,0.3,0.8,0.6,1.1,1.2c0.3,0.5,0.4,1.2,0.4,1.9v5.9h-1.8v-5.7c0-0.7-0.2-1.2-0.5-1.6c-0.3-0.4-0.8-0.6-1.4-0.6
			c-0.4,0-0.8,0.1-1.1,0.3s-0.6,0.4-0.8,0.8S110.1,14.6,110.1,15.1L110.1,15.1z"/>
		<path class="st5" d="M121.9,20.8c-0.8,0-1.4-0.2-2-0.6s-1-1-1.4-1.7c-0.3-0.7-0.5-1.6-0.5-2.5s0.2-1.8,0.5-2.5
			c0.3-0.7,0.8-1.3,1.4-1.7s1.3-0.6,2-0.6c0.5,0,1,0.1,1.4,0.3c0.4,0.2,0.8,0.5,1.1,0.9c0.3,0.4,0.5,0.8,0.7,1.3h0.6l0.4,2.3
			l1.2,4.7h-1.5l-1.1-4.7c-0.1-0.3-0.2-0.6-0.3-1c-0.1-0.4-0.3-0.7-0.5-1.1s-0.4-0.6-0.8-0.8s-0.7-0.3-1.1-0.3
			c-0.5,0-0.9,0.1-1.2,0.4s-0.6,0.7-0.8,1.1c-0.2,0.5-0.3,1.1-0.3,1.7c0,0.6,0.1,1.2,0.3,1.7c0.2,0.5,0.4,0.9,0.8,1.2
			s0.7,0.4,1.2,0.4c0.4,0,0.8-0.1,1.1-0.3s0.6-0.5,0.8-0.8s0.4-0.7,0.5-1.1c0.1-0.4,0.2-0.7,0.3-1l1-4.7h1.5l-1.1,4.7l-0.4,2.4h-0.6
			c-0.2,0.5-0.4,0.9-0.8,1.3s-0.7,0.7-1.1,0.9S122.5,20.8,121.9,20.8L121.9,20.8z"/>
		<path class="st5" d="M134.5,14.6V13h7.7v1.6H134.5z M134.5,18.4v-1.6h7.7v1.6H134.5z"/>
	</g>
	<g>
		<path class="st5" d="M154.6,1v12.4h-1.9V2.9h-0.1l-3,1.9V3l3.1-2L154.6,1L154.6,1z"/>
		<path class="st5" d="M148.7,30.4V29l4.2-4.3c0.4-0.5,0.8-0.9,1.1-1.2s0.5-0.7,0.7-1c0.1-0.3,0.2-0.7,0.2-1c0-0.4-0.1-0.8-0.3-1.1
			s-0.5-0.5-0.8-0.7s-0.7-0.2-1.1-0.2c-0.4,0-0.8,0.1-1.2,0.3s-0.6,0.4-0.8,0.8s-0.3,0.7-0.3,1.2h-1.8c0-0.8,0.2-1.4,0.5-2
			s0.8-1,1.4-1.3c0.6-0.3,1.3-0.5,2.1-0.5s1.5,0.1,2.1,0.5c0.6,0.3,1.1,0.7,1.4,1.3s0.5,1.1,0.5,1.8c0,0.5-0.1,0.9-0.3,1.4
			s-0.5,0.9-0.9,1.5c-0.4,0.5-1,1.2-1.8,2l-2.5,2.6v0.1h5.6v1.6L148.7,30.4L148.7,30.4z"/>
	</g>
	<rect x="147.7" y="14.8" class="st5" width="10" height="1.5"/>
	<g>
		<g>
			<path class="st5" d="M108.6,33v12.4h-1.9V34.9h-0.1l-3,1.9V35l3.1-2L108.6,33L108.6,33z"/>
			<path class="st5" d="M102.8,62.4V61l4.2-4.3c0.4-0.5,0.8-0.9,1.1-1.2s0.5-0.7,0.7-1c0.1-0.3,0.2-0.7,0.2-1c0-0.4-0.1-0.8-0.3-1.1
				s-0.5-0.5-0.8-0.7s-0.7-0.2-1.1-0.2c-0.4,0-0.8,0.1-1.2,0.3s-0.6,0.4-0.8,0.8s-0.3,0.7-0.3,1.2h-1.8c0-0.8,0.2-1.4,0.5-2
				s0.8-1,1.4-1.3s1.3-0.5,2.1-0.5s1.5,0.2,2.1,0.5c0.6,0.3,1.1,0.7,1.4,1.3s0.5,1.1,0.5,1.8c0,0.5-0.1,0.9-0.3,1.3
				s-0.5,0.9-0.9,1.5c-0.4,0.5-1,1.2-1.8,2l-2.5,2.6v0.1h5.6v1.6C110.9,62.4,102.7,62.4,102.8,62.4z"/>
		</g>
		<rect x="101.8" y="46.8" class="st5" width="10" height="1.5"/>
		<g>
			<path class="st5" d="M129.5,48.8l-8,3.9v-1.8l5.9-2.7l-0.1,0.1v-0.3l0.1,0.1l-5.9-2.7v-1.8l8,3.9V48.8z"/>
			<path class="st5" d="M143.3,53.2c-0.9,0-1.8-0.2-2.4-0.8c-0.7-0.5-1.2-1.2-1.6-2.2s-0.5-2.1-0.5-3.5s0.2-2.5,0.5-3.4
				c0.4-1,0.9-1.7,1.6-2.2s1.5-0.8,2.4-0.8s1.8,0.2,2.4,0.8c0.7,0.5,1.2,1.2,1.6,2.2c0.4,1,0.5,2.1,0.5,3.4s-0.2,2.5-0.5,3.5
				s-0.9,1.7-1.6,2.2C145,52.9,144.2,53.1,143.3,53.2L143.3,53.2z M143.3,51.5c0.8,0,1.5-0.4,2-1.2c0.5-0.8,0.7-2,0.7-3.5
				c0-1-0.1-1.9-0.3-2.6s-0.5-1.2-0.9-1.6s-0.9-0.5-1.4-0.5c-0.8,0-1.5,0.4-2,1.2s-0.7,2-0.7,3.5c0,1,0.1,1.9,0.3,2.6
				c0.2,0.7,0.5,1.2,0.9,1.6S142.7,51.5,143.3,51.5L143.3,51.5z"/>
		</g>
	</g>
	<g>
		<g>
			<g>
				<path class="st5" d="M63.3,255.4c-0.8,0-1.5-0.2-2-0.6c-0.6-0.4-1-1-1.4-1.7c-0.3-0.7-0.5-1.6-0.5-2.5s0.2-1.8,0.5-2.5
					s0.8-1.3,1.4-1.7c0.6-0.4,1.3-0.6,2-0.6c0.5,0,1,0.1,1.4,0.3c0.4,0.2,0.8,0.5,1.1,0.9c0.3,0.4,0.5,0.8,0.7,1.3h0.6l0.4,2.3
					l1.2,4.7h-1.6l-1.1-4.7c-0.1-0.3-0.1-0.6-0.3-1s-0.3-0.7-0.5-1c-0.2-0.3-0.4-0.6-0.8-0.8c-0.3-0.2-0.7-0.3-1.1-0.3
					c-0.5,0-0.9,0.1-1.2,0.4c-0.3,0.3-0.6,0.7-0.8,1.1c-0.2,0.5-0.3,1-0.3,1.7s0.1,1.2,0.3,1.7c0.2,0.5,0.5,0.9,0.8,1.2
					c0.3,0.3,0.7,0.4,1.2,0.4c0.4,0,0.8-0.1,1.1-0.3c0.3-0.2,0.6-0.5,0.8-0.8c0.2-0.3,0.4-0.7,0.5-1.1s0.2-0.7,0.3-1l1-4.7h1.5
					l-1.1,4.7l-0.4,2.4h-0.6c-0.2,0.5-0.4,0.9-0.8,1.3c-0.3,0.4-0.7,0.7-1.1,0.9S63.9,255.4,63.3,255.4L63.3,255.4z"/>
				<path class="st5" d="M75.9,249.3v-1.6h7.7v1.6H75.9z M75.9,253v-1.6h7.7v1.6H75.9z"/>
				<path class="st5" d="M105,249.9v-1.6h8.2v1.6C113.2,249.9,105,249.9,105,249.9z M108.3,253.1V245h1.6v8.2H108.3z"/>
				<path class="st5" d="M120.4,255.2v-1.4l4.2-4.3c0.4-0.5,0.8-0.9,1.1-1.2s0.5-0.7,0.7-1c0.1-0.3,0.2-0.7,0.2-1
					c0-0.4-0.1-0.8-0.3-1.1c-0.2-0.3-0.5-0.5-0.8-0.7s-0.7-0.2-1.1-0.2c-0.4,0-0.8,0.1-1.2,0.3s-0.6,0.4-0.8,0.8s-0.3,0.7-0.3,1.2
					h-1.8c0-0.8,0.2-1.4,0.5-2s0.8-1,1.4-1.3s1.3-0.5,2.1-0.5s1.5,0.1,2.1,0.5c0.6,0.3,1.1,0.7,1.4,1.3c0.3,0.5,0.5,1.1,0.5,1.8
					c0,0.5-0.1,0.9-0.3,1.4c-0.2,0.4-0.5,0.9-0.9,1.5s-1,1.2-1.8,2l-2.5,2.6v0.1h5.6v1.6L120.4,255.2L120.4,255.2z"/>
				<path class="st5" d="M139.9,245.9v1.5h-9.5v-1.5H139.9z M133.6,245.9v9.3h-1.8v-9.3H133.6z M136.8,245.9h1.8v6.8
					c0,0.3,0.1,0.5,0.1,0.6s0.2,0.2,0.4,0.3c0.2,0,0.3,0.1,0.5,0.1c0.1,0,0.3,0,0.4,0c0.1,0,0.2,0,0.3-0.1v1.5
					c-0.1,0-0.3,0.1-0.6,0.1c-0.2,0-0.5,0.1-0.8,0.1c-0.6,0-1.2-0.2-1.6-0.6c-0.4-0.4-0.6-1-0.6-1.9L136.8,245.9L136.8,245.9z"/>
				<path class="st5" d="M142.3,255.2v-12.4h1.8v12.4H142.3z M143.9,252.1v-2.2h0.3l3.7-3.9h2.2l-4.2,4.5h-0.3L143.9,252.1
					L143.9,252.1z M148.1,255.2l-3.3-4.4l1.2-1.3l4.3,5.7H148.1L148.1,255.2z"/>
				<path class="st5" d="M154.1,253.5l-0.1,0.7c-0.1,0.5-0.2,1-0.3,1.5c-0.1,0.5-0.3,1-0.4,1.5c-0.1,0.5-0.3,0.8-0.4,1.1h-1.3
					c0.1-0.2,0.1-0.6,0.2-1c0.1-0.4,0.2-0.9,0.3-1.4c0.1-0.5,0.1-1.1,0.2-1.6l0.1-0.7L154.1,253.5L154.1,253.5z"/>
				<path class="st5" d="M160.9,255.2v-12.4h1.8v12.4H160.9z M162.6,252.1v-2.2h0.3l3.7-3.9h2.2l-4.2,4.5h-0.3L162.6,252.1
					L162.6,252.1z M166.8,255.2l-3.3-4.4l1.2-1.3l4.3,5.7H166.8L166.8,255.2z"/>
				<path class="st5" d="M183.7,255.2V254l6.5-9.5h-6.6v-1.6h8.8v1.2l-6.5,9.5h6.6v1.6H183.7z"/>
			</g>
			<path class="st5" d="M180.3,249.6v1.1h-6.9c0,0.5,0.1,1,0.2,1.4s0.3,0.7,0.6,1s0.6,0.5,1,0.6s0.9,0.2,1.6,0.2h3.5v1.1h-3.5
				c-0.5,0-1,0-1.4-0.1s-0.8-0.2-1.1-0.3s-0.6-0.4-0.9-0.7s-0.5-0.6-0.7-1c-0.2-0.4-0.3-0.8-0.4-1.2s-0.1-1-0.1-1.5
				c0-0.9,0.1-1.6,0.3-2.2s0.5-1.1,0.9-1.5s0.9-0.8,1.4-1c0.6-0.2,1.3-0.3,2.2-0.3h3.4v1.1h-3.4c-0.6,0-1,0-1.3,0.1
				s-0.6,0.2-0.9,0.3s-0.4,0.3-0.6,0.6s-0.3,0.6-0.4,0.9s-0.2,0.8-0.2,1.2L180.3,249.6L180.3,249.6z"/>
			<g>
				<path class="st5" d="M98.7,238.5v1.5h-9.5v-1.5H98.7z M92.4,238.5v9.3h-1.8v-9.3H92.4z M95.6,238.5h1.8v6.8
					c0,0.3,0.1,0.5,0.1,0.6s0.2,0.2,0.4,0.3c0.2,0,0.3,0.1,0.5,0.1c0.1,0,0.3,0,0.4,0c0.1,0,0.2,0,0.3-0.1v1.5
					c-0.2,0-0.3,0.1-0.6,0.1c-0.2,0-0.5,0.1-0.8,0.1c-0.7,0-1.2-0.2-1.6-0.6c-0.4-0.4-0.6-1-0.6-1.9L95.6,238.5L95.6,238.5z"/>
				<path class="st5" d="M94.2,264.9c-0.6,0-1.1-0.1-1.6-0.3c-0.5-0.2-1-0.5-1.4-1s-0.8-1.1-1-1.8s-0.4-1.7-0.4-2.9
					c0-1.1,0.1-2,0.3-2.9s0.5-1.5,0.9-2.1c0.4-0.6,0.9-1,1.5-1.3c0.6-0.3,1.2-0.5,1.9-0.5s1.4,0.1,2,0.4c0.6,0.3,1,0.7,1.4,1.2
					c0.4,0.5,0.6,1.1,0.7,1.7h-1.8c-0.1-0.5-0.4-0.9-0.7-1.3c-0.4-0.3-0.8-0.5-1.4-0.5c-0.9,0-1.6,0.4-2.1,1.2
					c-0.5,0.8-0.8,1.9-0.8,3.3h0.1c0.2-0.4,0.5-0.6,0.8-0.9s0.7-0.4,1.1-0.6s0.8-0.2,1.2-0.2c0.7,0,1.4,0.2,1.9,0.5
					c0.6,0.4,1.1,0.8,1.4,1.4c0.3,0.6,0.5,1.3,0.5,2.1s-0.2,1.5-0.5,2.1s-0.9,1.1-1.5,1.5S95.1,264.9,94.2,264.9L94.2,264.9z
					 M94.2,263.3c0.5,0,0.9-0.1,1.3-0.4s0.7-0.5,0.9-0.9s0.3-0.8,0.3-1.3s-0.1-0.9-0.3-1.3s-0.5-0.7-0.9-0.9
					c-0.4-0.2-0.8-0.3-1.3-0.3c-0.4,0-0.7,0.1-1,0.2s-0.6,0.3-0.8,0.6s-0.4,0.5-0.5,0.8s-0.2,0.6-0.2,1c0,0.5,0.1,0.9,0.3,1.3
					c0.2,0.4,0.5,0.7,0.9,1C93.3,263.2,93.7,263.4,94.2,263.3L94.2,263.3z"/>
			</g>
			<rect x="89.1" y="249.3" class="st5" width="10" height="1.5"/>
		</g>
		<path class="st5" d="M191.5,283.6v1.1h-6.9c0,0.5,0.1,1,0.2,1.4s0.3,0.7,0.6,1s0.6,0.5,1,0.6s0.9,0.2,1.6,0.2h3.5v1.1H188
			c-0.5,0-1,0-1.4-0.1s-0.8-0.2-1.1-0.3s-0.6-0.4-0.9-0.7s-0.5-0.6-0.7-1c-0.2-0.4-0.3-0.8-0.4-1.2s-0.1-1-0.1-1.5
			c0-0.9,0.1-1.6,0.3-2.2s0.5-1.1,0.9-1.5s0.9-0.8,1.4-1c0.6-0.2,1.3-0.3,2.2-0.3h3.4v1.1h-3.4c-0.6,0-1,0-1.3,0.1s-0.6,0.2-0.9,0.3
			s-0.4,0.3-0.6,0.6s-0.3,0.6-0.4,0.9s-0.2,0.8-0.2,1.2L191.5,283.6L191.5,283.6z"/>
		<g>
			<path class="st5" d="M65,289.4c-0.8,0-1.5-0.2-2-0.6c-0.6-0.4-1-1-1.4-1.7c-0.3-0.7-0.5-1.6-0.5-2.5s0.2-1.8,0.5-2.5
				s0.8-1.3,1.4-1.7c0.6-0.4,1.3-0.6,2-0.6c0.5,0,1,0.1,1.4,0.3c0.4,0.2,0.8,0.5,1.1,0.9c0.3,0.4,0.5,0.8,0.7,1.3h0.6l0.4,2.3
				l1.2,4.7h-1.5l-1.1-4.7c-0.1-0.3-0.2-0.6-0.3-1c-0.1-0.4-0.3-0.7-0.5-1s-0.5-0.6-0.8-0.8s-0.7-0.3-1.1-0.3
				c-0.5,0-0.9,0.1-1.2,0.4c-0.3,0.3-0.6,0.7-0.8,1.1c-0.2,0.5-0.3,1-0.3,1.7s0.1,1.2,0.3,1.7c0.2,0.5,0.5,0.9,0.8,1.2
				c0.3,0.3,0.7,0.4,1.2,0.4c0.4,0,0.8-0.1,1.1-0.3s0.6-0.5,0.8-0.8s0.4-0.7,0.5-1.1c0.1-0.4,0.2-0.7,0.3-1l1-4.7h1.5l-1.1,4.7
				l-0.4,2.4h-0.6c-0.2,0.5-0.4,0.9-0.8,1.3c-0.3,0.4-0.7,0.7-1.1,0.9C66.1,289.3,65.6,289.4,65,289.4L65,289.4z"/>
			<path class="st5" d="M77.6,283.3v-1.6h7.7v1.6H77.6z M77.6,287v-1.6h7.7v1.6H77.6z"/>
			<path class="st5" d="M115.7,283.9v-1.6h8.2v1.6H115.7z M119,287.1V279h1.6v8.2H119z"/>
			<path class="st5" d="M131.1,289.2v-1.4l4.2-4.3c0.4-0.5,0.8-0.9,1.1-1.2s0.5-0.7,0.7-1c0.1-0.3,0.2-0.7,0.2-1
				c0-0.4-0.1-0.8-0.3-1.1s-0.5-0.5-0.8-0.7s-0.7-0.2-1.1-0.2c-0.4,0-0.8,0.1-1.2,0.3c-0.3,0.2-0.6,0.4-0.8,0.8s-0.3,0.7-0.3,1.2
				h-1.8c0-0.8,0.2-1.4,0.5-2s0.8-1,1.4-1.3s1.3-0.5,2.1-0.5s1.5,0.1,2.1,0.5c0.6,0.3,1.1,0.7,1.4,1.3s0.5,1.1,0.5,1.8
				c0,0.5-0.1,0.9-0.3,1.4c-0.2,0.4-0.5,0.9-0.9,1.5c-0.4,0.5-1,1.2-1.8,2l-2.5,2.6v0.1h5.6v1.6L131.1,289.2L131.1,289.2z"/>
			<path class="st5" d="M150.6,279.9v1.5h-9.5v-1.5H150.6z M144.3,279.9v9.3h-1.8v-9.3H144.3z M147.5,279.9h1.8v6.8
				c0,0.3,0.1,0.5,0.1,0.6s0.2,0.2,0.4,0.3c0.1,0,0.3,0.1,0.5,0.1c0.1,0,0.3,0,0.4,0c0.1,0,0.2,0,0.3-0.1v1.5
				c-0.1,0-0.3,0.1-0.6,0.1c-0.2,0-0.5,0.1-0.8,0.1c-0.6,0-1.2-0.2-1.6-0.6c-0.4-0.4-0.6-1-0.6-1.9V279.9z"/>
			<path class="st5" d="M153,289.2v-12.4h1.8v12.4H153z M154.6,286.1v-2.2h0.3l3.7-3.9h2.2l-4.2,4.5h-0.3L154.6,286.1L154.6,286.1z
				 M158.8,289.2l-3.3-4.4l1.2-1.3l4.3,5.7H158.8L158.8,289.2z"/>
			<path class="st5" d="M164.8,287.5l-0.1,0.7c-0.1,0.5-0.2,1-0.3,1.5c-0.1,0.5-0.3,1-0.4,1.5c-0.1,0.5-0.3,0.8-0.4,1.1h-1.3
				c0.1-0.2,0.1-0.6,0.2-1c0.1-0.4,0.2-0.9,0.3-1.4c0.1-0.5,0.2-1.1,0.2-1.6l0.1-0.7L164.8,287.5L164.8,287.5z"/>
			<path class="st5" d="M171.6,289.2v-12.4h1.8v12.4H171.6z M173.3,286.1v-2.2h0.3l3.7-3.9h2.2l-4.2,4.5h-0.3L173.3,286.1
				L173.3,286.1z M177.5,289.2l-3.3-4.4l1.2-1.3l4.3,5.7H177.5L177.5,289.2z"/>
			<path class="st5" d="M194.4,289.2V288l6.5-9.5h-6.6v-1.6h8.8v1.2l-6.5,9.5h6.6v1.6H194.4z"/>
		</g>
		<g>
			<path class="st5" d="M94.6,281.9c-0.8,0-1.4-0.1-2-0.4s-1.1-0.7-1.4-1.2s-0.6-1.1-0.6-1.8h1.8c0,0.5,0.3,1,0.7,1.3
				s0.9,0.5,1.5,0.5c0.5,0,0.9-0.1,1.3-0.3c0.4-0.2,0.7-0.5,0.9-0.9s0.3-0.8,0.3-1.3s-0.1-1-0.3-1.4c-0.2-0.4-0.5-0.7-0.9-0.9
				c-0.4-0.2-0.8-0.3-1.3-0.3c-0.4,0-0.8,0.1-1.1,0.2s-0.7,0.3-0.9,0.5l-1.7-0.2l0.7-6.2h6.8v1.6H93l-0.4,3.5h0.1
				c0.2-0.2,0.6-0.4,1-0.6s0.8-0.2,1.3-0.2c0.8,0,1.4,0.2,2,0.5c0.6,0.4,1.1,0.9,1.4,1.5c0.3,0.6,0.5,1.3,0.5,2.1
				c0,0.8-0.2,1.5-0.5,2.1s-0.9,1.1-1.5,1.5C96.2,281.7,95.4,281.9,94.6,281.9L94.6,281.9z"/>
			<path class="st5" d="M110.2,272.5v1.5h-9.5v-1.5H110.2z M103.9,272.5v9.3h-1.8v-9.3H103.9z M107,272.5h1.8v6.8
				c0,0.3,0.1,0.5,0.1,0.6s0.2,0.2,0.4,0.3c0.2,0,0.3,0.1,0.5,0.1c0.1,0,0.3,0,0.4,0c0.1,0,0.2,0,0.3-0.1v1.5
				c-0.2,0-0.3,0.1-0.6,0.1c-0.2,0-0.5,0.1-0.8,0.1c-0.7,0-1.2-0.2-1.6-0.6c-0.4-0.4-0.6-1-0.6-1.9L107,272.5L107,272.5z"/>
			<path class="st5" d="M100.4,298.9c-0.6,0-1.1-0.1-1.6-0.3c-0.5-0.2-1-0.5-1.4-1s-0.8-1.1-1-1.8s-0.4-1.7-0.4-2.9
				c0-1.1,0.1-2,0.3-2.9s0.5-1.5,0.9-2.1c0.4-0.6,0.9-1,1.5-1.3c0.6-0.3,1.2-0.5,1.9-0.5s1.4,0.1,2,0.4c0.6,0.3,1,0.7,1.4,1.2
				c0.4,0.5,0.6,1.1,0.7,1.7h-1.8c-0.1-0.5-0.4-0.9-0.7-1.3c-0.4-0.3-0.8-0.5-1.4-0.5c-0.9,0-1.6,0.4-2.1,1.2
				c-0.5,0.8-0.8,1.9-0.8,3.3h0.1c0.2-0.4,0.5-0.6,0.8-0.9s0.7-0.4,1.1-0.6s0.8-0.2,1.2-0.2c0.7,0,1.4,0.2,1.9,0.5
				c0.6,0.4,1.1,0.8,1.4,1.4c0.3,0.6,0.5,1.3,0.5,2.1s-0.2,1.5-0.5,2.1s-0.9,1.1-1.5,1.5S101.3,298.9,100.4,298.9L100.4,298.9z
				 M100.4,297.3c0.5,0,0.9-0.1,1.3-0.4s0.7-0.5,0.9-0.9s0.3-0.8,0.3-1.3s-0.1-0.9-0.3-1.3s-0.5-0.7-0.9-0.9
				c-0.4-0.2-0.8-0.3-1.3-0.3c-0.4,0-0.7,0.1-1,0.2s-0.6,0.3-0.8,0.6s-0.4,0.5-0.5,0.8s-0.2,0.6-0.2,1c0,0.5,0.1,0.9,0.3,1.3
				c0.2,0.4,0.5,0.7,0.9,1C99.5,297.2,99.9,297.4,100.4,297.3L100.4,297.3z"/>
		</g>
		<rect x="89.3" y="283.3" class="st5" width="23" height="1.5"/>
		<path class="st5" d="M46.8,299.7v-65.5h9v1.6h-7.4v62.2h7.4v1.6L46.8,299.7L46.8,299.7z"/>
	</g>
</g>
</svg>
