<?xml version="1.0" encoding="UTF-8"?>
<svg id="Layer_1" data-name="Layer 1" xmlns="http://www.w3.org/2000/svg" viewBox="0 0 173 43.52">
  <defs>
    <style>
      .cls-1 {
        fill: #fff;
      }

      .cls-2 {
        fill: #d1ae59;
        opacity: .3;
      }

      .cls-2, .cls-3 {
        stroke: #d1ae59;
        stroke-miterlimit: 10;
        stroke-width: 2px;
      }

      .cls-3 {
        fill: none;
      }
    </style>
  </defs>
  <polygon class="cls-2" points="126.15 42.33 3.03 42.33 46.85 1.17 169.97 1.17 126.15 42.33"/>
  <line class="cls-3" x1="97.88" y1="1.17" x2="66.12" y2="42.33"/>
  <polygon class="cls-3" points="125.71 42.33 2.59 42.33 46.41 1.17 169.53 1.17 125.71 42.33"/>
  <path class="cls-1" d="m85.45,8.84c0,.89-.16,1.66-.49,2.29-.33.64-.77,1.13-1.34,1.47-.57.34-1.21.52-1.93.52s-1.37-.17-1.93-.52c-.57-.34-1.01-.83-1.34-1.48-.33-.64-.49-1.41-.49-2.29s.16-1.65.49-2.29c.33-.64.77-1.13,1.34-1.47.57-.34,1.21-.52,1.93-.52s1.36.17,1.93.52c.57.34,1.01.83,1.34,1.47.33.64.49,1.4.49,2.29Zm-1.25,0c0-.68-.11-1.25-.33-1.72s-.52-.82-.9-1.06-.81-.36-1.29-.36-.91.12-1.29.36c-.38.24-.68.59-.89,1.06-.22.47-.33,1.04-.33,1.72s.11,1.25.33,1.72c.22.47.52.82.89,1.06.38.24.81.36,1.29.36s.91-.12,1.29-.36.68-.59.9-1.06.33-1.04.33-1.72Z"/>
  <path class="cls-1" d="m67.35,26.57c0,.89-.16,1.66-.49,2.29-.33.64-.77,1.13-1.34,1.47-.57.34-1.21.52-1.93.52s-1.37-.17-1.93-.52c-.57-.34-1.01-.83-1.34-1.48-.33-.64-.49-1.41-.49-2.29s.16-1.65.49-2.29c.33-.64.77-1.13,1.34-1.47.57-.34,1.21-.52,1.93-.52s1.36.17,1.93.52c.57.34,1.01.83,1.34,1.47.33.64.49,1.4.49,2.29Zm-1.25,0c0-.68-.11-1.25-.33-1.72s-.52-.82-.9-1.06-.81-.36-1.29-.36-.91.12-1.29.36c-.38.24-.68.59-.89,1.06-.22.47-.33,1.04-.33,1.72s.11,1.25.33,1.72c.22.47.52.82.89,1.06.38.24.81.36,1.29.36s.91-.12,1.29-.36.68-.59.9-1.06.33-1.04.33-1.72Z"/>
  <line class="cls-3" x1="88.99" y1="13.35" x2="128.76" y2="13.35"/>
  <line class="cls-3" x1="75.1" y1="30.74" x2="114.87" y2="30.74"/>
  <path class="cls-1" d="m133.35,13.01h-1.4l3.14-8.73h1.52l3.14,8.73h-1.4l-2.47-7.14h-.07l-2.47,7.14Zm.23-3.42h4.53v1.11h-4.53v-1.11Z"/>
  <path class="cls-1" d="m118.38,33.14h-1.4l3.14-8.73h1.52l3.14,8.73h-1.4l-2.47-7.14h-.07l-2.47,7.14Zm.23-3.42h4.53v1.11h-4.53v-1.11Z"/>
  <path class="cls-1" d="m128.5,29.45v6.55h-.99v-5.55h-.04l-1.57,1.02v-.95l1.63-1.07h.96Z"/>
  <path class="cls-1" d="m70.7,26.12v6.55h-.99v-5.55h-.04l-1.57,1.02v-.95l1.63-1.07h.96Z"/>
</svg>