<?xml version="1.0" encoding="UTF-8"?>
<svg id="Layer_1" data-name="Layer 1" xmlns="http://www.w3.org/2000/svg" viewBox="0 0 75.72 77">
  <defs>
    <style>
      .cls-1 {
        fill: #fff;
      }

      .cls-2 {
        fill: #d1ae59;
      }

      .cls-3 {
        fill: none;
        stroke: #d1ae59;
        stroke-miterlimit: 10;
        stroke-width: 2px;
      }
    </style>
  </defs>
  <path class="cls-2" d="m31.87,8.26c16.47,0,29.87,13.4,29.87,29.87s-13.4,29.87-29.87,29.87S2,54.6,2,38.13,15.4,8.26,31.87,8.26m0-2C14.27,6.26,0,20.53,0,38.13s14.27,31.87,31.87,31.87,31.87-14.27,31.87-31.87S49.47,6.26,31.87,6.26h0Z"/>
  <g>
    <circle class="cls-2" cx="31.87" cy="38.13" r="1.34"/>
    <path class="cls-2" d="m31.87,37.79c.19,0,.34.15.34.34s-.15.34-.34.34-.34-.15-.34-.34.15-.34.34-.34m0-2c-1.29,0-2.34,1.05-2.34,2.34s1.05,2.34,2.34,2.34,2.34-1.05,2.34-2.34-1.05-2.34-2.34-2.34h0Z"/>
  </g>
  <path class="cls-1" d="m40.05,30.6c0,.77-.14,1.44-.42,1.99-.28.55-.67.98-1.16,1.28-.49.3-1.05.45-1.67.45s-1.19-.15-1.68-.45c-.49-.3-.88-.73-1.16-1.28-.28-.56-.42-1.22-.42-1.99s.14-1.44.42-1.99c.28-.56.67-.98,1.16-1.28.49-.3,1.05-.45,1.68-.45s1.18.15,1.67.45c.49.3.88.72,1.16,1.28.28.55.42,1.22.42,1.99Zm-1.08,0c0-.59-.09-1.09-.28-1.49s-.45-.71-.78-.92c-.33-.21-.7-.31-1.12-.31s-.79.1-1.12.31c-.33.21-.59.52-.78.92s-.29.9-.29,1.49.1,1.09.29,1.49.45.71.78.92c.33.21.7.31,1.12.31s.79-.1,1.12-.31c.33-.21.59-.52.78-.92s.28-.9.28-1.49Z"/>
  <g>
    <path class="cls-2" d="m14.64,14.13c-.93,0-1.68-.75-1.68-1.68s.75-1.68,1.68-1.68,1.68.75,1.68,1.68-.75,1.68-1.68,1.68Z"/>
    <path class="cls-2" d="m14.64,11.76c.38,0,.68.31.68.68s-.31.68-.68.68-.68-.31-.68-.68.31-.68.68-.68m0-2c-1.48,0-2.68,1.2-2.68,2.68s1.2,2.68,2.68,2.68,2.68-1.2,2.68-2.68-1.2-2.68-2.68-2.68h0Z"/>
  </g>
  <g>
    <path class="cls-2" d="m58.85,25.48c-.93,0-1.68-.75-1.68-1.68s.75-1.68,1.68-1.68,1.68.75,1.68,1.68-.75,1.68-1.68,1.68Z"/>
    <path class="cls-2" d="m58.85,23.11c.38,0,.68.31.68.68s-.31.68-.68.68-.68-.31-.68-.68.31-.68.68-.68m0-2c-1.48,0-2.68,1.2-2.68,2.68s1.2,2.68,2.68,2.68,2.68-1.2,2.68-2.68-1.2-2.68-2.68-2.68h0Z"/>
  </g>
  <line class="cls-3" x1=".58" y1="8.83" x2="75.22" y2="28"/>
</svg>