<?xml version="1.0" encoding="UTF-8"?>
<svg id="Layer_2" data-name="Layer 2" xmlns="http://www.w3.org/2000/svg" viewBox="0 0 250 270">
  <defs>
    <style>
      .cls-1, .cls-2 {
        fill: #fff;
      }

      .cls-3 {
        fill: none;
      }

      .cls-3, .cls-4, .cls-2 {
        stroke-miterlimit: 10;
        stroke-width: 2px;
      }

      .cls-3, .cls-2 {
        stroke: #fff;
      }

      .cls-4 {
        stroke: #d1ae59;
      }

      .cls-4, .cls-5 {
        fill: #d1ae59;
      }

      .cls-2 {
        fill-rule: evenodd;
      }
    </style>
  </defs>
  <line class="cls-3" x1="183.77" y1="74.15" x2="52.62" y2="205.3"/>
  <line class="cls-3" x1="183.77" y1="207.28" x2="183.77" y2="61.56"/>
  <line class="cls-3" x1="50.04" y1="132.92" x2="195.76" y2="132.92"/>
  <line class="cls-3" x1="125" y1="207.28" x2="125" y2="61.56"/>
  <polygon class="cls-2" points="125 57.36 122.58 61.56 127.42 61.56 125 57.36"/>
  <polygon class="cls-2" points="199.96 132.92 195.76 130.5 195.76 135.34 199.96 132.92"/>
  <path class="cls-4" d="m125.3,74.15c32.24,0,58.47,26.23,58.47,58.47s-26.23,58.47-58.47,58.47-58.47-26.23-58.47-58.47,26.23-58.47,58.47-58.47m0-1.2c-32.95,0-59.67,26.72-59.67,59.67s26.72,59.67,59.67,59.67,59.67-26.72,59.67-59.67-26.72-59.67-59.67-59.67h0Z"/>
  <circle class="cls-5" cx="167.35" cy="89.62" r="5.4"/>
  <circle class="cls-5" cx="84.85" cy="176.22" r="5.4"/>
  <g>
    <path class="cls-1" d="m102.48,11.3v1.45h-5.07v-1.45h5.07Zm-3.71-2.22h1.81v8.77c0,.35.05.61.16.79.1.18.24.29.41.36s.35.09.55.09c.14,0,.27-.01.38-.03.11-.02.19-.04.25-.05l.33,1.49c-.1.04-.25.08-.45.12-.19.04-.44.07-.72.07-.48,0-.92-.08-1.33-.25-.41-.18-.74-.45-1-.82-.25-.37-.38-.84-.38-1.39v-9.15Z"/>
    <path class="cls-1" d="m108.36,24.24c-.74,0-1.37-.1-1.9-.29-.53-.19-.96-.45-1.29-.77s-.58-.67-.75-1.04l1.55-.64c.11.18.25.37.44.56.18.2.43.37.75.51.32.14.72.21,1.22.21.68,0,1.25-.17,1.7-.5.45-.33.67-.86.67-1.58v-1.82h-.11c-.11.2-.26.42-.47.66-.2.24-.48.45-.84.63-.35.18-.82.27-1.38.27-.73,0-1.39-.17-1.98-.52-.59-.34-1.05-.85-1.39-1.53-.34-.67-.51-1.5-.51-2.49s.17-1.83.5-2.54c.34-.7.8-1.24,1.38-1.62.59-.38,1.25-.56,2-.56.58,0,1.04.1,1.39.29.35.19.63.41.83.67.2.25.35.48.46.67h.13v-1.5h1.77v9.48c0,.8-.19,1.45-.56,1.96-.37.51-.87.89-1.5,1.13s-1.34.37-2.13.37Zm-.02-5.31c.52,0,.96-.12,1.32-.37.36-.24.63-.59.82-1.05.19-.46.28-1,.28-1.65s-.09-1.17-.28-1.65c-.19-.48-.46-.85-.82-1.11s-.8-.4-1.33-.4-1,.14-1.36.42-.63.66-.82,1.14c-.18.48-.28,1.01-.28,1.61s.09,1.14.28,1.6c.18.46.46.82.82,1.07.36.26.81.39,1.35.39Z"/>
    <path class="cls-1" d="m118.45,20.77c-.77,0-1.45-.22-2.03-.63-.58-.41-1.04-.98-1.36-1.7-.33-.72-.49-1.56-.49-2.5s.17-1.76.51-2.47c.34-.71.81-1.27,1.41-1.68.6-.4,1.28-.61,2.04-.61.54,0,1.02.1,1.43.31.41.2.76.49,1.05.85.29.36.53.78.72,1.26h.63l.36,2.32,1.18,4.66h-1.55l-1.11-4.66c-.06-.3-.15-.63-.27-1-.12-.37-.28-.72-.48-1.05s-.45-.61-.75-.83-.66-.33-1.08-.33c-.46,0-.87.14-1.22.41-.35.28-.62.66-.81,1.14-.19.49-.29,1.05-.29,1.68s.09,1.18.28,1.67c.19.5.45.88.78,1.17.33.28.72.43,1.17.43.41,0,.76-.11,1.07-.33.31-.22.57-.5.78-.85.21-.34.39-.7.52-1.07.13-.37.23-.71.3-1.01l1-4.66h1.54l-1.06,4.66-.36,2.35h-.57c-.19.48-.44.9-.75,1.28-.3.37-.67.66-1.1.87-.43.21-.93.31-1.49.31Z"/>
    <path class="cls-1" d="m131,14.64v-1.59h7.73v1.59h-7.73Zm0,3.72v-1.59h7.73v1.59h-7.73Z"/>
    <path class="cls-1" d="m150.91,8.21v12.36h-1.87v-10.49h-.07l-2.96,1.93v-1.79l3.08-2.02h1.82Z"/>
  </g>
  <g>
    <path class="cls-1" d="m100.23,218.95v1.51h-9.51v-1.51h9.51Zm-6.31,0v9.27h-1.78v-9.27h1.78Zm3.15,0h1.78v6.77c0,.28.05.49.14.63.09.14.22.24.37.29.16.05.32.08.5.08.13,0,.27-.01.4-.04.13-.02.24-.04.32-.06v1.51c-.15.04-.34.09-.56.14-.22.05-.48.07-.77.07-.65,0-1.17-.19-1.58-.57-.41-.38-.61-1.03-.61-1.94v-6.88Z"/>
    <path class="cls-1" d="m90.88,242.81v-1.51l5.34-8.44h1.19v2.22h-.75l-3.82,6.05v.1h7.32v1.58h-9.28Zm5.86,2.42v-3.56s.01-8.8.01-8.8h1.77v12.36h-1.78Z"/>
  </g>
  <rect class="cls-1" x="89.96" y="229.56" width="12.2" height="1.82"/>
  <g>
    <path class="cls-1" d="m64.87,235.46c-.77,0-1.45-.22-2.03-.63-.58-.41-1.04-.98-1.36-1.7-.33-.72-.49-1.56-.49-2.5s.17-1.76.51-2.47c.34-.71.81-1.27,1.41-1.68.6-.4,1.28-.61,2.04-.61.54,0,1.02.1,1.43.3s.76.49,1.05.85c.29.36.53.78.72,1.26h.63l.36,2.32,1.18,4.66h-1.55l-1.11-4.66c-.06-.3-.15-.63-.27-1-.12-.37-.28-.72-.48-1.05s-.45-.61-.75-.83c-.3-.22-.66-.33-1.08-.33-.46,0-.87.14-1.22.41-.35.28-.62.66-.81,1.14-.19.49-.29,1.05-.29,1.68s.09,1.18.28,1.67c.19.5.45.88.78,1.17.33.28.72.43,1.17.43.41,0,.76-.11,1.07-.33.31-.22.57-.5.78-.84.21-.34.39-.7.52-1.07.13-.37.23-.71.3-1l1-4.66h1.54l-1.06,4.66-.36,2.35h-.57c-.19.48-.44.9-.75,1.28-.3.37-.67.66-1.1.87-.43.21-.93.31-1.49.31Z"/>
    <path class="cls-1" d="m77.42,229.33v-1.59h7.73v1.59h-7.73Zm0,3.72v-1.59h7.73v1.59h-7.73Z"/>
    <path class="cls-1" d="m106.54,231.21v-1.62h8.16v1.62h-8.16Zm3.27,3.27v-8.16h1.62v8.16h-1.62Z"/>
    <path class="cls-1" d="m131.05,225.99v1.51h-9.51v-1.51h9.51Zm-6.31,0v9.27h-1.78v-9.27h1.78Zm3.15,0h1.78v6.77c0,.28.05.49.14.63.09.14.22.24.37.29.16.05.32.08.5.08.13,0,.27-.01.4-.04.13-.02.24-.04.32-.06v1.51c-.15.04-.34.09-.56.14-.22.05-.48.07-.77.07-.65,0-1.17-.19-1.58-.57-.41-.38-.61-1.03-.61-1.94v-6.88Z"/>
    <path class="cls-1" d="m133.37,235.27v-12.36h1.8v12.36h-1.8Zm1.66-3.15v-2.2s.3,0,.3,0l3.69-3.92h2.16l-4.21,4.47h-.28l-1.66,1.66Zm4.2,3.15l-3.32-4.41,1.24-1.26,4.29,5.67h-2.22Z"/>
    <path class="cls-1" d="m145.17,233.58l-.09.66c-.06.48-.16.99-.31,1.51-.14.53-.29,1.01-.44,1.46-.15.45-.27.81-.37,1.07h-1.28c.05-.25.12-.59.22-1.01.09-.42.18-.9.27-1.42.09-.52.16-1.06.2-1.6l.06-.68h1.74Z"/>
    <path class="cls-1" d="m152.03,235.27v-12.36h1.8v12.36h-1.8Zm1.66-3.15v-2.2s.3,0,.3,0l3.69-3.92h2.16l-4.21,4.47h-.28l-1.66,1.66Zm4.2,3.15l-3.32-4.41,1.24-1.26,4.29,5.67h-2.22Z"/>
    <path class="cls-1" d="m174.15,229.75v1.15h-6.86c.03.51.1.97.22,1.37s.31.74.55,1.02.56.49.96.62c.39.13.93.2,1.61.2h3.51v1.15h-3.54c-.54,0-1.01-.03-1.41-.1s-.76-.17-1.08-.32c-.32-.15-.62-.37-.91-.68s-.52-.63-.69-1c-.18-.37-.31-.78-.4-1.24-.09-.46-.13-.96-.13-1.49,0-.87.09-1.6.26-2.17.17-.57.46-1.08.86-1.53s.89-.76,1.45-.96c.56-.19,1.29-.29,2.19-.29h3.4v1.15h-3.41c-.55,0-.99.03-1.33.09-.34.06-.62.16-.85.29-.23.14-.43.33-.62.58-.19.25-.33.56-.44.92s-.17.77-.2,1.23h6.85Z"/>
    <path class="cls-1" d="m180.01,235.27v-1.24l6.5-9.51h-6.56v-1.61h8.84v1.24l-6.5,9.51h6.56v1.61h-8.84Z"/>
  </g>
  <path class="cls-1" d="m194.35,95.92v12.36h-1.87v-10.49h-.07l-2.96,1.93v-1.79l3.08-2.02h1.82Z"/>
</svg>