<?xml version="1.0" encoding="UTF-8"?>
<svg id="Layer_1" data-name="Layer 1" xmlns="http://www.w3.org/2000/svg" xmlns:xlink="http://www.w3.org/1999/xlink" viewBox="0 0 300 300">
  <defs>
    <style>
      .cls-1 {
        fill: #fff;
      }

      .cls-2, .cls-3 {
        fill: #adff2f;
      }

      .cls-4, .cls-5, .cls-6 {
        fill: none;
      }

      .cls-4, .cls-3 {
        stroke: lime;
        stroke-miterlimit: 10;
        stroke-width: 2px;
      }

      .cls-5 {
        clip-path: url(#clippath);
      }

      .cls-6 {
        clip-path: url(#clippath-1);
      }
    </style>
    <clipPath id="clippath">
      <circle class="cls-2" cx="-138.76" cy="69.95" r="69"/>
    </clipPath>
    <clipPath id="clippath-1">
      <path class="cls-2" d="m88.08,147.47c32.58-6.43,57.36-34.53,58.71-68.66-32.05,7.36-56.35,34.97-58.71,68.66Z"/>
    </clipPath>
  </defs>
  <circle class="cls-4" cx="161.87" cy="152.87" r="76"/>
  <circle class="cls-4" cx="74.24" cy="74.45" r="73"/>
  <g>
    <circle class="cls-2" cx="-138.76" cy="69.95" r="69"/>
    <g class="cls-5">
      <line class="cls-3" x1="39.24" y1="-81.05" x2="-279.26" y2="237.45"/>
      <line class="cls-3" x1="29.24" y1="-81.05" x2="-289.26" y2="237.45"/>
      <line class="cls-3" x1="19.24" y1="-81.05" x2="-299.26" y2="237.45"/>
      <line class="cls-3" x1="9.24" y1="-81.05" x2="-309.26" y2="237.45"/>
      <line class="cls-3" x1="39.24" y1="-71.05" x2="-279.26" y2="247.45"/>
      <line class="cls-3" x1="39.24" y1="-61.05" x2="-279.26" y2="257.45"/>
      <line class="cls-3" x1="39.24" y1="-51.05" x2="-279.26" y2="267.45"/>
      <line class="cls-3" x1="39.24" y1="-41.05" x2="-279.26" y2="277.45"/>
      <line class="cls-3" x1="39.24" y1="-31.05" x2="-279.26" y2="287.45"/>
      <line class="cls-3" x1="39.24" y1="-21.05" x2="-279.26" y2="297.45"/>
      <line class="cls-3" x1="39.24" y1="-11.05" x2="-279.26" y2="307.45"/>
      <line class="cls-3" x1="39.24" y1="-1.05" x2="-279.26" y2="317.45"/>
      <line class="cls-3" x1="39.24" y1="8.95" x2="-279.26" y2="327.45"/>
    </g>
  </g>
  <path class="cls-1" d="m70.07,79.89h-2.33l5.23-14.55h2.54l5.23,14.55h-2.33l-4.11-11.9h-.11l-4.12,11.9Zm.39-5.7h7.56v1.85h-7.56v-1.85Z"/>
  <path class="cls-1" d="m156.92,158.31v-14.55h5.33c1.03,0,1.89.17,2.56.51.68.34,1.18.8,1.52,1.37.34.58.5,1.22.5,1.94,0,.61-.11,1.12-.33,1.53-.22.42-.52.75-.89,1-.37.25-.78.43-1.23.54v.14c.48.02.96.18,1.42.47s.84.69,1.15,1.22c.3.53.46,1.17.46,1.92s-.17,1.41-.52,2c-.35.59-.88,1.06-1.61,1.4-.72.34-1.65.51-2.78.51h-5.58Zm2.2-8.25h2.94c.49,0,.94-.09,1.33-.28s.71-.46.94-.8c.23-.34.35-.75.35-1.22,0-.6-.21-1.11-.63-1.51-.42-.41-1.07-.61-1.94-.61h-3v4.42Zm0,6.37h3.17c1.05,0,1.8-.2,2.26-.61s.68-.92.68-1.53c0-.46-.12-.88-.35-1.26-.23-.38-.56-.69-.99-.92s-.94-.34-1.52-.34h-3.25v4.66Z"/>
  <g>
    <path class="cls-2" d="m88.08,147.47c32.58-6.43,57.36-34.53,58.71-68.66-32.05,7.36-56.35,34.97-58.71,68.66Z"/>
    <g class="cls-6">
      <line class="cls-3" x1="173.87" y1="42.87" x2="33.87" y2="182.87"/>
      <line class="cls-3" x1="173.87" y1="52.87" x2="33.87" y2="192.87"/>
      <line class="cls-3" x1="173.87" y1="62.87" x2="33.87" y2="202.87"/>
      <line class="cls-3" x1="173.87" y1="72.87" x2="33.87" y2="212.87"/>
    </g>
  </g>
  <path class="cls-4" d="m88.08,147.47c32.58-6.43,57.36-34.53,58.71-68.66-32.05,7.36-56.35,34.97-58.71,68.66Z"/>
</svg>