<?xml version="1.0" encoding="UTF-8"?>
<svg id="Layer_1" data-name="Layer 1" xmlns="http://www.w3.org/2000/svg" xmlns:xlink="http://www.w3.org/1999/xlink" viewBox="0 0 300 300">
  <defs>
    <style>
      .cls-1 {
        clip-path: url(#clippath-2);
      }

      .cls-1, .cls-2, .cls-3, .cls-4, .cls-5, .cls-6 {
        fill: none;
      }

      .cls-7, .cls-8 {
        fill: #adff2f;
      }

      .cls-2 {
        clip-path: url(#clippath-3);
      }

      .cls-3, .cls-8 {
        stroke: lime;
        stroke-miterlimit: 10;
        stroke-width: 2px;
      }

      .cls-5 {
        clip-path: url(#clippath);
      }

      .cls-6 {
        clip-path: url(#clippath-1);
      }
    </style>
    <clipPath id="clippath">
      <path class="cls-4" d="m193.37,1.87c-32.13,0-59,22.46-65.81,52.53,24.42,14.45,40.81,41.04,40.81,71.47,0,2.05-.1,4.08-.25,6.1,7.8,3.15,16.32,4.9,25.25,4.9,37.28,0,67.5-30.22,67.5-67.5S230.65,1.87,193.37,1.87Z"/>
    </clipPath>
    <clipPath id="clippath-1">
      <circle class="cls-7" cx="193.37" cy="69.37" r="67.5"/>
    </clipPath>
    <clipPath id="clippath-2">
      <path class="cls-4" d="m125.37,69.37c0-5.15.6-10.16,1.69-14.97-12.36-7.31-26.78-11.53-42.19-11.53C39.03,42.87,1.87,80.03,1.87,125.87s37.16,83,83,83,79.63-33.91,82.75-76.9c-24.77-10-42.25-34.25-42.25-62.6Z"/>
    </clipPath>
    <clipPath id="clippath-3">
      <circle class="cls-7" cx="84.87" cy="125.87" r="83"/>
    </clipPath>
  </defs>
  <g class="cls-5">
    <g>
      <circle class="cls-7" cx="193.37" cy="69.37" r="67.5"/>
      <g class="cls-6">
        <line class="cls-8" x1="281.37" y1="13.87" x2="116.87" y2="178.37"/>
        <line class="cls-8" x1="281.37" y1="23.87" x2="116.87" y2="188.37"/>
        <line class="cls-8" x1="281.37" y1="33.87" x2="116.87" y2="198.37"/>
        <line class="cls-8" x1="281.37" y1="43.87" x2="116.87" y2="208.37"/>
        <line class="cls-8" x1="281.37" y1="53.87" x2="116.87" y2="218.37"/>
        <line class="cls-8" x1="281.37" y1="63.87" x2="116.87" y2="228.37"/>
        <line class="cls-8" x1="281.37" y1="73.87" x2="116.87" y2="238.37"/>
        <line class="cls-8" x1="281.37" y1="3.87" x2="116.87" y2="168.37"/>
        <line class="cls-8" x1="281.37" y1="-6.13" x2="116.87" y2="158.37"/>
        <line class="cls-8" x1="281.37" y1="-16.13" x2="116.87" y2="148.37"/>
        <line class="cls-8" x1="281.37" y1="-26.13" x2="116.87" y2="138.37"/>
        <line class="cls-8" x1="281.37" y1="-36.13" x2="116.87" y2="128.37"/>
        <line class="cls-8" x1="281.37" y1="-46.13" x2="116.87" y2="118.37"/>
        <line class="cls-8" x1="281.37" y1="-56.13" x2="116.87" y2="108.37"/>
        <line class="cls-8" x1="281.37" y1="-66.13" x2="116.87" y2="98.37"/>
        <line class="cls-8" x1="281.37" y1="-76.13" x2="116.87" y2="88.37"/>
        <line class="cls-8" x1="281.37" y1="-86.13" x2="116.87" y2="78.37"/>
        <line class="cls-8" x1="281.37" y1="-96.13" x2="116.87" y2="68.37"/>
        <line class="cls-8" x1="281.37" y1="-106.13" x2="116.87" y2="58.37"/>
      </g>
    </g>
  </g>
  <g class="cls-1">
    <g>
      <circle class="cls-7" cx="84.87" cy="125.87" r="83"/>
      <g class="cls-2">
        <line class="cls-8" x1="184.87" y1="19.87" x2="-4.63" y2="209.37"/>
        <line class="cls-8" x1="184.87" y1="9.87" x2="-4.63" y2="199.37"/>
        <line class="cls-8" x1="184.87" y1="-.13" x2="-4.63" y2="189.37"/>
        <line class="cls-8" x1="184.87" y1="-10.13" x2="-4.63" y2="179.37"/>
        <line class="cls-8" x1="184.87" y1="-20.13" x2="-4.63" y2="169.37"/>
        <line class="cls-8" x1="184.87" y1="-30.13" x2="-4.63" y2="159.37"/>
        <line class="cls-8" x1="184.87" y1="-40.13" x2="-4.63" y2="149.37"/>
        <line class="cls-8" x1="184.87" y1="-50.13" x2="-4.63" y2="139.37"/>
        <line class="cls-8" x1="184.87" y1="-60.13" x2="-4.63" y2="129.37"/>
        <line class="cls-8" x1="184.87" y1="-70.13" x2="-4.63" y2="119.37"/>
        <line class="cls-8" x1="184.87" y1="-80.13" x2="-4.63" y2="109.37"/>
        <line class="cls-8" x1="184.87" y1="-90.13" x2="-4.63" y2="99.37"/>
        <line class="cls-8" x1="184.87" y1="29.87" x2="-4.63" y2="219.37"/>
        <line class="cls-8" x1="184.87" y1="39.87" x2="-4.63" y2="229.37"/>
        <line class="cls-8" x1="184.87" y1="49.87" x2="-4.63" y2="239.37"/>
        <line class="cls-8" x1="184.87" y1="59.87" x2="-4.63" y2="249.37"/>
        <line class="cls-8" x1="184.87" y1="69.87" x2="-4.63" y2="259.37"/>
        <line class="cls-8" x1="184.87" y1="79.87" x2="-4.63" y2="269.37"/>
        <line class="cls-8" x1="184.87" y1="89.87" x2="-4.63" y2="279.37"/>
        <line class="cls-8" x1="184.87" y1="99.87" x2="-4.63" y2="289.37"/>
        <line class="cls-8" x1="184.87" y1="109.87" x2="-4.63" y2="299.37"/>
        <line class="cls-8" x1="184.87" y1="119.87" x2="-4.63" y2="309.37"/>
        <line class="cls-8" x1="184.87" y1="129.87" x2="-4.63" y2="319.37"/>
        <line class="cls-8" x1="184.87" y1="139.87" x2="-4.63" y2="329.37"/>
      </g>
    </g>
  </g>
  <path class="cls-3" d="m125.37,69.37c0-5.15.6-10.16,1.69-14.97-12.36-7.31-26.78-11.53-42.19-11.53C39.03,42.87,1.87,80.03,1.87,125.87s37.16,83,83,83,79.63-33.91,82.75-76.9c-24.77-10-42.25-34.25-42.25-62.6Z"/>
  <path class="cls-3" d="m192.87,1.87c-32.13,0-59,22.46-65.81,52.53,24.42,14.45,40.81,41.04,40.81,71.47,0,2.05-.1,4.08-.25,6.1,7.8,3.15,16.32,4.9,25.25,4.9,37.28,0,67.5-30.22,67.5-67.5S230.15,1.87,192.87,1.87Z"/>
  <path d="m189.27,74.81v-14.55h5.33c1.03,0,1.89.17,2.56.51.68.34,1.18.8,1.52,1.37.34.58.5,1.22.5,1.94,0,.61-.11,1.12-.33,1.53-.22.42-.52.75-.89,1-.37.25-.78.43-1.23.54v.14c.48.02.96.18,1.42.47s.84.69,1.15,1.22c.3.53.46,1.17.46,1.92s-.17,1.41-.52,2c-.35.59-.88,1.06-1.61,1.4-.72.34-1.65.51-2.78.51h-5.58Zm2.2-8.25h2.94c.49,0,.94-.09,1.33-.28s.71-.46.94-.8c.23-.34.35-.75.35-1.22,0-.6-.21-1.11-.63-1.51-.42-.41-1.07-.61-1.94-.61h-3v4.42Zm0,6.37h3.17c1.05,0,1.8-.2,2.26-.61s.68-.92.68-1.53c0-.46-.12-.88-.35-1.26-.23-.38-.56-.69-.99-.92s-.94-.34-1.52-.34h-3.25v4.66Z"/>
  <path d="m80.57,131.31h-2.33l5.23-14.55h2.54l5.23,14.55h-2.33l-4.11-11.9h-.11l-4.12,11.9Zm.39-5.7h7.56v1.85h-7.56v-1.85Z"/>
</svg>