<?xml version="1.0" encoding="UTF-8"?>
<svg id="Layer_1" data-name="Layer 1" xmlns="http://www.w3.org/2000/svg" xmlns:xlink="http://www.w3.org/1999/xlink" viewBox="0 0 300 300">
  <defs>
    <style>
      .cls-1 {
        clip-path: url(#clippath-4);
      }

      .cls-1, .cls-2, .cls-3, .cls-4, .cls-5 {
        fill: none;
      }

      .cls-2 {
        clip-path: url(#clippath-2);
      }

      .cls-6, .cls-7 {
        fill: #adff2f;
      }

      .cls-8 {
        fill: #c75c5c;
      }

      .cls-9 {
        fill: #a74b5c;
      }

      .cls-10 {
        fill: lime;
      }

      .cls-3 {
        clip-path: url(#clippath-3);
      }

      .cls-4 {
        clip-path: url(#clippath);
      }

      .cls-5 {
        clip-path: url(#clippath-1);
      }

      .cls-7 {
        stroke: lime;
        stroke-miterlimit: 10;
        stroke-width: 2px;
      }
    </style>
    <clipPath id="clippath">
      <circle class="cls-6" cx="504.24" cy="69.95" r="69"/>
    </clipPath>
    <clipPath id="clippath-1">
      <circle class="cls-6" cx="393.62" cy="201.02" r="69"/>
    </clipPath>
    <clipPath id="clippath-2">
      <circle class="cls-6" cx="124.87" cy="145.87" r="69"/>
    </clipPath>
    <clipPath id="clippath-3">
      <circle class="cls-6" cx="242.37" cy="143.37" r="34.5"/>
    </clipPath>
    <clipPath id="clippath-4">
      <circle class="cls-6" cx="34.37" cy="51.37" r="29.5"/>
    </clipPath>
  </defs>
  <g>
    <circle class="cls-6" cx="504.24" cy="69.95" r="69"/>
    <g class="cls-4">
      <line class="cls-7" x1="612.24" y1="-81.05" x2="293.74" y2="237.45"/>
      <line class="cls-7" x1="602.24" y1="-81.05" x2="283.74" y2="237.45"/>
      <line class="cls-7" x1="592.24" y1="-81.05" x2="273.74" y2="237.45"/>
      <line class="cls-7" x1="582.24" y1="-81.05" x2="263.74" y2="237.45"/>
      <line class="cls-7" x1="572.24" y1="-81.05" x2="253.74" y2="237.45"/>
      <line class="cls-7" x1="562.24" y1="-81.05" x2="243.74" y2="237.45"/>
      <line class="cls-7" x1="552.24" y1="-81.05" x2="233.74" y2="237.45"/>
      <line class="cls-7" x1="542.24" y1="-81.05" x2="223.74" y2="237.45"/>
    </g>
  </g>
  <g>
    <circle class="cls-6" cx="393.62" cy="201.02" r="69"/>
    <g class="cls-5">
      <line class="cls-7" x1="571.62" y1="50.02" x2="253.12" y2="368.52"/>
      <line class="cls-7" x1="561.62" y1="50.02" x2="243.12" y2="368.52"/>
      <line class="cls-7" x1="551.62" y1="50.02" x2="233.12" y2="368.52"/>
      <line class="cls-7" x1="541.62" y1="50.02" x2="223.12" y2="368.52"/>
      <line class="cls-7" x1="531.62" y1="50.02" x2="213.12" y2="368.52"/>
      <line class="cls-7" x1="521.62" y1="50.02" x2="203.12" y2="368.52"/>
      <line class="cls-7" x1="511.62" y1="50.02" x2="193.12" y2="368.52"/>
      <line class="cls-7" x1="501.62" y1="50.02" x2="183.12" y2="368.52"/>
      <line class="cls-7" x1="491.62" y1="50.02" x2="173.12" y2="368.52"/>
      <line class="cls-7" x1="481.62" y1="50.02" x2="163.12" y2="368.52"/>
      <line class="cls-7" x1="471.62" y1="50.02" x2="153.12" y2="368.52"/>
      <line class="cls-7" x1="461.62" y1="50.02" x2="143.12" y2="368.52"/>
      <line class="cls-7" x1="451.62" y1="50.02" x2="133.12" y2="368.52"/>
      <line class="cls-7" x1="441.62" y1="50.02" x2="123.12" y2="368.52"/>
      <line class="cls-7" x1="431.62" y1="50.02" x2="113.12" y2="368.52"/>
      <line class="cls-7" x1="571.62" y1="60.02" x2="253.12" y2="378.52"/>
      <line class="cls-7" x1="571.62" y1="70.02" x2="253.12" y2="388.52"/>
      <line class="cls-7" x1="571.62" y1="80.02" x2="253.12" y2="398.52"/>
      <line class="cls-7" x1="571.62" y1="90.02" x2="253.12" y2="408.52"/>
      <line class="cls-7" x1="571.62" y1="100.02" x2="253.12" y2="418.52"/>
      <line class="cls-7" x1="571.62" y1="110.02" x2="253.12" y2="428.52"/>
      <line class="cls-7" x1="571.62" y1="120.02" x2="253.12" y2="438.52"/>
      <line class="cls-7" x1="571.62" y1="130.02" x2="253.12" y2="448.52"/>
      <line class="cls-7" x1="571.62" y1="140.02" x2="253.12" y2="458.52"/>
    </g>
  </g>
  <g>
    <circle class="cls-6" cx="124.87" cy="145.87" r="69"/>
    <g class="cls-2">
      <g>
        <circle class="cls-6" cx="124.87" cy="145.87" r="68"/>
        <path class="cls-10" d="m124.87,78.87c36.94,0,67,30.06,67,67s-30.06,67-67,67-67-30.06-67-67,30.06-67,67-67m0-2c-38.11,0-69,30.89-69,69s30.89,69,69,69,69-30.89,69-69-30.89-69-69-69h0Z"/>
      </g>
      <line class="cls-7" x1="302.87" y1="-5.13" x2="-15.63" y2="313.37"/>
      <line class="cls-7" x1="292.87" y1="-5.13" x2="-25.63" y2="313.37"/>
      <line class="cls-7" x1="282.87" y1="-5.13" x2="-35.63" y2="313.37"/>
      <line class="cls-7" x1="272.87" y1="-5.13" x2="-45.63" y2="313.37"/>
      <line class="cls-7" x1="262.87" y1="-5.13" x2="-55.63" y2="313.37"/>
      <line class="cls-7" x1="252.87" y1="-5.13" x2="-65.63" y2="313.37"/>
      <line class="cls-7" x1="242.87" y1="-5.13" x2="-75.63" y2="313.37"/>
      <line class="cls-7" x1="232.87" y1="-5.13" x2="-85.63" y2="313.37"/>
      <line class="cls-7" x1="222.87" y1="-5.13" x2="-95.63" y2="313.37"/>
      <line class="cls-7" x1="212.87" y1="-5.13" x2="-105.63" y2="313.37"/>
      <line class="cls-7" x1="202.87" y1="-5.13" x2="-115.63" y2="313.37"/>
      <line class="cls-7" x1="192.87" y1="-5.13" x2="-125.63" y2="313.37"/>
      <line class="cls-7" x1="182.87" y1="-5.13" x2="-135.63" y2="313.37"/>
      <line class="cls-7" x1="172.87" y1="-5.13" x2="-145.63" y2="313.37"/>
      <line class="cls-7" x1="162.87" y1="-5.13" x2="-155.63" y2="313.37"/>
      <line class="cls-7" x1="302.87" y1="4.87" x2="-15.63" y2="323.37"/>
      <line class="cls-7" x1="302.87" y1="14.87" x2="-15.63" y2="333.37"/>
      <line class="cls-7" x1="302.87" y1="24.87" x2="-15.63" y2="343.37"/>
      <line class="cls-7" x1="302.87" y1="34.87" x2="-15.63" y2="353.37"/>
      <line class="cls-7" x1="302.87" y1="44.87" x2="-15.63" y2="363.37"/>
      <line class="cls-7" x1="302.87" y1="54.87" x2="-15.63" y2="373.37"/>
      <line class="cls-7" x1="302.87" y1="64.87" x2="-15.63" y2="383.37"/>
      <line class="cls-7" x1="302.87" y1="74.87" x2="-15.63" y2="393.37"/>
      <line class="cls-7" x1="302.87" y1="84.87" x2="-15.63" y2="403.37"/>
    </g>
  </g>
  <g>
    <circle class="cls-6" cx="242.37" cy="143.37" r="34.5"/>
    <g class="cls-3">
      <g>
        <circle class="cls-6" cx="242.37" cy="143.37" r="33.5"/>
        <path class="cls-10" d="m242.37,110.87c17.92,0,32.5,14.58,32.5,32.5s-14.58,32.5-32.5,32.5-32.5-14.58-32.5-32.5,14.58-32.5,32.5-32.5m0-2c-19.05,0-34.5,15.45-34.5,34.5s15.45,34.5,34.5,34.5,34.5-15.45,34.5-34.5-15.45-34.5-34.5-34.5h0Z"/>
      </g>
      <line class="cls-7" x1="302.87" y1="94.87" x2="-15.63" y2="413.37"/>
      <line class="cls-7" x1="302.87" y1="84.87" x2="-15.63" y2="403.37"/>
      <line class="cls-7" x1="302.87" y1="74.87" x2="-15.63" y2="393.37"/>
      <line class="cls-7" x1="302.87" y1="64.87" x2="-15.63" y2="383.37"/>
      <line class="cls-7" x1="302.87" y1="54.87" x2="-15.63" y2="373.37"/>
      <line class="cls-7" x1="302.87" y1="44.87" x2="-15.63" y2="363.37"/>
      <line class="cls-7" x1="302.87" y1="34.87" x2="-15.63" y2="353.37"/>
      <line class="cls-7" x1="302.87" y1="24.87" x2="-15.63" y2="343.37"/>
      <line class="cls-7" x1="302.87" y1="104.87" x2="-15.63" y2="423.37"/>
      <line class="cls-7" x1="302.87" y1="114.87" x2="-15.63" y2="433.37"/>
      <line class="cls-7" x1="302.87" y1="124.87" x2="-15.63" y2="443.37"/>
      <line class="cls-7" x1="302.87" y1="134.87" x2="-15.63" y2="453.37"/>
      <line class="cls-7" x1="302.87" y1="144.87" x2="-15.63" y2="463.37"/>
      <line class="cls-7" x1="302.87" y1="154.87" x2="-15.63" y2="473.37"/>
      <line class="cls-7" x1="302.87" y1="164.87" x2="-15.63" y2="483.37"/>
    </g>
  </g>
  <g>
    <circle class="cls-8" cx="228.37" cy="247.37" r="37.5"/>
    <path class="cls-9" d="m228.37,210.87c20.13,0,36.5,16.37,36.5,36.5s-16.37,36.5-36.5,36.5-36.5-16.37-36.5-36.5,16.37-36.5,36.5-36.5m0-2c-21.26,0-38.5,17.24-38.5,38.5s17.24,38.5,38.5,38.5,38.5-17.24,38.5-38.5-17.24-38.5-38.5-38.5h0Z"/>
  </g>
  <g>
    <circle class="cls-8" cx="204.37" cy="45.37" r="43.5"/>
    <path class="cls-9" d="m204.37,2.87c23.43,0,42.5,19.07,42.5,42.5s-19.07,42.5-42.5,42.5-42.5-19.07-42.5-42.5S180.93,2.87,204.37,2.87m0-2c-24.58,0-44.5,19.92-44.5,44.5s19.92,44.5,44.5,44.5,44.5-19.92,44.5-44.5S228.94.87,204.37.87h0Z"/>
  </g>
  <g>
    <circle class="cls-6" cx="34.37" cy="51.37" r="29.5"/>
    <g class="cls-1">
      <g>
        <circle class="cls-6" cx="34.37" cy="51.37" r="28.5"/>
        <path class="cls-10" d="m34.37,23.87c15.16,0,27.5,12.34,27.5,27.5s-12.34,27.5-27.5,27.5-27.5-12.34-27.5-27.5,12.34-27.5,27.5-27.5m0-2c-16.29,0-29.5,13.21-29.5,29.5s13.21,29.5,29.5,29.5,29.5-13.21,29.5-29.5-13.21-29.5-29.5-29.5h0Z"/>
      </g>
      <line class="cls-7" x1="152.87" y1="-5.13" x2="-165.63" y2="313.37"/>
      <line class="cls-7" x1="142.87" y1="-5.13" x2="-175.63" y2="313.37"/>
      <line class="cls-7" x1="132.87" y1="-5.13" x2="-185.63" y2="313.37"/>
      <line class="cls-7" x1="122.87" y1="-5.13" x2="-195.63" y2="313.37"/>
      <line class="cls-7" x1="112.87" y1="-5.13" x2="-205.63" y2="313.37"/>
      <line class="cls-7" x1="102.87" y1="-5.13" x2="-215.63" y2="313.37"/>
      <line class="cls-7" x1="92.87" y1="-5.13" x2="-225.63" y2="313.37"/>
      <line class="cls-7" x1="82.87" y1="-5.13" x2="-235.63" y2="313.37"/>
      <line class="cls-7" x1="72.87" y1="-5.13" x2="-245.63" y2="313.37"/>
      <line class="cls-7" x1="62.87" y1="-5.13" x2="-255.63" y2="313.37"/>
      <line class="cls-7" x1="52.87" y1="-5.13" x2="-265.63" y2="313.37"/>
      <line class="cls-7" x1="42.87" y1="-5.13" x2="-275.63" y2="313.37"/>
      <line class="cls-7" x1="32.87" y1="-5.13" x2="-285.63" y2="313.37"/>
      <line class="cls-7" x1="22.87" y1="-5.13" x2="-295.63" y2="313.37"/>
    </g>
  </g>
  <g>
    <circle class="cls-8" cx="43.87" cy="247.37" r="42"/>
    <path class="cls-9" d="m43.87,206.37c22.61,0,41,18.39,41,41s-18.39,41-41,41S2.87,269.98,2.87,247.37s18.39-41,41-41m0-2c-23.75,0-43,19.25-43,43s19.25,43,43,43,43-19.25,43-43-19.25-43-43-43h0Z"/>
  </g>
</svg>