<?xml version="1.0" encoding="UTF-8"?>
<svg xmlns="http://www.w3.org/2000/svg" viewBox="0 0 145.77 117">
  <defs>
    <style>
      .cls-1 {
        fill: #fff;
      }

      .cls-2 {
        opacity: .4;
      }

      .cls-2, .cls-3, .cls-4 {
        fill: #d1ae59;
      }

      .cls-3 {
        opacity: .3;
      }

      .cls-5 {
        fill: none;
        stroke: #d1ae59;
        stroke-miterlimit: 10;
        stroke-width: 2px;
      }
    </style>
  </defs>
  <g id="Layer_1" data-name="Layer 1">
    <circle class="cls-4" cx="3.62" cy="112.93" r="3.62"/>
    <circle class="cls-4" cx="91.88" cy="109.3" r="3.62"/>
    <circle class="cls-4" cx="132.03" cy="62.3" r="3.62"/>
    <circle class="cls-4" cx="37.09" cy="7.6" r="3.62"/>
    <path class="cls-1" d="m13.06,116.55h-1.54l3.46-9.62h1.68l3.46,9.62h-1.54l-2.72-7.87h-.08l-2.72,7.87Zm.26-3.77h5v1.22h-5v-1.22Z"/>
    <path class="cls-1" d="m101.22,108.17v-9.62h3.52c.68,0,1.25.11,1.7.34.45.22.78.53,1,.91s.33.81.33,1.28c0,.4-.07.74-.22,1.01-.15.27-.34.49-.59.66-.25.17-.52.28-.81.36v.09c.32.02.63.12.94.31.3.19.56.46.76.81.2.35.3.77.3,1.27s-.12.93-.34,1.32c-.23.39-.58.7-1.06.92-.48.23-1.09.34-1.84.34h-3.69Zm1.45-5.46h1.95c.33,0,.62-.06.88-.19.26-.12.47-.3.62-.53.16-.23.23-.5.23-.81,0-.4-.14-.73-.42-1-.28-.27-.71-.4-1.28-.4h-1.98v2.93Zm0,4.21h2.09c.7,0,1.19-.13,1.49-.4s.45-.61.45-1.01c0-.3-.08-.58-.23-.84-.15-.25-.37-.46-.66-.61s-.62-.23-1.01-.23h-2.15v3.08Z"/>
    <path class="cls-1" d="m145.77,49.68h-1.46c-.06-.31-.16-.59-.31-.83-.15-.24-.34-.44-.56-.61-.22-.17-.47-.29-.74-.38-.27-.08-.56-.13-.87-.13-.55,0-1.05.14-1.49.42-.44.28-.78.69-1.03,1.23-.25.54-.38,1.2-.38,1.97s.13,1.44.38,1.98c.25.54.6.95,1.04,1.22s.93.41,1.48.41c.3,0,.59-.04.87-.12.27-.08.52-.21.75-.37.22-.16.41-.36.57-.6.16-.24.26-.51.32-.81h1.46c-.08.48-.23.91-.45,1.31-.22.4-.51.74-.86,1.02-.35.29-.75.51-1.2.66-.45.16-.94.24-1.47.24-.83,0-1.57-.2-2.23-.59-.65-.4-1.16-.96-1.54-1.7-.37-.74-.56-1.62-.56-2.64s.19-1.91.56-2.65.89-1.3,1.54-1.7c.65-.4,1.39-.59,2.22-.59.51,0,.99.07,1.43.22s.84.36,1.2.64.65.62.88,1.02c.23.4.39.86.47,1.38Z"/>
    <path class="cls-1" d="m29.53,5.34c0,1.03-.19,1.91-.56,2.65-.38.74-.89,1.3-1.54,1.7-.65.4-1.39.59-2.22.59s-1.58-.2-2.23-.59c-.65-.4-1.17-.96-1.54-1.7s-.56-1.62-.56-2.64.19-1.91.56-2.65.89-1.3,1.54-1.7c.65-.4,1.4-.59,2.23-.59s1.57.2,2.22.59c.65.4,1.17.96,1.54,1.7.38.74.56,1.62.56,2.65Zm-1.44,0c0-.78-.13-1.44-.38-1.98s-.6-.94-1.03-1.22c-.44-.28-.93-.42-1.48-.42s-1.05.14-1.48.42-.78.68-1.03,1.22c-.25.54-.38,1.2-.38,1.98s.13,1.44.38,1.98c.25.54.6.94,1.03,1.22.44.28.93.42,1.48.42s1.04-.14,1.48-.42c.44-.28.78-.68,1.03-1.22s.38-1.2.38-1.98Z"/>
    <polyline class="cls-5" points="3.43 112.93 36.99 7.42 133.28 62.91 36.99 7.42"/>
    <line class="cls-5" x1="36.99" y1="7.42" x2="91.85" y2="109.24"/>
  </g>
  <g id="Layer_2" data-name="Layer 2">
    <polygon class="cls-2" points="36.99 7.42 128.89 60.49 90.17 106.11 36.99 7.42"/>
    <polygon class="cls-3" points="36.99 7.42 4.49 109.58 90.17 106.11 36.99 7.42"/>
  </g>
</svg>