<?xml version="1.0" encoding="utf-8"?>
<!-- Generator: Adobe Illustrator 27.6.1, SVG Export Plug-In . SVG Version: 6.00 Build 0)  -->
<svg version="1.1" id="Layer_1" xmlns="http://www.w3.org/2000/svg" xmlns:xlink="http://www.w3.org/1999/xlink" x="0px" y="0px"
	 viewBox="0 0 300.5 190.5" style="enable-background:new 0 0 300.5 190.5;" xml:space="preserve">
<style type="text/css">
	.st0{fill:none;stroke:#D1AE59;stroke-width:2;stroke-miterlimit:10;}
	.st1{fill:#FFFFFF;}
	.st2{opacity:0.3;fill:none;stroke:#BDCCD4;stroke-width:0.5;stroke-miterlimit:10;enable-background:new    ;}
	.st3{fill:none;stroke:#FFFFFF;stroke-width:2;stroke-miterlimit:10;}
	.st4{fill:none;stroke:#FFFFFF;stroke-miterlimit:10;}
</style>
<g id="Layer_3">
	<path class="st0" d="M30.8,109.9c13.4,26.4,27.3,30.4,40,30.4c13.8,0,26.8-5.1,40.5-30.4c13.5-25,26.7-29.6,39.5-29.6
		s27.5,4.8,40,29.6c12.1,24,27.3,30.4,40,30.4s27.9-7.4,39.5-30.4c3.4-6.7,7-11.5,10.3-14.8"/>
	<g>
		<path class="st1" d="M11.9,22.1c-0.2,0-0.4,0-0.5,0S11.1,22,11,21.9l0.3-1c0.2,0.1,0.4,0.1,0.6,0.1c0.2,0,0.3-0.1,0.5-0.2
			c0.1-0.1,0.3-0.3,0.4-0.6l0.2-0.4l-2.4-6.6h1.4l1.7,5.1h0.1l1.7-5.1h1.4L14,20.5c-0.1,0.3-0.3,0.6-0.5,0.9s-0.4,0.4-0.7,0.5
			C12.5,22,12.2,22.1,11.9,22.1L11.9,22.1z"/>
		<path class="st1" d="M21.4,16c0-1.1,0.1-2.1,0.4-2.9s0.7-1.7,1.2-2.5h1.2c-0.2,0.3-0.4,0.6-0.6,1s-0.3,0.9-0.5,1.3
			c-0.1,0.5-0.2,1-0.3,1.5s-0.1,1-0.1,1.5c0,0.7,0.1,1.4,0.2,2c0.1,0.7,0.3,1.3,0.5,1.9c0.2,0.6,0.5,1.1,0.8,1.5h-1.2
			c-0.5-0.8-1-1.6-1.2-2.5C21.5,18,21.4,17.1,21.4,16L21.4,16z"/>
		<path class="st1" d="M26.6,13.1l1.4,2.6l1.5-2.6h1.4l-2,3.3l2.1,3.3h-1.4L28,17.2l-1.5,2.5h-1.4l2-3.3l-2-3.3H26.6L26.6,13.1z"/>
		<path class="st1" d="M34.6,16c0,1.1-0.1,2.1-0.4,3c-0.3,0.9-0.7,1.7-1.2,2.5h-1.2c0.2-0.3,0.4-0.6,0.6-1s0.3-0.9,0.5-1.3
			c0.1-0.5,0.2-1,0.3-1.5c0.1-0.5,0.1-1,0.1-1.5c0-0.7-0.1-1.4-0.2-2.1c-0.1-0.7-0.3-1.3-0.5-1.9s-0.5-1.1-0.8-1.4H33
			c0.5,0.8,1,1.6,1.2,2.5C34.5,13.9,34.6,14.9,34.6,16L34.6,16z"/>
		<path class="st1" d="M40.3,15.4v-1.1h5.5v1.1H40.3z M40.3,18v-1.1h5.5V18H40.3z"/>
		<path class="st1" d="M53.8,19.8c-0.6,0-1.2-0.1-1.6-0.4c-0.5-0.3-0.8-0.7-1-1.2c-0.2-0.5-0.4-1.1-0.4-1.8s0.1-1.2,0.4-1.8
			s0.6-0.9,1.1-1.2c0.5-0.3,1-0.4,1.6-0.4c0.5,0,0.9,0.1,1.3,0.3c0.4,0.2,0.7,0.4,0.9,0.8c0.2,0.3,0.4,0.7,0.4,1.1h-1.2
			c-0.1-0.3-0.2-0.6-0.5-0.8c-0.2-0.2-0.6-0.3-1-0.3c-0.3,0-0.7,0.1-0.9,0.3s-0.5,0.4-0.6,0.8s-0.2,0.8-0.2,1.2
			c0,0.5,0.1,0.9,0.2,1.2c0.1,0.4,0.3,0.6,0.6,0.8s0.6,0.3,0.9,0.3c0.2,0,0.5,0,0.7-0.1c0.2-0.1,0.4-0.2,0.5-0.4s0.2-0.4,0.3-0.6
			h1.2c0,0.4-0.2,0.8-0.4,1.1s-0.5,0.6-0.9,0.8S54.4,19.8,53.8,19.8L53.8,19.8z"/>
		<path class="st1" d="M60.6,19.8c-0.6,0-1.2-0.1-1.6-0.4s-0.8-0.7-1.1-1.2c-0.2-0.5-0.4-1.1-0.4-1.8s0.1-1.3,0.4-1.8
			c0.2-0.5,0.6-0.9,1.1-1.2s1-0.4,1.6-0.4s1.2,0.1,1.6,0.4s0.8,0.7,1.1,1.2c0.2,0.5,0.4,1.1,0.4,1.8s-0.1,1.3-0.4,1.8
			c-0.2,0.5-0.6,0.9-1.1,1.2S61.3,19.8,60.6,19.8z M60.6,18.7c0.4,0,0.7-0.1,1-0.3c0.3-0.2,0.5-0.5,0.6-0.8c0.1-0.4,0.2-0.7,0.2-1.1
			s-0.1-0.8-0.2-1.1c-0.1-0.4-0.3-0.6-0.6-0.9c-0.3-0.2-0.6-0.3-1-0.3s-0.7,0.1-1,0.3c-0.3,0.2-0.5,0.5-0.6,0.9
			c-0.1,0.4-0.2,0.7-0.2,1.1s0.1,0.8,0.2,1.1c0.1,0.4,0.3,0.6,0.6,0.8C59.9,18.6,60.2,18.7,60.6,18.7z"/>
		<path class="st1" d="M70,14.7l-1.2,0.2c-0.1-0.1-0.1-0.3-0.2-0.4c-0.1-0.1-0.2-0.2-0.4-0.3S67.8,14,67.5,14
			c-0.4,0-0.7,0.1-0.9,0.2s-0.4,0.4-0.4,0.6c0,0.2,0.1,0.4,0.2,0.5c0.2,0.1,0.4,0.2,0.8,0.3l1,0.2c0.6,0.1,1.1,0.4,1.3,0.6
			c0.3,0.3,0.4,0.7,0.4,1.1c0,0.4-0.1,0.7-0.3,1c-0.2,0.3-0.5,0.5-0.9,0.7c-0.4,0.2-0.9,0.3-1.4,0.3c-0.7,0-1.3-0.2-1.8-0.5
			s-0.8-0.8-0.8-1.3l1.2-0.2c0.1,0.3,0.2,0.6,0.5,0.7c0.2,0.2,0.6,0.2,0.9,0.2c0.4,0,0.8-0.1,1-0.3s0.4-0.4,0.4-0.6
			c0-0.2-0.1-0.4-0.2-0.5c-0.2-0.1-0.4-0.2-0.7-0.3l-1.1-0.2c-0.6-0.1-1.1-0.4-1.3-0.7c-0.3-0.3-0.4-0.7-0.4-1.1
			c0-0.4,0.1-0.7,0.3-1c0.2-0.3,0.5-0.5,0.9-0.7S67,13,67.5,13c0.7,0,1.3,0.1,1.7,0.5C69.6,13.8,69.9,14.2,70,14.7L70,14.7z"/>
		<path class="st1" d="M75.7,13.1l1.4,2.6l1.5-2.6H80l-2,3.3l2.1,3.3h-1.4l-1.5-2.5l-1.5,2.5h-1.4l2-3.3l-2-3.3H75.7L75.7,13.1z"/>
	</g>
	<path class="st0" d="M30.8,109.9c0,0-10.5-17.4-20.5-25.2"/>
</g>
<g id="Layer_1_00000045597118227221563350000003284889038152733883_">
	<line class="st2" x1="300.5" y1="80.3" x2="-0.1" y2="80.3"/>
	<line class="st2" x1="300.5" y1="100.3" x2="-0.1" y2="100.3"/>
	<line class="st2" x1="300.5" y1="90.3" x2="-0.1" y2="90.3"/>
	<line class="st2" x1="270.2" y1="0" x2="270.2" y2="190.5"/>
	<line class="st2" x1="280.2" y1="0" x2="280.2" y2="190.5"/>
	<line class="st2" x1="70.2" y1="0.2" x2="70.2" y2="109.9"/>
	<line class="st2" x1="60.2" y1="0.2" x2="60.2" y2="109.9"/>
	<line class="st2" x1="50.2" y1="0.2" x2="50.2" y2="109.9"/>
	<line class="st2" x1="40.2" y1="0.2" x2="40.2" y2="109.9"/>
	<line class="st2" x1="30.2" y1="0.2" x2="30.2" y2="109.9"/>
	<line class="st2" x1="20.2" y1="0.2" x2="20.2" y2="109.9"/>
	<line class="st2" x1="10.2" y1="0.2" x2="10.2" y2="109.9"/>
	<line class="st2" x1="300.2" y1="10.3" x2="-0.1" y2="10.3"/>
	<line class="st2" x1="300.2" y1="20.3" x2="-0.1" y2="20.3"/>
	<line class="st2" x1="300.5" y1="30.3" x2="-0.1" y2="30.3"/>
	<line class="st2" x1="300.5" y1="40.3" x2="-0.1" y2="40.3"/>
	<line class="st2" x1="300.5" y1="50.3" x2="-0.1" y2="50.3"/>
	<line class="st2" x1="300.5" y1="60.3" x2="-0.1" y2="60.3"/>
	<line class="st2" x1="300.5" y1="70.3" x2="-0.1" y2="70.3"/>
	<line class="st2" x1="300.5" y1="0.3" x2="0" y2="0.3"/>
	<line class="st2" x1="300.5" y1="150.3" x2="-0.1" y2="150.3"/>
	<line class="st2" x1="300.5" y1="160.3" x2="-0.1" y2="160.3"/>
	<line class="st2" x1="300.5" y1="170.3" x2="-0.1" y2="170.3"/>
	<line class="st2" x1="300.5" y1="180.3" x2="-0.1" y2="180.3"/>
	<line class="st2" x1="300.2" y1="190.3" x2="0" y2="190.3"/>
	<line class="st2" x1="300.5" y1="140.3" x2="-0.1" y2="140.3"/>
	<line class="st2" x1="300.5" y1="130.3" x2="-0.1" y2="130.3"/>
	<line class="st2" x1="300.5" y1="120.3" x2="-0.1" y2="120.3"/>
	<line class="st2" x1="300.5" y1="110.3" x2="-0.1" y2="110.3"/>
	<line class="st2" x1="80.2" y1="0.2" x2="80.2" y2="109.9"/>
	<line class="st2" x1="90.2" y1="0.2" x2="90.2" y2="109.9"/>
	<line class="st2" x1="100.2" y1="0.2" x2="100.2" y2="109.9"/>
	<line class="st2" x1="110.2" y1="0.2" x2="110.2" y2="109.9"/>
	<line class="st2" x1="120.2" y1="0.2" x2="120.2" y2="109.9"/>
	<line class="st2" x1="130.2" y1="0.2" x2="130.2" y2="109.9"/>
	<line class="st2" x1="140.2" y1="0.2" x2="140.2" y2="109.9"/>
	<line class="st2" x1="70.2" y1="60.4" x2="70.2" y2="190.5"/>
	<line class="st2" x1="60.2" y1="60.4" x2="60.2" y2="190.5"/>
	<line class="st2" x1="50.2" y1="60.4" x2="50.2" y2="190.5"/>
	<line class="st2" x1="40.2" y1="60.4" x2="40.2" y2="190.5"/>
	<line class="st2" x1="30.2" y1="60.4" x2="30.2" y2="190.5"/>
	<line class="st2" x1="20.2" y1="60.4" x2="20.2" y2="190.5"/>
	<line class="st2" x1="10.2" y1="60.4" x2="10.2" y2="190.5"/>
	<line class="st2" x1="0.2" y1="0" x2="0.2" y2="190.5"/>
	<line class="st2" x1="80.2" y1="60.4" x2="80.2" y2="190.5"/>
	<line class="st2" x1="90.2" y1="60.4" x2="90.2" y2="190.5"/>
	<line class="st2" x1="100.2" y1="60.4" x2="100.2" y2="190.5"/>
	<line class="st2" x1="110.2" y1="60.4" x2="110.2" y2="190.5"/>
	<line class="st2" x1="120.2" y1="60.4" x2="120.2" y2="190.5"/>
	<line class="st2" x1="130.2" y1="60.4" x2="130.2" y2="190.5"/>
	<line class="st2" x1="140.2" y1="60.4" x2="140.2" y2="190.5"/>
	<line class="st2" x1="150.2" y1="0" x2="150.2" y2="190.5"/>
	<line class="st2" x1="160.2" y1="0" x2="160.2" y2="190.5"/>
	<line class="st2" x1="170.2" y1="0" x2="170.2" y2="190.5"/>
	<line class="st2" x1="180.2" y1="0" x2="180.2" y2="190.5"/>
	<line class="st2" x1="190.2" y1="0" x2="190.2" y2="190.5"/>
	<line class="st2" x1="200.2" y1="0" x2="200.2" y2="190.5"/>
	<line class="st2" x1="210.2" y1="0" x2="210.2" y2="190.5"/>
	<line class="st2" x1="220.2" y1="0" x2="220.2" y2="190.5"/>
	<line class="st2" x1="230.2" y1="0" x2="230.2" y2="190.5"/>
	<line class="st2" x1="240.2" y1="0" x2="240.2" y2="190.5"/>
	<line class="st2" x1="250.2" y1="0" x2="250.2" y2="190.5"/>
	<line class="st2" x1="260.2" y1="0" x2="260.2" y2="190.5"/>
	<line class="st2" x1="290.2" y1="0" x2="290.2" y2="190.5"/>
	<line class="st2" x1="300.2" y1="0" x2="300.2" y2="190.6"/>
	<line class="st3" x1="150.7" y1="20.3" x2="150.7" y2="180.3"/>
	<line class="st3" x1="10.2" y1="109.9" x2="280.2" y2="109.9"/>
	<polygon class="st1" points="286.1,110.3 280.2,106.8 280.2,113.7 	"/>
	<polygon class="st1" points="150.7,14.3 147.3,20.3 154.1,20.3 	"/>
	<line class="st4" x1="190.2" y1="106.4" x2="190.2" y2="113.3"/>
	<line class="st4" x1="230.2" y1="106.4" x2="230.2" y2="113.3"/>
	<line class="st4" x1="70.2" y1="106.4" x2="70.2" y2="113.3"/>
	<line class="st4" x1="110.2" y1="106.4" x2="110.2" y2="113.3"/>
	<line class="st4" x1="154.1" y1="80.3" x2="147.3" y2="80.3"/>
	<line class="st4" x1="153.8" y1="140.3" x2="147" y2="140.3"/>
	<path class="st1" d="M281.7,117l1.4,2.6l1.5-2.6h1.4l-2,3.3l2.1,3.3h-1.4l-1.5-2.4l-1.5,2.4h-1.4l2-3.3l-2-3.3H281.7L281.7,117
		L281.7,117z"/>
	<path class="st1" d="M139.6,24.1c-0.2,0-0.4,0-0.5,0s-0.3-0.1-0.4-0.1l0.3-1c0.2,0.1,0.4,0.1,0.6,0.1c0.2,0,0.3-0.1,0.5-0.2
		c0.1-0.1,0.3-0.3,0.4-0.6l0.2-0.4l-2.4-6.6h1.4l1.7,5.1h0.1l1.7-5.1h1.4l-2.7,7.4c-0.1,0.3-0.3,0.6-0.5,0.9s-0.4,0.4-0.7,0.5
		S139.9,24.1,139.6,24.1L139.6,24.1L139.6,24.1L139.6,24.1z"/>
	<path class="st1" d="M144.9,75.9v8.7h-1.3v-7.4h-0.1l-2.1,1.4v-1.3l2.2-1.4H144.9L144.9,75.9z"/>
	<path class="st1" d="M143,121.9c-0.7,0-1.2-0.2-1.7-0.5s-0.8-0.9-1.1-1.5c-0.2-0.7-0.4-1.5-0.4-2.4s0.1-1.8,0.4-2.4
		s0.6-1.2,1.1-1.5c0.5-0.3,1.1-0.5,1.7-0.5s1.2,0.2,1.7,0.5s0.8,0.9,1.1,1.5s0.4,1.5,0.4,2.4s-0.1,1.8-0.4,2.4
		c-0.2,0.7-0.6,1.2-1.1,1.5C144.3,121.7,143.7,121.9,143,121.9L143,121.9L143,121.9z M143,120.7c0.6,0,1.1-0.3,1.4-0.9
		c0.3-0.6,0.5-1.4,0.5-2.5c0-0.7-0.1-1.3-0.2-1.8s-0.4-0.9-0.6-1.1s-0.6-0.4-1-0.4c-0.6,0-1.1,0.3-1.4,0.9c-0.3,0.6-0.5,1.4-0.5,2.5
		c0,0.7,0.1,1.3,0.2,1.8s0.4,0.9,0.6,1.1S142.6,120.7,143,120.7L143,120.7z"/>
	<g>
		<path class="st1" d="M159.6,139.8v1.1h-3.9v-1.1H159.6z"/>
		<path class="st1" d="M164.6,135.3v8.7h-1.3v-7.4h-0.1l-2.1,1.4v-1.3l2.2-1.4H164.6L164.6,135.3z"/>
	</g>
	<g>
		<path class="st1" d="M194,115.3v1.1h-6.7v-1.1H194z M189.5,115.3v6.6h-1.3v-6.6H189.5z M191.8,115.3h1.3v4.8c0,0.2,0,0.3,0.1,0.4
			s0.2,0.2,0.3,0.2c0.1,0,0.2,0.1,0.4,0.1c0.1,0,0.2,0,0.3,0c0.1,0,0.2,0,0.2,0v1.1c-0.1,0-0.2,0.1-0.4,0.1c-0.2,0-0.3,0.1-0.6,0.1
			c-0.5,0-0.8-0.1-1.1-0.4c-0.3-0.3-0.4-0.7-0.4-1.4V115.3z"/>
		<path class="st1" d="M187.6,133.9v-0.9l2.9-3.1c0.3-0.3,0.6-0.6,0.8-0.9c0.2-0.2,0.4-0.5,0.5-0.7s0.1-0.5,0.1-0.7
			c0-0.3-0.1-0.5-0.2-0.8s-0.3-0.4-0.6-0.5c-0.2-0.1-0.5-0.2-0.8-0.2c-0.3,0-0.6,0.1-0.8,0.2c-0.2,0.1-0.4,0.3-0.5,0.5
			c-0.1,0.2-0.2,0.5-0.2,0.8h-1.3c0-0.5,0.1-1,0.4-1.4c0.2-0.4,0.6-0.7,1-0.9s0.9-0.3,1.4-0.3s1,0.1,1.4,0.3s0.8,0.5,1,0.9
			c0.2,0.4,0.4,0.8,0.4,1.3c0,0.3-0.1,0.6-0.2,1s-0.3,0.6-0.6,1s-0.7,0.8-1.2,1.4l-1.7,1.8v0.1h3.9v1.1L187.6,133.9L187.6,133.9z"/>
	</g>
	<g>
		<path class="st1" d="M114.4,115.3v1.1h-6.7v-1.1H114.4z M110,115.3v6.6h-1.3v-6.6H110z M112.2,115.3h1.3v4.8c0,0.2,0,0.3,0.1,0.4
			s0.2,0.2,0.3,0.2c0.1,0,0.2,0.1,0.4,0.1c0.1,0,0.2,0,0.3,0c0.1,0,0.2,0,0.2,0v1.1c-0.1,0-0.2,0.1-0.4,0.1c-0.2,0-0.3,0.1-0.6,0.1
			c-0.5,0-0.8-0.1-1.1-0.4c-0.3-0.3-0.4-0.7-0.4-1.4V115.3z"/>
		<path class="st1" d="M108,133.9v-0.9l2.9-3.1c0.3-0.3,0.6-0.6,0.8-0.9c0.2-0.2,0.4-0.5,0.5-0.7s0.2-0.5,0.2-0.7
			c0-0.3-0.1-0.5-0.2-0.8s-0.3-0.4-0.6-0.5c-0.2-0.1-0.5-0.2-0.8-0.2c-0.3,0-0.6,0.1-0.8,0.2c-0.2,0.1-0.4,0.3-0.5,0.5
			c-0.1,0.2-0.2,0.5-0.2,0.8H108c0-0.5,0.1-1,0.4-1.4c0.2-0.4,0.6-0.7,1-0.9s0.9-0.3,1.4-0.3s1,0.1,1.4,0.3s0.8,0.5,1,0.9
			c0.2,0.4,0.3,0.8,0.3,1.3c0,0.3-0.1,0.6-0.2,1s-0.3,0.6-0.6,1c-0.3,0.4-0.7,0.8-1.2,1.4l-1.7,1.8v0.1h3.9v1.1L108,133.9L108,133.9
			z"/>
	</g>
	<path class="st1" d="M234.3,115.4v1.1h-6.7v-1.1H234.3z M229.8,115.4v6.6h-1.3v-6.6H229.8z M232,115.4h1.3v4.8c0,0.2,0,0.3,0.1,0.4
		s0.2,0.2,0.3,0.2c0.1,0,0.2,0.1,0.4,0.1c0.1,0,0.2,0,0.3,0c0.1,0,0.2,0,0.2,0v1.1c-0.1,0-0.2,0.1-0.4,0.1c-0.2,0-0.3,0.1-0.6,0.1
		c-0.5,0-0.8-0.1-1.1-0.4c-0.3-0.3-0.4-0.7-0.4-1.4V115.4z"/>
	<path class="st1" d="M74.7,118.5v1.1h-6.7v-1.1H74.7z M70.2,118.5v6.6h-1.3v-6.6H70.2z M72.4,118.5h1.3v4.8c0,0.2,0,0.3,0.1,0.4
		s0.2,0.2,0.3,0.2c0.1,0,0.2,0.1,0.4,0.1c0.1,0,0.2,0,0.3,0c0.1,0,0.2,0,0.2,0v1.1c-0.1,0-0.2,0.1-0.4,0.1c-0.2,0-0.3,0.1-0.6,0.1
		c-0.5,0-0.8-0.1-1.1-0.4c-0.3-0.3-0.4-0.7-0.4-1.4V118.5z"/>
</g>
<rect x="107" y="123.2" class="st1" width="8.1" height="1.1"/>
<rect x="186.3" y="123.2" class="st1" width="8.1" height="1.1"/>
</svg>
