<?xml version="1.0" encoding="UTF-8"?>
<svg id="Layer_1" data-name="Layer 1" xmlns="http://www.w3.org/2000/svg" viewBox="0 0 300 300">
  <defs>
    <style>
      .cls-1 {
        fill: #fff;
      }

      .cls-2 {
        fill: #c75c5c;
      }

      .cls-3 {
        stroke: #fff;
      }

      .cls-3, .cls-4 {
        fill: none;
        stroke-miterlimit: 10;
        stroke-width: 2px;
      }

      .cls-5 {
        fill: #d1ae59;
      }

      .cls-4 {
        stroke: #c75c5c;
      }
    </style>
  </defs>
  <line class="cls-4" x1="251" y1="44" x2="251" y2="294"/>
  <path class="cls-5" d="m143.17,55.17c58.17,0,105.5,47.33,105.5,105.5s-47.33,105.5-105.5,105.5-105.5-47.33-105.5-105.5,47.33-105.5,105.5-105.5m0-2c-59.37,0-107.5,48.13-107.5,107.5s48.13,107.5,107.5,107.5,107.5-48.13,107.5-107.5-48.13-107.5-107.5-107.5h0Z"/>
  <line class="cls-3" x1="143.17" y1="39" x2="143.17" y2="294"/>
  <line class="cls-3" x1="12" y1="160.67" x2="281" y2="160.67"/>
  <polygon class="cls-1" points="143.17 30 137.97 39 148.36 39 143.17 30"/>
  <polygon class="cls-1" points="289.5 160.67 280.5 155.47 280.5 165.86 289.5 160.67"/>
  <g>
    <path class="cls-1" d="m139.87,6.68v1.45h-5.07v-1.45h5.07Zm-3.71-2.22h1.81v8.77c0,.35.05.61.16.79.1.18.24.29.41.36s.35.09.55.09c.14,0,.27-.01.38-.03.11-.02.19-.04.25-.05l.33,1.49c-.1.04-.25.08-.45.12-.19.04-.44.07-.72.07-.48,0-.92-.08-1.33-.25-.41-.18-.74-.45-1-.82-.25-.37-.38-.84-.38-1.39V4.46Z"/>
    <path class="cls-1" d="m145.75,19.62c-.74,0-1.37-.1-1.9-.29s-.96-.45-1.29-.77c-.33-.32-.58-.67-.75-1.04l1.55-.64c.11.18.25.37.44.56.18.2.43.37.75.51.32.14.72.21,1.22.21.68,0,1.25-.17,1.7-.5.45-.33.67-.86.67-1.58v-1.82h-.11c-.11.2-.26.42-.47.66s-.48.45-.84.63c-.35.18-.82.27-1.38.27-.73,0-1.39-.17-1.98-.52-.59-.34-1.05-.85-1.39-1.53-.34-.67-.51-1.5-.51-2.49s.17-1.83.5-2.54c.34-.7.8-1.25,1.38-1.62.59-.38,1.25-.56,2-.56.58,0,1.04.1,1.39.29.35.19.63.41.83.67s.35.48.46.67h.13v-1.5h1.77v9.48c0,.8-.19,1.45-.56,1.96-.37.51-.87.89-1.5,1.13-.63.25-1.34.37-2.13.37Zm-.02-5.31c.52,0,.96-.12,1.32-.37.36-.24.63-.59.82-1.05.19-.46.28-1,.28-1.65s-.09-1.17-.28-1.65c-.19-.48-.46-.85-.82-1.11s-.8-.4-1.33-.4-1,.14-1.36.42-.63.66-.82,1.14c-.18.48-.28,1.01-.28,1.61s.09,1.14.28,1.6c.18.46.46.82.82,1.08.36.26.81.39,1.35.39Z"/>
  </g>
  <g>
    <path class="cls-2" d="m215.77,9.6c0,1.32-.24,2.45-.72,3.4-.48.95-1.14,1.68-1.98,2.19s-1.79.76-2.86.76-2.03-.25-2.87-.76c-.84-.51-1.5-1.24-1.98-2.19-.48-.95-.72-2.08-.72-3.4s.24-2.45.72-3.4c.48-.95,1.14-1.68,1.98-2.18.84-.51,1.79-.76,2.87-.76s2.02.25,2.86.76c.84.51,1.5,1.24,1.98,2.18.48.95.72,2.08.72,3.4Zm-1.85,0c0-1.01-.16-1.85-.49-2.54s-.77-1.21-1.33-1.57-1.2-.53-1.9-.53-1.35.18-1.91.53-1,.88-1.33,1.57c-.32.69-.49,1.54-.49,2.54s.16,1.85.49,2.54c.32.69.77,1.21,1.33,1.57.56.36,1.2.53,1.91.53s1.34-.18,1.9-.53c.56-.36,1-.88,1.33-1.57.32-.69.49-1.54.49-2.54Z"/>
    <path class="cls-2" d="m221.85,15.97c-.9,0-1.67-.2-2.32-.61-.65-.41-1.14-.97-1.49-1.69-.35-.72-.52-1.54-.52-2.47s.18-1.77.53-2.5c.35-.72.85-1.29,1.5-1.69.64-.41,1.4-.61,2.28-.61.7,0,1.33.13,1.88.39.55.26,1,.62,1.34,1.09.34.47.54,1.01.61,1.64h-1.76c-.1-.43-.32-.81-.66-1.12-.34-.31-.8-.47-1.38-.47-.5,0-.94.13-1.32.4-.38.26-.67.64-.88,1.12-.21.48-.31,1.06-.31,1.72s.1,1.26.31,1.75.5.87.87,1.14c.38.27.82.41,1.33.41.34,0,.65-.06.93-.19.28-.13.51-.31.71-.55.19-.24.33-.52.4-.86h1.76c-.06.6-.26,1.13-.59,1.61s-.76.84-1.31,1.11c-.55.27-1.18.41-1.92.41Z"/>
    <path class="cls-2" d="m228.96,9.7h2.69c1.13,0,2.01.28,2.62.84.61.56.92,1.29.92,2.18,0,.58-.14,1.1-.41,1.56-.27.46-.67.83-1.2,1.1-.53.27-1.17.4-1.93.4h-4.05V6.51h1.77v7.71h2.28c.52,0,.95-.14,1.28-.41s.5-.62.5-1.04c0-.45-.17-.81-.5-1.1-.33-.28-.76-.42-1.28-.42h-2.69v-1.56Z"/>
    <path class="cls-2" d="m204.37,25.07v-1.56h7.82v1.56h-3.03v7.71h-1.76v-7.71h-3.04Z"/>
    <path class="cls-2" d="m216.8,32.99c-.59,0-1.12-.11-1.59-.33-.48-.22-.85-.54-1.13-.96-.28-.42-.41-.93-.41-1.54,0-.52.1-.95.3-1.29.2-.34.47-.61.81-.8s.72-.35,1.15-.45c.42-.1.85-.18,1.29-.23.55-.06,1.01-.12,1.35-.16.35-.04.6-.11.75-.21.16-.1.24-.25.24-.47v-.04c0-.53-.15-.94-.44-1.23s-.74-.43-1.32-.43-1.09.13-1.43.4c-.35.27-.59.56-.72.89l-1.7-.39c.2-.56.5-1.02.88-1.37.39-.35.84-.6,1.34-.76.51-.16,1.04-.24,1.6-.24.37,0,.76.04,1.18.13.42.09.81.24,1.17.47s.66.56.9.98.35.97.35,1.65v6.16h-1.76v-1.27h-.07c-.12.23-.29.46-.52.69-.23.22-.53.41-.9.56-.37.15-.8.22-1.32.22Zm.39-1.45c.5,0,.93-.1,1.28-.3.36-.2.63-.46.82-.78.19-.32.28-.66.28-1.03v-1.2c-.06.06-.19.12-.37.18-.18.05-.39.1-.62.14s-.46.07-.68.1c-.22.03-.41.06-.56.08-.35.04-.67.12-.96.22s-.52.25-.69.45c-.17.2-.26.45-.26.78,0,.45.17.78.5,1.01s.75.34,1.26.34Z"/>
    <path class="cls-2" d="m225.55,23.51v9.27h-1.77v-9.27h1.77Zm4.52,3.86v1.56h-5.02v-1.56h5.02Zm1.26-3.86v9.27h-1.76v-9.27h1.76Z"/>
    <path class="cls-2" d="m239.66,23.51v1.56h-4.15v7.71h-1.78v-9.27h5.93Z"/>
    <path class="cls-2" d="m245.56,32.97c-.91,0-1.7-.2-2.36-.59s-1.17-.95-1.52-1.66c-.36-.71-.53-1.55-.53-2.51s.18-1.79.53-2.51c.36-.72.86-1.29,1.5-1.7.64-.41,1.39-.61,2.25-.61.52,0,1.03.09,1.52.26s.93.44,1.32.81c.39.37.7.85.92,1.44.22.59.34,1.3.34,2.15v.64h-7.37v-1.35h5.6c0-.47-.1-.9-.29-1.26s-.46-.66-.81-.87c-.35-.21-.76-.32-1.22-.32-.51,0-.95.12-1.32.37-.38.25-.67.57-.87.97s-.3.83-.3,1.29v1.06c0,.62.11,1.15.33,1.58.22.43.53.77.92.99.39.23.86.34,1.38.34.34,0,.65-.05.94-.15.28-.1.52-.25.73-.44.21-.2.36-.44.47-.73l1.71.31c-.14.5-.38.94-.73,1.32-.35.38-.79.67-1.32.88s-1.13.31-1.81.31Z"/>
    <path class="cls-2" d="m253.32,23.51v9.27h-1.77v-9.27h1.77Zm4.52,3.86v1.56h-5.02v-1.56h5.02Zm1.26-3.86v9.27h-1.76v-9.27h1.76Z"/>
    <path class="cls-2" d="m265.41,32.97c-.9,0-1.67-.2-2.32-.61-.65-.41-1.14-.97-1.49-1.69-.35-.72-.52-1.54-.52-2.47s.18-1.77.53-2.5c.35-.72.85-1.29,1.5-1.69.64-.41,1.4-.61,2.28-.61.7,0,1.33.13,1.88.39.55.26,1,.62,1.34,1.09.34.47.54,1.01.61,1.64h-1.76c-.1-.43-.32-.81-.66-1.12-.34-.31-.8-.47-1.38-.47-.5,0-.94.13-1.32.4-.38.26-.67.64-.88,1.12-.21.48-.31,1.06-.31,1.72s.1,1.26.31,1.75.5.87.87,1.14c.38.27.82.41,1.33.41.34,0,.65-.06.93-.19.28-.13.51-.31.71-.55.19-.24.33-.52.4-.86h1.76c-.06.6-.26,1.13-.59,1.61s-.76.84-1.31,1.11c-.55.27-1.18.41-1.92.41Z"/>
    <path class="cls-2" d="m275.07,32.97c-.87,0-1.63-.2-2.28-.6-.65-.4-1.15-.96-1.51-1.67-.36-.72-.54-1.55-.54-2.51s.18-1.8.54-2.52c.36-.72.86-1.28,1.51-1.68.65-.4,1.41-.6,2.28-.6s1.63.2,2.28.6c.65.4,1.15.96,1.51,1.68.36.72.54,1.56.54,2.52s-.18,1.79-.54,2.51c-.36.72-.86,1.27-1.51,1.67-.65.4-1.41.6-2.28.6Zm0-1.52c.56,0,1.03-.15,1.4-.45.37-.3.64-.69.82-1.19.18-.5.27-1.04.27-1.64s-.09-1.14-.27-1.63c-.18-.5-.45-.9-.82-1.2-.37-.3-.84-.45-1.4-.45s-1.04.15-1.41.45-.65.7-.83,1.2-.27,1.04-.27,1.63.09,1.14.27,1.64.46.89.83,1.19.84.45,1.41.45Z"/>
    <path class="cls-2" d="m281.4,32.79v-9.27h3.84c1.05,0,1.88.22,2.49.67.61.44.92,1.05.92,1.81,0,.54-.17.97-.52,1.29-.35.32-.8.53-1.38.64.41.05.79.17,1.14.37.35.2.62.47.84.8.21.33.32.73.32,1.2,0,.49-.13.92-.38,1.3-.25.38-.62.67-1.1.88-.48.21-1.06.32-1.74.32h-4.43Zm1.7-5.41h2.17c.34,0,.63-.05.87-.14s.43-.23.56-.41c.13-.18.2-.39.2-.64,0-.36-.15-.64-.44-.84s-.7-.3-1.21-.3h-2.15v2.34Zm0,3.9h2.73c.45,0,.8-.11,1.05-.32.25-.21.38-.5.38-.87,0-.43-.13-.77-.38-1.02-.25-.25-.6-.37-1.05-.37h-2.73v2.58Z"/>
  </g>
  <path class="cls-1" d="m167.66,125.54v-4.38h25.78v4.38h-25.78Zm10.7,10.7v-25.78h4.38v25.78h-4.38Z"/>
  <path class="cls-1" d="m114.26,119.68v4.3h-17.5v-4.3h17.5Z"/>
  <path class="cls-1" d="m190.23,197.68v4.3h-17.5v-4.3h17.5Z"/>
  <path class="cls-1" d="m92.62,202.54v-4.38h25.78v4.38h-25.78Zm10.7,10.7v-25.78h4.38v25.78h-4.38Z"/>
</svg>