<?xml version="1.0" encoding="UTF-8"?>
<svg xmlns="http://www.w3.org/2000/svg" viewBox="0 0 549 247">
  <defs>
    <style>
      .cls-1 {
        fill: #fff;
      }

      .cls-2 {
        fill: none;
        stroke: #fff;
        stroke-miterlimit: 10;
        stroke-width: 2px;
      }
    </style>
  </defs>
  <g id="Layer_2" data-name="Layer 2">
    <line class="cls-2" x1=".75" y1="46" x2="548" y2="46"/>
    <line class="cls-2" x1=".75" y1="96" x2="548" y2="96"/>
    <line class="cls-2" x1=".75" y1="146" x2="548" y2="146"/>
    <line class="cls-2" x1=".75" y1="196" x2="548" y2="196"/>
    <line class="cls-2" y1="246" x2="548" y2="246"/>
    <line class="cls-2" x1="1" x2="1" y2="246"/>
    <line class="cls-2" x1=".75" y1="1" x2="548" y2="1"/>
    <line class="cls-2" x1="76" y1="1" x2="76" y2="246"/>
    <line class="cls-2" x1="135" y1="1" x2="135" y2="246"/>
    <line class="cls-2" x1="194" y1="1" x2="194" y2="245"/>
    <line class="cls-2" x1="253" y1="2" x2="253" y2="247"/>
    <line class="cls-2" x1="312" y1="1" x2="312" y2="246"/>
    <line class="cls-2" x1="371" y1="1" x2="371" y2="246"/>
    <line class="cls-2" x1="430" y1="1" x2="430" y2="245"/>
    <line class="cls-2" x1="489" y1="2" x2="489" y2="247"/>
    <line class="cls-2" x1="548" y1="0" x2="548" y2="247"/>
  </g>
  <g id="Layer_3" data-name="Layer 3">
    <g>
      <path class="cls-1" d="m23.4,226.66c-.9,0-1.67-.2-2.31-.61-.65-.41-1.14-.97-1.49-1.69-.35-.72-.52-1.55-.52-2.48s.18-1.77.53-2.5.85-1.29,1.5-1.69,1.4-.61,2.28-.61c.7,0,1.33.13,1.88.39.55.26,1,.62,1.34,1.09.34.47.54,1.01.61,1.64h-1.76c-.1-.43-.32-.81-.66-1.12s-.8-.47-1.38-.47c-.5,0-.94.13-1.32.4-.38.26-.67.64-.88,1.12-.21.49-.31,1.06-.31,1.72s.1,1.26.31,1.75c.21.49.5.87.87,1.14s.82.4,1.33.4c.34,0,.65-.06.93-.19.28-.13.52-.31.71-.55.19-.24.32-.52.4-.86h1.76c-.06.6-.26,1.14-.59,1.61-.33.47-.76.84-1.31,1.11s-1.18.4-1.92.4Z"/>
      <path class="cls-1" d="m33.48,217.2v1.45h-5.06v-1.45h5.06Zm-3.71-2.22h1.8v8.77c0,.35.05.61.16.79.1.18.24.29.41.36s.35.09.55.09c.15,0,.27-.01.38-.03.11-.02.19-.04.25-.05l.33,1.49c-.1.04-.25.08-.45.12-.19.04-.43.07-.72.07-.47,0-.92-.08-1.33-.25-.41-.18-.74-.45-1-.82-.25-.37-.38-.84-.38-1.39v-9.15Z"/>
      <path class="cls-1" d="m39.35,230.14c-.74,0-1.37-.1-1.9-.29-.53-.19-.96-.45-1.29-.77s-.58-.67-.75-1.04l1.55-.64c.11.18.25.37.44.56.18.2.43.37.75.51.32.14.72.21,1.22.21.68,0,1.25-.17,1.7-.5.45-.33.67-.86.67-1.58v-1.82h-.11c-.11.2-.26.42-.47.66-.2.24-.48.45-.84.63-.35.18-.81.27-1.38.27-.73,0-1.39-.17-1.98-.52-.59-.34-1.05-.85-1.39-1.53-.34-.67-.51-1.5-.51-2.49s.17-1.83.5-2.54.8-1.24,1.39-1.62c.59-.38,1.25-.56,2-.56.58,0,1.04.1,1.39.29.35.19.63.41.83.67.2.25.35.48.46.67h.13v-1.5h1.77v9.48c0,.8-.19,1.45-.56,1.96-.37.51-.87.89-1.5,1.13s-1.34.37-2.13.37Zm-.02-5.31c.52,0,.96-.12,1.32-.37.36-.24.63-.59.82-1.05.19-.46.28-1,.28-1.65s-.09-1.17-.28-1.65c-.19-.48-.46-.85-.81-1.11s-.8-.4-1.33-.4-1,.14-1.36.42c-.36.28-.63.66-.82,1.14-.18.48-.27,1.01-.27,1.61s.09,1.14.28,1.6c.19.46.46.82.82,1.07.36.26.81.39,1.35.39Z"/>
      <path class="cls-1" d="m49.44,226.66c-.77,0-1.45-.22-2.03-.63s-1.04-.98-1.36-1.7c-.33-.72-.49-1.56-.49-2.5s.17-1.76.51-2.47c.34-.71.81-1.27,1.41-1.68.6-.4,1.28-.61,2.04-.61.54,0,1.02.1,1.43.31.41.2.76.49,1.05.85.29.36.53.78.72,1.26h.63l.36,2.32,1.18,4.66h-1.55l-1.11-4.66c-.06-.3-.15-.63-.27-1s-.28-.72-.48-1.05-.45-.61-.75-.83-.66-.33-1.08-.33c-.46,0-.87.14-1.22.41-.35.28-.62.66-.82,1.14-.19.49-.29,1.05-.29,1.68s.09,1.18.28,1.67.45.88.78,1.17c.33.28.72.43,1.17.43.41,0,.76-.11,1.07-.33.31-.22.57-.5.78-.85.21-.34.39-.7.52-1.07.13-.37.23-.71.3-1.01l1-4.66h1.54l-1.06,4.66-.36,2.35h-.57c-.19.48-.44.9-.75,1.28-.3.37-.67.66-1.1.87-.43.21-.93.31-1.49.31Z"/>
    </g>
    <g>
      <path class="cls-1" d="m38.45,22.5c-.77,0-1.45-.22-2.03-.63s-1.04-.98-1.36-1.7c-.33-.72-.49-1.56-.49-2.5s.17-1.76.51-2.47c.34-.71.81-1.27,1.41-1.68.6-.4,1.28-.61,2.04-.61.54,0,1.02.1,1.43.31.41.2.76.49,1.05.85.29.36.53.78.72,1.26h.63l.36,2.32,1.18,4.66h-1.55l-1.11-4.66c-.06-.3-.15-.63-.27-1s-.28-.72-.48-1.05-.45-.61-.75-.83-.66-.33-1.08-.33c-.46,0-.87.14-1.22.41-.35.28-.62.66-.82,1.14-.19.49-.29,1.05-.29,1.68s.09,1.18.28,1.67.45.88.78,1.17c.33.28.72.43,1.17.43.41,0,.76-.11,1.07-.33.31-.22.57-.5.78-.85.21-.34.39-.7.52-1.07.13-.37.23-.71.3-1.01l1-4.66h1.54l-1.06,4.66-.36,2.35h-.57c-.19.48-.44.9-.75,1.28-.3.37-.67.66-1.1.87-.43.21-.93.31-1.49.31Z"/>
      <path class="cls-1" d="m104.24,22.51c-.95,0-1.77-.26-2.44-.75-.68-.5-1.19-1.23-1.55-2.18-.36-.95-.54-2.1-.54-3.45s.18-2.49.54-3.44c.36-.95.88-1.67,1.56-2.17s1.49-.75,2.44-.75,1.76.25,2.43.75c.68.5,1.19,1.23,1.55,2.17s.54,2.09.54,3.43-.18,2.5-.54,3.45c-.36.95-.88,1.68-1.55,2.18s-1.49.75-2.44.75Zm0-1.61c.84,0,1.49-.41,1.96-1.23.47-.82.71-2,.71-3.54,0-1.03-.11-1.89-.32-2.6-.22-.71-.52-1.25-.92-1.62-.4-.37-.88-.55-1.43-.55-.83,0-1.49.41-1.96,1.23-.48.82-.71,2-.72,3.54,0,1.03.11,1.9.32,2.61.22.71.52,1.25.92,1.61s.88.55,1.44.55Z"/>
      <path class="cls-1" d="m113.6,15.53c-.52,0-1-.13-1.43-.38-.43-.26-.77-.6-1.03-1.03-.26-.43-.38-.91-.38-1.43s.13-1,.38-1.43c.26-.43.6-.77,1.03-1.03.43-.26.9-.38,1.43-.38s1,.13,1.43.38.77.6,1.03,1.03c.26.43.38.9.38,1.43s-.13,1-.38,1.43c-.26.43-.6.77-1.03,1.03s-.91.38-1.43.38Zm0-1.38c.27,0,.52-.07.74-.2.22-.13.4-.31.53-.53.13-.22.2-.47.2-.74s-.07-.52-.2-.74c-.13-.22-.31-.4-.53-.53-.22-.13-.47-.2-.74-.2s-.52.07-.74.2c-.22.13-.4.31-.53.53-.13.22-.2.47-.2.74s.07.52.2.74.31.4.53.53.47.2.74.2Z"/>
      <path class="cls-1" d="m159,22.47c-.83,0-1.57-.14-2.22-.43-.65-.29-1.16-.68-1.54-1.19-.38-.51-.58-1.1-.61-1.77h1.9c.02.37.15.68.37.95.22.27.52.47.88.62.36.15.76.22,1.21.22.49,0,.92-.08,1.29-.25s.67-.41.88-.71c.21-.3.32-.65.32-1.05s-.11-.78-.32-1.1c-.21-.32-.52-.56-.92-.75s-.89-.27-1.46-.27h-1.04v-1.52h1.04c.46,0,.86-.08,1.21-.25s.62-.4.82-.69c.2-.3.3-.64.3-1.04s-.09-.72-.26-1c-.17-.28-.41-.51-.72-.67-.31-.16-.68-.24-1.1-.24s-.78.07-1.13.22c-.35.15-.63.36-.85.63-.22.27-.33.6-.35.98h-1.8c.02-.67.22-1.26.59-1.76.38-.51.87-.9,1.49-1.19.62-.29,1.31-.43,2.06-.43s1.48.15,2.06.46c.58.31,1.02.72,1.34,1.23s.47,1.07.47,1.68c0,.69-.19,1.28-.58,1.76-.39.48-.9.81-1.55.97v.1c.82.12,1.46.45,1.91.98.45.53.68,1.18.67,1.96,0,.68-.18,1.29-.56,1.83-.38.54-.9.96-1.55,1.27-.66.31-1.41.46-2.25.46Z"/>
      <path class="cls-1" d="m169.96,22.51c-.95,0-1.77-.26-2.44-.75-.68-.5-1.19-1.23-1.55-2.18-.36-.95-.54-2.1-.54-3.45s.18-2.49.54-3.44c.36-.95.88-1.67,1.56-2.17s1.49-.75,2.44-.75,1.76.25,2.43.75c.68.5,1.19,1.23,1.55,2.17s.54,2.09.54,3.43-.18,2.5-.54,3.45c-.36.95-.88,1.68-1.55,2.18s-1.49.75-2.44.75Zm0-1.61c.84,0,1.49-.41,1.96-1.23.47-.82.71-2,.71-3.54,0-1.03-.11-1.89-.32-2.6-.22-.71-.52-1.25-.92-1.62-.4-.37-.88-.55-1.43-.55-.83,0-1.49.41-1.96,1.23-.48.82-.71,2-.72,3.54,0,1.03.11,1.9.32,2.61.22.71.52,1.25.92,1.61s.88.55,1.44.55Z"/>
      <path class="cls-1" d="m179.32,15.53c-.52,0-1-.13-1.43-.38-.43-.26-.77-.6-1.03-1.03-.26-.43-.38-.91-.38-1.43s.13-1,.38-1.43c.26-.43.6-.77,1.03-1.03.43-.26.9-.38,1.43-.38s1,.13,1.43.38.77.6,1.03,1.03c.26.43.38.9.38,1.43s-.13,1-.38,1.43c-.26.43-.6.77-1.03,1.03s-.91.38-1.43.38Zm0-1.38c.27,0,.52-.07.74-.2.22-.13.4-.31.53-.53.13-.22.2-.47.2-.74s-.07-.52-.2-.74c-.13-.22-.31-.4-.53-.53-.22-.13-.47-.2-.74-.2s-.52.07-.74.2c-.22.13-.4.31-.53.53-.13.22-.2.47-.2.74s.07.52.2.74.31.4.53.53.47.2.74.2Z"/>
      <path class="cls-1" d="m211.15,19.89v-1.51l5.34-8.44h1.19v2.22h-.75l-3.82,6.05v.1h7.32v1.58h-9.28Zm5.86,2.41v-3.56s.01-8.8.01-8.8h1.77v12.36h-1.78Z"/>
      <path class="cls-1" d="m226.61,22.47c-.76,0-1.44-.15-2.04-.44-.6-.29-1.08-.69-1.44-1.2-.36-.51-.55-1.09-.57-1.75h1.81c.04.53.28.97.71,1.31.43.34.94.51,1.53.51.48,0,.9-.11,1.27-.33.37-.22.66-.52.87-.91s.32-.83.32-1.32-.11-.95-.33-1.35c-.22-.39-.52-.7-.9-.93-.38-.23-.82-.34-1.31-.34-.37,0-.75.06-1.13.19-.38.13-.68.3-.92.51l-1.71-.25.69-6.23h6.8v1.6h-5.25l-.39,3.46h.07c.24-.23.56-.43.96-.59.4-.16.83-.24,1.29-.24.75,0,1.42.18,2.01.54.59.36,1.05.85,1.39,1.46.34.62.51,1.33.5,2.13,0,.8-.18,1.52-.54,2.14-.36.63-.87,1.12-1.51,1.48-.64.36-1.38.54-2.21.54Z"/>
      <path class="cls-1" d="m235.76,15.53c-.52,0-1-.13-1.43-.38-.43-.26-.77-.6-1.03-1.03-.26-.43-.38-.91-.38-1.43s.13-1,.38-1.43c.26-.43.6-.77,1.03-1.03.43-.26.9-.38,1.43-.38s1,.13,1.43.38.77.6,1.03,1.03c.26.43.38.9.38,1.43s-.13,1-.38,1.43c-.26.43-.6.77-1.03,1.03s-.91.38-1.43.38Zm0-1.38c.27,0,.52-.07.74-.2.22-.13.4-.31.53-.53.13-.22.2-.47.2-.74s-.07-.52-.2-.74c-.13-.22-.31-.4-.53-.53-.22-.13-.47-.2-.74-.2s-.52.07-.74.2c-.22.13-.4.31-.53.53-.13.22-.2.47-.2.74s.07.52.2.74.31.4.53.53.47.2.74.2Z"/>
      <path class="cls-1" d="m276.67,22.47c-.55,0-1.09-.11-1.63-.3-.53-.19-1.02-.52-1.45-.97s-.78-1.06-1.04-1.82c-.26-.76-.39-1.71-.39-2.85,0-1.08.11-2.04.32-2.87.22-.84.53-1.54.93-2.12.41-.58.9-1.02,1.47-1.32.58-.3,1.22-.45,1.94-.45s1.39.15,1.96.43c.57.29,1.04.69,1.39,1.2.36.51.58,1.09.68,1.74h-1.84c-.12-.52-.37-.94-.74-1.26-.37-.33-.85-.49-1.45-.49-.91,0-1.61.39-2.12,1.18-.51.79-.76,1.89-.76,3.29h.09c.21-.35.48-.65.79-.9.31-.25.66-.44,1.05-.57.39-.13.8-.2,1.23-.2.72,0,1.37.17,1.95.52.58.35,1.05.83,1.39,1.44s.52,1.31.52,2.1-.18,1.5-.53,2.14c-.36.64-.86,1.15-1.5,1.52-.64.37-1.4.55-2.26.55Zm0-1.57c.48,0,.9-.12,1.27-.35s.67-.55.89-.94c.22-.39.33-.83.33-1.32s-.11-.91-.32-1.3c-.21-.39-.5-.7-.87-.93-.37-.23-.79-.34-1.26-.34-.36,0-.69.07-.99.21s-.57.33-.8.57c-.23.24-.41.52-.54.83s-.2.64-.2.99c0,.46.11.89.32,1.29s.51.71.89.95c.38.24.8.36,1.28.36Z"/>
      <path class="cls-1" d="m287.46,22.51c-.95,0-1.77-.26-2.44-.75-.68-.5-1.19-1.23-1.55-2.18-.36-.95-.54-2.1-.54-3.45s.18-2.49.54-3.44c.36-.95.88-1.67,1.56-2.17s1.49-.75,2.44-.75,1.76.25,2.43.75c.68.5,1.19,1.23,1.55,2.17s.54,2.09.54,3.43-.18,2.5-.54,3.45c-.36.95-.88,1.68-1.55,2.18s-1.49.75-2.44.75Zm0-1.61c.84,0,1.49-.41,1.96-1.23.47-.82.71-2,.71-3.54,0-1.03-.11-1.89-.32-2.6-.22-.71-.52-1.25-.92-1.62-.4-.37-.88-.55-1.43-.55-.83,0-1.49.41-1.96,1.23-.48.82-.71,2-.72,3.54,0,1.03.11,1.9.32,2.61.22.71.52,1.25.92,1.61s.88.55,1.44.55Z"/>
      <path class="cls-1" d="m296.83,15.53c-.52,0-1-.13-1.43-.38-.43-.26-.77-.6-1.03-1.03-.26-.43-.38-.91-.38-1.43s.13-1,.38-1.43c.26-.43.6-.77,1.03-1.03.43-.26.9-.38,1.43-.38s1,.13,1.43.38.77.6,1.03,1.03c.26.43.38.9.38,1.43s-.13,1-.38,1.43c-.26.43-.6.77-1.03,1.03s-.91.38-1.43.38Zm0-1.38c.27,0,.52-.07.74-.2.22-.13.4-.31.53-.53.13-.22.2-.47.2-.74s-.07-.52-.2-.74c-.13-.22-.31-.4-.53-.53-.22-.13-.47-.2-.74-.2s-.52.07-.74.2c-.22.13-.4.31-.53.53-.13.22-.2.47-.2.74s.07.52.2.74.31.4.53.53.47.2.74.2Z"/>
      <path class="cls-1" d="m333.03,9.77c.55,0,1.09.1,1.63.3.54.2,1.02.52,1.45.97.43.45.78,1.05,1.04,1.81.26.76.39,1.7.4,2.83,0,1.08-.11,2.05-.33,2.89s-.53,1.55-.93,2.13c-.4.58-.89,1.02-1.47,1.32s-1.22.45-1.94.45-1.39-.15-1.96-.43c-.57-.29-1.04-.69-1.39-1.2-.36-.51-.58-1.1-.67-1.77h1.84c.12.53.37.96.74,1.29.37.33.85.49,1.45.49.91,0,1.61-.4,2.12-1.19.51-.79.76-1.9.77-3.32h-.1c-.21.35-.47.64-.78.89-.31.25-.66.44-1.05.58-.39.14-.8.21-1.24.21-.71,0-1.36-.18-1.94-.53s-1.05-.83-1.39-1.44-.52-1.31-.52-2.09.18-1.49.53-2.12c.36-.64.85-1.14,1.5-1.51s1.4-.55,2.26-.55Zm0,1.57c-.47,0-.89.12-1.27.35s-.67.54-.89.94c-.22.39-.33.83-.33,1.31s.11.91.32,1.3c.21.39.5.7.87.92.37.23.79.34,1.26.34.35,0,.68-.07.99-.21s.57-.33.8-.57c.23-.24.41-.52.54-.83.13-.31.19-.64.19-.98,0-.46-.11-.88-.32-1.27-.22-.39-.51-.71-.88-.94-.37-.24-.8-.36-1.28-.36Z"/>
      <path class="cls-1" d="m344.03,22.51c-.95,0-1.77-.26-2.44-.75-.68-.5-1.19-1.23-1.55-2.18-.36-.95-.54-2.1-.54-3.45s.18-2.49.54-3.44c.36-.95.88-1.67,1.56-2.17s1.49-.75,2.44-.75,1.76.25,2.43.75c.68.5,1.19,1.23,1.55,2.17s.54,2.09.54,3.43-.18,2.5-.54,3.45c-.36.95-.88,1.68-1.55,2.18s-1.49.75-2.44.75Zm0-1.61c.84,0,1.49-.41,1.96-1.23.47-.82.71-2,.71-3.54,0-1.03-.11-1.89-.32-2.6-.22-.71-.52-1.25-.92-1.62-.4-.37-.88-.55-1.43-.55-.83,0-1.49.41-1.96,1.23-.48.82-.71,2-.72,3.54,0,1.03.11,1.9.32,2.61.22.71.52,1.25.92,1.61s.88.55,1.44.55Z"/>
      <path class="cls-1" d="m353.39,15.53c-.52,0-1-.13-1.43-.38-.43-.26-.77-.6-1.03-1.03-.26-.43-.38-.91-.38-1.43s.13-1,.38-1.43c.26-.43.6-.77,1.03-1.03.43-.26.9-.38,1.43-.38s1,.13,1.43.38.77.6,1.03,1.03c.26.43.38.9.38,1.43s-.13,1-.38,1.43c-.26.43-.6.77-1.03,1.03s-.91.38-1.43.38Zm0-1.38c.27,0,.52-.07.74-.2.22-.13.4-.31.53-.53.13-.22.2-.47.2-.74s-.07-.52-.2-.74c-.13-.22-.31-.4-.53-.53-.22-.13-.47-.2-.74-.2s-.52.07-.74.2c-.22.13-.4.31-.53.53-.13.22-.2.47-.2.74s.07.52.2.74.31.4.53.53.47.2.74.2Z"/>
      <path class="cls-1" d="m390.17,9.94v12.36h-1.87v-10.49h-.07l-2.96,1.93v-1.79l3.08-2.02h1.82Z"/>
      <path class="cls-1" d="m397.69,22.47c-.87,0-1.63-.15-2.29-.45s-1.18-.71-1.55-1.23c-.37-.52-.56-1.12-.56-1.79,0-.52.1-1,.32-1.45.22-.44.52-.81.9-1.1.38-.3.8-.48,1.27-.56v-.07c-.62-.15-1.11-.48-1.48-.99-.37-.51-.55-1.1-.55-1.76,0-.63.16-1.2.5-1.69.34-.5.81-.89,1.4-1.17.6-.29,1.27-.43,2.03-.43s1.43.14,2.02.43,1.06.68,1.4,1.18c.34.5.52,1.06.52,1.69,0,.66-.19,1.25-.57,1.76-.37.51-.86.84-1.46.99v.07c.46.08.88.27,1.25.56s.67.66.89,1.1c.22.44.34.92.34,1.45,0,.67-.19,1.26-.57,1.79-.37.52-.89.93-1.55,1.23-.66.3-1.42.45-2.28.45Zm0-1.53c.51,0,.95-.09,1.33-.26.37-.17.66-.41.87-.72.21-.31.31-.67.31-1.08,0-.43-.12-.81-.34-1.14-.22-.33-.52-.59-.89-.78-.37-.19-.8-.28-1.29-.28s-.92.09-1.3.28c-.38.19-.68.45-.89.78-.22.33-.32.71-.32,1.14,0,.41.1.78.3,1.08.2.31.49.55.87.72.38.17.82.26,1.34.26Zm0-5.75c.41,0,.77-.08,1.09-.25s.57-.39.75-.69c.18-.29.28-.64.28-1.03,0-.39-.1-.72-.27-1.01-.18-.29-.43-.51-.75-.67-.32-.16-.69-.24-1.1-.24s-.8.08-1.12.24c-.32.16-.57.38-.75.67s-.26.63-.26,1.01c0,.39.08.74.27,1.03.18.29.43.52.75.69.32.17.69.25,1.11.25Z"/>
      <path class="cls-1" d="m408.55,22.51c-.95,0-1.77-.26-2.44-.75-.68-.5-1.19-1.23-1.55-2.18-.36-.95-.54-2.1-.54-3.45s.18-2.49.54-3.44c.36-.95.88-1.67,1.56-2.17s1.49-.75,2.44-.75,1.76.25,2.43.75c.68.5,1.19,1.23,1.55,2.17s.54,2.09.54,3.43-.18,2.5-.54,3.45c-.36.95-.88,1.68-1.55,2.18s-1.49.75-2.44.75Zm0-1.61c.84,0,1.49-.41,1.96-1.23.47-.82.71-2,.71-3.54,0-1.03-.11-1.89-.32-2.6-.22-.71-.52-1.25-.92-1.62-.4-.37-.88-.55-1.43-.55-.83,0-1.49.41-1.96,1.23-.48.82-.71,2-.72,3.54,0,1.03.11,1.9.32,2.61.22.71.52,1.25.92,1.61s.88.55,1.44.55Z"/>
      <path class="cls-1" d="m417.92,15.53c-.52,0-1-.13-1.43-.38-.43-.26-.77-.6-1.03-1.03-.26-.43-.38-.91-.38-1.43s.13-1,.38-1.43c.26-.43.6-.77,1.03-1.03.43-.26.9-.38,1.43-.38s1,.13,1.43.38.77.6,1.03,1.03c.26.43.38.9.38,1.43s-.13,1-.38,1.43c-.26.43-.6.77-1.03,1.03s-.91.38-1.43.38Zm0-1.38c.27,0,.52-.07.74-.2.22-.13.4-.31.53-.53.13-.22.2-.47.2-.74s-.07-.52-.2-.74c-.13-.22-.31-.4-.53-.53-.22-.13-.47-.2-.74-.2s-.52.07-.74.2c-.22.13-.4.31-.53.53-.13.22-.2.47-.2.74s.07.52.2.74.31.4.53.53.47.2.74.2Z"/>
      <path class="cls-1" d="m441,22.3v-1.35l4.18-4.33c.45-.47.82-.88,1.11-1.24.29-.36.51-.7.66-1.02.15-.32.22-.66.22-1.03,0-.41-.1-.77-.29-1.07-.19-.3-.46-.53-.79-.69-.33-.16-.71-.24-1.13-.24-.44,0-.83.09-1.16.27s-.58.44-.76.77c-.18.33-.27.72-.27,1.16h-1.78c0-.75.17-1.41.52-1.97s.82-1,1.42-1.31c.6-.31,1.29-.47,2.06-.47s1.46.15,2.06.46c.59.31,1.06.73,1.39,1.26.33.53.5,1.13.5,1.79,0,.46-.09.91-.26,1.35-.17.44-.47.93-.89,1.46-.42.54-1.01,1.19-1.76,1.95l-2.46,2.57v.09h5.57v1.6h-8.14Z"/>
      <path class="cls-1" d="m451.85,22.3l5.4-10.67v-.09h-6.24v-1.6h8.17v1.65l-5.38,10.71h-1.95Z"/>
      <path class="cls-1" d="m465.31,22.51c-.95,0-1.77-.26-2.44-.75-.68-.5-1.19-1.23-1.55-2.18-.36-.95-.54-2.1-.54-3.45s.18-2.49.54-3.44c.36-.95.88-1.67,1.56-2.17s1.49-.75,2.44-.75,1.76.25,2.43.75c.68.5,1.19,1.23,1.55,2.17s.54,2.09.54,3.43-.18,2.5-.54,3.45c-.36.95-.88,1.68-1.55,2.18s-1.49.75-2.44.75Zm0-1.61c.84,0,1.49-.41,1.96-1.23.47-.82.71-2,.71-3.54,0-1.03-.11-1.89-.32-2.6-.22-.71-.52-1.25-.92-1.62-.4-.37-.88-.55-1.43-.55-.83,0-1.49.41-1.96,1.23-.48.82-.71,2-.72,3.54,0,1.03.11,1.9.32,2.61.22.71.52,1.25.92,1.61s.88.55,1.44.55Z"/>
      <path class="cls-1" d="m474.67,15.53c-.52,0-1-.13-1.43-.38-.43-.26-.77-.6-1.03-1.03-.26-.43-.38-.91-.38-1.43s.13-1,.38-1.43c.26-.43.6-.77,1.03-1.03.43-.26.9-.38,1.43-.38s1,.13,1.43.38.77.6,1.03,1.03c.26.43.38.9.38,1.43s-.13,1-.38,1.43c-.26.43-.6.77-1.03,1.03s-.91.38-1.43.38Zm0-1.38c.27,0,.52-.07.74-.2.22-.13.4-.31.53-.53.13-.22.2-.47.2-.74s-.07-.52-.2-.74c-.13-.22-.31-.4-.53-.53-.22-.13-.47-.2-.74-.2s-.52.07-.74.2c-.22.13-.4.31-.53.53-.13.22-.2.47-.2.74s.07.52.2.74.31.4.53.53.47.2.74.2Z"/>
      <path class="cls-1" d="m506.56,22.47c-.83,0-1.57-.14-2.22-.43-.65-.29-1.16-.68-1.54-1.19-.38-.51-.58-1.1-.61-1.77h1.9c.02.37.15.68.37.95.22.27.52.47.88.62.36.15.76.22,1.21.22.49,0,.92-.08,1.29-.25.38-.17.67-.41.88-.71.21-.3.32-.65.32-1.05s-.11-.78-.32-1.1c-.21-.32-.52-.56-.92-.75s-.89-.27-1.46-.27h-1.04v-1.52h1.04c.46,0,.86-.08,1.21-.25.35-.17.62-.4.82-.69.2-.3.3-.64.3-1.04s-.09-.72-.26-1-.41-.51-.72-.67c-.31-.16-.68-.24-1.1-.24s-.78.07-1.13.22-.63.36-.85.63c-.22.27-.33.6-.35.98h-1.8c.02-.67.22-1.26.59-1.76.38-.51.87-.9,1.49-1.19.62-.29,1.31-.43,2.06-.43s1.48.15,2.06.46c.58.31,1.02.72,1.34,1.23.32.51.47,1.07.47,1.68,0,.69-.19,1.28-.58,1.76s-.9.81-1.55.97v.1c.82.12,1.46.45,1.91.98.45.53.68,1.18.67,1.96,0,.68-.18,1.29-.56,1.83-.38.54-.9.96-1.55,1.27-.66.31-1.41.46-2.25.46Z"/>
      <path class="cls-1" d="m517.53,22.47c-.55,0-1.09-.11-1.63-.3s-1.02-.52-1.45-.97-.78-1.06-1.04-1.82c-.26-.76-.39-1.71-.39-2.85,0-1.08.11-2.04.32-2.87.21-.84.53-1.54.93-2.12s.9-1.02,1.47-1.32c.58-.3,1.22-.45,1.94-.45s1.39.15,1.96.43c.57.29,1.04.69,1.39,1.2.36.51.58,1.09.68,1.74h-1.84c-.12-.52-.37-.94-.74-1.26-.37-.33-.85-.49-1.45-.49-.91,0-1.61.39-2.12,1.18-.5.79-.76,1.89-.76,3.29h.09c.21-.35.48-.65.79-.9.31-.25.66-.44,1.05-.57s.8-.2,1.23-.2c.72,0,1.37.17,1.95.52.58.35,1.04.83,1.39,1.44.35.61.52,1.31.52,2.1s-.18,1.5-.53,2.14c-.36.64-.86,1.15-1.5,1.52-.64.37-1.4.55-2.26.55Zm0-1.57c.47,0,.9-.12,1.27-.35s.67-.55.89-.94c.22-.39.33-.83.33-1.32s-.11-.91-.32-1.3c-.21-.39-.5-.7-.87-.93s-.79-.34-1.26-.34c-.36,0-.69.07-.99.21s-.57.33-.8.57c-.23.24-.41.52-.54.83s-.2.64-.2.99c0,.46.11.89.32,1.29.22.39.51.71.89.95s.8.36,1.28.36Z"/>
      <path class="cls-1" d="m528.32,22.51c-.95,0-1.77-.26-2.44-.75-.68-.5-1.19-1.23-1.55-2.18-.36-.95-.54-2.1-.54-3.45s.18-2.49.54-3.44.88-1.67,1.56-2.17,1.49-.75,2.44-.75,1.76.25,2.43.75c.68.5,1.19,1.23,1.55,2.17.36.95.54,2.09.54,3.43s-.18,2.5-.54,3.45c-.36.95-.88,1.68-1.55,2.18s-1.49.75-2.44.75Zm0-1.61c.84,0,1.49-.41,1.97-1.23.47-.82.71-2,.71-3.54,0-1.03-.11-1.89-.32-2.6-.21-.71-.52-1.25-.92-1.62-.4-.37-.88-.55-1.43-.55-.83,0-1.49.41-1.96,1.23-.47.82-.71,2-.72,3.54,0,1.03.11,1.9.32,2.61.22.71.52,1.25.92,1.61s.88.55,1.44.55Z"/>
      <path class="cls-1" d="m537.68,15.53c-.52,0-1-.13-1.43-.38s-.77-.6-1.03-1.03c-.26-.43-.38-.91-.38-1.43s.13-1,.38-1.43c.25-.43.6-.77,1.03-1.03s.9-.38,1.43-.38,1,.13,1.43.38.77.6,1.03,1.03c.25.43.38.9.38,1.43s-.13,1-.38,1.43c-.26.43-.6.77-1.03,1.03s-.91.38-1.43.38Zm0-1.38c.27,0,.52-.07.74-.2.22-.13.4-.31.53-.53.13-.22.2-.47.2-.74s-.07-.52-.2-.74c-.13-.22-.31-.4-.53-.53-.22-.13-.47-.2-.74-.2s-.52.07-.74.2c-.22.13-.4.31-.53.53-.13.22-.2.47-.2.74s.07.52.2.74.31.4.53.53c.22.13.47.2.74.2Z"/>
      <path class="cls-1" d="m143.57,34.17c0-1.51.2-2.91.6-4.18.4-1.27.98-2.44,1.74-3.52h1.65c-.3.4-.58.89-.83,1.47-.26.58-.48,1.21-.68,1.9-.19.69-.34,1.4-.45,2.14-.11.74-.16,1.47-.16,2.18,0,.96.09,1.93.28,2.91.19.98.44,1.89.77,2.73.32.84.68,1.53,1.07,2.06h-1.65c-.76-1.07-1.35-2.25-1.74-3.52-.4-1.27-.6-2.67-.6-4.18Z"/>
      <path class="cls-1" d="m158.53,30.03v1.52h-9.51v-1.52h9.51Zm-6.31,0v9.27h-1.78v-9.27h1.78Zm3.15,0h1.78v6.77c0,.28.05.49.14.63.09.14.22.24.37.29.15.05.32.08.5.08.13,0,.27-.01.4-.04.13-.02.24-.04.32-.06v1.52c-.15.04-.34.09-.56.14-.22.05-.48.07-.77.07-.65,0-1.17-.19-1.58-.57-.4-.38-.61-1.03-.61-1.94v-6.88Z"/>
      <path class="cls-1" d="m165.55,26.36l-3.98,14.8h-1.61l3.98-14.8h1.61Z"/>
      <path class="cls-1" d="m171.39,39.47c-.55,0-1.09-.11-1.63-.3-.53-.19-1.02-.52-1.45-.97s-.78-1.06-1.04-1.82c-.26-.76-.39-1.71-.39-2.85,0-1.08.11-2.04.32-2.87.22-.84.53-1.54.93-2.12.41-.58.9-1.02,1.47-1.32.58-.3,1.22-.45,1.94-.45s1.39.15,1.96.43c.57.29,1.04.69,1.39,1.2.36.51.58,1.09.68,1.74h-1.84c-.12-.52-.37-.94-.74-1.26-.37-.33-.85-.49-1.45-.49-.91,0-1.61.39-2.12,1.18-.51.79-.76,1.89-.76,3.29h.09c.21-.35.48-.65.79-.9.31-.25.66-.44,1.05-.57.39-.13.8-.2,1.23-.2.72,0,1.37.17,1.95.52.58.35,1.05.83,1.39,1.44s.52,1.31.52,2.1-.18,1.5-.53,2.14c-.36.64-.86,1.15-1.5,1.52-.64.37-1.4.55-2.26.55Zm0-1.57c.48,0,.9-.12,1.27-.35s.67-.55.89-.94c.22-.39.33-.83.33-1.32s-.11-.91-.32-1.3c-.21-.39-.5-.7-.87-.93-.37-.23-.79-.34-1.26-.34-.36,0-.69.07-.99.21s-.57.33-.8.57c-.23.24-.41.52-.54.83s-.2.64-.2.99c0,.46.11.89.32,1.29s.51.71.89.95c.38.24.8.36,1.28.36Z"/>
      <path class="cls-1" d="m181.37,34.17c0,1.52-.2,2.91-.6,4.18-.4,1.27-.98,2.44-1.74,3.52h-1.65c.3-.4.58-.89.83-1.47.26-.58.48-1.21.68-1.9.19-.69.34-1.41.45-2.15.11-.74.16-1.47.16-2.19,0-.95-.09-1.92-.28-2.9-.19-.98-.44-1.89-.77-2.73-.32-.84-.68-1.53-1.07-2.06h1.65c.76,1.07,1.35,2.25,1.74,3.52.4,1.27.6,2.66.6,4.18Z"/>
      <path class="cls-1" d="m202.86,34.17c0-1.51.2-2.91.6-4.18.4-1.27.98-2.44,1.74-3.52h1.65c-.3.4-.58.89-.83,1.47-.26.58-.48,1.21-.68,1.9-.19.69-.34,1.4-.45,2.14-.11.74-.16,1.47-.16,2.18,0,.96.09,1.93.28,2.91.19.98.44,1.89.77,2.73.32.84.68,1.53,1.07,2.06h-1.65c-.76-1.07-1.35-2.25-1.74-3.52-.4-1.27-.6-2.67-.6-4.18Z"/>
      <path class="cls-1" d="m217.82,30.03v1.52h-9.51v-1.52h9.51Zm-6.31,0v9.27h-1.78v-9.27h1.78Zm3.15,0h1.78v6.77c0,.28.05.49.14.63.09.14.22.24.37.29.15.05.32.08.5.08.13,0,.27-.01.4-.04.13-.02.24-.04.32-.06v1.52c-.15.04-.34.09-.56.14-.22.05-.48.07-.77.07-.65,0-1.17-.19-1.58-.57-.4-.38-.61-1.03-.61-1.94v-6.88Z"/>
      <path class="cls-1" d="m224.84,26.36l-3.98,14.8h-1.61l3.98-14.8h1.61Z"/>
      <path class="cls-1" d="m226.1,36.89v-1.51l5.34-8.44h1.19v2.22h-.75l-3.82,6.05v.1h7.32v1.58h-9.28Zm5.86,2.41v-3.56s.01-8.8.01-8.8h1.77v12.36h-1.78Z"/>
      <path class="cls-1" d="m240.97,34.17c0,1.52-.2,2.91-.6,4.18-.4,1.27-.98,2.44-1.74,3.52h-1.65c.3-.4.58-.89.83-1.47.26-.58.48-1.21.68-1.9.19-.69.34-1.41.45-2.15.11-.74.16-1.47.16-2.19,0-.95-.09-1.92-.28-2.9-.19-.98-.44-1.89-.77-2.73-.32-.84-.68-1.53-1.07-2.06h1.65c.76,1.07,1.35,2.25,1.74,3.52.4,1.27.6,2.66.6,4.18Z"/>
      <path class="cls-1" d="m262.46,34.17c0-1.51.2-2.91.6-4.18.4-1.27.98-2.44,1.74-3.52h1.65c-.3.4-.58.89-.83,1.47-.26.58-.48,1.21-.68,1.9-.19.69-.34,1.4-.45,2.14-.11.74-.16,1.47-.16,2.18,0,.96.09,1.93.28,2.91.19.98.44,1.89.77,2.73.32.84.68,1.53,1.07,2.06h-1.65c-.76-1.07-1.35-2.25-1.74-3.52-.4-1.27-.6-2.67-.6-4.18Z"/>
      <path class="cls-1" d="m277.42,30.03v1.52h-9.51v-1.52h9.51Zm-6.31,0v9.27h-1.78v-9.27h1.78Zm3.15,0h1.78v6.77c0,.28.05.49.14.63.09.14.22.24.37.29.15.05.32.08.5.08.13,0,.27-.01.4-.04.13-.02.24-.04.32-.06v1.52c-.15.04-.34.09-.56.14-.22.05-.48.07-.77.07-.65,0-1.17-.19-1.58-.57-.4-.38-.61-1.03-.61-1.94v-6.88Z"/>
      <path class="cls-1" d="m284.44,26.36l-3.98,14.8h-1.61l3.98-14.8h1.61Z"/>
      <path class="cls-1" d="m290.26,39.47c-.83,0-1.57-.14-2.22-.43-.65-.29-1.16-.68-1.54-1.19-.38-.51-.58-1.1-.61-1.77h1.9c.02.37.15.68.37.95.22.27.52.47.88.62.36.15.76.22,1.21.22.49,0,.92-.08,1.29-.25s.67-.41.88-.71c.21-.3.32-.65.32-1.05s-.11-.78-.32-1.1c-.21-.32-.52-.56-.92-.75s-.89-.27-1.46-.27h-1.04v-1.52h1.04c.46,0,.86-.08,1.21-.25s.62-.4.82-.69c.2-.3.3-.64.3-1.04s-.09-.72-.26-1c-.17-.28-.41-.51-.72-.67-.31-.16-.68-.24-1.1-.24s-.78.07-1.13.22c-.35.15-.63.36-.85.63-.22.27-.33.6-.35.98h-1.8c.02-.67.22-1.26.59-1.76.38-.51.87-.9,1.49-1.19.62-.29,1.31-.43,2.06-.43s1.48.15,2.06.46c.58.31,1.02.72,1.34,1.23s.47,1.07.47,1.68c0,.69-.19,1.28-.58,1.76-.39.48-.9.81-1.55.97v.1c.82.12,1.46.45,1.91.98.45.53.68,1.18.67,1.96,0,.68-.18,1.29-.56,1.83-.38.54-.9.96-1.55,1.27-.66.31-1.41.46-2.25.46Z"/>
      <path class="cls-1" d="m300.4,34.17c0,1.52-.2,2.91-.6,4.18-.4,1.27-.98,2.44-1.74,3.52h-1.65c.3-.4.58-.89.83-1.47.26-.58.48-1.21.68-1.9.19-.69.34-1.41.45-2.15.11-.74.16-1.47.16-2.19,0-.95-.09-1.92-.28-2.9-.19-.98-.44-1.89-.77-2.73-.32-.84-.68-1.53-1.07-2.06h1.65c.76,1.07,1.35,2.25,1.74,3.52.4,1.27.6,2.66.6,4.18Z"/>
      <path class="cls-1" d="m321.9,34.17c0-1.51.2-2.91.6-4.18.4-1.27.98-2.44,1.74-3.52h1.65c-.3.4-.58.89-.83,1.47-.26.58-.48,1.21-.68,1.9-.19.69-.34,1.4-.45,2.14-.11.74-.16,1.47-.16,2.18,0,.96.09,1.93.28,2.91.19.98.44,1.89.77,2.73.32.84.68,1.53,1.07,2.06h-1.65c-.76-1.07-1.35-2.25-1.74-3.52-.4-1.27-.6-2.67-.6-4.18Z"/>
      <path class="cls-1" d="m336.86,30.03v1.52h-9.51v-1.52h9.51Zm-6.31,0v9.27h-1.78v-9.27h1.78Zm3.15,0h1.78v6.77c0,.28.05.49.14.63.09.14.22.24.37.29.15.05.32.08.5.08.13,0,.27-.01.4-.04.13-.02.24-.04.32-.06v1.52c-.15.04-.34.09-.56.14-.22.05-.48.07-.77.07-.65,0-1.17-.19-1.58-.57-.4-.38-.61-1.03-.61-1.94v-6.88Z"/>
      <path class="cls-1" d="m343.88,26.36l-3.98,14.8h-1.61l3.98-14.8h1.61Z"/>
      <path class="cls-1" d="m345.39,39.3v-1.35l4.18-4.33c.45-.47.82-.88,1.11-1.24.29-.36.51-.7.66-1.02.15-.32.22-.66.22-1.03,0-.41-.1-.77-.29-1.07-.19-.3-.46-.53-.79-.69-.33-.16-.71-.24-1.13-.24-.44,0-.83.09-1.16.27s-.58.44-.76.77c-.18.33-.27.72-.27,1.16h-1.78c0-.75.17-1.41.52-1.97s.82-1,1.42-1.31c.6-.31,1.29-.47,2.06-.47s1.46.15,2.06.46c.59.31,1.06.73,1.39,1.26.33.53.5,1.13.5,1.79,0,.46-.09.91-.26,1.35-.17.44-.47.93-.89,1.46-.42.54-1.01,1.19-1.76,1.95l-2.46,2.57v.09h5.57v1.6h-8.14Z"/>
      <path class="cls-1" d="m359.31,34.17c0,1.52-.2,2.91-.6,4.18-.4,1.27-.98,2.44-1.74,3.52h-1.65c.3-.4.58-.89.83-1.47.26-.58.48-1.21.68-1.9.19-.69.34-1.41.45-2.15.11-.74.16-1.47.16-2.19,0-.95-.09-1.92-.28-2.9-.19-.98-.44-1.89-.77-2.73-.32-.84-.68-1.53-1.07-2.06h1.65c.76,1.07,1.35,2.25,1.74,3.52.4,1.27.6,2.66.6,4.18Z"/>
      <path class="cls-1" d="m389.81,34.17c0-1.51.2-2.91.6-4.18.4-1.27.98-2.44,1.74-3.52h1.65c-.3.4-.58.89-.83,1.47-.26.58-.48,1.21-.68,1.9-.19.69-.34,1.4-.45,2.14-.11.74-.16,1.47-.16,2.18,0,.96.09,1.93.28,2.91.19.98.44,1.89.77,2.73.32.84.68,1.53,1.07,2.06h-1.65c-.76-1.07-1.35-2.25-1.74-3.52-.4-1.27-.6-2.67-.6-4.18Z"/>
      <path class="cls-1" d="m404.77,30.03v1.52h-9.51v-1.52h9.51Zm-6.31,0v9.27h-1.78v-9.27h1.78Zm3.15,0h1.78v6.77c0,.28.05.49.14.63.09.14.22.24.37.29.15.05.32.08.5.08.13,0,.27-.01.4-.04.13-.02.24-.04.32-.06v1.52c-.15.04-.34.09-.56.14-.22.05-.48.07-.77.07-.65,0-1.17-.19-1.58-.57-.4-.38-.61-1.03-.61-1.94v-6.88Z"/>
      <path class="cls-1" d="m410.55,34.17c0,1.52-.2,2.91-.6,4.18-.4,1.27-.98,2.44-1.74,3.52h-1.65c.3-.4.58-.89.83-1.47.26-.58.48-1.21.68-1.9.19-.69.34-1.41.45-2.15.11-.74.16-1.47.16-2.19,0-.95-.09-1.92-.28-2.9-.19-.98-.44-1.89-.77-2.73-.32-.84-.68-1.53-1.07-2.06h1.65c.76,1.07,1.35,2.25,1.74,3.52.4,1.27.6,2.66.6,4.18Z"/>
      <path class="cls-1" d="m436.55,33.12c0-1.51.2-2.91.6-4.18.4-1.27.98-2.44,1.74-3.52h1.65c-.3.4-.58.89-.83,1.47-.26.58-.48,1.21-.68,1.9-.19.69-.34,1.4-.45,2.14-.11.74-.16,1.47-.16,2.18,0,.96.09,1.93.28,2.91.19.98.44,1.89.77,2.73.32.84.68,1.53,1.07,2.06h-1.65c-.76-1.07-1.35-2.25-1.74-3.52-.4-1.27-.6-2.67-.6-4.18Z"/>
      <path class="cls-1" d="m446.73,39.47c-.83,0-1.57-.14-2.22-.43-.65-.29-1.16-.68-1.54-1.19-.38-.51-.58-1.1-.61-1.77h1.9c.02.37.15.68.37.95.22.27.52.47.88.62.36.15.76.22,1.21.22.49,0,.92-.08,1.29-.25s.67-.41.88-.71c.21-.3.32-.65.32-1.05s-.11-.78-.32-1.1c-.21-.32-.52-.56-.92-.75s-.89-.27-1.46-.27h-1.04v-1.52h1.04c.46,0,.86-.08,1.21-.25s.62-.4.82-.69c.2-.3.3-.64.3-1.04s-.09-.72-.26-1c-.17-.28-.41-.51-.72-.67-.31-.16-.68-.24-1.1-.24s-.78.07-1.13.22c-.35.15-.63.36-.85.63-.22.27-.33.6-.35.98h-1.8c.02-.67.22-1.26.59-1.76.38-.51.87-.9,1.49-1.19.62-.29,1.31-.43,2.06-.43s1.48.15,2.06.46c.58.31,1.02.72,1.34,1.23s.47,1.07.47,1.68c0,.69-.19,1.28-.58,1.76-.39.48-.9.81-1.55.97v.1c.82.12,1.46.45,1.91.98.45.53.68,1.18.67,1.96,0,.68-.18,1.29-.56,1.83-.38.54-.9.96-1.55,1.27-.66.31-1.41.46-2.25.46Z"/>
      <path class="cls-1" d="m462.46,30.03v1.52h-9.51v-1.52h9.51Zm-6.31,0v9.27h-1.78v-9.27h1.78Zm3.15,0h1.78v6.77c0,.28.05.49.14.63.09.14.22.24.37.29.15.05.32.08.5.08.13,0,.27-.01.4-.04.13-.02.24-.04.32-.06v1.52c-.15.04-.34.09-.56.14-.22.05-.48.07-.77.07-.65,0-1.17-.19-1.58-.57-.4-.38-.61-1.03-.61-1.94v-6.88Z"/>
      <path class="cls-1" d="m469.48,26.36l-3.98,14.8h-1.61l3.98-14.8h1.61Z"/>
      <path class="cls-1" d="m470.99,39.3v-1.35l4.18-4.33c.45-.47.82-.88,1.11-1.24.29-.36.51-.7.66-1.02.15-.32.22-.66.22-1.03,0-.41-.1-.77-.29-1.07-.19-.3-.46-.53-.79-.69-.33-.16-.71-.24-1.13-.24-.44,0-.83.09-1.16.27s-.58.44-.76.77c-.18.33-.27.72-.27,1.16h-1.78c0-.75.17-1.41.52-1.97s.82-1,1.42-1.31c.6-.31,1.29-.47,2.06-.47s1.46.15,2.06.46c.59.31,1.06.73,1.39,1.26.33.53.5,1.13.5,1.79,0,.46-.09.91-.26,1.35-.17.44-.47.93-.89,1.46-.42.54-1.01,1.19-1.76,1.95l-2.46,2.57v.09h5.57v1.6h-8.14Z"/>
      <path class="cls-1" d="m484.91,33.12c0,1.52-.2,2.91-.6,4.18-.4,1.27-.98,2.44-1.74,3.52h-1.65c.3-.4.58-.89.83-1.47.26-.58.48-1.21.68-1.9.19-.69.34-1.41.45-2.15.11-.74.16-1.47.16-2.19,0-.95-.09-1.92-.28-2.9-.19-.98-.44-1.89-.77-2.73-.32-.84-.68-1.53-1.07-2.06h1.65c.76,1.07,1.35,2.25,1.74,3.52.4,1.27.6,2.66.6,4.18Z"/>
      <path class="cls-1" d="m501.9,34.17c0-1.51.2-2.91.6-4.18.4-1.27.98-2.44,1.74-3.52h1.65c-.3.4-.58.89-.83,1.47-.26.58-.48,1.21-.68,1.9-.19.69-.34,1.4-.45,2.14-.11.74-.16,1.47-.16,2.18,0,.96.09,1.93.28,2.91.19.98.44,1.89.77,2.73s.68,1.53,1.07,2.06h-1.65c-.76-1.07-1.35-2.25-1.74-3.52-.4-1.27-.6-2.67-.6-4.18Z"/>
      <path class="cls-1" d="m507.78,39.3v-1.35l4.18-4.33c.45-.47.82-.88,1.11-1.24.29-.36.51-.7.66-1.02.14-.32.22-.66.22-1.03,0-.41-.1-.77-.29-1.07-.19-.3-.46-.53-.79-.69-.33-.16-.71-.24-1.13-.24-.44,0-.83.09-1.16.27s-.58.44-.76.77c-.18.33-.27.72-.27,1.16h-1.78c0-.75.17-1.41.52-1.97s.82-1,1.42-1.31c.6-.31,1.29-.47,2.06-.47s1.46.15,2.06.46c.59.31,1.06.73,1.39,1.26.33.53.5,1.13.5,1.79,0,.46-.09.91-.26,1.35-.17.44-.47.93-.89,1.46-.42.54-1.01,1.19-1.76,1.95l-2.46,2.57v.09h5.57v1.6h-8.14Z"/>
      <path class="cls-1" d="m527.29,30.03v1.52h-9.51v-1.52h9.51Zm-6.31,0v9.27h-1.78v-9.27h1.78Zm3.15,0h1.78v6.77c0,.28.05.49.14.63.09.14.22.24.37.29.16.05.32.08.5.08.13,0,.27-.01.4-.04.13-.02.24-.04.32-.06v1.52c-.15.04-.34.09-.56.14-.22.05-.48.07-.77.07-.65,0-1.17-.19-1.58-.57-.41-.38-.61-1.03-.61-1.94v-6.88Z"/>
      <path class="cls-1" d="m533.07,34.17c0,1.52-.2,2.91-.6,4.18-.4,1.27-.98,2.44-1.74,3.52h-1.65c.3-.4.58-.89.83-1.47.26-.58.48-1.21.68-1.9s.34-1.41.45-2.15c.11-.74.16-1.47.16-2.19,0-.95-.09-1.92-.28-2.9s-.44-1.89-.77-2.73c-.32-.84-.68-1.53-1.07-2.06h1.65c.76,1.07,1.35,2.25,1.74,3.52.4,1.27.6,2.66.6,4.18Z"/>
    </g>
    <g>
      <path class="cls-1" d="m28.01,70.07l-1.64.29c-.07-.21-.18-.41-.32-.6-.15-.19-.35-.34-.59-.46-.25-.12-.56-.18-.94-.18-.51,0-.94.11-1.28.34-.34.23-.51.52-.51.88,0,.31.11.56.34.75s.6.34,1.11.46l1.47.34c.85.2,1.49.5,1.91.91.42.41.63.94.63,1.6,0,.56-.16,1.05-.48,1.48-.32.43-.76.77-1.33,1.02-.57.25-1.23.37-1.98.37-1.04,0-1.89-.22-2.54-.67s-1.06-1.08-1.21-1.9l1.74-.27c.11.45.33.8.67,1.03.34.23.78.35,1.32.35.59,0,1.06-.12,1.42-.37s.53-.55.53-.91c0-.29-.11-.53-.32-.73-.22-.2-.54-.35-.99-.45l-1.57-.34c-.87-.2-1.5-.51-1.92-.94s-.62-.98-.62-1.64c0-.55.15-1.03.46-1.44.31-.41.73-.73,1.27-.96.54-.23,1.16-.35,1.85-.35,1,0,1.79.22,2.37.65s.96,1.01,1.14,1.74Z"/>
      <path class="cls-1" d="m31.08,66.37c-.31,0-.58-.11-.81-.32-.22-.21-.33-.46-.33-.76s.11-.55.33-.76c.22-.21.49-.32.81-.32s.58.11.81.32c.22.21.33.46.33.76s-.11.55-.33.76c-.22.21-.49.32-.81.32Zm-.91,10.7v-9.27h1.81v9.27h-1.81Z"/>
      <path class="cls-1" d="m36.2,71.57v5.51h-1.81v-9.27h1.73v1.51h.11c.21-.49.55-.89,1.01-1.18.46-.3,1.03-.45,1.73-.45.63,0,1.19.13,1.66.4s.84.65,1.1,1.17c.26.52.39,1.16.39,1.93v5.9h-1.8v-5.68c0-.67-.18-1.2-.53-1.58s-.83-.57-1.44-.57c-.42,0-.79.09-1.11.27-.32.18-.58.45-.77.79-.19.35-.28.77-.28,1.26Z"/>
      <path class="cls-1" d="m48.04,77.27c-.77,0-1.45-.22-2.03-.63s-1.04-.98-1.36-1.7c-.33-.72-.49-1.56-.49-2.5s.17-1.76.51-2.47c.34-.71.81-1.27,1.41-1.68.6-.4,1.28-.61,2.04-.61.54,0,1.02.1,1.43.31.41.2.76.49,1.05.85.29.36.53.78.72,1.26h.63l.36,2.32,1.18,4.66h-1.55l-1.11-4.66c-.06-.3-.15-.63-.27-1s-.28-.72-.48-1.05-.45-.61-.75-.83-.66-.33-1.08-.33c-.46,0-.87.14-1.22.41-.35.28-.62.66-.82,1.14-.19.49-.29,1.05-.29,1.68s.09,1.18.28,1.67.45.88.78,1.17c.33.28.72.43,1.17.43.41,0,.76-.11,1.07-.33.31-.22.57-.5.78-.85.21-.34.39-.7.52-1.07.13-.37.23-.71.3-1.01l1-4.66h1.54l-1.06,4.66-.36,2.35h-.57c-.19.48-.44.9-.75,1.28-.3.37-.67.66-1.1.87-.43.21-.93.31-1.49.31Z"/>
    </g>
    <g>
      <path class="cls-1" d="m21.37,126.54c-.9,0-1.67-.2-2.31-.61-.65-.41-1.14-.97-1.49-1.69-.35-.72-.52-1.55-.52-2.48s.18-1.77.53-2.5.85-1.29,1.5-1.69,1.4-.61,2.28-.61c.7,0,1.33.13,1.88.39.55.26,1,.62,1.34,1.09.34.47.54,1.01.61,1.64h-1.76c-.1-.43-.32-.81-.66-1.12s-.8-.47-1.38-.47c-.5,0-.94.13-1.32.4-.38.26-.67.64-.88,1.12-.21.49-.31,1.06-.31,1.72s.1,1.26.31,1.75c.21.49.5.87.87,1.14s.82.4,1.33.4c.34,0,.65-.06.93-.19.28-.13.52-.31.71-.55.19-.24.32-.52.4-.86h1.76c-.06.6-.26,1.14-.59,1.61-.33.47-.76.84-1.31,1.11s-1.18.4-1.92.4Z"/>
      <path class="cls-1" d="m31.02,126.54c-.87,0-1.63-.2-2.28-.6s-1.15-.96-1.51-1.67c-.36-.72-.54-1.55-.54-2.51s.18-1.8.54-2.52c.36-.72.86-1.28,1.51-1.68s1.41-.6,2.28-.6,1.63.2,2.28.6,1.15.96,1.51,1.68c.36.72.54,1.56.54,2.52s-.18,1.8-.54,2.51c-.36.72-.86,1.27-1.51,1.67s-1.41.6-2.28.6Zm0-1.52c.56,0,1.03-.15,1.4-.45s.65-.69.82-1.19c.18-.49.27-1.04.27-1.64s-.09-1.14-.27-1.63c-.18-.5-.45-.9-.82-1.2-.37-.3-.84-.45-1.4-.45s-1.04.15-1.41.45c-.37.3-.65.7-.83,1.2s-.27,1.04-.27,1.63.09,1.14.27,1.64c.18.5.45.89.83,1.19.37.3.84.45,1.41.45Z"/>
      <path class="cls-1" d="m44.3,119.34l-1.64.29c-.07-.21-.18-.41-.32-.6-.15-.19-.35-.34-.59-.46-.25-.12-.56-.18-.94-.18-.51,0-.94.11-1.28.34-.34.23-.51.52-.51.88,0,.31.11.56.34.75s.6.34,1.11.46l1.47.34c.85.2,1.49.5,1.91.91.42.41.63.94.63,1.6,0,.56-.16,1.05-.48,1.48-.32.43-.76.77-1.33,1.02-.57.25-1.23.37-1.98.37-1.04,0-1.89-.22-2.54-.67s-1.06-1.08-1.21-1.9l1.74-.27c.11.45.33.8.67,1.03.34.23.78.35,1.32.35.59,0,1.06-.12,1.42-.37s.53-.55.53-.91c0-.29-.11-.53-.32-.73-.22-.2-.54-.35-.99-.45l-1.57-.34c-.87-.2-1.5-.51-1.92-.94s-.62-.98-.62-1.64c0-.55.15-1.03.46-1.44.31-.41.73-.73,1.27-.96.54-.23,1.16-.35,1.85-.35,1,0,1.79.22,2.37.65s.96,1.01,1.14,1.74Z"/>
      <path class="cls-1" d="m49.95,126.54c-.77,0-1.45-.22-2.03-.63s-1.04-.98-1.36-1.7c-.33-.72-.49-1.56-.49-2.5s.17-1.76.51-2.47c.34-.71.81-1.27,1.41-1.68.6-.4,1.28-.61,2.04-.61.54,0,1.02.1,1.43.31.41.2.76.49,1.05.85.29.36.53.78.72,1.26h.63l.36,2.32,1.18,4.66h-1.55l-1.11-4.66c-.06-.3-.15-.63-.27-1s-.28-.72-.48-1.05-.45-.61-.75-.83-.66-.33-1.08-.33c-.46,0-.87.14-1.22.41-.35.28-.62.66-.82,1.14-.19.49-.29,1.05-.29,1.68s.09,1.18.28,1.67.45.88.78,1.17c.33.28.72.43,1.17.43.41,0,.76-.11,1.07-.33.31-.22.57-.5.78-.85.21-.34.39-.7.52-1.07.13-.37.23-.71.3-1.01l1-4.66h1.54l-1.06,4.66-.36,2.35h-.57c-.19.48-.44.9-.75,1.28-.3.37-.67.66-1.1.87-.43.21-.93.31-1.49.31Z"/>
    </g>
    <g>
      <path class="cls-1" d="m29.35,168.03v1.45h-5.06v-1.45h5.06Zm-3.71-2.22h1.8v8.77c0,.35.05.61.16.79.1.18.24.29.41.36s.35.09.55.09c.15,0,.27-.01.38-.03.11-.02.19-.04.25-.05l.33,1.49c-.1.04-.25.08-.45.12-.19.04-.43.07-.72.07-.47,0-.92-.08-1.33-.25-.41-.18-.74-.45-1-.82-.25-.37-.38-.84-.38-1.39v-9.15Z"/>
      <path class="cls-1" d="m35.23,180.98c-.74,0-1.37-.1-1.9-.29-.53-.19-.96-.45-1.29-.77s-.58-.67-.75-1.04l1.55-.64c.11.18.25.37.44.56.18.2.43.37.75.51.32.14.72.21,1.22.21.68,0,1.25-.17,1.7-.5.45-.33.67-.86.67-1.58v-1.82h-.11c-.11.2-.26.42-.47.66-.2.24-.48.45-.84.63-.35.18-.81.27-1.38.27-.73,0-1.39-.17-1.98-.52-.59-.34-1.05-.85-1.39-1.53-.34-.67-.51-1.5-.51-2.49s.17-1.83.5-2.54.8-1.24,1.39-1.62c.59-.38,1.25-.56,2-.56.58,0,1.04.1,1.39.29.35.19.63.41.83.67.2.25.35.48.46.67h.13v-1.5h1.77v9.48c0,.8-.19,1.45-.56,1.96-.37.51-.87.89-1.5,1.13s-1.34.37-2.13.37Zm-.02-5.31c.52,0,.96-.12,1.32-.37.36-.24.63-.59.82-1.05.19-.46.28-1,.28-1.65s-.09-1.17-.28-1.65c-.19-.48-.46-.85-.81-1.11s-.8-.4-1.33-.4-1,.14-1.36.42c-.36.28-.63.66-.82,1.14-.18.48-.27,1.01-.27,1.61s.09,1.14.28,1.6c.19.46.46.82.82,1.07.36.26.81.39,1.35.39Z"/>
      <path class="cls-1" d="m45.31,177.5c-.77,0-1.45-.22-2.03-.63s-1.04-.98-1.36-1.7c-.33-.72-.49-1.56-.49-2.5s.17-1.76.51-2.47c.34-.71.81-1.27,1.41-1.68.6-.4,1.28-.61,2.04-.61.54,0,1.02.1,1.43.31.41.2.76.49,1.05.85.29.36.53.78.72,1.26h.63l.36,2.32,1.18,4.66h-1.55l-1.11-4.66c-.06-.3-.15-.63-.27-1s-.28-.72-.48-1.05-.45-.61-.75-.83-.66-.33-1.08-.33c-.46,0-.87.14-1.22.41-.35.28-.62.66-.82,1.14-.19.49-.29,1.05-.29,1.68s.09,1.18.28,1.67.45.88.78,1.17c.33.28.72.43,1.17.43.41,0,.76-.11,1.07-.33.31-.22.57-.5.78-.85.21-.34.39-.7.52-1.07.13-.37.23-.71.3-1.01l1-4.66h1.54l-1.06,4.66-.36,2.35h-.57c-.19.48-.44.9-.75,1.28-.3.37-.67.66-1.1.87-.43.21-.93.31-1.49.31Z"/>
    </g>
    <path class="cls-1" d="m104.73,77.28c-.95,0-1.77-.26-2.44-.75-.68-.5-1.19-1.23-1.55-2.18-.36-.95-.54-2.1-.54-3.45s.18-2.49.54-3.44.88-1.67,1.56-2.17c.68-.5,1.49-.75,2.44-.75s1.76.25,2.43.75c.68.5,1.19,1.23,1.55,2.17s.54,2.09.54,3.43-.18,2.5-.54,3.45c-.36.95-.88,1.68-1.55,2.18-.68.5-1.49.75-2.44.75Zm0-1.61c.84,0,1.49-.41,1.96-1.23.47-.82.71-2,.71-3.54,0-1.03-.11-1.89-.32-2.6s-.52-1.25-.92-1.62c-.4-.37-.88-.55-1.43-.55-.83,0-1.49.41-1.96,1.23-.47.82-.71,2-.72,3.54,0,1.03.11,1.9.32,2.61.22.71.52,1.25.92,1.61s.88.55,1.44.55Z"/>
    <path class="cls-1" d="m106.59,113.99v12.36h-1.87v-10.49h-.07l-2.96,1.93v-1.79l3.08-2.02h1.82Z"/>
    <path class="cls-1" d="m104.73,177.51c-.95,0-1.77-.26-2.44-.75-.68-.5-1.19-1.23-1.55-2.18-.36-.95-.54-2.1-.54-3.45s.18-2.49.54-3.44.88-1.67,1.56-2.17c.68-.5,1.49-.75,2.44-.75s1.76.25,2.43.75c.68.5,1.19,1.23,1.55,2.17s.54,2.09.54,3.43-.18,2.5-.54,3.45c-.36.95-.88,1.68-1.55,2.18-.68.5-1.49.75-2.44.75Zm0-1.61c.84,0,1.49-.41,1.96-1.23.47-.82.71-2,.71-3.54,0-1.03-.11-1.89-.32-2.6s-.52-1.25-.92-1.62c-.4-.37-.88-.55-1.43-.55-.83,0-1.49.41-1.96,1.23-.47.82-.71,2-.72,3.54,0,1.03.11,1.9.32,2.61.22.71.52,1.25.92,1.61s.88.55,1.44.55Z"/>
    <g>
      <path class="cls-1" d="m165.03,55.21v12.36h-1.87v-10.49h-.07l-2.96,1.93v-1.79l3.08-2.02h1.82Z"/>
      <path class="cls-1" d="m160.34,86.58v-1.35l4.18-4.33c.45-.47.82-.88,1.11-1.24.29-.36.51-.7.66-1.02.15-.32.22-.66.22-1.03,0-.41-.1-.77-.29-1.07-.19-.3-.46-.53-.79-.69-.33-.16-.71-.24-1.13-.24-.44,0-.83.09-1.16.27s-.58.44-.76.77c-.18.33-.27.72-.27,1.16h-1.78c0-.75.17-1.41.52-1.97s.82-1,1.42-1.31c.6-.31,1.29-.47,2.06-.47s1.46.15,2.06.46c.59.31,1.06.73,1.39,1.26.33.53.5,1.13.5,1.79,0,.46-.09.91-.26,1.35-.17.44-.47.93-.89,1.46-.42.54-1.01,1.19-1.76,1.95l-2.46,2.57v.09h5.57v1.6h-8.14Z"/>
    </g>
    <path class="cls-1" d="m224.98,164.94v12.36h-1.87v-10.49h-.07l-2.96,1.93v-1.79l3.08-2.02h1.82Z"/>
    <path class="cls-1" d="m224.98,214.11v12.36h-1.87v-10.49h-.07l-2.96,1.93v-1.79l3.08-2.02h1.82Z"/>
    <g>
      <path class="cls-1" d="m282.77,104.49v12.36h-1.87v-10.49h-.07l-2.96,1.93v-1.79l3.08-2.02h1.82Z"/>
      <path class="cls-1" d="m278.08,135.85v-1.35l4.18-4.33c.45-.47.82-.88,1.11-1.24.29-.36.51-.7.66-1.02.15-.32.22-.66.22-1.03,0-.41-.1-.77-.29-1.07-.19-.3-.46-.53-.79-.69-.33-.16-.71-.24-1.13-.24-.44,0-.83.09-1.16.27s-.58.44-.76.77c-.18.33-.27.72-.27,1.16h-1.78c0-.75.17-1.41.52-1.97s.82-1,1.42-1.31c.6-.31,1.29-.47,2.06-.47s1.46.15,2.06.46c.59.31,1.06.73,1.39,1.26.33.53.5,1.13.5,1.79,0,.46-.09.91-.26,1.35-.17.44-.47.93-.89,1.46-.42.54-1.01,1.19-1.76,1.95l-2.46,2.57v.09h5.57v1.6h-8.14Z"/>
    </g>
    <path class="cls-1" d="m343.6,64.71v12.36h-1.87v-10.49h-.07l-2.96,1.93v-1.79l3.08-2.02h1.82Z"/>
    <path class="cls-1" d="m341.74,126.56c-.95,0-1.77-.26-2.44-.75-.68-.5-1.19-1.23-1.55-2.18-.36-.95-.54-2.1-.54-3.45s.18-2.49.54-3.44c.36-.95.88-1.67,1.56-2.17s1.49-.75,2.44-.75,1.76.25,2.43.75c.68.5,1.19,1.23,1.55,2.17s.54,2.09.54,3.43-.18,2.5-.54,3.45c-.36.95-.88,1.68-1.55,2.18s-1.49.75-2.44.75Zm0-1.61c.84,0,1.49-.41,1.96-1.23.47-.82.71-2,.71-3.54,0-1.03-.11-1.89-.32-2.6-.22-.71-.52-1.25-.92-1.62-.4-.37-.88-.55-1.43-.55-.83,0-1.49.41-1.96,1.23-.48.82-.71,2-.72,3.54,0,1.03.11,1.9.32,2.61.22.71.52,1.25.92,1.61s.88.55,1.44.55Z"/>
    <path class="cls-1" d="m341.74,226.67c-.95,0-1.77-.26-2.44-.75-.68-.5-1.19-1.23-1.55-2.18-.36-.95-.54-2.1-.54-3.45s.18-2.49.54-3.44c.36-.95.88-1.67,1.56-2.17s1.49-.75,2.44-.75,1.76.25,2.43.75c.68.5,1.19,1.23,1.55,2.17s.54,2.09.54,3.43-.18,2.5-.54,3.45c-.36.95-.88,1.68-1.55,2.18s-1.49.75-2.44.75Zm0-1.61c.84,0,1.49-.41,1.96-1.23.47-.82.71-2,.71-3.54,0-1.03-.11-1.89-.32-2.6-.22-.71-.52-1.25-.92-1.62-.4-.37-.88-.55-1.43-.55-.83,0-1.49.41-1.96,1.23-.48.82-.71,2-.72,3.54,0,1.03.11,1.9.32,2.61.22.71.52,1.25.92,1.61s.88.55,1.44.55Z"/>
    <path class="cls-1" d="m400.1,77.28c-.95,0-1.77-.26-2.44-.75-.68-.5-1.19-1.23-1.55-2.18-.36-.95-.54-2.1-.54-3.45s.18-2.49.54-3.44c.36-.95.88-1.67,1.56-2.17s1.49-.75,2.44-.75,1.76.25,2.43.75c.68.5,1.19,1.23,1.55,2.17s.54,2.09.54,3.43-.18,2.5-.54,3.45c-.36.95-.88,1.68-1.55,2.18s-1.49.75-2.44.75Zm0-1.61c.84,0,1.49-.41,1.96-1.23.47-.82.71-2,.71-3.54,0-1.03-.11-1.89-.32-2.6-.22-.71-.52-1.25-.92-1.62-.4-.37-.88-.55-1.43-.55-.83,0-1.49.41-1.96,1.23-.48.82-.71,2-.72,3.54,0,1.03.11,1.9.32,2.61.22.71.52,1.25.92,1.61s.88.55,1.44.55Z"/>
    <g>
      <path class="cls-1" d="m398.82,119.38v1.57h-5.48v-1.57h5.48Z"/>
      <path class="cls-1" d="m405.89,113.99v12.36h-1.87v-10.49h-.07l-2.96,1.93v-1.79l3.08-2.02h1.82Z"/>
    </g>
    <path class="cls-1" d="m400.1,177.51c-.95,0-1.77-.26-2.44-.75-.68-.5-1.19-1.23-1.55-2.18-.36-.95-.54-2.1-.54-3.45s.18-2.49.54-3.44c.36-.95.88-1.67,1.56-2.17s1.49-.75,2.44-.75,1.76.25,2.43.75c.68.5,1.19,1.23,1.55,2.17s.54,2.09.54,3.43-.18,2.5-.54,3.45c-.36.95-.88,1.68-1.55,2.18s-1.49.75-2.44.75Zm0-1.61c.84,0,1.49-.41,1.96-1.23.47-.82.71-2,.71-3.54,0-1.03-.11-1.89-.32-2.6-.22-.71-.52-1.25-.92-1.62-.4-.37-.88-.55-1.43-.55-.83,0-1.49.41-1.96,1.23-.48.82-.71,2-.72,3.54,0,1.03.11,1.9.32,2.61.22.71.52,1.25.92,1.61s.88.55,1.44.55Z"/>
    <g>
      <path class="cls-1" d="m457.2,70.11v1.57h-5.48v-1.57h5.48Z"/>
      <path class="cls-1" d="m464.28,64.71v12.36h-1.87v-10.49h-.07l-2.96,1.93v-1.79l3.08-2.02h1.82Z"/>
    </g>
    <path class="cls-1" d="m458.48,126.56c-.95,0-1.77-.26-2.44-.75-.68-.5-1.19-1.23-1.55-2.18-.36-.95-.54-2.1-.54-3.45s.18-2.49.54-3.44c.36-.95.88-1.67,1.56-2.17s1.49-.75,2.44-.75,1.76.25,2.43.75c.68.5,1.19,1.23,1.55,2.17s.54,2.09.54,3.43-.18,2.5-.54,3.45c-.36.95-.88,1.68-1.55,2.18s-1.49.75-2.44.75Zm0-1.61c.84,0,1.49-.41,1.96-1.23.47-.82.71-2,.71-3.54,0-1.03-.11-1.89-.32-2.6-.22-.71-.52-1.25-.92-1.62-.4-.37-.88-.55-1.43-.55-.83,0-1.49.41-1.96,1.23-.48.82-.71,2-.72,3.54,0,1.03.11,1.9.32,2.61.22.71.52,1.25.92,1.61s.88.55,1.44.55Z"/>
    <path class="cls-1" d="m458.48,226.67c-.95,0-1.77-.26-2.44-.75-.68-.5-1.19-1.23-1.55-2.18-.36-.95-.54-2.1-.54-3.45s.18-2.49.54-3.44c.36-.95.88-1.67,1.56-2.17s1.49-.75,2.44-.75,1.76.25,2.43.75c.68.5,1.19,1.23,1.55,2.17s.54,2.09.54,3.43-.18,2.5-.54,3.45c-.36.95-.88,1.68-1.55,2.18s-1.49.75-2.44.75Zm0-1.61c.84,0,1.49-.41,1.96-1.23.47-.82.71-2,.71-3.54,0-1.03-.11-1.89-.32-2.6-.22-.71-.52-1.25-.92-1.62-.4-.37-.88-.55-1.43-.55-.83,0-1.49.41-1.96,1.23-.48.82-.71,2-.72,3.54,0,1.03.11,1.9.32,2.61.22.71.52,1.25.92,1.61s.88.55,1.44.55Z"/>
    <path class="cls-1" d="m517.58,77.28c-.95,0-1.77-.26-2.44-.75-.68-.5-1.19-1.23-1.55-2.18-.36-.95-.54-2.1-.54-3.45s.18-2.49.54-3.44.88-1.67,1.56-2.17,1.49-.75,2.44-.75,1.76.25,2.43.75c.68.5,1.19,1.23,1.55,2.17.36.95.54,2.09.54,3.43s-.18,2.5-.54,3.45c-.36.95-.88,1.68-1.55,2.18s-1.49.75-2.44.75Zm0-1.61c.84,0,1.49-.41,1.97-1.23.47-.82.71-2,.71-3.54,0-1.03-.11-1.89-.32-2.6-.21-.71-.52-1.25-.92-1.62-.4-.37-.88-.55-1.43-.55-.83,0-1.49.41-1.96,1.23-.47.82-.71,2-.72,3.54,0,1.03.11,1.9.32,2.61.22.71.52,1.25.92,1.61s.88.55,1.44.55Z"/>
    <path class="cls-1" d="m519.44,113.99v12.36h-1.87v-10.49h-.07l-2.96,1.93v-1.79l3.08-2.02h1.82Z"/>
    <path class="cls-1" d="m517.58,177.51c-.95,0-1.77-.26-2.44-.75-.68-.5-1.19-1.23-1.55-2.18-.36-.95-.54-2.1-.54-3.45s.18-2.49.54-3.44.88-1.67,1.56-2.17,1.49-.75,2.44-.75,1.76.25,2.43.75c.68.5,1.19,1.23,1.55,2.17.36.95.54,2.09.54,3.43s-.18,2.5-.54,3.45c-.36.95-.88,1.68-1.55,2.18s-1.49.75-2.44.75Zm0-1.61c.84,0,1.49-.41,1.97-1.23.47-.82.71-2,.71-3.54,0-1.03-.11-1.89-.32-2.6-.21-.71-.52-1.25-.92-1.62-.4-.37-.88-.55-1.43-.55-.83,0-1.49.41-1.96,1.23-.47.82-.71,2-.72,3.54,0,1.03.11,1.9.32,2.61.22.71.52,1.25.92,1.61s.88.55,1.44.55Z"/>
    <rect class="cls-1" x="157.86" y="71.7" width="13" height="1.5"/>
    <rect class="cls-1" x="275.6" y="120.98" width="13" height="1.5"/>
    <g>
      <g>
        <path class="cls-1" d="m167.97,155.44v12.36h-1.87v-10.49h-.07l-2.96,1.93v-1.79l3.08-2.02h1.82Z"/>
        <path class="cls-1" d="m167.58,186.97c-.83,0-1.57-.14-2.22-.43-.65-.29-1.16-.68-1.54-1.19-.38-.51-.58-1.1-.61-1.77h1.9c.02.37.15.68.37.95.22.27.52.47.88.62.36.15.76.22,1.21.22.49,0,.92-.08,1.29-.25s.67-.41.88-.71c.21-.3.32-.65.32-1.05s-.11-.78-.32-1.1c-.21-.32-.52-.56-.92-.75s-.89-.27-1.46-.27h-1.04v-1.52h1.04c.46,0,.86-.08,1.21-.25s.62-.4.82-.69c.2-.3.3-.64.3-1.04s-.09-.72-.26-1c-.17-.28-.41-.51-.72-.67-.31-.16-.68-.24-1.1-.24s-.78.07-1.13.22c-.35.15-.63.36-.85.63-.22.27-.33.6-.35.98h-1.8c.02-.67.22-1.26.59-1.76.38-.51.87-.9,1.49-1.19.62-.29,1.31-.43,2.06-.43s1.48.15,2.06.46c.58.31,1.02.72,1.34,1.23s.47,1.07.47,1.68c0,.69-.19,1.28-.58,1.76-.39.48-.9.81-1.55.97v.1c.82.12,1.46.45,1.91.98.45.53.68,1.18.67,1.96,0,.68-.18,1.29-.56,1.83-.38.54-.9.96-1.55,1.27-.66.31-1.41.46-2.25.46Z"/>
      </g>
      <rect class="cls-1" x="154.56" y="168.54" width="20.67" height="1.5"/>
      <path class="cls-1" d="m176.04,173.01h-13.9c-.13.42-.26.84-.39,1.25-.26.84-.52,1.68-.78,2.51-.17.57-.34,1.13-.52,1.7-.26.83-.52,1.67-.77,2.5-.22.7-.43,1.4-.64,2.09-.11.37-.22.75-.34,1.12-.18.58-.36,1.16-.54,1.75-.02.08-.05.1-.13.1-.43,0-.85,0-1.28,0-.07,0-.1,0-.13-.09-.17-.49-.35-.97-.52-1.45-.33-.93-.67-1.85-1-2.78-.27-.74-.53-1.49-.79-2.23-.02-.07-.06-.08-.13-.08-.46,0-.92,0-1.37,0h-.14v-1.46h.19c.8,0,1.6,0,2.4,0,.1,0,.15.03.18.12.11.33.23.66.34.99.26.74.51,1.49.76,2.23.24.71.49,1.41.73,2.12,0,.03.03.05.06.09.2-.67.39-1.31.59-1.95.22-.72.44-1.45.66-2.17.22-.71.43-1.42.65-2.13.24-.8.49-1.6.73-2.41.21-.68.41-1.36.62-2.05.11-.36.22-.72.32-1.08.03-.1.07-.13.17-.13,3.12,0,6.24,0,9.37,0h5.62"/>
    </g>
    <g>
      <path class="cls-1" d="m167.08,227.13c-.83,0-1.57-.14-2.22-.43-.65-.29-1.16-.68-1.54-1.19-.38-.51-.58-1.1-.61-1.77h1.9c.02.37.15.68.37.95.22.27.52.47.88.62.36.15.76.22,1.21.22.49,0,.92-.08,1.29-.25s.67-.41.88-.71c.21-.3.32-.65.32-1.05s-.11-.78-.32-1.1c-.21-.32-.52-.56-.92-.75s-.89-.27-1.46-.27h-1.04v-1.52h1.04c.46,0,.86-.08,1.21-.25s.62-.4.82-.69c.2-.3.3-.64.3-1.04s-.09-.72-.26-1c-.17-.28-.41-.51-.72-.67-.31-.16-.68-.24-1.1-.24s-.78.07-1.13.22c-.35.15-.63.36-.85.63-.22.27-.33.6-.35.98h-1.8c.02-.67.22-1.26.59-1.76.38-.51.87-.9,1.49-1.19.62-.29,1.31-.43,2.06-.43s1.48.15,2.06.46c.58.31,1.02.72,1.34,1.23s.47,1.07.47,1.68c0,.69-.19,1.28-.58,1.76-.39.48-.9.81-1.55.97v.1c.82.12,1.46.45,1.91.98.45.53.68,1.18.67,1.96,0,.68-.18,1.29-.56,1.83-.38.54-.9.96-1.55,1.27-.66.31-1.41.46-2.25.46Z"/>
      <path class="cls-1" d="m176.04,212.72h-13.9c-.13.42-.26.84-.39,1.25-.26.84-.52,1.68-.78,2.51-.17.57-.34,1.13-.52,1.7-.26.83-.52,1.67-.77,2.5-.22.7-.43,1.4-.64,2.09-.11.37-.22.75-.34,1.12-.18.58-.36,1.16-.54,1.75-.02.08-.05.1-.13.1-.43,0-.85,0-1.28,0-.07,0-.1,0-.13-.09-.17-.49-.35-.97-.52-1.45-.33-.93-.67-1.85-1-2.78-.27-.74-.53-1.49-.79-2.23-.02-.07-.06-.08-.13-.08-.46,0-.92,0-1.37,0h-.14v-1.46h.19c.8,0,1.6,0,2.4,0,.1,0,.15.03.18.12.11.33.23.66.34.99.26.74.51,1.49.76,2.23.24.71.49,1.41.73,2.12,0,.03.03.05.06.09.2-.67.39-1.31.59-1.95.22-.72.44-1.45.66-2.17.22-.71.43-1.42.65-2.13.24-.8.49-1.6.73-2.41.21-.68.41-1.36.62-2.05.11-.36.22-.72.32-1.08.03-.1.07-.13.17-.13,3.12,0,6.24,0,9.37,0h5.62"/>
    </g>
    <g>
      <g>
        <path class="cls-1" d="m167.8,117.32c-.83,0-1.57-.14-2.22-.43-.65-.29-1.16-.68-1.54-1.19-.38-.51-.58-1.1-.61-1.77h1.9c.02.37.15.68.37.95.22.27.52.47.88.62.36.15.76.22,1.21.22.49,0,.92-.08,1.29-.25s.67-.41.88-.71c.21-.3.32-.65.32-1.05s-.11-.78-.32-1.1c-.21-.32-.52-.56-.92-.75s-.89-.27-1.46-.27h-1.04v-1.52h1.04c.46,0,.86-.08,1.21-.25s.62-.4.82-.69c.2-.3.3-.64.3-1.04s-.09-.72-.26-1c-.17-.28-.41-.51-.72-.67-.31-.16-.68-.24-1.1-.24s-.78.07-1.13.22c-.35.15-.63.36-.85.63-.22.27-.33.6-.35.98h-1.8c.02-.67.22-1.26.59-1.76.38-.51.87-.9,1.49-1.19.62-.29,1.31-.43,2.06-.43s1.48.15,2.06.46c.58.31,1.02.72,1.34,1.23s.47,1.07.47,1.68c0,.69-.19,1.28-.58,1.76-.39.48-.9.81-1.55.97v.1c.82.12,1.46.45,1.91.98.45.53.68,1.18.67,1.96,0,.68-.18,1.29-.56,1.83-.38.54-.9.96-1.55,1.27-.66.31-1.41.46-2.25.46Z"/>
        <path class="cls-1" d="m159,136.15v-1.35l4.18-4.33c.45-.47.82-.88,1.11-1.24.29-.36.51-.7.66-1.02.15-.32.22-.66.22-1.03,0-.41-.1-.77-.29-1.07-.19-.3-.46-.53-.79-.69-.33-.16-.71-.24-1.13-.24-.44,0-.83.09-1.16.27s-.58.44-.76.77c-.18.33-.27.72-.27,1.16h-1.78c0-.75.17-1.41.52-1.97s.82-1,1.42-1.31c.6-.31,1.29-.47,2.06-.47s1.46.15,2.06.46c.59.31,1.06.73,1.39,1.26.33.53.5,1.13.5,1.79,0,.46-.09.91-.26,1.35-.17.44-.47.93-.89,1.46-.42.54-1.01,1.19-1.76,1.95l-2.46,2.57v.09h5.57v1.6h-8.14Z"/>
      </g>
      <rect class="cls-1" x="152.45" y="119.83" width="23" height="1.5"/>
      <path class="cls-1" d="m176.26,103.3h-13.9c-.13.42-.26.84-.39,1.25-.26.84-.52,1.68-.78,2.51-.17.57-.34,1.13-.52,1.7-.26.83-.52,1.67-.77,2.5-.22.7-.43,1.4-.64,2.09-.11.37-.22.75-.34,1.12-.18.58-.36,1.16-.54,1.75-.02.08-.05.1-.13.1-.43,0-.85,0-1.28,0-.07,0-.1,0-.13-.09-.17-.49-.35-.97-.52-1.45-.33-.93-.67-1.85-1-2.78-.27-.74-.53-1.49-.79-2.23-.02-.07-.06-.08-.13-.08-.46,0-.92,0-1.37,0h-.14v-1.46h.19c.8,0,1.6,0,2.4,0,.1,0,.15.03.18.12.11.33.23.66.34.99.26.74.51,1.49.76,2.23.24.71.49,1.41.73,2.12,0,.03.03.05.06.09.2-.67.39-1.31.59-1.95.22-.72.44-1.45.66-2.17.22-.71.43-1.42.65-2.13.24-.8.49-1.6.73-2.41.21-.68.41-1.36.62-2.05.11-.36.22-.72.32-1.08.03-.1.07-.13.17-.13,3.12,0,6.24,0,9.37,0h5.62"/>
    </g>
    <g>
      <g>
        <path class="cls-1" d="m221.82,67.76v-1.35l4.18-4.33c.45-.47.82-.88,1.11-1.24.29-.36.51-.7.66-1.02.15-.32.22-.66.22-1.03,0-.41-.1-.77-.29-1.07-.19-.3-.46-.53-.79-.69-.33-.16-.71-.24-1.13-.24-.44,0-.83.09-1.16.27s-.58.44-.76.77c-.18.33-.27.72-.27,1.16h-1.78c0-.75.17-1.41.52-1.97s.82-1,1.42-1.31c.6-.31,1.29-.47,2.06-.47s1.46.15,2.06.46c.59.31,1.06.73,1.39,1.26.33.53.5,1.13.5,1.79,0,.46-.09.91-.26,1.35-.17.44-.47.93-.89,1.46-.42.54-1.01,1.19-1.76,1.95l-2.46,2.57v.09h5.57v1.6h-8.14Z"/>
        <path class="cls-1" d="m217.32,86.76v-1.35l4.18-4.33c.45-.47.82-.88,1.11-1.24.29-.36.51-.7.66-1.02.15-.32.22-.66.22-1.03,0-.41-.1-.77-.29-1.07-.19-.3-.46-.53-.79-.69-.33-.16-.71-.24-1.13-.24-.44,0-.83.09-1.16.27s-.58.44-.76.77c-.18.33-.27.72-.27,1.16h-1.78c0-.75.17-1.41.52-1.97s.82-1,1.42-1.31c.6-.31,1.29-.47,2.06-.47s1.46.15,2.06.46c.59.31,1.06.73,1.39,1.26.33.53.5,1.13.5,1.79,0,.46-.09.91-.26,1.35-.17.44-.47.93-.89,1.46-.42.54-1.01,1.19-1.76,1.95l-2.46,2.57v.09h5.57v1.6h-8.14Z"/>
      </g>
      <rect class="cls-1" x="211.11" y="70.67" width="24" height="1.5"/>
      <path class="cls-1" d="m234.92,54.14h-13.9c-.13.42-.26.84-.39,1.25-.26.84-.52,1.68-.78,2.51-.17.57-.34,1.13-.52,1.7-.26.83-.52,1.67-.77,2.5-.22.7-.43,1.4-.64,2.09-.11.37-.22.75-.34,1.12-.18.58-.36,1.16-.54,1.75-.02.08-.05.1-.13.1-.43,0-.85,0-1.28,0-.07,0-.1,0-.13-.09-.17-.49-.35-.97-.52-1.45-.33-.93-.67-1.85-1-2.78-.27-.74-.53-1.49-.79-2.23-.02-.07-.06-.08-.13-.08-.46,0-.92,0-1.37,0h-.14v-1.46h.19c.8,0,1.6,0,2.4,0,.1,0,.15.03.18.12.11.33.23.66.34.99.26.74.51,1.49.76,2.23.24.71.49,1.41.73,2.12,0,.03.03.05.06.09.2-.67.39-1.31.59-1.95.22-.72.44-1.45.66-2.17.22-.71.43-1.42.65-2.13.24-.8.49-1.6.73-2.41.21-.68.41-1.36.62-2.05.11-.36.22-.72.32-1.08.03-.1.07-.13.17-.13,3.12,0,6.24,0,9.37,0h5.62"/>
    </g>
    <g>
      <g>
        <path class="cls-1" d="m221.82,117.03v-1.35l4.18-4.33c.45-.47.82-.88,1.11-1.24.29-.36.51-.7.66-1.02.15-.32.22-.66.22-1.03,0-.41-.1-.77-.29-1.07-.19-.3-.46-.53-.79-.69-.33-.16-.71-.24-1.13-.24-.44,0-.83.09-1.16.27s-.58.44-.76.77c-.18.33-.27.72-.27,1.16h-1.78c0-.75.17-1.41.52-1.97s.82-1,1.42-1.31c.6-.31,1.29-.47,2.06-.47s1.46.15,2.06.46c.59.31,1.06.73,1.39,1.26.33.53.5,1.13.5,1.79,0,.46-.09.91-.26,1.35-.17.44-.47.93-.89,1.46-.42.54-1.01,1.19-1.76,1.95l-2.46,2.57v.09h5.57v1.6h-8.14Z"/>
        <path class="cls-1" d="m217.32,136.03v-1.35l4.18-4.33c.45-.47.82-.88,1.11-1.24.29-.36.51-.7.66-1.02.15-.32.22-.66.22-1.03,0-.41-.1-.77-.29-1.07-.19-.3-.46-.53-.79-.69-.33-.16-.71-.24-1.13-.24-.44,0-.83.09-1.16.27s-.58.44-.76.77c-.18.33-.27.72-.27,1.16h-1.78c0-.75.17-1.41.52-1.97s.82-1,1.42-1.31c.6-.31,1.29-.47,2.06-.47s1.46.15,2.06.46c.59.31,1.06.73,1.39,1.26.33.53.5,1.13.5,1.79,0,.46-.09.91-.26,1.35-.17.44-.47.93-.89,1.46-.42.54-1.01,1.19-1.76,1.95l-2.46,2.57v.09h5.57v1.6h-8.14Z"/>
      </g>
      <rect class="cls-1" x="211.11" y="119.95" width="24" height="1.5"/>
      <path class="cls-1" d="m234.92,103.41h-13.9c-.13.42-.26.84-.39,1.25-.26.84-.52,1.68-.78,2.51-.17.57-.34,1.13-.52,1.7-.26.83-.52,1.67-.77,2.5-.22.7-.43,1.4-.64,2.09-.11.37-.22.75-.34,1.12-.18.58-.36,1.16-.54,1.75-.02.08-.05.1-.13.1-.43,0-.85,0-1.28,0-.07,0-.1,0-.13-.09-.17-.49-.35-.97-.52-1.45-.33-.93-.67-1.85-1-2.78-.27-.74-.53-1.49-.79-2.23-.02-.07-.06-.08-.13-.08-.46,0-.92,0-1.37,0h-.14v-1.46h.19c.8,0,1.6,0,2.4,0,.1,0,.15.03.18.12.11.33.23.66.34.99.26.74.51,1.49.76,2.23.24.71.49,1.41.73,2.12,0,.03.03.05.06.09.2-.67.39-1.31.59-1.95.22-.72.44-1.45.66-2.17.22-.71.43-1.42.65-2.13.24-.8.49-1.6.73-2.41.21-.68.41-1.36.62-2.05.11-.36.22-.72.32-1.08.03-.1.07-.13.17-.13,3.12,0,6.24,0,9.37,0h5.62"/>
    </g>
    <g>
      <g>
        <path class="cls-1" d="m285.31,67.93c-.83,0-1.57-.14-2.22-.43-.65-.29-1.16-.68-1.54-1.19-.38-.51-.58-1.1-.61-1.77h1.9c.02.37.15.68.37.95.22.27.52.47.88.62.36.15.76.22,1.21.22.49,0,.92-.08,1.29-.25s.67-.41.88-.71c.21-.3.32-.65.32-1.05s-.11-.78-.32-1.1c-.21-.32-.52-.56-.92-.75s-.89-.27-1.46-.27h-1.04v-1.52h1.04c.46,0,.86-.08,1.21-.25s.62-.4.82-.69c.2-.3.3-.64.3-1.04s-.09-.72-.26-1c-.17-.28-.41-.51-.72-.67-.31-.16-.68-.24-1.1-.24s-.78.07-1.13.22c-.35.15-.63.36-.85.63-.22.27-.33.6-.35.98h-1.8c.02-.67.22-1.26.59-1.76.38-.51.87-.9,1.49-1.19.62-.29,1.31-.43,2.06-.43s1.48.15,2.06.46c.58.31,1.02.72,1.34,1.23s.47,1.07.47,1.68c0,.69-.19,1.28-.58,1.76-.39.48-.9.81-1.55.97v.1c.82.12,1.46.45,1.91.98.45.53.68,1.18.67,1.96,0,.68-.18,1.29-.56,1.83-.38.54-.9.96-1.55,1.27-.66.31-1.41.46-2.25.46Z"/>
        <path class="cls-1" d="m276.5,86.76v-1.35l4.18-4.33c.45-.47.82-.88,1.11-1.24.29-.36.51-.7.66-1.02.15-.32.22-.66.22-1.03,0-.41-.1-.77-.29-1.07-.19-.3-.46-.53-.79-.69-.33-.16-.71-.24-1.13-.24-.44,0-.83.09-1.16.27s-.58.44-.76.77c-.18.33-.27.72-.27,1.16h-1.78c0-.75.17-1.41.52-1.97s.82-1,1.42-1.31c.6-.31,1.29-.47,2.06-.47s1.46.15,2.06.46c.59.31,1.06.73,1.39,1.26.33.53.5,1.13.5,1.79,0,.46-.09.91-.26,1.35-.17.44-.47.93-.89,1.46-.42.54-1.01,1.19-1.76,1.95l-2.46,2.57v.09h5.57v1.6h-8.14Z"/>
      </g>
      <rect class="cls-1" x="270.1" y="70.67" width="24" height="1.5"/>
      <path class="cls-1" d="m293.91,54.14h-13.9c-.13.42-.26.84-.39,1.25-.26.84-.52,1.68-.78,2.51-.17.57-.34,1.13-.52,1.7-.26.83-.52,1.67-.77,2.5-.22.7-.43,1.4-.64,2.09-.11.37-.22.75-.34,1.12-.18.58-.36,1.16-.54,1.75-.02.08-.05.1-.13.1-.43,0-.85,0-1.28,0-.07,0-.1,0-.13-.09-.17-.49-.35-.97-.52-1.45-.33-.93-.67-1.85-1-2.78-.27-.74-.53-1.49-.79-2.23-.02-.07-.06-.08-.13-.08-.46,0-.92,0-1.37,0h-.14v-1.46h.19c.8,0,1.6,0,2.4,0,.1,0,.15.03.18.12.11.33.23.66.34.99.26.74.51,1.49.76,2.23.24.71.49,1.41.73,2.12,0,.03.03.05.06.09.2-.67.39-1.31.59-1.95.22-.72.44-1.45.66-2.17.22-.71.43-1.42.65-2.13.24-.8.49-1.6.73-2.41.21-.68.41-1.36.62-2.05.11-.36.22-.72.32-1.08.03-.1.07-.13.17-.13,3.12,0,6.24,0,9.37,0h5.62"/>
    </g>
    <g>
      <g>
        <path class="cls-1" d="m284.19,204.61v12.36h-1.87v-10.49h-.07l-2.96,1.93v-1.79l3.08-2.02h1.82Z"/>
        <path class="cls-1" d="m283.8,236.14c-.83,0-1.57-.14-2.22-.43-.65-.29-1.16-.68-1.54-1.19-.38-.51-.58-1.1-.61-1.77h1.9c.02.37.15.68.37.95.22.27.52.47.88.62.36.15.76.22,1.21.22.49,0,.92-.08,1.29-.25s.67-.41.88-.71c.21-.3.32-.65.32-1.05s-.11-.78-.32-1.1c-.21-.32-.52-.56-.92-.75s-.89-.27-1.46-.27h-1.04v-1.52h1.04c.46,0,.86-.08,1.21-.25s.62-.4.82-.69c.2-.3.3-.64.3-1.04s-.09-.72-.26-1c-.17-.28-.41-.51-.72-.67-.31-.16-.68-.24-1.1-.24s-.78.07-1.13.22c-.35.15-.63.36-.85.63-.22.27-.33.6-.35.98h-1.8c.02-.67.22-1.26.59-1.76.38-.51.87-.9,1.49-1.19.62-.29,1.31-.43,2.06-.43s1.48.15,2.06.46c.58.31,1.02.72,1.34,1.23s.47,1.07.47,1.68c0,.69-.19,1.28-.58,1.76-.39.48-.9.81-1.55.97v.1c.82.12,1.46.45,1.91.98.45.53.68,1.18.67,1.96,0,.68-.18,1.29-.56,1.83-.38.54-.9.96-1.55,1.27-.66.31-1.41.46-2.25.46Z"/>
      </g>
      <rect class="cls-1" x="270.1" y="217.77" width="24" height="1.5"/>
      <path class="cls-1" d="m293.91,222.23h-13.9c-.13.42-.26.84-.39,1.25-.26.84-.52,1.68-.78,2.51-.17.57-.34,1.13-.52,1.7-.26.83-.52,1.67-.77,2.5-.22.7-.43,1.4-.64,2.09-.11.37-.22.75-.34,1.12-.18.58-.36,1.16-.54,1.75-.02.08-.05.1-.13.1-.43,0-.85,0-1.28,0-.07,0-.1,0-.13-.09-.17-.49-.35-.97-.52-1.45-.33-.93-.67-1.85-1-2.78-.27-.74-.53-1.49-.79-2.23-.02-.07-.06-.08-.13-.08-.46,0-.92,0-1.37,0h-.14v-1.46h.19c.8,0,1.6,0,2.4,0,.1,0,.15.03.18.12.11.33.23.66.34.99.26.74.51,1.49.76,2.23.24.71.49,1.41.73,2.12,0,.03.03.05.06.09.2-.67.39-1.31.59-1.95.22-.72.44-1.45.66-2.17.22-.71.43-1.42.65-2.13.24-.8.49-1.6.73-2.41.21-.68.41-1.36.62-2.05.11-.36.22-.72.32-1.08.03-.1.07-.13.17-.13,3.12,0,6.24,0,9.37,0h5.62"/>
    </g>
    <g>
      <path class="cls-1" d="m284.67,177.49c-.83,0-1.57-.14-2.22-.43-.65-.29-1.16-.68-1.54-1.19-.38-.51-.58-1.1-.61-1.77h1.9c.02.37.15.68.37.95.22.27.52.47.88.62.36.15.76.22,1.21.22.49,0,.92-.08,1.29-.25s.67-.41.88-.71c.21-.3.32-.65.32-1.05s-.11-.78-.32-1.1c-.21-.32-.52-.56-.92-.75s-.89-.27-1.46-.27h-1.04v-1.52h1.04c.46,0,.86-.08,1.21-.25s.62-.4.82-.69c.2-.3.3-.64.3-1.04s-.09-.72-.26-1c-.17-.28-.41-.51-.72-.67-.31-.16-.68-.24-1.1-.24s-.78.07-1.13.22c-.35.15-.63.36-.85.63-.22.27-.33.6-.35.98h-1.8c.02-.67.22-1.26.59-1.76.38-.51.87-.9,1.49-1.19.62-.29,1.31-.43,2.06-.43s1.48.15,2.06.46c.58.31,1.02.72,1.34,1.23s.47,1.07.47,1.68c0,.69-.19,1.28-.58,1.76-.39.48-.9.81-1.55.97v.1c.82.12,1.46.45,1.91.98.45.53.68,1.18.67,1.96,0,.68-.18,1.29-.56,1.83-.38.54-.9.96-1.55,1.27-.66.31-1.41.46-2.25.46Z"/>
      <path class="cls-1" d="m293.78,164.03h-13.9c-.13.42-.26.84-.39,1.25-.26.84-.52,1.68-.78,2.51-.17.57-.34,1.13-.52,1.7-.26.83-.52,1.67-.77,2.5-.22.7-.43,1.4-.64,2.09-.11.37-.22.75-.34,1.12-.18.58-.36,1.16-.54,1.75-.02.08-.05.1-.13.1-.43,0-.85,0-1.28,0-.07,0-.1,0-.13-.09-.17-.49-.35-.97-.52-1.45-.33-.93-.67-1.85-1-2.78-.27-.74-.53-1.49-.79-2.23-.02-.07-.06-.08-.13-.08-.46,0-.92,0-1.37,0h-.14v-1.46h.19c.8,0,1.6,0,2.4,0,.1,0,.15.03.18.12.11.33.23.66.34.99.26.74.51,1.49.76,2.23.24.71.49,1.41.73,2.12,0,.03.03.05.06.09.2-.67.39-1.31.59-1.95.22-.72.44-1.45.66-2.17.22-.71.43-1.42.65-2.13.24-.8.49-1.6.73-2.41.21-.68.41-1.36.62-2.05.11-.36.22-.72.32-1.08.03-.1.07-.13.17-.13,3.12,0,6.24,0,9.37,0h5.62"/>
    </g>
    <path class="cls-1" d="m110.29,220.29c0,1.32-.24,2.45-.72,3.4-.48.95-1.14,1.68-1.98,2.19-.84.51-1.79.76-2.86.76s-2.03-.25-2.86-.76c-.84-.51-1.5-1.24-1.98-2.19-.48-.95-.72-2.08-.72-3.4s.24-2.45.72-3.4c.48-.95,1.14-1.68,1.98-2.19.84-.51,1.79-.76,2.86-.76s2.02.25,2.86.76c.84.51,1.5,1.24,1.98,2.19s.72,2.08.72,3.4Zm-9.43,6.72l-1-.69,8.68-12.73,1.01.69-8.69,12.73Zm7.58-6.72c0-1.01-.16-1.85-.49-2.54-.32-.69-.77-1.21-1.33-1.57-.56-.36-1.2-.53-1.9-.53s-1.35.18-1.91.53c-.56.36-1,.88-1.33,1.57-.32.69-.49,1.54-.49,2.54s.16,1.85.49,2.54c.32.69.77,1.21,1.33,1.57.56.36,1.2.53,1.91.53s1.34-.18,1.9-.53c.56-.36,1-.88,1.33-1.57.32-.69.49-1.54.49-2.54Z"/>
    <path class="cls-1" d="m347.31,171.12c0,1.32-.24,2.45-.72,3.4-.48.95-1.14,1.68-1.98,2.19-.84.51-1.79.76-2.86.76s-2.03-.25-2.86-.76c-.84-.51-1.5-1.24-1.98-2.19-.48-.95-.72-2.08-.72-3.4s.24-2.45.72-3.4c.48-.95,1.14-1.68,1.98-2.19.84-.51,1.79-.76,2.86-.76s2.02.25,2.86.76c.84.51,1.5,1.24,1.98,2.19s.72,2.08.72,3.4Zm-9.43,6.72l-1-.69,8.68-12.73,1.01.69-8.69,12.73Zm7.58-6.72c0-1.01-.16-1.85-.49-2.54-.32-.69-.77-1.21-1.33-1.57-.56-.36-1.2-.53-1.9-.53s-1.35.18-1.91.53c-.56.36-1,.88-1.33,1.57-.32.69-.49,1.54-.49,2.54s.16,1.85.49,2.54c.32.69.77,1.21,1.33,1.57.56.36,1.2.53,1.91.53s1.34-.18,1.9-.53c.56-.36,1-.88,1.33-1.57.32-.69.49-1.54.49-2.54Z"/>
    <path class="cls-1" d="m405.67,220.29c0,1.32-.24,2.45-.72,3.4-.48.95-1.14,1.68-1.98,2.19-.84.51-1.79.76-2.86.76s-2.03-.25-2.86-.76c-.84-.51-1.5-1.24-1.98-2.19-.48-.95-.72-2.08-.72-3.4s.24-2.45.72-3.4c.48-.95,1.14-1.68,1.98-2.19.84-.51,1.79-.76,2.86-.76s2.02.25,2.86.76c.84.51,1.5,1.24,1.98,2.19s.72,2.08.72,3.4Zm-9.43,6.72l-1-.69,8.68-12.73,1.01.69-8.69,12.73Zm7.58-6.72c0-1.01-.16-1.85-.49-2.54-.32-.69-.77-1.21-1.33-1.57-.56-.36-1.2-.53-1.9-.53s-1.35.18-1.91.53c-.56.36-1,.88-1.33,1.57-.32.69-.49,1.54-.49,2.54s.16,1.85.49,2.54c.32.69.77,1.21,1.33,1.57.56.36,1.2.53,1.91.53s1.34-.18,1.9-.53c.56-.36,1-.88,1.33-1.57.32-.69.49-1.54.49-2.54Z"/>
    <path class="cls-1" d="m464.05,171.12c0,1.32-.24,2.45-.72,3.4-.48.95-1.14,1.68-1.98,2.19-.84.51-1.79.76-2.86.76s-2.03-.25-2.86-.76c-.84-.51-1.5-1.24-1.98-2.19-.48-.95-.72-2.08-.72-3.4s.24-2.45.72-3.4,1.14-1.68,1.98-2.19c.84-.51,1.79-.76,2.86-.76s2.02.25,2.86.76,1.5,1.24,1.98,2.19c.48.95.72,2.08.72,3.4Zm-9.43,6.72l-1-.69,8.68-12.73,1.01.69-8.69,12.73Zm7.58-6.72c0-1.01-.16-1.85-.49-2.54-.32-.69-.77-1.21-1.33-1.57-.56-.36-1.2-.53-1.9-.53s-1.35.18-1.91.53c-.56.36-1,.88-1.33,1.57-.32.69-.49,1.54-.49,2.54s.16,1.85.49,2.54c.32.69.77,1.21,1.33,1.57.56.36,1.2.53,1.91.53s1.34-.18,1.9-.53c.56-.36,1-.88,1.33-1.57.32-.69.49-1.54.49-2.54Z"/>
    <path class="cls-1" d="m523.15,220.29c0,1.32-.24,2.45-.72,3.4-.48.95-1.14,1.68-1.98,2.19-.84.51-1.79.76-2.86.76s-2.03-.25-2.86-.76c-.84-.51-1.5-1.24-1.98-2.19-.48-.95-.72-2.08-.72-3.4s.24-2.45.72-3.4c.48-.95,1.14-1.68,1.98-2.19.84-.51,1.79-.76,2.86-.76s2.02.25,2.86.76c.84.51,1.5,1.24,1.98,2.19.48.95.72,2.08.72,3.4Zm-9.43,6.72l-1-.69,8.68-12.73,1.01.69-8.69,12.73Zm7.58-6.72c0-1.01-.16-1.85-.49-2.54-.32-.69-.77-1.21-1.33-1.57-.56-.36-1.2-.53-1.91-.53s-1.35.18-1.91.53c-.56.36-1,.88-1.33,1.57-.32.69-.49,1.54-.49,2.54s.16,1.85.49,2.54.77,1.21,1.33,1.57c.56.36,1.2.53,1.91.53s1.34-.18,1.91-.53c.56-.36,1-.88,1.33-1.57.32-.69.49-1.54.49-2.54Z"/>
  </g>
</svg>