<?xml version="1.0" encoding="UTF-8"?>
<svg id="Layer_1" data-name="Layer 1" xmlns="http://www.w3.org/2000/svg" viewBox="0 0 300 300">
  <defs>
    <style>
      .cls-1 {
        fill: #fff;
      }

      .cls-2 {
        fill: none;
        stroke: #fff;
        stroke-miterlimit: 10;
        stroke-width: 2px;
      }

      .cls-3 {
        fill: #d1ae59;
      }
    </style>
  </defs>
  <path class="cls-3" d="m142.17,56.17c58.17,0,105.5,47.33,105.5,105.5s-47.33,105.5-105.5,105.5-105.5-47.33-105.5-105.5,47.33-105.5,105.5-105.5m0-2c-59.37,0-107.5,48.13-107.5,107.5s48.13,107.5,107.5,107.5,107.5-48.13,107.5-107.5-48.13-107.5-107.5-107.5h0Z"/>
  <line class="cls-2" x1="142.17" y1="40" x2="142.17" y2="295"/>
  <line class="cls-2" x1="11" y1="161.67" x2="280" y2="161.67"/>
  <polygon class="cls-1" points="142.17 31 136.97 40 147.36 40 142.17 31"/>
  <polygon class="cls-1" points="288.5 161.67 279.5 156.47 279.5 166.86 288.5 161.67"/>
  <g>
    <path class="cls-1" d="m138.14,10.95l-1.64.29c-.07-.21-.18-.41-.32-.6-.15-.19-.35-.34-.59-.46-.25-.12-.56-.18-.94-.18-.51,0-.94.11-1.28.34s-.51.52-.51.88c0,.31.11.56.34.75s.6.34,1.11.46l1.47.34c.85.2,1.49.5,1.91.91.42.41.63.94.63,1.6,0,.56-.16,1.05-.48,1.48-.32.43-.76.77-1.33,1.02-.57.25-1.23.37-1.98.37-1.04,0-1.89-.22-2.54-.67-.66-.44-1.06-1.08-1.21-1.9l1.75-.27c.11.45.33.8.67,1.03s.78.35,1.32.35c.59,0,1.06-.12,1.42-.37.35-.25.53-.55.53-.91,0-.29-.11-.53-.32-.73-.22-.2-.54-.35-.99-.45l-1.57-.34c-.87-.2-1.5-.51-1.92-.94s-.62-.98-.62-1.64c0-.55.15-1.03.46-1.44s.73-.73,1.27-.96c.54-.23,1.16-.35,1.85-.35,1,0,1.79.22,2.37.65.58.43.96,1.01,1.14,1.74Z"/>
    <path class="cls-1" d="m141.22,7.25c-.31,0-.58-.11-.81-.32-.22-.21-.33-.46-.33-.76s.11-.55.33-.76c.22-.21.49-.32.81-.32s.58.11.81.32c.22.21.33.46.33.76s-.11.55-.33.76c-.22.21-.49.32-.81.32Zm-.91,10.7v-9.27h1.8v9.27h-1.8Z"/>
    <path class="cls-1" d="m146.34,12.45v5.51h-1.8v-9.27h1.73v1.51h.11c.21-.49.55-.89,1-1.18.46-.3,1.03-.45,1.73-.45.63,0,1.18.13,1.66.4.47.26.84.65,1.1,1.17.26.52.39,1.16.39,1.93v5.9h-1.81v-5.68c0-.67-.17-1.2-.53-1.58-.35-.38-.83-.57-1.44-.57-.42,0-.79.09-1.11.27-.32.18-.58.45-.77.79-.19.35-.28.77-.28,1.26Z"/>
  </g>
  <path class="cls-1" d="m166.66,126.54v-4.38h25.78v4.38h-25.78Zm10.7,10.7v-25.78h4.38v25.78h-4.38Z"/>
  <path class="cls-1" d="m91.66,126.54v-4.38h25.78v4.38h-25.78Zm10.7,10.7v-25.78h4.38v25.78h-4.38Z"/>
  <path class="cls-1" d="m189.23,198.68v4.3h-17.5v-4.3h17.5Z"/>
  <path class="cls-1" d="m113.23,197.68v4.3h-17.5v-4.3h17.5Z"/>
</svg>