<?xml version="1.0" encoding="UTF-8"?>
<svg id="Layer_1" data-name="Layer 1" xmlns="http://www.w3.org/2000/svg" viewBox="0 0 94 77">
  <defs>
    <style>
      .cls-1 {
        fill: #fff;
      }

      .cls-2 {
        fill: none;
        stroke: #d1ae59;
        stroke-miterlimit: 10;
        stroke-width: 2px;
      }
    </style>
  </defs>
  <path class="cls-1" d="m1.45,77.01H.05l3.14-8.73h1.52l3.14,8.73h-1.4l-2.47-7.14h-.07l-2.47,7.14Zm.23-3.42h4.53v1.11H1.68v-1.11Z"/>
  <path class="cls-1" d="m39.71,9.01V.28h3.2c.62,0,1.13.1,1.54.3s.71.48.91.82c.2.35.3.73.3,1.17,0,.36-.07.67-.2.92-.13.25-.31.45-.54.6s-.47.26-.74.33v.08c.29.01.57.11.85.28.28.17.51.42.69.73.18.32.27.7.27,1.15s-.11.85-.31,1.2c-.21.35-.53.63-.97.84-.43.21-.99.31-1.67.31h-3.34Zm1.32-4.95h1.76c.29,0,.56-.06.8-.17s.43-.27.57-.48.21-.45.21-.73c0-.36-.13-.66-.38-.91s-.64-.37-1.16-.37h-1.8v2.65Zm0,3.82h1.9c.63,0,1.08-.12,1.35-.37.27-.24.41-.55.41-.92,0-.28-.07-.53-.21-.76-.14-.23-.34-.41-.59-.55-.26-.14-.56-.21-.91-.21h-1.95v2.8Z"/>
  <path class="cls-1" d="m93.96,68.12h-1.33c-.05-.28-.15-.53-.29-.75-.14-.22-.31-.4-.51-.55-.2-.15-.43-.26-.68-.34-.25-.08-.51-.11-.79-.11-.5,0-.95.13-1.35.38s-.71.62-.94,1.11-.34,1.08-.34,1.79.12,1.31.34,1.8.54.86.94,1.11c.4.25.85.38,1.34.38.28,0,.54-.04.79-.11.25-.08.47-.19.67-.33.2-.15.37-.33.51-.54s.24-.46.29-.74h1.33c-.07.43-.21.83-.41,1.19s-.46.67-.78.93c-.32.26-.68.46-1.08.6s-.85.21-1.33.21c-.76,0-1.43-.18-2.02-.54-.59-.36-1.06-.87-1.4-1.54-.34-.67-.51-1.47-.51-2.4s.17-1.73.51-2.4c.34-.67.81-1.18,1.4-1.54.59-.36,1.26-.54,2.02-.54.46,0,.9.07,1.3.2.4.13.76.33,1.08.58.32.25.59.56.8.93s.35.78.43,1.25Z"/>
  <polygon class="cls-2" points="47.5 11 13.15 70.5 81.85 70.5 47.5 11"/>
  <line class="cls-2" x1="26.97" y1="38.9" x2="33.03" y2="42.4"/>
  <line class="cls-2" x1="68.38" y1="40.6" x2="61.62" y2="42.4"/>
  <line class="cls-2" x1="47.08" y1="67" x2="46.92" y2="74"/>
</svg>