<?xml version="1.0" encoding="utf-8"?>
<!-- Generator: Adobe Illustrator 27.6.1, SVG Export Plug-In . SVG Version: 6.00 Build 0)  -->
<svg version="1.1" id="Layer_1" xmlns="http://www.w3.org/2000/svg" xmlns:xlink="http://www.w3.org/1999/xlink" x="0px" y="0px"
	 viewBox="0 0 98 77" style="enable-background:new 0 0 98 77;" xml:space="preserve">
<style type="text/css">
	.st0{display:none;fill:#191919;stroke:#000000;stroke-miterlimit:10;}
	.st1{fill:#FFFFFF;}
	.st2{fill:none;stroke:#D1AE59;stroke-width:2;stroke-miterlimit:10;}
</style>
<rect x="-59" y="-50" class="st0" width="319" height="256"/>
<path class="st1" d="M1.5,77H0.1l3.1-8.7h1.5L7.9,77H6.5L4,69.9H3.9L1.5,77L1.5,77z M1.7,73.6h4.5v1.1H1.7
	C1.7,74.7,1.7,73.6,1.7,73.6z"/>
<path class="st1" d="M52.7,9V0.3h3.2c0.6,0,1.1,0.1,1.5,0.3s0.7,0.5,0.9,0.8c0.2,0.4,0.3,0.7,0.3,1.2c0,0.4-0.1,0.7-0.2,0.9
	s-0.3,0.5-0.5,0.6c-0.2,0.1-0.5,0.3-0.7,0.3v0.1c0.3,0,0.6,0.1,0.8,0.3s0.5,0.4,0.7,0.7C58.9,5.8,59,6.2,59,6.7s-0.1,0.8-0.3,1.2
	c-0.2,0.4-0.5,0.6-1,0.8C57.3,8.9,56.7,9,56,9L52.7,9L52.7,9z M54,4.1h1.8c0.3,0,0.6-0.1,0.8-0.2s0.4-0.3,0.6-0.5s0.2-0.5,0.2-0.7
	c0-0.4-0.1-0.7-0.4-0.9s-0.6-0.4-1.2-0.4H54L54,4.1L54,4.1z M54,7.9h1.9c0.6,0,1.1-0.1,1.3-0.4c0.3-0.2,0.4-0.6,0.4-0.9
	c0-0.3-0.1-0.5-0.2-0.8c-0.1-0.2-0.3-0.4-0.6-0.6c-0.3-0.1-0.6-0.2-0.9-0.2h-2V7.9L54,7.9z"/>
<path class="st1" d="M94,68.1h-1.3c-0.1-0.3-0.2-0.5-0.3-0.8S92,67,91.8,66.8c-0.2-0.2-0.4-0.3-0.7-0.3c-0.2-0.1-0.5-0.1-0.8-0.1
	c-0.5,0-0.9,0.1-1.3,0.4s-0.7,0.6-0.9,1.1s-0.3,1.1-0.3,1.8s0.1,1.3,0.3,1.8s0.5,0.9,0.9,1.1s0.8,0.4,1.3,0.4c0.3,0,0.5,0,0.8-0.1
	c0.2-0.1,0.5-0.2,0.7-0.3c0.2-0.2,0.4-0.3,0.5-0.5s0.2-0.5,0.3-0.7h1.3c-0.1,0.4-0.2,0.8-0.4,1.2s-0.5,0.7-0.8,0.9s-0.7,0.5-1.1,0.6
	s-0.8,0.2-1.3,0.2c-0.8,0-1.4-0.2-2-0.5s-1.1-0.9-1.4-1.5c-0.3-0.7-0.5-1.5-0.5-2.4s0.2-1.7,0.5-2.4c0.3-0.7,0.8-1.2,1.4-1.5
	c0.6-0.4,1.3-0.5,2-0.5c0.5,0,0.9,0.1,1.3,0.2s0.8,0.3,1.1,0.6s0.6,0.6,0.8,0.9S93.9,67.7,94,68.1L94,68.1z"/>
<polygon class="st2" points="81.1,66.7 11.8,66.7 58.2,11.8 "/>
<g>
	<g>
		<path class="st1" d="M27.5,37.4c-0.4,0-0.7-0.1-1-0.2s-0.6-0.4-0.7-0.6c-0.2-0.3-0.3-0.6-0.3-1c0-0.3,0.1-0.6,0.2-0.8
			s0.3-0.4,0.5-0.5c0.2-0.1,0.5-0.2,0.8-0.3s0.6-0.1,0.8-0.2c0.4,0,0.7-0.1,0.9-0.1s0.4-0.1,0.5-0.1c0.1-0.1,0.2-0.2,0.2-0.3v0
			c0-0.3-0.1-0.6-0.3-0.8c-0.2-0.2-0.5-0.3-0.9-0.3c-0.4,0-0.7,0.1-0.9,0.3s-0.4,0.4-0.5,0.6l-1.1-0.3c0.1-0.4,0.3-0.7,0.6-0.9
			s0.5-0.4,0.9-0.5c0.3-0.1,0.7-0.2,1-0.2c0.2,0,0.5,0,0.8,0.1c0.3,0.1,0.5,0.2,0.8,0.3c0.2,0.2,0.4,0.4,0.6,0.6
			c0.2,0.3,0.2,0.6,0.2,1.1v4h-1.2v-0.8h0c-0.1,0.2-0.2,0.3-0.3,0.5c-0.2,0.1-0.3,0.3-0.6,0.4C28.1,37.3,27.9,37.4,27.5,37.4z
			 M27.8,36.4c0.3,0,0.6-0.1,0.8-0.2c0.2-0.1,0.4-0.3,0.5-0.5s0.2-0.4,0.2-0.7v-0.8c0,0-0.1,0.1-0.2,0.1c-0.1,0-0.3,0.1-0.4,0.1
			s-0.3,0-0.4,0.1c-0.1,0-0.3,0-0.4,0c-0.2,0-0.4,0.1-0.6,0.1c-0.2,0.1-0.3,0.2-0.5,0.3c-0.1,0.1-0.2,0.3-0.2,0.5
			c0,0.3,0.1,0.5,0.3,0.7C27.2,36.3,27.4,36.4,27.8,36.4z"/>
	</g>
</g>
<g>
	<g>
		<path class="st1" d="M75,40v-8.1h1.2v3h0.1c0.1-0.1,0.2-0.3,0.3-0.4c0.1-0.2,0.3-0.3,0.5-0.4s0.5-0.2,0.9-0.2
			c0.5,0,0.9,0.1,1.3,0.4c0.4,0.2,0.7,0.6,0.9,1.1c0.2,0.5,0.3,1,0.3,1.7c0,0.7-0.1,1.2-0.3,1.7c-0.2,0.5-0.5,0.8-0.9,1.1
			c-0.4,0.3-0.8,0.4-1.3,0.4c-0.4,0-0.7-0.1-0.9-0.2c-0.2-0.1-0.4-0.3-0.5-0.4c-0.1-0.2-0.2-0.3-0.3-0.4h-0.1V40H75z M76.1,36.9
			c0,0.4,0.1,0.8,0.2,1.1c0.1,0.3,0.3,0.6,0.5,0.8c0.2,0.2,0.5,0.3,0.9,0.3c0.4,0,0.6-0.1,0.9-0.3s0.4-0.4,0.5-0.8
			c0.1-0.3,0.2-0.7,0.2-1.1c0-0.4-0.1-0.8-0.2-1.1s-0.3-0.6-0.5-0.8c-0.2-0.2-0.5-0.3-0.9-0.3c-0.3,0-0.6,0.1-0.9,0.3
			c-0.2,0.2-0.4,0.4-0.5,0.7C76.2,36.1,76.1,36.5,76.1,36.9z"/>
	</g>
</g>
<g>
	<g>
		<path class="st1" d="M49.8,77.1c-0.6,0-1.1-0.1-1.5-0.4s-0.7-0.6-1-1.1c-0.2-0.5-0.3-1-0.3-1.6c0-0.6,0.1-1.2,0.3-1.6
			c0.2-0.5,0.6-0.8,1-1.1s0.9-0.4,1.5-0.4c0.5,0,0.9,0.1,1.2,0.3s0.7,0.4,0.9,0.7s0.4,0.7,0.4,1.1h-1.2c-0.1-0.3-0.2-0.5-0.4-0.7
			c-0.2-0.2-0.5-0.3-0.9-0.3c-0.3,0-0.6,0.1-0.9,0.3c-0.2,0.2-0.4,0.4-0.6,0.7s-0.2,0.7-0.2,1.1c0,0.4,0.1,0.8,0.2,1.1
			c0.1,0.3,0.3,0.6,0.6,0.7s0.5,0.3,0.9,0.3c0.2,0,0.4,0,0.6-0.1c0.2-0.1,0.3-0.2,0.5-0.4c0.1-0.2,0.2-0.3,0.3-0.6h1.2
			c0,0.4-0.2,0.7-0.4,1.1c-0.2,0.3-0.5,0.6-0.9,0.7C50.7,77,50.3,77.1,49.8,77.1z"/>
	</g>
</g>
<line class="st2" x1="58.2" y1="11.8" x2="58.2" y2="66.7"/>
<polyline class="st2" points="63.4,66.7 63.4,61.5 58.2,61.5 "/>
<g>
	<g>
		<path class="st1" d="M50.7,44.8v3.9h-1.3V40h1.3v3.2h0.1c0.2-0.4,0.4-0.6,0.7-0.8c0.3-0.2,0.7-0.3,1.2-0.3c0.4,0,0.8,0.1,1.2,0.3
			c0.3,0.2,0.6,0.5,0.8,0.8c0.2,0.4,0.3,0.8,0.3,1.4v4.2h-1.3v-4c0-0.5-0.1-0.9-0.4-1.1s-0.6-0.4-1-0.4c-0.3,0-0.6,0.1-0.8,0.2
			s-0.4,0.3-0.6,0.6C50.8,44.2,50.7,44.5,50.7,44.8z"/>
	</g>
</g>
</svg>
