<?xml version="1.0" encoding="utf-8"?>
<!-- Generator: Adobe Illustrator 27.6.1, SVG Export Plug-In . SVG Version: 6.00 Build 0)  -->
<svg version="1.1" id="Layer_1" xmlns="http://www.w3.org/2000/svg" xmlns:xlink="http://www.w3.org/1999/xlink" x="0px" y="0px"
	 viewBox="0 0 90 62" style="enable-background:new 0 0 90 62;" xml:space="preserve">
<style type="text/css">
	.st0{display:none;fill:#191919;stroke:#000000;stroke-miterlimit:10;}
	.st1{fill:#FFFFFF;}
	.st2{fill:none;stroke:#D1AE59;stroke-width:2;stroke-miterlimit:10;}
</style>
<rect x="-85" y="-44" class="st0" width="311" height="189"/>
<path class="st1" d="M3.4,55.6H2.2l2.9-8h1.4l2.9,8H8L5.8,49H5.7L3.4,55.6z M3.7,52.5h4.2v1H3.7V52.5z"/>
<path class="st1" d="M33.3,8.8V0h3.2c0.6,0,1.1,0.1,1.5,0.3s0.7,0.5,0.9,0.8c0.2,0.4,0.3,0.7,0.3,1.2c0,0.4-0.1,0.7-0.2,0.9
	s-0.3,0.5-0.5,0.6C38.3,4,38,4.1,37.8,4.2v0.1c0.3,0,0.6,0.1,0.8,0.3s0.5,0.4,0.7,0.7c0.2,0.3,0.3,0.7,0.3,1.2s-0.1,0.8-0.3,1.2
	s-0.5,0.6-1,0.8c-0.4,0.2-1,0.3-1.7,0.3C36.6,8.8,33.3,8.8,33.3,8.8z M34.6,3.8h1.8c0.3,0,0.6-0.1,0.8-0.2s0.4-0.3,0.6-0.5
	s0.2-0.5,0.2-0.7c0-0.4-0.1-0.7-0.4-0.9s-0.6-0.4-1.2-0.4h-1.8L34.6,3.8L34.6,3.8z M34.6,7.6h1.9c0.6,0,1.1-0.1,1.4-0.4
	c0.3-0.2,0.4-0.6,0.4-0.9c0-0.3-0.1-0.5-0.2-0.8c-0.1-0.2-0.3-0.4-0.6-0.6c-0.3-0.1-0.6-0.2-0.9-0.2h-2L34.6,7.6L34.6,7.6z"/>
<path class="st1" d="M76.4,46.2h-2.6v-8h2.7c0.8,0,1.5,0.2,2,0.5c0.6,0.3,1,0.8,1.3,1.4c0.3,0.6,0.4,1.3,0.4,2.2s-0.2,1.5-0.5,2.2
	c-0.3,0.6-0.7,1.1-1.3,1.4C77.9,46,77.2,46.2,76.4,46.2z M75,45.1h1.3c0.6,0,1.1-0.1,1.5-0.3c0.4-0.2,0.7-0.6,0.9-1s0.3-1,0.3-1.6
	s-0.1-1.2-0.3-1.6c-0.2-0.4-0.5-0.8-0.9-1s-0.9-0.3-1.5-0.3H75L75,45.1L75,45.1z"/>
<path class="st1" d="M62.5,56.6h-1.2c0-0.3-0.1-0.5-0.3-0.7c-0.1-0.2-0.3-0.4-0.5-0.5c-0.2-0.1-0.4-0.2-0.6-0.3S59.5,55,59.2,55
	c-0.5,0-0.9,0.1-1.2,0.3s-0.7,0.6-0.9,1s-0.3,1-0.3,1.7s0.1,1.2,0.3,1.7s0.5,0.8,0.9,1c0.4,0.2,0.8,0.3,1.2,0.3c0.2,0,0.5,0,0.7-0.1
	c0.2-0.1,0.4-0.2,0.6-0.3c0.2-0.1,0.3-0.3,0.5-0.5s0.2-0.4,0.3-0.7h1.2c-0.1,0.4-0.2,0.8-0.4,1.1c-0.2,0.3-0.4,0.6-0.7,0.8
	c-0.3,0.2-0.6,0.4-1,0.5c-0.4,0.1-0.8,0.2-1.2,0.2c-0.7,0-1.3-0.2-1.9-0.5c-0.5-0.3-1-0.8-1.3-1.4c-0.3-0.6-0.5-1.3-0.5-2.2
	s0.2-1.6,0.5-2.2s0.7-1.1,1.3-1.4c0.5-0.3,1.2-0.5,1.8-0.5c0.4,0,0.8,0.1,1.2,0.2s0.7,0.3,1,0.5s0.5,0.5,0.7,0.8
	S62.5,56.1,62.5,56.6L62.5,56.6z"/>
<polyline class="st2" points="74.9,50.5 13.5,50.5 36.3,11.9 56.9,50.5 "/>
<path class="st2" d="M53.7,44.5c8.4-0.8,9.4,6,9.4,6"/>
</svg>
