<?xml version="1.0" encoding="UTF-8"?>
<svg xmlns="http://www.w3.org/2000/svg" viewBox="0 0 300 300">
  <defs>
    <style>
      .cls-1 {
        fill: #fff;
      }

      .cls-2 {
        fill: none;
        stroke: #fff;
        stroke-miterlimit: 10;
        stroke-width: 2px;
      }

      .cls-3 {
        fill: #d1ae59;
      }
    </style>
  </defs>
  <g id="Layer_2" data-name="Layer 2">
    <path class="cls-1" d="m245,110v81H54v-81h191m2-2H52v85h195v-85h0Z"/>
  </g>
  <g id="Layer_1" data-name="Layer 1">
    <rect class="cls-2" x="105" y="55" width="89" height="191"/>
    <path class="cls-1" d="m223,77v147H76V77h147m2-2H74v151h151V75h0Z"/>
    <path class="cls-3" d="m149.5,45c58.17,0,105.5,47.33,105.5,105.5s-47.33,105.5-105.5,105.5-105.5-47.33-105.5-105.5,47.33-105.5,105.5-105.5m0-2c-59.37,0-107.5,48.13-107.5,107.5s48.13,107.5,107.5,107.5,107.5-48.13,107.5-107.5-48.13-107.5-107.5-107.5h0Z"/>
    <line class="cls-2" x1="149" y1="28" x2="149" y2="283"/>
    <line class="cls-2" x1="15" y1="150" x2="284" y2="150"/>
    <polygon class="cls-1" points="149 19 143.8 28 154.2 28 149 19"/>
    <polygon class="cls-1" points="292.5 150.5 283.5 145.3 283.5 155.7 292.5 150.5"/>
    <path class="cls-1" d="m264.84,144.08c-.95,0-1.77-.26-2.44-.75-.68-.5-1.19-1.23-1.55-2.18-.36-.95-.54-2.1-.54-3.45s.18-2.49.54-3.44.88-1.67,1.56-2.17,1.49-.75,2.44-.75,1.76.25,2.43.75c.68.5,1.19,1.23,1.55,2.17.36.95.54,2.09.54,3.43s-.18,2.5-.54,3.45c-.36.95-.88,1.68-1.55,2.18s-1.49.75-2.44.75Zm0-1.61c.84,0,1.49-.41,1.97-1.23.47-.82.71-2,.71-3.54,0-1.03-.11-1.89-.32-2.6-.21-.71-.52-1.25-.92-1.62-.4-.37-.88-.55-1.43-.55-.83,0-1.49.41-1.96,1.23-.47.82-.71,2-.72,3.54,0,1.03.11,1.9.32,2.61.22.71.52,1.25.92,1.61s.88.55,1.44.55Z"/>
    <g>
      <path class="cls-1" d="m166.26,15.6v1.52h-9.51v-1.52h9.51Zm-6.31,0v9.27h-1.78v-9.27h1.78Zm3.15,0h1.78v6.77c0,.28.05.49.14.63.1.14.22.24.38.29s.32.08.5.08c.13,0,.27-.01.4-.04.13-.02.24-.04.32-.06v1.52c-.15.04-.34.09-.56.14-.22.05-.48.07-.77.07-.65,0-1.17-.19-1.58-.57-.41-.38-.61-1.03-.61-1.94v-6.88Z"/>
      <path class="cls-1" d="m157.65,41.88v-1.35l4.18-4.33c.45-.47.82-.88,1.11-1.24.29-.36.51-.7.66-1.02.14-.32.22-.66.22-1.03,0-.41-.1-.77-.29-1.07-.19-.3-.46-.53-.79-.69-.33-.16-.71-.24-1.13-.24-.44,0-.83.09-1.16.27s-.58.44-.76.77c-.18.33-.27.72-.27,1.16h-1.78c0-.75.17-1.41.52-1.97s.82-1,1.42-1.31c.6-.31,1.29-.47,2.06-.47s1.46.15,2.06.46c.59.31,1.06.73,1.39,1.26.33.53.5,1.13.5,1.79,0,.46-.09.91-.26,1.35-.17.44-.47.93-.89,1.46-.42.54-1.01,1.19-1.76,1.95l-2.46,2.57v.09h5.57v1.6h-8.14Z"/>
    </g>
    <rect class="cls-1" x="155.67" y="27.25" width="12" height="1.5"/>
    <g>
      <path class="cls-1" d="m202.26,22.6v1.52h-9.51v-1.52h9.51Zm-6.31,0v9.27h-1.78v-9.27h1.78Zm3.15,0h1.78v6.77c0,.28.05.49.14.63.1.14.22.24.38.29s.32.08.5.08c.13,0,.27-.01.4-.04.13-.02.24-.04.32-.06v1.52c-.15.04-.34.09-.56.14-.22.05-.48.07-.77.07-.65,0-1.17-.19-1.58-.57-.41-.38-.61-1.03-.61-1.94v-6.88Z"/>
      <path class="cls-1" d="m197.69,49.05c-.83,0-1.57-.14-2.22-.43-.65-.29-1.16-.68-1.54-1.19-.38-.51-.58-1.1-.61-1.77h1.89c.03.37.15.68.37.95.22.27.52.47.88.62.36.15.77.22,1.21.22.49,0,.92-.08,1.29-.25.38-.17.67-.41.88-.71.21-.3.32-.65.32-1.05s-.11-.78-.32-1.1c-.21-.32-.52-.56-.92-.75s-.89-.27-1.46-.27h-1.04v-1.52h1.04c.46,0,.86-.08,1.21-.25s.62-.4.82-.69c.2-.3.29-.64.29-1.04s-.09-.72-.26-1c-.17-.28-.41-.51-.72-.67-.31-.16-.68-.24-1.1-.24s-.78.07-1.13.22c-.35.15-.63.36-.85.63s-.33.6-.35.98h-1.8c.02-.67.22-1.26.59-1.76.38-.51.88-.9,1.49-1.19s1.31-.43,2.06-.43c.79,0,1.48.15,2.06.46.58.31,1.02.72,1.34,1.23s.47,1.07.47,1.68c0,.69-.19,1.28-.58,1.76s-.9.81-1.55.97v.1c.82.12,1.46.45,1.91.98.45.53.68,1.18.67,1.96,0,.68-.18,1.29-.56,1.83-.38.54-.9.96-1.55,1.27-.66.31-1.41.46-2.25.46Z"/>
    </g>
    <rect class="cls-1" x="191.67" y="34.25" width="12" height="1.5"/>
    <g>
      <path class="cls-1" d="m93.96,31.88v-1.35l4.18-4.33c.45-.47.82-.88,1.11-1.24.29-.36.51-.7.66-1.02.14-.32.22-.66.22-1.03,0-.41-.1-.77-.29-1.07-.19-.3-.46-.53-.79-.69-.33-.16-.71-.24-1.13-.24-.44,0-.83.09-1.16.27s-.58.44-.76.77c-.18.33-.27.72-.27,1.16h-1.78c0-.75.17-1.41.52-1.97s.82-1,1.42-1.31c.6-.31,1.29-.47,2.06-.47s1.46.15,2.06.46c.59.31,1.06.73,1.39,1.26.33.53.5,1.13.5,1.79,0,.46-.09.91-.26,1.35-.17.44-.47.93-.89,1.46-.42.54-1.01,1.19-1.76,1.95l-2.46,2.57v.09h5.57v1.6h-8.14Z"/>
      <path class="cls-1" d="m113.48,22.6v1.52h-9.51v-1.52h9.51Zm-6.31,0v9.27h-1.78v-9.27h1.78Zm3.15,0h1.78v6.77c0,.28.05.49.14.63.09.14.22.24.37.29.16.05.32.08.5.08.13,0,.27-.01.4-.04.13-.02.24-.04.32-.06v1.52c-.15.04-.34.09-.56.14-.22.05-.48.07-.77.07-.65,0-1.17-.19-1.58-.57-.41-.38-.61-1.03-.61-1.94v-6.88Z"/>
      <path class="cls-1" d="m103.69,49.05c-.83,0-1.57-.14-2.22-.43-.65-.29-1.16-.68-1.54-1.19-.38-.51-.58-1.1-.61-1.77h1.9c.02.37.15.68.37.95.22.27.52.47.88.62.36.15.76.22,1.21.22.49,0,.92-.08,1.29-.25s.67-.41.88-.71c.21-.3.32-.65.32-1.05s-.11-.78-.32-1.1c-.21-.32-.52-.56-.92-.75s-.89-.27-1.46-.27h-1.04v-1.52h1.04c.46,0,.86-.08,1.21-.25.35-.17.62-.4.82-.69.2-.3.3-.64.3-1.04s-.09-.72-.26-1-.41-.51-.72-.67c-.31-.16-.68-.24-1.1-.24s-.78.07-1.13.22c-.35.15-.63.36-.85.63-.22.27-.33.6-.35.98h-1.8c.02-.67.22-1.26.59-1.76.38-.51.87-.9,1.49-1.19.62-.29,1.31-.43,2.06-.43s1.48.15,2.06.46c.58.31,1.02.72,1.34,1.23.32.51.47,1.07.47,1.68,0,.69-.19,1.28-.58,1.76s-.9.81-1.55.97v.1c.82.12,1.46.45,1.91.98.45.53.68,1.18.67,1.96,0,.68-.18,1.29-.56,1.83-.38.54-.9.96-1.55,1.27-.66.31-1.41.46-2.25.46Z"/>
    </g>
    <rect class="cls-1" x="94" y="34.25" width="20" height="1.5"/>
    <g>
      <path class="cls-1" d="m239.26,49.6v1.52h-9.51v-1.52h9.51Zm-6.31,0v9.27h-1.78v-9.27h1.78Zm3.15,0h1.78v6.77c0,.28.05.49.14.63.1.14.22.24.38.29s.32.08.5.08c.13,0,.27-.01.4-.04.13-.02.24-.04.32-.06v1.52c-.15.04-.34.09-.56.14-.22.05-.48.07-.77.07-.65,0-1.17-.19-1.58-.57-.41-.38-.61-1.03-.61-1.94v-6.88Z"/>
      <path class="cls-1" d="m230.04,73.46v-1.51l5.34-8.44h1.19v2.22h-.75l-3.82,6.05v.1h7.32v1.58h-9.28Zm5.86,2.41v-3.56s.01-8.8.01-8.8h1.77v12.36h-1.78Z"/>
    </g>
    <rect class="cls-1" x="228.67" y="61.25" width="12" height="1.5"/>
    <g>
      <path class="cls-1" d="m265.26,90.6v1.52h-9.51v-1.52h9.51Zm-6.31,0v9.27h-1.78v-9.27h1.78Zm3.15,0h1.78v6.77c0,.28.05.49.14.63.1.14.22.24.38.29s.32.08.5.08c.13,0,.27-.01.4-.04.13-.02.24-.04.32-.06v1.52c-.15.04-.34.09-.56.14-.22.05-.48.07-.77.07-.65,0-1.17-.19-1.58-.57-.41-.38-.61-1.03-.61-1.94v-6.88Z"/>
      <path class="cls-1" d="m260.78,117.05c-.55,0-1.09-.11-1.63-.3s-1.02-.52-1.45-.97c-.43-.45-.78-1.06-1.04-1.82-.26-.76-.39-1.71-.39-2.85,0-1.08.11-2.04.32-2.87.21-.84.53-1.54.93-2.12s.9-1.02,1.47-1.32c.57-.3,1.22-.45,1.94-.45s1.39.15,1.96.43c.57.29,1.04.69,1.39,1.2.36.51.58,1.09.68,1.74h-1.84c-.12-.52-.37-.94-.74-1.26-.37-.33-.85-.49-1.45-.49-.91,0-1.61.39-2.12,1.18-.51.79-.76,1.89-.76,3.29h.09c.21-.35.48-.65.79-.9.31-.25.66-.44,1.05-.57s.8-.2,1.23-.2c.72,0,1.37.17,1.95.52.58.35,1.04.83,1.39,1.44.35.61.52,1.31.52,2.1s-.18,1.5-.53,2.14c-.36.64-.86,1.15-1.5,1.52-.64.37-1.4.55-2.26.55Zm0-1.57c.47,0,.9-.12,1.27-.35.37-.23.67-.55.89-.94s.33-.83.33-1.32-.11-.91-.32-1.3c-.21-.39-.5-.7-.87-.93-.37-.23-.79-.34-1.26-.34-.36,0-.69.07-.99.21-.3.14-.57.33-.8.57-.23.24-.41.52-.54.83s-.2.64-.2.99c0,.46.11.89.32,1.29.22.39.51.71.89.95.38.24.8.36,1.28.36Z"/>
    </g>
    <rect class="cls-1" x="254.67" y="102.25" width="12" height="1.5"/>
    <g>
      <path class="cls-1" d="m58.01,60.05c-.83,0-1.57-.14-2.22-.43-.65-.29-1.16-.68-1.54-1.19-.38-.51-.58-1.1-.61-1.77h1.9c.02.37.15.68.37.95.22.27.52.47.88.62.36.15.76.22,1.21.22.49,0,.92-.08,1.29-.25s.67-.41.88-.71c.21-.3.32-.65.32-1.05s-.11-.78-.32-1.1c-.21-.32-.52-.56-.92-.75s-.89-.27-1.46-.27h-1.04v-1.52h1.04c.46,0,.86-.08,1.21-.25.35-.17.62-.4.82-.69.2-.3.3-.64.3-1.04s-.09-.72-.26-1-.41-.51-.72-.67c-.31-.16-.68-.24-1.1-.24s-.78.07-1.13.22c-.35.15-.63.36-.85.63-.22.27-.33.6-.35.98h-1.8c.02-.67.22-1.26.59-1.76.38-.51.87-.9,1.49-1.19.62-.29,1.31-.43,2.06-.43s1.48.15,2.06.46c.58.31,1.02.72,1.34,1.23.32.51.47,1.07.47,1.68,0,.69-.19,1.28-.58,1.76s-.9.81-1.55.97v.1c.82.12,1.46.45,1.91.98.45.53.68,1.18.67,1.96,0,.68-.18,1.29-.56,1.83-.38.54-.9.96-1.55,1.27-.66.31-1.41.46-2.25.46Z"/>
      <path class="cls-1" d="m73.74,50.6v1.52h-9.51v-1.52h9.51Zm-6.31,0v9.27h-1.78v-9.27h1.78Zm3.15,0h1.78v6.77c0,.28.05.49.14.63.09.14.22.24.37.29.16.05.32.08.5.08.13,0,.27-.01.4-.04.13-.02.24-.04.32-.06v1.52c-.15.04-.34.09-.56.14-.22.05-.48.07-.77.07-.65,0-1.17-.19-1.58-.57-.41-.38-.61-1.03-.61-1.94v-6.88Z"/>
      <path class="cls-1" d="m59.04,74.46v-1.51l5.34-8.44h1.19v2.22h-.75l-3.82,6.05v.1h7.32v1.58h-9.28Zm5.86,2.41v-3.56s.01-8.8.01-8.8h1.77v12.36h-1.78Z"/>
    </g>
    <rect class="cls-1" x="54" y="62.25" width="20" height="1.5"/>
    <g>
      <path class="cls-1" d="m33.99,102.05c-.76,0-1.44-.15-2.04-.44-.6-.29-1.08-.69-1.44-1.2-.36-.51-.55-1.09-.57-1.75h1.81c.04.53.28.97.71,1.31.43.34.94.51,1.53.51.47,0,.9-.11,1.26-.33s.66-.52.87-.91.32-.83.32-1.32-.11-.95-.33-1.35c-.22-.39-.52-.7-.9-.93-.38-.23-.82-.34-1.31-.34-.37,0-.75.06-1.13.19-.38.13-.68.3-.92.51l-1.71-.25.69-6.23h6.8v1.6h-5.25l-.39,3.46h.07c.24-.23.56-.43.96-.59.4-.16.83-.24,1.29-.24.75,0,1.42.18,2.01.54.59.36,1.05.85,1.39,1.46.34.62.51,1.33.5,2.13,0,.8-.18,1.52-.54,2.14-.36.63-.87,1.12-1.51,1.48-.64.36-1.38.54-2.21.54Z"/>
      <path class="cls-1" d="m49.53,92.6v1.52h-9.51v-1.52h9.51Zm-6.31,0v9.27h-1.78v-9.27h1.78Zm3.15,0h1.78v6.77c0,.28.05.49.14.63.09.14.22.24.37.29.16.05.32.08.5.08.13,0,.27-.01.4-.04.13-.02.24-.04.32-.06v1.52c-.15.04-.34.09-.56.14-.22.05-.48.07-.77.07-.65,0-1.17-.19-1.58-.57-.41-.38-.61-1.03-.61-1.94v-6.88Z"/>
      <path class="cls-1" d="m39.78,119.05c-.55,0-1.09-.11-1.63-.3s-1.02-.52-1.45-.97-.78-1.06-1.04-1.82c-.26-.76-.39-1.71-.39-2.85,0-1.08.11-2.04.32-2.87.21-.84.53-1.54.93-2.12s.9-1.02,1.47-1.32c.58-.3,1.22-.45,1.94-.45s1.39.15,1.96.43c.57.29,1.04.69,1.39,1.2.36.51.58,1.09.68,1.74h-1.84c-.12-.52-.37-.94-.74-1.26-.37-.33-.85-.49-1.45-.49-.91,0-1.61.39-2.12,1.18-.5.79-.76,1.89-.76,3.29h.09c.21-.35.48-.65.79-.9.31-.25.66-.44,1.05-.57s.8-.2,1.23-.2c.72,0,1.37.17,1.95.52.58.35,1.04.83,1.39,1.44.35.61.52,1.31.52,2.1s-.18,1.5-.53,2.14c-.36.64-.86,1.15-1.5,1.52-.64.37-1.4.55-2.26.55Zm0-1.57c.47,0,.9-.12,1.27-.35s.67-.55.89-.94c.22-.39.33-.83.33-1.32s-.11-.91-.32-1.3c-.21-.39-.5-.7-.87-.93s-.79-.34-1.26-.34c-.36,0-.69.07-.99.21s-.57.33-.8.57c-.23.24-.41.52-.54.83s-.2.64-.2.99c0,.46.11.89.32,1.29.22.39.51.71.89.95s.8.36,1.28.36Z"/>
    </g>
    <rect class="cls-1" x="30" y="104.25" width="20" height="1.5"/>
    <g>
      <path class="cls-1" d="m25.67,195.88l5.4-10.67v-.09h-6.24v-1.6h8.17v1.65l-5.38,10.71h-1.95Z"/>
      <path class="cls-1" d="m44.18,186.6v1.52h-9.51v-1.52h9.51Zm-6.31,0v9.27h-1.78v-9.27h1.78Zm3.15,0h1.78v6.77c0,.28.05.49.14.63.09.14.22.24.37.29.16.05.32.08.5.08.13,0,.27-.01.4-.04s.24-.04.32-.06v1.52c-.15.04-.34.09-.56.14-.22.05-.48.07-.77.07-.65,0-1.17-.19-1.58-.57-.41-.38-.61-1.03-.61-1.94v-6.88Z"/>
      <path class="cls-1" d="m34.78,213.04c-.55,0-1.09-.11-1.63-.3s-1.02-.52-1.45-.97c-.43-.45-.78-1.06-1.04-1.82-.26-.76-.39-1.71-.39-2.85,0-1.08.11-2.04.32-2.87.21-.84.53-1.54.93-2.12.41-.58.9-1.02,1.47-1.32.58-.3,1.22-.45,1.94-.45s1.39.14,1.96.43c.57.29,1.04.69,1.39,1.2.36.51.58,1.09.68,1.74h-1.84c-.12-.52-.37-.94-.74-1.26s-.85-.49-1.45-.49c-.91,0-1.61.39-2.12,1.18-.5.79-.76,1.89-.76,3.29h.09c.21-.35.48-.65.79-.9.31-.25.66-.44,1.05-.57s.8-.2,1.23-.2c.72,0,1.37.17,1.95.52.58.35,1.04.83,1.39,1.44.35.61.52,1.31.52,2.1s-.18,1.5-.53,2.14c-.36.64-.86,1.15-1.5,1.52-.64.37-1.4.55-2.26.55Zm0-1.57c.47,0,.9-.12,1.27-.35s.67-.55.89-.94c.22-.39.33-.83.33-1.32s-.11-.91-.32-1.3-.5-.7-.87-.93c-.37-.23-.79-.34-1.26-.34-.36,0-.69.07-.99.21s-.57.33-.8.57c-.23.24-.41.52-.54.83-.13.31-.2.64-.2.99,0,.46.11.89.32,1.29.22.39.51.71.89.95.38.24.8.36,1.28.36Z"/>
    </g>
    <rect class="cls-1" x="25" y="198.25" width="20" height="1.5"/>
    <g>
      <path class="cls-1" d="m91.36,259.46v-1.51l5.34-8.44h1.19v2.22h-.75l-3.82,6.05v.1h7.32v1.58h-9.28Zm5.86,2.42v-3.56s.01-8.8.01-8.8h1.77v12.36h-1.78Z"/>
      <path class="cls-1" d="m111.82,252.6v1.52h-9.51v-1.52h9.51Zm-6.31,0v9.27h-1.78v-9.27h1.78Zm3.15,0h1.78v6.77c0,.28.05.49.14.63.09.14.22.24.37.29.16.05.32.08.5.08.13,0,.27-.01.4-.04s.24-.04.32-.06v1.52c-.15.04-.34.09-.56.14-.22.05-.48.07-.77.07-.65,0-1.17-.19-1.58-.57-.41-.38-.61-1.03-.61-1.94v-6.88Z"/>
      <path class="cls-1" d="m101.69,279.04c-.83,0-1.57-.14-2.22-.43-.65-.29-1.16-.68-1.54-1.19-.38-.51-.58-1.1-.61-1.77h1.9c.02.37.15.68.37.95.22.27.52.47.88.62s.76.22,1.21.22c.49,0,.92-.08,1.29-.25.38-.17.67-.4.88-.71.21-.3.32-.65.32-1.05s-.11-.78-.32-1.1c-.21-.32-.52-.56-.92-.75s-.89-.27-1.46-.27h-1.04v-1.52h1.04c.46,0,.86-.08,1.21-.25.35-.16.62-.39.82-.69s.3-.64.3-1.04-.09-.71-.26-1c-.17-.28-.41-.51-.72-.67-.31-.16-.68-.24-1.1-.24s-.78.07-1.13.22c-.35.15-.63.36-.85.63-.22.27-.33.6-.35.97h-1.8c.02-.67.22-1.26.59-1.76.38-.51.87-.9,1.49-1.19.62-.29,1.31-.43,2.06-.43s1.48.15,2.06.46c.58.31,1.02.72,1.34,1.23.32.51.47,1.07.47,1.68,0,.69-.19,1.28-.58,1.76-.39.48-.9.81-1.55.97v.1c.82.12,1.46.45,1.91.98.45.53.68,1.18.67,1.96,0,.68-.18,1.29-.56,1.83-.38.54-.9.96-1.55,1.27-.66.31-1.41.46-2.25.46Z"/>
    </g>
    <rect class="cls-1" x="92" y="264.25" width="20" height="1.5"/>
    <g>
      <path class="cls-1" d="m193.99,265.04c-.76,0-1.44-.15-2.04-.44-.6-.29-1.08-.69-1.44-1.2-.36-.51-.55-1.09-.57-1.75h1.81c.04.53.28.97.71,1.31.43.34.94.51,1.53.51.47,0,.9-.11,1.26-.33.37-.22.66-.52.87-.91s.32-.83.32-1.32-.11-.95-.33-1.35c-.22-.39-.52-.71-.9-.93-.38-.23-.82-.34-1.31-.34-.37,0-.75.06-1.13.19-.38.13-.68.3-.92.51l-1.71-.25.69-6.23h6.8v1.6h-5.25l-.39,3.46h.07c.24-.23.56-.43.96-.59.4-.16.83-.24,1.29-.24.75,0,1.42.18,2.01.54.59.36,1.05.85,1.39,1.46.34.62.51,1.33.5,2.13,0,.8-.18,1.52-.54,2.14-.36.63-.87,1.12-1.51,1.48-.64.36-1.38.54-2.21.54Z"/>
      <path class="cls-1" d="m209.53,255.6v1.52h-9.51v-1.52h9.51Zm-6.31,0v9.27h-1.78v-9.27h1.78Zm3.15,0h1.78v6.77c0,.28.05.49.14.63.1.14.22.24.38.29s.32.08.5.08c.13,0,.27-.01.4-.04s.24-.04.32-.06v1.52c-.15.04-.34.09-.56.14-.22.05-.48.07-.77.07-.65,0-1.17-.19-1.58-.57-.41-.38-.61-1.03-.61-1.94v-6.88Z"/>
      <path class="cls-1" d="m199.69,282.04c-.83,0-1.57-.14-2.22-.43-.65-.29-1.16-.68-1.54-1.19-.38-.51-.58-1.1-.61-1.77h1.89c.03.37.15.68.37.95.22.27.52.47.88.62.36.14.77.22,1.21.22.49,0,.92-.08,1.29-.25.38-.17.67-.4.88-.71.21-.3.32-.65.32-1.05s-.11-.78-.32-1.1c-.21-.32-.52-.56-.92-.75s-.89-.27-1.46-.27h-1.04v-1.52h1.04c.46,0,.86-.08,1.21-.25.35-.16.62-.39.82-.69s.29-.64.29-1.04-.09-.71-.26-1c-.17-.28-.41-.51-.72-.67-.31-.16-.68-.24-1.1-.24s-.78.07-1.13.22c-.35.15-.63.36-.85.63s-.33.6-.35.97h-1.8c.02-.67.22-1.26.59-1.76s.88-.9,1.49-1.19,1.31-.43,2.06-.43c.79,0,1.48.15,2.06.46.58.31,1.02.72,1.34,1.23s.47,1.07.47,1.68c0,.69-.19,1.28-.58,1.76-.39.48-.9.81-1.55.97v.1c.82.12,1.46.45,1.91.98.45.53.68,1.18.67,1.96,0,.68-.18,1.29-.56,1.83-.38.54-.9.96-1.55,1.27-.66.31-1.41.46-2.25.46Z"/>
    </g>
    <rect class="cls-1" x="190" y="267.25" width="20" height="1.5"/>
    <g>
      <path class="cls-1" d="m61.99,241.04c-.76,0-1.44-.15-2.04-.44-.6-.29-1.08-.69-1.44-1.2s-.55-1.09-.57-1.75h1.81c.04.53.28.97.71,1.31.43.34.94.51,1.53.51.47,0,.9-.11,1.26-.33.37-.22.66-.52.87-.91s.32-.83.32-1.32-.11-.95-.33-1.35c-.22-.39-.52-.71-.9-.93-.38-.23-.82-.34-1.31-.34-.37,0-.75.06-1.13.19-.38.13-.68.3-.92.51l-1.71-.25.69-6.23h6.8v1.6h-5.25l-.39,3.46h.07c.24-.23.56-.43.96-.59.4-.16.83-.24,1.29-.24.75,0,1.42.18,2.01.54.59.36,1.05.85,1.39,1.46.34.62.51,1.33.5,2.13,0,.8-.18,1.52-.54,2.14-.36.63-.87,1.12-1.51,1.48-.64.36-1.38.54-2.21.54Z"/>
      <path class="cls-1" d="m77.53,231.6v1.52h-9.51v-1.52h9.51Zm-6.31,0v9.27h-1.78v-9.27h1.78Zm3.15,0h1.78v6.77c0,.28.05.49.14.63.09.14.22.24.37.29.16.05.32.08.5.08.13,0,.27-.01.4-.04s.24-.04.32-.06v1.52c-.15.04-.34.09-.56.14-.22.05-.48.07-.77.07-.65,0-1.17-.19-1.58-.57-.41-.38-.61-1.03-.61-1.94v-6.88Z"/>
      <path class="cls-1" d="m63.04,255.46v-1.51l5.34-8.44h1.19v2.22h-.75l-3.82,6.05v.1h7.32v1.58h-9.28Zm5.86,2.42v-3.56s.01-8.8.01-8.8h1.77v12.36h-1.78Z"/>
    </g>
    <rect class="cls-1" x="58" y="243.25" width="20" height="1.5"/>
    <g>
      <path class="cls-1" d="m225.67,240.88l5.4-10.67v-.09h-6.24v-1.6h8.17v1.65l-5.38,10.71h-1.95Z"/>
      <path class="cls-1" d="m244.18,231.6v1.52h-9.51v-1.52h9.51Zm-6.31,0v9.27h-1.78v-9.27h1.78Zm3.15,0h1.78v6.77c0,.28.05.49.14.63.1.14.22.24.38.29s.32.08.5.08c.13,0,.27-.01.4-.04s.24-.04.32-.06v1.52c-.15.04-.34.09-.56.14-.22.05-.48.07-.77.07-.65,0-1.17-.19-1.58-.57-.41-.38-.61-1.03-.61-1.94v-6.88Z"/>
      <path class="cls-1" d="m230.04,255.46v-1.51l5.34-8.44h1.19v2.22h-.75l-3.82,6.05v.1h7.32v1.58h-9.28Zm5.86,2.42v-3.56s.01-8.8.01-8.8h1.77v12.36h-1.78Z"/>
    </g>
    <rect class="cls-1" x="225" y="243.25" width="20" height="1.5"/>
    <g>
      <path class="cls-1" d="m260.83,185.51v12.36h-1.87v-10.49h-.07l-2.96,1.93v-1.79l3.09-2.02h1.82Z"/>
      <path class="cls-1" d="m268.87,185.51v12.36h-1.87v-10.49h-.07l-2.96,1.93v-1.79l3.09-2.02h1.82Z"/>
      <path class="cls-1" d="m281.3,188.6v1.52h-9.51v-1.52h9.51Zm-6.31,0v9.27h-1.78v-9.27h1.78Zm3.15,0h1.78v6.77c0,.28.05.49.14.63.1.14.22.24.38.29s.32.08.5.08c.13,0,.27-.01.4-.04s.24-.04.32-.06v1.52c-.15.04-.34.09-.56.14-.22.05-.48.07-.77.07-.65,0-1.17-.19-1.58-.57-.41-.38-.61-1.03-.61-1.94v-6.88Z"/>
      <path class="cls-1" d="m268.78,215.04c-.55,0-1.09-.11-1.63-.3s-1.02-.52-1.45-.97c-.43-.45-.78-1.06-1.04-1.82-.26-.76-.39-1.71-.39-2.85,0-1.08.11-2.04.32-2.87.21-.84.53-1.54.93-2.12.41-.58.9-1.02,1.47-1.32.57-.3,1.22-.45,1.94-.45s1.39.14,1.96.43c.57.29,1.04.69,1.39,1.2.36.51.58,1.09.68,1.74h-1.84c-.12-.52-.37-.94-.74-1.26-.37-.33-.85-.49-1.45-.49-.91,0-1.61.39-2.12,1.18-.51.79-.76,1.89-.76,3.29h.09c.21-.35.48-.65.79-.9.31-.25.66-.44,1.05-.57s.8-.2,1.23-.2c.72,0,1.37.17,1.95.52s1.04.83,1.39,1.44c.35.61.52,1.31.52,2.1s-.18,1.5-.53,2.14c-.36.64-.86,1.15-1.5,1.52-.64.37-1.4.55-2.26.55Zm0-1.57c.47,0,.9-.12,1.27-.35.37-.23.67-.55.89-.94s.33-.83.33-1.32-.11-.91-.32-1.3-.5-.7-.87-.93c-.37-.23-.79-.34-1.26-.34-.36,0-.69.07-.99.21-.3.14-.57.33-.8.57-.23.24-.41.52-.54.83-.13.31-.2.64-.2.99,0,.46.11.89.32,1.29.22.39.51.71.89.95.38.24.8.36,1.28.36Z"/>
    </g>
    <rect class="cls-1" x="259" y="200.25" width="20" height="1.5"/>
    <path class="cls-1" d="m39.26,135.6v1.52h-9.51v-1.52h9.51Zm-6.31,0v9.27h-1.78v-9.27h1.78Zm3.15,0h1.78v6.77c0,.28.05.49.14.63.09.14.22.24.37.29.16.05.32.08.5.08.13,0,.27-.01.4-.04.13-.02.24-.04.32-.06v1.52c-.15.04-.34.09-.56.14-.22.05-.48.07-.77.07-.65,0-1.17-.19-1.58-.57-.41-.38-.61-1.03-.61-1.94v-6.88Z"/>
    <g>
      <path class="cls-1" d="m130.01,271.04c-.83,0-1.57-.14-2.22-.43-.65-.29-1.16-.68-1.54-1.19-.38-.51-.58-1.1-.61-1.77h1.9c.02.37.15.68.37.95.22.27.52.47.88.62s.76.22,1.21.22c.49,0,.92-.08,1.29-.25.38-.17.67-.4.88-.71.21-.3.32-.65.32-1.05s-.11-.78-.32-1.1c-.21-.32-.52-.56-.92-.75s-.89-.27-1.46-.27h-1.04v-1.52h1.04c.46,0,.86-.08,1.21-.25.35-.16.62-.39.82-.69s.3-.64.3-1.04-.09-.71-.26-1c-.17-.28-.41-.51-.72-.67-.31-.16-.68-.24-1.1-.24s-.78.07-1.13.22c-.35.15-.63.36-.85.63-.22.27-.33.6-.35.97h-1.8c.02-.67.22-1.26.59-1.76.38-.51.87-.9,1.49-1.19.62-.29,1.31-.43,2.06-.43s1.48.15,2.06.46c.58.31,1.02.72,1.34,1.23.32.51.47,1.07.47,1.68,0,.69-.19,1.28-.58,1.76-.39.48-.9.81-1.55.97v.1c.82.12,1.46.45,1.91.98.45.53.68,1.18.67,1.96,0,.68-.18,1.29-.56,1.83-.38.54-.9.96-1.55,1.27-.66.31-1.41.46-2.25.46Z"/>
      <path class="cls-1" d="m145.74,261.6v1.52h-9.51v-1.52h9.51Zm-6.31,0v9.27h-1.78v-9.27h1.78Zm3.15,0h1.78v6.77c0,.28.05.49.14.63.09.14.22.24.37.29.16.05.32.08.5.08.13,0,.27-.01.4-.04s.24-.04.32-.06v1.52c-.15.04-.34.09-.56.14-.22.05-.48.07-.77.07-.65,0-1.17-.19-1.58-.57-.41-.38-.61-1.03-.61-1.94v-6.88Z"/>
      <path class="cls-1" d="m131.65,287.88v-1.35l4.18-4.33c.45-.47.82-.88,1.11-1.24.29-.36.51-.7.66-1.02s.22-.66.22-1.03c0-.41-.1-.77-.29-1.07-.19-.3-.46-.53-.79-.69-.33-.16-.71-.25-1.13-.25-.44,0-.83.09-1.16.27s-.58.44-.76.77-.27.72-.27,1.16h-1.78c0-.75.17-1.41.52-1.97.35-.56.82-1,1.42-1.31s1.29-.47,2.06-.47,1.46.15,2.06.46,1.06.73,1.39,1.26c.33.53.5,1.13.5,1.79,0,.46-.09.91-.26,1.35-.17.44-.47.93-.89,1.46-.42.54-1.01,1.19-1.76,1.95l-2.46,2.57v.09h5.57v1.6h-8.14Z"/>
    </g>
    <rect class="cls-1" x="123.67" y="272.25" width="23.33" height="1.5"/>
  </g>
</svg>