<?xml version="1.0" encoding="UTF-8"?>
<svg id="Layer_1" data-name="Layer 1" xmlns="http://www.w3.org/2000/svg" viewBox="0 0 62.18 77">
  <defs>
    <style>
      .cls-1 {
        fill: #fff;
      }

      .cls-2 {
        fill: none;
        stroke: #d1ae59;
        stroke-miterlimit: 10;
        stroke-width: 2px;
      }
    </style>
  </defs>
  <path class="cls-1" d="m2.76,46.46c-.42,0-.79-.08-1.12-.23-.34-.15-.6-.38-.79-.67-.19-.3-.29-.66-.29-1.09,0-.37.07-.67.21-.91.14-.24.33-.43.58-.57.24-.14.51-.24.81-.32.3-.07.6-.12.91-.16.39-.04.71-.08.96-.11.24-.03.42-.08.53-.15s.17-.18.17-.33v-.03c0-.37-.1-.66-.31-.87-.21-.2-.52-.31-.93-.31s-.77.09-1.01.28c-.25.19-.42.4-.51.63l-1.2-.27c.14-.4.35-.72.62-.96.27-.25.59-.42.95-.54.36-.11.73-.17,1.13-.17.26,0,.54.03.83.09.29.06.57.17.83.33s.47.39.63.69c.17.3.25.69.25,1.17v4.35h-1.24v-.9h-.05c-.08.17-.21.33-.37.49s-.38.29-.63.4c-.26.1-.57.16-.93.16Zm.28-1.02c.35,0,.65-.07.91-.21.25-.14.44-.32.58-.55.13-.23.2-.47.2-.73v-.84s-.13.09-.26.13c-.13.04-.28.07-.44.1-.17.03-.33.05-.48.07-.16.02-.29.04-.39.05-.25.03-.47.08-.68.16-.2.07-.36.18-.49.32s-.18.32-.18.55c0,.32.12.55.35.71.23.16.53.24.89.24Z"/>
  <path class="cls-1" d="m39.32,30.6c-.63,0-1.18-.14-1.63-.43-.46-.29-.81-.69-1.05-1.2-.24-.51-.37-1.09-.37-1.75s.12-1.25.38-1.76.6-.91,1.06-1.2c.46-.29.99-.43,1.61-.43.5,0,.94.09,1.33.27.39.18.7.44.94.77s.38.71.43,1.15h-1.24c-.07-.31-.22-.57-.47-.79-.24-.22-.57-.33-.97-.33-.36,0-.67.09-.93.28s-.47.45-.62.79c-.15.34-.22.75-.22,1.21s.07.89.22,1.24c.15.35.35.62.62.81s.58.29.94.29c.24,0,.46-.04.66-.13.2-.09.36-.22.5-.39s.23-.37.28-.6h1.24c-.05.42-.18.8-.41,1.13-.23.33-.54.59-.92.78s-.84.29-1.35.29Z"/>
  <path class="cls-1" d="m30.25,76.82v-8.73h1.27v3.24h.08c.07-.14.18-.29.32-.47.14-.18.33-.34.58-.47s.57-.2.98-.2c.53,0,1,.13,1.42.4.42.27.74.65.98,1.16.24.5.36,1.11.36,1.82s-.12,1.31-.35,1.82c-.24.5-.56.89-.97,1.16s-.88.41-1.41.41c-.4,0-.72-.07-.97-.2-.25-.13-.45-.29-.59-.47-.14-.18-.25-.34-.33-.48h-.11v1.02h-1.24Zm1.25-3.27c0,.46.07.86.2,1.21.13.35.33.62.58.81s.56.29.93.29.7-.1.96-.3c.25-.2.45-.48.58-.83.13-.35.2-.74.2-1.18s-.06-.82-.19-1.16c-.13-.34-.32-.62-.58-.81-.26-.2-.58-.3-.96-.3s-.68.1-.94.29c-.25.19-.45.46-.58.8s-.2.74-.2,1.19Z"/>
  <polygon class="cls-2" points="10.17 3.02 10.17 64.35 58.88 64.47 10.17 3.02"/>
  <polyline class="cls-2" points="16.73 64.32 16.73 57.76 10.17 57.76"/>
  <path class="cls-2" d="m10.17,13.1c4.35,1.55,6.56-1.8,6.56-1.8"/>
  <path class="cls-1" d="m15.42,23.98c-.55,0-1.02-.15-1.44-.44-.41-.29-.73-.69-.96-1.2-.23-.51-.35-1.1-.35-1.76s.12-1.24.36-1.75c.24-.5.57-.9,1-1.19.42-.29.9-.43,1.44-.43.38,0,.72.07,1.01.22.29.14.54.34.74.6.21.26.38.55.51.89h.44l.25,1.64.84,3.29h-1.09l-.78-3.29c-.04-.21-.11-.44-.19-.7-.09-.26-.2-.51-.34-.74s-.31-.43-.53-.58c-.21-.15-.47-.23-.77-.23-.33,0-.61.1-.86.29s-.44.46-.58.81-.2.74-.2,1.18.07.83.2,1.18c.13.35.32.62.55.83.24.2.51.3.83.3.29,0,.54-.08.75-.23s.4-.35.55-.6c.15-.24.27-.49.37-.76.09-.26.17-.5.21-.71l.7-3.29h1.09l-.75,3.29-.25,1.66h-.4c-.14.34-.31.64-.53.9s-.47.47-.78.62c-.3.15-.65.22-1.05.22Z"/>
</svg>