<?xml version="1.0" encoding="UTF-8"?>
<svg id="Layer_1" data-name="Layer 1" xmlns="http://www.w3.org/2000/svg" viewBox="0 0 197.5 156">
  <defs>
    <style>
      .cls-1 {
        fill: #fff;
      }

      .cls-2 {
        fill: none;
        stroke: #d1ae59;
        stroke-miterlimit: 10;
        stroke-width: 2px;
      }
    </style>
  </defs>
  <polygon class="cls-2" points="16.5 9 16.5 139 95.5 139 16.5 9"/>
  <g>
    <path class="cls-1" d="m131.4,11.75l-1.64.29c-.07-.21-.18-.41-.32-.6-.15-.19-.35-.34-.59-.46-.25-.12-.56-.18-.94-.18-.51,0-.94.11-1.28.34-.34.23-.51.52-.51.88,0,.31.11.56.34.75.23.19.6.34,1.11.46l1.47.34c.85.2,1.49.5,1.91.91.42.41.63.94.63,1.6,0,.56-.16,1.05-.48,1.48-.32.43-.76.77-1.33,1.02-.57.25-1.23.37-1.98.37-1.04,0-1.89-.22-2.54-.67-.66-.45-1.06-1.08-1.21-1.9l1.75-.27c.11.46.33.8.67,1.03s.78.35,1.32.35c.59,0,1.06-.12,1.42-.37.35-.25.53-.55.53-.91,0-.29-.11-.53-.32-.73-.22-.2-.54-.35-.99-.45l-1.57-.34c-.87-.2-1.5-.51-1.92-.94s-.62-.98-.62-1.64c0-.55.15-1.03.46-1.44.31-.41.73-.73,1.27-.96.54-.23,1.16-.35,1.85-.35,1,0,1.79.22,2.37.65.58.43.96,1.01,1.14,1.74Z"/>
    <path class="cls-1" d="m134.48,8.06c-.31,0-.58-.11-.81-.32-.22-.21-.33-.46-.33-.76s.11-.55.33-.76c.22-.21.49-.32.81-.32s.58.11.81.32c.22.21.33.46.33.76s-.11.55-.33.76c-.22.21-.49.32-.81.32Zm-.91,10.7v-9.27h1.8v9.27h-1.8Z"/>
    <path class="cls-1" d="m139.6,13.26v5.51h-1.8v-9.27h1.73v1.51h.11c.21-.49.55-.88,1-1.18.46-.3,1.03-.45,1.73-.45.63,0,1.18.13,1.66.4.47.26.84.66,1.1,1.17.26.52.39,1.16.39,1.93v5.9h-1.81v-5.68c0-.67-.17-1.2-.53-1.58-.35-.38-.83-.57-1.44-.57-.42,0-.79.09-1.11.27-.32.18-.58.45-.77.79-.19.35-.28.77-.28,1.26Z"/>
    <path class="cls-1" d="m151.43,18.96c-.77,0-1.45-.22-2.03-.63-.58-.41-1.04-.98-1.36-1.7-.33-.72-.49-1.56-.49-2.5s.17-1.76.51-2.47c.34-.71.81-1.27,1.41-1.68.6-.4,1.28-.61,2.04-.61.54,0,1.02.1,1.43.3s.76.49,1.05.85c.29.36.53.78.72,1.26h.63l.36,2.32,1.18,4.66h-1.55l-1.11-4.66c-.06-.3-.15-.63-.27-1-.12-.37-.28-.72-.48-1.05s-.45-.61-.75-.83c-.3-.22-.66-.33-1.08-.33-.46,0-.87.14-1.22.41-.35.28-.62.66-.81,1.14-.19.49-.29,1.05-.29,1.68s.09,1.18.28,1.67c.19.5.45.88.78,1.17.33.28.72.43,1.17.43.41,0,.76-.11,1.07-.33.31-.22.57-.5.78-.84.21-.34.39-.7.52-1.07.13-.37.23-.71.3-1l1-4.66h1.54l-1.06,4.66-.36,2.35h-.57c-.19.48-.44.9-.75,1.28-.3.37-.67.66-1.1.87-.43.21-.93.31-1.49.31Z"/>
    <path class="cls-1" d="m163.98,12.83v-1.59h7.73v1.59h-7.73Zm0,3.72v-1.59h7.73v1.59h-7.73Z"/>
    <path class="cls-1" d="m128.36,58.95c-.9,0-1.67-.2-2.32-.61-.65-.41-1.14-.97-1.49-1.69-.35-.72-.52-1.54-.52-2.47s.18-1.77.53-2.5c.35-.72.85-1.29,1.5-1.69.64-.41,1.4-.61,2.28-.61.7,0,1.33.13,1.88.39.55.26,1,.62,1.34,1.09.34.47.54,1.01.61,1.64h-1.76c-.1-.43-.32-.81-.66-1.12-.34-.31-.8-.47-1.38-.47-.5,0-.94.13-1.32.4-.38.26-.67.64-.88,1.12-.21.48-.31,1.06-.31,1.72s.1,1.26.31,1.75.5.87.87,1.14c.38.27.82.41,1.33.41.34,0,.65-.06.93-.19.28-.13.51-.31.71-.55.19-.24.33-.52.4-.86h1.76c-.06.6-.26,1.13-.59,1.61s-.76.84-1.31,1.11c-.55.27-1.18.41-1.92.41Z"/>
    <path class="cls-1" d="m138.01,58.95c-.87,0-1.63-.2-2.28-.6-.65-.4-1.15-.96-1.51-1.67-.36-.72-.54-1.55-.54-2.51s.18-1.8.54-2.52c.36-.72.86-1.28,1.51-1.68.65-.4,1.41-.6,2.28-.6s1.63.2,2.28.6c.65.4,1.15.96,1.51,1.68.36.72.54,1.56.54,2.52s-.18,1.79-.54,2.51c-.36.72-.86,1.27-1.51,1.67-.65.4-1.41.6-2.28.6Zm0-1.52c.56,0,1.03-.15,1.4-.45.37-.3.64-.69.82-1.19.18-.5.27-1.04.27-1.64s-.09-1.14-.27-1.63c-.18-.5-.45-.9-.82-1.2-.37-.3-.84-.45-1.4-.45s-1.04.15-1.41.45-.65.7-.83,1.2-.27,1.04-.27,1.63.09,1.14.27,1.64.46.89.83,1.19.84.45,1.41.45Z"/>
    <path class="cls-1" d="m151.29,51.75l-1.64.29c-.07-.21-.18-.41-.32-.6-.15-.19-.35-.34-.59-.46-.25-.12-.56-.18-.94-.18-.51,0-.94.11-1.28.34-.34.23-.51.52-.51.88,0,.31.11.56.34.75.23.19.6.34,1.11.46l1.47.34c.85.2,1.49.5,1.91.91.42.41.63.94.63,1.6,0,.56-.16,1.05-.48,1.48-.32.43-.76.77-1.33,1.02-.57.25-1.23.37-1.98.37-1.04,0-1.89-.22-2.54-.67-.66-.45-1.06-1.08-1.21-1.9l1.75-.27c.11.46.33.8.67,1.03s.78.35,1.32.35c.59,0,1.06-.12,1.42-.37.35-.25.53-.55.53-.91,0-.29-.11-.53-.32-.73-.22-.2-.54-.35-.99-.45l-1.57-.34c-.87-.2-1.5-.51-1.92-.94s-.62-.98-.62-1.64c0-.55.15-1.03.46-1.44.31-.41.73-.73,1.27-.96.54-.23,1.16-.35,1.85-.35,1,0,1.79.22,2.37.65.58.43.96,1.01,1.14,1.74Z"/>
    <path class="cls-1" d="m156.94,58.96c-.77,0-1.45-.22-2.03-.63-.58-.41-1.04-.98-1.36-1.7-.33-.72-.49-1.56-.49-2.5s.17-1.76.51-2.47c.34-.71.81-1.27,1.41-1.68.6-.4,1.28-.61,2.04-.61.54,0,1.02.1,1.43.3s.76.49,1.05.85c.29.36.53.78.72,1.26h.63l.36,2.32,1.18,4.66h-1.55l-1.11-4.66c-.06-.3-.15-.63-.27-1-.12-.37-.28-.72-.48-1.05s-.45-.61-.75-.83c-.3-.22-.66-.33-1.08-.33-.46,0-.87.14-1.22.41-.35.28-.62.66-.81,1.14-.19.49-.29,1.05-.29,1.68s.09,1.18.28,1.67c.19.5.45.88.78,1.17.33.28.72.43,1.17.43.41,0,.76-.11,1.07-.33.31-.22.57-.5.78-.84.21-.34.39-.7.52-1.07.13-.37.23-.71.3-1l1-4.66h1.54l-1.06,4.66-.36,2.35h-.57c-.19.48-.44.9-.75,1.28-.3.37-.67.66-1.1.87-.43.21-.93.31-1.49.31Z"/>
    <path class="cls-1" d="m169.49,52.83v-1.59h7.73v1.59h-7.73Zm0,3.72v-1.59h7.73v1.59h-7.73Z"/>
    <path class="cls-1" d="m128.78,89.49v1.45h-5.07v-1.45h5.07Zm-3.71-2.22h1.81v8.77c0,.35.05.61.16.79.1.17.24.29.41.36.17.06.35.09.55.09.14,0,.27,0,.38-.03.11-.02.19-.04.25-.05l.33,1.49c-.1.04-.25.08-.45.12-.19.04-.44.06-.72.07-.48,0-.92-.08-1.33-.25-.41-.18-.74-.45-1-.82-.25-.37-.38-.83-.38-1.39v-9.15Z"/>
    <path class="cls-1" d="m134.66,102.43c-.74,0-1.37-.1-1.9-.29s-.96-.45-1.29-.77c-.33-.32-.58-.67-.75-1.04l1.55-.64c.11.18.25.37.44.56.18.2.43.37.75.51.32.14.72.21,1.22.21.68,0,1.25-.17,1.7-.5.45-.33.67-.86.67-1.58v-1.82h-.11c-.11.2-.26.42-.47.66s-.48.45-.84.63c-.35.18-.82.27-1.38.27-.73,0-1.39-.17-1.98-.52-.59-.34-1.05-.85-1.39-1.53-.34-.67-.51-1.5-.51-2.49s.17-1.83.5-2.54c.34-.7.8-1.25,1.38-1.62.59-.38,1.25-.56,2-.56.58,0,1.04.1,1.39.29.35.19.63.41.83.67.2.25.35.48.46.67h.13v-1.5h1.77v9.48c0,.8-.19,1.45-.56,1.96-.37.51-.87.89-1.5,1.13-.63.25-1.34.37-2.13.37Zm-.02-5.31c.52,0,.96-.12,1.32-.37.36-.24.63-.59.82-1.05.19-.46.28-1,.28-1.64s-.09-1.17-.28-1.65c-.19-.47-.46-.85-.82-1.11s-.8-.4-1.33-.4-1,.14-1.36.42-.63.66-.82,1.14c-.18.48-.28,1.01-.28,1.61s.09,1.14.28,1.6c.18.46.46.82.82,1.07s.81.39,1.35.39Z"/>
    <path class="cls-1" d="m144.75,98.96c-.77,0-1.45-.22-2.03-.63-.58-.41-1.04-.98-1.36-1.7-.33-.72-.49-1.56-.49-2.5s.17-1.76.51-2.47c.34-.71.81-1.27,1.41-1.68.6-.4,1.28-.61,2.04-.61.54,0,1.02.1,1.43.3s.76.49,1.05.85c.29.36.53.78.72,1.26h.63l.36,2.32,1.18,4.66h-1.55l-1.11-4.66c-.06-.3-.15-.63-.27-1-.12-.37-.28-.72-.48-1.05s-.45-.61-.75-.83c-.3-.22-.66-.33-1.08-.33-.46,0-.87.14-1.22.41-.35.28-.62.66-.81,1.14-.19.49-.29,1.05-.29,1.68s.09,1.18.28,1.67c.19.5.45.88.78,1.17.33.28.72.43,1.17.43.41,0,.76-.11,1.07-.33.31-.22.57-.5.78-.84.21-.34.39-.7.52-1.07.13-.37.23-.71.3-1l1-4.66h1.54l-1.06,4.66-.36,2.35h-.57c-.19.48-.44.9-.75,1.28-.3.37-.67.66-1.1.87-.43.21-.93.31-1.49.31Z"/>
    <path class="cls-1" d="m157.3,92.83v-1.59h7.73v1.59h-7.73Zm0,3.72v-1.59h7.73v1.59h-7.73Z"/>
    <path class="cls-1" d="m128.36,138.95c-.9,0-1.67-.2-2.32-.61-.65-.41-1.14-.97-1.49-1.69-.35-.72-.52-1.54-.52-2.47s.18-1.77.53-2.5c.35-.72.85-1.29,1.5-1.69.64-.41,1.4-.61,2.28-.61.7,0,1.33.13,1.88.39.55.26,1,.62,1.34,1.09.34.47.54,1.01.61,1.64h-1.76c-.1-.43-.32-.81-.66-1.12-.34-.31-.8-.47-1.38-.47-.5,0-.94.13-1.32.4-.38.26-.67.64-.88,1.12-.21.48-.31,1.06-.31,1.72s.1,1.26.31,1.75.5.87.87,1.14c.38.27.82.41,1.33.41.34,0,.65-.06.93-.19.28-.13.51-.31.71-.55.19-.24.33-.52.4-.86h1.76c-.06.6-.26,1.13-.59,1.61s-.76.84-1.31,1.11c-.55.27-1.18.41-1.92.41Z"/>
    <path class="cls-1" d="m138.44,129.49v1.45h-5.07v-1.45h5.07Zm-3.71-2.22h1.81v8.77c0,.35.05.61.16.79.1.17.24.29.41.36.17.06.35.09.55.09.14,0,.27,0,.38-.03.11-.02.19-.04.25-.05l.33,1.49c-.1.04-.25.08-.45.12-.19.04-.44.06-.72.07-.48,0-.92-.08-1.33-.25-.41-.18-.74-.45-1-.82-.25-.37-.38-.83-.38-1.39v-9.15Z"/>
    <path class="cls-1" d="m144.32,142.43c-.74,0-1.37-.1-1.9-.29s-.96-.45-1.29-.77c-.33-.32-.58-.67-.75-1.04l1.55-.64c.11.18.25.37.44.56.18.2.43.37.75.51.32.14.72.21,1.22.21.68,0,1.25-.17,1.7-.5.45-.33.67-.86.67-1.58v-1.82h-.11c-.11.2-.26.42-.47.66s-.48.45-.84.63c-.35.18-.82.27-1.38.27-.73,0-1.39-.17-1.98-.52-.59-.34-1.05-.85-1.39-1.53-.34-.67-.51-1.5-.51-2.49s.17-1.83.5-2.54c.34-.7.8-1.25,1.38-1.62.59-.38,1.25-.56,2-.56.58,0,1.04.1,1.39.29.35.19.63.41.83.67.2.25.35.48.46.67h.13v-1.5h1.77v9.48c0,.8-.19,1.45-.56,1.96-.37.51-.87.89-1.5,1.13-.63.25-1.34.37-2.13.37Zm-.02-5.31c.52,0,.96-.12,1.32-.37.36-.24.63-.59.82-1.05.19-.46.28-1,.28-1.64s-.09-1.17-.28-1.65c-.19-.47-.46-.85-.82-1.11s-.8-.4-1.33-.4-1,.14-1.36.42-.63.66-.82,1.14c-.18.48-.28,1.01-.28,1.61s.09,1.14.28,1.6c.18.46.46.82.82,1.07s.81.39,1.35.39Z"/>
    <path class="cls-1" d="m154.4,138.96c-.77,0-1.45-.22-2.03-.63-.58-.41-1.04-.98-1.36-1.7-.33-.72-.49-1.56-.49-2.5s.17-1.76.51-2.47c.34-.71.81-1.27,1.41-1.68.6-.4,1.28-.61,2.04-.61.54,0,1.02.1,1.43.3s.76.49,1.05.85c.29.36.53.78.72,1.26h.63l.36,2.32,1.18,4.66h-1.55l-1.11-4.66c-.06-.3-.15-.63-.27-1-.12-.37-.28-.72-.48-1.05s-.45-.61-.75-.83c-.3-.22-.66-.33-1.08-.33-.46,0-.87.14-1.22.41-.35.28-.62.66-.81,1.14-.19.49-.29,1.05-.29,1.68s.09,1.18.28,1.67c.19.5.45.88.78,1.17.33.28.72.43,1.17.43.41,0,.76-.11,1.07-.33.31-.22.57-.5.78-.84.21-.34.39-.7.52-1.07.13-.37.23-.71.3-1l1-4.66h1.54l-1.06,4.66-.36,2.35h-.57c-.19.48-.44.9-.75,1.28-.3.37-.67.66-1.1.87-.43.21-.93.31-1.49.31Z"/>
    <path class="cls-1" d="m166.95,132.83v-1.59h7.73v1.59h-7.73Zm0,3.72v-1.59h7.73v1.59h-7.73Z"/>
  </g>
  <g>
    <path class="cls-1" d="m183.5,9.82c-.59,0-1.12-.11-1.59-.33-.48-.22-.85-.54-1.13-.96-.28-.42-.41-.93-.41-1.54,0-.52.1-.95.3-1.29.2-.34.47-.61.81-.8s.72-.35,1.15-.45c.42-.1.85-.18,1.29-.23.55-.06,1.01-.12,1.35-.16.35-.04.6-.11.75-.21.16-.1.24-.25.24-.47v-.04c0-.53-.15-.94-.44-1.23s-.74-.43-1.32-.43-1.09.13-1.43.4c-.35.27-.59.56-.72.89l-1.7-.39c.2-.56.5-1.02.88-1.37.39-.35.84-.6,1.34-.76.51-.16,1.04-.24,1.6-.24.37,0,.76.04,1.18.13.42.09.81.24,1.17.47s.66.56.9.98.35.97.35,1.65v6.16h-1.76v-1.27h-.07c-.12.23-.29.46-.52.69-.23.22-.53.41-.9.56-.37.15-.8.22-1.32.22Zm.39-1.45c.5,0,.93-.1,1.28-.3.36-.2.63-.46.82-.78.19-.32.28-.66.28-1.03v-1.2c-.06.06-.19.12-.37.18-.18.05-.39.1-.62.14s-.46.07-.68.1c-.22.03-.41.06-.56.08-.35.04-.67.12-.96.22s-.52.25-.69.45c-.17.2-.26.45-.26.78,0,.45.17.78.5,1.01s.75.34,1.26.34Z"/>
    <path class="cls-1" d="m184.71,26.81c-.9,0-1.67-.2-2.32-.61-.65-.41-1.14-.97-1.49-1.69-.35-.72-.52-1.54-.52-2.47s.18-1.77.53-2.5c.35-.72.85-1.29,1.5-1.69.64-.41,1.4-.61,2.28-.61.7,0,1.33.13,1.88.39.55.26,1,.62,1.34,1.09.34.47.54,1.01.61,1.64h-1.76c-.1-.43-.32-.81-.66-1.12-.34-.31-.8-.47-1.38-.47-.5,0-.94.13-1.32.4-.38.26-.67.64-.88,1.12-.21.48-.31,1.06-.31,1.72s.1,1.26.31,1.75.5.87.87,1.14c.38.27.82.41,1.33.41.34,0,.65-.06.93-.19.28-.13.51-.31.71-.55.19-.24.33-.52.4-.86h1.76c-.06.6-.26,1.13-.59,1.61s-.76.84-1.31,1.11c-.55.27-1.18.41-1.92.41Z"/>
  </g>
  <rect class="cls-1" x="176.43" y="12.75" width="16" height="1.5"/>
  <g>
    <path class="cls-1" d="m185.95,49.62v-12.36h1.8v4.59h.11c.1-.19.25-.42.45-.67.2-.25.47-.48.82-.67.35-.19.81-.29,1.39-.29.75,0,1.42.19,2,.57.59.38,1.05.92,1.39,1.64.34.71.5,1.57.5,2.57s-.17,1.86-.5,2.57c-.33.71-.79,1.26-1.38,1.65-.58.38-1.25.58-2,.58-.56,0-1.02-.09-1.38-.28-.36-.19-.63-.41-.84-.66-.2-.25-.36-.48-.46-.68h-.15v1.44h-1.76Zm1.77-4.64c0,.65.09,1.22.28,1.71.19.49.46.87.82,1.15.36.28.8.41,1.32.41s.99-.14,1.35-.43.64-.68.82-1.17c.19-.5.28-1.05.28-1.67s-.09-1.16-.27-1.65c-.18-.49-.46-.87-.82-1.15-.36-.28-.82-.42-1.36-.42s-.96.13-1.33.4c-.36.27-.63.65-.82,1.13-.19.48-.28,1.05-.28,1.69Z"/>
    <path class="cls-1" d="m189.71,66.81c-.9,0-1.67-.2-2.32-.61-.65-.41-1.14-.97-1.49-1.69-.35-.72-.52-1.54-.52-2.47s.18-1.77.53-2.5c.35-.72.85-1.29,1.5-1.69.64-.41,1.4-.61,2.28-.61.7,0,1.33.13,1.88.39.55.26,1,.62,1.34,1.09.34.47.54,1.01.61,1.64h-1.76c-.1-.43-.32-.81-.66-1.12-.34-.31-.8-.47-1.38-.47-.5,0-.94.13-1.32.4-.38.26-.67.64-.88,1.12-.21.48-.31,1.06-.31,1.72s.1,1.26.31,1.75.5.87.87,1.14c.38.27.82.41,1.33.41.34,0,.65-.06.93-.19.28-.13.51-.31.71-.55.19-.24.33-.52.4-.86h1.76c-.06.6-.26,1.13-.59,1.61s-.76.84-1.31,1.11c-.55.27-1.18.41-1.92.41Z"/>
  </g>
  <rect class="cls-1" x="181.43" y="52.75" width="16" height="1.5"/>
  <g>
    <path class="cls-1" d="m176.5,89.82c-.59,0-1.12-.11-1.59-.33-.48-.22-.85-.54-1.13-.96-.28-.42-.41-.93-.41-1.54,0-.52.1-.95.3-1.29.2-.34.47-.61.81-.8s.72-.35,1.15-.45c.42-.1.85-.18,1.29-.23.55-.06,1.01-.12,1.35-.16.35-.04.6-.11.75-.21.16-.1.24-.25.24-.47v-.04c0-.53-.15-.94-.44-1.23s-.74-.43-1.32-.43-1.09.13-1.43.4c-.35.27-.59.56-.72.89l-1.7-.39c.2-.56.5-1.02.88-1.37.39-.35.84-.6,1.34-.76.51-.16,1.04-.24,1.6-.24.37,0,.76.04,1.18.13.42.09.81.24,1.17.47s.66.56.9.98.35.97.35,1.65v6.16h-1.76v-1.27h-.07c-.12.23-.29.46-.52.69-.23.22-.53.41-.9.56-.37.15-.8.22-1.32.22Zm.39-1.45c.5,0,.93-.1,1.28-.3.36-.2.63-.46.82-.78.19-.32.28-.66.28-1.03v-1.2c-.06.06-.19.12-.37.18-.18.05-.39.1-.62.14s-.46.07-.68.1c-.22.03-.41.06-.56.08-.35.04-.67.12-.96.22s-.52.25-.69.45c-.17.2-.26.45-.26.78,0,.45.17.78.5,1.01s.75.34,1.26.34Z"/>
    <path class="cls-1" d="m173.95,106.62v-12.36h1.8v4.59h.11c.1-.19.25-.42.45-.67.2-.25.47-.48.82-.67.35-.19.81-.29,1.39-.29.75,0,1.42.19,2,.57.59.38,1.05.92,1.39,1.64.34.71.5,1.57.5,2.57s-.17,1.86-.5,2.57c-.33.71-.79,1.26-1.38,1.65-.58.38-1.25.58-2,.58-.56,0-1.02-.09-1.38-.28-.36-.19-.63-.41-.84-.66-.2-.25-.36-.48-.46-.68h-.15v1.44h-1.76Zm1.77-4.64c0,.65.09,1.22.28,1.71.19.49.46.87.82,1.15.36.28.8.41,1.32.41s.99-.14,1.35-.43.64-.68.82-1.17c.19-.5.28-1.05.28-1.67s-.09-1.16-.27-1.65c-.18-.49-.46-.87-.82-1.15-.36-.28-.82-.42-1.36-.42s-.96.13-1.33.4c-.36.27-.63.65-.82,1.13-.19.48-.28,1.05-.28,1.69Z"/>
  </g>
  <rect class="cls-1" x="169.43" y="92.75" width="16" height="1.5"/>
  <g>
    <path class="cls-1" d="m184.95,129.62v-12.36h1.8v4.59h.11c.1-.19.25-.42.45-.67.2-.25.47-.48.82-.67.35-.19.81-.29,1.39-.29.75,0,1.42.19,2,.57.59.38,1.05.92,1.39,1.64.34.71.5,1.57.5,2.57s-.17,1.86-.5,2.57c-.33.71-.79,1.26-1.38,1.65-.58.38-1.25.58-2,.58-.56,0-1.02-.09-1.38-.28-.36-.19-.63-.41-.84-.66-.2-.25-.36-.48-.46-.68h-.15v1.44h-1.76Zm1.77-4.64c0,.65.09,1.22.28,1.71.19.49.46.87.82,1.15.36.28.8.41,1.32.41s.99-.14,1.35-.43.64-.68.82-1.17c.19-.5.28-1.05.28-1.67s-.09-1.16-.27-1.65c-.18-.49-.46-.87-.82-1.15-.36-.28-.82-.42-1.36-.42s-.96.13-1.33.4c-.36.27-.63.65-.82,1.13-.19.48-.28,1.05-.28,1.69Z"/>
    <path class="cls-1" d="m187.5,146.82c-.59,0-1.12-.11-1.59-.33-.48-.22-.85-.54-1.13-.96-.28-.42-.41-.93-.41-1.54,0-.52.1-.95.3-1.29.2-.34.47-.61.81-.8s.72-.35,1.15-.45c.42-.1.85-.18,1.29-.23.55-.06,1.01-.12,1.35-.16.35-.04.6-.11.75-.21.16-.1.24-.25.24-.47v-.04c0-.53-.15-.94-.44-1.23s-.74-.43-1.32-.43-1.09.13-1.43.4c-.35.27-.59.56-.72.89l-1.7-.39c.2-.56.5-1.02.88-1.37.39-.35.84-.6,1.34-.76.51-.16,1.04-.24,1.6-.24.37,0,.76.04,1.18.13.42.09.81.24,1.17.47s.66.56.9.98.35.97.35,1.65v6.16h-1.76v-1.27h-.07c-.12.23-.29.46-.52.69-.23.22-.53.41-.9.56-.37.15-.8.22-1.32.22Zm.39-1.45c.5,0,.93-.1,1.28-.3.36-.2.63-.46.82-.78.19-.32.28-.66.28-1.03v-1.2c-.06.06-.19.12-.37.18-.18.05-.39.1-.62.14s-.46.07-.68.1c-.22.03-.41.06-.56.08-.35.04-.67.12-.96.22s-.52.25-.69.45c-.17.2-.26.45-.26.78,0,.45.17.78.5,1.01s.75.34,1.26.34Z"/>
  </g>
  <rect class="cls-1" x="180.43" y="132.75" width="16" height="1.5"/>
  <path class="cls-1" d="m49.77,155.38c-.59,0-1.12-.11-1.59-.33-.48-.22-.85-.54-1.13-.96-.28-.42-.41-.93-.41-1.54,0-.52.1-.95.3-1.29s.47-.61.81-.8c.34-.2.72-.35,1.15-.45.42-.1.85-.18,1.29-.23.56-.06,1.01-.12,1.35-.16.35-.04.6-.11.75-.21.16-.1.24-.25.24-.47v-.04c0-.53-.15-.94-.44-1.23-.3-.29-.74-.43-1.32-.43s-1.09.13-1.43.4c-.35.27-.59.56-.72.89l-1.7-.39c.2-.56.5-1.02.88-1.37.39-.35.84-.6,1.34-.76.51-.16,1.04-.24,1.6-.24.37,0,.76.04,1.18.13s.81.24,1.17.47.66.56.9.98.35.97.35,1.65v6.16h-1.76v-1.27h-.07c-.12.23-.29.46-.53.69-.23.22-.53.41-.9.56-.37.15-.81.22-1.32.22Zm.39-1.45c.5,0,.93-.1,1.28-.3.36-.2.63-.46.81-.78.19-.32.28-.66.28-1.03v-1.2c-.06.06-.19.12-.37.18-.18.05-.39.1-.62.14-.23.04-.46.07-.68.1-.22.03-.41.06-.56.08-.35.04-.67.12-.96.22-.29.1-.52.25-.69.45-.17.2-.26.45-.26.78,0,.45.17.78.5,1.01s.75.34,1.26.34Z"/>
  <path class="cls-1" d="m1.14,87.63v-12.36h1.81v4.59h.11c.1-.19.26-.42.45-.67.2-.25.47-.48.82-.67s.81-.29,1.39-.29c.75,0,1.42.19,2,.57.59.38,1.05.92,1.39,1.64.34.71.5,1.57.5,2.57s-.17,1.86-.5,2.57c-.33.71-.79,1.26-1.38,1.65-.58.38-1.25.58-2,.58-.56,0-1.02-.09-1.38-.28-.36-.19-.63-.41-.84-.66s-.36-.48-.46-.68h-.15v1.44h-1.76Zm1.77-4.64c0,.65.09,1.22.28,1.71.19.49.46.87.82,1.15.36.28.8.41,1.32.41s.99-.14,1.35-.43c.36-.29.64-.68.82-1.17.19-.5.28-1.05.28-1.67s-.09-1.16-.27-1.65c-.18-.49-.46-.87-.82-1.15-.36-.28-.82-.42-1.36-.42s-.96.13-1.33.4c-.36.27-.63.65-.82,1.13-.19.48-.28,1.05-.28,1.69Z"/>
  <path class="cls-1" d="m69.28,75.41c-.9,0-1.67-.2-2.31-.61-.65-.41-1.14-.97-1.49-1.69-.35-.72-.52-1.54-.52-2.47s.18-1.77.53-2.5c.35-.72.85-1.29,1.5-1.69.64-.41,1.4-.61,2.28-.61.7,0,1.33.13,1.88.39.55.26,1,.62,1.34,1.09.34.47.54,1.01.61,1.64h-1.76c-.1-.43-.32-.81-.66-1.12-.34-.31-.8-.47-1.38-.47-.5,0-.94.13-1.32.4-.38.26-.67.64-.88,1.12-.21.48-.31,1.06-.31,1.72s.1,1.26.31,1.75c.21.49.5.87.87,1.14.38.27.82.41,1.33.41.34,0,.65-.06.93-.19s.52-.31.71-.55c.19-.24.32-.52.4-.86h1.76c-.06.6-.26,1.13-.59,1.61-.33.47-.76.84-1.31,1.11-.55.27-1.18.41-1.92.41Z"/>
  <path class="cls-2" d="m16.55,21.43c3.95.57,6.67-2.24,6.67-2.24"/>
  <path class="cls-1" d="m24.14,42.84c-.77,0-1.45-.22-2.03-.63s-1.04-.98-1.36-1.7c-.33-.72-.49-1.56-.49-2.5s.17-1.76.51-2.47c.34-.71.81-1.27,1.41-1.68.6-.4,1.28-.61,2.04-.61.54,0,1.02.1,1.43.3s.76.49,1.05.85c.29.36.53.78.72,1.26h.63l.36,2.32,1.18,4.66h-1.55l-1.11-4.66c-.06-.3-.15-.63-.27-1s-.28-.72-.48-1.05-.45-.61-.75-.83c-.3-.22-.66-.33-1.08-.33-.46,0-.87.14-1.22.41-.35.28-.62.66-.82,1.14-.19.49-.29,1.05-.29,1.68s.09,1.18.28,1.67.45.88.78,1.17c.33.28.72.43,1.17.43.41,0,.76-.11,1.07-.33.31-.22.57-.5.78-.84.21-.34.39-.7.52-1.07.13-.37.23-.71.3-1l1-4.66h1.54l-1.06,4.66-.36,2.35h-.57c-.19.48-.44.9-.75,1.28-.3.37-.67.66-1.1.87-.43.21-.93.31-1.49.31Z"/>
  <polyline class="cls-2" points="16.5 130 24.5 130 24.5 139"/>
</svg>