<?xml version="1.0" encoding="UTF-8"?>
<svg id="Layer_1" data-name="Layer 1" xmlns="http://www.w3.org/2000/svg" viewBox="0 0 91.21 97.11">
  <defs>
    <style>
      .cls-1 {
        fill: #fff;
      }

      .cls-2 {
        fill: #d1ae59;
      }

      .cls-3 {
        stroke: #d1ae59;
      }

      .cls-3, .cls-4 {
        fill: none;
        stroke-miterlimit: 10;
        stroke-width: 2px;
      }

      .cls-4 {
        stroke: #c75c5c;
      }
    </style>
  </defs>
  <line class="cls-3" x1="45.44" y1="47.95" x2="81.06" y2="21.61"/>
  <line class="cls-4" x1="57.32" y1="39.16" x2="45.44" y2="47.95"/>
  <circle class="cls-3" cx="45.44" cy="47.95" r="44.31"/>
  <circle class="cls-3" cx="57.4" cy="39.16" r="28.87"/>
  <path class="cls-1" d="m43.14,44.18c0,.93-.17,1.73-.51,2.4s-.81,1.18-1.4,1.54c-.59.36-1.27.54-2.02.54s-1.43-.18-2.02-.54c-.59-.36-1.06-.87-1.4-1.54-.34-.67-.51-1.47-.51-2.4s.17-1.73.51-2.4c.34-.67.81-1.18,1.4-1.54.59-.36,1.27-.54,2.02-.54s1.43.18,2.02.54c.59.36,1.06.87,1.4,1.54.34.67.51,1.47.51,2.4Zm-1.3,0c0-.71-.11-1.31-.34-1.8s-.54-.86-.94-1.11c-.4-.25-.84-.38-1.34-.38s-.95.13-1.35.38c-.4.25-.71.62-.94,1.11s-.34,1.09-.34,1.8.12,1.31.34,1.8.54.86.94,1.11c.39.25.84.38,1.35.38s.95-.12,1.34-.38c.4-.25.71-.62.94-1.11s.34-1.09.34-1.8Z"/>
  <circle class="cls-2" cx="45.44" cy="47.95" r="1.96"/>
  <path class="cls-1" d="m54.29,53c-.53,0-1-.14-1.41-.41-.41-.27-.74-.66-.97-1.16s-.35-1.11-.35-1.82.12-1.31.36-1.82.56-.89.98-1.16c.41-.27.88-.4,1.41-.4.41,0,.73.07.98.2.25.14.44.29.58.47.14.18.25.34.32.47h.08v-3.24h1.27v8.73h-1.24v-1.02h-.11c-.08.14-.19.3-.33.48-.14.18-.34.33-.59.47s-.57.2-.97.2Zm.28-1.09c.37,0,.68-.1.93-.29.25-.19.45-.46.58-.81s.2-.75.2-1.21-.07-.85-.2-1.19-.32-.61-.58-.8-.57-.29-.94-.29-.7.1-.96.3c-.25.2-.45.47-.58.81-.13.34-.19.73-.19,1.16s.06.83.2,1.18c.13.35.33.63.58.83s.57.3.95.3Z"/>
  <path class="cls-1" d="m56.27,29.13c0,.93-.17,1.73-.51,2.4s-.81,1.18-1.4,1.54c-.59.36-1.27.54-2.02.54s-1.43-.18-2.02-.54c-.59-.36-1.06-.87-1.4-1.54-.34-.67-.51-1.47-.51-2.4s.17-1.73.51-2.4c.34-.67.81-1.18,1.4-1.54.59-.36,1.27-.54,2.02-.54s1.43.18,2.02.54c.59.36,1.06.87,1.4,1.54s.51,1.47.51,2.4Zm-1.3,0c0-.71-.11-1.31-.34-1.8s-.54-.86-.94-1.11c-.4-.25-.84-.38-1.34-.38s-.95.13-1.35.38c-.4.25-.71.62-.94,1.11s-.34,1.09-.34,1.8.12,1.31.34,1.8.54.86.94,1.11c.39.25.84.38,1.35.38s.95-.13,1.34-.38c.4-.25.71-.62.94-1.11s.34-1.09.34-1.8Z"/>
  <circle class="cls-2" cx="57.38" cy="39.16" r="1.96"/>
  <line class="cls-3" x1="57.38" y1="39.16" x2="85.89" y2="43.84"/>
  <path class="cls-1" d="m73.97,38.29v-6.55h1.23v1.04h.07c.12-.35.33-.63.63-.83s.65-.3,1.03-.3c.08,0,.17,0,.28,0s.2.01.26.02v1.22c-.05-.01-.14-.03-.27-.05-.13-.02-.26-.03-.39-.03-.3,0-.57.06-.8.19-.23.13-.42.3-.56.52-.14.22-.2.48-.2.76v4h-1.27Z"/>
  <path class="cls-1" d="m59.41,28.15v6.55h-.99v-5.55h-.04l-1.57,1.02v-.95l1.63-1.07h.96Z"/>
</svg>