<?xml version="1.0" encoding="UTF-8"?>
<svg id="Layer_1" data-name="Layer 1" xmlns="http://www.w3.org/2000/svg" viewBox="0 0 148.02 97.11">
  <defs>
    <style>
      .cls-1 {
        fill: #fff;
      }

      .cls-2 {
        stroke: #c75c5c;
        stroke-dasharray: 0 0 4 3;
      }

      .cls-2, .cls-3 {
        fill: none;
        stroke-miterlimit: 10;
      }

      .cls-4 {
        fill: #d1ae59;
      }

      .cls-3 {
        stroke: #d1ae59;
        stroke-width: 2px;
      }
    </style>
  </defs>
  <line class="cls-3" x1="102.24" y1="48.95" x2="58.36" y2="42.81"/>
  <line class="cls-3" x1="30.07" y1="38.08" x2="58.58" y2="42.76"/>
  <line class="cls-2" x1="30.07" y1="38.08" x2="102.24" y2="48.95"/>
  <circle class="cls-3" cx="102.24" cy="48.95" r="44.31"/>
  <circle class="cls-3" cx="30.09" cy="38.08" r="28.87"/>
  <path class="cls-1" d="m101.61,39.85c0,.93-.17,1.73-.51,2.4s-.81,1.18-1.4,1.54c-.59.36-1.27.54-2.02.54s-1.43-.18-2.02-.54c-.59-.36-1.06-.87-1.4-1.54-.34-.67-.51-1.47-.51-2.4s.17-1.73.51-2.4c.34-.67.81-1.18,1.4-1.54.59-.36,1.27-.54,2.02-.54s1.43.18,2.02.54c.59.36,1.06.87,1.4,1.54s.51,1.47.51,2.4Zm-1.3,0c0-.71-.11-1.31-.34-1.8s-.54-.86-.94-1.11c-.4-.25-.84-.38-1.34-.38s-.95.13-1.35.38c-.4.25-.71.62-.94,1.11s-.34,1.09-.34,1.8.12,1.31.34,1.8.54.86.94,1.11c.39.25.84.38,1.35.38s.95-.13,1.34-.38c.4-.25.71-.62.94-1.11s.34-1.09.34-1.8Z"/>
  <circle class="cls-4" cx="102.24" cy="48.95" r="1.96"/>
  <path class="cls-1" d="m74.35,40.42v-8.73h3.11c.68,0,1.24.12,1.69.35.45.23.78.55,1,.96.22.41.33.88.33,1.42s-.11,1-.33,1.41c-.22.4-.56.72-1.01.94-.45.22-1.01.34-1.69.34h-2.36v-1.13h2.24c.43,0,.77-.06,1.04-.18s.46-.3.59-.53c.12-.23.19-.51.19-.84s-.06-.62-.19-.86c-.13-.24-.32-.43-.59-.56-.27-.13-.62-.19-1.05-.19h-1.65v7.6h-1.32Zm4.31-3.94l2.16,3.94h-1.5l-2.11-3.94h1.46Z"/>
  <path class="cls-1" d="m28.62,29.56c0,.93-.17,1.73-.51,2.4s-.81,1.18-1.4,1.54c-.59.36-1.27.54-2.02.54s-1.43-.18-2.02-.54c-.59-.36-1.06-.87-1.4-1.54-.34-.67-.51-1.47-.51-2.4s.17-1.73.51-2.4c.34-.67.81-1.18,1.4-1.54.59-.36,1.27-.54,2.02-.54s1.43.18,2.02.54c.59.36,1.06.87,1.4,1.54.34.67.51,1.47.51,2.4Zm-1.3,0c0-.71-.11-1.31-.34-1.8s-.54-.86-.94-1.11c-.4-.25-.84-.38-1.34-.38s-.95.13-1.35.38c-.4.25-.71.62-.94,1.11s-.34,1.09-.34,1.8.12,1.31.34,1.8.54.86.94,1.11c.39.25.84.38,1.35.38s.95-.12,1.34-.38c.4-.25.71-.62.94-1.11s.34-1.09.34-1.8Z"/>
  <circle class="cls-4" cx="30.07" cy="38.08" r="1.96"/>
  <circle class="cls-4" cx="58.38" cy="42.73" r="1.96"/>
  <path class="cls-1" d="m46.77,37.05v-6.55h1.23v1.04h.07c.12-.35.33-.63.63-.83s.65-.3,1.03-.3c.08,0,.17,0,.28,0s.2.01.26.02v1.22c-.05-.01-.14-.03-.27-.05-.13-.02-.26-.03-.39-.03-.3,0-.57.06-.8.19-.23.13-.42.3-.56.52-.14.22-.2.48-.2.76v4h-1.27Z"/>
  <path class="cls-1" d="m32.1,28.98v6.55h-.99v-5.55h-.04l-1.57,1.02v-.95l1.63-1.07h.96Z"/>
</svg>