<?xml version="1.0" encoding="UTF-8"?>
<svg id="Layer_1" data-name="Layer 1" xmlns="http://www.w3.org/2000/svg" viewBox="0 0 156.67 117">
  <defs>
    <style>
      .cls-1 {
        fill: #fff;
      }

      .cls-2, .cls-3 {
        stroke-linejoin: round;
      }

      .cls-2, .cls-3, .cls-4, .cls-5 {
        stroke: #d1ae59;
        stroke-width: 2px;
      }

      .cls-2, .cls-4 {
        fill: #d1ae59;
        opacity: .3;
      }

      .cls-3, .cls-5 {
        fill: none;
      }

      .cls-4, .cls-5 {
        stroke-miterlimit: 10;
      }
    </style>
  </defs>
  <polyline class="cls-2" points="1.45 114.64 17.03 45.69 73.5 1.3 57.92 70.26"/>
  <polygon class="cls-2" points="99.08 115.99 1.45 114.64 57.92 70.26 155.55 71.61 99.08 115.99"/>
  <path class="cls-1" d="m91.83,111.27c-.77,0-1.45-.22-2.03-.63-.58-.41-1.04-.98-1.36-1.7-.33-.72-.49-1.56-.49-2.51s.17-1.76.51-2.48.81-1.27,1.41-1.68c.6-.4,1.28-.61,2.04-.61.54,0,1.02.1,1.43.3s.76.49,1.05.85c.29.36.53.78.72,1.26h.63l.36,2.32,1.18,4.67h-1.55l-1.11-4.67c-.06-.3-.15-.63-.27-1s-.28-.72-.48-1.05-.45-.61-.75-.83-.66-.33-1.08-.33c-.46,0-.87.14-1.22.41-.35.28-.62.66-.81,1.14-.19.49-.29,1.05-.29,1.68s.09,1.18.28,1.67c.19.5.45.88.78,1.17.33.28.72.43,1.17.43.41,0,.76-.11,1.07-.33s.57-.5.78-.84c.21-.34.39-.7.52-1.07.13-.37.23-.71.3-1l1-4.67h1.54l-1.06,4.67-.36,2.35h-.57c-.19.48-.44.9-.75,1.28-.3.37-.67.66-1.1.87s-.93.31-1.49.31Z"/>
  <path class="cls-1" d="m52.34,33.45h-1.42l3.19-8.87h1.55l3.19,8.87h-1.42l-2.51-7.26h-.07l-2.51,7.26Zm.24-3.47h4.61v1.13h-4.61v-1.13Z"/>
  <path class="cls-1" d="m29.18,84.63v-8.87h3.25c.63,0,1.15.1,1.56.31.41.21.72.49.93.84s.31.75.31,1.18c0,.37-.07.68-.2.93-.14.25-.32.46-.54.61-.23.15-.48.26-.75.33v.09c.29.01.58.11.86.28.28.17.51.42.7.74.18.32.28.71.28,1.17s-.11.86-.32,1.22c-.21.36-.54.64-.98.85-.44.21-1.01.31-1.69.31h-3.4Zm1.34-5.03h1.79c.3,0,.57-.06.81-.17.24-.12.43-.28.58-.49.14-.21.21-.46.21-.74,0-.37-.13-.67-.39-.92-.26-.25-.65-.37-1.18-.37h-1.83v2.7Zm0,3.88h1.93c.64,0,1.1-.12,1.38-.37.28-.25.42-.56.42-.93,0-.28-.07-.54-.21-.77-.14-.23-.34-.42-.6-.56-.26-.14-.57-.21-.93-.21h-1.98v2.84Z"/>
  <path class="cls-1" d="m108.77,85.84h-1.35c-.05-.29-.15-.54-.29-.76-.14-.22-.31-.41-.52-.56-.21-.15-.43-.27-.69-.35-.25-.08-.52-.12-.8-.12-.51,0-.97.13-1.37.39-.4.26-.72.63-.95,1.13-.23.5-.35,1.1-.35,1.82s.12,1.33.35,1.83c.23.5.55.87.95,1.13.4.25.86.38,1.36.38.28,0,.55-.04.8-.12.25-.08.48-.19.69-.34s.38-.33.52-.55c.14-.22.24-.47.3-.75h1.35c-.07.44-.21.84-.42,1.21-.21.37-.47.68-.79.94-.32.26-.69.47-1.1.61-.41.14-.86.22-1.35.22-.77,0-1.45-.18-2.05-.55s-1.07-.89-1.42-1.57c-.34-.68-.52-1.49-.52-2.44s.17-1.76.52-2.44.82-1.2,1.42-1.57,1.28-.55,2.05-.55c.47,0,.91.07,1.32.2.41.13.78.33,1.1.59s.6.57.81.94c.21.37.36.79.43,1.27Z"/>
  <polyline class="cls-5" points="95.7 89.4 38.55 85.48 48.59 29.22"/>
  <polyline class="cls-5" points="44.52 85.89 40.33 90.5 33.73 89.27"/>
  <polyline class="cls-5" points="40.17 76.43 45.74 73.7 44.52 80.79"/>
  <path class="cls-4" d="m42.52,63.24c14.46,8.24,16.39,23.64,16.39,23.64l-20.36-1.4,3.97-22.24Z"/>
  <polygon class="cls-3" points="99.08 115.99 1.45 114.64 57.92 70.26 155.55 71.61 99.08 115.99"/>
  <polyline class="cls-3" points="1.45 114.64 17.03 45.69 73.5 1.3 57.92 70.26"/>
  <path class="cls-5" d="m42.52,63.24c14.46,8.24,16.39,23.64,16.39,23.64l-20.36-1.4,3.97-22.24Z"/>
  <path class="cls-1" d="m13.26,97.74c-.42,0-.8-.08-1.14-.24s-.61-.39-.81-.69c-.2-.3-.3-.67-.3-1.1,0-.38.07-.68.22-.93.14-.24.34-.43.58-.58.25-.14.52-.25.82-.32.3-.07.61-.13.93-.16.4-.05.72-.08.97-.12.25-.03.43-.08.54-.15.11-.07.17-.18.17-.34v-.03c0-.38-.11-.67-.32-.88-.21-.21-.53-.31-.95-.31s-.78.1-1.03.29c-.25.19-.42.4-.52.64l-1.22-.28c.14-.4.36-.73.63-.98.28-.25.6-.43.96-.55.36-.11.75-.17,1.15-.17.27,0,.55.03.85.09s.58.18.84.34c.26.17.48.4.64.7.17.3.25.7.25,1.18v4.42h-1.26v-.91h-.05c-.08.17-.21.33-.38.49-.17.16-.38.3-.65.4-.26.11-.58.16-.94.16Zm.28-1.04c.36,0,.67-.07.92-.21.26-.14.45-.33.58-.56.13-.23.2-.48.2-.74v-.86s-.13.09-.27.13c-.13.04-.28.07-.45.1-.17.03-.33.05-.49.07-.16.02-.29.04-.4.05-.25.03-.48.08-.69.16-.21.08-.37.18-.49.32-.12.14-.18.33-.18.56,0,.32.12.56.36.73s.54.24.91.24Z"/>
</svg>