<?xml version="1.0" encoding="UTF-8"?>
<svg id="Layer_1" data-name="Layer 1" xmlns="http://www.w3.org/2000/svg" viewBox="0 0 96.88 97.11">
  <defs>
    <style>
      .cls-1 {
        fill: #fff;
      }

      .cls-2 {
        fill: #d1ae59;
      }

      .cls-3 {
        stroke: #d1ae59;
      }

      .cls-3, .cls-4 {
        fill: none;
        stroke-miterlimit: 10;
        stroke-width: 2px;
      }

      .cls-4 {
        stroke: #c75c5c;
      }
    </style>
  </defs>
  <line class="cls-4" x1="57.38" y1="38.16" x2="48.25" y2="48.78"/>
  <circle class="cls-3" cx="48.25" cy="48.78" r="47.12"/>
  <circle class="cls-3" cx="57.4" cy="38.16" r="28.87"/>
  <path class="cls-1" d="m43.09,50.59c0,.93-.17,1.73-.51,2.4-.34.67-.81,1.18-1.4,1.54-.59.36-1.27.54-2.02.54s-1.43-.18-2.02-.54c-.59-.36-1.06-.87-1.4-1.54-.34-.67-.51-1.47-.51-2.4s.17-1.73.51-2.4c.34-.67.81-1.18,1.4-1.54.59-.36,1.27-.54,2.02-.54s1.43.18,2.02.54c.59.36,1.06.87,1.4,1.54.34.67.51,1.47.51,2.4Zm-1.3,0c0-.71-.11-1.31-.34-1.8-.23-.49-.54-.86-.94-1.11s-.84-.38-1.34-.38-.95.12-1.35.38c-.4.25-.71.62-.94,1.11-.23.49-.34,1.09-.34,1.8s.12,1.31.34,1.8.54.86.94,1.11c.39.25.84.38,1.35.38s.95-.13,1.34-.38c.4-.25.71-.62.94-1.11s.34-1.09.34-1.8Z"/>
  <circle class="cls-2" cx="48.25" cy="48.78" r="1.96"/>
  <path class="cls-1" d="m64.51,29.47c0,.93-.17,1.73-.51,2.4-.34.67-.81,1.18-1.4,1.54-.59.36-1.27.54-2.02.54s-1.43-.18-2.02-.54-1.06-.87-1.4-1.54c-.34-.67-.51-1.47-.51-2.4s.17-1.73.51-2.4c.34-.67.81-1.18,1.4-1.54s1.27-.54,2.02-.54,1.43.18,2.02.54c.59.36,1.06.87,1.4,1.54.34.67.51,1.47.51,2.4Zm-1.3,0c0-.71-.11-1.31-.34-1.8s-.54-.86-.94-1.11c-.4-.25-.85-.38-1.35-.38s-.95.13-1.35.38c-.39.25-.71.62-.94,1.11s-.34,1.09-.34,1.8.12,1.31.34,1.8.54.86.94,1.11c.39.25.84.38,1.35.38s.95-.12,1.35-.38c.4-.25.71-.62.94-1.11s.34-1.09.34-1.8Z"/>
  <circle class="cls-2" cx="57.38" cy="38.16" r="1.96"/>
  <line class="cls-3" x1="57.38" y1="38.16" x2="60.3" y2="66.91"/>
  <path class="cls-1" d="m62.65,54.96v-6.55h1.23v1.04h.07c.12-.35.33-.63.63-.83s.65-.3,1.03-.3c.08,0,.17,0,.28,0s.2.01.26.02v1.22c-.05-.01-.14-.03-.27-.05-.13-.02-.26-.03-.39-.03-.3,0-.57.06-.8.19-.23.13-.42.3-.56.52-.14.22-.2.48-.2.76v4h-1.27Z"/>
  <path class="cls-1" d="m67.66,28.48v6.55h-.99v-5.55h-.04l-1.57,1.02v-.95l1.63-1.07h.96Z"/>
  <path class="cls-1" d="m46.95,41.07c-.53,0-1-.14-1.41-.41-.41-.27-.74-.66-.97-1.16s-.35-1.11-.35-1.82.12-1.31.36-1.82.56-.89.98-1.16c.41-.27.88-.4,1.41-.4.41,0,.73.07.98.2.25.14.44.29.58.47.14.18.25.34.32.47h.08v-3.24h1.27v8.73h-1.24v-1.02h-.11c-.08.14-.19.3-.33.48-.14.18-.34.33-.59.47s-.57.2-.97.2Zm.28-1.09c.37,0,.68-.1.93-.29.25-.19.45-.46.58-.81s.2-.75.2-1.21-.07-.85-.2-1.19-.32-.61-.58-.8-.57-.29-.94-.29-.7.1-.96.3c-.25.2-.45.47-.58.81-.13.34-.19.73-.19,1.16s.06.83.2,1.18c.13.35.33.63.58.83s.57.3.95.3Z"/>
  <path class="cls-1" d="m53.36,78.62v-8.73h3.11c.68,0,1.24.12,1.69.35.45.23.78.55,1,.96.22.41.33.88.33,1.42s-.11,1-.33,1.41c-.22.4-.56.72-1.01.94-.45.22-1.01.34-1.69.34h-2.36v-1.13h2.24c.43,0,.77-.06,1.04-.18s.46-.3.59-.53c.12-.23.19-.51.19-.84s-.06-.62-.19-.86c-.13-.24-.32-.43-.59-.56-.27-.13-.62-.19-1.05-.19h-1.65v7.6h-1.32Zm4.31-3.94l2.16,3.94h-1.5l-2.11-3.94h1.46Z"/>
  <line class="cls-3" x1="48.25" y1="48.78" x2="74.39" y2="87.99"/>
</svg>