<?xml version="1.0" encoding="UTF-8"?>
<svg id="Layer_1" data-name="Layer 1" xmlns="http://www.w3.org/2000/svg" viewBox="0 0 9 14">
  <defs>
    <style>
      .cls-1, .cls-2 {
        fill: #fff;
      }

      .cls-2 {
        fill-rule: evenodd;
      }

      .cls-3 {
        fill: none;
        stroke: #fff;
        stroke-miterlimit: 10;
      }
    </style>
  </defs>
  <path class="cls-1" d="m3.7,13.88c-.59,0-1.12-.11-1.59-.33-.48-.22-.85-.54-1.13-.96-.28-.42-.41-.93-.41-1.54,0-.52.1-.95.3-1.29.2-.34.47-.61.81-.8.34-.2.72-.35,1.15-.45.42-.1.85-.18,1.29-.23.56-.06,1.01-.12,1.35-.16.35-.04.6-.11.75-.21.16-.1.23-.25.23-.47v-.04c0-.53-.15-.94-.44-1.23-.3-.29-.74-.43-1.32-.43s-1.09.13-1.43.4c-.35.27-.59.56-.72.89l-1.7-.39c.2-.56.5-1.02.88-1.37.39-.35.84-.6,1.34-.76.51-.16,1.04-.24,1.6-.24.37,0,.76.04,1.18.13s.81.24,1.17.47c.37.23.66.56.9.98.23.42.35.97.35,1.65v6.16h-1.76v-1.27h-.07c-.12.23-.29.46-.53.69s-.53.41-.9.56-.81.22-1.32.22Zm.39-1.45c.5,0,.93-.1,1.28-.3.36-.2.63-.46.82-.78.19-.32.28-.66.28-1.03v-1.2c-.06.06-.19.12-.37.18-.18.05-.39.1-.62.14-.23.04-.46.07-.68.1-.22.03-.41.05-.56.07-.35.04-.67.12-.96.22-.29.1-.52.25-.69.45-.17.2-.26.45-.26.78,0,.45.17.78.5,1.01.33.23.75.34,1.26.34Z"/>
  <line class="cls-3" x1=".5" y1="1.75" x2="7" y2="1.75"/>
  <polygon class="cls-2" points="9 1.75 6.5 .31 6.5 3.19 9 1.75"/>
</svg>