<?xml version="1.0" encoding="UTF-8"?>
<svg id="Layer_1" data-name="Layer 1" xmlns="http://www.w3.org/2000/svg" viewBox="0 0 9 14">
  <defs>
    <style>
      .cls-1, .cls-2 {
        fill: #fff;
      }

      .cls-2 {
        fill-rule: evenodd;
      }

      .cls-3 {
        fill: none;
        stroke: #fff;
        stroke-miterlimit: 10;
      }
    </style>
  </defs>
  <path class="cls-1" d="m1,13.67V4.4h3.85c1.05,0,1.88.22,2.49.67.61.45.92,1.05.92,1.81,0,.54-.17.97-.52,1.29-.35.32-.8.53-1.38.64.41.05.79.17,1.14.37s.62.47.84.8c.21.33.32.73.32,1.2,0,.49-.13.92-.38,1.3-.25.38-.62.67-1.1.88-.48.21-1.06.32-1.73.32H1Zm1.7-5.41h2.17c.34,0,.63-.05.87-.15.24-.1.43-.23.56-.41.13-.18.2-.39.2-.64,0-.36-.15-.64-.44-.84-.29-.2-.7-.3-1.21-.3h-2.15v2.34Zm0,3.9h2.74c.45,0,.8-.11,1.05-.32.25-.21.38-.5.38-.87,0-.43-.13-.77-.38-1.02-.25-.25-.6-.37-1.05-.37h-2.74v2.58Z"/>
  <line class="cls-3" x1=".5" y1="1.75" x2="7" y2="1.75"/>
  <polygon class="cls-2" points="9 1.75 6.5 .31 6.5 3.19 9 1.75"/>
</svg>