<?xml version="1.0" encoding="UTF-8"?>
<svg id="Layer_1" data-name="Layer 1" xmlns="http://www.w3.org/2000/svg" viewBox="0 0 143.6 96.85">
  <defs>
    <style>
      .cls-1 {
        fill: #fff;
      }

      .cls-2, .cls-3 {
        stroke: #fff;
      }

      .cls-2, .cls-3, .cls-4 {
        fill: none;
        stroke-miterlimit: 10;
      }

      .cls-3, .cls-4 {
        stroke-width: 2px;
      }

      .cls-5 {
        fill: #d1ae59;
      }

      .cls-4 {
        stroke: #d1ae59;
      }
    </style>
  </defs>
  <path class="cls-3" d="m12.28,69.39c4.91,2.95,4.91,8.9,4.91,8.9"/>
  <polygon class="cls-5" points="81.14 .61 73.2 3.12 79.35 8.74 81.14 .61"/>
  <polygon class="cls-5" points="143.39 75.18 135.9 71.56 136.5 79.86 143.39 75.18"/>
  <polyline class="cls-4" points="136.26 75.69 3 78.59 76.31 5.87 3 78.59"/>
  <path class="cls-1" d="m30.06,38.45c-.59,0-1.12-.11-1.59-.33-.48-.22-.85-.54-1.13-.96-.28-.42-.41-.93-.41-1.54,0-.52.1-.95.3-1.29.2-.34.47-.61.81-.8s.72-.35,1.15-.45c.42-.1.85-.18,1.29-.23.55-.06,1.01-.12,1.35-.16.35-.04.6-.11.75-.21.16-.1.24-.25.24-.47v-.04c0-.53-.15-.94-.44-1.23s-.74-.43-1.32-.43-1.09.13-1.43.4c-.35.27-.59.56-.72.89l-1.7-.39c.2-.56.5-1.02.88-1.37.39-.35.84-.6,1.34-.76.51-.16,1.04-.24,1.6-.24.37,0,.76.04,1.18.13.42.09.81.24,1.17.47s.66.56.9.98.35.97.35,1.65v6.16h-1.76v-1.27h-.07c-.12.23-.29.46-.52.69-.23.22-.53.41-.9.56-.37.15-.8.22-1.32.22Zm.39-1.45c.5,0,.93-.1,1.28-.3.36-.2.63-.46.82-.78.19-.32.28-.66.28-1.03v-1.2c-.06.06-.19.12-.37.18-.18.05-.39.1-.62.14s-.46.07-.68.1c-.22.03-.41.06-.56.08-.35.04-.67.12-.96.22s-.52.25-.69.45c-.17.2-.26.45-.26.78,0,.45.17.78.5,1.01s.75.34,1.26.34Z"/>
  <line class="cls-2" x1="26.93" y1="25.5" x2="32.37" y2="25.5"/>
  <polygon class="cls-1" points="35.3 25.5 32.37 23.81 32.37 27.19 35.3 25.5"/>
  <path class="cls-1" d="m67.64,96.85v-9.27h3.84c1.05,0,1.88.22,2.49.67.61.44.92,1.05.92,1.81,0,.54-.17.97-.52,1.29-.35.32-.8.53-1.38.64.41.05.79.17,1.14.37.35.2.62.47.84.8.21.33.32.73.32,1.2,0,.49-.13.92-.38,1.3-.25.38-.62.67-1.1.88-.48.21-1.06.32-1.74.32h-4.43Zm1.7-5.41h2.17c.34,0,.63-.05.87-.14s.43-.23.56-.41c.13-.18.2-.39.2-.64,0-.36-.15-.64-.44-.84s-.7-.3-1.21-.3h-2.15v2.34Zm0,3.9h2.73c.45,0,.8-.11,1.05-.32.25-.21.38-.5.38-.87,0-.43-.13-.77-.38-1.02-.25-.25-.6-.37-1.05-.37h-2.73v2.58Z"/>
  <line class="cls-2" x1="67.21" y1="84.1" x2="72.65" y2="84.1"/>
  <polygon class="cls-1" points="75.58 84.1 72.65 82.41 72.65 85.79 75.58 84.1"/>
  <path class="cls-1" d="m27.78,72.4c-.77,0-1.45-.22-2.03-.63-.58-.41-1.04-.98-1.36-1.7-.33-.72-.49-1.56-.49-2.5s.17-1.76.51-2.47c.34-.71.81-1.27,1.41-1.68.6-.4,1.28-.61,2.04-.61.54,0,1.02.1,1.43.3s.76.49,1.05.85c.29.36.53.78.72,1.26h.63l.36,2.32,1.18,4.66h-1.55l-1.11-4.66c-.06-.3-.15-.63-.27-1-.12-.37-.28-.72-.48-1.05s-.45-.61-.75-.83c-.3-.22-.66-.33-1.08-.33-.46,0-.87.14-1.22.41-.35.28-.62.66-.81,1.14-.19.49-.29,1.05-.29,1.68s.09,1.18.28,1.67c.19.5.45.88.78,1.17.33.28.72.43,1.17.43.41,0,.76-.11,1.07-.33.31-.22.57-.5.78-.84.21-.34.39-.7.52-1.07.13-.37.23-.71.3-1l1-4.66h1.54l-1.06,4.66-.36,2.35h-.57c-.19.48-.44.9-.75,1.28-.3.37-.67.66-1.1.87-.43.21-.93.31-1.49.31Z"/>
</svg>