<?xml version="1.0" encoding="UTF-8"?>
<svg id="Layer_1" data-name="Layer 1" xmlns="http://www.w3.org/2000/svg" viewBox="0 0 95.46 107.05">
  <defs>
    <style>
      .cls-1 {
        fill: #fff;
      }

      .cls-2 {
        fill: none;
        stroke: #fff;
      }

      .cls-2, .cls-3 {
        stroke-miterlimit: 10;
      }

      .cls-3 {
        stroke: #d1ae59;
        stroke-width: 2px;
      }

      .cls-3, .cls-4 {
        fill: #d1ae59;
      }
    </style>
  </defs>
  <g>
    <path class="cls-1" d="m5.14,107.04c-.65,0-1.2-.14-1.66-.42-.46-.28-.82-.67-1.07-1.17-.25-.5-.38-1.1-.38-1.78s.13-1.26.38-1.77c.25-.51.6-.91,1.06-1.2s.98-.43,1.59-.43c.37,0,.73.06,1.07.18s.66.31.93.58c.28.26.49.6.65,1.02s.24.92.24,1.51v.45H2.75v-.95h3.96c0-.33-.07-.63-.21-.89-.14-.26-.33-.46-.57-.62-.25-.15-.53-.23-.86-.23-.36,0-.67.09-.94.26s-.47.4-.61.68c-.14.28-.22.58-.22.91v.75c0,.44.08.81.23,1.12.16.31.37.54.65.7.28.16.6.24.98.24.24,0,.46-.03.66-.1.2-.07.37-.17.52-.31.15-.14.26-.31.33-.52l1.21.22c-.1.36-.27.67-.52.93-.25.27-.56.47-.93.62-.37.15-.8.22-1.28.22Z"/>
    <path class="cls-1" d="m12.96,102.72v-1.12h5.46v1.12h-5.46Zm0,2.62v-1.12h5.46v1.12h-5.46Z"/>
    <path class="cls-1" d="m25.62,107.05c-.42,0-.79-.08-1.12-.23-.34-.16-.6-.38-.79-.68s-.29-.66-.29-1.09c0-.37.07-.67.21-.91.14-.24.33-.43.58-.57.24-.14.51-.24.81-.32.3-.07.6-.12.91-.16.39-.04.71-.08.96-.11.24-.03.42-.08.53-.15s.17-.18.17-.33v-.03c0-.37-.1-.66-.31-.87-.21-.2-.52-.31-.93-.31s-.77.09-1.01.28c-.25.19-.42.4-.51.63l-1.2-.27c.14-.4.35-.72.62-.97.27-.25.59-.42.95-.54.36-.11.73-.17,1.13-.17.26,0,.54.03.83.09s.57.17.83.33c.26.16.47.39.63.69s.25.69.25,1.17v4.35h-1.24v-.89h-.05c-.08.16-.21.33-.37.49s-.38.29-.63.4c-.26.1-.57.16-.93.16Zm.28-1.02c.35,0,.65-.07.91-.21.25-.14.44-.32.58-.55.13-.23.2-.47.2-.73v-.84s-.13.09-.26.12c-.13.04-.28.07-.44.1-.17.03-.33.05-.48.07s-.29.04-.39.05c-.25.03-.47.08-.68.16s-.36.18-.49.32-.18.32-.18.55c0,.32.12.55.35.71.23.16.53.24.89.24Z"/>
    <path class="cls-1" d="m33.99,104.05v-1.15h5.76v1.15h-5.76Zm2.31,2.31v-5.76h1.15v5.76h-1.15Z"/>
    <path class="cls-1" d="m44.9,106.91v-6.55h2.71c.74,0,1.32.16,1.76.47.43.31.65.74.65,1.28,0,.38-.12.69-.37.91-.25.22-.57.38-.97.45.29.03.56.12.8.26.25.14.44.33.59.56.15.24.22.52.22.84,0,.35-.09.65-.27.92s-.44.47-.78.62c-.34.15-.75.22-1.23.22h-3.13Zm1.2-3.82h1.53c.24,0,.44-.03.62-.1.17-.07.3-.17.4-.29.09-.13.14-.28.14-.45,0-.25-.1-.45-.31-.59-.21-.14-.49-.21-.85-.21h-1.52v1.65Zm0,2.75h1.93c.32,0,.56-.08.74-.23.18-.15.27-.36.27-.61,0-.3-.09-.54-.27-.72-.18-.17-.43-.26-.74-.26h-1.93v1.82Z"/>
    <path class="cls-1" d="m55.13,104.05v-1.15h5.76v1.15h-5.76Zm2.31,2.31v-5.76h1.15v5.76h-1.15Z"/>
    <path class="cls-1" d="m68.79,107.04c-.63,0-1.18-.14-1.63-.43-.46-.29-.81-.69-1.05-1.2-.24-.51-.37-1.09-.37-1.75s.12-1.25.38-1.76.6-.91,1.06-1.2c.46-.29.99-.43,1.61-.43.5,0,.94.09,1.33.28.39.18.7.44.94.77.24.33.38.71.43,1.16h-1.24c-.07-.31-.22-.57-.47-.79s-.57-.33-.97-.33c-.36,0-.67.09-.93.28-.27.19-.47.45-.62.79-.15.34-.22.75-.22,1.21s.07.89.22,1.24c.15.35.35.62.62.81s.58.29.94.29c.24,0,.46-.04.66-.13.2-.09.36-.22.5-.39s.23-.37.28-.61h1.24c-.05.42-.18.8-.41,1.13-.23.33-.54.59-.92.78s-.84.29-1.35.29Z"/>
    <path class="cls-1" d="m76.29,104.05v-1.15h5.76v1.15h-5.76Zm2.31,2.31v-5.76h1.15v5.76h-1.15Z"/>
    <path class="cls-1" d="m89.65,107.04c-.53,0-1-.14-1.41-.41-.41-.27-.74-.66-.97-1.16s-.35-1.11-.35-1.82.12-1.31.36-1.82.56-.89.98-1.16c.41-.27.88-.4,1.41-.4.41,0,.73.07.98.2.25.14.44.29.58.47.14.18.25.34.32.47h.08v-3.24h1.27v8.73h-1.24v-1.02h-.11c-.08.14-.19.3-.33.48-.14.18-.34.33-.59.47s-.57.2-.97.2Zm.28-1.09c.37,0,.68-.1.93-.29.25-.19.45-.46.58-.81s.2-.75.2-1.21-.07-.85-.2-1.19-.32-.61-.58-.8-.57-.29-.94-.29-.7.1-.96.3c-.25.2-.45.47-.58.81-.13.34-.19.73-.19,1.16s.06.83.2,1.18c.13.35.33.63.58.83s.57.3.95.3Z"/>
  </g>
  <path class="cls-1" d="m7.17,38.63c-.59,0-1.12-.11-1.59-.33-.48-.22-.85-.54-1.13-.96-.28-.42-.41-.93-.41-1.54,0-.52.1-.95.3-1.29.2-.34.47-.61.81-.8s.72-.35,1.15-.45c.42-.1.85-.18,1.29-.23.55-.06,1.01-.12,1.35-.16.35-.04.6-.11.75-.21.16-.1.24-.25.24-.47v-.04c0-.53-.15-.94-.44-1.23s-.74-.43-1.32-.43-1.09.13-1.43.4c-.35.27-.59.56-.72.89l-1.7-.39c.2-.56.5-1.02.88-1.37.39-.35.84-.6,1.34-.76.51-.16,1.04-.24,1.6-.24.37,0,.76.04,1.18.13.42.09.81.24,1.17.47s.66.56.9.98.35.97.35,1.65v6.16h-1.76v-1.27h-.07c-.12.23-.29.46-.52.69-.23.22-.53.41-.9.56-.37.15-.8.22-1.32.22Zm.39-1.45c.5,0,.93-.1,1.28-.3.36-.2.63-.46.82-.78.19-.32.28-.66.28-1.03v-1.2c-.06.06-.19.12-.37.18-.18.05-.39.1-.62.14s-.46.07-.68.1c-.22.03-.41.06-.56.08-.35.04-.67.12-.96.22s-.52.25-.69.45c-.17.2-.26.45-.26.78,0,.45.17.78.5,1.01s.75.34,1.26.34Z"/>
  <line class="cls-2" x1="4.03" y1="25.68" x2="9.48" y2="25.68"/>
  <polygon class="cls-1" points="12.4 25.68 9.48 23.99 9.48 27.37 12.4 25.68"/>
  <path class="cls-1" d="m47.46,14.43V5.16h3.84c1.05,0,1.88.22,2.49.67.61.44.92,1.05.92,1.81,0,.54-.17.97-.52,1.29-.35.32-.8.53-1.38.64.41.05.79.17,1.14.37.35.2.62.47.84.8.21.33.32.73.32,1.2,0,.49-.13.92-.38,1.3-.25.38-.62.67-1.1.88-.48.21-1.06.32-1.74.32h-4.43Zm1.7-5.41h2.17c.34,0,.63-.05.87-.14s.43-.23.56-.41c.13-.18.2-.39.2-.64,0-.36-.15-.64-.44-.84s-.7-.3-1.21-.3h-2.15v2.34Zm0,3.9h2.73c.45,0,.8-.11,1.05-.32.25-.21.38-.5.38-.87,0-.43-.13-.77-.38-1.02-.25-.25-.6-.37-1.05-.37h-2.73v2.58Z"/>
  <line class="cls-2" x1="47.03" y1="1.69" x2="52.47" y2="1.69"/>
  <polygon class="cls-1" points="55.4 1.69 52.47 0 52.47 3.38 55.4 1.69"/>
  <path class="cls-1" d="m88.96,33.08c-.9,0-1.67-.2-2.32-.61-.65-.41-1.14-.97-1.49-1.69-.35-.72-.52-1.54-.52-2.47s.18-1.77.53-2.5c.35-.72.85-1.29,1.5-1.69.64-.41,1.4-.61,2.28-.61.7,0,1.33.13,1.88.39.55.26,1,.62,1.34,1.09.34.47.54,1.01.61,1.64h-1.76c-.1-.43-.32-.81-.66-1.12-.34-.31-.8-.47-1.38-.47-.5,0-.94.13-1.32.4-.38.26-.67.64-.88,1.12-.21.48-.31,1.06-.31,1.72s.1,1.26.31,1.75.5.87.87,1.14c.38.27.82.41,1.33.41.34,0,.65-.06.93-.19.28-.13.51-.31.71-.55.19-.24.33-.52.4-.86h1.76c-.06.6-.26,1.13-.59,1.61s-.76.84-1.31,1.11c-.55.27-1.18.41-1.92.41Z"/>
  <line class="cls-2" x1="84.62" y1="20.15" x2="90.07" y2="20.15"/>
  <polygon class="cls-1" points="92.99 20.15 90.07 18.46 90.07 21.84 92.99 20.15"/>
  <path class="cls-1" d="m84.73,75.22c-.75,0-1.42-.19-2-.58-.59-.38-1.04-.93-1.38-1.65-.33-.71-.5-1.57-.5-2.57s.17-1.86.5-2.57c.34-.71.8-1.26,1.38-1.64.59-.38,1.25-.57,2-.57.58,0,1.04.1,1.39.29s.62.41.82.67c.2.25.35.48.46.67h.11v-4.59h1.8v12.36h-1.76v-1.44h-.15c-.11.2-.27.42-.47.68s-.48.47-.84.66-.81.28-1.38.28Zm.4-1.54c.52,0,.96-.14,1.32-.41.36-.28.63-.66.82-1.15s.28-1.06.28-1.71-.09-1.21-.28-1.69c-.19-.48-.46-.86-.82-1.13-.36-.27-.8-.4-1.33-.4s-1,.14-1.36.42c-.36.28-.63.67-.82,1.15-.18.49-.28,1.04-.28,1.65s.09,1.18.28,1.67c.18.5.46.89.82,1.17.37.29.81.43,1.35.43Z"/>
  <line class="cls-2" x1="81.17" y1="59.64" x2="86.61" y2="59.64"/>
  <polygon class="cls-1" points="89.54 59.64 86.61 57.95 86.61 61.33 89.54 59.64"/>
  <path class="cls-1" d="m28.43,86.41c-.91,0-1.7-.2-2.36-.59s-1.17-.95-1.52-1.66c-.36-.71-.53-1.55-.53-2.51s.18-1.79.53-2.51c.36-.72.86-1.29,1.5-1.7.64-.41,1.39-.61,2.25-.61.52,0,1.03.09,1.52.26s.93.44,1.32.81c.39.37.7.85.92,1.44.22.59.34,1.3.34,2.15v.64h-7.37v-1.35h5.6c0-.47-.1-.9-.29-1.26s-.46-.66-.81-.87c-.35-.21-.76-.32-1.22-.32-.51,0-.95.12-1.32.37-.38.25-.67.57-.87.97s-.3.83-.3,1.29v1.06c0,.62.11,1.15.33,1.58.22.43.53.77.92.99.39.23.86.34,1.38.34.34,0,.65-.05.94-.15.28-.1.52-.25.73-.44.21-.2.36-.44.47-.73l1.71.31c-.14.5-.38.94-.73,1.32-.35.38-.79.67-1.32.88s-1.13.31-1.81.31Z"/>
  <line class="cls-2" x1="24" y1="73.48" x2="29.45" y2="73.48"/>
  <polygon class="cls-1" points="32.37 73.48 29.45 71.79 29.45 75.16 32.37 73.48"/>
  <line class="cls-2" x1="1.04" y1="97.04" x2="6.49" y2="97.04"/>
  <polygon class="cls-1" points="9.41 97.04 6.49 95.35 6.49 98.73 9.41 97.04"/>
  <line class="cls-2" x1="22.54" y1="97.04" x2="27.98" y2="97.04"/>
  <polygon class="cls-1" points="30.91 97.04 27.98 95.35 27.98 98.73 30.91 97.04"/>
  <line class="cls-2" x1="43.47" y1="97.04" x2="48.92" y2="97.04"/>
  <polygon class="cls-1" points="51.84 97.04 48.92 95.35 48.92 98.73 51.84 97.04"/>
  <line class="cls-2" x1="64.81" y1="97.04" x2="70.26" y2="97.04"/>
  <polygon class="cls-1" points="73.18 97.04 70.26 95.35 70.26 98.73 73.18 97.04"/>
  <line class="cls-2" x1="85.95" y1="95.35" x2="91.39" y2="95.35"/>
  <polygon class="cls-1" points="94.31 95.35 91.39 93.66 91.39 97.04 94.31 95.35"/>
  <line class="cls-3" x1="31.66" y1="26.31" x2="3.26" y2="56.51"/>
  <polygon class="cls-4" points="36.39 21.28 28.75 23.58 34.56 29.04 36.39 21.28"/>
  <line class="cls-3" x1="61.76" y1="18.15" x2="38.35" y2="20.9"/>
  <polygon class="cls-4" points="68.62 17.35 61.3 14.19 62.23 22.11 68.62 17.35"/>
  <line class="cls-3" x1="81.23" y1="41.88" x2="71.6" y2="17.01"/>
  <polygon class="cls-4" points="83.72 48.31 84.95 40.44 77.52 43.32 83.72 48.31"/>
  <line class="cls-3" x1="63.05" y1="70.27" x2="85.35" y2="50.75"/>
  <polygon class="cls-4" points="57.86 74.82 65.68 73.27 60.43 67.27 57.86 74.82"/>
  <line class="cls-3" x1="11.73" y1="60.29" x2="55.88" y2="75.36"/>
  <polygon class="cls-4" points="6.06 58.39 11.31 64.4 13.88 56.85 6.06 58.39"/>
</svg>