<?xml version="1.0" encoding="UTF-8"?>
<svg id="Layer_1" data-name="Layer 1" xmlns="http://www.w3.org/2000/svg" viewBox="0 0 108.81 72.81">
  <defs>
    <style>
      .cls-1 {
        fill: #fff;
      }

      .cls-2, .cls-3 {
        stroke: #fff;
      }

      .cls-2, .cls-3, .cls-4 {
        fill: none;
        stroke-miterlimit: 10;
      }

      .cls-3 {
        stroke-dasharray: 0 0 4 3;
      }

      .cls-5 {
        fill: #d1ae59;
      }

      .cls-4 {
        stroke: #d1ae59;
        stroke-width: 2px;
      }
    </style>
  </defs>
  <g>
    <path class="cls-1" d="m45.47,46.8c-.57.28-1.12.4-1.66.34-.54-.05-1.03-.25-1.47-.6-.45-.35-.81-.81-1.11-1.4-.3-.59-.45-1.18-.45-1.74,0-.57.13-1.08.41-1.54.28-.46.69-.83,1.25-1.1.45-.22.88-.34,1.31-.35.43,0,.82.08,1.19.27.36.19.66.47.9.84l-1.11.55c-.2-.24-.46-.41-.77-.5-.32-.09-.66-.04-1.02.14-.32.16-.55.38-.71.67-.15.28-.22.61-.2.98.02.37.13.77.34,1.19.21.43.46.76.75,1.01.29.25.59.39.91.45s.65,0,.97-.16c.22-.11.39-.25.53-.41.14-.17.23-.36.27-.57.05-.21.04-.43-.02-.67l1.11-.55c.15.4.19.8.14,1.2s-.22.77-.48,1.11c-.26.34-.62.63-1.08.86Z"/>
    <path class="cls-1" d="m50.39,39.53l-.5-1,4.89-2.43.5,1-4.89,2.44Zm1.17,2.35l-.5-1,4.89-2.44.5,1-4.89,2.43Z"/>
    <path class="cls-1" d="m63.66,37.76c-.37.18-.74.28-1.11.29-.37.01-.71-.07-1.01-.25-.31-.18-.56-.46-.75-.84-.17-.33-.24-.63-.22-.91.02-.28.11-.53.26-.76.15-.23.35-.45.58-.64.24-.2.48-.38.74-.55.33-.21.6-.39.8-.53.21-.14.34-.26.41-.37s.07-.23,0-.37v-.03c-.18-.33-.4-.54-.68-.63-.28-.09-.6-.04-.97.14-.38.19-.64.43-.78.71-.14.28-.2.54-.18.79l-1.19.29c-.05-.42,0-.8.13-1.14.14-.34.34-.64.61-.9.27-.26.58-.48.94-.65.23-.12.5-.21.79-.29.29-.08.59-.1.89-.07.3.03.59.14.88.34.28.19.53.5.74.93l1.94,3.89-1.11.55-.4-.8-.05.02c0,.18-.04.38-.12.6s-.21.43-.39.64c-.19.21-.44.39-.76.56Zm-.21-1.04c.32-.16.55-.35.72-.59.16-.24.25-.48.27-.75.02-.26-.03-.51-.15-.74l-.38-.76c-.02.06-.08.14-.18.23-.1.09-.21.19-.35.28-.14.1-.27.19-.4.28-.13.09-.24.16-.33.22-.21.14-.39.29-.53.44-.15.16-.25.32-.29.5-.05.18-.02.37.08.57.14.28.35.44.63.48.28.04.58-.02.9-.18Z"/>
    <path class="cls-1" d="m69.8,31.33l-.51-1.03,5.16-2.57.51,1.03-5.16,2.57Zm3.09,1.04l-2.57-5.16,1.03-.51,2.57,5.16-1.03.51Z"/>
    <path class="cls-1" d="m80.84,29.03l-2.92-5.86,2.43-1.21c.66-.33,1.25-.45,1.78-.36.53.09.91.37,1.15.85.17.34.2.67.08.98-.12.31-.34.59-.67.84.28-.1.56-.14.84-.12.28.02.54.1.78.24.24.15.43.36.58.66.15.31.21.62.17.94-.04.32-.18.62-.42.9s-.57.53-1,.75l-2.8,1.4Zm-.63-3.95l1.37-.68c.21-.11.38-.23.5-.37.12-.14.2-.28.23-.44.03-.16,0-.31-.08-.46-.11-.23-.29-.36-.54-.39-.25-.04-.54.03-.86.19l-1.36.68.74,1.48Zm1.23,2.46l1.73-.86c.28-.14.47-.32.56-.53.09-.21.08-.44-.03-.67-.14-.27-.32-.45-.56-.52-.24-.08-.5-.04-.78.1l-1.73.86.81,1.63Z"/>
  </g>
  <path class="cls-1" d="m37.74,72.81c-.59,0-1.12-.11-1.59-.33-.48-.22-.85-.54-1.13-.96-.28-.42-.41-.93-.41-1.54,0-.52.1-.95.3-1.29.2-.34.47-.61.81-.8s.72-.35,1.15-.45c.42-.1.85-.18,1.29-.23.55-.06,1.01-.12,1.35-.16.35-.04.6-.11.75-.21.16-.1.24-.25.24-.47v-.04c0-.53-.15-.94-.44-1.23s-.74-.43-1.32-.43-1.09.13-1.43.4c-.35.27-.59.56-.72.89l-1.7-.39c.2-.56.5-1.02.88-1.37.39-.35.84-.6,1.34-.76.51-.16,1.04-.24,1.6-.24.37,0,.76.04,1.18.13.42.09.81.24,1.17.47s.66.56.9.98.35.97.35,1.65v6.16h-1.76v-1.27h-.07c-.12.23-.29.46-.52.69-.23.22-.53.41-.9.56-.37.15-.8.22-1.32.22Zm.39-1.45c.5,0,.93-.1,1.28-.3.36-.2.63-.46.82-.78.19-.32.28-.66.28-1.03v-1.2c-.06.06-.19.12-.37.18-.18.05-.39.1-.62.14s-.46.07-.68.1c-.22.03-.41.06-.56.08-.35.04-.67.12-.96.22s-.52.25-.69.45c-.17.2-.26.45-.26.78,0,.45.17.78.5,1.01s.75.34,1.26.34Z"/>
  <line class="cls-2" x1="34.6" y1="59.86" x2="40.05" y2="59.86"/>
  <polygon class="cls-1" points="42.97 59.86 40.05 58.18 40.05 61.55 42.97 59.86"/>
  <line class="cls-2" x1="38.85" y1="40.31" x2="42.99" y2="38.26"/>
  <polygon class="cls-1" points="45.21 37.16 42.35 36.98 43.62 39.54 45.21 37.16"/>
  <line class="cls-2" x1="57.56" y1="30.71" x2="61.66" y2="28.68"/>
  <polygon class="cls-1" points="63.86 27.59 61.03 27.41 62.29 29.95 63.86 27.59"/>
  <line class="cls-2" x1="76.38" y1="21" x2="80.33" y2="19.04"/>
  <polygon class="cls-1" points="82.45 17.99 79.72 17.82 80.94 20.26 82.45 17.99"/>
  <path class="cls-1" d="m1.9,29.06v-9.27h3.84c1.05,0,1.88.22,2.49.67.61.44.92,1.05.92,1.81,0,.54-.17.97-.52,1.29-.35.32-.8.53-1.38.64.41.05.79.17,1.14.37.35.2.62.47.84.8.21.33.32.73.32,1.2,0,.49-.13.92-.38,1.3-.25.38-.62.67-1.1.88-.48.21-1.06.32-1.74.32H1.9Zm1.7-5.41h2.17c.34,0,.63-.05.87-.14s.43-.23.56-.41c.13-.18.2-.39.2-.64,0-.36-.15-.64-.44-.84s-.7-.3-1.21-.3h-2.15v2.34Zm0,3.9h2.73c.45,0,.8-.11,1.05-.32.25-.21.38-.5.38-.87,0-.43-.13-.77-.38-1.02-.25-.25-.6-.37-1.05-.37h-2.73v2.58Z"/>
  <line class="cls-2" x1="1.46" y1="16.31" x2="6.91" y2="16.31"/>
  <polygon class="cls-1" points="9.83 16.31 6.91 14.63 6.91 18 9.83 16.31"/>
  <polygon class="cls-3" points="80.19 53.01 1.93 53.01 28.73 1.85 106.99 1.85 80.19 53.01"/>
  <polyline class="cls-4" points="26.04 6.98 1.93 53.01 74.87 53.01"/>
  <line class="cls-4" x1="102.69" y1="3.51" x2="1.93" y2="53.01"/>
  <polygon class="cls-5" points="81.43 53.01 74.87 49.22 74.87 56.81 81.43 53.01"/>
  <polygon class="cls-5" points="29.13 1.17 22.73 5.25 29.46 8.75 29.13 1.17"/>
  <polygon class="cls-5" points="108.62 .86 101.06 .3 104.36 7.13 108.62 .86"/>
</svg>