<?xml version="1.0" encoding="UTF-8"?>
<svg id="Layer_1" data-name="Layer 1" xmlns="http://www.w3.org/2000/svg" viewBox="0 0 97.75 72.81">
  <defs>
    <style>
      .cls-1 {
        fill: #fff;
      }

      .cls-2 {
        stroke: #fff;
      }

      .cls-2, .cls-3, .cls-4 {
        stroke-miterlimit: 10;
      }

      .cls-2, .cls-4 {
        fill: none;
      }

      .cls-3, .cls-5 {
        fill: #d1ae59;
      }

      .cls-3, .cls-4 {
        stroke: #d1ae59;
        stroke-width: 2px;
      }
    </style>
  </defs>
  <g>
    <path class="cls-1" d="m39.66,66.77c-.56.29-1.11.42-1.65.38-.54-.04-1.03-.23-1.49-.57-.45-.33-.83-.79-1.14-1.37-.31-.59-.47-1.17-.49-1.73-.02-.57.11-1.08.38-1.55.27-.47.67-.84,1.22-1.13.44-.23.87-.36,1.3-.38.43-.02.83.06,1.19.24.37.18.67.45.92.82l-1.1.58c-.2-.24-.46-.4-.78-.48-.32-.08-.66-.03-1.02.16-.31.17-.54.39-.69.68-.15.29-.21.62-.18.99.03.37.15.76.37,1.18.22.42.48.75.77.99.29.24.6.38.92.42s.64-.02.96-.19c.21-.11.39-.26.52-.43.13-.17.22-.36.26-.58s.03-.43-.03-.67l1.1-.58c.16.4.21.79.17,1.2-.05.4-.2.78-.45,1.12-.25.35-.61.64-1.06.88Z"/>
    <path class="cls-1" d="m44.4,59.37l-.52-.99,4.83-2.55.52.99-4.83,2.55Zm1.23,2.32l-.52-.99,4.83-2.55.52.99-4.83,2.55Z"/>
    <path class="cls-1" d="m57.62,57.28c-.37.19-.74.3-1.1.32-.37.02-.71-.06-1.02-.23-.31-.17-.57-.45-.77-.82-.17-.33-.25-.63-.24-.91.02-.28.1-.53.24-.77.15-.24.34-.46.57-.66.23-.2.47-.39.73-.57.33-.22.59-.41.79-.55.2-.14.34-.27.4-.38.07-.11.06-.24,0-.37v-.03c-.19-.33-.42-.53-.7-.62-.28-.08-.6-.03-.97.16-.38.2-.63.44-.76.72-.13.28-.18.55-.16.79l-1.19.32c-.06-.42-.03-.8.1-1.14.13-.35.32-.65.59-.92.26-.27.57-.49.92-.68.23-.12.49-.22.78-.31.29-.08.58-.11.89-.09.3.02.6.13.88.32.29.19.54.49.76.92l2.03,3.84-1.1.58-.42-.79-.04.02c0,.18-.03.38-.1.6s-.2.43-.38.65-.43.41-.75.57Zm-.23-1.03c.31-.16.55-.37.7-.61.16-.24.24-.49.25-.75,0-.26-.04-.51-.17-.74l-.39-.75c-.02.06-.08.14-.17.23-.1.09-.21.19-.34.29-.13.1-.26.2-.39.29s-.23.17-.32.23c-.2.14-.38.3-.52.46-.14.16-.24.33-.28.51-.04.18-.01.37.1.57.15.28.36.43.64.47.28.03.58-.04.9-.2Z"/>
    <path class="cls-1" d="m63.61,50.72l-.54-1.01,5.09-2.69.54,1.01-5.09,2.69Zm3.12.96l-2.69-5.09,1.01-.54,2.69,5.09-1.01.54Z"/>
    <path class="cls-1" d="m74.59,48.15l-3.06-5.79,2.4-1.27c.65-.35,1.24-.48,1.77-.4.53.08.92.35,1.17.83.18.34.21.66.1.98s-.33.6-.65.85c.27-.11.55-.15.83-.14.28,0,.54.08.79.22.24.14.44.35.59.64.16.31.23.62.19.94-.03.32-.17.62-.4.91-.23.29-.56.55-.98.77l-2.76,1.46Zm-.73-3.94l1.35-.71c.21-.11.38-.24.5-.38s.19-.29.21-.44c.02-.16,0-.31-.09-.46-.12-.22-.3-.35-.55-.38s-.53.04-.86.21l-1.34.71.77,1.46Zm1.29,2.43l1.71-.9c.28-.15.46-.33.55-.55.09-.22.07-.44-.05-.67-.14-.27-.33-.44-.57-.51-.24-.07-.5-.03-.78.12l-1.71.9.85,1.61Z"/>
  </g>
  <path class="cls-1" d="m6.55,40.06c-.59,0-1.12-.11-1.59-.33-.48-.22-.85-.54-1.13-.96-.28-.42-.41-.93-.41-1.54,0-.52.1-.95.3-1.29.2-.34.47-.61.81-.8s.72-.35,1.15-.45c.42-.1.85-.18,1.29-.23.55-.06,1.01-.12,1.35-.16.35-.04.6-.11.75-.21.16-.1.24-.25.24-.47v-.04c0-.53-.15-.94-.44-1.23s-.74-.43-1.32-.43-1.09.13-1.43.4c-.35.27-.59.56-.72.89l-1.7-.39c.2-.56.5-1.02.88-1.37.39-.35.84-.6,1.34-.76.51-.16,1.04-.24,1.6-.24.37,0,.76.04,1.18.13.42.09.81.24,1.17.47s.66.56.9.98.35.97.35,1.65v6.16h-1.76v-1.27h-.07c-.12.23-.29.46-.52.69-.23.22-.53.41-.9.56-.37.15-.8.22-1.32.22Zm.39-1.45c.5,0,.93-.1,1.28-.3.36-.2.63-.46.82-.78.19-.32.28-.66.28-1.03v-1.2c-.06.06-.19.12-.37.18-.18.05-.39.1-.62.14s-.46.07-.68.1c-.22.03-.41.06-.56.08-.35.04-.67.12-.96.22s-.52.25-.69.45c-.17.2-.26.45-.26.78,0,.45.17.78.5,1.01s.75.34,1.26.34Z"/>
  <line class="cls-2" x1="3.42" y1="27.11" x2="8.87" y2="27.11"/>
  <polygon class="cls-1" points="11.79 27.11 8.87 25.42 8.87 28.79 11.79 27.11"/>
  <line class="cls-2" x1="32.88" y1="60.44" x2="36.97" y2="58.29"/>
  <polygon class="cls-1" points="39.16 57.13 36.3 57.02 37.64 59.56 39.16 57.13"/>
  <line class="cls-2" x1="51.36" y1="50.39" x2="55.4" y2="48.26"/>
  <polygon class="cls-1" points="57.58 47.12 54.74 47 56.06 49.51 57.58 47.12"/>
  <line class="cls-2" x1="69.93" y1="40.23" x2="73.84" y2="38.17"/>
  <polygon class="cls-1" points="75.93 37.07 73.2 36.96 74.47 39.38 75.93 37.07"/>
  <path class="cls-1" d="m56.24,16.28V7.01h3.84c1.05,0,1.88.22,2.49.67.61.44.92,1.05.92,1.81,0,.54-.17.97-.52,1.29-.35.32-.8.53-1.38.64.41.05.79.17,1.14.37.35.2.62.47.84.8.21.33.32.73.32,1.2,0,.49-.13.92-.38,1.3-.25.38-.62.67-1.1.88-.48.21-1.06.32-1.74.32h-4.43Zm1.7-5.41h2.17c.34,0,.63-.05.87-.14s.43-.23.56-.41c.13-.18.2-.39.2-.64,0-.36-.15-.64-.44-.84s-.7-.3-1.21-.3h-2.15v2.34Zm0,3.9h2.73c.45,0,.8-.11,1.05-.32.25-.21.38-.5.38-.87,0-.43-.13-.77-.38-1.02-.25-.25-.6-.37-1.05-.37h-2.73v2.58Z"/>
  <line class="cls-2" x1="55.81" y1="3.53" x2="61.25" y2="3.53"/>
  <polygon class="cls-1" points="64.17 3.53 61.25 1.85 61.25 5.22 64.17 3.53"/>
  <polygon class="cls-5" points="24.84 18.62 18.75 23.14 25.71 26.15 24.84 18.62"/>
  <polygon class="cls-5" points="91.46 23.27 83.88 23.2 87.61 29.8 91.46 23.27"/>
  <polygon class="cls-5" points="97.57 21.45 91.02 17.65 91 25.23 97.57 21.45"/>
  <polyline class="cls-4" points="22.27 24.57 2.65 70.48 86.85 26"/>
  <line class="cls-3" x1="24.37" y1="20.31" x2="91" y2="21.44"/>
</svg>