<?xml version="1.0" encoding="UTF-8"?>
<svg id="Layer_1" data-name="Layer 1" xmlns="http://www.w3.org/2000/svg" viewBox="0 0 321.97 150.5">
  <defs>
    <style>
      .cls-1 {
        isolation: isolate;
        opacity: .3;
        stroke: #bdccd4;
        stroke-width: .5px;
      }

      .cls-1, .cls-2, .cls-3, .cls-4, .cls-5, .cls-6 {
        fill: none;
        stroke-miterlimit: 10;
      }

      .cls-7 {
        fill: #fff;
      }

      .cls-2, .cls-3, .cls-4, .cls-5 {
        stroke: #fff;
      }

      .cls-3, .cls-6 {
        stroke-width: 2px;
      }

      .cls-4 {
        stroke-dasharray: 0 0 4 3;
      }

      .cls-8 {
        fill: #d1ae59;
      }

      .cls-5 {
        stroke-width: 1.5px;
      }

      .cls-6 {
        stroke: #d1ae59;
      }
    </style>
  </defs>
  <rect class="cls-1" x=".25" y=".25" width="149.75" height="150"/>
  <line class="cls-1" x1="70" x2="70" y2="150.5"/>
  <line class="cls-1" x1="60" x2="60" y2="150.5"/>
  <line class="cls-1" x1="50" x2="50" y2="150.5"/>
  <line class="cls-1" x1="40" x2="40" y2="150.5"/>
  <line class="cls-1" x1="30" x2="30" y2="150.5"/>
  <line class="cls-1" x1="20" x2="20" y2="150.5"/>
  <line class="cls-1" x1="10" x2="10" y2="150.5"/>
  <line class="cls-1" x1="150.25" y1="80.25" y2="80.25"/>
  <line class="cls-1" x1="150.25" y1="90.25" y2="90.25"/>
  <line class="cls-1" x1="150.25" y1="100.25" y2="100.25"/>
  <line class="cls-1" x1="150.25" y1="110.31" x2="0" y2="110.31"/>
  <line class="cls-1" x1="150.25" y1="120.25" y2="120.25"/>
  <line class="cls-1" x1="150.25" y1="130.25" y2="130.25"/>
  <line class="cls-1" x1="150.25" y1="140.25" y2="140.25"/>
  <line class="cls-1" x1="150.25" y1="70.25" y2="70.25"/>
  <line class="cls-1" x1="150.25" y1="60.25" y2="60.25"/>
  <line class="cls-1" x1="150.25" y1="50.25" y2="50.25"/>
  <line class="cls-1" x1="150.25" y1="40.25" y2="40.25"/>
  <line class="cls-1" x1="150.25" y1="30.25" y2="30.25"/>
  <line class="cls-1" x1="150.25" y1="20.25" y2="20.25"/>
  <line class="cls-1" x1="150.25" y1="10.25" y2="10.25"/>
  <line class="cls-1" x1="80" x2="80" y2="150.5"/>
  <line class="cls-1" x1="90" x2="90" y2="150.5"/>
  <line class="cls-1" x1="100" x2="100" y2="150.5"/>
  <line class="cls-1" x1="110" x2="110" y2="150.5"/>
  <line class="cls-1" x1="120" x2="120" y2="150.5"/>
  <line class="cls-1" x1="130" x2="130" y2="150.5"/>
  <line class="cls-1" x1="140" x2="140" y2="150.5"/>
  <line class="cls-3" x1="30" y1="10.31" x2="30" y2="140.25"/>
  <line class="cls-3" x1="10" y1="119.8" x2="140" y2="119.8"/>
  <polygon class="cls-7" points="145.82 119.8 139.91 116.39 139.91 123.21 145.82 119.8"/>
  <polygon class="cls-7" points="30 4.85 26.59 10.77 33.41 10.77 30 4.85"/>
  <line class="cls-2" x1="40" y1="116.45" x2="40" y2="123.27"/>
  <line class="cls-2" x1="33.41" y1="110.31" x2="26.59" y2="110.31"/>
  <path class="cls-7" d="m40.62,125.44v8.73h-1.32v-7.41h-.05l-2.09,1.36v-1.26l2.18-1.42s1.28,0,1.28,0Z"/>
  <path class="cls-7" d="m141.42,126.48l1.44,2.55,1.46-2.55h1.39l-2.04,3.27,2.06,3.27h-1.39l-1.47-2.45-1.47,2.45h-1.4l2.04-3.27-2.01-3.27h1.4-.01Z"/>
  <path class="cls-7" d="m19.8,12.76c-.19,0-.36-.01-.52-.04-.16-.03-.27-.06-.35-.1l.31-1.04c.23.06.44.09.62.08.18,0,.34-.08.48-.2.14-.13.27-.34.37-.63l.16-.43-2.4-6.63h1.36l1.66,5.08h.07l1.66-5.08h1.37l-2.7,7.42c-.12.34-.28.63-.48.87s-.42.42-.69.54-.58.18-.93.18v-.02h0Z"/>
  <path class="cls-7" d="m24.15,106.51v8.73h-1.32v-7.41h-.05l-2.09,1.36v-1.26l2.18-1.42h1.28Z"/>
  <path class="cls-7" d="m22.35,131.86c-.67,0-1.25-.18-1.73-.53s-.84-.87-1.1-1.54c-.25-.67-.38-1.48-.38-2.43s.13-1.75.38-2.42.62-1.18,1.1-1.53c.48-.35,1.05-.53,1.72-.53s1.24.18,1.72.53.84.87,1.1,1.53.38,1.48.38,2.42-.13,1.76-.38,2.44c-.25.67-.62,1.18-1.1,1.54-.48.35-1.05.53-1.72.53h.01Zm0-1.14c.59,0,1.05-.29,1.39-.87.33-.58.5-1.41.5-2.5,0-.72-.08-1.34-.23-1.84s-.37-.88-.65-1.14-.62-.39-1.01-.39c-.59,0-1.05.29-1.39.87-.33.58-.5,1.41-.51,2.5,0,.73.08,1.34.23,1.84s.37.88.65,1.14.62.39,1.01.39h.01Z"/>
  <polygon class="cls-8" points="126.16 36.62 117.83 36.71 122.07 43.88 126.16 36.62"/>
  <path class="cls-7" d="m45.98,75.25h-1.4l3.14-8.73h1.52l3.14,8.73h-1.4l-2.47-7.14h-.07l-2.47,7.14Zm.23-3.42h4.53v1.11h-4.53v-1.11Z"/>
  <path class="cls-7" d="m113.91,32.21v-8.73h3.2c.62,0,1.13.1,1.54.3s.71.48.91.82c.2.35.3.73.3,1.17,0,.36-.07.67-.2.92-.13.25-.31.45-.54.6-.22.15-.47.26-.73.33v.08c.29.01.57.11.85.28.28.17.51.42.69.73s.27.7.27,1.15-.1.85-.31,1.2c-.21.35-.53.63-.97.84-.43.21-.99.31-1.67.31h-3.34Zm1.32-4.95h1.76c.3,0,.56-.06.8-.17.24-.11.43-.27.57-.48s.21-.45.21-.73c0-.36-.13-.66-.38-.91s-.64-.37-1.16-.37h-1.8v2.65Zm0,3.82h1.9c.63,0,1.08-.12,1.36-.37.27-.24.41-.55.41-.92,0-.28-.07-.53-.21-.76-.14-.23-.34-.41-.59-.55-.26-.14-.56-.2-.91-.2h-1.95v2.79Z"/>
  <g>
    <path class="cls-7" d="m229.36,82.8c-.59,0-1.12-.11-1.59-.33-.48-.22-.85-.54-1.13-.96-.28-.42-.41-.93-.41-1.54,0-.52.1-.95.3-1.29.2-.34.47-.61.81-.8s.72-.35,1.15-.45c.42-.1.85-.18,1.29-.23.55-.06,1.01-.12,1.35-.16.35-.04.6-.11.75-.21s.24-.25.24-.47v-.04c0-.53-.15-.94-.44-1.23-.3-.29-.74-.43-1.32-.43s-1.09.13-1.43.4c-.35.27-.59.56-.72.89l-1.7-.39c.2-.56.5-1.02.88-1.37.39-.35.84-.6,1.34-.76.51-.16,1.04-.24,1.6-.24.37,0,.76.04,1.18.13.42.09.81.25,1.17.47.36.23.66.56.9.98s.35.97.35,1.65v6.16h-1.76v-1.27h-.07c-.12.23-.29.46-.52.69-.23.23-.53.41-.9.56-.37.15-.8.22-1.32.22Zm.39-1.45c.5,0,.93-.1,1.28-.3.36-.2.63-.46.82-.78.19-.32.28-.66.28-1.03v-1.2c-.06.06-.19.12-.37.18-.18.05-.39.1-.62.14s-.46.07-.68.1c-.22.03-.41.06-.56.08-.35.04-.67.12-.96.22s-.52.25-.69.45c-.17.2-.26.45-.26.78,0,.45.17.78.5,1.01.33.23.75.34,1.26.34Z"/>
    <path class="cls-7" d="m245.93,76.66v-1.59h7.73v1.59h-7.73Zm0,3.72v-1.59h7.73v1.59h-7.73Z"/>
    <path class="cls-7" d="m271.6,73.32l2.05,3.61,2.06-3.61h1.97l-2.89,4.64,2.92,4.64h-1.97l-2.09-3.46-2.08,3.46h-1.98l2.89-4.64-2.85-4.64h1.98Z"/>
    <path class="cls-7" d="m288.92,78.53v-1.62h8.16v1.62h-8.16Zm3.27,3.27v-8.16h1.62v8.16h-1.62Z"/>
    <path class="cls-7" d="m305.52,86.07c-.27,0-.52-.02-.74-.06-.22-.04-.39-.09-.5-.14l.43-1.48c.33.09.62.13.88.12.26-.01.49-.11.69-.29s.38-.48.53-.89l.22-.62-3.39-9.39h1.93l2.35,7.2h.1l2.35-7.2h1.94l-3.82,10.51c-.18.48-.4.89-.68,1.23s-.6.59-.98.76c-.38.17-.82.25-1.32.25Z"/>
  </g>
  <path class="cls-7" d="m79.88,82.64l1.44,2.55,1.46-2.55h1.39l-2.04,3.27,2.06,3.27h-1.39l-1.47-2.45-1.47,2.45h-1.4l2.04-3.27-2.01-3.27h1.4Z"/>
  <path class="cls-7" d="m125.29,64.8c-.19,0-.36-.01-.52-.04-.16-.03-.27-.06-.35-.1l.31-1.04c.23.06.44.09.62.08.18,0,.34-.08.48-.2s.26-.34.37-.63l.16-.43-2.39-6.63h1.36l1.66,5.08h.07l1.66-5.08h1.37l-2.7,7.42c-.12.34-.28.63-.48.87-.19.24-.42.42-.69.53s-.58.18-.93.18Z"/>
  <path class="cls-7" d="m87.07,91.42c-.31,0-.59-.06-.84-.17-.25-.12-.45-.29-.6-.51-.15-.22-.22-.49-.22-.81,0-.28.05-.5.16-.68.11-.18.25-.32.43-.42.18-.1.38-.18.61-.24.22-.05.45-.09.68-.12.29-.03.53-.06.72-.08s.32-.06.4-.11c.08-.05.12-.13.12-.25v-.02c0-.28-.08-.5-.24-.65s-.39-.23-.7-.23-.58.07-.76.21c-.18.14-.31.3-.38.47l-.9-.2c.11-.3.26-.54.47-.72.21-.18.44-.32.71-.4s.55-.13.85-.13c.2,0,.4.02.62.07s.43.13.62.25c.19.12.35.29.47.52.12.22.18.52.18.87v3.26h-.93v-.67h-.04c-.06.12-.16.25-.28.36-.12.12-.28.22-.48.3-.19.08-.43.12-.7.12Zm.21-.77c.26,0,.49-.05.68-.16.19-.1.33-.24.43-.41.1-.17.15-.35.15-.54v-.63s-.1.07-.2.09c-.1.03-.21.05-.33.07-.12.02-.24.04-.36.05-.12.02-.21.03-.29.04-.19.02-.35.06-.51.12-.15.06-.27.13-.36.24s-.14.24-.14.41c0,.24.09.42.26.54.17.12.4.18.67.18Z"/>
  <path class="cls-7" d="m131.06,65.84c-.31,0-.59-.06-.84-.17-.25-.12-.45-.29-.6-.51-.15-.22-.22-.49-.22-.81,0-.28.05-.5.16-.68.11-.18.25-.32.43-.42.18-.1.38-.18.61-.24.22-.05.45-.09.68-.12.29-.03.53-.06.72-.08s.32-.06.4-.11c.08-.05.12-.13.12-.25v-.02c0-.28-.08-.5-.24-.65s-.39-.23-.7-.23-.58.07-.76.21c-.18.14-.31.3-.38.47l-.9-.2c.11-.3.26-.54.47-.72.21-.18.44-.32.71-.4s.55-.13.85-.13c.2,0,.4.02.62.07s.43.13.62.25c.19.12.35.29.47.52.12.22.18.52.18.87v3.26h-.93v-.67h-.04c-.06.12-.16.25-.28.36-.12.12-.28.22-.48.3-.19.08-.43.12-.7.12Zm.21-.77c.26,0,.49-.05.68-.16.19-.1.33-.24.43-.41.1-.17.15-.35.15-.54v-.63s-.1.07-.2.09c-.1.03-.21.05-.33.07-.12.02-.24.04-.36.05-.12.02-.21.03-.29.04-.19.02-.35.06-.51.12-.15.06-.27.13-.36.24s-.14.24-.14.41c0,.24.09.42.26.54.17.12.4.18.67.18Z"/>
  <line class="cls-4" x1="120" y1="80.08" x2="120" y2="41.13"/>
  <line class="cls-4" x1="50.45" y1="80.08" x2="120.2" y2="80.08"/>
  <line class="cls-6" x1="50" y1="80.25" x2="120" y2="40.25"/>
  <line class="cls-5" x1="222.81" y1="72.26" x2="222.72" y2="84.05"/>
  <line class="cls-5" x1="237.51" y1="72.37" x2="237.43" y2="84.17"/>
  <path class="cls-7" d="m281.53,76.27v-.88l2.71-2.8c.29-.3.53-.57.72-.8s.33-.45.42-.66.14-.43.14-.66c0-.27-.06-.5-.19-.69s-.3-.34-.51-.45-.46-.16-.73-.16c-.29,0-.54.06-.75.18s-.38.28-.49.5-.17.46-.17.75h-1.15c0-.49.11-.91.34-1.28s.53-.65.92-.85.83-.3,1.33-.3.95.1,1.33.3.68.47.9.81.32.73.32,1.16c0,.3-.06.59-.17.87s-.3.6-.58.95-.65.77-1.14,1.26l-1.59,1.66v.06h3.6v1.04h-5.27Z"/>
  <path class="cls-7" d="m314.71,76.26v-.88l2.71-2.8c.29-.3.53-.57.72-.8s.33-.45.42-.66.14-.43.14-.66c0-.27-.06-.5-.19-.69s-.3-.34-.51-.45-.46-.16-.73-.16c-.29,0-.54.06-.75.18s-.38.28-.49.5-.17.46-.17.75h-1.15c0-.49.11-.91.34-1.28s.53-.65.92-.85.83-.3,1.33-.3.95.1,1.33.3.68.47.9.81.32.73.32,1.16c0,.3-.06.59-.17.87s-.3.6-.58.95-.65.77-1.14,1.26l-1.59,1.66v.06h3.6v1.04h-5.27Z"/>
  <path class="cls-7" d="m312.97,89.07c-.42,0-.79-.08-1.12-.23-.34-.16-.6-.38-.79-.68s-.29-.66-.29-1.09c0-.37.07-.67.21-.91.14-.24.33-.43.58-.57.24-.14.51-.24.81-.32.3-.07.6-.12.91-.16.39-.04.71-.08.96-.11.24-.03.42-.08.53-.15s.17-.18.17-.33v-.03c0-.37-.1-.66-.31-.87-.21-.2-.52-.31-.93-.31s-.77.09-1.01.28c-.25.19-.42.4-.51.63l-1.2-.27c.14-.4.35-.72.62-.97.27-.25.59-.42.95-.54.36-.11.73-.17,1.13-.17.26,0,.54.03.83.09s.57.17.83.33c.26.16.47.39.63.69s.25.69.25,1.17v4.35h-1.24v-.89h-.05c-.08.16-.21.33-.37.49s-.38.29-.63.4c-.26.1-.57.16-.93.16Zm.28-1.02c.35,0,.65-.07.91-.21.25-.14.44-.32.58-.55.13-.23.2-.47.2-.73v-.84s-.13.09-.26.12c-.13.04-.28.07-.44.1-.17.03-.33.05-.48.07s-.29.04-.39.05c-.25.03-.47.08-.68.16s-.36.18-.49.32-.18.32-.18.55c0,.32.12.55.35.71.23.16.53.24.89.24Z"/>
  <path class="cls-7" d="m280.57,86.95c-.42,0-.79-.08-1.12-.23-.34-.16-.6-.38-.79-.68s-.29-.66-.29-1.09c0-.37.07-.67.21-.91.14-.24.33-.43.58-.57.24-.14.51-.24.81-.32.3-.07.6-.12.91-.16.39-.04.71-.08.96-.11.24-.03.42-.08.53-.15s.17-.18.17-.33v-.03c0-.37-.1-.66-.31-.87-.21-.2-.52-.31-.93-.31s-.77.09-1.01.28c-.25.19-.42.4-.51.63l-1.2-.27c.14-.4.35-.72.62-.97.27-.25.59-.42.95-.54.36-.11.73-.17,1.13-.17.26,0,.54.03.83.09s.57.17.83.33c.26.16.47.39.63.69s.25.69.25,1.17v4.35h-1.24v-.89h-.05c-.08.16-.21.33-.37.49s-.38.29-.63.4c-.26.1-.57.16-.93.16Zm.28-1.02c.35,0,.65-.07.91-.21.25-.14.44-.32.58-.55.13-.23.2-.47.2-.73v-.84s-.13.09-.26.12c-.13.04-.28.07-.44.1-.17.03-.33.05-.48.07s-.29.04-.39.05c-.25.03-.47.08-.68.16s-.36.18-.49.32-.18.32-.18.55c0,.32.12.55.35.71.23.16.53.24.89.24Z"/>
  <path class="cls-7" d="m321.34,64.58v1.67c-7.45,0-43.69,0-51.15,0-.15.5-1.24,4.06-1.39,4.54-.3.98-.61,1.96-.91,2.94-.2.66-.4,1.33-.61,1.99-.3.98-.6,1.95-.91,2.93-.25.82-.5,1.64-.75,2.45-.13.44-.26.87-.39,1.31-.21.68-.42,1.36-.63,2.04-.03.09-.06.12-.16.12-.5,0-1,0-1.5,0-.08,0-.12,0-.15-.1-.19-.57-.41-1.13-.61-1.7-.39-1.08-.78-2.17-1.17-3.26-.31-.87-.62-1.74-.93-2.62-.03-.08-.07-.09-.15-.09-.54,0-1.07,0-1.61,0h-.16v-1.71h.22c.94,0,1.87,0,2.81,0,.12,0,.17.03.21.14.13.39.27.77.4,1.16.3.87.6,1.74.89,2.61.28.83.57,1.66.85,2.48.01.03.04.06.07.11.24-.78.46-1.53.69-2.29.26-.85.52-1.69.78-2.54.25-.83.51-1.66.76-2.5.29-.94.57-1.88.86-2.82.24-.8.48-1.6.73-2.4.13-.42,1.27-3.91,1.38-4.33.03-.12.08-.16.2-.16,3.66,0,6.31.15,9.97.15,4.15,0,8.29.05,12.45.05.06,0,29.84-.2,29.91-.2Z"/>
  <line class="cls-2" x1="223.72" y1="68.72" x2="234.46" y2="68.72"/>
  <polygon class="cls-7" points="237.39 68.72 234.46 67.04 234.46 70.41 237.39 68.72"/>
</svg>