<?xml version="1.0" encoding="UTF-8"?>
<svg id="Layer_1" data-name="Layer 1" xmlns="http://www.w3.org/2000/svg" viewBox="0 0 321.97 150.5">
  <defs>
    <style>
      .cls-1 {
        isolation: isolate;
        opacity: .3;
        stroke: #bdccd4;
        stroke-width: .5px;
      }

      .cls-1, .cls-2, .cls-3, .cls-4, .cls-5 {
        fill: none;
        stroke-miterlimit: 10;
      }

      .cls-6 {
        fill: #fff;
      }

      .cls-2, .cls-3, .cls-4 {
        stroke: #fff;
      }

      .cls-3, .cls-5 {
        stroke-width: 2px;
      }

      .cls-4 {
        stroke-dasharray: 0 0 4 3;
      }

      .cls-7 {
        fill: #d1ae59;
      }

      .cls-5 {
        stroke: #d1ae59;
      }
    </style>
  </defs>
  <rect class="cls-1" x=".25" y=".25" width="149.75" height="150"/>
  <line class="cls-1" x1="70" y1="0" x2="70" y2="150.5"/>
  <line class="cls-1" x1="60" y1="0" x2="60" y2="150.5"/>
  <line class="cls-1" x1="50" y1="0" x2="50" y2="150.5"/>
  <line class="cls-1" x1="40" y1="0" x2="40" y2="150.5"/>
  <line class="cls-1" x1="30" y1="0" x2="30" y2="150.5"/>
  <line class="cls-1" x1="20" y1="0" x2="20" y2="150.5"/>
  <line class="cls-1" x1="10" y1="0" x2="10" y2="150.5"/>
  <line class="cls-1" x1="150.25" y1="80.25" y2="80.25"/>
  <line class="cls-1" x1="150.25" y1="90.25" y2="90.25"/>
  <line class="cls-1" x1="150.25" y1="100.25" y2="100.25"/>
  <line class="cls-1" x1="150.25" y1="110.31" x2="0" y2="110.31"/>
  <line class="cls-1" x1="150.25" y1="120.25" y2="120.25"/>
  <line class="cls-1" x1="150.25" y1="130.25" y2="130.25"/>
  <line class="cls-1" x1="150.25" y1="140.25" y2="140.25"/>
  <line class="cls-1" x1="150.25" y1="70.25" y2="70.25"/>
  <line class="cls-1" x1="150.25" y1="60.25" y2="60.25"/>
  <line class="cls-1" x1="150.25" y1="50.25" y2="50.25"/>
  <line class="cls-1" x1="150.25" y1="40.25" y2="40.25"/>
  <line class="cls-1" x1="150.25" y1="30.25" y2="30.25"/>
  <line class="cls-1" x1="150.25" y1="20.25" y2="20.25"/>
  <line class="cls-1" x1="150.25" y1="10.25" y2="10.25"/>
  <line class="cls-1" x1="80" y1="0" x2="80" y2="150.5"/>
  <line class="cls-1" x1="90" y1="0" x2="90" y2="150.5"/>
  <line class="cls-1" x1="100" y1="0" x2="100" y2="150.5"/>
  <line class="cls-1" x1="110" y1="0" x2="110" y2="150.5"/>
  <line class="cls-1" x1="120" y1="0" x2="120" y2="150.5"/>
  <line class="cls-1" x1="130" y1="0" x2="130" y2="150.5"/>
  <line class="cls-1" x1="140" y1="0" x2="140" y2="150.5"/>
  <line class="cls-3" x1="30" y1="10.31" x2="30" y2="140.25"/>
  <line class="cls-3" x1="10" y1="119.8" x2="140" y2="119.8"/>
  <polygon class="cls-6" points="145.82 119.8 139.91 116.39 139.91 123.21 145.82 119.8"/>
  <polygon class="cls-6" points="30 4.85 26.59 10.77 33.41 10.77 30 4.85"/>
  <line class="cls-2" x1="40" y1="116.45" x2="40" y2="123.27"/>
  <line class="cls-2" x1="33.41" y1="110.31" x2="26.59" y2="110.31"/>
  <path class="cls-6" d="m40.62,125.44v8.73h-1.32v-7.41h-.05l-2.09,1.36v-1.26l2.18-1.42s1.28,0,1.28,0Z"/>
  <path class="cls-6" d="m141.42,126.48l1.44,2.55,1.46-2.55h1.39l-2.04,3.27,2.06,3.27h-1.39l-1.47-2.45-1.47,2.45h-1.4l2.04-3.27-2.01-3.27h1.4-.01Z"/>
  <path class="cls-6" d="m19.8,12.76c-.19,0-.36-.01-.52-.04-.16-.03-.27-.06-.35-.1l.31-1.04c.23.06.44.09.62.08.18,0,.34-.08.48-.2.14-.13.27-.34.37-.63l.16-.43-2.4-6.63h1.36l1.66,5.08h.07l1.66-5.08h1.37l-2.7,7.42c-.12.34-.28.63-.48.87s-.42.42-.69.54-.58.18-.93.18v-.02h0Z"/>
  <path class="cls-6" d="m24.15,106.51v8.73h-1.32v-7.41h-.05l-2.09,1.36v-1.26l2.18-1.42h1.28Z"/>
  <path class="cls-6" d="m22.35,131.86c-.67,0-1.25-.18-1.73-.53s-.84-.87-1.1-1.54c-.25-.67-.38-1.48-.38-2.43s.13-1.75.38-2.42.62-1.18,1.1-1.53c.48-.35,1.05-.53,1.72-.53s1.24.18,1.72.53.84.87,1.1,1.53.38,1.48.38,2.42-.13,1.76-.38,2.44c-.25.67-.62,1.18-1.1,1.54-.48.35-1.05.53-1.72.53h.01Zm0-1.14c.59,0,1.05-.29,1.39-.87.33-.58.5-1.41.5-2.5,0-.72-.08-1.34-.23-1.84s-.37-.88-.65-1.14-.62-.39-1.01-.39c-.59,0-1.05.29-1.39.87-.33.58-.5,1.41-.51,2.5,0,.73.08,1.34.23,1.84s.37.88.65,1.14.62.39,1.01.39h.01Z"/>
  <polygon class="cls-7" points="126.16 36.62 117.83 36.71 122.07 43.88 126.16 36.62"/>
  <path class="cls-6" d="m45.98,75.25h-1.4l3.14-8.73h1.52l3.14,8.73h-1.4l-2.47-7.14h-.07l-2.47,7.14Zm.23-3.42h4.53v1.11h-4.53v-1.11Z"/>
  <path class="cls-6" d="m113.91,32.21v-8.73h3.2c.62,0,1.13.1,1.54.3s.71.48.91.82c.2.35.3.73.3,1.17,0,.36-.07.67-.2.92s-.31.45-.54.6c-.22.15-.47.26-.73.33v.09c.29.01.57.11.85.28.28.17.51.42.69.73s.27.7.27,1.15-.1.85-.31,1.2c-.21.35-.53.63-.97.84-.43.21-.99.31-1.67.31h-3.34Zm1.32-4.95h1.76c.3,0,.56-.06.8-.17s.43-.27.57-.48.21-.45.21-.73c0-.36-.13-.66-.38-.91-.25-.24-.64-.37-1.16-.37h-1.8v2.65Zm0,3.82h1.9c.63,0,1.08-.12,1.36-.37.27-.24.41-.55.41-.92,0-.28-.07-.53-.21-.76-.14-.23-.34-.41-.59-.55s-.56-.2-.91-.2h-1.95v2.8Z"/>
  <g>
    <path class="cls-6" d="m176.43,82.59h-1.98l4.45-12.36h2.16l4.45,12.36h-1.98l-3.5-10.12h-.1l-3.5,10.12Zm.33-4.84h6.42v1.57h-6.42v-1.57Z"/>
    <path class="cls-6" d="m187.29,82.59v-12.36h4.53c.88,0,1.6.14,2.18.43.58.29,1.01.68,1.29,1.17.29.49.43,1.04.43,1.65,0,.52-.09.95-.28,1.3-.19.35-.44.63-.76.85-.32.21-.66.37-1.04.46v.12c.41.02.81.15,1.2.4.39.24.72.59.98,1.04.26.45.39.99.39,1.63s-.15,1.2-.44,1.7-.75.9-1.37,1.19c-.62.29-1.4.44-2.36.44h-4.74Zm1.87-7.01h2.5c.42,0,.8-.08,1.13-.24.34-.16.6-.39.8-.68s.3-.64.3-1.04c0-.51-.18-.94-.54-1.29-.36-.35-.91-.52-1.65-.52h-2.55v3.76Zm0,5.42h2.69c.89,0,1.53-.17,1.92-.52.39-.35.58-.78.58-1.3,0-.39-.1-.75-.29-1.07-.2-.33-.48-.59-.84-.78-.36-.19-.8-.29-1.29-.29h-2.76v3.96Z"/>
    <path class="cls-6" d="m203.29,77.46c0-1.51.2-2.91.6-4.18.4-1.27.98-2.44,1.75-3.52h1.65c-.3.4-.58.89-.83,1.47-.26.58-.48,1.21-.68,1.9-.19.69-.34,1.4-.45,2.14-.11.74-.16,1.47-.16,2.18,0,.96.09,1.93.28,2.91.19.98.45,1.89.77,2.74.32.84.68,1.53,1.08,2.06h-1.65c-.76-1.07-1.35-2.25-1.75-3.52-.4-1.27-.6-2.67-.6-4.18Z"/>
    <path class="cls-6" d="m210.61,73.32l2.05,3.61,2.06-3.61h1.97l-2.89,4.64,2.92,4.64h-1.97l-2.09-3.46-2.08,3.46h-1.98l2.89-4.64-2.85-4.64h1.98Z"/>
    <path class="cls-6" d="m233.03,76.58v1.56h-5.48v-1.56h5.48Z"/>
    <path class="cls-6" d="m241.36,73.32l2.05,3.61,2.06-3.61h1.97l-2.89,4.64,2.92,4.64h-1.97l-2.09-3.46-2.08,3.46h-1.98l2.89-4.64-2.85-4.64h1.98Z"/>
    <path class="cls-6" d="m260.66,80.9l-.09.66c-.06.48-.16.99-.31,1.51-.14.52-.29,1.01-.44,1.46-.15.45-.27.81-.37,1.07h-1.28c.05-.25.12-.59.22-1.01.09-.42.18-.9.27-1.42.09-.52.16-1.06.2-1.6l.06-.68h1.74Zm-.94-4.94c-.33,0-.61-.12-.85-.36s-.36-.52-.36-.85.12-.61.36-.85c.24-.24.52-.35.85-.35s.61.12.85.35c.24.24.36.52.36.85,0,.22-.05.42-.17.61-.11.18-.26.33-.44.44-.18.11-.38.16-.6.16Z"/>
    <path class="cls-6" d="m268.85,86.07c-.27,0-.52-.02-.74-.06-.22-.04-.39-.09-.5-.14l.43-1.48c.33.09.62.13.88.12.26-.01.49-.11.69-.29s.38-.48.53-.89l.22-.62-3.39-9.39h1.93l2.35,7.2h.1l2.35-7.2h1.94l-3.82,10.51c-.18.48-.4.89-.68,1.23s-.6.59-.98.76c-.38.17-.82.25-1.32.25Z"/>
    <path class="cls-6" d="m291.81,76.58v1.56h-5.48v-1.56h5.48Z"/>
    <path class="cls-6" d="m299.86,86.07c-.27,0-.52-.02-.74-.06-.22-.04-.39-.09-.5-.14l.43-1.48c.33.09.62.13.88.12.26-.01.49-.11.69-.29s.38-.48.53-.89l.22-.62-3.39-9.39h1.93l2.35,7.2h.1l2.35-7.2h1.94l-3.82,10.51c-.18.48-.4.89-.68,1.23s-.6.59-.98.76c-.38.17-.82.25-1.32.25Z"/>
    <path class="cls-6" d="m320.83,77.46c0,1.52-.2,2.91-.6,4.18-.4,1.27-.98,2.44-1.74,3.52h-1.65c.3-.4.58-.89.83-1.47.26-.58.48-1.21.68-1.9s.34-1.41.45-2.15c.11-.74.16-1.47.16-2.19,0-.95-.09-1.92-.28-2.9-.19-.98-.44-1.89-.77-2.73-.32-.84-.68-1.53-1.07-2.06h1.65c.76,1.07,1.35,2.25,1.74,3.52.4,1.27.6,2.66.6,4.18Z"/>
  </g>
  <path class="cls-6" d="m218.76,87.46v-8.73h3.2c.62,0,1.13.1,1.54.3s.71.48.91.82c.2.35.3.73.3,1.17,0,.36-.07.67-.2.92-.13.25-.31.45-.53.6-.22.15-.47.26-.74.33v.08c.29.01.57.11.85.28.28.17.51.42.69.73.18.32.27.7.27,1.15s-.1.85-.31,1.2-.53.63-.97.84c-.43.21-.99.31-1.67.31h-3.34Zm1.32-4.95h1.76c.29,0,.56-.06.8-.17s.43-.27.57-.48.21-.45.21-.73c0-.36-.13-.66-.38-.91s-.64-.37-1.16-.37h-1.8v2.65Zm0,3.82h1.9c.63,0,1.08-.12,1.36-.37.27-.24.41-.55.41-.92,0-.28-.07-.53-.21-.76-.14-.23-.34-.41-.59-.55-.26-.14-.56-.21-.91-.21h-1.95v2.8Z"/>
  <path class="cls-6" d="m276.84,87.46v-8.73h3.2c.62,0,1.13.1,1.54.3s.71.48.91.82c.2.35.3.73.3,1.17,0,.36-.07.67-.2.92-.13.25-.31.45-.53.6-.22.15-.47.26-.74.33v.08c.29.01.57.11.85.28.28.17.51.42.69.73.18.32.27.7.27,1.15s-.1.85-.31,1.2-.53.63-.97.84c-.43.21-.99.31-1.67.31h-3.34Zm1.32-4.95h1.76c.29,0,.56-.06.8-.17s.43-.27.57-.48.21-.45.21-.73c0-.36-.13-.66-.38-.91s-.64-.37-1.16-.37h-1.8v2.65Zm0,3.82h1.9c.63,0,1.08-.12,1.36-.37.27-.24.41-.55.41-.92,0-.28-.07-.53-.21-.76-.14-.23-.34-.41-.59-.55-.26-.14-.56-.21-.91-.21h-1.95v2.8Z"/>
  <path class="cls-6" d="m249.46,87.46h-1.4l3.14-8.73h1.52l3.14,8.73h-1.4l-2.47-7.14h-.07l-2.47,7.14Zm.23-3.42h4.53v1.11h-4.53v-1.11Z"/>
  <path class="cls-6" d="m306.71,87.46h-1.4l3.14-8.73h1.52l3.14,8.73h-1.4l-2.47-7.14h-.07l-2.47,7.14Zm.23-3.42h4.53v1.11h-4.53v-1.11Z"/>
  <path class="cls-6" d="m117.06,122.75l1.44,2.55,1.46-2.55h1.39l-2.04,3.27,2.06,3.27h-1.39l-1.47-2.45-1.47,2.45h-1.4l2.04-3.27-2.01-3.27h1.4Z"/>
  <path class="cls-6" d="m47.49,123.2l1.44,2.55,1.46-2.55h1.39l-2.04,3.27,2.06,3.27h-1.39l-1.47-2.45-1.47,2.45h-1.4l2.04-3.27-2.01-3.27h1.4Z"/>
  <path class="cls-6" d="m17.83,85.03c-.19,0-.36-.01-.52-.04-.16-.03-.27-.06-.35-.1l.31-1.04c.23.06.44.09.62.08.18,0,.34-.08.48-.2s.26-.34.37-.63l.16-.43-2.39-6.63h1.36l1.66,5.08h.07l1.66-5.08h1.37l-2.7,7.42c-.12.34-.28.63-.48.87-.19.24-.42.42-.69.53s-.58.18-.93.18Z"/>
  <path class="cls-6" d="m17.49,43.59c-.19,0-.36-.01-.52-.04-.16-.03-.27-.06-.35-.1l.31-1.04c.23.06.44.09.62.08.18,0,.34-.08.48-.2s.26-.34.37-.63l.16-.43-2.39-6.63h1.36l1.66,5.08h.07l1.66-5.08h1.37l-2.7,7.42c-.12.34-.28.63-.48.87-.19.24-.42.42-.69.53s-.58.18-.93.18Z"/>
  <path class="cls-6" d="m122.74,131.87v-6.55h2.4c.46,0,.85.08,1.15.23s.53.36.68.62.23.55.23.87c0,.27-.05.5-.15.69-.1.19-.23.34-.4.45-.17.11-.35.19-.55.24v.06c.22.01.43.08.64.21s.38.31.52.55c.14.24.21.52.21.86s-.08.63-.24.9c-.16.27-.4.48-.72.63s-.74.23-1.25.23h-2.51Zm.99-3.71h1.32c.22,0,.42-.04.6-.13s.32-.21.42-.36.16-.34.16-.55c0-.27-.09-.5-.28-.68-.19-.18-.48-.28-.87-.28h-1.35v1.99Zm0,2.87h1.42c.47,0,.81-.09,1.02-.28.2-.18.31-.41.31-.69,0-.21-.05-.4-.16-.57s-.25-.31-.45-.41c-.19-.1-.42-.15-.69-.15h-1.46v2.1Z"/>
  <path class="cls-6" d="m53.89,131.87h-1.05l2.36-6.55h1.14l2.36,6.55h-1.05l-1.85-5.36h-.05l-1.85,5.36Zm.18-2.56h3.4v.83h-3.4v-.83Z"/>
  <path class="cls-6" d="m22.8,85.96h-1.05l2.36-6.55h1.14l2.36,6.55h-1.05l-1.85-5.36h-.05l-1.85,5.36Zm.18-2.56h3.4v.83h-3.4v-.83Z"/>
  <path class="cls-6" d="m22.25,45.43v-6.55h2.4c.46,0,.85.08,1.15.23s.53.36.68.62.23.55.23.87c0,.27-.05.5-.15.69-.1.19-.23.34-.4.45-.17.11-.35.19-.55.24v.06c.22.01.43.08.64.21s.38.31.52.55c.14.24.21.52.21.86s-.08.63-.24.9c-.16.27-.4.48-.72.63s-.74.23-1.25.23h-2.51Zm.99-3.71h1.32c.22,0,.42-.04.6-.13s.32-.21.42-.36.16-.34.16-.55c0-.27-.09-.5-.28-.68-.19-.18-.48-.28-.87-.28h-1.35v1.99Zm0,2.87h1.42c.47,0,.81-.09,1.02-.28.2-.18.31-.41.31-.69,0-.21-.05-.4-.16-.57s-.25-.31-.45-.41c-.19-.1-.42-.15-.69-.15h-1.46v2.1Z"/>
  <line class="cls-4" x1="50" y1="119.86" x2="50" y2="80.25"/>
  <line class="cls-4" x1="120" y1="119.03" x2="120" y2="41.13"/>
  <line class="cls-4" x1="30" y1="80.08" x2="50" y2="80.08"/>
  <line class="cls-4" x1="30" y1="40.25" x2="119.11" y2="40.25"/>
  <line class="cls-5" x1="50" y1="80.25" x2="120" y2="40.25"/>
  <line class="cls-2" x1="174.45" y1="66.12" x2="193.07" y2="66.12"/>
  <polygon class="cls-6" points="196 66.12 193.07 64.44 193.07 67.81 196 66.12"/>
</svg>